<?xml version="1.0" encoding="UTF-8"?>
<!-- Generator: Adobe Illustrator 17.1.0, SVG Export Plug-In . SVG Version: 6.00 Build 0)  -->
<!DOCTYPE svg PUBLIC "-//W3C//DTD SVG 1.1//EN" "http://www.w3.org/Graphics/SVG/1.1/DTD/svg11.dtd">
<svg version="1.1" id="Layer_1" xmlns="http://www.w3.org/2000/svg" xmlns:xlink="http://www.w3.org/1999/xlink" x="0px" y="0px" viewBox="0 0 283.8 160.6" enable-background="new 0 0 283.8 160.6" xml:space="preserve">
<g>
	<path fill="#05336E" d="M11.8,110.8c0-6.9,4.6-10.9,11.4-10.9c3.3,0,5.7,0.7,5.7,0.7v3.8c0,0-1.9-2.7-5.5-2.7c-4.4,0-7,3.4-7,8.9   c0,5.3,2.6,8.5,7.1,8.5c3.8,0,5.8-2.1,5.8-2.1l0.3,2.5c0,0-2.4,1.4-7.1,1.4C16,121,11.8,117.2,11.8,110.8L11.8,110.8z"/>
	<path fill="#05336E" d="M51.6,110.1c0,6.1,0.1,8.5,0.3,10.5h-4.6c0.3-2,0.3-4.4,0.3-10.5v-7.8h-9.1v7.8c0,6.1,0.1,8.5,0.3,10.5   h-4.6c0.3-2,0.3-4.4,0.3-10.5c0-5.6-0.1-7.8-0.3-9.8h17.7C51.6,102.2,51.6,104.4,51.6,110.1L51.6,110.1z"/>
	<path fill="#05336E" d="M68.7,114c0-3.1-1.5-5.2-3.6-5.2c-2.1,0-3.6,2.1-3.6,5.2c0,3.2,1.5,5.2,3.6,5.2   C67.3,119.3,68.7,117.2,68.7,114L68.7,114z M72.9,114c0,4.2-3,6.9-7.7,6.9c-4.6,0-7.9-2.5-7.9-9.8c0-7.4,2.6-10.1,8.9-10.7l2.8-0.3   c1.6-0.1,2.4-0.8,2.4-0.8v4.2l-5.4,0.3c-4.8,0.3-6.5,1.9-6.7,6.6c1.2-2.1,3.4-3.4,6.4-3.4C70,107.1,72.9,109.9,72.9,114L72.9,114z"/>
	<path fill="#05336E" d="M90.8,103.3c-2.9-1.1-4.9-1.2-7.9-1.2h-0.5v7.9c0,6.1,0.1,8.5,0.3,10.5h-4.6c0.3-2,0.3-4.4,0.3-10.5   c0-5.6-0.1-7.8-0.3-9.8h12.6V103.3L90.8,103.3z"/>
	<path fill="#05336E" d="M111.8,110.1c0,6.8-4.7,10.9-11.6,10.9c-3.4,0-5.9-0.7-5.9-0.7v-3.8c0,0,2.1,2.7,5.8,2.7   c4.4,0,7.1-3.2,7.3-8.3h-1.1c-3,0-5.3,0.1-8.5,0.7v-3.2c3.3,0.6,5.5,0.7,8.5,0.7h1.1c-0.4-4.6-2.9-7.4-7.1-7.4   c-3.7,0-5.7,2.5-5.7,2.5l-0.3-2.9c0,0,2.2-1.4,6.4-1.4C107.5,99.9,111.8,103.8,111.8,110.1L111.8,110.1z"/>
	<path fill="#05336E" d="M131,100.3v3c-2.3-0.9-3.9-1.2-5.6-1.2h-0.6v7.9c0,6.1,0.1,8.5,0.3,10.5h-4.6c0.3-2,0.3-4.4,0.3-10.5v-7.9   h-0.6c-1.9,0-3.4,0.3-5.7,1.2v-3H131L131,100.3z"/>
	<path fill="#05336E" d="M153.1,100.3c-1.8,3-2.7,6-5,11.3c-2.7,6.2-4.3,9.3-8.7,9.3c-1.6,0-2.3-0.6-2.3-0.6V117c0,0,1.2,1.4,3,1.4   c1.4,0,2.4-0.6,3.2-1.8l-7.1-12.1c-0.9-1.5-1.3-2.1-2.8-4.2h5.4c0.5,2,0.8,2.8,2.6,5.9l4.1,6.7c0.2-0.6,0.5-1.2,0.8-1.9   c2.1-5.8,2.8-7.5,2.9-10.7H153.1L153.1,100.3z"/>
	<path fill="#05336E" d="M170.2,104.4h1.5l-2.9,5.5l2.9,5.5h-1.5l-3.8-5.5L170.2,104.4L170.2,104.4z M165.6,104.4h1.5l-2.9,5.5   l2.9,5.5h-1.5l-3.8-5.5L165.6,104.4L165.6,104.4z"/>
	<path fill="#05336E" d="M193.6,120.6h-5.2c-0.1-2.2-0.3-3.1-1.8-6.8l-4-9.5l-3.5,9.5c-1.3,3.5-1.6,4.7-1.9,6.9h-3.5   c1-2.1,1.4-3,3-6.9l5.5-13.4h2l0,0.1l0.1-0.1h1.1l5.9,14.7C192.2,117.6,192.6,118.4,193.6,120.6L193.6,120.6z"/>
	<path fill="#05336E" d="M213.3,110.1c0,6.8-4.7,10.9-11.6,10.9c-3.4,0-5.9-0.7-5.9-0.7v-3.8c0,0,2.1,2.7,5.8,2.7   c4.4,0,7.1-3.2,7.3-8.3h-1.1c-3,0-5.3,0.1-8.5,0.7v-3.2c3.3,0.6,5.5,0.7,8.5,0.7h1.1c-0.4-4.6-2.9-7.4-7.1-7.4   c-3.7,0-5.7,2.5-5.7,2.5l-0.3-2.9c0,0,2.2-1.4,6.4-1.4C209.1,99.9,213.3,103.8,213.3,110.1L213.3,110.1z"/>
	<path fill="#05336E" d="M232.5,100.3v3c-2.3-0.9-3.9-1.2-5.6-1.2h-0.6v7.9c0,6.1,0.1,8.5,0.3,10.5H222c0.3-2,0.3-4.4,0.3-10.5v-7.9   h-0.6c-1.9,0-3.4,0.3-5.7,1.2v-3H232.5L232.5,100.3z"/>
	<path fill="#05336E" d="M255.2,110.1c0,6.1,0.1,8.5,0.3,10.5h-4.6c0.3-2,0.3-4.4,0.3-10.5v-5.9l-9.6,16.4h-4.3   c0.3-2,0.3-4.2,0.3-9.8c0-6.1-0.1-8.5-0.3-10.5h4.6c-0.3,2-0.3,4.4-0.3,10.5v5.9l9.6-16.4h4.3C255.2,102.2,255.2,104.4,255.2,110.1   L255.2,110.1z"/>
	<path fill="#05336E" d="M266.7,115.5h-1.5l2.9-5.5l-2.9-5.5h1.5l3.8,5.5L266.7,115.5L266.7,115.5z M262.1,115.5h-1.5l2.9-5.5   l-2.9-5.5h1.5l3.8,5.5L262.1,115.5L262.1,115.5z"/>
	<path fill="#05336E" d="M21.6,138.7c0,3,0,4.2,0.2,5.1h-2.2c0.1-1,0.2-2.2,0.2-5.1v-3.8h-4.4v3.8c0,3,0,4.2,0.2,5.1h-2.2   c0.1-1,0.2-2.2,0.2-5.1c0-2.7,0-3.8-0.2-4.8h8.6C21.6,134.9,21.6,136,21.6,138.7L21.6,138.7z"/>
	<path fill="#05336E" d="M31.4,142.2v1.6H25c0.1-1,0.2-2.2,0.2-5.1c0-2.7,0-3.8-0.2-4.8h6.2v1.5c-1.4-0.5-2.4-0.6-3.8-0.6h-0.2v3.4   c1.2,0,2-0.1,3.2-0.3v1.6c-1.2-0.3-2-0.3-3.2-0.3v3.8h0.5C29.1,142.9,30.2,142.9,31.4,142.2L31.4,142.2z"/>
	<path fill="#05336E" d="M39.1,136.9c0-1.3-0.6-2-2-2h-0.9v4.1h0.6C38.3,139,39.1,138.3,39.1,136.9L39.1,136.9z M41.1,136.7   c0,2.1-1.4,3.2-4.2,3.2h-0.7c0,1.9,0,3,0.2,4h-2.2c0.1-1,0.2-2.2,0.2-5.1c0-2.7,0-3.8-0.2-4.8h3.5C39.8,134,41.1,134.9,41.1,136.7   L41.1,136.7z"/>
	<path fill="#05336E" d="M49.1,141.1c0-1.3-1-1.9-2.5-1.9h-0.7v3.8h0.7C48.2,142.9,49.1,142.3,49.1,141.1L49.1,141.1z M45.8,134.9   v3.4h0.8c1.4,0,2.1-0.6,2.1-1.8c0-1-0.6-1.6-2-1.6H45.8L45.8,134.9z M51.1,141c0,1.9-1.5,2.9-4.3,2.9h-3.1c0.1-1,0.2-2.2,0.2-5.1   c0-2.7,0-3.8-0.2-4.8h3.5c2.3,0,3.4,0.8,3.4,2.3c0,1.1-0.7,2.2-2.3,2.4C50.5,138.8,51.1,139.8,51.1,141L51.1,141z"/>
	<path fill="#05336E" d="M63.8,138.7c0,3,0,4.2,0.2,5.1h-2.2c0.1-1,0.2-2.2,0.2-5.1c0-2.7,0-3.8-0.2-4.8h2.2   C63.8,134.9,63.8,136,63.8,138.7L63.8,138.7z M58.6,140.8c0-1.3-0.7-2-2-2h-0.7v4.1h0.4C57.9,143,58.6,142.2,58.6,140.8L58.6,140.8   z M60.7,140.7c0,2.1-1.4,3.2-4.2,3.2h-0.5v0h-2.1c0.1-1,0.2-2,0.2-4.8c0-3,0-4.2-0.2-5.1H56c-0.1,1-0.2,2.1-0.2,4h1.2   C59.4,137.9,60.7,138.9,60.7,140.7L60.7,140.7z"/>
	<path fill="#05336E" d="M68.8,131.3h1.8c0,0-0.1,1.5,1.1,1.5c1.2,0,1.1-1.5,1.1-1.5h1.7c0,0-0.4,2.2-2.8,2.2   C69.2,133.5,68.8,131.3,68.8,131.3L68.8,131.3z M75.9,138.7c0,3,0,4.2,0.2,5.1h-2.2c0.1-1,0.2-2.2,0.2-5.1v-2.9l-4.7,8h-2.1   c0.1-1,0.2-2,0.2-4.8c0-3,0-4.2-0.2-5.1h2.2c-0.1,1-0.2,2.2-0.2,5.1v2.9l4.7-8H76C75.9,134.9,75.9,136,75.9,138.7L75.9,138.7z"/>
	<path fill="#05336E" d="M91.4,138.8c0,3.3-2.3,5.3-5.7,5.3c-1.7,0-2.9-0.3-2.9-0.3v-1.8c0,0,1,1.3,2.8,1.3c2.2,0,3.5-1.6,3.6-4.1   h-0.6c-1.5,0-2.6,0.1-4.2,0.3v-1.6c1.6,0.3,2.7,0.4,4.2,0.4h0.5c-0.2-2.2-1.4-3.6-3.5-3.6c-1.8,0-2.8,1.2-2.8,1.2l-0.1-1.4   c0,0,1.1-0.7,3.1-0.7C89.3,133.8,91.4,135.7,91.4,138.8L91.4,138.8z"/>
	<path fill="#05336E" d="M102.3,143.9h-2.5c-0.1-1.1-0.1-1.5-0.9-3.3l-1.9-4.6l-1.7,4.6c-0.6,1.7-0.8,2.3-0.9,3.4h-1.7   c0.5-1,0.7-1.5,1.4-3.4l2.7-6.5h1l0,0l0,0h0.5l2.9,7.1C101.6,142.4,101.8,142.8,102.3,143.9L102.3,143.9z"/>
	<path fill="#05336E" d="M110.7,142.2v1.6h-6.4c0.1-1,0.2-2.2,0.2-5.1c0-2.7,0-3.8-0.2-4.8h6.2v1.5c-1.4-0.5-2.4-0.6-3.8-0.6h-0.2   v3.4c1.2,0,2-0.1,3.2-0.3v1.6c-1.2-0.3-2-0.3-3.2-0.3v3.8h0.5C108.3,142.9,109.5,142.9,110.7,142.2L110.7,142.2z"/>
	<path fill="#05336E" d="M122.3,143.9h-3l-3.6-5.2l2-2.1c1.1-1.2,1.6-1.7,2-2.6h2.1c0,0-1.2,1-2.3,2.2l-1.9,1.9l1.6,2.2   C120.3,141.9,121.1,142.8,122.3,143.9L122.3,143.9z M115.6,134c-0.1,1-0.2,2-0.2,4.8c0,3,0,4.2,0.2,5.1h-2.2c0.1-1,0.2-2.2,0.2-5.1   c0-2.7,0-3.8-0.2-4.8H115.6L115.6,134z"/>
	<path fill="#05336E" d="M131.2,134v1.5c-1.1-0.5-1.9-0.6-2.7-0.6h-0.3v3.9c0,3,0,4.2,0.2,5.1h-2.2c0.1-1,0.2-2.2,0.2-5.1v-3.9H126   c-0.9,0-1.7,0.1-2.8,0.6V134H131.2L131.2,134z"/>
	<path fill="#05336E" d="M138.5,136.9c0-1.3-0.7-2-2-2h-0.9v4.1h0.6C137.8,139,138.5,138.3,138.5,136.9L138.5,136.9z M140.5,136.7   c0,2.1-1.4,3.2-4.2,3.2h-0.7c0,1.9,0,3,0.2,4h-2.2c0.1-1,0.2-2.2,0.2-5.1c0-2.7,0-3.8-0.2-4.8h3.5   C139.2,134,140.5,134.9,140.5,136.7L140.5,136.7z"/>
	<path fill="#05336E" d="M150.7,139c0-2.7-1.2-4.3-3.1-4.3c-1.8,0-2.9,1.6-2.9,4.2c0,2.7,1.2,4.3,3.1,4.3   C149.6,143.1,150.7,141.6,150.7,139L150.7,139z M142.5,139c0-3.2,2-5.2,5.4-5.2c3.1,0,5,1.9,5,5c0,3.2-2,5.2-5.4,5.2   C144.4,144,142.5,142.1,142.5,139L142.5,139z"/>
	<path fill="#05336E" d="M162.2,134v1.5c-1.1-0.5-1.9-0.6-2.7-0.6h-0.3v3.9c0,3,0,4.2,0.2,5.1h-2.2c0.1-1,0.2-2.2,0.2-5.1v-3.9H157   c-0.9,0-1.7,0.1-2.8,0.6V134H162.2L162.2,134z"/>
	<path fill="#05336E" d="M171,142.2v1.6h-6.4c0.1-1,0.2-2.2,0.2-5.1c0-2.7,0-3.8-0.2-4.8h6.2v1.5c-1.4-0.5-2.4-0.6-3.8-0.6h-0.2v3.4   c1.2,0,2-0.1,3.2-0.3v1.6c-1.2-0.3-2-0.3-3.2-0.3v3.8h0.5C168.6,142.9,169.7,142.9,171,142.2L171,142.2z"/>
	<path fill="#05336E" d="M181.6,143.9h-2.7c-0.3-0.9-0.6-1.4-1.5-2.8l-0.8-1.2l-0.7,1.1c-0.8,1.3-1.2,1.9-1.4,2.9h-1.9   c0,0,0.7-0.9,1.5-2.1l2-2.8l-2-3c-0.8-1.2-1.5-2-1.5-2h2.7c0.3,0.9,0.6,1.4,1.5,2.8l0.6,1l0.6-0.8c0.8-1.3,1.2-1.9,1.4-2.9h1.9   c0,0-0.7,0.9-1.5,2.1l-1.8,2.5l2.1,3.3C180.8,143.1,181.6,143.9,181.6,143.9L181.6,143.9z"/>
	<path fill="#05336E" d="M192.3,138.7c0,3,0,4.2,0.2,5.1h-2.2c0.1-0.9,0.2-2,0.2-4.7h-4.6c0,2.7,0,3.8,0.2,4.7h-2.2   c0.1-1,0.2-2.2,0.2-5.1c0-2.7,0-3.8-0.2-4.8h2.2c-0.1,0.9-0.2,1.9-0.2,4.2h4.6c0-2.3,0-3.3-0.2-4.2h2.2   C192.3,134.9,192.3,136,192.3,138.7L192.3,138.7z"/>
	<path fill="#05336E" d="M204.4,138.7c0,3,0,4.2,0.2,5.1h-2.2c0.1-1,0.2-2.2,0.2-5.1v-2.9l-4.7,8h-2.1c0.1-1,0.2-2,0.2-4.8   c0-3,0-4.2-0.2-5.1h2.2c-0.1,1-0.2,2.2-0.2,5.1v2.9l4.7-8h2.1C204.4,134.9,204.4,136,204.4,138.7L204.4,138.7z"/>
	<path fill="#05336E" d="M214.8,138.7c0,3,0,4.2,0.2,5.1h-2.2c0.1-0.9,0.2-1.9,0.2-4.3c-0.5,0.2-1.5,0.6-2.8,0.6c-2,0-2.8-1-2.8-2.7   c0-1.5,0-2.5-0.2-3.5h2.2c-0.1,1-0.2,2.2-0.2,3.3c0,1.2,0.5,1.7,1.5,1.7c0.8,0,1.6-0.2,2-0.4c0-2.7,0-3.7-0.2-4.7h2.2   C214.8,134.9,214.8,136,214.8,138.7L214.8,138.7z"/>
	<path fill="#05336E" d="M224.6,142.2v1.6h-6.4c0.1-1,0.2-2.2,0.2-5.1c0-2.7,0-3.8-0.2-4.8h6.2v1.5c-1.4-0.5-2.4-0.6-3.8-0.6h-0.2   v3.4c1.2,0,2-0.1,3.2-0.3v1.6c-1.2-0.3-2-0.3-3.2-0.3v3.8h0.5C222.2,142.9,223.4,142.9,224.6,142.2L224.6,142.2z"/>
	<path fill="#05336E" d="M226.6,139.1c0-3.4,2.2-5.3,5.5-5.3c1.6,0,2.8,0.3,2.8,0.3v1.9c0,0-0.9-1.3-2.7-1.3c-2.1,0-3.4,1.7-3.4,4.3   c0,2.6,1.3,4.2,3.5,4.2c1.9,0,2.8-1,2.8-1l0.1,1.2c0,0-1.2,0.7-3.5,0.7C228.6,144,226.6,142.2,226.6,139.1L226.6,139.1z"/>
	<path fill="#05336E" d="M246.4,143.9h-3l-3.7-5.2l2-2.1c1.1-1.2,1.6-1.7,2-2.6h2.1c0,0-1.2,1-2.3,2.2l-1.9,1.9l1.6,2.2   C244.5,141.9,245.2,142.8,246.4,143.9L246.4,143.9z M239.7,134c-0.1,1-0.2,2-0.2,4.8c0,3,0,4.2,0.2,5.1h-2.2c0.1-1,0.2-2.2,0.2-5.1   c0-2.7,0-3.8-0.2-4.8H239.7L239.7,134z"/>
	<path fill="#05336E" d="M257,138.7c0,3,0,4.2,0.2,5.1h-2.2c0.1-1,0.2-2.2,0.2-5.1v-2.9l-4.7,8h-2.1c0.1-1,0.2-2,0.2-4.8   c0-3,0-4.2-0.2-5.1h2.2c-0.1,1-0.2,2.2-0.2,5.1v2.9l4.7-8h2.1C257,134.9,257,136,257,138.7L257,138.7z"/>
	<path fill="#05336E" d="M262,131.3h1.8c0,0-0.1,1.5,1.1,1.5c1.2,0,1.1-1.5,1.1-1.5h1.7c0,0-0.4,2.2-2.8,2.2   C262.3,133.5,262,131.3,262,131.3L262,131.3z M269,138.7c0,3,0,4.2,0.2,5.1H267c0.1-1,0.2-2.2,0.2-5.1v-2.9l-4.7,8h-2.1   c0.1-1,0.2-2,0.2-4.8c0-3,0-4.2-0.2-5.1h2.2c-0.1,1-0.2,2.2-0.2,5.1v2.9l4.7-8h2.1C269.1,134.9,269,136,269,138.7L269,138.7z"/>
	<path fill="#05336E" d="M147,51.2c0.1,0.9,0.1,1.9,0.1,4.3c0,2.7,0,3.8-0.1,4.7h1.9c-0.1-0.9-0.1-2-0.1-4.7c0-2.5,0-3.5,0.1-4.3   H147L147,51.2z"/>
	<path fill="#05336E" d="M154.1,56c0.9,0,1.5,0.7,1.5,1.8c0,1.1-0.6,1.7-1.5,1.7c-0.9,0-1.5-0.7-1.5-1.8   C152.6,56.6,153.2,56,154.1,56L154.1,56z M154.1,51.9c0.8,0,1.3,0.6,1.3,1.6c0,1-0.5,1.6-1.2,1.6c-0.8,0-1.3-0.6-1.3-1.7   C152.8,52.5,153.3,51.9,154.1,51.9L154.1,51.9z M150.7,57.8c0,1.6,1.2,2.6,3.3,2.6c2.1,0,3.4-1,3.4-2.6c0-1.1-0.6-1.9-1.8-2.2   c1-0.3,1.5-1.1,1.5-2.1c0-1.5-1.1-2.4-3-2.4c-2,0-3.1,0.9-3.1,2.5c0,1,0.5,1.7,1.5,2C151.4,55.9,150.7,56.7,150.7,57.8L150.7,57.8z   "/>
	<path fill="#05336E" d="M162,56c0.9,0,1.5,0.7,1.5,1.8c0,1.1-0.6,1.7-1.5,1.7c-0.9,0-1.5-0.7-1.5-1.8C160.6,56.6,161.1,56,162,56   L162,56z M162,51.9c0.8,0,1.3,0.6,1.3,1.6c0,1-0.5,1.6-1.2,1.6c-0.8,0-1.3-0.6-1.3-1.7C160.8,52.5,161.3,51.9,162,51.9L162,51.9z    M158.7,57.8c0,1.6,1.2,2.6,3.3,2.6c2.1,0,3.4-1,3.4-2.6c0-1.1-0.6-1.9-1.8-2.2c1-0.3,1.5-1.1,1.5-2.1c0-1.5-1.1-2.4-3-2.4   c-2,0-3.1,0.9-3.1,2.5c0,1,0.5,1.7,1.5,2C159.3,55.9,158.7,56.7,158.7,57.8L158.7,57.8z"/>
	<path fill="#05336E" d="M170.2,59.5c-0.9,0-1.5-0.8-1.6-3.1c0.3-0.4,0.8-0.8,1.5-0.8c1,0,1.4,0.6,1.4,1.9   C171.5,58.7,171,59.5,170.2,59.5L170.2,59.5z M170.6,54.4c-1,0-1.7,0.5-2.1,0.9c0.1-2,0.6-3.4,2.1-3.4c1.1,0,1.7,1.1,1.7,1.1v-1.6   c0,0-0.6-0.3-1.8-0.3c-2.3,0-3.9,1.7-3.9,4.8c0,3.1,1.3,4.5,3.4,4.5c2,0,3.2-1.2,3.2-3.2C173.3,55.4,172.3,54.4,170.6,54.4   L170.6,54.4z"/>
	<path fill="#05336E" d="M166.1,42.3c-1.2-4.5-3.5-8.7-7-12.2c-10.5-10.5-27.6-10.5-38.1,0c-4.7,4.7-7.3,10.8-7.8,17l-3.1,0.3   l-1.7,0.1c0.4-7.1,3.3-14.1,8.7-19.5c11.6-11.6,30.5-11.6,42.2,0c4.1,4.1,6.7,9,7.9,14.2L166.1,42.3L166.1,42.3z M153.4,34.9   c-8-8-21-8-29,0c-3.3,3.3-5.2,7.4-5.8,11.7l-5.3,0.5c0.7-5.1,2.9-10,6.8-13.9c9.4-9.4,24.5-9.4,33.9,0c2.8,2.8,4.7,6.1,5.8,9.6   l-1.5,0.1C157.4,40.1,155.7,37.3,153.4,34.9L153.4,34.9z M118.9,46.6c0.6-3.3,2.2-6.4,4.7-9c6.8-6.8,17.7-6.8,24.5,0   c1.8,1.8,3,3.8,3.9,6L118.9,46.6L118.9,46.6z M164.3,25.2c-12.8-12.8-33.4-12.8-46.2,0c-6.2,6.2-9.4,14.2-9.5,22.3h0   c0,0,0,0.1,0,0.1c0,0.4,0,0.7,0,1.1c0-0.1,0-0.3,0-0.4c0,2.8,0.3,5.6,1,8.4c4.5,17.5,22.4,27.9,39.8,23.4   c8.2-2.1,14.9-7.2,19.2-13.8h-0.1c-3.9,5.6-9.8,9.9-16.9,11.8c-15.9,4.1-32.2-5.4-36.4-21.4c-0.8-3-1.1-6.1-0.9-9.1h1.4   c-0.1,2.4,0.2,4.9,0.8,7.4c3.7,14.3,18.3,22.9,32.6,19.2c5.2-1.4,9.6-4.2,13-7.9h0c-4.3,4.1-10,6.6-16.4,6.6   c-6.9,0-13-2.9-17.4-7.5c-0.1-0.1-0.1-0.2-0.2-0.2c-0.1-0.1-0.1-0.2-0.2-0.2c-2.5-2.7-4.4-6.1-5.3-9.9c-0.6-2.4-0.8-4.9-0.7-7.3   h1.5c-0.1,2,0.1,4.1,0.6,6.2c2.8,11,14,17.5,25,14.7c1.9-0.5,3.7-1.3,5.3-2.2h-0.4c-2.2,0.9-4.5,1.5-7,1.5c-9.8,0-17.8-8-17.8-17.8   c0-0.8,0.1-1.6,0.2-2.3h4.6H153v0h6.3v0h8.8h5.7C173.6,39.4,170.5,31.4,164.3,25.2L164.3,25.2z"/>
</g>
</svg>