<?xml version="1.0" encoding="UTF-8"?>
<!-- Generator: Adobe Illustrator 17.1.0, SVG Export Plug-In . SVG Version: 6.00 Build 0)  -->
<!DOCTYPE svg PUBLIC "-//W3C//DTD SVG 1.1//EN" "http://www.w3.org/Graphics/SVG/1.1/DTD/svg11.dtd">
<svg version="1.1" id="Layer_1" xmlns="http://www.w3.org/2000/svg" xmlns:xlink="http://www.w3.org/1999/xlink" x="0px" y="0px" viewBox="0 0 240.9 155.9" enable-background="new 0 0 240.9 155.9" xml:space="preserve">
<g>
	<path fill="#05336E" d="M107.2,115.6c-0.9-0.3-1.6-0.3-2-0.3l-0.5,1c0.4-0.2,1.2-0.5,2.1-0.2c1.5,0.5,2.1,1.8,1.7,3.5l-0.4-0.1   c-1.1-0.3-1.9-0.6-3-1.2l-0.4,1.2c1.2,0.2,2.1,0.4,3.1,0.7l0.4,0.1c-0.6,1.9-1.9,2.7-3.5,2.2c-1.3-0.4-1.8-1.6-1.8-1.6l-0.4,1.4   c0,0,0.8,0.5,2,0.9c2.5,0.8,4.6-0.2,5.4-2.7C110.8,118.2,109.7,116.3,107.2,115.6L107.2,115.6z"/>
	<path fill="#05336E" d="M80.9,96c0,0.9-0.7,1.7-1.7,1.7c-0.9,0-1.7-0.7-1.7-1.7s0.7-1.7,1.7-1.7C80.1,94.3,80.9,95.1,80.9,96   L80.9,96z"/>
	<path fill="#05336E" d="M160.4,95.8c0,0.9-0.7,1.7-1.7,1.7c-0.9,0-1.7-0.7-1.7-1.7c0-0.9,0.7-1.7,1.7-1.7   C159.7,94.1,160.4,94.9,160.4,95.8L160.4,95.8z"/>
	<path fill="#05336E" d="M125.4,81.5c0.1,0.9,0.1,1.8,0.1,4.2c0,2.6,0,3.7-0.1,4.5h1.9c-0.1-0.9-0.1-1.9-0.1-4.5   c0-2.4,0-3.4,0.1-4.2H125.4L125.4,81.5z"/>
	<path fill="#05336E" d="M129,87.9c0,1.6,1.2,2.5,3.2,2.5c2.1,0,3.3-0.9,3.3-2.6c0-1.1-0.6-1.8-1.7-2.2c0.9-0.3,1.4-1,1.4-2   c0-1.5-1.1-2.3-2.9-2.3c-1.9,0-3,0.9-3,2.4c0,1,0.5,1.6,1.4,2C129.6,86,129,86.8,129,87.9L129,87.9z M132.2,82.1   c0.8,0,1.3,0.6,1.3,1.6c0,1-0.5,1.6-1.2,1.6c-0.8,0-1.3-0.6-1.3-1.6C131,82.7,131.4,82.1,132.2,82.1L132.2,82.1z M132.2,86.1   c0.9,0,1.5,0.7,1.5,1.8c0,1.1-0.5,1.7-1.4,1.7c-0.9,0-1.5-0.7-1.5-1.8C130.8,86.8,131.3,86.1,132.2,86.1L132.2,86.1z"/>
	<path fill="#05336E" d="M136.6,87.9c0,1.6,1.2,2.5,3.2,2.5c2.1,0,3.3-0.9,3.3-2.6c0-1.1-0.6-1.8-1.7-2.2c0.9-0.3,1.4-1,1.4-2   c0-1.5-1.1-2.3-2.9-2.3c-1.9,0-3,0.9-3,2.4c0,1,0.5,1.6,1.4,2C137.2,86,136.6,86.8,136.6,87.9L136.6,87.9z M139.8,82.1   c0.8,0,1.3,0.6,1.3,1.6c0,1-0.5,1.6-1.2,1.6c-0.8,0-1.3-0.6-1.3-1.6C138.6,82.7,139.1,82.1,139.8,82.1L139.8,82.1z M139.8,86.1   c0.9,0,1.5,0.7,1.5,1.8c0,1.1-0.5,1.7-1.4,1.7c-0.9,0-1.4-0.7-1.4-1.8C138.4,86.8,139,86.1,139.8,86.1L139.8,86.1z"/>
	<path fill="#05336E" d="M148.1,84.6c-1,0-1.6,0.4-2,0.9c0.1-2,0.6-3.3,2-3.3c1.1,0,1.7,1.1,1.7,1.1v-1.6c0,0-0.6-0.3-1.8-0.3   c-2.2,0-3.7,1.7-3.7,4.7c0,3,1.2,4.4,3.3,4.4c1.9,0,3.1-1.2,3.1-3.1C150.6,85.6,149.7,84.6,148.1,84.6L148.1,84.6z M147.7,89.5   c-0.9,0-1.5-0.7-1.5-3.1c0.3-0.4,0.8-0.8,1.4-0.8c0.9,0,1.4,0.6,1.4,1.8C148.9,88.8,148.5,89.5,147.7,89.5L147.7,89.5z"/>
	<path fill="#05336E" d="M142,56.1c-12.3-12.4-32.2-12.4-44.4,0c-6,6-9,13.8-9.2,21.7h0c0,0,0,0.1,0,0.1c0,0.3,0,0.7,0,1   c0-0.1,0-0.3,0-0.4c0,2.7,0.3,5.4,1,8.2c4.4,17,21.5,27.2,38.3,22.8c7.9-2.1,14.3-7,18.4-13.5H146c-3.8,5.5-9.4,9.7-16.3,11.5   c-15.3,4-31-5.3-35-20.8c-0.8-3-1-5.9-0.9-8.8h1.3c-0.1,2.4,0.2,4.8,0.8,7.2c3.6,13.9,17.6,22.2,31.4,18.6c5-1.3,9.3-4.1,12.5-7.7   h0c-4.1,3.9-9.7,6.4-15.8,6.4c-6.6,0-12.5-2.8-16.7-7.3c-0.1-0.1-0.1-0.1-0.2-0.2c-0.1-0.1-0.1-0.2-0.2-0.2   c-2.4-2.7-4.2-5.9-5.1-9.7c-0.6-2.4-0.8-4.7-0.7-7.1h1.5c-0.1,2,0.1,4,0.6,6c2.7,10.7,13.5,17.1,24.1,14.3c1.8-0.5,3.5-1.2,5.1-2.2   h-0.4c-2.1,0.9-4.4,1.4-6.8,1.4c-9.5,0-17.1-7.7-17.1-17.3c0-0.8,0.1-1.5,0.2-2.3h4.5h18.5l0,0h6l0,0h8.5h5.5l0,0   C151,70,147.9,62.2,142,56.1L142,56.1z M98.3,77c0.6-3.2,2.1-6.3,4.5-8.7c6.5-6.6,17.1-6.6,23.6,0c1.7,1.7,2.9,3.7,3.7,5.8L98.3,77   L98.3,77z M131.5,65.7c-7.7-7.8-20.2-7.8-27.9,0c-3.2,3.2-5,7.2-5.5,11.4L93,77.5c0.6-4.9,2.8-9.7,6.5-13.5c9-9.1,23.6-9.1,32.6,0   c2.7,2.7,4.5,6,5.6,9.4l-1.5,0.1C135.3,70.6,133.8,67.9,131.5,65.7L131.5,65.7z M143.8,72.8c-1.1-4.4-3.3-8.5-6.7-11.9   c-10.1-10.2-26.5-10.2-36.6,0c-4.6,4.6-7,10.5-7.5,16.6l-3,0.3l-1.6,0.1c0.4-6.9,3.1-13.7,8.3-18.9c11.2-11.3,29.4-11.3,40.6,0   c3.9,3.9,6.4,8.7,7.6,13.8L143.8,72.8L143.8,72.8z"/>
	<path fill="#05336E" d="M82.8,101.1c2.1-1.6,4.3-1.1,5.8,1c0.7,1,1.1,1.9,1.1,1.9l-1.2,0.9c0,0,0.4-1.2-0.4-2.3   c-1-1.3-2.6-1.4-4.3-0.1c-1.6,1.2-2,2.7-1,4.1c0.9,1.2,1.9,1.3,1.9,1.3l-0.7,0.7c0,0-1-0.4-2-1.9C80.6,104.7,80.8,102.5,82.8,101.1   L82.8,101.1z"/>
	<path fill="#05336E" d="M92.2,111.6c-1.6,1.7-2.2,2.3-2.7,2.9l-1.2-1.2c0.6-0.5,1.3-1.1,2.9-2.8l2.1-2.1l-2.4-2.4l-2.1,2.1   c-1.6,1.7-2.2,2.3-2.7,2.9l-1.2-1.2c0.6-0.5,1.3-1.1,2.9-2.8c1.5-1.5,2-2.1,2.5-2.7l4.7,4.7C94.3,109.5,93.7,110.1,92.2,111.6   L92.2,111.6z"/>
	<path fill="#05336E" d="M97.1,117.1c-0.9,1.3-2.5,1.4-3.9,0.4c-1.4-1-1.9-2.5-0.2-4.8c1.6-2.3,3-2.5,5.1-1.3l0.9,0.5   c0.5,0.3,0.9,0.3,0.9,0.3l-0.9,1.3l-1.7-1.1c-1.5-1-2.4-0.9-3.5,0.5c0.8-0.4,1.8-0.3,2.7,0.4C97.7,114.3,98,115.8,97.1,117.1   L97.1,117.1z M95.8,116.1c0.7-1,0.7-1.9,0.1-2.4c-0.6-0.5-1.6-0.2-2.2,0.8c-0.7,1-0.7,1.9-0.1,2.4   C94.2,117.4,95.1,117.1,95.8,116.1L95.8,116.1z"/>
	<path fill="#05336E" d="M104.5,116.1c-0.8-0.9-1.5-1.2-2.5-1.7l-0.2-0.1l-1.3,2.7c-1,2.1-1.4,2.9-1.6,3.7l-1.5-0.8   c0.4-0.6,0.8-1.5,1.9-3.5c0.9-1.9,1.3-2.7,1.5-3.4l4.3,2.1L104.5,116.1L104.5,116.1z"/>
	<path fill="#05336E" d="M116.7,117.5l-0.1,1.1c-0.8-0.5-1.4-0.6-2-0.7l-0.2,0l-0.4,3c-0.3,2.3-0.4,3.2-0.4,4l-1.7-0.2   c0.2-0.7,0.3-1.7,0.6-4l0.4-3l-0.2,0c-0.7-0.1-1.3-0.1-2.2,0.2l0.1-1.1L116.7,117.5L116.7,117.5z"/>
	<path fill="#05336E" d="M124.2,117.5c-0.7,1.1-1,2.3-1.8,4.3c-1,2.4-1.6,3.6-3.2,3.6c-0.6,0-0.9-0.2-0.9-0.2l0-1.3   c0,0,0.5,0.5,1.1,0.5c0.5,0,0.9-0.3,1.2-0.7l-2.8-4.5c-0.3-0.6-0.5-0.8-1.1-1.6l2,0c0.2,0.8,0.3,1.1,1,2.2l1.6,2.5   c0.1-0.2,0.2-0.5,0.3-0.7c0.8-2.2,1-2.9,1-4.1L124.2,117.5L124.2,117.5z"/>
	<path fill="#05336E" d="M126.7,119l0.6-0.1l-0.6,2.3l1.5,1.8l-0.6,0.1l-1.9-1.7L126.7,119L126.7,119z M128.4,118.6l0.6-0.1   l-0.6,2.3l1.5,1.8l-0.6,0.1l-1.9-1.7L128.4,118.6L128.4,118.6z"/>
	<path fill="#05336E" d="M138.1,121.3l-1.8,0.7c-0.3-0.8-0.5-1.1-1.5-2.2l-2.6-2.9l-0.1,3.8c0,1.4,0,1.9,0.2,2.7l-1.3,0.5   c0.1-0.9,0.1-1.2,0.2-2.9l0.3-5.5l0.7-0.3l0,0l0,0l0.4-0.1l3.9,4.5C137.2,120.4,137.5,120.6,138.1,121.3L138.1,121.3z"/>
	<path fill="#05336E" d="M142.6,114.1c1.3,2.2,0.6,4.5-1.6,5.8c-1.1,0.7-2,0.9-2,0.9l-0.7-1.2c0,0,1.2,0.5,2.4-0.2   c1.4-0.9,1.7-2.4,0.7-4.2l-0.4,0.2c-1,0.6-1.7,1.1-2.6,1.9l-0.6-1c1.2-0.5,1.9-0.8,2.9-1.4l0.3-0.2c-1-1.4-2.4-1.9-3.7-1   c-1.2,0.7-1.3,1.9-1.3,1.9l-0.7-0.9c0,0,0.4-0.9,1.8-1.7C139.3,111.6,141.4,112,142.6,114.1L142.6,114.1z"/>
	<path fill="#05336E" d="M145.5,107l0.7,0.9c-0.9,0.3-1.4,0.6-1.9,1l-0.2,0.2l1.9,2.3c1.5,1.8,2.1,2.5,2.6,3l-1.3,1.1   c-0.4-0.7-1-1.4-2.4-3.2l-1.9-2.3l-0.2,0.1c-0.5,0.5-0.9,0.9-1.4,1.7l-0.7-0.9L145.5,107L145.5,107z"/>
	<path fill="#05336E" d="M153.2,103.8c1.7,1.5,2.4,2.1,3.1,2.5l-1.1,1.3c-0.5-0.6-1.2-1.2-2.9-2.7l-1.7-1.5l2.3,6.9l-1.1,1.2   c-0.5-0.6-1.1-1.1-2.7-2.5c-1.7-1.5-2.4-2.1-3.1-2.5l1.1-1.3c0.5,0.6,1.2,1.2,2.9,2.7l1.7,1.5l-2.3-6.9l1.1-1.2   C151,101.9,151.6,102.4,153.2,103.8L153.2,103.8z"/>
	<path fill="#05336E" d="M156.5,103.9l-0.3,0.5l-1.2-2.1l-2.3-0.2l0.3-0.5l2.5-0.1L156.5,103.9L156.5,103.9z M157.4,102.4l-0.3,0.5   l-1.2-2.1l-2.3-0.2l0.3-0.5l2.5-0.1L157.4,102.4L157.4,102.4z"/>
	<path fill="#05336E" d="M76.6,84.3c2-0.4,2.9-0.6,3.6-0.8l0.2,1.5c-0.7,0-1.5,0.2-3.5,0.6l-2.6,0.5l0.6,3.1l2.6-0.5   c2-0.4,2.8-0.6,3.5-0.8l0.4,1.5c-0.7,0-1.6,0.2-3.6,0.6c-1.9,0.4-2.6,0.5-3.2,0.8l-1.2-5.9C74,84.8,74.8,84.7,76.6,84.3L76.6,84.3z   "/>
	<path fill="#05336E" d="M78.8,77.7l1.2,0c0,0,0,1.6,0,2.3c0,0.7,0.1,2.2,0.1,2.2c-0.7-0.1-1.5-0.1-3.6,0c-1.9,0.1-2.7,0.1-3.3,0.2   L73,78.1l1,0c-0.3,1-0.3,1.7-0.3,2.7l0,0.2l2.3-0.1c0-0.9-0.1-1.4-0.3-2.2l1.1,0c-0.2,0.9-0.2,1.4-0.2,2.2l2.7-0.1l0-0.4   C79.3,79.4,79.2,78.6,78.8,77.7L78.8,77.7z"/>
	<path fill="#05336E" d="M75.2,71.7c1.4,0.1,2.1,1.1,2,3.1l0,0.5c1.3,0.1,2.1,0.1,2.8,0l-0.1,1.6c-0.7-0.1-1.5-0.2-3.6-0.3   c-1.9-0.1-2.6-0.1-3.3-0.1l0.1-2.4C73.2,72.5,73.9,71.7,75.2,71.7L75.2,71.7z M75.2,73.2c-0.9-0.1-1.4,0.4-1.5,1.3l0,0.6l2.9,0.2   l0-0.4C76.7,73.8,76.2,73.2,75.2,73.2L75.2,73.2z"/>
	<path fill="#05336E" d="M79.5,66.6c1.3,0.3,1.8,1.4,1.4,3.3l-0.2,0.8l-0.2,1.4c-0.7-0.2-1.5-0.4-3.5-0.8c-1.9-0.4-2.6-0.5-3.3-0.6   l0.5-2.5c0.3-1.6,1-2.3,2-2.1c0.8,0.2,1.4,0.8,1.3,1.9C77.9,66.8,78.6,66.5,79.5,66.6L79.5,66.6z M74.6,69.5l2.3,0.5l0.1-0.5   c0.2-1-0.1-1.5-1-1.7c-0.7-0.1-1.2,0.2-1.3,1.1L74.6,69.5L74.6,69.5z M79.3,68.1c-0.9-0.2-1.5,0.4-1.7,1.5l-0.1,0.5l2.6,0.5   l0.1-0.5C80.4,69,80.1,68.2,79.3,68.1L79.3,68.1z"/>
	<path fill="#05336E" d="M81,58.8c-1.7-0.8-2.4-1.2-3-1.5l-0.7,1.4c0.6,0.2,1.3,0.5,3.1,1.3c1.9,0.9,2.6,1.3,3.2,1.6l0.7-1.4   C83.7,60,82.9,59.7,81,58.8L81,58.8z"/>
	<path fill="#05336E" d="M81.3,61.3c-1.2-0.5-2.1,0.1-2.7,1.6l-0.3,0.8c-1.2-0.5-1.9-0.8-2.5-1.1L75.2,64c0.7,0.2,1.4,0.5,3.4,1.3   c1.8,0.7,2.5,1,3,1.4l0.5-1.4l0.1-0.4C83,63.1,82.6,61.8,81.3,61.3L81.3,61.3z M81.7,64.7L81.5,65l-2.7-1.1l0.2-0.5   c0.4-0.9,1-1.1,1.8-0.8C81.8,63,82.1,63.7,81.7,64.7L81.7,64.7z"/>
	<path fill="#05336E" d="M85.2,52.1c1.7,1.2,2.5,1.7,3.1,2l-0.9,1.2c-0.5-0.5-1.2-0.9-2.9-2.1l-1.7-1.1l2.8,5.9l-0.7,1.3   c-0.5-0.5-1.2-1-2.8-2c-1.7-1.2-2.4-1.6-3-1.9l0.9-1.3c0.5,0.5,1.2,0.9,2.9,2.1l1.7,1.1l-2.8-5.9l0.8-1.2   C83,50.6,83.7,51,85.2,52.1L85.2,52.1z M78.2,53.3l0.7-1c0,0,0.8,0.6,1.3-0.1c0.5-0.7-0.4-1.2-0.4-1.2l0.7-1c0,0,1.1,1.1,0.2,2.5   C79.6,53.9,78.2,53.3,78.2,53.3L78.2,53.3z"/>
	<path fill="#05336E" d="M92.9,44.1c1.6,1.7,1.3,3.8-0.4,5.4c-0.9,0.8-1.6,1.2-1.6,1.2l-0.9-1c0,0,1.2,0.2,2.1-0.6   c1.1-1,1.1-2.5-0.1-3.8l-0.3,0.3c-0.8,0.7-1.3,1.3-2,2.1L89,46.9c0.9-0.6,1.5-1.1,2.3-1.8l0.3-0.2c-1.2-1.1-2.4-1.2-3.5-0.2   c-0.9,0.8-0.9,2-0.9,2l-0.7-0.7c0,0,0.2-0.9,1.3-1.8C89.5,42.5,91.5,42.5,92.9,44.1L92.9,44.1z"/>
	<path fill="#05336E" d="M100.7,43.5l-1.6,0.9c-0.4-0.6-0.6-0.8-1.8-1.6l-2.9-2l0.8,3.4c0.3,1.2,0.4,1.6,0.7,2.3l-1,0.7   c-0.1-0.8-0.2-1.1-0.5-2.5l-1-4.9l0.6-0.4l0,0l0,0l0.3-0.2l4.4,3.1C99.6,42.9,100,43.1,100.7,43.5L100.7,43.5z"/>
	<path fill="#05336E" d="M104.6,40.5l0.5,1c0,0-1.7,0.7-2.1,0.9c-0.4,0.2-2,0.9-2,0.9c-0.2-0.7-0.5-1.4-1.4-3.3   c-0.8-1.8-1.1-2.4-1.5-3l3.9-1.8l0.4,0.9c-1.1,0.1-1.7,0.3-2.6,0.7L99.7,37l1,2.2c0.8-0.4,1.2-0.6,1.9-1.1l0.4,1   c-0.8,0.2-1.3,0.4-2.1,0.7l1.1,2.5l0.3-0.1C103.3,41.6,104,41.2,104.6,40.5L104.6,40.5z"/>
	<path fill="#05336E" d="M104.9,34.2c0.1,0.7,0.3,1.4,0.9,3.2c0.6,2,0.8,2.8,1.1,3.4l-1.5,0.5c-0.1-0.7-0.3-1.5-0.9-3.5   c-0.6-1.8-0.8-2.6-1.1-3.2L104.9,34.2L104.9,34.2z M111.5,39.7l-2.1,0.5l-3.5-2.8l0.9-1.8c0.5-1,0.7-1.5,0.8-2.2L109,33   c0,0-0.6,0.9-1.1,1.9l-0.9,1.7l1.5,1.2C109.7,38.6,110.4,39.2,111.5,39.7L111.5,39.7z"/>
	<path fill="#05336E" d="M114.6,32.1l0.2,1c-0.8-0.2-1.4-0.2-1.9-0.1l-0.2,0l0.4,2.7c0.3,2.1,0.5,2.9,0.7,3.6l-1.5,0.3   c0-0.7-0.1-1.5-0.5-3.6l-0.4-2.7l-0.2,0c-0.6,0.1-1.1,0.3-1.8,0.7l-0.2-1L114.6,32.1L114.6,32.1z"/>
	<path fill="#05336E" d="M120.7,33.8c0,1.5-0.9,2.3-2.9,2.3l-0.5,0c0,1.4,0.1,2.1,0.2,2.8L116,39c0.1-0.7,0.1-1.6,0-3.7   c-0.1-1.9-0.1-2.7-0.2-3.4l2.4-0.1C119.8,31.9,120.7,32.5,120.7,33.8L120.7,33.8z M119.3,33.9c0-0.9-0.5-1.4-1.5-1.4l-0.6,0   l0.1,2.9l0.4,0C118.9,35.5,119.4,34.9,119.3,33.9L119.3,33.9z"/>
	<path fill="#05336E" d="M121.1,35.3c0.3-2.3,1.9-3.5,4.2-3.2c2.1,0.3,3.3,1.8,3,4c-0.3,2.3-1.9,3.5-4.2,3.2   C121.9,39,120.8,37.5,121.1,35.3L121.1,35.3z M126.7,36.1c0.2-1.9-0.4-3.1-1.7-3.3c-1.3-0.2-2.2,0.8-2.4,2.6   c-0.2,1.9,0.4,3.1,1.7,3.3C125.5,38.9,126.5,37.9,126.7,36.1L126.7,36.1z"/>
	<path fill="#05336E" d="M134.1,34.4l-0.3,1c-0.7-0.5-1.2-0.7-1.7-0.9l-0.2-0.1l-0.7,2.6c-0.6,2-0.8,2.8-0.9,3.5l-1.5-0.4   c0.3-0.6,0.5-1.4,1.1-3.5l0.7-2.6l-0.2-0.1c-0.6-0.2-1.1-0.2-2-0.1l0.3-1L134.1,34.4L134.1,34.4z"/>
	<path fill="#05336E" d="M136.7,41.8l-0.4,1.1c0,0-1.5-0.7-2-0.9c-0.4-0.2-2.2-0.9-2.2-0.9c0.3-0.6,0.7-1.4,1.5-3.3   c0.7-1.8,1-2.5,1.2-3.1l3.9,1.7l-0.4,1c-0.8-0.7-1.4-1-2.3-1.4l-0.2-0.1L135,38c0.8,0.3,1.3,0.5,2.1,0.7l-0.4,1   c-0.7-0.5-1.2-0.7-1.9-1.1l-1,2.5l0.3,0.1C135,41.7,135.8,41.9,136.7,41.8L136.7,41.8z"/>
	<path fill="#05336E" d="M141.3,45.8l-1.6-1c0.2-0.7,0.1-1,0.1-2.2l0-1l-0.8,0.4c-1,0.5-1.3,0.8-1.8,1.3l-1.3-0.7   c0,0,0.8-0.3,1.7-0.7l2.2-1l-0.1-2.5c0-1-0.2-1.8-0.2-1.8l1.6,0.9c-0.2,0.7-0.2,1.1-0.1,2.2l0,0.8l0.6-0.3c1-0.5,1.4-0.8,1.9-1.3   l1.1,0.7c0,0-0.7,0.3-1.7,0.7l-2,0.9l0.1,2.7C141.1,45.1,141.3,45.8,141.3,45.8L141.3,45.8z"/>
	<path fill="#05336E" d="M148.2,46.8c-1.3,1.6-1.9,2.3-2.2,2.9l-1.1-1c0.5-0.5,1-1,2.1-2.5l-2.5-2c-1.2,1.5-1.6,2.1-1.9,2.6   l-1.2-0.9c0.5-0.5,1-1.1,2.3-2.8c1.2-1.5,1.6-2.1,2-2.7l1.2,1c-0.4,0.4-0.9,1-1.9,2.2l2.5,2c1-1.3,1.4-1.8,1.8-2.4l1.2,1   C149.9,44.7,149.4,45.3,148.2,46.8L148.2,46.8z"/>
	<path fill="#05336E" d="M153.6,52.7c-1.6,1.4-2.3,2-2.7,2.5l-0.9-1.2c0.6-0.4,1.2-0.9,2.8-2.3l1.5-1.3l-6.4,1.2l-1-1.1   c0.6-0.4,1.2-0.9,2.7-2.1c1.6-1.4,2.2-1.9,2.6-2.4l1,1.2c-0.6,0.4-1.2,0.9-2.8,2.3l-1.5,1.3l6.4-1.2l0.9,1.1   C155.6,51,155,51.5,153.6,52.7L153.6,52.7z"/>
	<path fill="#05336E" d="M156.9,58c-1.8,1.1-2.5,1.5-3.1,2l-0.7-1.4c0.6-0.3,1.2-0.6,2.6-1.5c-0.3-0.2-0.9-0.7-1.4-1.4   c-0.7-1.2-0.4-2,0.6-2.6c0.9-0.5,1.5-0.9,2-1.4l0.8,1.3c-0.7,0.3-1.4,0.7-2,1.1c-0.7,0.4-0.9,0.9-0.5,1.6c0.3,0.5,0.7,0.9,1,1.1   c1.6-1,2.2-1.4,2.7-1.8l0.8,1.3C159.1,56.6,158.5,57,156.9,58L156.9,58z"/>
	<path fill="#05336E" d="M157.1,64.7l-1,0.5c0,0-0.7-1.7-0.9-2.2c-0.2-0.5-0.9-2-0.9-2c0.7-0.2,1.4-0.5,3.3-1.4   c1.7-0.8,2.4-1.1,3-1.5l1.7,4l-0.9,0.4c-0.1-1.1-0.3-1.7-0.7-2.6l-0.1-0.2l-2.1,1c0.4,0.8,0.6,1.2,1.1,1.9l-1,0.4   c-0.2-0.9-0.3-1.3-0.7-2.1l-2.4,1.1l0.1,0.3C156,63.3,156.4,64.1,157.1,64.7L157.1,64.7z"/>
	<path fill="#05336E" d="M159.4,63.9c2.3-0.6,4,0.7,4.5,2.9c0.3,1.1,0.2,1.9,0.2,1.9l-1.3,0.3c0,0,0.7-0.9,0.4-2.1   c-0.4-1.5-1.7-2.1-3.5-1.6c-1.7,0.4-2.6,1.6-2.2,3.1c0.3,1.3,1.1,1.7,1.1,1.7l-0.8,0.3c0,0-0.7-0.7-1-2.3   C156.3,66.2,157.2,64.4,159.4,63.9L159.4,63.9z"/>
	<path fill="#05336E" d="M164.7,71.4c-0.7,0-1.4,0.1-3.3,0.3c-2.1,0.2-2.9,0.4-3.5,0.5l-0.3-1.6c0.7,0,1.6-0.1,3.7-0.3   c1.9-0.2,2.6-0.3,3.3-0.5L164.7,71.4L164.7,71.4z M158.3,76.9l-0.1-2.1l3.3-3L163,73c0.9,0.7,1.3,1,2,1.2l0.2,1.5   c0,0-0.8-0.8-1.7-1.4L162,73l-1.4,1.3C159.5,75.4,158.9,76,158.3,76.9L158.3,76.9z"/>
	<path fill="#05336E" d="M161.8,82.8c-2.1-0.1-3-0.1-3.6,0l0.1-1.6c0.7,0.1,1.5,0.2,3.6,0.2l2,0.1l-5.5-3.5l0-1.5   c0.7,0.1,1.5,0.2,3.4,0.2c2.1,0.1,2.9,0.1,3.6,0l0,1.6c-0.7-0.1-1.5-0.2-3.6-0.2l-2-0.1l5.5,3.5l0,1.5   C164.4,82.9,163.7,82.9,161.8,82.8L161.8,82.8z"/>
	<path fill="#05336E" d="M160.5,90c-2-0.4-2.9-0.6-3.6-0.6l0.4-1.5c0.7,0.2,1.5,0.4,3.5,0.8l2,0.4l-4.9-4.3l0.2-1.5   c0.6,0.2,1.4,0.4,3.3,0.7c2,0.4,2.9,0.5,3.5,0.6l-0.3,1.5c-0.7-0.2-1.5-0.4-3.5-0.8l-2-0.4l4.9,4.3l-0.3,1.4   C163.1,90.5,162.4,90.3,160.5,90L160.5,90z M166.5,86l-0.2,1.2c0,0-1-0.2-1.1,0.6c-0.2,0.8,0.9,1,0.9,1l-0.2,1.2   c0,0-1.5-0.5-1.2-2.3C164.9,86,166.5,86,166.5,86L166.5,86z"/>
</g>
</svg>