<?xml version="1.0" encoding="UTF-8"?>
<!-- Generator: Adobe Illustrator 17.1.0, SVG Export Plug-In . SVG Version: 6.00 Build 0)  -->
<!DOCTYPE svg PUBLIC "-//W3C//DTD SVG 1.1//EN" "http://www.w3.org/Graphics/SVG/1.1/DTD/svg11.dtd">
<svg version="1.1" id="Layer_1" xmlns="http://www.w3.org/2000/svg" xmlns:xlink="http://www.w3.org/1999/xlink" x="0px" y="0px" viewBox="0 0 370 92" enable-background="new 0 0 370 92" xml:space="preserve">
<path fill="#05336E" d="M99.3,33.6c0-6.9,4.6-10.8,11.3-10.8c3.2,0,5.6,0.7,5.6,0.7v3.8c0,0-1.9-2.7-5.5-2.7c-4.4,0-7,3.4-7,8.8  c0,5.2,2.6,8.5,7.1,8.5c3.8,0,5.7-2.1,5.7-2.1l0.3,2.5c0,0-2.4,1.4-7.1,1.4C103.4,43.8,99.3,40,99.3,33.6L99.3,33.6z"/>
<path fill="#05336E" d="M138.7,32.9c0,6.1,0.1,8.5,0.3,10.5h-4.6c0.3-2,0.3-4.4,0.3-10.5v-7.7h-9.1v7.7c0,6.1,0.1,8.5,0.3,10.5h-4.6  c0.3-2,0.3-4.4,0.3-10.5c0-5.6-0.1-7.8-0.3-9.7H139C138.8,25.2,138.7,27.3,138.7,32.9L138.7,32.9z"/>
<path fill="#05336E" d="M159.8,36.9c0,4.1-3,6.9-7.6,6.9c-4.6,0-7.9-2.5-7.9-9.7c0-7.4,2.6-10,8.8-10.6l2.7-0.3  c1.6-0.1,2.4-0.8,2.4-0.8v4.2l-5.4,0.3c-4.8,0.3-6.5,1.8-6.6,6.5c1.2-2.1,3.4-3.4,6.3-3.4C157,30,159.8,32.8,159.8,36.9L159.8,36.9z   M155.7,36.9c0-3.1-1.4-5.2-3.5-5.2c-2.1,0-3.6,2-3.6,5.2c0,3.2,1.5,5.2,3.6,5.2C154.3,42.1,155.7,40,155.7,36.9L155.7,36.9z"/>
<path fill="#05336E" d="M177.7,26.2c-2.9-1.1-4.9-1.2-7.8-1.2h-0.5v7.9c0,6.1,0.1,8.5,0.3,10.5h-4.6c0.3-2,0.3-4.4,0.3-10.5  c0-5.6-0.1-7.8-0.3-9.7h12.5V26.2L177.7,26.2z"/>
<path fill="#05336E" d="M198.5,33c0,6.7-4.7,10.8-11.6,10.8c-3.4,0-5.8-0.7-5.8-0.7v-3.7c0,0,2.1,2.7,5.7,2.7c4.4,0,7.1-3.2,7.3-8.3  h-1.1c-3,0-5.2,0.1-8.5,0.7v-3.2c3.3,0.5,5.5,0.7,8.5,0.7h1.1c-0.4-4.6-2.9-7.4-7-7.4c-3.6,0-5.7,2.5-5.7,2.5l-0.3-2.9  c0,0,2.2-1.4,6.3-1.4C194.2,22.8,198.5,26.7,198.5,33L198.5,33z"/>
<path fill="#05336E" d="M217.5,23.2v3c-2.3-0.9-3.9-1.2-5.6-1.2h-0.6v7.9c0,6.1,0.1,8.5,0.3,10.5h-4.6c0.3-2,0.3-4.4,0.3-10.5V25  h-0.5c-1.9,0-3.4,0.3-5.7,1.2v-3H217.5L217.5,23.2z"/>
<path fill="#05336E" d="M239.5,23.2c-1.8,2.9-2.7,5.9-5,11.2c-2.7,6.1-4.2,9.2-8.6,9.2c-1.6,0-2.3-0.5-2.3-0.5v-3.3  c0,0,1.2,1.4,3,1.4c1.4,0,2.4-0.6,3.2-1.8l-7.1-12c-0.9-1.5-1.3-2.1-2.7-4.2h5.3c0.5,2,0.8,2.8,2.6,5.8l4,6.7  c0.2-0.5,0.5-1.2,0.8-1.9c2.1-5.7,2.8-7.4,2.9-10.6H239.5L239.5,23.2z"/>
<path fill="#05336E" d="M251.9,27.3h1.5l-2.9,5.5l2.9,5.5h-1.5l-3.8-5.5L251.9,27.3L251.9,27.3z M256.5,27.3h1.5l-2.9,5.5l2.9,5.5  h-1.5l-3.8-5.5L256.5,27.3L256.5,27.3z"/>
<path fill="#05336E" d="M279.7,43.4h-5.2c-0.1-2.2-0.3-3.1-1.8-6.8l-3.9-9.5l-3.5,9.4c-1.3,3.5-1.6,4.7-1.9,6.8h-3.5  c1-2.1,1.4-3,2.9-6.9l5.5-13.3h2l0,0.1l0.1-0.1h1.1l5.9,14.6C278.3,40.4,278.7,41.2,279.7,43.4L279.7,43.4z"/>
<path fill="#05336E" d="M299.3,33c0,6.7-4.7,10.8-11.6,10.8c-3.4,0-5.8-0.7-5.8-0.7v-3.7c0,0,2.1,2.7,5.7,2.7c4.4,0,7.1-3.2,7.3-8.3  h-1.1c-3,0-5.2,0.1-8.5,0.7v-3.2c3.3,0.5,5.5,0.7,8.5,0.7h1.1c-0.4-4.6-2.9-7.4-7-7.4c-3.6,0-5.7,2.5-5.7,2.5l-0.3-2.9  c0,0,2.2-1.4,6.3-1.4C295,22.8,299.3,26.7,299.3,33L299.3,33z"/>
<path fill="#05336E" d="M318.3,23.2v3c-2.3-0.9-3.9-1.2-5.6-1.2h-0.6v7.9c0,6.1,0.1,8.5,0.3,10.5h-4.6c0.3-2,0.3-4.4,0.3-10.5V25  h-0.5c-1.9,0-3.4,0.3-5.7,1.2v-3H318.3L318.3,23.2z"/>
<path fill="#05336E" d="M340.8,32.9c0,6.1,0.1,8.5,0.3,10.5h-4.6c0.3-2,0.3-4.4,0.3-10.5v-5.9l-9.6,16.3h-4.2c0.3-2,0.3-4.2,0.3-9.7  c0-6.1-0.1-8.5-0.3-10.5h4.6c-0.3,2-0.3,4.4-0.3,10.5v5.9l9.6-16.3h4.2C340.9,25.2,340.8,27.3,340.8,32.9L340.8,32.9z"/>
<path fill="#05336E" d="M347.6,38.3h-1.5l2.9-5.5l-2.9-5.5h1.5l3.8,5.5L347.6,38.3L347.6,38.3z M352.3,38.3h-1.5l2.9-5.5l-2.9-5.5  h1.5l3.8,5.5L352.3,38.3L352.3,38.3z"/>
<path fill="#05336E" d="M109.5,61.4c0,2.9,0,4.1,0.2,5.1h-2.2c0.1-1,0.2-2.1,0.2-5.1v-3.8h-4.4v3.8c0,2.9,0,4.1,0.2,5.1h-2.2  c0.1-1,0.2-2.1,0.2-5.1c0-2.7,0-3.8-0.2-4.7h8.5C109.5,57.6,109.5,58.7,109.5,61.4L109.5,61.4z"/>
<path fill="#05336E" d="M119.2,64.9v1.6h-6.4c0.1-1,0.2-2.1,0.2-5.1c0-2.7,0-3.8-0.2-4.7h6.1v1.5c-1.4-0.5-2.4-0.6-3.8-0.6h-0.2v3.3  c1.2,0,1.9-0.1,3.1-0.3v1.6c-1.2-0.3-1.9-0.3-3.1-0.3v3.8h0.5C116.9,65.6,118,65.5,119.2,64.9L119.2,64.9z"/>
<path fill="#05336E" d="M128.8,59.4c0,2-1.4,3.1-4.2,3.1h-0.7c0,1.9,0,3,0.2,3.9h-2.2c0.1-1,0.2-2.1,0.2-5.1c0-2.7,0-3.8-0.2-4.7  h3.4C127.5,56.6,128.8,57.6,128.8,59.4L128.8,59.4z M126.8,59.5c0-1.3-0.6-2-2-2h-0.9v4.1h0.6C126.1,61.7,126.8,60.9,126.8,59.5  L126.8,59.5z"/>
<path fill="#05336E" d="M138.8,63.6c0,1.8-1.4,2.9-4.2,2.9h-3.1c0.1-1,0.2-2.1,0.2-5.1c0-2.7,0-3.8-0.2-4.7h3.5  c2.3,0,3.4,0.8,3.4,2.2c0,1.1-0.7,2.1-2.3,2.4C138.1,61.5,138.8,62.4,138.8,63.6L138.8,63.6z M133.5,57.5v3.4h0.8  c1.4,0,2.1-0.6,2.1-1.8c0-1-0.6-1.5-1.9-1.5H133.5L133.5,57.5z M136.8,63.7c0-1.3-1-1.9-2.5-1.9h-0.7v3.8h0.7  C135.8,65.6,136.8,65,136.8,63.7L136.8,63.7z"/>
<path fill="#05336E" d="M148.2,63.3c0,2-1.4,3.1-4.2,3.1h-0.5v0h-2.1c0.1-1,0.2-2,0.2-4.7c0-2.9,0-4.1-0.2-5.1h2.2  c-0.1,1-0.2,2-0.2,3.9h1.2C146.9,60.6,148.2,61.5,148.2,63.3L148.2,63.3z M146.2,63.5c0-1.3-0.6-2-2-2h-0.7v4.1h0.4  C145.5,65.6,146.2,64.8,146.2,63.5L146.2,63.5z M151.3,61.4c0,2.9,0,4.1,0.2,5.1h-2.2c0.1-1,0.2-2.1,0.2-5.1c0-2.7,0-3.8-0.2-4.7  h2.2C151.3,57.6,151.3,58.7,151.3,61.4L151.3,61.4z"/>
<path fill="#05336E" d="M163.3,61.4c0,2.9,0,4.1,0.2,5.1h-2.2c0.1-1,0.2-2.1,0.2-5.1v-2.8l-4.7,7.9h-2.1c0.1-1,0.2-2,0.2-4.7  c0-2.9,0-4.1-0.2-5.1h2.2c-0.1,1-0.2,2.1-0.2,5.1v2.8l4.7-7.9h2.1C163.3,57.6,163.3,58.7,163.3,61.4L163.3,61.4z M156.3,54h1.7  c0,0-0.1,1.5,1.1,1.5c1.2,0,1.1-1.5,1.1-1.5h1.7c0,0-0.4,2.2-2.8,2.2C156.7,56.2,156.3,54,156.3,54L156.3,54z"/>
<path fill="#05336E" d="M178.8,61.4c0,3.3-2.3,5.3-5.6,5.3c-1.6,0-2.8-0.3-2.8-0.3v-1.8c0,0,1,1.3,2.8,1.3c2.1,0,3.5-1.5,3.5-4h-0.5  c-1.5,0-2.5,0.1-4.1,0.3v-1.6c1.6,0.3,2.7,0.4,4.1,0.4h0.5c-0.2-2.2-1.4-3.6-3.4-3.6c-1.8,0-2.8,1.2-2.8,1.2l-0.1-1.4  c0,0,1.1-0.7,3.1-0.7C176.7,56.5,178.8,58.3,178.8,61.4L178.8,61.4z"/>
<path fill="#05336E" d="M189.5,66.5H187c-0.1-1.1-0.1-1.5-0.9-3.3l-1.9-4.6l-1.7,4.6c-0.6,1.7-0.8,2.3-0.9,3.3h-1.7  c0.5-1,0.7-1.4,1.4-3.3l2.7-6.5h1l0,0l0,0h0.5l2.9,7.1C188.9,65,189,65.4,189.5,66.5L189.5,66.5z"/>
<path fill="#05336E" d="M197.9,64.9v1.6h-6.4c0.1-1,0.2-2.1,0.2-5.1c0-2.7,0-3.8-0.2-4.7h6.1v1.5c-1.4-0.5-2.4-0.6-3.8-0.6h-0.2v3.3  c1.2,0,1.9-0.1,3.1-0.3v1.6c-1.2-0.3-1.9-0.3-3.1-0.3v3.8h0.5C195.5,65.6,196.6,65.5,197.9,64.9L197.9,64.9z"/>
<path fill="#05336E" d="M202.7,56.6c-0.1,1-0.2,2-0.2,4.7c0,2.9,0,4.1,0.2,5.1h-2.2c0.1-1,0.2-2.1,0.2-5.1c0-2.7,0-3.8-0.2-4.7  H202.7L202.7,56.6z M209.4,66.5h-3l-3.6-5.2l2-2c1.1-1.2,1.6-1.7,2-2.6h2.1c0,0-1.2,1-2.3,2.1l-1.9,1.9l1.6,2.2  C207.5,64.6,208.2,65.4,209.4,66.5L209.4,66.5z"/>
<path fill="#05336E" d="M218.3,56.6v1.5c-1.1-0.4-1.9-0.6-2.7-0.6h-0.3v3.8c0,2.9,0,4.1,0.2,5.1h-2.2c0.1-1,0.2-2.1,0.2-5.1v-3.8  h-0.3c-0.9,0-1.7,0.1-2.8,0.6v-1.5H218.3L218.3,56.6z"/>
<path fill="#05336E" d="M227.5,59.4c0,2-1.4,3.1-4.2,3.1h-0.7c0,1.9,0,3,0.2,3.9h-2.2c0.1-1,0.2-2.1,0.2-5.1c0-2.7,0-3.8-0.2-4.7  h3.4C226.2,56.6,227.5,57.6,227.5,59.4L227.5,59.4z M225.5,59.5c0-1.3-0.6-2-2-2h-0.9v4.1h0.6C224.8,61.7,225.5,60.9,225.5,59.5  L225.5,59.5z"/>
<path fill="#05336E" d="M229.5,61.7c0-3.2,2-5.2,5.3-5.2c3,0,4.9,1.9,4.9,5c0,3.2-2,5.2-5.3,5.2C231.4,66.6,229.5,64.7,229.5,61.7  L229.5,61.7z M237.6,61.6c0-2.7-1.2-4.3-3-4.3c-1.8,0-2.9,1.6-2.9,4.1c0,2.7,1.2,4.3,3,4.3C236.5,65.8,237.6,64.2,237.6,61.6  L237.6,61.6z"/>
<path fill="#05336E" d="M249,56.6v1.5c-1.1-0.4-1.9-0.6-2.7-0.6H246v3.8c0,2.9,0,4.1,0.2,5.1h-2.2c0.1-1,0.2-2.1,0.2-5.1v-3.8h-0.3  c-0.9,0-1.7,0.1-2.8,0.6v-1.5H249L249,56.6z"/>
<path fill="#05336E" d="M257.7,64.9v1.6h-6.4c0.1-1,0.2-2.1,0.2-5.1c0-2.7,0-3.8-0.2-4.7h6.1v1.5c-1.4-0.5-2.4-0.6-3.8-0.6h-0.2v3.3  c1.2,0,1.9-0.1,3.1-0.3v1.6c-1.2-0.3-1.9-0.3-3.1-0.3v3.8h0.5C255.4,65.6,256.5,65.5,257.7,64.9L257.7,64.9z"/>
<path fill="#05336E" d="M268.2,66.5h-2.7c-0.3-0.9-0.6-1.4-1.4-2.8l-0.8-1.2l-0.7,1.1c-0.8,1.3-1.2,1.9-1.4,2.9h-1.9  c0,0,0.7-0.9,1.5-2l2-2.8l-1.9-3c-0.8-1.2-1.5-2-1.5-2h2.6c0.3,0.9,0.6,1.4,1.4,2.8l0.6,1l0.5-0.8c0.8-1.3,1.2-1.9,1.4-2.9h1.9  c0,0-0.7,0.9-1.5,2l-1.8,2.5l2.1,3.3C267.5,65.7,268.2,66.5,268.2,66.5L268.2,66.5z"/>
<path fill="#05336E" d="M278.9,61.4c0,2.9,0,4.1,0.2,5.1h-2.2c0.1-0.9,0.2-2,0.2-4.7h-4.5c0,2.6,0,3.7,0.2,4.7h-2.2  c0.1-1,0.2-2.1,0.2-5.1c0-2.7,0-3.8-0.2-4.7h2.2c-0.1,0.9-0.2,1.9-0.2,4.2h4.5c0-2.3,0-3.3-0.2-4.2h2.2  C278.9,57.6,278.9,58.7,278.9,61.4L278.9,61.4z"/>
<path fill="#05336E" d="M290.9,61.4c0,2.9,0,4.1,0.2,5.1h-2.2c0.1-1,0.2-2.1,0.2-5.1v-2.8l-4.7,7.9h-2.1c0.1-1,0.2-2,0.2-4.7  c0-2.9,0-4.1-0.2-5.1h2.2c-0.1,1-0.2,2.1-0.2,5.1v2.8l4.7-7.9h2.1C290.9,57.6,290.9,58.7,290.9,61.4L290.9,61.4z"/>
<path fill="#05336E" d="M301.2,61.4c0,2.9,0,4.1,0.2,5.1h-2.2c0.1-0.9,0.2-1.9,0.2-4.3c-0.5,0.2-1.4,0.6-2.7,0.6c-2,0-2.7-1-2.7-2.7  c0-1.4,0-2.5-0.2-3.5h2.2c-0.1,1-0.2,2.2-0.2,3.3c0,1.2,0.4,1.7,1.5,1.7c0.8,0,1.6-0.2,2-0.4c0-2.6,0-3.7-0.2-4.6h2.2  C301.2,57.6,301.2,58.7,301.2,61.4L301.2,61.4z"/>
<path fill="#05336E" d="M310.9,64.9v1.6h-6.4c0.1-1,0.2-2.1,0.2-5.1c0-2.7,0-3.8-0.2-4.7h6.1v1.5c-1.4-0.5-2.4-0.6-3.8-0.6h-0.2v3.3  c1.2,0,1.9-0.1,3.1-0.3v1.6c-1.2-0.3-1.9-0.3-3.1-0.3v3.8h0.5C308.6,65.6,309.7,65.5,310.9,64.9L310.9,64.9z"/>
<path fill="#05336E" d="M312.9,61.7c0-3.4,2.2-5.3,5.5-5.3c1.6,0,2.7,0.3,2.7,0.3v1.9c0,0-0.9-1.3-2.7-1.3c-2.1,0-3.4,1.7-3.4,4.3  c0,2.5,1.3,4.1,3.5,4.1c1.8,0,2.8-1,2.8-1l0.1,1.2c0,0-1.2,0.7-3.5,0.7C315,66.6,312.9,64.8,312.9,61.7L312.9,61.7z"/>
<path fill="#05336E" d="M326,56.6c-0.1,1-0.2,2-0.2,4.7c0,2.9,0,4.1,0.2,5.1h-2.2c0.1-1,0.2-2.1,0.2-5.1c0-2.7,0-3.8-0.2-4.7H326  L326,56.6z M332.6,66.5h-3l-3.6-5.2l2-2c1.1-1.2,1.6-1.7,2-2.6h2.1c0,0-1.2,1-2.3,2.1l-1.9,1.9l1.6,2.2  C330.7,64.6,331.4,65.4,332.6,66.5L332.6,66.5z"/>
<path fill="#05336E" d="M343.1,61.4c0,2.9,0,4.1,0.2,5.1H341c0.1-1,0.2-2.1,0.2-5.1v-2.8l-4.7,7.9h-2.1c0.1-1,0.2-2,0.2-4.7  c0-2.9,0-4.1-0.2-5.1h2.2c-0.1,1-0.2,2.1-0.2,5.1v2.8l4.7-7.9h2.1C343.1,57.6,343.1,58.7,343.1,61.4L343.1,61.4z"/>
<path fill="#05336E" d="M355.1,61.4c0,2.9,0,4.1,0.2,5.1H353c0.1-1,0.2-2.1,0.2-5.1v-2.8l-4.7,7.9h-2.1c0.1-1,0.2-2,0.2-4.7  c0-2.9,0-4.1-0.2-5.1h2.2c-0.1,1-0.2,2.1-0.2,5.1v2.8l4.7-7.9h2.1C355.1,57.6,355.1,58.7,355.1,61.4L355.1,61.4z M348,54h1.7  c0,0-0.1,1.5,1.1,1.5c1.2,0,1.1-1.5,1.1-1.5h1.7c0,0-0.4,2.2-2.8,2.2C348.4,56.2,348,54,348,54L348,54z"/>
<path fill="#05336E" d="M53.4,47.3c0.1,0.9,0.1,1.8,0.1,4.3c0,2.7,0,3.8-0.1,4.6h1.9c-0.1-0.9-0.1-2-0.1-4.6c0-2.5,0-3.4,0.1-4.3  H53.4L53.4,47.3z"/>
<path fill="#05336E" d="M57.1,53.9c0,1.6,1.2,2.5,3.3,2.5c2.1,0,3.4-1,3.4-2.6c0-1.1-0.6-1.9-1.8-2.2c0.9-0.3,1.5-1.1,1.5-2.1  c0-1.5-1.1-2.4-3-2.4c-1.9,0-3.1,0.9-3.1,2.4c0,1,0.5,1.7,1.5,2C57.7,52,57.1,52.8,57.1,53.9L57.1,53.9z M60.4,48  c0.8,0,1.3,0.6,1.3,1.6c0,1-0.5,1.6-1.2,1.6c-0.8,0-1.3-0.6-1.3-1.6C59.1,48.6,59.6,48,60.4,48L60.4,48z M60.4,52.1  c0.9,0,1.5,0.7,1.5,1.8c0,1.1-0.6,1.7-1.4,1.7c-0.9,0-1.5-0.7-1.5-1.8C58.9,52.7,59.5,52.1,60.4,52.1L60.4,52.1z"/>
<path fill="#05336E" d="M65,53.9c0,1.6,1.2,2.5,3.3,2.5c2.1,0,3.4-1,3.4-2.6c0-1.1-0.6-1.9-1.8-2.2c0.9-0.3,1.5-1.1,1.5-2.1  c0-1.5-1.1-2.4-3-2.4c-1.9,0-3.1,0.9-3.1,2.4c0,1,0.5,1.7,1.5,2C65.6,52,65,52.8,65,53.9L65,53.9z M68.3,48c0.8,0,1.3,0.6,1.3,1.6  c0,1-0.5,1.6-1.2,1.6c-0.8,0-1.3-0.6-1.3-1.6C67.1,48.6,67.5,48,68.3,48L68.3,48z M68.3,52.1c0.9,0,1.5,0.7,1.5,1.8  c0,1.1-0.6,1.7-1.4,1.7c-0.9,0-1.5-0.7-1.5-1.8C66.9,52.7,67.4,52.1,68.3,52.1L68.3,52.1z"/>
<path fill="#05336E" d="M76.8,50.5c-1,0-1.7,0.5-2.1,0.9c0.1-2,0.6-3.4,2.1-3.4c1.1,0,1.7,1.1,1.7,1.1v-1.6c0,0-0.6-0.3-1.8-0.3  c-2.3,0-3.9,1.7-3.9,4.8c0,3.1,1.3,4.5,3.4,4.5c2,0,3.2-1.2,3.2-3.1C79.5,51.5,78.5,50.5,76.8,50.5L76.8,50.5z M76.4,55.6  c-0.9,0-1.5-0.8-1.6-3.1c0.3-0.4,0.8-0.8,1.5-0.8c1,0,1.4,0.6,1.4,1.9C77.7,54.8,77.2,55.6,76.4,55.6L76.4,55.6z"/>
<path fill="#05336E" d="M70.5,21.5c-12.7-12.7-33.2-12.7-45.8,0c-6.1,6.1-9.3,14.1-9.5,22.2h0c0,0,0,0.1,0,0.1c0,0.3,0,0.7,0,1  c0-0.1,0-0.3,0-0.4c0,2.8,0.3,5.5,1,8.3C20.7,70,38.4,80.4,55.8,75.9c8.2-2.1,14.8-7.2,19-13.7h-0.1c-3.9,5.6-9.7,9.9-16.8,11.7  c-15.8,4.1-32-5.4-36.1-21.2c-0.8-3-1-6.1-0.9-9h1.3c-0.1,2.4,0.2,4.9,0.8,7.3c3.7,14.2,18.2,22.7,32.3,19c5.2-1.3,9.6-4.2,12.9-7.8  h0c-4.2,4-10,6.5-16.3,6.5c-6.8,0-12.9-2.9-17.3-7.5c-0.1-0.1-0.1-0.1-0.2-0.2c-0.1-0.1-0.1-0.2-0.2-0.2C31.9,58,30,54.7,29,50.9  c-0.6-2.4-0.8-4.8-0.7-7.2h1.5c-0.1,2,0.1,4.1,0.6,6.1c2.8,10.9,13.9,17.4,24.8,14.6c1.9-0.5,3.6-1.2,5.2-2.2h-0.4  c-2.1,0.9-4.5,1.5-7,1.5c-9.7,0-17.7-7.9-17.7-17.7c0-0.8,0.1-1.6,0.2-2.3h4.6h19.1h0h6.2l0,0h8.7H80l0,0  C79.8,35.6,76.7,27.6,70.5,21.5L70.5,21.5z M25.5,42.8c0.6-3.3,2.2-6.4,4.7-8.9c6.7-6.7,17.6-6.7,24.3,0c1.7,1.7,3,3.8,3.9,5.9  L25.5,42.8L25.5,42.8z M59.7,31.2c-7.9-7.9-20.8-7.9-28.8,0c-3.3,3.3-5.1,7.4-5.7,11.6L20,43.3c0.7-5,2.9-9.9,6.7-13.8  c9.3-9.3,24.4-9.3,33.6,0c2.8,2.8,4.7,6.1,5.8,9.6l-1.5,0.1C63.7,36.3,62.1,33.5,59.7,31.2L59.7,31.2z M72.3,38.5  c-1.1-4.5-3.4-8.7-6.9-12.2c-10.4-10.4-27.4-10.4-37.8,0c-4.7,4.7-7.2,10.7-7.7,16.9l-3,0.3l-1.6,0.1c0.4-7,3.2-14,8.6-19.3  c11.6-11.6,30.3-11.6,41.9,0c4,4,6.6,8.9,7.8,14.1L72.3,38.5L72.3,38.5z"/>
</svg>