<svg id="vector" xmlns="http://www.w3.org/2000/svg" width="2364" height="2364" viewBox="0 0 2364 2364"><path fill="#000000" d="M416,1437.7h-37.6v-15.8" fill-opacity="0" stroke-linejoin="round" stroke-linecap="round" stroke="#023470" stroke-width="3" id="path_0"/><path fill="#000000" d="M416,1421.9v15.8h-37.6M378.4,1421.9v-7.1M416,1414.8v7.1h-37.6M416,1400h-37.6M416,1400v14.8M416,1400h-37.6M479.4,1437.7h-37.7v-15.8" fill-opacity="0" stroke-linejoin="round" stroke-linecap="round" stroke="#023470" stroke-width="3" id="path_1"/><path fill="#000000" d="M479.4,1421.9v15.8h-37.7M441.7,1421.9v-7.1M479.4,1414.8v7.1h-37.7M479.4,1400h-37.7M479.4,1400v14.8M479.4,1400h-37.7M543.2,1437.7h-37.6v-15.8" fill-opacity="0" stroke-linejoin="round" stroke-linecap="round" stroke="#023470" stroke-width="3" id="path_2"/><path fill="#000000" d="M543.2,1421.9v15.8h-37.6M505.6,1421.9v-7.1M543.2,1414.8v7.1h-37.6M543.2,1400h-37.6M543.2,1400v14.8M543.2,1400h-37.6M607.1,1437.7h-32.9v-15.8" fill-opacity="0" stroke-linejoin="round" stroke-linecap="round" stroke="#023470" stroke-width="3" id="path_3"/><path fill="#000000" d="M607.1,1421.9v15.8h-32.9M574.2,1421.9v-7.1M607.1,1414.8v7.1h-32.9M607.1,1400h-32.9M607.1,1400v14.8M607.1,1400h-32.9M670.9,1437.7h-37.6v-15.8" fill-opacity="0" stroke-linejoin="round" stroke-linecap="round" stroke="#023470" stroke-width="3" id="path_4"/><path fill="#000000" d="M670.9,1421.9v15.8h-37.6M633.3,1421.9v-7.1M670.9,1414.8v7.1h-37.6M670.9,1400h-37.6M670.9,1400v14.8M670.9,1400h-37.6M734.3,1437.7h-37.6v-15.8" fill-opacity="0" stroke-linejoin="round" stroke-linecap="round" stroke="#023470" stroke-width="3" id="path_5"/><path fill="#000000" d="M734.3,1421.9v15.8h-37.6M696.7,1421.9v-7.1M734.3,1414.8v7.1h-37.6M734.3,1400h-37.6M734.3,1400v14.8M734.3,1400h-37.6M798.2,1437.7h-37.7v-15.8" fill-opacity="0" stroke-linejoin="round" stroke-linecap="round" stroke="#023470" stroke-width="3" id="path_6"/><path fill="#000000" d="M798.2,1421.9v15.8h-37.7M760.5,1421.9v-7.1M798.2,1414.8v7.1h-37.7M798.2,1400h-37.7M798.2,1400v14.8M798.2,1400h-37.7M862,1437.7h-37.6v-15.8" fill-opacity="0" stroke-linejoin="round" stroke-linecap="round" stroke="#023470" stroke-width="3" id="path_7"/><path fill="#000000" d="M862,1421.9v15.8h-37.6M824.4,1421.9v-7.1M862,1414.8v7.1h-37.6M862,1400h-37.6M862,1400v14.8M862,1400h-37.6M925.9,1437.7h-37.7v-15.8" fill-opacity="0" stroke-linejoin="round" stroke-linecap="round" stroke="#023470" stroke-width="3" id="path_8"/><path fill="#000000" d="M925.9,1421.9v15.8h-37.7M888.2,1421.9v-7.1M925.9,1414.8v7.1h-37.7M925.9,1400h-37.7M925.9,1400v14.8M925.9,1400h-37.7M992.6,1723.6v37.6h-16.2" fill-opacity="0" stroke-linejoin="round" stroke-linecap="round" stroke="#023470" stroke-width="3" id="path_9"/><path fill="#000000" d="M976.4,1723.6h16.2v37.6M976.4,1761.2h-7.2" fill-opacity="0" stroke-linejoin="round" stroke-linecap="round" stroke="#023470" stroke-width="3" id="path_10"/><path fill="#000000" d="M969.2,1723.6h7.2v37.6M954.5,1723.6v37.6M954.5,1723.6h14.7M954.5,1723.6v37.6M992.6,1461v37.6h-16.2" fill-opacity="0" stroke-linejoin="round" stroke-linecap="round" stroke="#023470" stroke-width="3" id="path_11"/><path fill="#000000" d="M976.4,1461h16.2v37.6M976.4,1498.6h-7.2" fill-opacity="0" stroke-linejoin="round" stroke-linecap="round" stroke="#023470" stroke-width="3" id="path_12"/><path fill="#000000" d="M969.2,1461h7.2v37.6M954.5,1461v37.6M954.5,1461h14.7M954.5,1461v37.6M992.6,1524.4v37.6h-16.2" fill-opacity="0" stroke-linejoin="round" stroke-linecap="round" stroke="#023470" stroke-width="3" id="path_13"/><path fill="#000000" d="M976.4,1524.4h16.2v37.6M976.4,1562h-7.2" fill-opacity="0" stroke-linejoin="round" stroke-linecap="round" stroke="#023470" stroke-width="3" id="path_14"/><path fill="#000000" d="M969.2,1524.4h7.2v37.6M954.5,1524.4v37.6M954.5,1524.4h14.7M954.5,1524.4v37.6M992.6,1588.7v42.4h-16.2" fill-opacity="0" stroke-linejoin="round" stroke-linecap="round" stroke="#023470" stroke-width="3" id="path_15"/><path fill="#000000" d="M976.4,1588.7h16.2v42.4M976.4,1631.1h-7.2" fill-opacity="0" stroke-linejoin="round" stroke-linecap="round" stroke="#023470" stroke-width="3" id="path_16"/><path fill="#000000" d="M969.2,1588.7h7.2v42.4M954.5,1588.7v42.4M954.5,1588.7h14.7M954.5,1588.7v42.4M992.6,1656.8v41h-16.2" fill-opacity="0" stroke-linejoin="round" stroke-linecap="round" stroke="#023470" stroke-width="3" id="path_17"/><path fill="#000000" d="M976.4,1656.8h16.2v41M976.4,1697.8h-7.2" fill-opacity="0" stroke-linejoin="round" stroke-linecap="round" stroke="#023470" stroke-width="3" id="path_18"/><path fill="#000000" d="M969.2,1656.8h7.2v41M954.5,1656.8v41M954.5,1656.8h14.7M954.5,1656.8v41M992.6,1786.9v38.2h-16.2" fill-opacity="0" stroke-linejoin="round" stroke-linecap="round" stroke="#023470" stroke-width="3" id="path_19"/><path fill="#000000" d="M976.4,1786.9h16.2v38.2M976.4,1825.1h-7.2" fill-opacity="0" stroke-linejoin="round" stroke-linecap="round" stroke="#023470" stroke-width="3" id="path_20"/><path fill="#000000" d="M969.2,1786.9h7.2v38.2M954.5,1786.9v38.2M954.5,1786.9h14.7M954.5,1786.9v38.2M992.6,1851.3v38.1h-16.2" fill-opacity="0" stroke-linejoin="round" stroke-linecap="round" stroke="#023470" stroke-width="3" id="path_21"/><path fill="#000000" d="M976.4,1851.3h16.2v38.1M976.4,1889.4h-7.2" fill-opacity="0" stroke-linejoin="round" stroke-linecap="round" stroke="#023470" stroke-width="3" id="path_22"/><path fill="#000000" d="M969.2,1851.3h7.2v38.1M954.5,1851.3v38.1M954.5,1851.3h14.7M954.5,1851.3v38.1M992.6,1914.6v37.7h-16.2" fill-opacity="0" stroke-linejoin="round" stroke-linecap="round" stroke="#023470" stroke-width="3" id="path_23"/><path fill="#000000" d="M976.4,1914.6h16.2v37.7M976.4,1952.3h-7.2" fill-opacity="0" stroke-linejoin="round" stroke-linecap="round" stroke="#023470" stroke-width="3" id="path_24"/><path fill="#000000" d="M969.2,1914.6h7.2v37.7M954.5,1914.6v37.7M954.5,1914.6h14.7M954.5,1914.6v37.7M992.6,1978.5v37.6h-16.2" fill-opacity="0" stroke-linejoin="round" stroke-linecap="round" stroke="#023470" stroke-width="3" id="path_25"/><path fill="#000000" d="M976.4,1978.5h16.2v37.6M976.4,2016.1h-7.2" fill-opacity="0" stroke-linejoin="round" stroke-linecap="round" stroke="#023470" stroke-width="3" id="path_26"/><path fill="#000000" d="M969.2,1978.5h7.2v37.6M954.5,1978.5v37.6M954.5,1978.5h14.7M954.5,1978.5v37.6M1504.4,1437.7h-37.7v-15.8" fill-opacity="0" stroke-linejoin="round" stroke-linecap="round" stroke="#023470" stroke-width="3" id="path_27"/><path fill="#000000" d="M1504.4,1421.9v15.8h-37.7M1466.7,1421.9v-7.1M1504.4,1414.8v7.1h-37.7M1504.4,1400h-37.7M1504.4,1400v14.8M1504.4,1400h-37.7M1568.2,1437.7h-38.1v-15.8" fill-opacity="0" stroke-linejoin="round" stroke-linecap="round" stroke="#023470" stroke-width="3" id="path_28"/><path fill="#000000" d="M1568.2,1421.9v15.8h-38.1M1530.1,1421.9v-7.1M1568.2,1414.8v7.1h-38.1M1568.2,1400h-38.1M1568.2,1400v14.8M1568.2,1400h-38.1M1632.5,1437.7h-37.6v-15.8" fill-opacity="0" stroke-linejoin="round" stroke-linecap="round" stroke="#023470" stroke-width="3" id="path_29"/><path fill="#000000" d="M1632.5,1421.9v15.8h-37.6M1594.9,1421.9v-7.1M1632.5,1414.8v7.1h-37.6M1632.5,1400h-37.6M1632.5,1400v14.8M1632.5,1400h-37.6M1700.2,1437.7h-38.1v-15.8" fill-opacity="0" stroke-linejoin="round" stroke-linecap="round" stroke="#023470" stroke-width="3" id="path_30"/><path fill="#000000" d="M1700.2,1421.9v15.8h-38.1M1662.1,1421.9v-7.1M1700.2,1414.8v7.1h-38.1M1700.2,1400h-38.1M1700.2,1400v14.8M1700.2,1400h-38.1M1763.1,1437.7h-37.6v-15.8" fill-opacity="0" stroke-linejoin="round" stroke-linecap="round" stroke="#023470" stroke-width="3" id="path_31"/><path fill="#000000" d="M1763.1,1421.9v15.8h-37.6M1725.5,1421.9v-7.1M1763.1,1414.8v7.1h-37.6M1763.1,1400h-37.6M1763.1,1400v14.8M1763.1,1400h-37.6M1834.1,1437.7h-45.3v-15.8" fill-opacity="0" stroke-linejoin="round" stroke-linecap="round" stroke="#023470" stroke-width="3" id="path_32"/><path fill="#000000" d="M1834.1,1421.9v15.8h-45.3M1788.8,1421.9v-7.1M1834.1,1414.8v7.1h-45.3M1834.1,1400h-45.3M1834.1,1400v14.8M1834.1,1400h-45.3M1897.5,1437.7h-37.7v-15.8" fill-opacity="0" stroke-linejoin="round" stroke-linecap="round" stroke="#023470" stroke-width="3" id="path_33"/><path fill="#000000" d="M1897.5,1421.9v15.8h-37.7M1859.8,1421.9v-7.1M1897.5,1414.8v7.1h-37.7M1897.5,1400h-37.7M1897.5,1400v14.8M1897.5,1400h-37.7M1961.3,1437.7h-37.6v-15.8" fill-opacity="0" stroke-linejoin="round" stroke-linecap="round" stroke="#023470" stroke-width="3" id="path_34"/><path fill="#000000" d="M1961.3,1421.9v15.8h-37.6M1923.7,1421.9v-7.1M1961.3,1414.8v7.1h-37.6M1961.3,1400h-37.6M1961.3,1400v14.8M1961.3,1400h-37.6M2025.7,1437.7H1988v-15.8" fill-opacity="0" stroke-linejoin="round" stroke-linecap="round" stroke="#023470" stroke-width="3" id="path_35"/><path fill="#000000" d="M2025.7,1421.9v15.8H1988M1988,1421.9v-7.1M2025.7,1414.8v7.1H1988M2025.7,1400H1988M2025.7,1400v14.8M2025.7,1400H1988M992.6,887.8v37.6h-16.2" fill-opacity="0" stroke-linejoin="round" stroke-linecap="round" stroke="#023470" stroke-width="3" id="path_36"/><path fill="#000000" d="M976.4,887.8h16.2v37.6M976.4,925.4h-7.2" fill-opacity="0" stroke-linejoin="round" stroke-linecap="round" stroke="#023470" stroke-width="3" id="path_37"/><path fill="#000000" d="M969.2,887.8h7.2v37.6M954.5,887.8v37.6M954.5,887.8h14.7M954.5,887.8v37.6M992.6,823.9v37.6h-16.2" fill-opacity="0" stroke-linejoin="round" stroke-linecap="round" stroke="#023470" stroke-width="3" id="path_38"/><path fill="#000000" d="M976.4,823.9h16.2v37.6M976.4,861.5h-7.2" fill-opacity="0" stroke-linejoin="round" stroke-linecap="round" stroke="#023470" stroke-width="3" id="path_39"/><path fill="#000000" d="M969.2,823.9h7.2v37.6M954.5,823.9v37.6M954.5,823.9h14.7M954.5,823.9v37.6M992.6,760v37.7h-16.2" fill-opacity="0" stroke-linejoin="round" stroke-linecap="round" stroke="#023470" stroke-width="3" id="path_40"/><path fill="#000000" d="M976.4,760h16.2v37.7M976.4,797.7h-7.2" fill-opacity="0" stroke-linejoin="round" stroke-linecap="round" stroke="#023470" stroke-width="3" id="path_41"/><path fill="#000000" d="M969.2,760h7.2v37.7M954.5,760v37.7M954.5,760h14.7M954.5,760v37.7M992.6,696.7v37.6h-16.2" fill-opacity="0" stroke-linejoin="round" stroke-linecap="round" stroke="#023470" stroke-width="3" id="path_42"/><path fill="#000000" d="M976.4,696.7h16.2v37.6M976.4,734.3h-7.2" fill-opacity="0" stroke-linejoin="round" stroke-linecap="round" stroke="#023470" stroke-width="3" id="path_43"/><path fill="#000000" d="M969.2,696.7h7.2v37.6M954.5,696.7v37.6M954.5,696.7h14.7M954.5,696.7v37.6M954.5,670.5v-38.2h15.7" fill-opacity="0" stroke-linejoin="round" stroke-linecap="round" stroke="#023470" stroke-width="3" id="path_44"/><path fill="#000000" d="M970.2,670.5h-15.7v-38.2M970.2,632.3h7.6" fill-opacity="0" stroke-linejoin="round" stroke-linecap="round" stroke="#023470" stroke-width="3" id="path_45"/><path fill="#000000" d="M977.8,670.5h-7.6v-38.2M992.6,670.5v-38.2M992.6,670.5h-14.8M992.6,670.5v-38.2M954.5,607.1v-37.7h15.7" fill-opacity="0" stroke-linejoin="round" stroke-linecap="round" stroke="#023470" stroke-width="3" id="path_46"/><path fill="#000000" d="M970.2,607.1h-15.7v-37.7M970.2,569.4h7.6" fill-opacity="0" stroke-linejoin="round" stroke-linecap="round" stroke="#023470" stroke-width="3" id="path_47"/><path fill="#000000" d="M977.8,607.1h-7.6v-37.7M992.6,607.1v-37.7M992.6,607.1h-14.8M992.6,607.1v-37.7M954.5,535.1v-37.6h15.7" fill-opacity="0" stroke-linejoin="round" stroke-linecap="round" stroke="#023470" stroke-width="3" id="path_48"/><path fill="#000000" d="M970.2,535.1h-15.7v-37.6M970.2,497.5h7.6" fill-opacity="0" stroke-linejoin="round" stroke-linecap="round" stroke="#023470" stroke-width="3" id="path_49"/><path fill="#000000" d="M977.8,535.1h-7.6v-37.6M992.6,535.1v-37.6M992.6,535.1h-14.8M992.6,535.1v-37.6M954.5,471.8v-37.7h15.7" fill-opacity="0" stroke-linejoin="round" stroke-linecap="round" stroke="#023470" stroke-width="3" id="path_50"/><path fill="#000000" d="M970.2,471.8h-15.7v-37.7M970.2,434.1h7.6" fill-opacity="0" stroke-linejoin="round" stroke-linecap="round" stroke="#023470" stroke-width="3" id="path_51"/><path fill="#000000" d="M977.8,471.8h-7.6v-37.7M992.6,471.8v-37.7M992.6,471.8h-14.8M992.6,471.8v-37.7M954.5,407.9v-37.6h15.7" fill-opacity="0" stroke-linejoin="round" stroke-linecap="round" stroke="#023470" stroke-width="3" id="path_52"/><path fill="#000000" d="M970.2,407.9h-15.7v-37.6M970.2,370.3h7.6" fill-opacity="0" stroke-linejoin="round" stroke-linecap="round" stroke="#023470" stroke-width="3" id="path_53"/><path fill="#000000" d="M977.8,407.9h-7.6v-37.6M992.6,407.9v-37.6M992.6,407.9h-14.8M992.6,407.9v-37.6M356.9,1153.6v75.3h-15.7" fill-opacity="0" stroke-linejoin="round" stroke-linecap="round" stroke="#023470" stroke-width="3" id="path_54"/><path fill="#000000" d="M341.2,1153.6h15.7v75.3M341.2,1228.9H334M334,1153.6h7.2v75.3M319.3,1153.6v75.3M319.3,1153.6H334M319.3,1153.6v75.3M913,944h31.5v16.2" fill-opacity="0" stroke-linejoin="round" stroke-linecap="round" stroke="#023470" stroke-width="3" id="path_55"/><path fill="#000000" d="M913,960.2V944h31.5M944.5,960.2v7.1" fill-opacity="0" stroke-linejoin="round" stroke-linecap="round" stroke="#023470" stroke-width="3" id="path_56"/><path fill="#000000" d="M913,967.3v-7.1h31.5M913,982.1h31.5M913,982.1v-14.8M913,982.1h31.5M850.1,944h37.7v16.2" fill-opacity="0" stroke-linejoin="round" stroke-linecap="round" stroke="#023470" stroke-width="3" id="path_57"/><path fill="#000000" d="M850.1,960.2V944h37.7M887.8,960.2v7.1" fill-opacity="0" stroke-linejoin="round" stroke-linecap="round" stroke="#023470" stroke-width="3" id="path_58"/><path fill="#000000" d="M850.1,967.3v-7.1h37.7M850.1,982.1h37.7M850.1,982.1v-14.8M850.1,982.1h37.7M781,944h37.7v16.2" fill-opacity="0" stroke-linejoin="round" stroke-linecap="round" stroke="#023470" stroke-width="3" id="path_59"/><path fill="#000000" d="M781,960.2V944h37.7M818.7,960.2v7.1" fill-opacity="0" stroke-linejoin="round" stroke-linecap="round" stroke="#023470" stroke-width="3" id="path_60"/><path fill="#000000" d="M781,967.3v-7.1h37.7M781,982.1h37.7M781,982.1v-14.8M781,982.1h37.7M716.7,944h38.1v16.2" fill-opacity="0" stroke-linejoin="round" stroke-linecap="round" stroke="#023470" stroke-width="3" id="path_61"/><path fill="#000000" d="M716.7,960.2V944h38.1M754.8,960.2v7.1" fill-opacity="0" stroke-linejoin="round" stroke-linecap="round" stroke="#023470" stroke-width="3" id="path_62"/><path fill="#000000" d="M716.7,967.3v-7.1h38.1M716.7,982.1h38.1M716.7,982.1v-14.8M716.7,982.1h38.1M642.8,944h37.7v16.2" fill-opacity="0" stroke-linejoin="round" stroke-linecap="round" stroke="#023470" stroke-width="3" id="path_63"/><path fill="#000000" d="M642.8,960.2V944h37.7M680.5,960.2v7.1" fill-opacity="0" stroke-linejoin="round" stroke-linecap="round" stroke="#023470" stroke-width="3" id="path_64"/><path fill="#000000" d="M642.8,967.3v-7.1h37.7M642.8,982.1h37.7M642.8,982.1v-14.8M642.8,982.1h37.7M579,944h37.6v16.2" fill-opacity="0" stroke-linejoin="round" stroke-linecap="round" stroke="#023470" stroke-width="3" id="path_65"/><path fill="#000000" d="M579,960.2V944h37.6M616.6,960.2v7.1" fill-opacity="0" stroke-linejoin="round" stroke-linecap="round" stroke="#023470" stroke-width="3" id="path_66"/><path fill="#000000" d="M579,967.3v-7.1h37.6M579,982.1h37.6M579,982.1v-14.8M579,982.1h37.6M515.1,944h37.7v16.2" fill-opacity="0" stroke-linejoin="round" stroke-linecap="round" stroke="#023470" stroke-width="3" id="path_67"/><path fill="#000000" d="M515.1,960.2V944h37.7M552.8,960.2v7.1" fill-opacity="0" stroke-linejoin="round" stroke-linecap="round" stroke="#023470" stroke-width="3" id="path_68"/><path fill="#000000" d="M515.1,967.3v-7.1h37.7M515.1,982.1h37.7M515.1,982.1v-14.8M515.1,982.1h37.7M451.3,944h38.1v16.2" fill-opacity="0" stroke-linejoin="round" stroke-linecap="round" stroke="#023470" stroke-width="3" id="path_69"/><path fill="#000000" d="M451.3,960.2V944h38.1M489.4,960.2v7.1" fill-opacity="0" stroke-linejoin="round" stroke-linecap="round" stroke="#023470" stroke-width="3" id="path_70"/><path fill="#000000" d="M451.3,967.3v-7.1h38.1M451.3,982.1h38.1M451.3,982.1v-14.8M451.3,982.1h38.1M387.4,944h38.1v16.2" fill-opacity="0" stroke-linejoin="round" stroke-linecap="round" stroke="#023470" stroke-width="3" id="path_71"/><path fill="#000000" d="M387.4,960.2V944h38.1M425.5,960.2v7.1" fill-opacity="0" stroke-linejoin="round" stroke-linecap="round" stroke="#023470" stroke-width="3" id="path_72"/><path fill="#000000" d="M387.4,967.3v-7.1h38.1M387.4,982.1h38.1M387.4,982.1v-14.8M387.4,982.1h38.1M1448.1,1974.2v37.7h-15.7" fill-opacity="0" stroke-linejoin="round" stroke-linecap="round" stroke="#023470" stroke-width="3" id="path_73"/><path fill="#000000" d="M1432.4,1974.2h15.7v37.7M1432.4,2011.9h-7.1M1425.3,1974.2h7.1v37.7M1410.5,1974.2v37.7M1410.5,1974.2h14.8M1410.5,1974.2v37.7M1448.1,1909.9v37.6h-15.7" fill-opacity="0" stroke-linejoin="round" stroke-linecap="round" stroke="#023470" stroke-width="3" id="path_74"/><path fill="#000000" d="M1432.4,1909.9h15.7v37.6M1432.4,1947.5h-7.1M1425.3,1909.9h7.1v37.6M1410.5,1909.9v37.6M1410.5,1909.9h14.8M1410.5,1909.9v37.6M1448.1,1846v38.1h-15.7" fill-opacity="0" stroke-linejoin="round" stroke-linecap="round" stroke="#023470" stroke-width="3" id="path_75"/><path fill="#000000" d="M1432.4,1846h15.7v38.1M1432.4,1884.1h-7.1M1425.3,1846h7.1v38.1M1410.5,1846v38.1M1410.5,1846h14.8M1410.5,1846v38.1M1448.1,1787.4v32.4h-15.7" fill-opacity="0" stroke-linejoin="round" stroke-linecap="round" stroke="#023470" stroke-width="3" id="path_76"/><path fill="#000000" d="M1432.4,1787.4h15.7v32.4M1432.4,1819.8h-7.1M1425.3,1787.4h7.1v32.4M1410.5,1787.4v32.4M1410.5,1787.4h14.8M1410.5,1787.4v32.4M1448.1,1724v38.2h-15.7" fill-opacity="0" stroke-linejoin="round" stroke-linecap="round" stroke="#023470" stroke-width="3" id="path_77"/><path fill="#000000" d="M1432.4,1724h15.7v38.2M1432.4,1762.2h-7.1M1425.3,1724h7.1v38.2M1410.5,1724v38.2M1410.5,1724h14.8M1410.5,1724v38.2M1448.1,1659.7v38.1h-15.7" fill-opacity="0" stroke-linejoin="round" stroke-linecap="round" stroke="#023470" stroke-width="3" id="path_78"/><path fill="#000000" d="M1432.4,1659.7h15.7v38.1M1432.4,1697.8h-7.1M1425.3,1659.7h7.1v38.1M1410.5,1659.7v38.1M1410.5,1659.7h14.8M1410.5,1659.7v38.1M1410.5,1626.4v-37.7h15.7" fill-opacity="0" stroke-linejoin="round" stroke-linecap="round" stroke="#023470" stroke-width="3" id="path_79"/><path fill="#000000" d="M1426.2,1626.4h-15.7v-37.7M1426.2,1588.7h7.2M1433.4,1626.4h-7.2v-37.7M1448.1,1626.4v-37.7M1448.1,1626.4h-14.7M1448.1,1626.4v-37.7M1410.5,1563.5v-37.7h15.7" fill-opacity="0" stroke-linejoin="round" stroke-linecap="round" stroke="#023470" stroke-width="3" id="path_80"/><path fill="#000000" d="M1426.2,1563.5h-15.7v-37.7M1426.2,1525.8h7.2M1433.4,1563.5h-7.2v-37.7M1448.1,1563.5v-37.7M1448.1,1563.5h-14.7M1448.1,1563.5v-37.7M1410.5,1499.1v-37.6h15.7" fill-opacity="0" stroke-linejoin="round" stroke-linecap="round" stroke="#023470" stroke-width="3" id="path_81"/><path fill="#000000" d="M1426.2,1499.1h-15.7v-37.6M1426.2,1461.5h7.2M1433.4,1499.1h-7.2v-37.6M1448.1,1499.1v-37.6M1448.1,1499.1h-14.7M1448.1,1499.1v-37.6M2025.2,982.1h-37.6v-15.7" fill-opacity="0" stroke-linejoin="round" stroke-linecap="round" stroke="#023470" stroke-width="3" id="path_82"/><path fill="#000000" d="M2025.2,966.4v15.7h-37.6M1987.6,966.4v-7.6M2025.2,958.8v7.6h-37.6M2025.2,944h-37.6M2025.2,944v14.8M2025.2,944h-37.6M1961.3,982.1h-37.6v-15.7" fill-opacity="0" stroke-linejoin="round" stroke-linecap="round" stroke="#023470" stroke-width="3" id="path_83"/><path fill="#000000" d="M1961.3,966.4v15.7h-37.6M1923.7,966.4v-7.6M1961.3,958.8v7.6h-37.6M1961.3,944h-37.6M1961.3,944v14.8M1961.3,944h-37.6M1898,982.1h-38.2v-15.7" fill-opacity="0" stroke-linejoin="round" stroke-linecap="round" stroke="#023470" stroke-width="3" id="path_84"/><path fill="#000000" d="M1898,966.4v15.7h-38.2M1859.8,966.4v-7.6M1898,958.8v7.6h-38.2M1898,944h-38.2M1898,944v14.8M1898,944h-38.2M1834.6,982.1h-44.3v-15.7" fill-opacity="0" stroke-linejoin="round" stroke-linecap="round" stroke="#023470" stroke-width="3" id="path_85"/><path fill="#000000" d="M1834.6,966.4v15.7h-44.3M1790.3,966.4v-7.6M1834.6,958.8v7.6h-44.3M1834.6,944h-44.3M1834.6,944v14.8M1834.6,944h-44.3M1763.6,982.1h-37.7v-15.7" fill-opacity="0" stroke-linejoin="round" stroke-linecap="round" stroke="#023470" stroke-width="3" id="path_86"/><path fill="#000000" d="M1763.6,966.4v15.7h-37.7M1725.9,966.4v-7.6M1763.6,958.8v7.6h-37.7M1763.6,944h-37.7M1763.6,944v14.8M1763.6,944h-37.7M1699.3,982.1h-37.7v-15.7" fill-opacity="0" stroke-linejoin="round" stroke-linecap="round" stroke="#023470" stroke-width="3" id="path_87"/><path fill="#000000" d="M1699.3,966.4v15.7h-37.7M1661.6,966.4v-7.6M1699.3,958.8v7.6h-37.7M1699.3,944h-37.7M1699.3,944v14.8M1699.3,944h-37.7M1632.1,982.1h-38.2v-15.7" fill-opacity="0" stroke-linejoin="round" stroke-linecap="round" stroke="#023470" stroke-width="3" id="path_88"/><path fill="#000000" d="M1632.1,966.4v15.7h-38.2M1593.9,966.4v-7.6M1632.1,958.8v7.6h-38.2M1632.1,944h-38.2M1632.1,944v14.8M1632.1,944h-38.2M1568.7,982.1H1531v-15.7" fill-opacity="0" stroke-linejoin="round" stroke-linecap="round" stroke="#023470" stroke-width="3" id="path_89"/><path fill="#000000" d="M1568.7,966.4v15.7H1531M1531,966.4v-7.6M1568.7,958.8v7.6H1531M1568.7,944H1531M1568.7,944v14.8M1568.7,944H1531M1504.4,982.1h-37.7v-15.7" fill-opacity="0" stroke-linejoin="round" stroke-linecap="round" stroke="#023470" stroke-width="3" id="path_90"/><path fill="#000000" d="M1504.4,966.4v15.7h-37.7M1466.7,966.4v-7.6M1504.4,958.8v7.6h-37.7M1504.4,944h-37.7M1504.4,944v14.8M1504.4,944h-37.7M1163.7,308.8h75.7v15.7" fill-opacity="0" stroke-linejoin="round" stroke-linecap="round" stroke="#023470" stroke-width="3" id="path_91"/><path fill="#000000" d="M1163.7,324.5v-15.7h75.7M1239.4,324.5v7.6M1163.7,332.1v-7.6h75.7M1163.7,346.9h75.7M1163.7,346.9v-14.8M1163.7,346.9h75.7M1448.1,825.8v38.1h-15.7" fill-opacity="0" stroke-linejoin="round" stroke-linecap="round" stroke="#023470" stroke-width="3" id="path_92"/><path fill="#000000" d="M1432.4,825.8h15.7v38.1M1432.4,863.9h-7.1M1425.3,825.8h7.1v38.1M1410.5,825.8v38.1M1410.5,825.8h14.8M1410.5,825.8v38.1M1448.1,889.2v37.6h-15.7" fill-opacity="0" stroke-linejoin="round" stroke-linecap="round" stroke="#023470" stroke-width="3" id="path_93"/><path fill="#000000" d="M1432.4,889.2h15.7v37.6M1432.4,926.8h-7.1M1425.3,889.2h7.1v37.6M1410.5,889.2v37.6M1410.5,889.2h14.8M1410.5,889.2v37.6M1448.1,761.5v37.6h-15.7" fill-opacity="0" stroke-linejoin="round" stroke-linecap="round" stroke="#023470" stroke-width="3" id="path_94"/><path fill="#000000" d="M1432.4,761.5h15.7v37.6M1432.4,799.1h-7.1M1425.3,761.5h7.1v37.6M1410.5,761.5v37.6M1410.5,761.5h14.8M1410.5,761.5v37.6M1448.1,691.9V730h-15.7" fill-opacity="0" stroke-linejoin="round" stroke-linecap="round" stroke="#023470" stroke-width="3" id="path_95"/><path fill="#000000" d="M1432.4,691.9h15.7V730M1432.4,730h-7.1M1425.3,691.9h7.1V730M1410.5,691.9V730M1410.5,691.9h14.8M1410.5,691.9V730M1448.1,627.6v37.6h-15.7" fill-opacity="0" stroke-linejoin="round" stroke-linecap="round" stroke="#023470" stroke-width="3" id="path_96"/><path fill="#000000" d="M1432.4,627.6h15.7v37.6M1432.4,665.2h-7.1M1425.3,627.6h7.1v37.6M1410.5,627.6v37.6M1410.5,627.6h14.8M1410.5,627.6v37.6M1448.1,564.2v38.1h-15.7" fill-opacity="0" stroke-linejoin="round" stroke-linecap="round" stroke="#023470" stroke-width="3" id="path_97"/><path fill="#000000" d="M1432.4,564.2h15.7v38.1M1432.4,602.3h-7.1M1425.3,564.2h7.1v38.1M1410.5,564.2v38.1M1410.5,564.2h14.8M1410.5,564.2v38.1M1448.1,497.5v38.1h-15.7" fill-opacity="0" stroke-linejoin="round" stroke-linecap="round" stroke="#023470" stroke-width="3" id="path_98"/><path fill="#000000" d="M1432.4,497.5h15.7v38.1M1432.4,535.6h-7.1M1425.3,497.5h7.1v38.1M1410.5,497.5v38.1M1410.5,497.5h14.8M1410.5,497.5v38.1M1448.1,434.1v37.7h-15.7" fill-opacity="0" stroke-linejoin="round" stroke-linecap="round" stroke="#023470" stroke-width="3" id="path_99"/><path fill="#000000" d="M1432.4,434.1h15.7v37.7M1432.4,471.8h-7.1M1425.3,434.1h7.1v37.7M1410.5,434.1v37.7M1410.5,434.1h14.8M1410.5,434.1v37.7M1448.1,370.3v38.1h-15.7" fill-opacity="0" stroke-linejoin="round" stroke-linecap="round" stroke="#023470" stroke-width="3" id="path_100"/><path fill="#000000" d="M1432.4,370.3h15.7v38.1M1432.4,408.4h-7.1M1425.3,370.3h7.1v38.1M1410.5,370.3v38.1M1410.5,370.3h14.8M1410.5,370.3v38.1M2083.3,1153.2v75.3h-15.7" fill-opacity="0" stroke-linejoin="round" stroke-linecap="round" stroke="#023470" stroke-width="3" id="path_101"/><path fill="#000000" d="M2067.6,1153.2h15.7v75.3M2067.6,1228.5h-7.1M2060.5,1153.2h7.1v75.3M2045.7,1153.2v75.3M2045.7,1153.2h14.8M2045.7,1153.2v75.3M1163.2,2035.2h75.7v15.7" fill-opacity="0" stroke-linejoin="round" stroke-linecap="round" stroke="#023470" stroke-width="3" id="path_102"/><path fill="#000000" d="M1163.2,2050.9v-15.7h75.7M1238.9,2050.9v7.7M1163.2,2058.6v-7.7h75.7M1163.2,2073.3h75.7M1163.2,2073.3v-14.7M1163.2,2073.3h75.7M1289,1059.8c0.4,1 1.2,1.8 1.9,1.9 1.4,-0.1 2.2,-0.9 1.9,-1.9M1292.8,1059.8c0.3,-1.1 -0.5,-2 -1.9,-1.9 -0.7,-0.1 -1.5,0.8 -1.9,1.9M1250.4,1059.8c0.4,1 1.3,1.8 1.9,1.9 1.4,-0.1 2.3,-0.9 1.9,-1.9M1254.2,1059.8c0.4,-1.1 -0.5,-2 -1.9,-1.9 -0.6,-0.1 -1.5,0.8 -1.9,1.9M1223.2,1059.8c0.4,1 1.2,1.8 1.9,1.9 1.4,-0.1 2.3,-0.9 1.9,-1.9M1227,1059.8c0.4,-1.1 -0.5,-2 -1.9,-1.9 -0.7,-0.1 -1.5,0.8 -1.9,1.9M1175.6,1059.8c0.3,1 1.1,1.8 1.9,1.9 1.3,-0.1 2.2,-0.9 1.9,-1.9M1179.4,1059.8c0.3,-1.1 -0.6,-2 -1.9,-1.9 -0.8,-0.1 -1.6,0.8 -1.9,1.9M1143.2,1059.8c0.1,1 0.9,1.8 1.9,1.9 1.1,-0.1 1.9,-0.9 1.9,-1.9M1147,1059.8c0,-1.1 -0.8,-2 -1.9,-1.9 -1,-0.1 -1.8,0.8 -1.9,1.9M1106.5,1059.8c0.2,1 1,1.8 1.9,1.9 1.2,-0.1 2.1,-0.9 1.9,-1.9M1110.3,1059.8c0.2,-1.1 -0.7,-2 -1.9,-1.9 -0.9,-0.1 -1.7,0.8 -1.9,1.9M1065.5,1059.8c0.2,2.6 2.3,4.7 4.8,4.8 2.7,-0.1 4.9,-2.2 4.8,-4.8M1075,1059.8c0.1,-2.6 -2,-4.7 -4.8,-4.3 -2.5,-0.5 -4.6,1.7 -4.8,4.3M1196.5,1060.2c0.3,2.2 2.4,4.3 4.8,4.8 2.9,-0.4 5,-2.5 4.8,-4.8M1206.1,1060.2c0.2,-3 -1.9,-5.1 -4.8,-4.8 -2.3,-0.3 -4.4,1.8 -4.8,4.8M1068.4,1091.7c0.3,0.8 1.2,1.6 1.9,1.9 1.4,-0.3 2.2,-1.1 1.9,-1.9M1072.2,1091.7c0.3,-1.3 -0.5,-2.2 -1.9,-1.9 -0.7,-0.3 -1.6,0.6 -1.9,1.9M1068.4,1124.6c0.3,1 1.2,1.8 1.9,1.9 1.4,-0.1 2.2,-0.9 1.9,-1.9M1072.2,1124.6c0.3,-1.1 -0.5,-1.9 -1.9,-1.9 -0.7,0 -1.6,0.8 -1.9,1.9M1068.4,1157.5c0.3,0.6 1.2,1.4 1.9,1.4 1.4,0 2.2,-0.9 1.9,-1.4M1072.2,1157.5c0.3,-1.5 -0.5,-2.4 -1.9,-1.9 -0.7,-0.5 -1.6,0.4 -1.9,1.9M1068.4,1220.8c0.3,0.8 1.2,1.7 1.9,1.9 1.4,-0.2 2.2,-1.1 1.9,-1.9M1072.2,1220.8c0.3,-1.3 -0.5,-2.1 -1.9,-1.9 -0.7,-0.2 -1.6,0.6 -1.9,1.9M1068.4,1257.5c0.3,0.7 1.2,1.5 1.9,1.9 1.4,-0.4 2.2,-1.2 1.9,-1.9M1072.2,1257.5c0.3,-1.4 -0.5,-2.2 -1.9,-1.9 -0.7,-0.3 -1.6,0.5 -1.9,1.9M1068.4,1293.3c0.3,0.6 1.2,1.5 1.9,1.9 1.4,-0.4 2.2,-1.3 1.9,-1.9M1072.2,1293.3c0.3,-1.5 -0.5,-2.3 -1.9,-1.9 -0.7,-0.4 -1.6,0.4 -1.9,1.9M1100.8,1322.3c0.4,0.6 1.3,1.4 1.9,1.9 1.4,-0.5 2.3,-1.3 1.9,-1.9M1104.6,1322.3c0.4,-1.5 -0.5,-2.3 -1.9,-1.9 -0.6,-0.4 -1.5,0.4 -1.9,1.9M1131.3,1322.3c0.3,0.6 1.2,1.4 1.9,1.9 1.4,-0.5 2.2,-1.3 1.9,-1.9M1135.1,1322.3c0.3,-1.5 -0.6,-2.3 -1.9,-1.9 -0.7,-0.4 -1.6,0.4 -1.9,1.9M1162.7,1322.3c0.1,0.6 1,1.4 1.9,1.9 1.1,-0.5 2,-1.3 1.9,-1.9M1166.5,1322.3c0.1,-1.5 -0.8,-2.3 -1.9,-1.9 -1,-0.4 -1.8,0.4 -1.9,1.9M1237,1322.3c0.3,0.6 1.1,1.4 1.9,1.9 1.3,-0.5 2.1,-1.3 1.9,-1.9M1240.8,1322.3c0.2,-1.5 -0.6,-2.3 -1.9,-1.9 -0.8,-0.4 -1.6,0.4 -1.9,1.9M1269.9,1322.3c0.2,0.6 1.1,1.4 1.9,1.9 1.3,-0.5 2.1,-1.3 1.9,-1.9M1273.7,1322.3c0.2,-1.5 -0.7,-2.3 -1.9,-1.9 -0.8,-0.4 -1.7,0.4 -1.9,1.9M1302.3,1322.3c0.5,0.6 1.3,1.4 1.9,1.9 1.5,-0.5 2.3,-1.3 1.9,-1.9M1306.1,1322.3c0.4,-1.5 -0.4,-2.3 -1.9,-1.9 -0.6,-0.4 -1.4,0.4 -1.9,1.9M1330.4,1289.9c0.4,0.6 1.2,1.4 1.9,1.9 1.4,-0.5 2.3,-1.3 1.9,-1.9M1334.2,1289.9c0.4,-1.5 -0.5,-2.3 -1.9,-1.9 -0.7,-0.4 -1.5,0.4 -1.9,1.9M1330.4,1253.7c0.4,0.7 1.2,1.5 1.9,1.9 1.4,-0.4 2.3,-1.2 1.9,-1.9M1334.2,1253.7c0.4,-1.4 -0.5,-2.2 -1.9,-1.9 -0.7,-0.3 -1.5,0.5 -1.9,1.9M1330.4,1220.8c0.4,0.7 1.2,1.6 1.9,1.9 1.4,-0.4 2.3,-1.2 1.9,-1.9M1334.2,1220.8c0.4,-1.4 -0.5,-2.2 -1.9,-1.9 -0.7,-0.3 -1.5,0.5 -1.9,1.9M1330.4,1158.9c0.4,0.8 1.2,1.6 1.9,1.9 1.4,-0.3 2.3,-1.1 1.9,-1.9M1334.2,1158.9c0.4,-1.3 -0.5,-2.1 -1.9,-1.9 -0.7,-0.2 -1.5,0.6 -1.9,1.9M1330.4,1127c0.4,0.7 1.2,1.6 1.9,1.9 1.4,-0.4 2.3,-1.2 1.9,-1.9M1334.2,1127c0.4,-1.4 -0.5,-2.2 -1.9,-1.9 -0.7,-0.3 -1.5,0.5 -1.9,1.9M1330.4,1095c0.4,0.6 1.2,1.5 1.9,1.9 1.4,-0.4 2.3,-1.3 1.9,-1.9M1334.2,1095c0.4,-1.5 -0.5,-2.3 -1.9,-1.9 -0.7,-0.4 -1.5,0.4 -1.9,1.9M1066,1321.9c0.1,2.6 2.2,4.7 4.8,4.8 2.6,-0.1 4.7,-2.2 4.3,-4.8M1075,1321.9c0.5,-2.7 -1.7,-4.8 -4.3,-4.8 -2.6,0 -4.7,2.1 -4.8,4.8M1196.5,1322.3c0.2,2.2 2.3,4.3 4.8,4.8 2.8,-0.5 4.9,-2.6 4.8,-4.8M1206.1,1322.3c0.1,-3 -2,-5.1 -4.8,-4.8 -2.4,-0.4 -4.5,1.7 -4.8,4.8M1196.5,1256.1c0.4,2.2 2.5,4.3 4.8,4.8 3,-0.4 5.1,-2.5 4.8,-4.8M1206.1,1256.1c0.3,-3 -1.8,-5.1 -4.8,-4.8 -2.3,-0.3 -4.4,1.8 -4.8,4.8M1065.5,1191.3c0,2.2 2.1,4.3 4.3,4.8 3.1,-0.5 5.2,-2.6 4.8,-4.8M1074.5,1191.3c0.4,-3 -1.7,-5.1 -4.8,-4.8 -2.1,-0.4 -4.3,1.7 -4.3,4.8M1197,1127c0,2.2 2.2,4.3 4.8,4.8 2.6,-0.4 4.7,-2.6 4.3,-4.8M1206.1,1127c0.4,-3 -1.7,-5.1 -4.3,-4.8 -2.6,-0.4 -4.7,1.8 -4.8,4.8M1327.6,1322.3c0,2.2 2.2,4.3 4.8,4.8 2.6,-0.5 4.7,-2.6 4.3,-4.8M1336.6,1322.3c0.4,-3 -1.7,-5.1 -4.3,-4.8 -2.6,-0.4 -4.7,1.7 -4.8,4.8M1327.6,1191.3c0.2,2.2 2.3,4.3 4.8,4.3 2.8,0 4.9,-2.1 4.8,-4.3M1337.1,1191.3c0.1,-3.1 -2,-5.2 -4.8,-4.8 -2.4,-0.4 -4.5,1.7 -4.8,4.8M1327.6,1060.2c0.4,2.2 2.5,4.3 4.8,4.8 3,-0.5 5.1,-2.6 4.8,-4.8M1337.1,1060.2c0.3,-3 -1.8,-5.1 -4.8,-4.8 -2.3,-0.4 -4.4,1.7 -4.8,4.8M540.4,1100.3v32.9M573.2,1100.3h-32.8M573.2,1133.2v-32.9M540.4,1133.2h32.8M540.4,1249v32.8M573.2,1249h-32.8M573.2,1281.8V1249M540.4,1281.8h32.8M734.3,1100.3v32.9M767.7,1100.3h-33.4M767.7,1133.2v-32.9M734.3,1133.2h33.4M734.3,1249v32.8M767.7,1249h-33.4M767.7,1281.8V1249M734.3,1281.8h33.4M1628.7,1100.3v32.9M1661.6,1100.3h-32.9M1661.6,1133.2v-32.9M1628.7,1133.2h32.9M1628.7,1249v32.8M1661.6,1249h-32.9M1661.6,1281.8V1249M1628.7,1281.8h32.9M1823.6,1100.3v32.9M1857,1100.3h-33.4M1857,1133.2v-32.9M1823.6,1133.2h33.4M1259.4,729.1v33.3M1292.3,729.1h-32.9M1292.3,762.4v-33.3M1259.4,762.4h32.9M1259.4,535.6v32.9M1292.3,535.6h-32.9M1292.3,568.5v-32.9M1259.4,568.5h32.9M1110.3,729.1v33.3M1143.6,729.1h-33.3M1143.6,762.4v-33.3M1110.3,762.4h33.3M1110.3,535.6v32.9M1143.6,535.6h-33.3M1143.6,568.5v-32.9M1110.3,568.5h33.3M1823.6,1249v32.8M1857,1249h-33.4M1857,1281.8V1249M1823.6,1281.8h33.4M1106,1626.4v33.3M1138.9,1626.4H1106M1138.9,1659.7v-33.3M1106,1659.7h32.9M1106,1813.6v32.9M1138.9,1813.6H1106M1138.9,1846.5v-32.9M1106,1846.5h32.9M1264.2,1626.8v32.9M1297.1,1626.8h-32.9M1297.1,1659.7v-32.9M1264.2,1659.7h32.9M1264.2,1813.1v33.4M1297.1,1813.1h-32.9M1297.1,1846.5v-33.4M1264.2,1846.5h32.9M1070.3,1064.5v25.3M1070.3,1093.6v29.1M1070.3,1126.5v29.1M1070.3,1158.9v27.6M1070.3,1196.1v22.8M1070.3,1222.7v32.9M1070.3,1259.4v32M1070.3,1295.2v21.9M1070.7,1064.5h129.6M1202.7,1064.5h128.7M1326.1,1059.8h-33.3M1289,1059.8h-34.8M1250.4,1059.8H1227M1223.2,1059.8h-17.1M1196.5,1059.8h-17.1M1175.6,1059.8H1147M1143.2,1059.8h-32.9M1106.5,1059.8H1075M1083.6,1064.5v4.3M1098.4,1064.5v7.2M1112.7,1064.5v10M1127.4,1064.5v12.9M1142.2,1064.5v15.8M1157,1064.5v19.1M1171.3,1064.5v22M1186.1,1064.5v24.8M1200.8,1064.5v27.7M1215.1,1064.5v30.5M1229.9,1064.5v33.4M1244.7,1064.5v36.3M1259.4,1064.5v39.6M1273.7,1064.5v42.4M1288.5,1064.5v45.3M1303.3,1064.5v48.2M1318,1064.5v51M1332.3,1265.6h-262M1084.1,1265.6v52M1098.4,1265.6v52M1113.1,1265.6v52M1127.9,1265.6v52M1326.6,1292.8h-254.4" fill-opacity="0" stroke-linejoin="round" stroke-linecap="round" stroke="#023470" stroke-width="3" id="path_103"/><path fill="#000000" d="M1332.3,1317.6h-248.2l-13.4,-0.5M1075,1322.3h25.8M1104.6,1322.3h26.7M1135.1,1322.3h27.6M1166.5,1322.3h30M1206.1,1322.3h30.9M1240.8,1322.3h29.1M1273.7,1322.3h28.6M1306.1,1322.3h21.5M1142.7,1265.6v52M1157,1265.6v52M1171.8,1265.6v52M1186.5,1265.6v52M1201.3,1265.6v52M1215.6,1265.6v52M1230.4,1265.6v52M1332.3,1118.4l-14.3,-2.9 -44.3,-8.6 -14.3,-2.8 -14.7,-3.3 -29.6,-5.8 -14.3,-2.8 -29.5,-5.7 -14.3,-2.9 -14.8,-3.3 -29.5,-5.8 -14.3,-2.8 -14.8,-2.9 -13.3,-2.8h-1.5M1070.3,1066h0M1245.1,1265.6v52M1259.4,1265.6v52M1332.3,1065v28.1M1332.3,1096.9v28.2M1332.3,1128.9v28.1M1332.3,1160.8v25.7M1332.3,1195.6v23.3M1332.3,1222.7v29.1M1332.3,1255.6v32.4M1332.3,1291.8v25.8M1326.6,1292.8l-8.6,-2.4 -12.3,-3.8M1326.6,1292.8l-8.6,2.4 -12.3,3.3M1274.2,1265.6v52M1289,1265.6v52M1303.8,1265.6v52M1318,1265.6v52M356.9,1400h21.5M416,1400h25.7M479.4,1400h26.2M543.2,1400h31M607.1,1400h26.2M670.9,1400h25.8M734.3,1400h26.2M798.2,1400h26.2M862,1400h26.2M925.9,1400h28.6M992.6,1400h169.6M1162.2,1437.7h-23.3M1106,1437.7H992.6M954.5,1437.7h-28.6M888.2,1437.7H862M824.4,1437.7h-26.2M760.5,1437.7h-26.2M696.7,1437.7h-25.8M633.3,1437.7h-26.2M574.2,1437.7h-31M505.6,1437.7h-26.2M441.7,1437.7H416M378.4,1437.7h-28.2M378.4,1414.8V1400M378.4,1437.7v-22.9M416,1414.8v7.1M416,1400v14.8M416,1421.9v15.8M441.7,1414.8V1400M441.7,1437.7v-22.9M479.4,1400v37.7M505.6,1437.7V1400M543.2,1414.8v7.1M543.2,1400v14.8M543.2,1421.9v15.8M574.2,1437.7V1400M607.1,1414.8v7.1M607.1,1400v14.8M607.1,1421.9v15.8M633.3,1437.7V1400M670.9,1400v37.7M696.7,1414.8V1400M696.7,1437.7v-22.9M734.3,1414.8v7.1M734.3,1400v14.8M734.3,1421.9v15.8M760.5,1437.7V1400M798.2,1400v37.7M824.4,1414.8V1400M824.4,1437.7v-22.9M862,1414.8v7.1M862,1400v14.8M862,1421.9v15.8M888.2,1414.8V1400M888.2,1437.7v-22.9M925.9,1414.8v7.1M925.9,1400v14.8M925.9,1421.9v15.8M1162.2,1406.2v-6.2M1162.2,1406.2v31.5M954.5,2042.4v-26.3M954.5,1978.5v-26.2M954.5,1914.6v-25.2M954.5,1851.3v-26.2M954.5,1786.9v-25.7M954.5,1723.6v-25.8M954.5,1656.8v-25.7M954.5,1588.7V1562M954.5,1524.4v-25.8M954.5,1461v-23.3M954.5,1400v-28.6M954.5,1314.7v-32.9M954.5,1249v-19.1h38.1M954.5,1314.7h38.1M992.6,1371.4h-38.1M954.5,1461h38.1M992.6,1498.6h-38.1M954.5,1524.4h38.1M969.2,1562h-14.7M992.6,1562h-23.4M954.5,1588.7h38.1M992.6,1631.1h-38.1M954.5,1656.8h38.1M992.6,1697.8h-38.1M954.5,1723.6h38.1M969.2,1761.2h-14.7M992.6,1761.2h-23.4M954.5,1786.9h38.1M969.2,1825.1h-14.7M992.6,1825.1h-23.4M954.5,1851.3h38.1M992.6,1889.4h-38.1M954.5,1914.6h38.1M969.2,1952.3h-14.7M992.6,1952.3h-23.4M954.5,1978.5h38.1M969.2,2016.1h-14.7M992.6,2016.1h-23.4M992.6,1584.4v-4.7M992.6,1229.9v84.8M992.6,1371.4v28.6M992.6,1437.7v23.3M992.6,1498.6v25.8M992.6,1562v17.7M992.6,1584.4v4.3M992.6,1631.1v25.7M992.6,1697.8v25.8M992.6,1761.2v25.7M992.6,1825.1v26.2M992.6,1889.4v25.2M992.6,1952.3v26.2M992.6,2016.1v19.1M1240.4,1400v6.2M2052.8,1437.7h-27.1M1988,1437.7h-26.7M1923.7,1437.7h-26.2M1859.8,1437.7h-25.7M1788.8,1437.7h-25.7M1725.5,1437.7h-25.3M1662.1,1437.7h-29.6M1594.9,1437.7h-26.7M1530.1,1437.7h-25.7M1466.7,1437.7h-18.6M1410.5,1437.7h-113.4M1264.2,1437.7h-23.8M1240.4,1400h170.1M1448.1,1400h18.6M1504.4,1400h25.7M1568.2,1400h26.7M1632.5,1400h29.6M1700.2,1400h25.3M1763.1,1400h25.7M1834.1,1400h25.7M1897.5,1400h26.2M1961.3,1400h26.7M2025.7,1400h20M1466.7,1437.7V1400M1504.4,1421.9v15.8M1504.4,1400v21.9M1530.1,1437.7v-15.8M1530.1,1414.8V1400M1530.1,1421.9v-7.1M1568.2,1414.8v7.1M1568.2,1400v14.8M1568.2,1421.9v15.8M1594.9,1437.7V1400M1632.5,1400v37.7M1662.1,1437.7V1400M1700.2,1414.8v22.9M1700.2,1400v14.8M1725.5,1437.7V1400M1763.1,1414.8v22.9M1763.1,1400v14.8M1788.8,1414.8V1400M1788.8,1437.7v-22.9M1834.1,1421.9v15.8M1834.1,1414.8v7.1M1834.1,1400v14.8M1859.8,1437.7V1400M1897.5,1414.8v22.9M1897.5,1400v14.8M1923.7,1414.8V1400M1923.7,1437.7v-22.9M1961.3,1421.9v15.8M1961.3,1400v21.9M1988,1414.8V1400M1988,1437.7v-22.9M2025.7,1421.9v15.8M2025.7,1414.8v7.1M2025.7,1400v14.8M935.9,1249v4.7M935.9,1249h18.6M954.5,1281.8h-18.6M935.9,1133.2v-32.9M954.5,1133.2h-18.6M935.9,1100.3h18.6M954.5,1151.3v-18.1M954.5,1100.3V982.1M954.5,944v-18.6M954.5,887.8v-26.3M954.5,823.9v-26.2M954.5,760v-25.7M954.5,696.7v-26.2M954.5,632.3v-25.2M954.5,569.4v-34.3M954.5,497.5v-25.7M954.5,434.1v-26.2M954.5,370.3v-30.5M992.6,861.5h-38.1M969.2,734.3h-14.7M954.5,823.9h38.1M992.6,925.4h-38.1M992.6,607.1h-38.1M954.5,632.3h38.1M954.5,569.4h38.1M954.5,497.5h38.1M992.6,535.1h-38.1M992.6,797.7h-38.1M954.5,760h38.1M954.5,696.7h38.1M992.6,670.5h-38.1M992.6,734.3h-23.4M954.5,887.8h38.1M970.2,471.8h-15.7M970.2,407.9h-15.7M954.5,370.3h15.7M954.5,434.1h15.7M970.2,370.3h22.4M992.6,471.8h-22.4M970.2,434.1h22.4M992.6,407.9h-22.4M992.6,751v-5.7M992.6,1133.2v18.1M992.6,346.9v23.4M992.6,407.9v26.2M992.6,471.8v25.7M992.6,535.1v34.3M992.6,607.1v25.2M992.6,670.5v26.2M992.6,734.3v11M992.6,751v9M992.6,797.7v26.2M992.6,861.5v26.3M992.6,925.4V944M992.6,982.1v151.1M954.5,1151.3v-18.1M992.6,1152.2h-38.1v-0.9M992.6,1133.2v19M465.1,1188.9h97.2M562.3,1193.7h-97.2M572.8,1100.3V982.1M577.5,982.1v146.3M648.5,1133.2h-75.3M577.5,1128.4h95.8M716.7,1128.4h2.8M724.3,1128.4h10M767.7,1128.4h69.5M842,1133.2h-74.3M734.3,1133.2h-17.6M673.3,1133.2h-20M673.3,1133.2v-4.8M716.7,1128.4v4.8M648.5,1249v-36.3M648.5,1169.4v-36.2M648.5,1169.4h4.8M653.3,1212.7h-4.8M653.3,1133.2v36.2M653.3,1212.7v36.3M573.2,1249h75.3M653.3,1249h15.3M711.9,1249h22.4M767.7,1249h62.4M873.5,1249h62.4M935.9,1253.7h-62.4M830.1,1253.7h-62.4M734.3,1253.7h-22.4M668.6,1253.7h-95.4M668.6,1253.7v-4.7M711.9,1249v4.7M830.1,1253.7v-4.7M873.5,1249v4.7M568.5,1400v-118.2M573.2,1281.8V1400M562.3,1188.9v-6.2M562.3,1139.4v-6.2M562.3,1139.4h4.8M567.1,1182.7h-4.8M567.1,1133.2v6.2M567.1,1182.7v11M562.3,1199.4h4.8M567.1,1242.8h-4.8M562.3,1199.4v-5.7M567.1,1193.7v5.7M567.1,1242.8v6.2M837.2,1128.4v-16.7M837.2,1064.5v-82.4M842,1111.7h-4.8M837.2,1064.5h4.8M842,1111.7v21.5M734.3,1400v-118.2M739.1,1281.8V1400M719.5,1128.4v-114.8M724.3,1012.6v115.8M376,1128.4h22.8M442.2,1128.4h22.9M460.3,1133.2h-18.1M398.8,1133.2H376M398.8,1133.2v-4.8M442.2,1128.4v4.8M460.3,1249v-115.8M465.1,1128.4v60.5M465.1,1193.7v60M376,1249h20.9M440.3,1249h20M465.1,1253.7h-24.8M396.9,1253.7H376M396.9,1253.7v-4.7M440.3,1249v4.7M319.3,1420v-20M356.9,1228.9h-37.6M319.3,1153.6h37.6M319.3,1400v-57.7M319.3,1258.5v-29.6M319.3,1153.6v-30M319.3,1039.8v-57.7M356.9,982.1v118.2M356.9,1133.2v20.4M356.9,1228.9v20.1M356.9,1281.8V1400M356.9,1100.3H376M376,1133.2h-19.1M376,1133.2v-4.8M356.9,1249H376M376,1281.8h-19.1M376,1253.7v-4.7M376,1253.7v28.1M319.3,1479.6V1400M350.2,1479.6h-30.9M350.2,1437.7v41.9M319.3,1123.6h-25.8v-7.1M293.5,1084.6v-44.8h25.8M293.5,1297.6h-43.8v-32h43.8M249.7,1084.6h43.8M249.7,1116.5v-31.9M293.5,1116.5h-43.8M319.3,1342.3h-25.8v-44.7M293.5,1265.6v-7.1h25.8M1234.7,975.9v6.2M1234.7,975.9V944M1410.5,982.1h-175.8M1234.7,944h24.7M1292.3,944h118.2M1168.4,982.1H992.6M954.5,982.1h-10M913,982.1h-25.2M850.1,982.1h-31.4M781,982.1h-26.2M716.7,982.1h-36.2M642.8,982.1h-26.2M579,982.1h-26.2M515.1,982.1h-25.7M451.3,982.1h-25.8M387.4,982.1h-30.5M350.2,944h37.2M425.5,944h25.8M489.4,944h25.7M552.8,944H579M616.6,944h26.2M680.5,944h36.2M754.8,944H781M818.7,944h31.4M887.8,944H913M944.5,944h10M992.6,944h117.7M1143.6,944h24.8M387.4,960.2V944M387.4,982.1v-21.9M425.5,944v16.2M425.5,967.3v14.8M425.5,960.2v7.1M451.3,960.2V944M451.3,982.1v-21.9M489.4,944v16.2M489.4,967.3v14.8M489.4,960.2v7.1M515.1,960.2V944M515.1,982.1v-21.9M552.8,944v16.2M552.8,967.3v14.8M552.8,960.2v7.1M579,960.2V944M579,982.1v-21.9M616.6,944v38.1M642.8,960.2V944M642.8,982.1v-21.9M680.5,944v38.1M716.7,960.2V944M716.7,982.1v-21.9M754.8,944v38.1M781,960.2V944M781,982.1v-21.9M818.7,944v38.1M850.1,960.2V944M850.1,982.1v-21.9M887.8,944v38.1M913,960.2V944M913,982.1v-21.9M944.5,944v38.1M1168.4,982.1v-6.2M719.5,1013.6l-16.6,-31.5M708.1,982.1l16.2,30.5M1234.7,975.9v6.2M319.3,982.1v-79.6h30.9V944M1410.5,1229.9h37.6M1410.5,2035.2v-23.3M1410.5,1974.2v-26.7M1410.5,1909.9v-25.8M1410.5,1846v-26.2M1410.5,1787.4v-25.2M1410.5,1724v-26.2M1410.5,1659.7v-33.3M1410.5,1588.7v-25.2M1410.5,1525.8v-26.7M1410.5,1461.5v-23.8M1410.5,1400v-170.1M1425.3,1819.8h-14.8M1410.5,1787.4h14.8M1425.3,1762.2h-14.8M1410.5,1724h14.8M1448.1,1697.8h-37.6M1425.3,1724h22.8M1448.1,1762.2h-22.8M1448.1,1819.8h-22.8M1410.5,1659.7h37.6M1448.1,1626.4h-37.6M1410.5,1974.2h37.6M1425.3,1884.1h-14.8M1410.5,1909.9h37.6M1448.1,2011.9h-37.6M1448.1,1947.5h-37.6M1410.5,1525.8h37.6M1448.1,1499.1h-37.6M1410.5,1588.7h37.6M1448.1,1563.5h-37.6M1448.1,1884.1h-22.8M1410.5,1846h37.6M1410.5,1461.5h37.6M1425.3,1787.4h22.8M1448.1,1229.9v19.1M1448.1,1281.8V1400M1448.1,1437.7v23.8M1448.1,1499.1v26.7M1448.1,1563.5v25.2M1448.1,1626.4v33.3M1448.1,1697.8v26.2M1448.1,1762.2v25.2M1448.1,1819.8v26.2M1448.1,1884.1v25.8M1448.1,1947.5v26.7M1448.1,2011.9v30.5M1410.5,1152.2V982.1M1448.1,1152.2h-37.6M1448.1,982.1v118.2M1448.1,1133.2v19M1661.6,1128.4h30M1735,1128.4h29.5M1769.3,1128.4h54.3M1823.6,1133.2H1735M1691.6,1133.2h-30M1691.6,1133.2v-4.8M1735,1128.4v4.8M1627.3,1169.4h4.8M1627.3,1249v-36.3M1627.3,1169.4v-36.2M1632.1,1212.7h-4.8M1632.1,1133.2v36.2M1632.1,1212.7v36.3M1467.2,1128.4h78.1M1588.7,1128.4h40M1627.3,1133.2h-38.6M1545.3,1133.2h-78.1M1545.3,1133.2v-4.8M1588.7,1128.4v4.8M1656.8,1400v-118.2M1661.6,1281.8V1400M1467.2,1133.2h-19.1M1448.1,1100.3h19.1v32.9M1467.2,1281.8h-19.1M1448.1,1249h19.1M1467.2,1253.7v28.1M1661.6,1249h162M1823.6,1253.7h-162M1467.2,1249h10M1520.6,1249h106.7M1628.7,1253.7h-108.1M1477.2,1253.7h-10M1477.2,1253.7v-4.7M1520.6,1249v4.7M1656.8,1100.3V982.1M1661.6,982.1v118.2M1448.1,944h18.6M1504.4,944h26.6M1568.7,944h25.2M1632.1,944h29.5M1699.3,944h26.6M1763.6,944h26.7M1834.6,944h25.2M1898,944h25.7M1961.3,944h26.3M2025.2,944h27.6M2045.7,982.1h-20.5M1987.6,982.1h-26.3M1923.7,982.1H1898M1859.8,982.1h-25.2M1790.3,982.1h-26.7M1725.9,982.1h-26.6M1661.6,982.1h-29.5M1593.9,982.1h-25.2M1531,982.1h-26.6M1466.7,982.1h-18.6M1466.7,958.8V944M1466.7,982.1v-23.3M1504.4,944v38.1M1531,958.8V944M1531,982.1v-23.3M1568.7,958.8v23.3M1568.7,944v14.8M1593.9,958.8V944M1593.9,982.1v-23.3M1632.1,944v38.1M1661.6,982.1V944M1699.3,966.4v15.7M1699.3,958.8v7.6M1699.3,944v14.8M1725.9,958.8V944M1725.9,982.1v-23.3M1763.6,958.8v7.6M1763.6,944v14.8M1763.6,966.4v15.7M1790.3,982.1V944M1834.6,944v38.1M1859.8,958.8V944M1859.8,982.1v-23.3M1898,944v38.1M1923.7,958.8V944M1923.7,982.1v-23.3M1961.3,944v38.1M1987.6,982.1V944M2025.2,958.8v23.3M2025.2,944v14.8M1764.5,1128.4V982.1M1769.3,982.1v146.3M1410.5,346.9h-118.2M1259.4,346.9h-20M1163.7,346.9h-20.1M1110.3,346.9H992.6M992.6,308.8h57.6M1134.1,308.8h29.6M1239.4,308.8h29.1M1352.8,308.8h57.7M1163.7,346.9v-14.8M1163.7,324.5v-15.7M1163.7,332.1v-7.6M1239.4,332.1v14.8M1239.4,324.5v7.6M1239.4,308.8v15.7M1410.5,745.3v5.7M1448.1,408.4h-37.6M1448.1,863.9h-37.6M1448.1,799.1h-37.6M1448.1,926.8h-37.6M1410.5,889.2v-25.3M1410.5,825.8v-26.7M1410.5,761.5V751M1410.5,745.3V730M1410.5,691.9v-26.7M1410.5,627.6v-25.3M1410.5,564.2v-28.6M1410.5,497.5v-25.7M1410.5,434.1v-25.7M1410.5,370.3v-23.4M1448.1,602.3h-37.6M1448.1,730h-37.6M1448.1,665.2h-37.6M1448.1,471.8h-37.6M1448.1,535.6h-37.6M1410.5,434.1h37.6M1410.5,370.3h37.6M1410.5,627.6h37.6M1410.5,564.2h37.6M1410.5,691.9h37.6M1410.5,497.5h37.6M1410.5,889.2h37.6M1410.5,761.5h37.6M1410.5,825.8h37.6M1448.1,339.8v30.5M1448.1,408.4v25.7M1448.1,471.8v25.7M1448.1,535.6v28.6M1448.1,602.3v25.3M1448.1,665.2v26.7M1448.1,730v31.5M1448.1,799.1v26.7M1448.1,863.9v25.3M1448.1,926.8V944M1259.4,925.4h32.9M1259.4,944v-18.6M1292.3,925.4V944M1292.3,745.3h37.2M1373.3,745.3h37.2M1410.5,751h-37.2M1329.5,751h-37.2M1329.5,751v-5.7M1373.3,745.3v5.7M1261.3,925.4v-163M1266.1,762.4v163M1259.4,365.5v-18.6M1292.3,365.5h-32.9M1292.3,346.9v18.6M1110.3,944v-18.6h33.3V944M1137,925.4v-163M1141.7,762.4v163M992.6,745.3h37.2M1073.1,745.3h37.2M1110.3,751h-37.2M1029.8,751h-37.2M1029.8,751v-5.7M1073.1,745.3v5.7M1110.3,365.5v-18.6M1143.6,365.5h-33.3M1143.6,346.9v18.6M913,308.8h79.6M954.5,339.8H913v-31M2045.7,1400v-118.2M2045.7,1249v-20.5M2045.7,1153.2v-20M2045.7,1100.3V982.1M2083.3,1228.5h-37.6M2045.7,1153.2h37.6M2083.3,944v95.8M2083.3,1123.6v29.6M2083.3,1228.5v30M2083.3,1342.3v57.7M2083.3,1479.6h-30.5v-41.9M2083.3,1400v79.6M2045.7,1133.2h-19.1v-32.9h19.1M2026.6,1249h19.1M2026.6,1281.8V1249M2045.7,1281.8h-19.1M2152.9,1297.6h-43.4M2109.5,1265.6h43.4v32M2109.5,1342.3h-26.2M2083.3,1258.5h26.2v7.1M2109.5,1297.6v44.7M2109.5,1084.6h43.4M2152.9,1116.5h-43.4M2152.9,1084.6v31.9M2083.3,1039.8h26.2M2109.5,1123.6h-26.2M2109.5,1039.8v44.8M2109.5,1116.5v7.1M2052.8,944v-41.5h30.5M2083.3,944v29.5M2083.3,902.5V944M1275.6,239.7h32.4M1275.6,283.1v-43.4M1308,239.7v43.4M1410.5,308.8h79.1M1489.6,339.8h-41.5M1489.6,308.8v31M1050.2,283.1h44.8M1127,283.1h7.1M1050.2,308.8v-25.7M1134.1,283.1v25.7M1095,239.7h32M1095,283.1v-43.4M1127,239.7v43.4M1268.5,308.8v-25.7h7.1M1308,283.1h44.8v25.7M1086.9,1528.7v51M1039.8,1528.7v51M1034.5,1528.7h10.5M1081.2,1528.7h10.5M1138.9,1584.4H992.6M992.6,1579.7h141.5M1106,1456.7v-19M1138.9,1456.7H1106M1138.9,1437.7v19M1134.1,1579.7v-74.9M1134.1,1461v-4.3M1138.9,1504.8h-4.8M1134.1,1461h4.8M1138.9,1504.8v18.6M1138.9,1528.2v56.2M1264.2,1528.2h-41M1179.9,1528.2h-41M1138.9,1523.4h41M1223.2,1523.4h41M1179.9,1528.2v-4.8M1223.2,1523.4v4.8M1264.2,1456.7h4.3M1264.2,1456.7v-19M1297.1,1456.7h-28.6M1297.1,1437.7v19M1264.2,1523.4v-13.8M1264.2,1465.8v-9.1M1264.2,1465.8h4.3M1268.5,1509.6h-4.3M1268.5,1456.7v9.1M1268.5,1509.6v13.8M1264.2,2016.6v-170.1M1264.2,1813.1v-54.8M1264.2,1715v-55.3M1264.2,1626.8v-98.6M1264.2,1715h4.3M1268.5,1758.3h-4.3M1268.5,1523.4v103.4M1268.5,1659.7v55.3M1268.5,1758.3v54.8M1268.5,1846.5v170.1M1106,2016.6h32.9M1106,2035.2v-18.6M1138.9,2016.6v18.6M995.9,2073.3h-41.4M1410.5,2073.3h-57.7M1268.5,2073.3h-29.6M1163.2,2073.3h-29.1M1050.2,2073.3h-54.3M992.6,2035.2H1106M1138.9,2035.2h24.3M1238.9,2035.2h25.3M1297.1,2035.2h113.4M1163.2,2073.3v-38.1M1238.9,2035.2v38.1M913,2042.4h41.5M995.9,2073.3H913v-30.9M1050.2,2099.1v-25.8M1134.1,2099.1h-7.1M1095,2099.1h-44.8M1134.1,2073.3v25.8M1264.2,2035.2v-18.6M1268.5,2016.6h28.6v18.6M1410.5,1659.7h-113.4M1297.1,1654.9h113.4M1489.6,2073.3h-79.1M1448.1,2042.4h41.5v30.9M1308,2142.4h-32.4v-43.3M1308,2099.1v43.3M1352.8,2099.1H1308M1275.6,2099.1h-7.1v-25.8M1352.8,2073.3v25.8M1095,2142.4v-43.3M1127,2142.4h-32M1127,2099.1v43.3" fill-opacity="0" stroke-linejoin="round" stroke-linecap="round" stroke="#023470" stroke-width="3" id="path_104"/><path fill="#000000" d="M912.8,309h136.7v-25.8h44.8v-43.8h32.4v43.8h7.2V309h134.4v-25.8h7.1v-43.8h31.9v43.8h45.3l0.6,25.8h136.2v30.9h-41.5v604.3h604.7v-41.5h30.5v137.2h25.7v44.8h43.9v32h-43.9v7.1h-25.7v134.4h25.7v7.1h43.9v32.4h-43.9v44.8h-25.7v136.8h-30.5v-41.5h-604.7v605.5l41.5,-0.8v30.5h-136.8v26.2h-45.3v43.4h-31.9v-43.4h-7.1V2073h-134.4v26.2h-7.2v43.4h-32.4v-43.4h-44.8V2073H912.8v-30.5h41.4v-604.7H349.5v41.5H319v-136.8h-26.2v-44.8h-43.3v-32.4h43.3v-7.1H319v-134.4h-26.2v-7.1h-43.3v-32h43.3v-44.8H319V902.7h30.5v41.5h604.7V339.9h-41.4z" fill-opacity="0" stroke-linejoin="round" stroke-linecap="round" stroke="#023470" stroke-width="30" id="path_105"/></svg>