<svg id="vector" xmlns="http://www.w3.org/2000/svg" width="6519" height="4020" viewBox="0 0 6519 4020"><path fill="#000000" d="M3497.9,1869.2h-112.5M3356.6,1868.3h-160.8M3167,1868.3h-114.3M3385.4,1868.3v-194.2M3356.6,1868.3l0.9,-194.2M3195.8,1868.3v-194.2M3167,1869.2v-195.1M3497.9,1855.3h-102.3M3497.9,1841.4H3404M3497.9,1827.4h-86.5M3497.9,1814.4h-78.1M3497.9,1800.5h-70.7M3497.9,1786.6h-62.3M3497.9,1772.6H3443M3497.9,1759.6h-46.5M3497.9,1745.7h-39.1M3497.9,1731.7h-30.7M3493.2,1676.9h-107.8M3356.6,1854.4h-160.8M3356.6,1840.4h-160.8M3356.6,1827.4h-160.8M3356.6,1813.5h-160.8M3356.6,1799.6h-160.8M3356.6,1786.6h-160.8M3356.6,1772.6h-160.8M3356.6,1758.7h-160.8M3356.6,1744.8h-160.8M3356.6,1731.7h-160.8M3356.6,1717.8h-160.8M3356.6,1703.9h-160.8M3356.6,1689.9h-160.8M3356.6,1676.9h-160.8M3167,1855.3h-5.5M3167,1841.4h-13M3167,1827.4h-21.3M3167,1813.5h-28.8M3167,1800.5h-37.1M3167,1786.6h-45.5M3167,1772.6h-52.9M3167,1758.7h-61.3M3167,1745.7h-69.7M3167,1731.7h-77.1M3167,1717.8h-85.5M3167,1703.9h-93.8M3167,1690.9h-101.3M3167,1676.9h-109.6M3164.2,1868.3l-111.5,-189.5M3167,1863.7l-111.5,-189.6M3076,1717.8h-23.3M3084.3,1731.7h-31.6M3091.8,1745.7h-39.1M3100.1,1758.7h-47.4M3108.5,1772.6h-55.8M3115.9,1786.6h-63.2M3124.3,1800.5h-71.6M3132.7,1813.5h-80M3140.1,1827.4h-87.4M3148.4,1841.4h-95.7M3156.8,1855.3h-104.1M3497.9,1678.8l-109.7,190.4M3493.2,1676.9l-107.8,186.8M3391,1855.3h-5.6M3398.4,1841.4h-13M3406.8,1827.4h-21.4M3414.2,1814.4h-28.8M3421.7,1800.5h-36.3M3430,1786.6h-44.6M3437.5,1772.6h-52.1M3445.8,1759.6h-60.4M3453.3,1745.7h-67.9M3461.6,1731.7h-76.2M3469.1,1717.8h-83.7M3477.4,1704.8h-92M3484.9,1690.9h-99.5M3385.4,1897.1v-28.8M3356.6,1897.1h28.8M3356.6,1868.3v28.8M3385.4,1868.3h-28.8M3386.3,1674.1v-28.8M3357.5,1674.1h28.8M3357.5,1645.3v28.8M3386.3,1645.3h-28.8M3195.8,1897.1v-28.8M3167,1897.1h28.8M3167,1868.3v28.8M3195.8,1868.3H3167M3195.8,1674.1v-28.8M3167,1674.1h28.8M3167,1645.3v28.8M3195.8,1645.3H3167M5798.8,1661.1h-187.7M5798.8,1645.3h-92M5798.8,1629.6h-92M5798.8,1612.8h-92M5798.8,1597h-92M5798.8,1581.2h-92M5798.8,1565.4h-92M5798.8,1548.7h-92M5798.8,1532.9h-92M5798.8,1517.1h-92M5798.8,1500.4h-92M5798.8,1484.6h-92M5798.8,1468.8h-187.7M5706.8,1468.8v192.3M5702.2,1661.1v-192.3M5702.2,1484.6h-91.1M5702.2,1500.4h-91.1M5702.2,1517.1h-91.1M5702.2,1532.9h-91.1M5702.2,1548.7h-91.1M5702.2,1565.4h-91.1M5702.2,1581.2h-91.1M5702.2,1597h-91.1M5702.2,1612.8h-91.1M5702.2,1629.6h-91.1M5702.2,1645.3h-91.1M928.4,1655.6H749M938.6,1638.8h-91.1M938.6,1623.1h-91.1M938.6,1607.3h-91.1M938.6,1591.5h-91.1M938.6,1574.7h-91.1M938.6,1558.9h-91.1M938.6,1543.2h-91.1M938.6,1526.4h-91.1M938.6,1510.6h-91.1M938.6,1494.8h-91.1M938.6,1479H749M847.5,1479v176.6M840.1,1479v176.6M840.1,1638.8H749M840.1,1623.1H749M840.1,1607.3H749M840.1,1591.5H749M840.1,1574.7H749M840.1,1558.9H749M840.1,1543.2H749M840.1,1526.4H749M840.1,1510.6H749M840.1,1494.8H749M5840.6,1010.8l-114.3,-49.2M5847.1,995.9l-115.2,-50.1M5853.6,980.1l-115.2,-49.2M5860.1,965.3l-115.2,-50.2M5866.6,950.4l-115.2,-50.2M5873.1,935.6l-115.2,-50.2M5880.6,919.8l-116.2,-50.2M5887.1,904.9l-116.2,-50.2M3491.4,2218.6h-96.7v-141.2M3491.4,2218.6v-141.2M3491.4,2210.2h-96.7M3491.4,2200.9h-96.7M3491.4,2192.6h-96.7M3491.4,2184.2h-96.7M3491.4,2175.8h-96.7M3155.9,2218.6v-141.2M3155.9,2218.6h-96.7v-141.2M3155.9,2210.2h-96.7M3155.9,2200.9h-96.7M3155.9,2192.6h-96.7M3155.9,2184.2h-96.7M3155.9,2175.8h-96.7M3325.9,2077.4v23.2h-112.4v-23.2" fill-opacity="0" stroke-linejoin="round" stroke-linecap="round" stroke="#023470" stroke-width="6.5" id="path_0"/><path fill="#000000" d="M3330.6,2077.4v27.8h-122.7v-25.1M3518.3,3203.4v-58.6M3028.6,3203.4v-52.1M3518.3,3144.8c-149.8,-93.2 -340.8,-90.7 -489.7,6.5" fill-opacity="0" stroke-linejoin="round" stroke-linecap="round" stroke="#023470" stroke-width="6.5" id="path_1"/><path fill="#000000" d="M3297.1,3077v-36.2h-47.4v37.1M3297.1,3050.1h-47.4M3297.1,3059.4h-47.4M3297.1,3067.7h-47.4M3518.3,3274H3431v-38.1h87.3M3501.6,3274v-38.1M3489.5,3274v-38.1M3478.3,3274v-38.1M3466.3,3274v-38.1M3454.2,3274v-38.1M3443,3274v-38.1M3063.9,3317.6l0.9,119h-36.2M3064.8,3422.6h-36.2M3064.8,3408.7h-36.2M3064.8,3394.7h-36.2M3233.9,3701.3v-97.5M3233.9,3605.6h-192.3M3041.6,3701.3v-189.5M3041.6,3614.9H2892M3041.6,3599.1H2892M3041.6,3583.3H2892M3057.4,3701.3v-97.5M3074.1,3701.3v-97.5M3089.9,3701.3v-97.5M3105.7,3701.3v-97.5M3121.5,3701.3v-97.5M3138.2,3701.3v-97.5M3154,3701.3v-97.5M3169.8,3701.3v-97.5M3186.6,3701.3v-97.5M3202.3,3701.3v-97.5M3218.1,3701.3v-96.6M3218.1,3558.3v-45.6M3202.3,3558.3v-45.6M3233.9,3603.8v-92M3186.6,3558.3v-45.6M3169.8,3558.3v-46.5M3154,3558.3v-46.5M3138.2,3558.3v-46.5M3121.5,3558.3v-46.5M3105.7,3558.3v-46.5M3089.9,3558.3v-46.5M3074.1,3558.3v-46.5M3057.4,3558.3v-46.5M3235.8,3557.3c0.4,-0.1 -0.2,0.5 -1.9,0.9 0.1,-0.4 -0.6,-1 -0.9,-0.9 0.3,-1.7 1,-2.3 0.9,-1.9 1.7,-0.4 2.3,0.3 1.9,1.9M3220,3557.3c0.1,-0.1 -0.5,0.5 -1.9,0.9 -0.2,-0.4 -0.8,-1 -0.9,-0.9 0.1,-1.7 0.7,-2.3 0.9,-1.9 1.4,-0.4 2,0.3 1.9,1.9M3203.3,3557.3c0.8,-0.1 0.2,0.5 -0.9,0.9 -0.5,-0.4 -1.1,-1 -1.9,-0.9 0.7,-1.7 1.4,-2.3 1.9,-1.9 1,-0.4 1.7,0.3 0.9,1.9M3187.5,3557.3c0.5,-0.1 -0.1,0.5 -0.9,0.9 -0.7,-0.4 -1.4,-1 -1.9,-0.9 0.5,-1.7 1.1,-2.3 1.9,-1.9 0.8,-0.4 1.4,0.3 0.9,1.9M3171.7,3557.3c0.3,-0.1 -0.4,0.5 -1.9,0.9 -0.1,-0.4 -0.7,-1 -0.9,-0.9 0.2,-1.7 0.8,-2.3 0.9,-1.9 1.5,-0.4 2.1,0.3 1.9,1.9M3155,3557.3c0.9,-0.1 0.3,0.5 -0.9,0.9 -0.3,-0.4 -1,-1 -1.9,-0.9 0.9,-1.7 1.5,-2.3 1.9,-1.9 1.1,-0.4 1.8,0.3 0.9,1.9M3139.2,3557.3c0.7,-0.1 0,0.5 -0.9,0.9 -0.6,-0.4 -1.2,-1 -1.9,-0.9 0.6,-1.7 1.2,-2.3 1.9,-1.9 0.9,-0.4 1.5,0.3 0.9,1.9M3123.4,3557.3c0.4,-0.1 -0.2,0.5 -1.9,0.9 0.1,-0.4 -0.6,-1 -0.9,-0.9 0.3,-1.7 1,-2.3 0.9,-1.9 1.6,-0.4 2.3,0.3 1.9,1.9M3107.6,3557.3c0.1,-0.1 -0.5,0.5 -1.9,0.9 -0.2,-0.4 -0.8,-1 -0.9,-0.9 0.1,-1.7 0.7,-2.3 0.9,-1.9 1.4,-0.4 2,0.3 1.9,1.9M3090.8,3557.3c0.8,-0.1 0.2,0.5 -0.9,0.9 -0.5,-0.4 -1.1,-1 -1.9,-0.9 0.7,-1.7 1.4,-2.3 1.9,-1.9 1.1,-0.4 1.7,0.3 0.9,1.9M3075,3557.3c0.5,-0.1 -0.1,0.5 -0.9,0.9 -0.7,-0.4 -1.4,-1 -1.9,-0.9 0.5,-1.7 1.1,-2.3 1.9,-1.9 0.8,-0.4 1.5,0.3 0.9,1.9M3059.2,3557.3c0.3,-0.1 -0.4,0.5 -1.9,0.9 -0.1,-0.4 -0.7,-1 -0.9,-0.9 0.2,-1.7 0.8,-2.3 0.9,-1.9 1.6,-0.4 2.2,0.3 1.9,1.9M3042.5,3557.3c0.9,-0.1 0.3,0.5 -0.9,0.9 -0.3,-0.4 -1,-1 -1.9,-0.9 0.9,-1.7 1.5,-2.3 1.9,-1.9 1.2,-0.4 1.8,0.3 0.9,1.9M3042.5,3573.1c0.9,0.1 0.3,0.7 -0.9,0.9 -0.3,-0.2 -1,-0.8 -1.9,-0.9 0.9,-1.5 1.5,-2.1 1.9,-1.9 1.2,-0.2 1.8,0.5 0.9,1.9M3042.5,3588.9c0.9,0.4 0.3,1 -0.9,1.9 -0.3,-0.9 -1,-1.5 -1.9,-1.9 0.9,-1.2 1.5,-1.8 1.9,-0.9 1.2,-0.9 1.8,-0.3 0.9,0.9M3042.5,3605.6c0.9,0.2 0.3,0.8 -0.9,0.9 -0.3,-0.1 -1,-0.8 -1.9,-0.9 0.9,-1.4 1.5,-2 1.9,-1.9 1.2,-0.1 1.8,0.6 0.9,1.9M3059.2,3605.6c0.3,0.3 -0.4,0.9 -1.9,0.9 -0.1,0 -0.7,-0.7 -0.9,-0.9 0.2,-1.3 0.8,-1.9 0.9,-1.9 1.6,0 2.2,0.6 1.9,1.9M3075,3605.6c0.5,0.3 -0.1,0.9 -0.9,0.9 -0.7,0 -1.4,-0.7 -1.9,-0.9 0.5,-1.3 1.1,-1.9 1.9,-1.9 0.8,0 1.5,0.6 0.9,1.9M3090.8,3605.6c0.8,0.3 0.2,0.9 -0.9,0.9 -0.5,0 -1.1,-0.7 -1.9,-0.9 0.7,-1.3 1.4,-1.9 1.9,-1.9 1.1,0 1.7,0.6 0.9,1.9M3107.6,3605.6c0.1,0.3 -0.5,0.9 -1.9,0.9 -0.2,0 -0.8,-0.7 -0.9,-0.9 0.1,-1.3 0.7,-1.9 0.9,-1.9 1.4,0 2,0.6 1.9,1.9M3123.4,3605.6c0.4,0.3 -0.2,0.9 -1.9,0.9 0.1,0 -0.6,-0.7 -0.9,-0.9 0.3,-1.3 1,-1.9 0.9,-1.9 1.6,0 2.3,0.6 1.9,1.9M3139.2,3605.6c0.7,0.3 0,0.9 -0.9,0.9 -0.6,0 -1.2,-0.7 -1.9,-0.9 0.6,-1.3 1.2,-1.9 1.9,-1.9 0.9,0 1.5,0.6 0.9,1.9M3155,3605.6c0.9,0.3 0.3,0.9 -0.9,0.9 -0.3,0 -1,-0.7 -1.9,-0.9 0.9,-1.3 1.5,-1.9 1.9,-1.9 1.1,0 1.8,0.6 0.9,1.9M3171.7,3605.6c0.3,0.3 -0.4,0.9 -1.9,0.9 -0.1,0 -0.7,-0.7 -0.9,-0.9 0.2,-1.3 0.8,-1.9 0.9,-1.9 1.5,0 2.1,0.6 1.9,1.9M3187.5,3605.6c0.5,0.3 -0.1,0.9 -0.9,0.9 -0.7,0 -1.4,-0.7 -1.9,-0.9 0.5,-1.3 1.1,-1.9 1.9,-1.9 0.8,0 1.4,0.6 0.9,1.9M3203.3,3605.6c0.8,0.3 0.2,0.9 -0.9,0.9 -0.5,0 -1.1,-0.7 -1.9,-0.9 0.7,-1.3 1.4,-1.9 1.9,-1.9 1,0 1.7,0.6 0.9,1.9M3220,3605.6c0.1,0.3 -0.5,0.9 -1.9,0.9 -0.2,0 -0.8,-0.7 -0.9,-0.9 0.1,-1.3 0.7,-1.9 0.9,-1.9 1.4,0 2,0.6 1.9,1.9M3235.8,3605.6c0.4,0.3 -0.2,0.9 -1.9,0.9 0.1,0 -0.6,-0.7 -0.9,-0.9 0.3,-1.3 1,-1.9 0.9,-1.9 1.7,0 2.3,0.6 1.9,1.9M811.3,931.8l-108.8,35.3M804.8,913.3 L696,948.6M798.3,893.7 L688.6,929M790.8,874.2l-108.7,35.3M784.3,855.7 L674.7,891M776.9,836.1l-108.7,35.3M770.4,817.6l-109.7,35.3M847.5,831.5l14.9,43.7M847.5,831.5l-35.3,12.1M835.4,835.2l15.8,43.7M824.3,839.9l14.9,42.7M3053.7,1175.2c0.2,-7.9 -6.2,-14.3 -14.9,-13.9 -7,-0.3 -13.3,6 -13.9,13.9M3024.9,1175.2c0.6,7.7 7,14.1 13.9,14.9 8.7,-0.8 15,-7.1 14.9,-14.9M3053.7,1362.9c0.2,-8.5 -6.2,-14.9 -14.9,-14.9 -7,0 -13.3,6.3 -13.9,14.9M3024.9,1362.9c0.6,7.1 7,13.4 13.9,13.9 8.7,-0.5 15,-6.8 14.9,-13.9M3053.7,1506.9c0.2,-8 -6.2,-14.4 -14.9,-13.9 -7,-0.4 -13.3,5.9 -13.9,13.9M3024.9,1506.9c0.6,7.6 7,14 13.9,14.9 8.7,-0.9 15,-7.2 14.9,-14.9M3053.7,1031.2c0.2,-8.5 -6.2,-14.8 -14.9,-13.9 -7,-0.9 -13.3,5.5 -13.9,13.9M3024.9,1031.2c0.6,7.2 7,13.5 13.9,13.9 8.7,-0.4 15,-6.7 14.9,-13.9M3528.5,1362.9c0.6,-8.6 -5.8,-14.9 -13.9,-14.9 -7.5,0 -13.8,6.3 -13.9,14.9M3500.7,1362.9c0.1,7.1 6.4,13.4 13.9,13.9 8.2,-0.5 14.5,-6.8 13.9,-13.9M3529.5,1506.9c0.6,-8 -5.7,-14.4 -13.9,-13.9 -7.4,-0.4 -13.8,5.9 -13.9,13.9M3501.6,1506.9c0.1,7.6 6.5,14 13.9,14.9 8.2,-0.9 14.6,-7.2 13.9,-14.9M3529.5,1175.2c0.6,-7.9 -5.7,-14.3 -13.9,-13.9 -7.4,-0.3 -13.8,6 -13.9,13.9M3501.6,1175.2c0.1,7.7 6.5,14.1 13.9,14.9 8.2,-0.8 14.6,-7.1 13.9,-14.9M3529.5,1031.2c0.6,-8.5 -5.7,-14.8 -13.9,-13.9 -7.4,-0.9 -13.8,5.5 -13.9,13.9M3501.6,1031.2c0.1,7.2 6.5,13.5 13.9,13.9 8.2,-0.4 14.6,-6.7 13.9,-13.9M3382.6,1031.2c0,-8.5 -6.3,-14.8 -14.9,-13.9 -7.1,-0.9 -13.4,5.5 -13.9,13.9M3353.8,1031.2c0.5,7.2 6.8,13.5 13.9,13.9 8.6,-0.4 14.9,-6.7 14.9,-13.9M3196.8,1031.2c0.2,-8.5 -6.1,-14.8 -14.9,-13.9 -6.9,-0.9 -13.3,5.5 -13.9,13.9M3168,1031.2c0.7,7.2 7,13.5 13.9,13.9 8.7,-0.4 15.1,-6.7 14.9,-13.9M3196.8,1506.9c0.2,-8 -6.1,-14.4 -14.9,-13.9 -6.9,-0.4 -13.3,5.9 -13.9,13.9M3168,1506.9c0.7,7.6 7,14 13.9,14.9 8.7,-0.9 15.1,-7.2 14.9,-14.9M3382.6,1506.9c0,-8 -6.3,-14.4 -14.9,-13.9 -7.1,-0.4 -13.4,5.9 -13.9,13.9M3353.8,1506.9c0.5,7.6 6.8,14 13.9,14.9 8.6,-0.9 14.9,-7.2 14.9,-14.9M1092.9,1070.3h-10.3M968.3,1070.3h10.2M1050.1,1070.3h32.5M1060.3,1081.4h-10.2M978.5,1081.4h-10.2M1050.1,1070.3v11.1M978.5,1081.4v-11.1M1066.8,1364.8v1.8M749,1341.5h63.2M876.3,1341.5h114.3M1054.7,1341.5h17.7M1066.8,1341.5h0M1066.8,1366.6h-12.1M990.6,1366.6H972M939.5,1366.6h-63.2M812.2,1366.6H749M1054.7,1341.5v25.1M990.6,1366.6v-25.1M876.3,1341.5v25.1M812.2,1366.6v-25.1M968.3,1070.3h0M968.3,1081.4v6.5H847.5M759.2,1087.9H749M740.6,1070.3h18.6M847.5,1070.3h13M889.3,1070.3h79M847.5,1070.3v17.6M759.2,1087.9v-17.6M972,1366.6v279.7M939.5,1646.3v-279.7M928.4,1646.3h11.1M972,1646.3h51.2M2960.7,1646.3h92" fill-opacity="0" stroke-linejoin="round" stroke-linecap="round" stroke="#023470" stroke-width="6.5" id="path_2"/><path fill="#000000" d="M3019.3,1684.4h-58.6M1023.2,1684.4h-57.7v99.4" fill-opacity="0" stroke-linejoin="round" stroke-linecap="round" stroke="#023470" stroke-width="60" id="path_3"/><path fill="#000000" d="M928.4,1746.6v-100.3" fill-opacity="0" stroke-linejoin="round" stroke-linecap="round" stroke="#023470" stroke-width="6.5" id="path_4"/><path fill="#000000" d="M1098.4,922.5h152.4" fill-opacity="0" stroke-linejoin="round" stroke-linecap="round" stroke="#023470" stroke-width="60" id="path_5"/><path fill="#000000" d="M1248,958.8h-178.4M1082.6,989.4h10.3M1092.9,1036.8h-10.3M1092.9,958.8v30.6M1092.9,1036.8v33.5M1082.6,1070.3v-33.5M1082.6,989.4v-30.6" fill-opacity="0" stroke-linejoin="round" stroke-linecap="round" stroke="#023470" stroke-width="6.5" id="path_6"/><path fill="#000000" d="m1003.6,657.8 l78.1,219.2" fill-opacity="0" stroke-linejoin="round" stroke-linecap="round" stroke="#023470" stroke-width="60" id="path_7"/><path fill="#000000" d="m1037.1,751.6 l26.9,76.2" fill-opacity="0" stroke-linejoin="round" stroke-linecap="round" stroke="#023470" stroke-width="6.5" id="path_8"/><path fill="#000000" d="m1081.7,877 l16.7,45.5" fill-opacity="0" stroke-linejoin="round" stroke-linecap="round" stroke="#023470" stroke-width="60" id="path_9"/><path fill="#000000" d="m1069.6,958.8 l-24.1,-68.8M1027.8,840.8l-26.9,-76.2M1045.5,890l-79,-220.2M1072.4,1218.9h20.5M1092.9,1332.3h-20.5M1092.9,1070.3v112.4M1092.9,1207.8v11.1M1092.9,1332.3v13M1072.4,1341.5v-9.2M1072.4,1218.9v-131M1247.1,1134.4h-154.2M1092.9,1126.9h82.7M1185.8,1126.9h61.3v7.5M2864.1,1207.8h-165.4M2634.5,1207.8h-300.1M2271.2,1207.8h-189.6M2018.4,1207.8h-596.6M1357.7,1207.8h-156.1M1138.4,1207.8h-45.5M1092.9,1182.7h45.5M1201.6,1182.7h46.4M1282.4,1182.7h75.3M1421.8,1182.7h596.6M2081.6,1182.7h73.4M2178.3,1182.7h92.9M2334.4,1182.7h300.1M2698.7,1182.7h165.4M2698.7,1182.7v25.1M2634.5,1207.8v-25.1M2334.4,1182.7v25.1M2271.2,1207.8v-25.1M2081.6,1182.7v25.1M2018.4,1207.8v-25.1M1421.8,1182.7v25.1M1357.7,1207.8v-25.1M1201.6,1182.7v25.1M1138.4,1207.8v-25.1M1092.9,1345.3h78.9M1236,1345.3h131.9M1432,1345.3h95.8M1591,1345.3h100.3M1755.4,1345.3h264M2082.5,1345.3h70.7M2153.2,1364.8h-40M2088.1,1364.8h-5.6M2019.4,1364.8h-264M1691.3,1364.8H1591M1527.8,1364.8H1432M1367.9,1364.8H1236M1171.8,1364.8h-105M2082.5,1345.3v19.5M2019.4,1364.8v-19.5M1755.4,1345.3v19.5M1691.3,1364.8v-19.5M1591,1345.3v19.5M1527.8,1364.8v-19.5M1432,1345.3v19.5M1367.9,1364.8v-19.5M1236,1345.3v19.5M1171.8,1364.8v-19.5M1023.2,832.4l-192.4,62.3M1020.4,823.1l2.8,9.3M828,885.4l192.4,-62.3M1060.3,1080.5h13.9v7.4h-13.9z" fill-opacity="0" stroke-linejoin="round" stroke-linecap="round" stroke="#023470" stroke-width="6.5" id="path_10"/><path fill="#000000" d="M965.5,1783.8H722.1" fill-opacity="0" stroke-linejoin="round" stroke-linecap="round" stroke="#023470" stroke-width="60" id="path_11"/><path fill="#000000" d="M749,1746.6h179.4" fill-opacity="0" stroke-linejoin="round" stroke-linecap="round" stroke="#023470" stroke-width="6.5" id="path_12"/><path fill="#000000" d="m815.9,98.5 l199.8,554.6M826.1,126.4l48.4,134.7" fill-opacity="0" stroke-linejoin="round" stroke-linecap="round" stroke="#023470" stroke-width="60" id="path_13"/><path fill="#000000" d="M879.1,273.1 L950.7,472M955.3,486.8l14,38.1M990.6,582.5l12.1,35.3M1008.3,632.7l7.4,20.4M973.9,638.3l-36.2,-102.2 -143.2,-395.8M1015.7,653.1l-12.1,4.7M966.5,669.8 L773.2,733M734.1,717.2h1l238.8,-78.9M1202.5,987.6h-2.8M1247.1,994.1h-61.3M1185.8,987.6h13.9M1202.5,987.6h44.6v6.5M1185.8,1031.2h-10.2M1175.6,1089.8h10.2M1185.8,1122.3h-10.2M1175.6,1043.3h10.2M1175.6,997.8h10.2M1185.8,1076.8h-10.2M1175.6,987.6h10.2M1185.8,994.1v3.7M1185.8,1031.2v4.7M1185.8,1042.4v0.9M1185.8,1076.8v1.8M1185.8,1085.1v4.7M1185.8,1122.3v4.6M1175.6,1126.9v-4.6M1175.6,1089.8v-13M1175.6,1043.3v-12.1M1175.6,997.8v-10.2M1282.4,922.5v260.2M1248,1182.7V958.8M1282.4,899.3v23.2" fill-opacity="0" stroke-linejoin="round" stroke-linecap="round" stroke="#023470" stroke-width="6.5" id="path_14"/><path fill="#000000" d="m1250.8,864 l4021.1,0.9M1250.8,922.5V864" fill-opacity="0" stroke-linejoin="round" stroke-linecap="round" stroke="#023470" stroke-width="60" id="path_15"/><path fill="#000000" d="M1247.1,1042.4h-61.3M1185.8,1035.9h61.3v6.5M1247.1,1085.1h-61.3M1185.8,1078.6h61.3v6.5M2516.5,899.3h-5.5M2414.3,899.3h-0.9M1964.5,1181.8h-22.3M1964.5,1166h-22.3M1942.2,1118.6h22.3M1964.5,899.3v196M1964.5,1102.8v15.8M1964.5,1166v15.8M1942.2,1181.8V1166M1942.2,1118.6V899.3M1964.5,1095.3h72.5M2084.4,1095.3h70.6M2155,1102.8h-70.6M2037,1102.8h-72.5M2084.4,1095.3v7.5M2037,1102.8v-7.5M2178.3,899.3v283.4M2155,1182.7V899.3M2413.4,899.3v176.5M2405.9,1087.9V899.3M2413.4,1075.8h25.1M2485.9,1075.8h25.1M2511,1087.9h-25.1M2438.5,1087.9h-32.6M2485.9,1075.8v12.1M2438.5,1087.9v-12.1M2511,1111.1h5.5M2516.5,1181.8h-5.5M2516.5,1158.5h-5.5M2516.5,899.3v211.8M2516.5,1158.5v23.3M2511,1181.8v-23.3M2511,1111.1v-23.2M2511,1075.8V899.3M1618.8,1181.8h-5.5M1618.8,899.3v282.5M1613.3,1181.8V899.3M2864.1,1239.4h26.9M2891,1310h-26.9M2891,1007.1v232.3M2891,1310v336.3M2864.1,1646.3V1362M2864.1,1345.3V1310M2864.1,1239.4v-31.6M2864.1,1182.7v-175.6M2891,1007.1v4.6M2891,904v103.1M2864.1,1011.7V899.3M1138.4,1364.8v277.8M1124.4,1642.6v-277.8M1307.5,1364.8v281.5M1289.9,1646.3v-281.5M1486.9,1364.8v281.5M1474.8,1646.3v-281.5M1651.4,1364.8v280.5M1637.4,1645.3v-280.5M1821.4,1437.2h-9.3M1812.1,1389.9h9.3v-23.2M1821.4,1437.2v208.1M1812.1,1645.3v-208.1M1812.1,1389.9v-25.1M1990.5,1364.8v280.5M1981.3,1645.3v-280.5M2864.1,1362h-165.4M2634.5,1362h-300.1M2270.3,1362h-92M2153.2,1345.3h117.1M2334.4,1345.3h300.1M2698.7,1345.3h165.4M2698.7,1345.3v16.7M2634.5,1362v-16.7M2334.4,1345.3v16.7M2270.3,1362v-16.7M2178.3,1362v68.7M2153.2,1405.7v-40.9M2113.2,1364.8v40.9M2088.1,1430.7v-65.9M2157.8,1430.7h-69.7M2113.2,1405.7h40M2526.8,1362v283.3M2517.5,1645.3V1362M2178.3,1561.7h-20.5M2178.3,1399.1v115.3M2178.3,1561.7v84.6M2157.8,1514.4h20.5M2157.8,1646.3v-84.6M2157.8,1514.4v-83.7M3052.7,1646.3v403.2" fill-opacity="0" stroke-linejoin="round" stroke-linecap="round" stroke="#023470" stroke-width="6.5" id="path_16"/><path fill="#000000" d="M3019.3,2049.5v-165.4M3019.3,1902.7v-218.3M3530.4,1684.4v365.1" fill-opacity="0" stroke-linejoin="round" stroke-linecap="round" stroke="#023470" stroke-width="60" id="path_17"/><path fill="#000000" d="M3496.9,2049.5v-403.2M3692.1,1310h-27M3665.1,1239.4h27M3692.1,893.7v289M3692.1,1209.6v29.8M3692.1,1310v31.5M3692.1,1362v284.3M3665.1,1646.3V1310M3665.1,1239.4V904" fill-opacity="0" stroke-linejoin="round" stroke-linecap="round" stroke="#023470" stroke-width="6.5" id="path_18"/><path fill="#000000" d="M5582.3,1684.4H3530.4" fill-opacity="0" stroke-linejoin="round" stroke-linecap="round" stroke="#023470" stroke-width="60" id="path_19"/><path fill="#000000" d="M3496.9,1646.3h168.2M3692.1,1646.3h1890.2" fill-opacity="0" stroke-linejoin="round" stroke-linecap="round" stroke="#023470" stroke-width="6.5" id="path_20"/><path fill="#000000" d="M5271.9,864.9h53" fill-opacity="0" stroke-linejoin="round" stroke-linecap="round" stroke="#023470" stroke-width="60" id="path_21"/><path fill="#000000" d="M5066.5,893.7h-5.6M3996.9,893.7h-4.7" fill-opacity="0" stroke-linejoin="round" stroke-linecap="round" stroke="#023470" stroke-width="6.5" id="path_22"/><path fill="#000000" d="M2858.5,2049.5h160.8" fill-opacity="0" stroke-linejoin="round" stroke-linecap="round" stroke="#023470" stroke-width="60" id="path_23"/><path fill="#000000" d="M3052.7,2049.5h20.5" fill-opacity="0" stroke-linejoin="round" stroke-linecap="round" stroke="#023470" stroke-width="65" id="path_24"/><path fill="#000000" d="M3141,2049.5h85.5M3321.3,2049.5h88.3" fill-opacity="0" stroke-linejoin="round" stroke-linecap="round" stroke="#023470" stroke-width="6.5" id="path_25"/><path fill="#000000" d="M3477.4,2049.5h19.5M3530.4,2049.5h157" fill-opacity="0" stroke-linejoin="round" stroke-linecap="round" stroke="#023470" stroke-width="65" id="path_26"/><path fill="#000000" d="M3655.8,2077.4h-178.4M3409.6,2077.4h-88.3M3226.5,2077.4H3141M3073.2,2077.4H2892M3477.4,2049.5v27.9M3409.6,2077.4v-27.9M3321.3,2049.5v27.9M3226.5,2077.4v-27.9M3141,2049.5v27.9M3073.2,2077.4v-27.9M2892,2077.4v1058.1M2892,2529.8v189.5M2892,2832.7v189.5M2892,3135.5v160.8M2892,3317.6v6.5M2892,3437.5v50.2M2892,3512.7v189.6" fill-opacity="0" stroke-linejoin="round" stroke-linecap="round" stroke="#023470" stroke-width="6.5" id="path_27"/><path fill="#000000" d="M2858.5,3730.1V2416.5" fill-opacity="0" stroke-linejoin="round" stroke-linecap="round" stroke="#023470" stroke-width="60" id="path_28"/><path fill="#000000" d="M2858.5,3324.1v-188.6M2858.5,3022.2v-189.5M2858.5,2719.3v-189.5" fill-opacity="0" stroke-linejoin="round" stroke-linecap="round" stroke="#023470" stroke-width="6.5" id="path_29"/><path fill="#000000" d="M2858.5,2416.5v-367M3687.4,2049.5v1680.6" fill-opacity="0" stroke-linejoin="round" stroke-linecap="round" stroke="#023470" stroke-width="60" id="path_30"/><path fill="#000000" d="M3655.8,3702.3V3510M3655.8,3487.7v-169.1M3655.8,3296.3v-878.9M3655.8,3020.3v-187.6M3655.8,2719.3v-188.6M3655.8,2417.4v-340M5601.8,1341.5h9.3M3692.1,1341.5h83.6M3823.1,1341.5h307.6M4178.1,1341.5h449.8M4675.3,1341.5h297.4M5020,1341.5h295.6M5363,1341.5h93.8M5478.2,1341.5h123.6M5582.3,1362H5363M5315.6,1362H5020M4972.7,1362h-297.4M4627.9,1362h-229.5M4377,1362h-198.9M4130.7,1362h-307.6M3775.7,1362h-83.6M5363,1341.5v20.5M5315.6,1362v-20.5M5020,1341.5v20.5M4972.7,1362v-20.5M4675.3,1341.5v20.5M4627.9,1362v-20.5M4178.1,1341.5v20.5M4130.7,1362v-20.5M3823.1,1341.5v20.5M3775.7,1362v-20.5M3692.1,1182.7h60.4M3799.9,1182.7h321.5M4168.8,1182.7H4377M4398.4,1182.7h189.5M4634.4,1182.7h343.8M5025.6,1182.7h255.6M5302.6,1182.7h60.4M5410.4,1182.7h46.4M5456.8,1209.6h-46.4M5363,1209.6h-337.4M4978.2,1209.6h-343.8M4587.9,1209.6h-419.1M4121.4,1209.6h-321.5M3752.5,1209.6h-60.4M5410.4,1182.7v26.9M5363,1209.6v-26.9M5025.6,1182.7v26.9M4978.2,1209.6v-26.9M4634.4,1182.7v26.9M4587.9,1209.6v-26.9M4168.8,1182.7v26.9M4121.4,1209.6v-26.9M3799.9,1182.7v26.9M3752.5,1209.6v-26.9M4046.1,1362v283.3M4041.5,1645.3V1362M4251.5,1362v40.9M4251.5,1450.2v195.1M4251.5,1450.2h-4.6M4246.9,1402.9h4.6M4246.9,1645.3v-195.1M4246.9,1402.9V1362M4546.1,1362v283.3M4542.4,1645.3V1362M4885.3,1362v283.3M4881.6,1645.3V1362M5222.6,1362v283.3M5218,1645.3V1362M5451.2,1527.4h-9.3M5441.9,1480h9.3v-118M5451.2,1527.4v117.9M5441.9,1645.3v-117.9M5441.9,1480v-118M5478.2,1327.6v13.9M5456.8,1327.6h21.4M5456.8,1341.5v-13.9M5611.1,1368.5v384.6" fill-opacity="0" stroke-linejoin="round" stroke-linecap="round" stroke="#023470" stroke-width="6.5" id="path_31"/><path fill="#000000" d="M5582.3,1783.8v-99.4" fill-opacity="0" stroke-linejoin="round" stroke-linecap="round" stroke="#023470" stroke-width="60" id="path_32"/><path fill="#000000" d="M5582.3,1646.3V1362M4398.4,1362v40.9M4398.4,1450.2v196.1M4377,1402.9h21.4M4398.4,1450.2H4377v196.1M4377,1402.9V1362M5645.5,898.4h0.9M5658.5,904l-71.6,168.1M5572,1072.1l73.5,-173.7M5722.6,916l-5.6,13M5533.9,834.3l135.7,58.5M5712.4,912.3l10.2,3.7M5717,929l-10.2,-3.7M5664,905.8l-5.5,-1.8M5646.4,898.4l-117.1,-51.1M5712.4,912.3l-5.6,13M5664,905.8l5.6,-13M5578.6,1087h-11.2M5496.8,1087h-12.1M5476.3,1072.1h20.5M5567.4,1072.1h11.2M5567.4,1072.1v14.9M5496.8,1087v-14.9M5476.3,1072.1h1.9M5456.8,1072.1h19.5M5478.2,1093.5v129.1h-21.4v-13M5456.8,1182.7v-110.6M5486.6,947.6h-76.2M5358.3,947.6h0M5410.4,947.6h-107.8M5281.2,947.6h0" fill-opacity="0" stroke-linejoin="round" stroke-linecap="round" stroke="#023470" stroke-width="6.5" id="path_33"/><path fill="#000000" d="M5324.9,922.5h150.5" fill-opacity="0" stroke-linejoin="round" stroke-linecap="round" stroke="#023470" stroke-width="60" id="path_34"/><path fill="#000000" d="m5601.8,674.5 l-16.7,39.9M5564.6,763.7l-30.7,70.6 -4.6,13 -0.9,0.9M5585.1,714.4l-98.5,233.2" fill-opacity="0" stroke-linejoin="round" stroke-linecap="round" stroke="#023470" stroke-width="6.5" id="path_35"/><path fill="#000000" d="m5475.4,922.5 l91.1,-216.4M5509.8,839.9l36.2,-84.6M5566.5,706.1l16.7,-39" fill-opacity="0" stroke-linejoin="round" stroke-linecap="round" stroke="#023470" stroke-width="60" id="path_36"/><path fill="#000000" d="M5578.6,1072.1h12M5647.3,1072.1h10.2M5679.8,1072.1h15.8M5780.2,1072.1h33.5M5798.8,1093.5h-18.6M5695.6,1093.5h-48.3M5590.6,1093.5h-12M5780.2,1072.1v21.4M5695.6,1093.5v-21.4M5647.3,1072.1v21.4M5590.6,1093.5v-21.4M5578.6,1093.5v-6.5M5586,633.6l264.8,115.2M5928.9,782.3l290.9,127.2" fill-opacity="0" stroke-linejoin="round" stroke-linecap="round" stroke="#023470" stroke-width="6.5" id="path_37"/><path fill="#000000" d="m6207.7,937.4 l-262.1,-113.3" fill-opacity="0" stroke-linejoin="round" stroke-linecap="round" stroke="#023470" stroke-width="60" id="path_38"/><path fill="#000000" d="m5927,815.7 l-11.1,-4.6M5838.8,777.6l-29.8,-13M5790.4,756.2l-188.6,-81.7" fill-opacity="0" stroke-linejoin="round" stroke-linecap="round" stroke="#023470" stroke-width="6.5" id="path_39"/><path fill="#000000" d="m5583.2,667.1 l-44.6,-20.5" fill-opacity="0" stroke-linejoin="round" stroke-linecap="round" stroke="#023470" stroke-width="60" id="path_40"/><path fill="#000000" d="m5928.9,782.3 l-13,28.8M5838.8,777.6l12,-28.8M5358.3,992.2h-55.7M5302.6,987.6h55.7M5302.6,1075.8h55.7M5358.3,1080.5h-55.7M5362,1117.6h-3.7M5358.3,1085.1h3.7M5358.3,951.3h3.7M5362,983.9h-3.7M5362,1073.1h-3.7M5358.3,1039.6h3.7M5362,947.6v3.7M5362,983.9v12M5362,1029.4v10.2M5362,1073.1v12M5362,1117.6v3.8M5358.3,995.9h3.7M5362,1029.4h-3.7M5358.3,1121.4v-3.8M5358.3,1085.1v-4.6M5358.3,1075.8v-2.7M5358.3,1039.6v-2.8M5358.3,1032.2v-2.8M5358.3,995.9v-3.7M5358.3,987.6v-3.7M5358.3,951.3v-3.7M5472.6,1041.5h-15.8M5456.8,994.1h15.8v-46.5M5472.6,1041.5v30.6M5456.8,1072.1v-30.6M5456.8,994.1v-46.5" fill-opacity="0" stroke-linejoin="round" stroke-linecap="round" stroke="#023470" stroke-width="6.5" id="path_41"/><path fill="#000000" d="M5324.9,864.9v57.6" fill-opacity="0" stroke-linejoin="round" stroke-linecap="round" stroke="#023470" stroke-width="60" id="path_42"/><path fill="#000000" d="M5281.2,947.6v-53.9" fill-opacity="0" stroke-linejoin="round" stroke-linecap="round" stroke="#023470" stroke-width="6.5" id="path_43"/><path fill="#000000" d="M5832.3,1783.8h-250" fill-opacity="0" stroke-linejoin="round" stroke-linecap="round" stroke="#023470" stroke-width="65" id="path_44"/><path fill="#000000" d="M5611.1,1753.1h187.7M5302.6,1121.4h55.7M5362,1121.4h90.2M5456.8,1134.4h-154.2M4833.3,1181.8h-4.7M4833.3,893.7v138.5M4833.3,1036.8v145M4828.6,1181.8V893.7M5061.9,1099.1h4.6M5066.5,1146.4h-4.6M5066.5,1181.8h-4.6M5066.5,893.7v205.4M5066.5,1146.4v35.4M5061.9,1181.8v-35.4M5061.9,1099.1V893.7M4669.7,893.7v201.6M4669.7,1130.7v51.1h-4.6M4665.1,1095.3h4.6M4669.7,1130.7h-4.6v50.1M4665.1,1095.3V893.7M4529.4,893.7v142.2M4521.9,1043.3V893.7M4529.4,1035.9h34.4M4556.3,1043.3h-34.4M4563.8,1181.8h-7.5M4556.3,1089.8h7.5M4563.8,1136.2h-7.5M4563.8,1035.9v53.9M4563.8,1136.2v45.6M4556.3,1181.8v-45.6M4556.3,1089.8v-46.5M3996.9,893.7v289M3992.2,1182.7v-289M4398.4,893.7v289M4377,1182.7v-289M4959.6,893.7v143.1M4955,1032.2V893.7M4959.6,1036.8h-40.8M4871.4,1036.8h-38.1M4833.3,1032.2h38.1M4918.8,1032.2h36.2M4918.8,1032.2v4.6M4871.4,1036.8v-4.6M5800.7,144.9l-19.6,45.6 -172.8,393.9 -22.3,49.2M5478.2,1072.1h6.5M5484.7,1087v6.5h-6.5M5358.3,1036.8h-55.7M5302.6,1032.2h55.7M5302.6,947.6v235.1M5281.2,1182.7V947.6M3608.5,3589.8h4.6v-7.4h-4.6M3603.8,3594.5h4.7M3608.5,3632.6h-4.7M3603.8,3655.8h4.7M3608.5,3510v72.4M3608.5,3589.8v4.7M3608.5,3632.6v8.3M3608.5,3648.4v7.4M3603.8,3655.8v-23.2M3603.8,3594.5V3510M3608.5,3640.9h47.3M3655.8,3648.4h-47.3M3362.2,3487.7h74.3M3483,3487.7h172.8M3655.8,3510H3483M3436.5,3510h-67.8M3483,3487.7v22.3M3436.5,3510v-22.3" fill-opacity="0" stroke-linejoin="round" stroke-linecap="round" stroke="#023470" stroke-width="6.5" id="path_45"/><path fill="#000000" d="M3687.4,3730.1h-828.9" fill-opacity="0" stroke-linejoin="round" stroke-linecap="round" stroke="#023470" stroke-width="65" id="path_46"/><path fill="#000000" d="M2892,3702.3h763.8M3323.2,3702.3h23.2M3368.7,3702.3h112.4M3547.1,3702.3h108.7M3655.8,3318.6h-47.3M3561.1,3318.6h-35.4M3466.3,3296.3h94.8M3608.5,3296.3h47.3M3608.5,3296.3v22.3M3561.1,3318.6v-22.3M3466.3,3317.6v-21.3M3368.7,3589.8h-22.3M3346.4,3543.4h22.3V3510M3368.7,3589.8v112.5M3346.4,3702.3v-112.5M3346.4,3543.4v-30.7M3028.6,3392h-14M3014.6,3353.9h14v-36.3h52M3028.6,3392v95.7M3014.6,3487.7V3392M3014.6,3353.9v-36.3M3362.2,3487.7h6.5M2892,3487.7h24.1M3007.2,3487.7h7.4M3028.6,3487.7h203.5M3318.5,3487.7h43.7M3346.4,3512.7h-27.9M3232.1,3512.7h-224.9M2916.1,3512.7H2892M3318.5,3487.7v25M3232.1,3512.7v-25M3007.2,3487.7v25M2916.1,3512.7v-25M3014.6,3317.6h-29.7M2938.4,3317.6H2892M3080.6,3315.8v1.8M3080.6,3296.3v19.5M2892,3296.3h46.4M2984.9,3296.3h95.7M2984.9,3296.3v21.3M2938.4,3317.6v-21.3M3033.2,3203.4h0M3028.6,3296.3v-92.9M3525.7,3410.5h4.7M3530.4,3318.6v91.9M3530.4,3457v29.7M3530.4,3457h-4.7v29.7h4.7M3525.7,3410.5v-91.9M3518.3,3296.3h-4.6M3518.3,3203.4v92.9M5601.8,1341.5h66.9M5740.3,1341.5h58.5M5798.8,1368.5h-58.5M5668.7,1368.5h-57.6M5740.3,1341.5v27M5668.7,1368.5v-27M5742.1,923.5l-62.3,148.6M5724.5,912.3h0" fill-opacity="0" stroke-linejoin="round" stroke-linecap="round" stroke="#023470" stroke-width="6.5" id="path_47"/><path fill="#000000" d="M5832.3,1079.6v704.2" fill-opacity="0" stroke-linejoin="round" stroke-linecap="round" stroke="#023470" stroke-width="60" id="path_48"/><path fill="#000000" d="M5798.8,1753.1v-384.6M5798.8,1341.5v-248M5809,764.6l-66.9,158.9M5724.5,912.3l65.9,-156.1M5742.1,923.5h0" fill-opacity="0" stroke-linejoin="round" stroke-linecap="round" stroke="#023470" stroke-width="6.5" id="path_49"/><path fill="#000000" d="m5945.6,824.1 l-113.3,255.5" fill-opacity="0" stroke-linejoin="round" stroke-linecap="round" stroke="#023470" stroke-width="60" id="path_50"/><path fill="#000000" d="M5813.7,1072.1 L5927,815.7M5813.7,1072.1h0" fill-opacity="0" stroke-linejoin="round" stroke-linecap="round" stroke="#023470" stroke-width="6.5" id="path_51"/><path fill="#000000" d="m6482.8,406.9 l-58.6,132.9 -126.4,288 -55.7,125.4" fill-opacity="0" stroke-linejoin="round" stroke-linecap="round" stroke="#023470" stroke-width="60" id="path_52"/><path fill="#000000" d="M6207.7,938.3v-0.9M6219.8,909.5l42.7,-96.6 126.4,-288 46.5,-105M6242.1,953.2l-34.4,-14.9" fill-opacity="0" stroke-linejoin="round" stroke-linecap="round" stroke="#023470" stroke-width="6.5" id="path_53"/><path fill="#000000" d="M5777.4,101.3 L6361.9,354l120.9,52.9" fill-opacity="0" stroke-linejoin="round" stroke-linecap="round" stroke="#023470" stroke-width="60" id="path_54"/><path fill="#000000" d="m6435.4,419.9 l-634.7,-275M828,896.5l61.3,173.8M860.5,1070.3 L802,905.8M629.1,765.5 L679.3,903l61.3,167.3" fill-opacity="0" stroke-linejoin="round" stroke-linecap="round" stroke="#023470" stroke-width="6.5" id="path_55"/><path fill="#000000" d="m722.1,1095.3 l-66.9,-183 -44.7,-121.7" fill-opacity="0" stroke-linejoin="round" stroke-linecap="round" stroke="#023470" stroke-width="60" id="path_56"/><path fill="#000000" d="M749,1087.9v253.6M749,1366.6v380" fill-opacity="0" stroke-linejoin="round" stroke-linecap="round" stroke="#023470" stroke-width="6.5" id="path_57"/><path fill="#000000" d="M722.1,1783.8v-688.5" fill-opacity="0" stroke-linejoin="round" stroke-linecap="round" stroke="#023470" stroke-width="60" id="path_58"/><path fill="#000000" d="m776.9,744.2 l14.9,39.9M771.3,791.6l-14.9,-40M791.8,784.1l21.3,61.3M827.1,885.4h0.9l2.8,9.3v0.9l-2.8,0.9M802,905.8h0M827.1,885.4l-14,4.6 -14.8,5.6M783.4,855.7l29.7,-10.3" fill-opacity="0" stroke-linejoin="round" stroke-linecap="round" stroke="#023470" stroke-width="6.5" id="path_59"/><path fill="#000000" d="m802,905.8 l-3.7,-10.2 -14.9,-39.9 -21.4,-61.4 9.3,-2.7M618.9,755.3h0M625.4,753.5l2.8,7.4 0.9,4.6" fill-opacity="0" stroke-linejoin="round" stroke-linecap="round" stroke="#023470" stroke-width="6.5" id="path_60"/><path fill="#000000" d="M610.5,790.6 L291.8,898.4" fill-opacity="0" stroke-linejoin="round" stroke-linecap="round" stroke="#023470" stroke-width="60" id="path_61"/><path fill="#000000" d="m314.1,857.5 l304.8,-102.2 6.5,-1.8M756.4,751.6l-8.3,2.8M773.2,733l3.7,11.2M748.1,754.4l-11.2,-28.8 -2.8,-8.4" fill-opacity="0" stroke-linejoin="round" stroke-linecap="round" stroke="#023470" stroke-width="6.5" id="path_62"/><path fill="#000000" d="M91.1,336.3 L697,137.5" fill-opacity="0" stroke-linejoin="round" stroke-linecap="round" stroke="#023470" stroke-width="60" id="path_63"/><path fill="#000000" d="m280.6,274.1 l136.7,-44.6M489.7,205.3l135.7,-44.6" fill-opacity="0" stroke-linejoin="round" stroke-linecap="round" stroke="#023470" stroke-width="6.5" id="path_64"/><path fill="#000000" d="m697,137.5 l118.9,-39" fill-opacity="0" stroke-linejoin="round" stroke-linecap="round" stroke="#023470" stroke-width="60" id="path_65"/><path fill="#000000" d="m794.5,140.3 l-87.3,27.9M635.6,192.3 L500,236.9M428.4,260.1l-137.5,45.6M707.2,168.2 L134.7,356.8l13.1,35.3M172.8,463.6l38.1,105.9M236,640.1l38.1,107.8M147.8,392.1l166.3,465.4" fill-opacity="0" stroke-linejoin="round" stroke-linecap="round" stroke="#023470" stroke-width="6.5" id="path_66"/><path fill="#000000" d="M291.8,898.4 L115.2,403.2" fill-opacity="0" stroke-linejoin="round" stroke-linecap="round" stroke="#023470" stroke-width="60" id="path_67"/><path fill="#000000" d="m242.5,759 l-39,-107.7M178.4,580.7l-38.1,-106" fill-opacity="0" stroke-linejoin="round" stroke-linecap="round" stroke="#023470" stroke-width="6.5" id="path_68"/><path fill="#000000" d="m115.2,403.2 l-24.1,-66.9" fill-opacity="0" stroke-linejoin="round" stroke-linecap="round" stroke="#023470" stroke-width="60" id="path_69"/><path fill="#000000" d="M3233.9,3557.3h-192.3M3233.9,3701.3h-192.3M3233.9,3511.8h-1.8" fill-opacity="0" stroke-linejoin="round" stroke-linecap="round" stroke="#023470" stroke-width="6.5" id="path_70"/><path fill="#000000" d="M2960.7,1684.4H1023.2" fill-opacity="0" stroke-linejoin="round" stroke-linecap="round" stroke="#023470" stroke-width="60" id="path_71"/><path fill="#000000" d="M1023.2,1646.3h1937.5M2892,3437.5v-113.4M5281.2,893.7h-882.8M4377,893.7h-684.9M1282.4,899.3h1581.7M3665.1,904H2891" fill-opacity="0" stroke-linejoin="round" stroke-linecap="round" stroke="#023470" stroke-width="6.5" id="path_72"/><path fill="#000000" d="m5538.6,646.6 l238.8,-545.3" fill-opacity="0" stroke-linejoin="round" stroke-linecap="round" stroke="#023470" stroke-width="60" id="path_73"/></svg>