<svg id="vector" xmlns="http://www.w3.org/2000/svg" width="2364" height="2364" viewBox="0 0 2364 2364"><path fill="#000000" d="M896.3,943.5h38.1v15.7" fill-opacity="0" stroke-linejoin="round" stroke-linecap="round" stroke="#023470" stroke-width="3" id="path_0"/><path fill="#000000" d="M896.3,959.2v-15.7h38.1M934.4,959.2v7.2" fill-opacity="0" stroke-linejoin="round" stroke-linecap="round" stroke="#023470" stroke-width="3" id="path_1"/><path fill="#000000" d="M896.3,966.4v-7.2h38.1M896.3,981.1h38.1M896.3,981.1v-14.7M896.3,981.1h38.1M833,943.5h37.6v15.7" fill-opacity="0" stroke-linejoin="round" stroke-linecap="round" stroke="#023470" stroke-width="3" id="path_2"/><path fill="#000000" d="M833,959.2v-15.7h37.6M870.6,959.2v7.2" fill-opacity="0" stroke-linejoin="round" stroke-linecap="round" stroke="#023470" stroke-width="3" id="path_3"/><path fill="#000000" d="M833,966.4v-7.2h37.6M833,981.1h37.6M833,981.1v-14.7M833,981.1h37.6M769.1,943.5h37.6v15.7" fill-opacity="0" stroke-linejoin="round" stroke-linecap="round" stroke="#023470" stroke-width="3" id="path_4"/><path fill="#000000" d="M769.1,959.2v-15.7h37.6M806.7,959.2v7.2" fill-opacity="0" stroke-linejoin="round" stroke-linecap="round" stroke="#023470" stroke-width="3" id="path_5"/><path fill="#000000" d="M769.1,966.4v-7.2h37.6M769.1,981.1h37.6M769.1,981.1v-14.7M769.1,981.1h37.6M705.2,943.5h37.7v15.7" fill-opacity="0" stroke-linejoin="round" stroke-linecap="round" stroke="#023470" stroke-width="3" id="path_6"/><path fill="#000000" d="M705.2,959.2v-15.7h37.7M742.9,959.2v7.2" fill-opacity="0" stroke-linejoin="round" stroke-linecap="round" stroke="#023470" stroke-width="3" id="path_7"/><path fill="#000000" d="M705.2,966.4v-7.2h37.7M705.2,981.1h37.7M705.2,981.1v-14.7M705.2,981.1h37.7M641.4,943.5H679v15.7" fill-opacity="0" stroke-linejoin="round" stroke-linecap="round" stroke="#023470" stroke-width="3" id="path_8"/><path fill="#000000" d="M641.4,959.2v-15.7H679M679,959.2v7.2" fill-opacity="0" stroke-linejoin="round" stroke-linecap="round" stroke="#023470" stroke-width="3" id="path_9"/><path fill="#000000" d="M641.4,966.4v-7.2H679M641.4,981.1H679M641.4,981.1v-14.7M641.4,981.1H679M577.5,943.5h37.7v15.7" fill-opacity="0" stroke-linejoin="round" stroke-linecap="round" stroke="#023470" stroke-width="3" id="path_10"/><path fill="#000000" d="M577.5,959.2v-15.7h37.7M615.2,959.2v7.2" fill-opacity="0" stroke-linejoin="round" stroke-linecap="round" stroke="#023470" stroke-width="3" id="path_11"/><path fill="#000000" d="M577.5,966.4v-7.2h37.7M577.5,981.1h37.7M577.5,981.1v-14.7M577.5,981.1h37.7M513.7,943.5h37.6v15.7" fill-opacity="0" stroke-linejoin="round" stroke-linecap="round" stroke="#023470" stroke-width="3" id="path_12"/><path fill="#000000" d="M513.7,959.2v-15.7h37.6M551.3,959.2v7.2" fill-opacity="0" stroke-linejoin="round" stroke-linecap="round" stroke="#023470" stroke-width="3" id="path_13"/><path fill="#000000" d="M513.7,966.4v-7.2h37.6M513.7,981.1h37.6M513.7,981.1v-14.7M513.7,981.1h37.6M449.8,943.5H488v15.7" fill-opacity="0" stroke-linejoin="round" stroke-linecap="round" stroke="#023470" stroke-width="3" id="path_14"/><path fill="#000000" d="M449.8,959.2v-15.7H488M488,959.2v7.2" fill-opacity="0" stroke-linejoin="round" stroke-linecap="round" stroke="#023470" stroke-width="3" id="path_15"/><path fill="#000000" d="M449.8,966.4v-7.2H488M449.8,981.1H488M449.8,981.1v-14.7M449.8,981.1H488M386,943.5h38.1v15.7" fill-opacity="0" stroke-linejoin="round" stroke-linecap="round" stroke="#023470" stroke-width="3" id="path_16"/><path fill="#000000" d="M386,959.2v-15.7h38.1M424.1,959.2v7.2" fill-opacity="0" stroke-linejoin="round" stroke-linecap="round" stroke="#023470" stroke-width="3" id="path_17"/><path fill="#000000" d="M386,966.4v-7.2h38.1M386,981.1h38.1M386,981.1v-14.7M386,981.1h38.1M356,1152.7v75.3h-16.2" fill-opacity="0" stroke-linejoin="round" stroke-linecap="round" stroke="#023470" stroke-width="3" id="path_18"/><path fill="#000000" d="M339.8,1152.7H356v75.3M339.8,1228h-7.2M332.6,1152.7h7.2v75.3M317.8,1152.7v75.3M317.8,1152.7h14.8M317.8,1152.7v75.3M991.2,886.8v37.6h-15.8" fill-opacity="0" stroke-linejoin="round" stroke-linecap="round" stroke="#023470" stroke-width="3" id="path_19"/><path fill="#000000" d="M975.4,886.8h15.8v37.6M975.4,924.4h-7.6M967.8,886.8h7.6v37.6M953,886.8v37.6M953,886.8h14.8M953,886.8v37.6M991.2,822.9v37.7h-15.8" fill-opacity="0" stroke-linejoin="round" stroke-linecap="round" stroke="#023470" stroke-width="3" id="path_20"/><path fill="#000000" d="M975.4,822.9h15.8v37.7M975.4,860.6h-7.6M967.8,822.9h7.6v37.7M967.8,860.6H953M953,822.9h14.8M991.2,759.1v37.6h-15.8" fill-opacity="0" stroke-linejoin="round" stroke-linecap="round" stroke="#023470" stroke-width="3" id="path_21"/><path fill="#000000" d="M975.4,759.1h15.8v37.6M975.4,796.7h-7.6M967.8,759.1h7.6v37.6M967.8,796.7H953M953,759.1h14.8M991.2,695.7v37.7h-15.8" fill-opacity="0" stroke-linejoin="round" stroke-linecap="round" stroke="#023470" stroke-width="3" id="path_22"/><path fill="#000000" d="M975.4,695.7h15.8v37.7M975.4,733.4h-7.6M967.8,695.7h7.6v37.7M967.8,733.4H953M953,695.7h14.8M953,669.5v-38.1h16.2M969.2,669.5H953M953,860.6V631.4M969.2,631.4h7.2" fill-opacity="0" stroke-linejoin="round" stroke-linecap="round" stroke="#023470" stroke-width="3" id="path_23"/><path fill="#000000" d="M976.4,669.5h-7.2v-38.1M991.2,669.5v-38.1M991.2,669.5h-14.8M991.2,669.5v-38.1M953,606.1v-37.6h16.2" fill-opacity="0" stroke-linejoin="round" stroke-linecap="round" stroke="#023470" stroke-width="3" id="path_24"/><path fill="#000000" d="M969.2,606.1H953v-37.6M969.2,568.5h7.2" fill-opacity="0" stroke-linejoin="round" stroke-linecap="round" stroke="#023470" stroke-width="3" id="path_25"/><path fill="#000000" d="M976.4,606.1h-7.2v-37.6M991.2,606.1v-37.6M991.2,606.1h-14.8M991.2,606.1v-37.6M953,534.2v-37.7h16.2" fill-opacity="0" stroke-linejoin="round" stroke-linecap="round" stroke="#023470" stroke-width="3" id="path_26"/><path fill="#000000" d="M969.2,534.2H953v-37.7M969.2,496.5h7.2" fill-opacity="0" stroke-linejoin="round" stroke-linecap="round" stroke="#023470" stroke-width="3" id="path_27"/><path fill="#000000" d="M976.4,534.2h-7.2v-37.7M991.2,534.2v-37.7M991.2,534.2h-14.8M991.2,534.2v-37.7M953,471.3v-38.1h16.2" fill-opacity="0" stroke-linejoin="round" stroke-linecap="round" stroke="#023470" stroke-width="3" id="path_28"/><path fill="#000000" d="M969.2,471.3H953v-38.1M969.2,433.2h7.2" fill-opacity="0" stroke-linejoin="round" stroke-linecap="round" stroke="#023470" stroke-width="3" id="path_29"/><path fill="#000000" d="M976.4,471.3h-7.2v-38.1M991.2,471.3v-38.1M991.2,471.3h-14.8M991.2,471.3v-38.1M953,406.9v-37.6h16.2" fill-opacity="0" stroke-linejoin="round" stroke-linecap="round" stroke="#023470" stroke-width="3" id="path_30"/><path fill="#000000" d="M969.2,406.9H953v-37.6M969.2,369.3h7.2" fill-opacity="0" stroke-linejoin="round" stroke-linecap="round" stroke="#023470" stroke-width="3" id="path_31"/><path fill="#000000" d="M976.4,406.9h-7.2v-37.6M991.2,406.9v-37.6M991.2,406.9h-14.8M991.2,406.9v-37.6M991.2,1722.6v37.7h-15.8" fill-opacity="0" stroke-linejoin="round" stroke-linecap="round" stroke="#023470" stroke-width="3" id="path_32"/><path fill="#000000" d="M975.4,1722.6h15.8v37.7M975.4,1760.3h-7.6M967.8,1722.6h7.6v37.7M953,1722.6v37.7M953,1722.6h14.8M953,1722.6v37.7M991.2,1460v37.7h-15.8" fill-opacity="0" stroke-linejoin="round" stroke-linecap="round" stroke="#023470" stroke-width="3" id="path_33"/><path fill="#000000" d="M975.4,1460h15.8v37.7M975.4,1497.7h-7.6M967.8,1460h7.6v37.7M953,1460v37.7M953,1460h14.8M953,1460v37.7M991.2,1523.4v38.1h-15.8" fill-opacity="0" stroke-linejoin="round" stroke-linecap="round" stroke="#023470" stroke-width="3" id="path_34"/><path fill="#000000" d="M975.4,1523.4h15.8v38.1M975.4,1561.5h-7.6M967.8,1523.4h7.6v38.1M953,1523.4v38.1M953,1523.4h14.8M953,1523.4v38.1M991.2,1587.8v42.4h-15.8" fill-opacity="0" stroke-linejoin="round" stroke-linecap="round" stroke="#023470" stroke-width="3" id="path_35"/><path fill="#000000" d="M975.4,1587.8h15.8v42.4M975.4,1630.2h-7.6M967.8,1587.8h7.6v42.4M953,1587.8v42.4M953,1587.8h14.8M953,1587.8v42.4M991.2,1655.9v41h-15.8" fill-opacity="0" stroke-linejoin="round" stroke-linecap="round" stroke="#023470" stroke-width="3" id="path_36"/><path fill="#000000" d="M975.4,1655.9h15.8v41M975.4,1696.9h-7.6M967.8,1655.9h7.6v41M953,1655.9v41M953,1655.9h14.8M953,1655.9v41M991.2,1786v38.1h-15.8" fill-opacity="0" stroke-linejoin="round" stroke-linecap="round" stroke="#023470" stroke-width="3" id="path_37"/><path fill="#000000" d="M975.4,1786h15.8v38.1M975.4,1824.1h-7.6M967.8,1786h7.6v38.1M953,1786v38.1M953,1786h14.8M953,1786v38.1M991.2,1850.3v38.1h-15.8" fill-opacity="0" stroke-linejoin="round" stroke-linecap="round" stroke="#023470" stroke-width="3" id="path_38"/><path fill="#000000" d="M975.4,1850.3h15.8v38.1M975.4,1888.4h-7.6M967.8,1850.3h7.6v38.1M953,1850.3v38.1M953,1850.3h14.8M953,1850.3v38.1M991.2,1913.7v37.6h-15.8" fill-opacity="0" stroke-linejoin="round" stroke-linecap="round" stroke="#023470" stroke-width="3" id="path_39"/><path fill="#000000" d="M975.4,1913.7h15.8v37.6M975.4,1951.3h-7.6M967.8,1913.7h7.6v37.6M953,1913.7v37.6M953,1913.7h14.8M953,1913.7v37.6M991.2,1977.5v37.7h-15.8" fill-opacity="0" stroke-linejoin="round" stroke-linecap="round" stroke="#023470" stroke-width="3" id="path_40"/><path fill="#000000" d="M975.4,1977.5h15.8v37.7M975.4,2015.2h-7.6M967.8,1977.5h7.6v37.7M953,1977.5v37.7M953,1977.5h14.8M953,1977.5v37.7M1502.9,1436.7h-37.6V1421" fill-opacity="0" stroke-linejoin="round" stroke-linecap="round" stroke="#023470" stroke-width="3" id="path_41"/><path fill="#000000" d="M1502.9,1421v15.7h-37.6M1465.3,1421v-7.2M1502.9,1413.8v7.2h-37.6M1502.9,1399.1h-37.6M1502.9,1399.1v14.7M1502.9,1399.1h-37.6M1566.8,1436.7h-37.7V1421" fill-opacity="0" stroke-linejoin="round" stroke-linecap="round" stroke="#023470" stroke-width="3" id="path_42"/><path fill="#000000" d="M1566.8,1421v15.7h-37.7M1529.1,1421v-7.2M1566.8,1413.8v7.2h-37.7M1566.8,1399.1h-37.7M1566.8,1399.1v14.7M1566.8,1399.1h-37.7M1631.6,1436.7h-37.7V1421" fill-opacity="0" stroke-linejoin="round" stroke-linecap="round" stroke="#023470" stroke-width="3" id="path_43"/><path fill="#000000" d="M1631.6,1421v15.7h-37.7M1593.9,1421v-7.2M1631.6,1413.8v7.2h-37.7M1631.6,1399.1h-37.7M1631.6,1399.1v14.7M1631.6,1399.1h-37.7M1695,1436.7h-38.2V1421" fill-opacity="0" stroke-linejoin="round" stroke-linecap="round" stroke="#023470" stroke-width="3" id="path_44"/><path fill="#000000" d="M1695,1421v15.7h-38.2M1656.8,1421v-7.2M1695,1413.8v7.2h-38.2M1695,1399.1h-38.2M1695,1399.1v14.7M1695,1399.1h-38.2M1758.8,1436.7h-38.1V1421" fill-opacity="0" stroke-linejoin="round" stroke-linecap="round" stroke="#023470" stroke-width="3" id="path_45"/><path fill="#000000" d="M1758.8,1421v15.7h-38.1M1720.7,1421v-7.2M1758.8,1413.8v7.2h-38.1M1758.8,1399.1h-38.1M1758.8,1399.1v14.7M1758.8,1399.1h-38.1M1829.8,1436.7H1785V1421" fill-opacity="0" stroke-linejoin="round" stroke-linecap="round" stroke="#023470" stroke-width="3" id="path_46"/><path fill="#000000" d="M1829.8,1421v15.7H1785M1785,1421v-7.2M1829.8,1413.8v7.2H1785M1829.8,1399.1H1785M1829.8,1399.1v14.7M1829.8,1399.1H1785M1893.7,1436.7h-38.1V1421" fill-opacity="0" stroke-linejoin="round" stroke-linecap="round" stroke="#023470" stroke-width="3" id="path_47"/><path fill="#000000" d="M1893.7,1421v15.7h-38.1M1855.6,1421v-7.2M1893.7,1413.8v7.2h-38.1M1893.7,1399.1h-38.1M1893.7,1399.1v14.7M1893.7,1399.1h-38.1M1956.6,1436.7h-37.7V1421" fill-opacity="0" stroke-linejoin="round" stroke-linecap="round" stroke="#023470" stroke-width="3" id="path_48"/><path fill="#000000" d="M1956.6,1421v15.7h-37.7M1918.9,1421v-7.2M1956.6,1413.8v7.2h-37.7M1956.6,1399.1h-37.7M1956.6,1399.1v14.7M1956.6,1399.1h-37.7M2020.4,1436.7h-37.6V1421" fill-opacity="0" stroke-linejoin="round" stroke-linecap="round" stroke="#023470" stroke-width="3" id="path_49"/><path fill="#000000" d="M2020.4,1421v15.7h-37.6M1982.8,1421v-7.2M2020.4,1413.8v7.2h-37.6M2020.4,1399.1h-37.6M2020.4,1399.1v14.7M2020.4,1399.1h-37.6M1161.7,2034.3h75.8v15.7" fill-opacity="0" stroke-linejoin="round" stroke-linecap="round" stroke="#023470" stroke-width="3" id="path_50"/><path fill="#000000" d="M1161.7,2050v-15.7h75.8M1237.5,2050v7.6M1161.7,2057.6v-7.6h75.8M1161.7,2072.4h75.8M1161.7,2072.4v-14.8M1161.7,2072.4h75.8M1162.2,307.8h75.8V324" fill-opacity="0" stroke-linejoin="round" stroke-linecap="round" stroke="#023470" stroke-width="3" id="path_51"/><path fill="#000000" d="M1162.2,324v-16.2h75.8M1238,324v7.2M1162.2,331.2V324h75.8M1162.2,346h75.8M1162.2,346v-14.8M1162.2,346h75.8M1446.7,1973.3v37.6H1431" fill-opacity="0" stroke-linejoin="round" stroke-linecap="round" stroke="#023470" stroke-width="3" id="path_52"/><path fill="#000000" d="M1431,1973.3h15.7v37.6M1431,2010.9h-7.2M1423.8,1973.3h7.2v37.6M1409.1,1973.3v37.6M1409.1,1973.3h14.7M1409.1,1973.3v37.6M1446.7,1908.9v37.7H1431" fill-opacity="0" stroke-linejoin="round" stroke-linecap="round" stroke="#023470" stroke-width="3" id="path_53"/><path fill="#000000" d="M1431,1908.9h15.7v37.7M1431,1946.6h-7.2M1423.8,1908.9h7.2v37.7M1409.1,1908.9v37.7M1409.1,1908.9h14.7M1409.1,1908.9v37.7M1446.7,1845.1v38.1H1431" fill-opacity="0" stroke-linejoin="round" stroke-linecap="round" stroke="#023470" stroke-width="3" id="path_54"/><path fill="#000000" d="M1431,1845.1h15.7v38.1M1431,1883.2h-7.2M1423.8,1845.1h7.2v38.1M1409.1,1845.1v38.1M1409.1,1845.1h14.7M1409.1,1845.1v38.1M1446.7,1786.5v32.8H1431" fill-opacity="0" stroke-linejoin="round" stroke-linecap="round" stroke="#023470" stroke-width="3" id="path_55"/><path fill="#000000" d="M1431,1786.5h15.7v32.8M1431,1819.3h-7.2M1423.8,1786.5h7.2v32.8M1409.1,1786.5v32.8M1409.1,1786.5h14.7M1409.1,1786.5v32.8M1446.7,1723.1v38.1H1431" fill-opacity="0" stroke-linejoin="round" stroke-linecap="round" stroke="#023470" stroke-width="3" id="path_56"/><path fill="#000000" d="M1431,1723.1h15.7v38.1M1431,1761.2h-7.2M1423.8,1723.1h7.2v38.1M1409.1,1723.1v38.1M1409.1,1723.1h14.7M1409.1,1723.1v38.1M1446.7,1658.8v38.1H1431" fill-opacity="0" stroke-linejoin="round" stroke-linecap="round" stroke="#023470" stroke-width="3" id="path_57"/><path fill="#000000" d="M1431,1658.8h15.7v38.1M1431,1696.9h-7.2M1423.8,1658.8h7.2v38.1M1409.1,1658.8v38.1M1409.1,1658.8h14.7M1409.1,1658.8v38.1M1409.1,1625.4v-37.6h15.7" fill-opacity="0" stroke-linejoin="round" stroke-linecap="round" stroke="#023470" stroke-width="3" id="path_58"/><path fill="#000000" d="M1424.8,1625.4h-15.7v-37.6M1424.8,1587.8h7.1M1431.9,1625.4h-7.1v-37.6M1446.7,1625.4v-37.6M1446.7,1625.4h-14.8M1446.7,1625.4v-37.6M1409.1,1562.5v-37.6h15.7" fill-opacity="0" stroke-linejoin="round" stroke-linecap="round" stroke="#023470" stroke-width="3" id="path_59"/><path fill="#000000" d="M1424.8,1562.5h-15.7v-37.6M1424.8,1524.9h7.1M1431.9,1562.5h-7.1v-37.6M1446.7,1562.5v-37.6M1446.7,1562.5h-14.8M1446.7,1562.5v-37.6M1409.1,1498.6v-38.1h15.7" fill-opacity="0" stroke-linejoin="round" stroke-linecap="round" stroke="#023470" stroke-width="3" id="path_60"/><path fill="#000000" d="M1424.8,1498.6h-15.7v-38.1M1424.8,1460.5h7.1M1431.9,1498.6h-7.1v-38.1M1446.7,1498.6v-38.1M1446.7,1498.6h-14.8M1446.7,1498.6v-38.1M2020.9,981.1h-38.1v-15.7" fill-opacity="0" stroke-linejoin="round" stroke-linecap="round" stroke="#023470" stroke-width="3" id="path_61"/><path fill="#000000" d="M2020.9,965.4v15.7h-38.1M1982.8,965.4v-7.6M2020.9,957.8v7.6h-38.1M2020.9,943.5h-38.1M2020.9,943.5v14.3M2020.9,943.5h-38.1M1956.6,981.1h-37.7v-15.7" fill-opacity="0" stroke-linejoin="round" stroke-linecap="round" stroke="#023470" stroke-width="3" id="path_62"/><path fill="#000000" d="M1956.6,965.4v15.7h-37.7M1918.9,965.4v-7.6M1956.6,957.8v7.6h-37.7M1956.6,943.5h-37.7M1956.6,943.5v14.3M1956.6,943.5h-37.7M1892.7,981.1h-37.6v-15.7" fill-opacity="0" stroke-linejoin="round" stroke-linecap="round" stroke="#023470" stroke-width="3" id="path_63"/><path fill="#000000" d="M1892.7,965.4v15.7h-37.6M1855.1,965.4v-7.6M1892.7,957.8v7.6h-37.6M1892.7,943.5h-37.6M1892.7,943.5v14.3M1892.7,943.5h-37.6M1829.3,981.1H1785v-15.7" fill-opacity="0" stroke-linejoin="round" stroke-linecap="round" stroke="#023470" stroke-width="3" id="path_64"/><path fill="#000000" d="M1829.3,965.4v15.7H1785M1785,965.4v-7.6M1829.3,957.8v7.6H1785M1829.3,943.5H1785M1829.3,943.5v14.3M1829.3,943.5H1785M1758.8,981.1h-37.6v-15.7" fill-opacity="0" stroke-linejoin="round" stroke-linecap="round" stroke="#023470" stroke-width="3" id="path_65"/><path fill="#000000" d="M1758.8,965.4v15.7h-37.6M1721.2,965.4v-7.6M1758.8,957.8v7.6h-37.6M1758.8,943.5h-37.6M1758.8,943.5v14.3M1758.8,943.5h-37.6M1694,981.1h-37.6v-15.7" fill-opacity="0" stroke-linejoin="round" stroke-linecap="round" stroke="#023470" stroke-width="3" id="path_66"/><path fill="#000000" d="M1694,965.4v15.7h-37.6M1656.4,965.4v-7.6M1694,957.8v7.6h-37.6M1694,943.5h-37.6M1694,943.5v14.3M1694,943.5h-37.6M1630.6,981.1H1593v-15.7" fill-opacity="0" stroke-linejoin="round" stroke-linecap="round" stroke="#023470" stroke-width="3" id="path_67"/><path fill="#000000" d="M1630.6,965.4v15.7H1593M1593,965.4v-7.6M1630.6,957.8v7.6H1593M1630.6,943.5H1593M1630.6,943.5v14.3M1630.6,943.5H1593M1567.3,981.1h-37.7v-15.7" fill-opacity="0" stroke-linejoin="round" stroke-linecap="round" stroke="#023470" stroke-width="3" id="path_68"/><path fill="#000000" d="M1567.3,965.4v15.7h-37.7M1529.6,965.4v-7.6M1567.3,957.8v7.6h-37.7M1567.3,943.5h-37.7M1567.3,943.5v14.3M1567.3,943.5h-37.7M1502.9,981.1h-37.6v-15.7" fill-opacity="0" stroke-linejoin="round" stroke-linecap="round" stroke="#023470" stroke-width="3" id="path_69"/><path fill="#000000" d="M1502.9,965.4v15.7h-37.6M1465.3,965.4v-7.6M1502.9,957.8v7.6h-37.6M1502.9,943.5h-37.6M1502.9,943.5v14.3M1502.9,943.5h-37.6M1446.7,824.9V863H1431" fill-opacity="0" stroke-linejoin="round" stroke-linecap="round" stroke="#023470" stroke-width="3" id="path_70"/><path fill="#000000" d="M1431,824.9h15.7V863M1431,863h-7.2M1423.8,824.9h7.2V863M1409.1,824.9V863M1409.1,824.9h14.7M1409.1,824.9V863M1446.7,888.2v37.7H1431" fill-opacity="0" stroke-linejoin="round" stroke-linecap="round" stroke="#023470" stroke-width="3" id="path_71"/><path fill="#000000" d="M1431,888.2h15.7v37.7M1431,925.9h-7.2M1423.8,888.2h7.2v37.7M1409.1,888.2v37.7M1409.1,888.2h14.7M1409.1,888.2v37.7M1446.7,760.5v38.1H1431" fill-opacity="0" stroke-linejoin="round" stroke-linecap="round" stroke="#023470" stroke-width="3" id="path_72"/><path fill="#000000" d="M1431,760.5h15.7v38.1M1431,798.6h-7.2M1423.8,760.5h7.2v38.1M1409.1,760.5v38.1M1409.1,760.5h14.7M1409.1,760.5v38.1M1446.7,690.9v38.2H1431" fill-opacity="0" stroke-linejoin="round" stroke-linecap="round" stroke="#023470" stroke-width="3" id="path_73"/><path fill="#000000" d="M1431,690.9h15.7v38.2M1431,729.1h-7.2M1423.8,690.9h7.2v38.2M1409.1,690.9v38.2M1409.1,690.9h14.7M1409.1,690.9v38.2M1446.7,626.6v37.7H1431" fill-opacity="0" stroke-linejoin="round" stroke-linecap="round" stroke="#023470" stroke-width="3" id="path_74"/><path fill="#000000" d="M1431,626.6h15.7v37.7M1431,664.3h-7.2M1423.8,626.6h7.2v37.7M1409.1,626.6v37.7M1409.1,626.6h14.7M1409.1,626.6v37.7M1446.7,563.7v37.7H1431" fill-opacity="0" stroke-linejoin="round" stroke-linecap="round" stroke="#023470" stroke-width="3" id="path_75"/><path fill="#000000" d="M1431,563.7h15.7v37.7M1431,601.4h-7.2M1423.8,563.7h7.2v37.7M1409.1,563.7v37.7M1409.1,563.7h14.7M1409.1,563.7v37.7M1446.7,497v37.7H1431" fill-opacity="0" stroke-linejoin="round" stroke-linecap="round" stroke="#023470" stroke-width="3" id="path_76"/><path fill="#000000" d="M1431,497h15.7v37.7M1431,534.7h-7.2M1423.8,497h7.2v37.7M1409.1,497v37.7M1409.1,497h14.7M1409.1,497v37.7M1446.7,433.2v37.6H1431" fill-opacity="0" stroke-linejoin="round" stroke-linecap="round" stroke="#023470" stroke-width="3" id="path_77"/><path fill="#000000" d="M1431,433.2h15.7v37.6M1431,470.8h-7.2M1423.8,433.2h7.2v37.6M1409.1,433.2v37.6M1409.1,433.2h14.7M1409.1,433.2v37.6M1446.7,369.3v38.1H1431" fill-opacity="0" stroke-linejoin="round" stroke-linecap="round" stroke="#023470" stroke-width="3" id="path_78"/><path fill="#000000" d="M1431,369.3h15.7v38.1M1431,407.4h-7.2M1423.8,369.3h7.2v38.1M1409.1,369.3v38.1M1409.1,369.3h14.7M1409.1,369.3v38.1M414.6,1436.7h-37.7V1421" fill-opacity="0" stroke-linejoin="round" stroke-linecap="round" stroke="#023470" stroke-width="3" id="path_79"/><path fill="#000000" d="M414.6,1421v15.7h-37.7M376.9,1421v-7.2M414.6,1413.8v7.2h-37.7M414.6,1399.1h-37.7M414.6,1399.1v14.7M414.6,1399.1h-37.7M477.9,1436.7h-37.6V1421" fill-opacity="0" stroke-linejoin="round" stroke-linecap="round" stroke="#023470" stroke-width="3" id="path_80"/><path fill="#000000" d="M477.9,1421v15.7h-37.6M440.3,1421v-7.2M477.9,1413.8v7.2h-37.6M477.9,1399.1h-37.6M477.9,1399.1v14.7M477.9,1399.1h-37.6M541.8,1436.7h-37.6V1421" fill-opacity="0" stroke-linejoin="round" stroke-linecap="round" stroke="#023470" stroke-width="3" id="path_81"/><path fill="#000000" d="M541.8,1421v15.7h-37.6M504.2,1421v-7.2M541.8,1413.8v7.2h-37.6M541.8,1399.1h-37.6M541.8,1399.1v14.7M541.8,1399.1h-37.6M605.7,1436.7H568V1421" fill-opacity="0" stroke-linejoin="round" stroke-linecap="round" stroke="#023470" stroke-width="3" id="path_82"/><path fill="#000000" d="M605.7,1421v15.7H568M568,1421v-7.2M605.7,1413.8v7.2H568M605.7,1399.1H568M605.7,1399.1v14.7M605.7,1399.1H568M670,1436.7h-38.1V1421" fill-opacity="0" stroke-linejoin="round" stroke-linecap="round" stroke="#023470" stroke-width="3" id="path_83"/><path fill="#000000" d="M670,1421v15.7h-38.1M631.9,1421v-7.2M670,1413.8v7.2h-38.1M670,1399.1h-38.1M670,1399.1v14.7M670,1399.1h-38.1M733.4,1436.7h-38.2V1421" fill-opacity="0" stroke-linejoin="round" stroke-linecap="round" stroke="#023470" stroke-width="3" id="path_84"/><path fill="#000000" d="M733.4,1421v15.7h-38.2M695.2,1421v-7.2M733.4,1413.8v7.2h-38.2M733.4,1399.1h-38.2M733.4,1399.1v14.7M733.4,1399.1h-38.2M796.7,1436.7h-37.6V1421" fill-opacity="0" stroke-linejoin="round" stroke-linecap="round" stroke="#023470" stroke-width="3" id="path_85"/><path fill="#000000" d="M796.7,1421v15.7h-37.6M759.1,1421v-7.2M796.7,1413.8v7.2h-37.6M796.7,1399.1h-37.6M796.7,1399.1v14.7M796.7,1399.1h-37.6M861.1,1436.7h-38.2V1421" fill-opacity="0" stroke-linejoin="round" stroke-linecap="round" stroke="#023470" stroke-width="3" id="path_86"/><path fill="#000000" d="M861.1,1421v15.7h-38.2M822.9,1421v-7.2M861.1,1413.8v7.2h-38.2M861.1,1399.1h-38.2M861.1,1399.1v14.7M861.1,1399.1h-38.2M924.4,1436.7h-37.6V1421" fill-opacity="0" stroke-linejoin="round" stroke-linecap="round" stroke="#023470" stroke-width="3" id="path_87"/><path fill="#000000" d="M924.4,1421v15.7h-37.6M886.8,1421v-7.2M924.4,1413.8v7.2h-37.6M924.4,1399.1h-37.6M924.4,1399.1v14.7M924.4,1399.1h-37.6M2081.9,1152.2v75.8h-15.7" fill-opacity="0" stroke-linejoin="round" stroke-linecap="round" stroke="#023470" stroke-width="3" id="path_88"/><path fill="#000000" d="M2066.2,1152.2h15.7v75.8M2066.2,1228h-7.2M2059,1152.2h7.2v75.8M2044.3,1152.2v75.8M2044.3,1152.2h14.7M2044.3,1152.2v75.8M1100.8,1320c0,1 0.9,1.9 1.9,1.9 1.1,0 1.9,-0.9 1.9,-1.9M1104.6,1320c0,-1.1 -0.8,-1.9 -1.9,-1.4 -1,-0.5 -1.9,0.4 -1.9,1.4M1130.8,1320c0.4,1 1.3,1.9 1.9,1.9 1.5,0 2.3,-0.9 1.9,-1.9M1134.6,1320c0.4,-1.1 -0.5,-1.9 -1.9,-1.4 -0.6,-0.5 -1.5,0.4 -1.9,1.4M1162.2,1320c0.2,1 1.1,1.9 1.9,1.9 1.2,0 2.1,-0.9 1.9,-1.9M1166,1320c0.2,-1.1 -0.7,-1.9 -1.9,-1.4 -0.8,-0.5 -1.7,0.4 -1.9,1.4M1236.6,1320c0.4,1 1.2,1.9 1.9,1.9 1.4,0 2.3,-0.9 1.9,-1.9M1240.4,1320c0.3,-1.1 -0.5,-1.9 -1.9,-1.4 -0.7,-0.5 -1.5,0.4 -1.9,1.4M1269.4,1320c0.3,1 1.2,1.9 1.9,1.9 1.4,0 2.2,-0.9 1.9,-1.9M1273.3,1320c0.3,-1.1 -0.5,-1.9 -1.9,-1.4 -0.7,-0.5 -1.6,0.4 -1.9,1.4M1302.3,1320c0.1,1 0.9,1.9 1.9,1.9 1.1,0 2,-0.9 1.9,-1.9M1306.1,1320c0.1,-1.1 -0.8,-1.9 -1.9,-1.4 -1,-0.5 -1.8,0.4 -1.9,1.4M1067.9,1291.4c0.4,0.6 1.3,1.4 1.9,1.4 1.5,0 2.3,-0.8 1.9,-1.4M1071.7,1291.4c0.4,-1.5 -0.4,-2.4 -1.9,-1.9 -0.6,-0.4 -1.5,0.4 -1.9,1.9M1330.4,1287.5c0,1 0.9,1.9 1.9,1.9 1,0 1.9,-0.9 1.4,-1.9M1333.8,1287.5c0.5,-1 -0.4,-1.9 -1.4,-1.4 -1,-0.5 -1.9,0.4 -1.9,1.4M1067.9,1255.6c0.4,0.7 1.3,1.5 1.9,1.9 1.5,-0.4 2.3,-1.2 1.9,-1.9M1071.7,1255.6c0.4,-1.4 -0.4,-2.3 -1.9,-1.9 -0.6,-0.4 -1.5,0.5 -1.9,1.9M1330.4,1251.8c0,0.7 0.9,1.5 1.9,1.9 1,-0.4 1.9,-1.2 1.4,-1.9M1333.8,1251.8c0.5,-1.4 -0.4,-2.3 -1.4,-1.9 -1,-0.4 -1.9,0.5 -1.9,1.9M1288.5,1057.9c0.5,0.9 1.3,1.8 1.9,1.9 1.5,-0.1 2.3,-1 1.9,-1.9M1292.3,1057.9c0.4,-1.2 -0.4,-2 -1.9,-1.9 -0.6,-0.1 -1.4,0.8 -1.9,1.9M1250.4,1057.9c0,0.9 0.9,1.8 1.9,1.9 1.1,-0.1 1.9,-1 1.9,-1.9M1254.2,1057.9c0,-1.2 -0.8,-2 -1.9,-1.9 -1,-0.1 -1.9,0.8 -1.9,1.9M1223.2,1057.9c0,0.9 0.9,1.8 1.9,1.9 1,-0.1 1.9,-1 1.4,-1.9M1226.6,1057.9c0.5,-1.2 -0.4,-2 -1.4,-1.9 -1,-0.1 -1.9,0.8 -1.9,1.9M1175.1,1057.9c0.4,0.9 1.2,1.8 1.9,1.9 1.4,-0.1 2.3,-1 1.9,-1.9M1178.9,1057.9c0.4,-1.2 -0.5,-2 -1.9,-1.9 -0.7,-0.1 -1.5,0.8 -1.9,1.9M1142.7,1057.9c0.2,0.9 1,1.8 1.9,1.9 1.2,-0.1 2.1,-1 1.9,-1.9M1146.5,1057.9c0.1,-1.2 -0.7,-2 -1.9,-1.9 -0.9,-0.1 -1.7,0.8 -1.9,1.9M1106,1057.9c0.3,0.9 1.1,1.8 1.9,1.9 1.3,-0.1 2.2,-1 1.9,-1.9M1109.8,1057.9c0.3,-1.2 -0.6,-2 -1.9,-1.9 -0.8,-0.1 -1.6,0.8 -1.9,1.9M1067.9,1089.8c0.4,0.7 1.3,1.6 1.9,1.9 1.5,-0.3 2.3,-1.2 1.9,-1.9M1071.7,1089.8c0.4,-1.4 -0.4,-2.2 -1.9,-1.9 -0.6,-0.3 -1.5,0.5 -1.9,1.9M1067.9,1122.7c0.4,1 1.3,1.8 1.9,1.9 1.5,-0.1 2.3,-1 1.9,-1.9M1071.7,1122.7c0.4,-1.1 -0.4,-2 -1.9,-1.9 -0.6,-0.1 -1.5,0.8 -1.9,1.9M1067.9,1155.1c0.4,1 1.3,1.9 1.9,1.9 1.5,0 2.3,-0.9 1.9,-1.9M1071.7,1155.1c0.4,-1.1 -0.4,-1.9 -1.9,-1.9 -0.6,0 -1.5,0.8 -1.9,1.9M1067.9,1218.9c0.4,0.8 1.3,1.6 1.9,1.9 1.5,-0.3 2.3,-1.1 1.9,-1.9M1071.7,1218.9c0.4,-1.3 -0.4,-2.2 -1.9,-1.9 -0.6,-0.2 -1.5,0.6 -1.9,1.9M1330.4,1218.9c0,0.7 0.9,1.5 1.9,1.9 1,-0.4 1.9,-1.2 1.4,-1.9M1333.8,1218.9c0.5,-1.4 -0.4,-2.3 -1.4,-1.9 -1,-0.4 -1.9,0.5 -1.9,1.9M1330.4,1157c0,0.8 0.9,1.6 1.9,1.9 1,-0.3 1.9,-1.1 1.4,-1.9M1333.8,1157c0.5,-1.3 -0.4,-2.2 -1.4,-1.9 -1,-0.3 -1.9,0.6 -1.9,1.9M1330.4,1125.1c0,0.7 0.9,1.5 1.9,1.9 1,-0.4 1.9,-1.2 1.4,-1.9M1333.8,1125.1c0.5,-1.4 -0.4,-2.3 -1.4,-1.9 -1,-0.4 -1.9,0.5 -1.9,1.9M1330.4,1093.1c0,0.6 0.9,1.4 1.9,1.9 1,-0.5 1.9,-1.3 1.4,-1.9M1333.8,1093.1c0.5,-1.5 -0.4,-2.3 -1.4,-1.9 -1,-0.4 -1.9,0.4 -1.9,1.9M1064.1,1059.3c0.2,2.2 2.3,4.3 4.8,4.3 2.8,0 4.9,-2.1 4.8,-4.3M1073.6,1059.3c0.1,-3 -2,-5.2 -4.8,-4.8 -2.4,-0.4 -4.5,1.7 -4.8,4.8M1064.5,1321.4c0.1,2.1 2.2,4.3 4.8,4.3 2.7,0 4.8,-2.1 4.8,-4.3M1074.1,1321.4c0,-3.1 -2.1,-5.2 -4.8,-4.8 -2.5,-0.4 -4.7,1.7 -4.8,4.8M1064.1,1190.3c0.1,2.2 2.2,4.4 4.8,4.8 2.6,-0.4 4.8,-2.5 4.3,-4.8M1073.1,1190.3c0.5,-3 -1.6,-5.1 -4.3,-4.8 -2.6,-0.3 -4.7,1.8 -4.8,4.8M1326.1,1321.4c0.1,2.3 2.2,4.4 4.8,4.8 2.7,-0.4 4.8,-2.5 4.8,-4.8M1335.7,1321.4c0,-3 -2.1,-5.1 -4.8,-4.8 -2.6,-0.3 -4.7,1.8 -4.8,4.8M1195.6,1126c0.1,2.3 2.2,4.4 4.8,4.8 2.7,-0.4 4.8,-2.5 4.8,-4.8M1205.1,1126c0,-2.9 -2.1,-5.1 -4.8,-4.8 -2.6,-0.3 -4.7,1.8 -4.8,4.8M1195.1,1059.3c0.4,2.3 2.5,4.4 4.8,4.8 2.9,-0.4 5.1,-2.5 4.8,-4.8M1204.6,1059.3c0.3,-2.9 -1.8,-5.1 -4.8,-4.8 -2.3,-0.3 -4.4,1.8 -4.8,4.8M1326.1,1059.3c0.4,2.3 2.6,4.4 4.8,4.8 3,-0.4 5.1,-2.5 4.8,-4.8M1335.7,1059.3c0.4,-3 -1.8,-5.1 -4.8,-4.8 -2.2,-0.3 -4.3,1.8 -4.8,4.8M1195.1,1321.4c0.3,2.2 2.4,4.4 4.8,4.8 2.8,-0.4 5,-2.5 4.8,-4.8M1204.6,1321.4c0.2,-3 -1.9,-5.1 -4.8,-4.8 -2.4,-0.3 -4.5,1.8 -4.8,4.8M1195.1,1255.1c0.4,2.3 2.5,4.4 4.8,4.8 3,-0.4 5.1,-2.5 4.8,-4.8M1204.6,1255.1c0.3,-2.9 -1.8,-5.1 -4.8,-4.8 -2.2,-0.3 -4.3,1.8 -4.8,4.8M1326.1,1190.3c0.3,2.2 2.4,4.3 4.8,4.8 2.8,-0.4 5,-2.6 4.8,-4.8M1335.7,1190.3c0.2,-3 -1.9,-5.1 -4.8,-4.8 -2.4,-0.4 -4.5,1.8 -4.8,4.8M534.2,1094.6v32.8M567.5,1094.6h-33.3M567.5,1127.4v-32.8M534.2,1127.4h33.3M534.2,1252.8v32.8M567.5,1252.8h-33.3M567.5,1285.6v-32.8M534.2,1285.6h33.3M733.4,1094.6v32.8M766.2,1094.6h-32.8M766.2,1127.4v-32.8M733.4,1127.4h32.8M733.4,1252.8v32.8M766.2,1252.8h-32.8M766.2,1285.6v-32.8M733.4,1285.6h32.8M1262.8,1625.9v32.9M1295.6,1625.9h-32.8M1295.6,1658.8v-32.9M1262.8,1658.8h32.8M1262.8,1812.2v33.3M1295.6,1812.2h-32.8M1295.6,1845.5v-33.3M1262.8,1845.5h32.8M1104.6,1625.4v33.4M1137.4,1625.4h-32.8M1137.4,1658.8v-33.4M1104.6,1658.8h32.8M1104.6,728.6v32.9M1137.4,728.6h-32.8M1137.4,761.5v-32.9M1104.6,761.5h32.8M1104.6,534.7V568M1137.4,534.7h-32.8M1137.4,568v-33.3M1104.6,568h32.8M1262.8,728.6v32.9M1295.6,728.6h-32.8M1295.6,761.5v-32.9M1262.8,761.5h32.8M1262.8,534.7V568M1295.6,534.7h-32.8M1295.6,568v-33.3M1262.8,568h32.8M1104.6,1812.7v32.8M1137.4,1812.7h-32.8M1137.4,1845.5v-32.8M1104.6,1845.5h32.8M1822.2,1252.8v32.8M1855.6,1252.8h-33.4M1855.6,1285.6v-32.8M1822.2,1285.6h33.4M1632.1,1094.6v32.8M1664.9,1094.6h-32.8M1664.9,1127.4v-32.8M1632.1,1127.4h32.8M1822.2,1094.6v32.8M1855.6,1094.6h-33.4M1855.6,1127.4v-32.8M1822.2,1127.4h33.4M1632.1,1252.8v32.8M1664.9,1252.8h-32.8M1664.9,1285.6v-32.8M1632.1,1285.6h32.8M1068.8,1262.8h262.1M1068.8,1065v22.9M1068.8,1091.2v30M1068.8,1124.6v29M1068.8,1157v28.6M1068.8,1195.1v22.4M1068.8,1220.4v33.3M1068.8,1257.1v32.4M1068.8,1292.8v23.8M1324.7,1090.7h-253M1330.9,1117.4h-262.1" fill-opacity="0" stroke-linejoin="round" stroke-linecap="round" stroke="#023470" stroke-width="3" id="path_89"/><path fill="#000000" d="m1071.2,1091.2 l11,2.9 8.1,2.4M1071.7,1089.8l10.5,-2.9 8.1,-2.3M1082.2,1063.6v53.8M1096.9,1063.6v53.8M1111.2,1063.6v53.8M1126,1063.6v53.8M1140.8,1063.6v53.8M1155.6,1063.6v53.8M1069.3,1063.6h129.6M1201.3,1063.6H1330M1324.7,1058.8h-32.4M1289,1058.8h-35.3M1250.4,1058.8h-23.8M1223.2,1058.8h-18.6M1195.1,1058.8h-16.2M1175.6,1058.8H1146M1143.2,1058.8h-33.9M1106.5,1058.8h-32.9M1068.8,1262.8l29.6,5.7 14.3,3.3 29.5,5.7 14.8,3.4 14.3,2.8 14.8,2.9 14.7,3.3 14.8,2.9 14.3,2.8 14.8,3.4 14.7,2.8 14.3,2.9 14.8,3.3 29.5,5.8 12.4,2.8h0.5,-261.6M1074.1,1321.4h26.7M1104.1,1321.4h27.2M1134.6,1321.4h28.1M1165.6,1321.4h29.5M1204.6,1321.4h32.4M1240.4,1321.4h29.5M1272.8,1321.4h29.5M1305.7,1321.4h20.4M1127.4,1274.7v41.9M1112.7,1271.8v44.8M1098.4,1268.5v48.1M1083.6,1265.6v51M1142.2,1277.5v39.1M1157,1280.9v35.7M1330.9,1064.1v27.1M1330.9,1094.6v28.6M1330.9,1126.5v29.1M1330.9,1158.4v27.2M1330.9,1195.1v21.9M1330.9,1220.4v29.5M1330.9,1253.2v32.9M1330.9,1289.5v27.1M1318,1316.6v-2.8M1303.3,1316.6v-5.7M1288.5,1316.6v-8.6M1273.7,1316.6v-11.9M1169.8,1063.6v53.8M1184.6,1063.6v53.8M1199.4,1064.1v53.3M1214.2,1063.6v53.8M1228.5,1063.6v53.8M1243.2,1063.6v53.8M1258,1063.6v53.8M1272.3,1063.6v53.8M1287.1,1063.6v53.8M1301.8,1063.6v53.8M1316.6,1063.6v53.8M1229.9,1295.6v21M1215.6,1292.8v23.8M1200.8,1289.5v27.1M1186.1,1286.6v30M1171.3,1283.7v32.9M1259.4,1301.8v14.8M1244.7,1298.5v18.1M534.2,1123.6H518M474.6,1123.6H374.5M374.5,1117.9h100.1M518,1117.9h16.2M474.6,1123.6v-5.7M518,1117.9v5.7M1167,981.1H991.2M953,981.1h-18.6M896.3,981.1h-25.7M833,981.1h-26.3M769.1,981.1h-26.2M705.2,981.1H679M641.4,981.1h-26.2M577.5,981.1h-26.2M513.7,981.1H488M449.8,981.1h-25.7M386,981.1h-30M348.8,943.5H386M424.1,943.5h25.7M488,943.5h25.7M551.3,943.5h26.2M615.2,943.5h26.2M679,943.5h26.2M742.9,943.5h26.2M806.7,943.5H833M870.6,943.5h25.7M934.4,943.5H953M991.2,943.5h113.4M1137.4,943.5h29.6M386,959.2v-15.7M386,981.1v-21.9M424.1,943.5v15.7M424.1,966.4v14.7M424.1,959.2v7.2M449.8,959.2v-15.7M449.8,981.1v-21.9M488,943.5v37.6M513.7,959.2v-15.7M513.7,981.1v-21.9M551.3,943.5v37.6M577.5,959.2v-15.7M577.5,981.1v-21.9M615.2,943.5v37.6M641.4,959.2v-15.7M641.4,981.1v-21.9M679,943.5v37.6M705.2,959.2v-15.7M705.2,981.1v-21.9M742.9,943.5v37.6M769.1,981.1v-37.6M806.7,943.5v37.6M833,981.1v-37.6M870.6,943.5v37.6M896.3,959.2v-15.7M896.3,981.1v-21.9M934.4,943.5v37.6M1167,981.1v-5.7M562.8,1399.1v-113.5M562.8,1252.8v-41M562.8,1168.4v-41M562.8,1094.6V981.1M567.5,1211.8h-4.7M562.8,1168.4h4.7M567.5,981.1v113.5M567.5,1127.4v41M567.5,1211.8v41M567.5,1285.6v113.5M567.5,1122.7H629M672.4,1122.7h61M766.2,1122.7h168.2M934.4,1127.4H766.2M733.4,1127.4h-61M629,1127.4h-61.5M629,1127.4v-4.7M672.4,1122.7v4.7M317.8,1419.5v-20.4M317.8,1152.7h14.8M332.6,1228h-14.8M356,1228h-23.4M332.6,1152.7H356M317.8,1399.1v-57.7M317.8,1257.5V1228M317.8,1152.7v-30M317.8,1038.8v-57.7M356,981.1v113.5M356,1127.4v25.3M356,1228v24.8M356,1285.6v113.5M317.8,981.1v-79.5h31v41.9M374.5,1127.4H356M356,1094.6h18.5v32.8M567.5,1252.8h61M671.9,1252.8h61.5M766.2,1252.8h62.5M872,1252.8h62.4M934.4,1257.5H872M828.7,1257.5h-62.5M733.4,1257.5h-61.5M628.5,1257.5h-61M628.5,1257.5v-4.7M671.9,1252.8v4.7M828.7,1257.5v-4.7M872,1252.8v4.7M356,1252.8h18.5M374.5,1285.6H356M374.5,1252.8v32.8M248.7,1115.5v-31.9M292.1,1115.5h-43.4M248.7,1083.6h43.4M317.8,1122.7h-25.7v-7.2M292.1,1083.6v-44.8h25.7M292.1,1257.5h25.7M292.1,1341.4v-44.8M292.1,1264.7v-7.2M317.8,1341.4h-25.7M248.7,1264.7h43.4M292.1,1296.6h-43.4v-31.9M953,1150.3v-22.9M953,1094.6V981.1M953,943.5v-19.1M953,886.8v-26.2M953,631.4v-25.3M953,568.5v-34.3M953,496.5v-25.2M953,433.2v-26.3M953,369.3v-30.5M953,822.9h14.8M967.8,860.6H953M953,886.8h14.8M967.8,924.4H953M953,496.5h16.2M969.2,534.2H953M969.2,406.9H953M953,369.3h16.2M953,433.2h16.2M969.2,471.3H953M953,568.5h16.2M953,695.7h14.8M967.8,733.4H953M967.8,796.7H953M953,759.1h14.8M969.2,606.1H953M953,631.4h16.2M969.2,669.5H953M991.2,406.9h-22M969.2,369.3h22M969.2,496.5h22M991.2,471.3h-22M969.2,433.2h22M991.2,534.2h-22M967.8,759.1h23.4M991.2,796.7h-23.4M967.8,695.7h23.4M991.2,860.6h-23.4M967.8,886.8h23.4M991.2,924.4h-23.4M967.8,822.9h23.4M969.2,631.4h22M991.2,669.5h-22M969.2,568.5h22M991.2,606.1h-22M991.2,733.4h-23.4M991.2,346v23.3M991.2,406.9v26.3M991.2,471.3v25.2M991.2,534.2v34.3M991.2,606.1v25.3M991.2,669.5v26.2M991.2,733.4v25.7M991.2,796.7v26.2M991.2,860.6v26.2M991.2,924.4v19.1M991.2,981.1v169.2M934.4,1094.6H953M953,1127.4h-18.6v-32.8M745.3,1016.4h4.7M750,1060.2h-4.7M745.3,1016.4v-35.3M750,981.1v35.3M750,1060.2v34.4M1157.9,924.4v-50M1157.9,831v-69.5M1157.9,756.7v-23.3M1157.9,728.6V670M1157.9,626.6V568M1157.9,563.2v-23.8M1157.9,626.6h4.8M1162.7,670h-4.8M1157.9,831h4.8M1162.7,874.4h-4.8M1162.7,539.4v87.2M1162.7,670v161M1162.7,874.4v69.1M1104.6,943.5v-19.1h32.8v19.1M953,1228.9h38.2M953,2041.4v-26.2M953,1977.5v-26.2M953,1913.7v-25.3M953,1850.3v-26.2M953,1786v-25.7M953,1722.6v-25.7M953,1655.9v-25.7M953,1587.8v-26.3M953,1523.4v-25.7M953,1460v-23.3M953,1399.1v-28.6M953,1313.8v-28.2M953,1252.8v-23.9M991.2,1370.5H953M953,1313.8h38.2M953,1523.4h14.8M953,1460h14.8M967.8,1497.7H953M991.2,1951.3H953M953,1913.7h38.2M953,1977.5h38.2M991.2,2015.2H953M953,1722.6h14.8M967.8,1760.3H953M967.8,1561.5H953M967.8,1888.4H953M953,1850.3h14.8M967.8,1630.2H953M953,1587.8h14.8M953,1786h14.8M967.8,1824.1H953M953,1655.9h14.8M967.8,1696.9H953M967.8,1523.4h23.4M991.2,1760.3h-23.4M991.2,1497.7h-23.4M991.2,1824.1h-23.4M967.8,1460h23.4M991.2,1696.9h-23.4M991.2,1561.5h-23.4M967.8,1587.8h23.4M991.2,1630.2h-23.4M967.8,1722.6h23.4M967.8,1655.9h23.4M967.8,1850.3h23.4M967.8,1786h23.4M991.2,1888.4h-23.4M991.2,1583.5v-4.8M991.2,1228.9v84.9M991.2,1370.5v28.6M991.2,1436.7v23.3M991.2,1497.7v25.7M991.2,1561.5v17.2M991.2,1583.5v4.3M991.2,1630.2v25.7M991.2,1696.9v25.7M991.2,1760.3v25.7M991.2,1824.1v26.2M991.2,1888.4v25.3M991.2,1951.3v26.2M991.2,2015.2v19.1M953,1150.3v-17.6M953,1151.3v-1M991.2,1151.3H953M991.2,1132.7v18.6M934.4,1252.8H953M934.4,1285.6v-32.8M953,1285.6h-18.6M733.4,1399.1v-113.5M737.6,1285.6v113.5M1137.4,1455.8h-32.8v-19.1M1137.4,1436.7v19.1M991.2,1150.3v1M1238.9,1404.8h-15.7M1176,1404.8h-14.7M1161.3,1399.1h14.7M1223.2,1399.1h15.7M1176,1404.8v-5.7M1223.2,1399.1v5.7M1137.4,1455.8h-4.7M1132.7,1460.5h4.7M1132.7,1578.7v-74.8M1132.7,1460.5v-4.7M1137.4,1503.9h-4.7M1137.4,1455.8v4.7M1137.4,1503.9v11.4M1137.4,1520.1v63.4M1137.4,924.4h20.5M1137.4,1515.3h41M1221.8,1515.3h41M1262.8,1520.1h-41M1178.4,1520.1h-41M1178.4,1520.1v-4.8M1221.8,1515.3v4.8M1262.8,1625.9v-105.8M1262.8,1515.3v-59.5M1267.5,1455.8v170.1M1262.8,1455.8h4.7M1262.8,1455.8v-19.1M1295.6,1436.7v19.1M1238.9,1399.1v5.7M2051.4,1436.7h-31M1982.8,1436.7h-26.2M1918.9,1436.7h-25.2M1855.6,1436.7h-25.8M1785,1436.7h-26.2M1720.7,1436.7H1695M1656.8,1436.7h-25.2M1593.9,1436.7h-27.1M1529.1,1436.7h-26.2M1465.3,1436.7h-18.6M1409.1,1436.7h-113.5M1262.8,1436.7h-23.9v-31.9M1238.9,1399.1h170.2M1446.7,1399.1h18.6M1502.9,1399.1h26.2M1566.8,1399.1h27.1M1631.6,1399.1h25.2M1695,1399.1h25.7M1758.8,1399.1h26.2M1829.8,1399.1h25.8M1893.7,1399.1h25.2M1956.6,1399.1h26.2M2020.4,1399.1h23.9M1465.3,1436.7v-37.6M1502.9,1413.8v7.2M1502.9,1399.1v14.7M1502.9,1421v15.7M1529.1,1413.8v-14.7M1529.1,1436.7v-22.9M1566.8,1399.1v14.7M1566.8,1421v15.7M1566.8,1413.8v7.2M1593.9,1413.8v-14.7M1593.9,1436.7v-22.9M1631.6,1399.1v37.6M1656.8,1436.7v-37.6M1695,1399.1v14.7M1695,1421v15.7M1695,1413.8v7.2M1720.7,1436.7v-37.6M1758.8,1399.1v14.7M1758.8,1421v15.7M1758.8,1413.8v7.2M1785,1436.7V1421M1785,1413.8v-14.7M1785,1421v-7.2M1829.8,1399.1v37.6M1855.6,1413.8v-14.7M1855.6,1421v-7.2M1855.6,1436.7V1421M1893.7,1399.1v37.6M1918.9,1413.8v-14.7M1918.9,1421v-7.2M1918.9,1436.7V1421M1956.6,1421v15.7M1956.6,1413.8v7.2M1956.6,1399.1v14.7M1982.8,1413.8v-14.7M1982.8,1436.7v-22.9M2020.4,1413.8v7.2M2020.4,1399.1v14.7M2020.4,1421v15.7M994.5,2072.4H953M1409.1,2072.4h-57.7M1267.5,2072.4h-30M1161.7,2072.4h-29M1048.8,2072.4h-54.3M991.2,2034.3h113.4M1137.4,2034.3h24.3M1237.5,2034.3h25.3M1295.6,2034.3h113.5M1161.7,2072.4v-38.1M1237.5,2057.6v14.8M1237.5,2034.3v23.3M1409.1,1630.6h-34.8M1330.4,1630.6h-34.8M1295.6,1625.9h34.8M1374.3,1625.9h34.8M1330.4,1630.6v-4.7M1374.3,1625.9v4.7M1262.8,2034.3v-18.6h32.8v18.6M1306.6,2141.5h-32.4v-43.4M1306.6,2098.1v43.4M1267.5,2098.1v-25.7M1351.4,2098.1h-44.8M1274.2,2098.1h-6.7M1351.4,2072.4v25.7M1137.4,1583.5H991.2M991.2,1578.7h141.5M1233.2,975.4v5.7M1233.2,975.4v-31.9h29.6M1295.6,943.5h113.5M1409.1,539.4h-113.5M1262.8,539.4h-22.9M1235.1,539.4h-13.3M1178.4,539.4h-15.7M1157.9,539.4h-20.5M1104.6,539.4H991.2M991.2,534.7h113.4M1137.4,534.7h41M1221.8,534.7h41M1295.6,534.7h113.5M1178.4,539.4v-4.7M1221.8,534.7v4.7M991.2,733.4h113.4M1104.6,738.6H991.2M1137.4,756.7h20.5M1157.9,761.5h-20.5M1137.4,728.6h20.5M1157.9,733.4h-20.5M1235.1,943.5v-69.6M1235.1,830.6V645.7M1235.1,602.3v-62.9M1239.9,873.9h-4.8M1235.1,830.6h4.8M1239.9,645.7h-4.8M1235.1,602.3h4.8M1239.9,539.4v23.8M1239.9,568v34.3M1239.9,645.7v82.9M1239.9,733.4v23.3M1239.9,761.5v69.1M1239.9,873.9v69.6M1262.8,943.5v-19.1h32.8v19.1M1295.6,728.6h113.5M1409.1,739.1h-113.5M1262.8,733.4h-22.9M1239.9,728.6h22.9M1262.8,568h-22.9M1239.9,563.2h22.9M1409.1,346h-113.5M1262.8,346H1238M1162.2,346h-24.8M1104.6,346H991.2M991.2,307.8h57.6M1132.7,307.8h29.5M1238,307.8h29.5M1351.4,307.8h57.7M1162.2,346v-38.2M1238,331.2V346M1238,307.8v23.4M1409.1,307.8V346M911.6,307.8h79.6M953,338.8h-41.4v-31M1104.6,364.5V346M1137.4,364.5h-32.8M1137.4,346v18.5M1295.6,364.5h-32.8V346M1295.6,346v18.5M1274.2,238.7h32.4M1274.2,282.1v-43.4M1306.6,238.7v43.4M1104.6,2034.3v-18.6h32.8v18.6M1048.8,2098.1v-25.7M1132.7,2098.1h-7.2M1093.6,2098.1h-44.8M1132.7,2072.4v25.7M911.6,2072.4v-31H953M994.5,2072.4h-82.9M1048.8,282.1h44.8M1125.5,282.1h7.2M1048.8,307.8v-25.7M1132.7,282.1v25.7M1093.6,282.1v-43.4h31.9v43.4M1267.5,307.8v-25.7h6.7M1306.6,282.1h44.8v25.7M1446.7,1252.8h19.1M1465.8,1285.6h-19.1M1465.8,1257.5v-4.7M1465.8,1257.5v28.1M1423.8,1696.9h-14.7M1409.1,1658.8h14.7M1409.1,1908.9h14.7M1423.8,1946.6h-14.7M1409.1,1228.9h37.6M1409.1,1460.5h15.7M1424.8,1498.6h-15.7M1424.8,1460.5h21.9M1409.1,2034.3v-23.4M1409.1,1973.3v-26.7M1409.1,1908.9v-25.7M1409.1,1845.1v-25.8M1409.1,1786.5v-25.3M1409.1,1723.1v-26.2M1409.1,1658.8v-33.4M1409.1,1587.8v-25.3M1409.1,1524.9v-26.3M1409.1,1460.5v-23.8M1409.1,1399.1v-170.2M1409.1,1786.5h14.7M1423.8,1819.3h-14.7M1423.8,1761.2h-14.7M1409.1,1723.1h14.7M1446.7,2010.9h-37.6M1409.1,1973.3h37.6M1423.8,1908.9h22.9M1423.8,1883.2h-14.7M1409.1,1845.1h14.7M1409.1,1587.8h37.6M1446.7,1761.2h-22.9M1424.8,1562.5h-15.7M1409.1,1524.9h15.7M1446.7,1625.4h-37.6M1423.8,1723.1h22.9M1446.7,1696.9h-22.9M1423.8,1658.8h22.9M1446.7,1946.6h-22.9M1423.8,1845.1h22.9M1446.7,1883.2h-22.9M1446.7,1562.5h-21.9M1446.7,1819.3h-22.9M1446.7,1498.6h-21.9M1423.8,1786.5h22.9M1424.8,1524.9h21.9M1446.7,1228.9v23.9M1446.7,1285.6v113.5M1446.7,1436.7v23.8M1446.7,1498.6v26.3M1446.7,1562.5v25.3M1446.7,1625.4v33.4M1446.7,1696.9v26.2M1446.7,1761.2v25.3M1446.7,1819.3v25.8M1446.7,1883.2v25.7M1446.7,1946.6v26.7M1446.7,2010.9v30.5M1488.2,2072.4h-79.1M1446.7,2041.4h41.5v31M1850.8,1252.8v-125.4M1855.6,1127.4v125.4M1465.8,1252.8h12.8M1522,1252.8h110.1M1664.9,1252.8h24.4M1732.6,1252.8h25.7M1763.1,1252.8h59.1M1822.2,1257.5h-89.6M1689.3,1257.5h-24.4M1632.1,1257.5H1522M1478.6,1257.5h-12.8M1478.6,1257.5v-4.7M1522,1252.8v4.7M1689.3,1257.5v-4.7M1732.6,1252.8v4.7M1855.6,1280.9h63.8M1962.8,1280.9h62.4M2025.2,1285.6h-62.4M1919.4,1285.6h-63.8M1919.4,1285.6v-4.7M1962.8,1280.9v4.7M1446.7,1094.6h19.1M1465.8,1127.4h-19.1M1465.8,1094.6v32.8M1758.3,1252.8v-41M1758.3,1168.4v-41M1758.3,1168.4h4.8M1763.1,1211.8h-4.8M1763.1,1127.4v41M1763.1,1211.8v41M1465.8,1122.7h12.4M1521.5,1122.7h110.6M1664.9,1122.7h25.3M1733.6,1122.7h88.6M1822.2,1127.4h-59.1M1758.3,1127.4h-24.7M1690.2,1127.4h-25.3M1632.1,1127.4h-110.6M1478.2,1127.4h-12.4M1478.2,1127.4v-4.7M1521.5,1122.7v4.7M1690.2,1127.4v-4.7M1733.6,1122.7v4.7M1409.1,1151.3h5.7M1409.1,1151.3V981.1M1446.7,1151.3h-31.9M1446.7,981.1v113.5M1446.7,1127.4v23.9M1635.9,1399.1v-113.5M1640.6,1285.6v113.5M2025.2,1280.9v4.7M2025.2,1280.9v-28.1M2044.3,1285.6h-19.1M1855.6,1094.6h169.6M2025.2,1099.3h-169.6M2025.2,1094.6v4.7M1635.9,1094.6V981.1M1640.6,981.1v113.5M1839.4,1031.7h4.7M1844.1,1075h-4.7M1839.4,1031.7v-50.6M1844.1,981.1v50.6M1844.1,1075v19.6M2044.3,981.1h-23.4M1982.8,981.1h-26.2M1918.9,981.1h-26.2M1855.1,981.1h-25.8M1785,981.1h-26.2M1721.2,981.1H1694M1656.4,981.1h-25.8M1593,981.1h-25.7M1529.6,981.1h-26.7M1465.3,981.1h-18.6M1446.7,943.5h18.6M1502.9,943.5h26.7M1567.3,943.5h25.7M1630.6,943.5h25.8M1694,943.5h27.2M1758.8,943.5h26.2M1829.3,943.5h25.8M1892.7,943.5h26.2M1956.6,943.5h26.2M2020.9,943.5h30.5M1465.3,957.8v-14.3M1465.3,965.4v-7.6M1465.3,981.1v-15.7M1502.9,965.4v15.7M1502.9,957.8v7.6M1502.9,943.5v14.3M1529.6,957.8v-14.3M1529.6,965.4v-7.6M1529.6,981.1v-15.7M1567.3,965.4v15.7M1567.3,957.8v7.6M1567.3,943.5v14.3M1593,957.8v-14.3M1593,981.1v-23.3M1630.6,965.4v15.7M1630.6,957.8v7.6M1630.6,943.5v14.3M1656.4,981.1v-37.6M1694,957.8v7.6M1694,943.5v14.3M1694,965.4v15.7M1721.2,981.1v-37.6M1758.8,943.5v37.6M1785,981.1v-37.6M1829.3,965.4v15.7M1829.3,943.5v21.9M1855.1,965.4v-21.9M1855.1,981.1v-15.7M1892.7,965.4v15.7M1892.7,943.5v21.9M1918.9,981.1v-37.6M1956.6,965.4v15.7M1956.6,943.5v21.9M1982.8,957.8v-14.3M1982.8,981.1v-23.3M2020.9,965.4v15.7M2020.9,943.5v21.9M1409.1,497h14.7M1423.8,534.7h-14.7M1423.8,863h-14.7M1409.1,824.9h14.7M1409.1,369.3h14.7M1423.8,470.8h-14.7M1409.1,729.1v10M1409.1,433.2h14.7M1409.1,888.2h14.7M1423.8,925.9h-14.7M1409.1,760.5h37.6M1446.7,925.9h-22.9M1446.7,798.6h-37.6M1446.7,601.4h-37.6M1409.1,563.7h37.6M1423.8,497h22.9M1446.7,534.7h-22.9M1409.1,690.9h37.6M1446.7,729.1h-37.6M1446.7,664.3h-37.6M1409.1,626.6h37.6M1446.7,863h-22.9M1423.8,888.2h22.9M1423.8,824.9h22.9M1409.1,534.7v4.7M1409.1,346h37.6M1409.1,943.5v-17.6M1409.1,888.2V863M1409.1,824.9v-26.3M1409.1,760.5v-21.4M1409.1,690.9v-26.6M1409.1,626.6v-25.2M1409.1,563.7v-24.3M1409.1,534.7h0M1409.1,497v-26.2M1409.1,433.2v-25.8M1409.1,369.3V346M1446.7,470.8h-22.9M1423.8,433.2h22.9M1446.7,407.4h-37.6M1423.8,369.3h22.9M1446.7,407.4v25.8M1446.7,470.8V497M1446.7,534.7v29M1446.7,601.4v25.2M1446.7,664.3v26.6M1446.7,729.1v31.4M1446.7,798.6v26.3M1446.7,863v25.2M1446.7,925.9v17.6M2025.2,1094.6v4.7M2025.2,1094.6h19.1M2025.2,1127.4v-28.1M2108.1,1083.6h43.4M2151.5,1115.5h-43.4M2151.5,1083.6v31.9M2051.4,943.5v-41.9h30.5v79.5M1428.6,307.8h59.6M1428.6,338.8v-31M1488.2,338.8h-59.6M1488.2,307.8v31M1093.6,2141.5v-43.4M1125.5,2141.5h-31.9M1125.5,2098.1v43.4M2051.4,1478.6v-41.9M2081.9,1478.6h-30.5M2081.9,1399.1v79.5M2108.1,1122.7h-26.2M2081.9,1038.8h26.2v44.8M2108.1,1115.5v7.2M2108.1,1264.7h43.4M2151.5,1296.6h-43.4M2151.5,1264.7v31.9M2081.9,1257.5h26.2M2108.1,1341.4h-26.2M2108.1,1257.5v7.2M2108.1,1296.6v44.8M356,1399.1h20.9M414.6,1399.1h25.7M477.9,1399.1h26.3M541.8,1399.1H568M605.7,1399.1h26.2M670,1399.1h25.2M733.4,1399.1h25.7M796.7,1399.1h26.2M861.1,1399.1h25.7M924.4,1399.1H953M991.2,1399.1h170.1M1161.3,1436.7h-23.9M1104.6,1436.7H991.2M953,1436.7h-28.6M886.8,1436.7h-25.7M822.9,1436.7h-26.2M759.1,1436.7h-25.7M695.2,1436.7H670M631.9,1436.7h-26.2M568,1436.7h-26.2M504.2,1436.7h-26.3M440.3,1436.7h-25.7M376.9,1436.7h-28.1M376.9,1413.8v-14.7M376.9,1436.7v-22.9M414.6,1413.8v22.9M414.6,1399.1v14.7M440.3,1413.8v-14.7M440.3,1421v-7.2M440.3,1436.7V1421M477.9,1399.1v37.6M504.2,1413.8v-14.7M504.2,1421v-7.2M504.2,1436.7V1421M541.8,1399.1v37.6M568,1436.7v-37.6M605.7,1413.8v7.2M605.7,1399.1v14.7M605.7,1421v15.7M631.9,1436.7v-37.6M670,1413.8v7.2M670,1399.1v14.7M670,1421v15.7M695.2,1413.8v-14.7M695.2,1436.7v-22.9M733.4,1399.1v37.6M759.1,1436.7v-37.6M796.7,1413.8v7.2M796.7,1399.1v14.7M796.7,1421v15.7M822.9,1413.8v-14.7M822.9,1436.7v-22.9M861.1,1399.1v37.6M886.8,1436.7v-37.6M924.4,1399.1v37.6M1161.3,1404.8v-5.7M1161.3,1404.8v31.9M317.8,1478.6v-79.5M348.8,1478.6h-31M348.8,1436.7v41.9M1161.3,1436.7h77.6M1132.7,1527.7h-5.7M1090.7,1527.7h-10.9M1043.6,1527.7h-10.5M1085.5,1527.7v51M1038.3,1527.7v51M1137.4,563.2h20.5M1157.9,568h-20.5M1262.8,761.5h-22.9M1239.9,756.7h22.9M2044.3,1152.2h37.6M2044.3,1399.1v-113.5M2044.3,1228h0M2044.3,1094.6V981.1M2081.9,1228h-37.6M2081.9,969.2v69.6M2081.9,1122.7v29.5M2081.9,1228v29.5M2081.9,1341.4v57.7M2025.2,1228v24.8M2025.2,1127.4v24.8M2044.3,1228h-19.1M2025.2,1152.2h19.1" fill-opacity="0" stroke-linejoin="round" stroke-linecap="round" stroke="#023470" stroke-width="3" id="path_90"/><path fill="#000000" d="M912.5,303.5h136.8v-25.7h44.8v-43.9h32.4v43.9h7.1v25.7H1268v-25.7h7.2v-43.9h31.9v43.9h45.3l0.6,25.7h136.1v31h-41.4v604.2h604.7v-41.5h30.5v137.3h25.7v44.8h43.8v31.9h-43.8v7.1h-25.7v134.4h25.7v7.2h43.8v32.4h-43.8v44.8h-25.7v136.7h-30.5v-41.4h-604.7v605.4l41.4,-0.7v30.5h-136.7v26.2h-45.3v43.3h-31.9v-43.3h-7.2v-26.2h-134.4v26.2h-7.1v43.3h-32.4v-43.3h-44.8v-26.2H912.5v-30.5H954v-604.7H349.3v41.4h-30.5v-136.7h-26.2v-44.8h-43.4v-32.4h43.4v-7.2h26.2v-134.4h-26.2v-7.1h-43.4v-31.9h43.4v-44.8h26.2V897.2h30.5v41.5H954V334.5h-41.5z" fill-opacity="0" stroke-linejoin="round" stroke-linecap="round" stroke="#023470" stroke-width="30" id="path_91"/></svg>