<svg id="vector" xmlns="http://www.w3.org/2000/svg" width="2364" height="2364" viewBox="0 0 2364 2364"><path fill="#000000" d="M989.7,1467.2v37.6H974" fill-opacity="0" stroke-linejoin="round" stroke-linecap="round" stroke="#023470" stroke-width="3" id="path_0"/><path fill="#000000" d="M974,1467.2h15.7v37.6M974,1504.8h-7.1M966.9,1467.2h7.1v37.6M952.1,1467.2v37.6M952.1,1467.2h14.8M952.1,1467.2v37.6M989.7,1530.6v37.6H974" fill-opacity="0" stroke-linejoin="round" stroke-linecap="round" stroke="#023470" stroke-width="3" id="path_1"/><path fill="#000000" d="M974,1530.6h15.7v37.6M974,1568.2h-7.1M966.9,1530.6h7.1v37.6M952.1,1530.6v37.6M952.1,1530.6h14.8M952.1,1530.6v37.6M989.7,1594.9v37.6H974" fill-opacity="0" stroke-linejoin="round" stroke-linecap="round" stroke="#023470" stroke-width="3" id="path_2"/><path fill="#000000" d="M974,1594.9h15.7v37.6M974,1632.5h-7.1M966.9,1594.9h7.1v37.6M952.1,1594.9v37.6M952.1,1594.9h14.8M952.1,1594.9v37.6M989.7,1657.8v38.1H974" fill-opacity="0" stroke-linejoin="round" stroke-linecap="round" stroke="#023470" stroke-width="3" id="path_3"/><path fill="#000000" d="M974,1657.8h15.7v38.1M974,1695.9h-7.1M966.9,1657.8h7.1v38.1M952.1,1657.8v38.1M952.1,1657.8h14.8M952.1,1657.8v38.1M989.7,1785v37.7H974" fill-opacity="0" stroke-linejoin="round" stroke-linecap="round" stroke="#023470" stroke-width="3" id="path_4"/><path fill="#000000" d="M974,1785h15.7v37.7M974,1822.7h-7.1M966.9,1785h7.1v37.7M952.1,1785v37.7M952.1,1785h14.8M952.1,1785v37.7M989.7,1849.4v37.6H974" fill-opacity="0" stroke-linejoin="round" stroke-linecap="round" stroke="#023470" stroke-width="3" id="path_5"/><path fill="#000000" d="M974,1849.4h15.7v37.6M974,1887h-7.1M966.9,1849.4h7.1v37.6M952.1,1849.4v37.6M952.1,1849.4h14.8M952.1,1849.4v37.6M989.7,1912.7v37.7H974" fill-opacity="0" stroke-linejoin="round" stroke-linecap="round" stroke="#023470" stroke-width="3" id="path_6"/><path fill="#000000" d="M974,1912.7h15.7v37.7M974,1950.4h-7.1M966.9,1912.7h7.1v37.7M952.1,1912.7v37.7M952.1,1912.7h14.8M952.1,1912.7v37.7M989.7,1976.6v37.6H974" fill-opacity="0" stroke-linejoin="round" stroke-linecap="round" stroke="#023470" stroke-width="3" id="path_7"/><path fill="#000000" d="M974,1976.6h15.7v37.6M974,2014.2h-7.1M966.9,1976.6h7.1v37.6M952.1,1976.6v37.6M952.1,1976.6h14.8M952.1,1976.6v37.6M936.4,1435.7h-66.3V1420" fill-opacity="0" stroke-linejoin="round" stroke-linecap="round" stroke="#023470" stroke-width="3" id="path_8"/><path fill="#000000" d="M936.4,1420v15.7h-66.3M870.1,1420v-7.1M936.4,1412.9v7.1h-66.3M936.4,1398.1h-66.3M936.4,1398.1v14.8M936.4,1398.1h-66.3M836.8,1435.7h-66.3V1420" fill-opacity="0" stroke-linejoin="round" stroke-linecap="round" stroke="#023470" stroke-width="3" id="path_9"/><path fill="#000000" d="M836.8,1420v15.7h-66.3M770.5,1420v-7.1M836.8,1412.9v7.1h-66.3M836.8,1398.1h-66.3M836.8,1398.1v14.8M836.8,1398.1h-66.3M736.2,1435.7h-65.7V1420" fill-opacity="0" stroke-linejoin="round" stroke-linecap="round" stroke="#023470" stroke-width="3" id="path_10"/><path fill="#000000" d="M736.2,1420v15.7h-65.7M670.5,1420v-7.1M736.2,1412.9v7.1h-65.7M736.2,1398.1h-65.7M736.2,1398.1v14.8M736.2,1398.1h-65.7M538.9,1435.7h-66.2V1420" fill-opacity="0" stroke-linejoin="round" stroke-linecap="round" stroke="#023470" stroke-width="3" id="path_11"/><path fill="#000000" d="M538.9,1420v15.7h-66.2M472.7,1420v-7.1M538.9,1412.9v7.1h-66.2M538.9,1398.1h-66.2M538.9,1398.1v14.8M538.9,1398.1h-66.2M438.9,1435.7h-66.3V1420" fill-opacity="0" stroke-linejoin="round" stroke-linecap="round" stroke="#023470" stroke-width="3" id="path_12"/><path fill="#000000" d="M438.9,1420v15.7h-66.3M372.6,1420v-7.1M438.9,1412.9v7.1h-66.3M438.9,1398.1h-66.3M438.9,1398.1v14.8M438.9,1398.1h-66.3M1239.4,1538.2h-2.4M1239.4,1480.1v58.1M1237,1480.1h2.4v58.1M1237,1538.2h-0.9M1236.1,1480.1h0.9M1236.1,1538.2h-2.4M1233.7,1480.1h2.4M1233.7,1480.1v58.1M1236.6,1480.1v58.1M1502,1435.7h-38.1V1420" fill-opacity="0" stroke-linejoin="round" stroke-linecap="round" stroke="#023470" stroke-width="3" id="path_13"/><path fill="#000000" d="M1502,1420v15.7h-38.1M1463.9,1420v-7.1M1502,1412.9v7.1h-38.1M1502,1398.1h-38.1M1502,1398.1v14.8M1502,1398.1h-38.1M1565.4,1435.7h-37.7V1420" fill-opacity="0" stroke-linejoin="round" stroke-linecap="round" stroke="#023470" stroke-width="3" id="path_14"/><path fill="#000000" d="M1565.4,1420v15.7h-37.7M1527.7,1420v-7.1M1565.4,1412.9v7.1h-37.7M1565.4,1398.1h-37.7M1565.4,1398.1v14.8M1565.4,1398.1h-37.7M1630.2,1435.7h-37.7V1420" fill-opacity="0" stroke-linejoin="round" stroke-linecap="round" stroke="#023470" stroke-width="3" id="path_15"/><path fill="#000000" d="M1630.2,1420v15.7h-37.7M1592.5,1420v-7.1M1630.2,1412.9v7.1h-37.7M1630.2,1398.1h-37.7M1630.2,1398.1v14.8M1630.2,1398.1h-37.7M1693.5,1435.7h-37.6V1420" fill-opacity="0" stroke-linejoin="round" stroke-linecap="round" stroke="#023470" stroke-width="3" id="path_16"/><path fill="#000000" d="M1693.5,1420v15.7h-37.6M1655.9,1420v-7.1M1693.5,1412.9v7.1h-37.6M1693.5,1398.1h-37.6M1693.5,1398.1v14.8M1693.5,1398.1h-37.6M1757.4,1435.7h-37.7V1420" fill-opacity="0" stroke-linejoin="round" stroke-linecap="round" stroke="#023470" stroke-width="3" id="path_17"/><path fill="#000000" d="M1757.4,1420v15.7h-37.7M1719.7,1420v-7.1M1757.4,1412.9v7.1h-37.7M1757.4,1398.1h-37.7M1757.4,1398.1v14.8M1757.4,1398.1h-37.7M1821.2,1435.7h-37.6V1420" fill-opacity="0" stroke-linejoin="round" stroke-linecap="round" stroke="#023470" stroke-width="3" id="path_18"/><path fill="#000000" d="M1821.2,1420v15.7h-37.6M1783.6,1420v-7.1M1821.2,1412.9v7.1h-37.6M1821.2,1398.1h-37.6M1821.2,1398.1v14.8M1821.2,1398.1h-37.6M1885.6,1435.7h-37.7V1420" fill-opacity="0" stroke-linejoin="round" stroke-linecap="round" stroke="#023470" stroke-width="3" id="path_19"/><path fill="#000000" d="M1885.6,1420v15.7h-37.7M1847.9,1420v-7.1M1885.6,1412.9v7.1h-37.7M1885.6,1398.1h-37.7M1885.6,1398.1v14.8M1885.6,1398.1h-37.7M1948.5,1435.7h-37.7V1420" fill-opacity="0" stroke-linejoin="round" stroke-linecap="round" stroke="#023470" stroke-width="3" id="path_20"/><path fill="#000000" d="M1948.5,1420v15.7h-37.7M1910.8,1420v-7.1M1948.5,1412.9v7.1h-37.7M1948.5,1398.1h-37.7M1948.5,1398.1v14.8M1948.5,1398.1h-37.7M2012.3,1435.7h-37.6V1420" fill-opacity="0" stroke-linejoin="round" stroke-linecap="round" stroke="#023470" stroke-width="3" id="path_21"/><path fill="#000000" d="M2012.3,1420v15.7h-37.6M1974.7,1420v-7.1M2012.3,1412.9v7.1h-37.6M2012.3,1398.1h-37.6M2012.3,1398.1v14.8M2012.3,1398.1h-37.6M1445.8,1976.6v37.6H1430" fill-opacity="0" stroke-linejoin="round" stroke-linecap="round" stroke="#023470" stroke-width="3" id="path_22"/><path fill="#000000" d="M1430,1976.6h15.8v37.6M1430,2014.2h-7.6M1422.4,1976.6h7.6v37.6M1407.6,1976.6v37.6M1407.6,1976.6h14.8M1407.6,1976.6v37.6M1445.8,1913.7v37.6H1430" fill-opacity="0" stroke-linejoin="round" stroke-linecap="round" stroke="#023470" stroke-width="3" id="path_23"/><path fill="#000000" d="M1430,1913.7h15.8v37.6M1430,1951.3h-7.6M1422.4,1913.7h7.6v37.6M1407.6,1913.7v37.6M1407.6,1913.7h14.8M1407.6,1913.7v37.6M1445.8,1850.3v37.7H1430" fill-opacity="0" stroke-linejoin="round" stroke-linecap="round" stroke="#023470" stroke-width="3" id="path_24"/><path fill="#000000" d="M1430,1850.3h15.8v37.7M1430,1888h-7.6M1422.4,1850.3h7.6v37.7M1407.6,1850.3v37.7M1407.6,1850.3h14.8M1407.6,1850.3v37.7M1445.8,1786v37.6H1430" fill-opacity="0" stroke-linejoin="round" stroke-linecap="round" stroke="#023470" stroke-width="3" id="path_25"/><path fill="#000000" d="M1430,1786h15.8v37.6M1430,1823.6h-7.6M1422.4,1786h7.6v37.6M1407.6,1786v37.6M1407.6,1786h14.8M1407.6,1786v37.6M1445.8,1722.1v37.7H1430" fill-opacity="0" stroke-linejoin="round" stroke-linecap="round" stroke="#023470" stroke-width="3" id="path_26"/><path fill="#000000" d="M1430,1722.1h15.8v37.7M1430,1759.8h-7.6M1422.4,1722.1h7.6v37.7M1407.6,1722.1v37.7M1407.6,1722.1h14.8M1407.6,1722.1v37.7M1445.8,1657.8v37.6H1430" fill-opacity="0" stroke-linejoin="round" stroke-linecap="round" stroke="#023470" stroke-width="3" id="path_27"/><path fill="#000000" d="M1430,1657.8h15.8v37.6M1430,1695.4h-7.6M1422.4,1657.8h7.6v37.6M1407.6,1657.8v37.6M1407.6,1657.8h14.8M1407.6,1657.8v37.6M1407.6,1631.6v-37.7h16.2" fill-opacity="0" stroke-linejoin="round" stroke-linecap="round" stroke="#023470" stroke-width="3" id="path_28"/><path fill="#000000" d="M1423.8,1631.6h-16.2v-37.7M1423.8,1593.9h7.2M1431,1631.6h-7.2v-37.7M1445.8,1631.6v-37.7M1445.8,1631.6H1431M1445.8,1631.6v-37.7M1407.6,1568.2v-37.6h16.2" fill-opacity="0" stroke-linejoin="round" stroke-linecap="round" stroke="#023470" stroke-width="3" id="path_29"/><path fill="#000000" d="M1423.8,1568.2h-16.2v-37.6M1423.8,1530.6h7.2M1431,1568.2h-7.2v-37.6M1445.8,1568.2v-37.6M1445.8,1568.2H1431M1445.8,1568.2v-37.6M1407.6,1503.4v-37.6h16.2" fill-opacity="0" stroke-linejoin="round" stroke-linecap="round" stroke="#023470" stroke-width="3" id="path_30"/><path fill="#000000" d="M1423.8,1503.4h-16.2v-37.6M1423.8,1465.8h7.2M1431,1503.4h-7.2v-37.6M1445.8,1503.4v-37.6M1445.8,1503.4H1431M1445.8,1503.4v-37.6M316.9,1223.7v-69.1h15.7" fill-opacity="0" stroke-linejoin="round" stroke-linecap="round" stroke="#023470" stroke-width="3" id="path_31"/><path fill="#000000" d="M332.6,1223.7h-15.7v-69.1M332.6,1154.6h7.2M339.8,1223.7h-7.2v-69.1M354.5,1223.7v-69.1M354.5,1223.7h-14.7M354.5,1223.7v-69.1M1227,2033.3h28.1v15.7" fill-opacity="0" stroke-linejoin="round" stroke-linecap="round" stroke="#023470" stroke-width="3" id="path_32"/><path fill="#000000" d="M1227,2049v-15.7h28.1M1255.1,2049v7.6M1227,2056.6v-7.6h28.1M1227,2070.9h28.1M1227,2070.9v-14.3M1227,2070.9h28.1M1184.1,2033.3h28.6v15.7" fill-opacity="0" stroke-linejoin="round" stroke-linecap="round" stroke="#023470" stroke-width="3" id="path_33"/><path fill="#000000" d="M1184.1,2049v-15.7h28.6M1212.7,2049v7.6M1184.1,2056.6v-7.6h28.6M1184.1,2070.9h28.6M1184.1,2070.9v-14.3M1184.1,2070.9h28.6M1142.2,2033.3h28.1v15.7" fill-opacity="0" stroke-linejoin="round" stroke-linecap="round" stroke="#023470" stroke-width="3" id="path_34"/><path fill="#000000" d="M1142.2,2049v-15.7h28.1M1170.3,2049v7.6M1142.2,2056.6v-7.6h28.1M1142.2,2070.9h28.1M1142.2,2070.9v-14.3M1142.2,2070.9h28.1M989.7,885.8v37.7H974" fill-opacity="0" stroke-linejoin="round" stroke-linecap="round" stroke="#023470" stroke-width="3" id="path_35"/><path fill="#000000" d="M974,885.8h15.7v37.7M974,923.5h-7.1M966.9,885.8h7.1v37.7M952.1,885.8v37.7M952.1,885.8h14.8M952.1,885.8v37.7M989.7,822v37.6H974" fill-opacity="0" stroke-linejoin="round" stroke-linecap="round" stroke="#023470" stroke-width="3" id="path_36"/><path fill="#000000" d="M974,822h15.7v37.6M974,859.6h-7.1M966.9,822h7.1v37.6M952.1,822v37.6M952.1,822h14.8M952.1,822v37.6M989.7,757.7v38.1H974" fill-opacity="0" stroke-linejoin="round" stroke-linecap="round" stroke="#023470" stroke-width="3" id="path_37"/><path fill="#000000" d="M974,757.7h15.7v38.1M974,795.8h-7.1M966.9,757.7h7.1v38.1M952.1,757.7v38.1M952.1,757.7h14.8M952.1,757.7v38.1M989.7,694.8v37.6H974" fill-opacity="0" stroke-linejoin="round" stroke-linecap="round" stroke="#023470" stroke-width="3" id="path_38"/><path fill="#000000" d="M974,694.8h15.7v37.6M974,732.4h-7.1M966.9,694.8h7.1v37.6M952.1,694.8v37.6M952.1,694.8h14.8M952.1,694.8v37.6M952.1,668.1v-37.7h15.7" fill-opacity="0" stroke-linejoin="round" stroke-linecap="round" stroke="#023470" stroke-width="3" id="path_39"/><path fill="#000000" d="M967.8,668.1h-15.7v-37.7M967.8,630.4h7.2M975,668.1h-7.2v-37.7M989.7,668.1v-37.7M989.7,668.1H975M989.7,668.1v-37.7M952.1,605.2v-38.1h15.7" fill-opacity="0" stroke-linejoin="round" stroke-linecap="round" stroke="#023470" stroke-width="3" id="path_40"/><path fill="#000000" d="M967.8,605.2h-15.7v-38.1M967.8,567.1h7.2M975,605.2h-7.2v-38.1M989.7,605.2v-38.1M989.7,605.2H975M989.7,605.2v-38.1M952.1,539.9v-37.7h15.7" fill-opacity="0" stroke-linejoin="round" stroke-linecap="round" stroke="#023470" stroke-width="3" id="path_41"/><path fill="#000000" d="M967.8,539.9h-15.7v-37.7M967.8,502.2h7.2M975,539.9h-7.2v-37.7M989.7,539.9v-37.7M989.7,539.9H975M989.7,539.9v-37.7M952.1,475.6v-37.7h15.7" fill-opacity="0" stroke-linejoin="round" stroke-linecap="round" stroke="#023470" stroke-width="3" id="path_42"/><path fill="#000000" d="M967.8,475.6h-15.7v-37.7M967.8,437.9h7.2M975,475.6h-7.2v-37.7M989.7,475.6v-37.7M989.7,475.6H975M989.7,475.6v-37.7M952.1,413.6V376h15.7" fill-opacity="0" stroke-linejoin="round" stroke-linecap="round" stroke="#023470" stroke-width="3" id="path_43"/><path fill="#000000" d="M967.8,413.6h-15.7V376M967.8,376h7.2M975,413.6h-7.2V376M989.7,413.6V376M989.7,413.6H975M989.7,413.6V376M935.9,980.2h-66.3V964" fill-opacity="0" stroke-linejoin="round" stroke-linecap="round" stroke="#023470" stroke-width="3" id="path_44"/><path fill="#000000" d="M935.9,964v16.2h-66.3M869.6,964v-7.2M935.9,956.8v7.2h-66.3M935.9,942.1h-66.3M935.9,942.1v14.7M935.9,942.1h-66.3M835.8,980.2h-66.2V964" fill-opacity="0" stroke-linejoin="round" stroke-linecap="round" stroke="#023470" stroke-width="3" id="path_45"/><path fill="#000000" d="M835.8,964v16.2h-66.2M769.6,964v-7.2M835.8,956.8v7.2h-66.2M835.8,942.1h-66.2M835.8,942.1v14.7M835.8,942.1h-66.2M736.7,980.2h-66.2V964" fill-opacity="0" stroke-linejoin="round" stroke-linecap="round" stroke="#023470" stroke-width="3" id="path_46"/><path fill="#000000" d="M736.7,964v16.2h-66.2M670.5,964v-7.2M736.7,956.8v7.2h-66.2M736.7,942.1h-66.2M736.7,942.1v14.7M736.7,942.1h-66.2M638.1,980.2h-65.8V964" fill-opacity="0" stroke-linejoin="round" stroke-linecap="round" stroke="#023470" stroke-width="3" id="path_47"/><path fill="#000000" d="M638.1,964v16.2h-65.8M572.3,964v-7.2M638.1,956.8v7.2h-65.8M638.1,942.1h-65.8M638.1,942.1v14.7M638.1,942.1h-65.8M538.9,980.2h-66.2V964" fill-opacity="0" stroke-linejoin="round" stroke-linecap="round" stroke="#023470" stroke-width="3" id="path_48"/><path fill="#000000" d="M538.9,964v16.2h-66.2M472.7,964v-7.2M538.9,956.8v7.2h-66.2M538.9,942.1h-66.2M538.9,942.1v14.7M538.9,942.1h-66.2M438.9,980.2h-65.8V964" fill-opacity="0" stroke-linejoin="round" stroke-linecap="round" stroke="#023470" stroke-width="3" id="path_49"/><path fill="#000000" d="M438.9,964v16.2h-65.8M373.1,964v-7.2M438.9,956.8v7.2h-65.8M438.9,942.1h-65.8M438.9,942.1v14.7M438.9,942.1h-65.8M2080.9,1217v28.6h-15.7" fill-opacity="0" stroke-linejoin="round" stroke-linecap="round" stroke="#023470" stroke-width="3" id="path_50"/><path fill="#000000" d="M2065.2,1217h15.7v28.6M2065.2,1245.6h-7.6M2057.6,1217h7.6v28.6M2043.3,1217v28.6M2043.3,1217h14.3M2043.3,1217v28.6M2080.9,1174.6v28.6h-15.7" fill-opacity="0" stroke-linejoin="round" stroke-linecap="round" stroke="#023470" stroke-width="3" id="path_51"/><path fill="#000000" d="M2065.2,1174.6h15.7v28.6M2065.2,1203.2h-7.6M2057.6,1174.6h7.6v28.6M2043.3,1174.6v28.6M2043.3,1174.6h14.3M2043.3,1174.6v28.6M2080.9,1132.2v28.6h-15.7" fill-opacity="0" stroke-linejoin="round" stroke-linecap="round" stroke="#023470" stroke-width="3" id="path_52"/><path fill="#000000" d="M2065.2,1132.2h15.7v28.6M2065.2,1160.8h-7.6M2057.6,1132.2h7.6v28.6M2043.3,1132.2v28.6M2043.3,1132.2h14.3M2043.3,1132.2v28.6M1445.8,887.3v37.6H1430" fill-opacity="0" stroke-linejoin="round" stroke-linecap="round" stroke="#023470" stroke-width="3" id="path_53"/><path fill="#000000" d="M1430,887.3h15.8v37.6M1430,924.9h-7.6M1422.4,887.3h7.6v37.6M1407.6,887.3v37.6M1407.6,887.3h14.8M1407.6,887.3v37.6M1445.8,759.6v37.6H1430" fill-opacity="0" stroke-linejoin="round" stroke-linecap="round" stroke="#023470" stroke-width="3" id="path_54"/><path fill="#000000" d="M1430,759.6h15.8v37.6M1430,797.2h-7.6M1422.4,759.6h7.6v37.6M1407.6,759.6v37.6M1407.6,759.6h14.8M1407.6,759.6v37.6M1445.8,697.1v37.7H1430" fill-opacity="0" stroke-linejoin="round" stroke-linecap="round" stroke="#023470" stroke-width="3" id="path_55"/><path fill="#000000" d="M1430,697.1h15.8v37.7M1430,734.8h-7.6M1422.4,697.1h7.6v37.7M1407.6,697.1v37.7M1407.6,697.1h14.8M1407.6,697.1v37.7M1445.8,632.8v37.7H1430" fill-opacity="0" stroke-linejoin="round" stroke-linecap="round" stroke="#023470" stroke-width="3" id="path_56"/><path fill="#000000" d="M1430,632.8h15.8v37.7M1430,670.5h-7.6M1422.4,632.8h7.6v37.7M1407.6,632.8v37.7M1407.6,632.8h14.8M1407.6,632.8v37.7M1445.8,569v37.6H1430" fill-opacity="0" stroke-linejoin="round" stroke-linecap="round" stroke="#023470" stroke-width="3" id="path_57"/><path fill="#000000" d="M1430,569h15.8v37.6M1430,606.6h-7.6M1422.4,569h7.6v37.6M1407.6,569v37.6M1407.6,569h14.8M1407.6,569v37.6M1445.8,505.1v38.1H1430" fill-opacity="0" stroke-linejoin="round" stroke-linecap="round" stroke="#023470" stroke-width="3" id="path_58"/><path fill="#000000" d="M1430,505.1h15.8v38.1M1430,543.2h-7.6M1422.4,505.1h7.6v38.1M1407.6,505.1v38.1M1407.6,505.1h14.8M1407.6,505.1v38.1M1445.8,441.3v37.6H1430" fill-opacity="0" stroke-linejoin="round" stroke-linecap="round" stroke="#023470" stroke-width="3" id="path_59"/><path fill="#000000" d="M1430,441.3h15.8v37.6M1430,478.9h-7.6M1422.4,441.3h7.6v37.6M1407.6,441.3v37.6M1407.6,441.3h14.8M1407.6,441.3v37.6M1445.8,377.4V415H1430" fill-opacity="0" stroke-linejoin="round" stroke-linecap="round" stroke="#023470" stroke-width="3" id="path_60"/><path fill="#000000" d="M1430,377.4h15.8V415M1430,415h-7.6M1422.4,377.4h7.6V415M1407.6,377.4V415M1407.6,377.4h14.8M1407.6,377.4V415M2011.4,980.2h-38.1V964" fill-opacity="0" stroke-linejoin="round" stroke-linecap="round" stroke="#023470" stroke-width="3" id="path_61"/><path fill="#000000" d="M2011.4,964v16.2h-38.1M1973.3,964v-7.2M2011.4,956.8v7.2h-38.1M2011.4,942.1h-38.1M2011.4,942.1v14.7M2011.4,942.1h-38.1M1948.5,980.2h-38.1V964" fill-opacity="0" stroke-linejoin="round" stroke-linecap="round" stroke="#023470" stroke-width="3" id="path_62"/><path fill="#000000" d="M1948.5,964v16.2h-38.1M1910.4,964v-7.2M1948.5,956.8v7.2h-38.1M1948.5,942.1h-38.1M1948.5,942.1v14.7M1948.5,942.1h-38.1M1885.6,980.2h-38.1V964" fill-opacity="0" stroke-linejoin="round" stroke-linecap="round" stroke="#023470" stroke-width="3" id="path_63"/><path fill="#000000" d="M1885.6,964v16.2h-38.1M1847.5,964v-7.2M1885.6,956.8v7.2h-38.1M1885.6,942.1h-38.1M1885.6,942.1v14.7M1885.6,942.1h-38.1M1821.7,980.2h-38.1V964" fill-opacity="0" stroke-linejoin="round" stroke-linecap="round" stroke="#023470" stroke-width="3" id="path_64"/><path fill="#000000" d="M1821.7,964v16.2h-38.1M1783.6,964v-7.2M1821.7,956.8v7.2h-38.1M1821.7,942.1h-38.1M1821.7,942.1v14.7M1821.7,942.1h-38.1M1757.9,980.2h-38.2V964" fill-opacity="0" stroke-linejoin="round" stroke-linecap="round" stroke="#023470" stroke-width="3" id="path_65"/><path fill="#000000" d="M1757.9,964v16.2h-38.2M1719.7,964v-7.2M1757.9,956.8v7.2h-38.2M1757.9,942.1h-38.2M1757.9,942.1v14.7M1757.9,942.1h-38.2M1692.6,980.2h-37.7V964" fill-opacity="0" stroke-linejoin="round" stroke-linecap="round" stroke="#023470" stroke-width="3" id="path_66"/><path fill="#000000" d="M1692.6,964v16.2h-37.7M1654.9,964v-7.2M1692.6,956.8v7.2h-37.7M1692.6,942.1h-37.7M1692.6,942.1v14.7M1692.6,942.1h-37.7M1629.2,980.2h-37.6V964" fill-opacity="0" stroke-linejoin="round" stroke-linecap="round" stroke="#023470" stroke-width="3" id="path_67"/><path fill="#000000" d="M1629.2,964v16.2h-37.6M1591.6,964v-7.2M1629.2,956.8v7.2h-37.6M1629.2,942.1h-37.6M1629.2,942.1v14.7M1629.2,942.1h-37.6M1565.8,980.2h-37.6V964" fill-opacity="0" stroke-linejoin="round" stroke-linecap="round" stroke="#023470" stroke-width="3" id="path_68"/><path fill="#000000" d="M1565.8,964v16.2h-37.6M1528.2,964v-7.2M1565.8,956.8v7.2h-37.6M1565.8,942.1h-37.6M1565.8,942.1v14.7M1565.8,942.1h-37.6M1501.5,980.2h-37.6V964" fill-opacity="0" stroke-linejoin="round" stroke-linecap="round" stroke="#023470" stroke-width="3" id="path_69"/><path fill="#000000" d="M1501.5,964v16.2h-37.6M1463.9,964v-7.2M1501.5,956.8v7.2h-37.6M1501.5,942.1h-37.6M1501.5,942.1v14.7M1501.5,942.1h-37.6M1131.7,576.1h1.9M1131.7,645.2v-69.1M1133.6,645.2h-1.9v-69.1M1133.6,576.1h1M1134.6,645.2h-1M1134.6,576.1h1.4M1136,645.2h-1.4M1136,645.2v-69.1M1134.1,645.2v-69.1M1227,306.9h28.6v15.7" fill-opacity="0" stroke-linejoin="round" stroke-linecap="round" stroke="#023470" stroke-width="3" id="path_70"/><path fill="#000000" d="M1227,322.6v-15.7h28.6M1255.6,322.6v7.6" fill-opacity="0" stroke-linejoin="round" stroke-linecap="round" stroke="#023470" stroke-width="3" id="path_71"/><path fill="#000000" d="M1227,330.2v-7.6h28.6M1227,344.5h28.6M1227,344.5v-14.3M1227,344.5h28.6M1184.6,306.9h28.1v15.7" fill-opacity="0" stroke-linejoin="round" stroke-linecap="round" stroke="#023470" stroke-width="3" id="path_72"/><path fill="#000000" d="M1184.6,322.6v-15.7h28.1M1212.7,322.6v7.6" fill-opacity="0" stroke-linejoin="round" stroke-linecap="round" stroke="#023470" stroke-width="3" id="path_73"/><path fill="#000000" d="M1184.6,330.2v-7.6h28.1M1184.6,344.5h28.1M1184.6,344.5v-14.3M1184.6,344.5h28.1M1142.2,306.9h28.1v15.7" fill-opacity="0" stroke-linejoin="round" stroke-linecap="round" stroke="#023470" stroke-width="3" id="path_74"/><path fill="#000000" d="M1142.2,322.6v-15.7h28.1M1170.3,322.6v7.6" fill-opacity="0" stroke-linejoin="round" stroke-linecap="round" stroke="#023470" stroke-width="3" id="path_75"/><path fill="#000000" d="M1142.2,330.2v-7.6h28.1M1142.2,344.5h28.1M1142.2,344.5v-14.3M1142.2,344.5h28.1M1107.9,1814.1v33.4M1141.3,1814.1h-33.4M1141.3,1847.5v-33.4M1107.9,1847.5h33.4M1107.9,1617.3v32.9M1141.3,1617.3h-33.4M1141.3,1650.2v-32.9M1107.9,1650.2h33.4M1259,1620.6v32.9M1292.3,1620.6H1259M1292.3,1653.5v-32.9M1259,1653.5h33.3M1258.5,1814.6v32.9M1291.8,1814.6h-33.3M1291.8,1847.5v-32.9M1258.5,1847.5h33.3M1063.1,1320c0.4,2.5 2.5,4.6 4.8,4.8 2.9,-0.2 5,-2.3 4.8,-4.8M1072.6,1320c0.3,-2.7 -1.8,-4.9 -4.8,-4.8 -2.3,-0.1 -4.4,2 -4.8,4.8M1194.2,1320c0,2.6 2.2,4.7 4.8,4.8 2.6,-0.1 4.7,-2.2 4.3,-4.8M1203.2,1320c0.4,-2.6 -1.7,-4.8 -4.3,-4.3 -2.6,-0.5 -4.7,1.7 -4.8,4.3M1194.2,1254.2c0.2,2.1 2.3,4.3 4.8,4.3 2.8,0 4.9,-2.2 4.8,-4.3M1203.7,1254.2c0.1,-3.1 -2,-5.2 -4.8,-4.8 -2.5,-0.4 -4.6,1.7 -4.8,4.8M1062.6,1188.9c0.3,2.6 2.4,4.7 4.8,4.8 2.9,-0.1 5,-2.2 4.8,-4.8M1072.2,1188.9c0.2,-2.6 -1.9,-4.8 -4.8,-4.3 -2.3,-0.5 -4.4,1.7 -4.8,4.3M1194.2,1124.6c0.3,2.6 2.4,4.7 4.8,4.8 2.9,0 5,-2.2 4.8,-4.8M1203.7,1124.6c0.2,-2.6 -1.9,-4.7 -4.8,-4.3 -2.3,-0.4 -4.4,1.7 -4.8,4.3M1062.6,1057.9c0.5,2.5 2.6,4.6 4.8,4.8 3,-0.1 5.1,-2.3 4.8,-4.8M1072.2,1057.9c0.4,-2.7 -1.7,-4.8 -4.8,-4.8 -2.2,-0.1 -4.3,2 -4.8,4.8M1194.2,1058.3c0.1,2.1 2.3,4.2 4.8,4.3 2.7,0 4.8,-2.2 4.8,-4.3M1203.7,1058.3c0.1,-3.1 -2.1,-5.2 -4.8,-4.8 -2.5,-0.4 -4.6,1.7 -4.8,4.8M730,1093.1v33.4M762.9,1093.1H730M762.9,1126.5v-33.4M730,1126.5h32.9M543.2,1093.6v33.4M576.6,1093.6h-33.4M576.6,1127v-33.4M543.2,1127h33.4M1324.7,1320c0.3,2.6 2.5,4.7 4.8,4.8 2.9,-0.1 5,-2.2 4.8,-4.8M1334.2,1320c0.3,-2.6 -1.9,-4.7 -4.8,-4.3 -2.3,-0.5 -4.4,1.7 -4.8,4.3M1631.6,1251.8v32.9M1664.5,1251.8h-32.9M1664.5,1284.7v-32.9M1631.6,1284.7h32.9M1824.6,1251.8v32.9M1857.5,1251.8h-32.9M1857.5,1284.7v-32.9M1824.6,1284.7h32.9M1325.2,1188.9c0,2.5 2.2,4.7 4.3,4.8 3.1,-0.1 5.2,-2.2 4.8,-4.8M1334.2,1188.9c0.4,-2.7 -1.7,-4.8 -4.8,-4.8 -2.1,0 -4.3,2.1 -4.3,4.8M1325.2,1057.9c0.2,2.6 2.3,4.7 4.8,4.8 2.8,-0.1 4.9,-2.2 4.8,-4.8M1334.7,1057.9c0.1,-2.6 -2,-4.7 -4.8,-4.3 -2.4,-0.5 -4.6,1.7 -4.8,4.3M1631.1,1093.1v32.9M1664.5,1093.1h-33.4M1664.5,1126v-32.9M1631.1,1126h33.4M1824.6,1093.1v33.4M1857.5,1093.1h-32.9M1857.5,1126.5v-33.4M1824.6,1126.5h32.9M1261.8,720v33.4M1294.7,720h-32.9M1294.7,753.4V720M1261.8,753.4h32.9M1103.1,720v33.4M1136,720h-32.9M1136,753.4V720M1103.1,753.4h32.9M1261.3,533.7v32.9M1294.2,533.7h-32.9M1294.2,566.6v-32.9M1261.3,566.6h32.9M1103.1,533.2v33.4M1136,533.2h-32.9M1136,566.6v-33.4M1103.1,566.6h32.9M1158.4,1294.2l-7.1,1.4 -11,2.4M1158.4,1294.2l-7.1,-1.4 -11,-2.4" fill-opacity="0" stroke-linejoin="round" stroke-linecap="round" stroke="#023470" stroke-width="3" id="path_76"/><path fill="#000000" d="m1158.4,1294.2 l-7.1,-1.4 -11,-2.4M1094.6,1294.2h63.8M1123.2,1315.2v-44.3M1108.9,1315.2v-49.1M1256.1,1315.2l-5.7,-1.9 -13.8,-4.3 -42.9,-14.3 -13.8,-4.8 -42.9,-14.3 -13.8,-4.7 -28.6,-9.6M1094.6,1315.2h161.5M1094.6,1261.3v53.9M1151.3,1315.2v-34.8M1137,1315.2v-39.6M1250.4,1315.2v-1.9M1236.6,1315.2v-6.2M1222.3,1315.2v-11M1208,1315.2v-15.7M1193.7,1315.2v-20.5M1179.9,1315.2v-25.3M1165.6,1315.2v-30M1107.9,1624v-8.1M1158.4,1624h-17.1M1107.9,1624h0M1107.9,1615.9h50.5M1032.1,1507.7v-72M1038.3,1435.7v72M1143.6,1513.4h-15.2M1093.1,1513.4h-64.8M992.6,1513.4h-2.9M989.7,1507.7h2.9M1028.3,1507.7h3.8M1038.3,1507.7h54.8M1128.4,1507.7h15.2M992.6,1513.4v-5.7M1028.3,1507.7v5.7M1093.1,1513.4v-5.7M1128.4,1507.7v5.7M989.7,1575.8h153.9M1147.9,1559.2h-4.3M1143.6,1523.4h4.3M1147.9,1572.5h-4.3v-13.3M1143.6,1523.4v-10M1143.6,1507.7v-52.9M1147.9,1435.7v87.7M1147.9,1559.2v13.3M1158.4,1580.6h-10.5v-8.1h14.3M1158.4,1842.7v-129.1M1158.4,1678.3V1624M1158.4,1615.9v-35.3M1158.4,1678.3h3.8M1162.2,1713.6h-3.8M1162.2,1572.5v105.8M1162.2,1713.6v129.1M952.1,1232.7h22.4M952.1,2040.4v-26.2M952.1,1976.6v-26.2M952.1,1912.7V1887M952.1,1849.4v-26.7M952.1,1785v-24.7M952.1,1722.6v-26.7M952.1,1657.8v-25.3M952.1,1594.9v-26.7M952.1,1530.6v-25.8M952.1,1467.2v-31.5M952.1,1398.1v-28.6M952.1,1312.8v-28.1M952.1,1251.8v-19.1M952.1,1312.8h37.6M989.7,1369.5h-37.6M952.1,1467.2h37.6M989.7,1504.8h-37.6M952.1,1530.6h37.6M989.7,1568.2h-37.6M952.1,1594.9h37.6M989.7,1632.5h-37.6M952.1,1657.8h37.6M966.9,1695.9h-14.8M989.7,1695.9h-22.8M952.1,1722.6h37.6M989.7,1760.3h-37.6M952.1,1785h37.6M966.9,1822.7h-14.8M989.7,1822.7h-22.8M952.1,1849.4h37.6M989.7,1887h-37.6M952.1,1912.7h37.6M989.7,1950.4h-37.6M952.1,1976.6h37.6M989.7,2014.2h-37.6M989.7,1232.7v80.1M989.7,1369.5v28.6M989.7,1435.7v31.5M989.7,1504.8v25.8M989.7,1568.2v26.7M989.7,1632.5v25.3M989.7,1695.9v26.7M989.7,1760.3v24.7M989.7,1822.7v26.7M989.7,1887v25.7M989.7,1950.4v26.2M989.7,2014.2v19.1M1155.6,1435.7h-12M1110.8,1435.7H989.7M952.1,1435.7h-15.7M870.1,1435.7h-33.3M770.5,1435.7h-34.3M670.5,1435.7h-32M572.3,1435.7h-33.4M472.7,1435.7h-33.8M372.6,1435.7h-25.2M354.5,1398.1h18.1M438.9,1398.1h33.8M568,1398.1h4.3M638.5,1398.1h32M736.2,1398.1h6.2M762.9,1398.1h7.6M836.8,1398.1h33.3M936.4,1398.1h15.7M989.7,1398.1h165.9M372.6,1412.9v-14.8M372.6,1435.7v-22.8M438.9,1420v15.7M438.9,1412.9v7.1M438.9,1398.1v14.8M472.7,1435.7v-37.6M538.9,1412.9v7.1M538.9,1398.1v14.8M538.9,1420v15.7M572.3,1435.7v-37.6h66.2v37.6M670.5,1435.7v-37.6M736.2,1420v15.7M736.2,1398.1v21.9M770.5,1412.9v-14.8M770.5,1435.7v-22.8M836.8,1398.1v37.6M870.1,1435.7v-37.6M936.4,1398.1v37.6M1155.6,1404.3v-6.2M1155.6,1404.3v31.4M1233.7,1435.7h4.3M1143.6,1454.8h-32.8v-19.1M1143.6,1435.7v19.1M1407.6,1637.8h-115.3M1259,1637.8h-19.6M1239.4,1633h19.6M1292.3,1633h115.3M1407.6,1847.5h-44.8M1327.6,1847.5h-118.2M1173.7,1847.5h-184M989.7,1842.7h118.2M1141.3,1842.7h17.1M1162.2,1842.7h11.5M1239.4,1842.7h19.1M1291.8,1842.7h35.8M1362.8,1842.7h44.8M1173.7,1847.5v-4.8M1209.4,1842.7v4.8M1327.6,1847.5v-4.8M1362.8,1842.7v4.8M1233.7,1480.1h2.4M1236.1,1538.2h-2.4M1233.7,1435.7v-11.9M1233.7,1563.9h5.7M1239.4,1599.7h-5.7M1233.7,1731.2h5.7M1239.4,1538.2h-3.3M1236.1,1480.1h3.3M1239.4,1766.9h-5.7v75.8h-24.3M1233.7,1731.2v-131.5M1233.7,1563.9v-25.7M1233.7,1480.1v-44.4M1239.4,1435.7v44.4M1239.4,1538.2v25.7M1239.4,1599.7v33.3M1239.4,1637.8v93.4M1239.4,1766.9v75.8M1233.7,1435.7h4.3M1233.7,1398.1h17.2M2050.5,1435.7h-38.2M1974.7,1435.7h-26.2M1910.8,1435.7h-25.2M1847.9,1435.7h-26.7M1783.6,1435.7h-26.2M1719.7,1435.7h-26.2M1655.9,1435.7h-25.7M1592.5,1435.7h-27.1M1527.7,1435.7H1502M1463.9,1435.7h-18.1M1407.6,1435.7h-112.9M1261.3,1435.7H1238M1250.9,1398.1h156.7M1445.8,1398.1h18.1M1502,1398.1h25.7M1565.4,1398.1h27.1M1630.2,1398.1h25.7M1693.5,1398.1h26.2M1757.4,1398.1h26.2M1821.2,1398.1h26.7M1885.6,1398.1h25.2M1948.5,1398.1h26.2M2012.3,1398.1h31M1233.7,1435.7v-37.6M1463.9,1412.9v-14.8M1463.9,1435.7v-22.8M1502,1398.1v37.6M1527.7,1412.9v-14.8M1527.7,1420v-7.1M1527.7,1435.7V1420M1565.4,1412.9v7.1M1565.4,1398.1v14.8M1565.4,1420v15.7M1592.5,1412.9v-14.8M1592.5,1435.7v-22.8M1630.2,1398.1v37.6M1655.9,1420v-7.1M1655.9,1435.7V1420M1655.9,1412.9v-14.8M1693.5,1398.1v37.6M1719.7,1435.7v-37.6M1757.4,1412.9v7.1M1757.4,1398.1v14.8M1757.4,1420v15.7M1783.6,1412.9v-14.8M1783.6,1435.7v-22.8M1821.2,1412.9v22.8M1821.2,1398.1v14.8M1847.9,1420v-21.9M1847.9,1435.7V1420M1885.6,1412.9v22.8M1885.6,1398.1v14.8M1910.8,1412.9v-14.8M1910.8,1435.7v-22.8M1948.5,1398.1v37.6M1974.7,1420v-7.1M1974.7,1435.7V1420M1974.7,1412.9v-14.8M2012.3,1398.1v37.6M1407.6,1722.1h38.2M1445.8,1759.8h-38.2M1407.6,1786h38.2M1445.8,1823.6h-38.2M1445.8,1631.6h-38.2M1407.6,1593.9h38.2M1407.6,1657.8h38.2M1445.8,1695.4h-38.2M1445.8,1888h-38.2M1407.6,1976.6h38.2M1445.8,1951.3h-38.2M1407.6,1850.3h38.2M1445.8,2014.2h-38.2M1407.6,1913.7h38.2M1407.6,1530.6h16.2M1423.8,1568.2h-16.2M1445.8,1503.4h-38.2M1407.6,1465.8h38.2M1445.8,1568.2h-22M1423.8,1530.6h22M1407.6,1228h38.2M1445.8,2033.3h-38.2v-19.1M1407.6,1976.6v-25.3M1407.6,1913.7V1888M1407.6,1850.3v-26.7M1407.6,1786v-26.2M1407.6,1722.1v-26.7M1407.6,1657.8v-26.2M1407.6,1593.9v-25.7M1407.6,1530.6v-27.2M1407.6,1465.8v-30.1M1407.6,1398.1V1228M1445.8,1228v23.8M1445.8,1284.7v113.4M1445.8,1435.7v30.1M1445.8,1503.4v27.2M1445.8,1568.2v25.7M1445.8,1631.6v26.2M1445.8,1695.4v26.7M1445.8,1759.8v26.2M1445.8,1823.6v26.7M1445.8,1888v25.7M1445.8,1951.3v25.3M1445.8,2014.2v19.1M1261.3,1454.8v-19.1M1294.7,1454.8h-33.4M1294.7,1435.7v19.1M1233.7,1398.1h17.2M742.4,1398.1v-113.4M762.9,1273.7v124.4M316.9,1154.6h37.6M354.5,1223.7h-37.6M316.9,1435.7v-95.3M316.9,1256.1v-32.4M316.9,1154.6v-32.9M316.9,1037.9v-57.7M354.5,980.2v113.4M354.5,1126.5v28.1M354.5,1223.7v28.1M354.5,1284.7v113.4M553.2,1311.4H568M568,1347.1h-14.8v51h-14.3M553.2,1311.4v-26.7M568,1284.7v26.7M568,1347.1v51M316.9,1477.2v-41.5M347.4,1477.2h-30.5M347.4,1435.7v41.5M933,1273.7H762.9M730,1273.7h-19.5M667.1,1273.7h-90.5M543.7,1257.1v-5.3h123.4M710.5,1251.8h241.6M667.1,1273.7v-21.9M710.5,1251.8v21.9M974.5,1160.8h15.2M989.7,1217.5h-15.2M974.5,1160.8v-11.4M989.7,1133.2v27.6M989.7,1217.5v15.2M952.1,1284.7H933v-11M1072.6,1320h6.2M1088.4,1320h4.7M1102.7,1320h4.7M1117,1320h4.7M1130.8,1320h4.7M1145.1,1320h4.7M1159.4,1320h4.7M1173.7,1320h4.2M1187.5,1320h6.7M1203.2,1320h6.7M1219.4,1320h4.8M1233.2,1320h4.8M1247.5,1320h4.8M1261.8,1320h4.8M1276.1,1320h4.8M1289.9,1320h4.8M1304.2,1320h4.8M1318.5,1320h6.2M1067.9,1064.1v5.7M1067.9,1079.3v4.8M1067.9,1093.6v4.8M1067.9,1107.4v4.8M1067.9,1121.7v4.8M1067.9,1136v4.8M1067.9,1150.3v4.8M1067.9,1164.1v4.8M1067.9,1178.4v6.2M1067.9,1193.7v6.6M1067.9,1209.9v4.7M1067.9,1223.7v4.8M1067.9,1238v4.8M1067.9,1252.3v4.8M1067.9,1266.6v4.7M1067.9,1280.4v4.8M1067.9,1294.7v4.8M1067.9,1309v6.2M993.1,2070.9h-41M1407.6,2070.9h-57.2M1266.1,2070.9h-11M1227,2070.9h-14.3M1184.1,2070.9h-13.8M1142.2,2070.9h-10.5M1047.4,2070.9h-54.3M989.7,2033.3h113.4M1136,2033.3h6.2M1170.3,2033.3h13.8M1212.7,2033.3h14.3M1255.1,2033.3h6.2M1294.7,2033.3h112.9M1142.2,2070.9v-37.6M1170.3,2056.6v14.3M1170.3,2049v7.6M1170.3,2033.3v15.7M1184.1,2070.9v-37.6M1212.7,2033.3v15.7M1212.7,2056.6v14.3M1212.7,2049v7.6M1227,2070.9v-37.6M1255.1,2049v21.9M1255.1,2033.3v15.7M1407.6,2033.3v37.6M1103.1,2014.2h32.9M1103.1,2033.3v-19.1M1136,2014.2v19.1M910.6,2070.9v-30.5M993.1,2070.9h-82.5M910.6,2040.4h41.5M1047.4,2097.2v-26.3M1131.7,2097.2h-7.1M1092.2,2097.2h-44.8M1131.7,2070.9v26.3M952.1,1149.4v-22.9M952.1,1093.6V980.2M952.1,942.1v-18.6M952.1,885.8v-26.2M952.1,822v-26.2M952.1,757.7v-25.3M952.1,694.8v-26.7M952.1,630.4v-25.2M952.1,567.1v-27.2M952.1,502.2v-26.6M952.1,437.9v-24.3M952.1,376v-38.1M974.5,1149.4h-22.4M989.7,923.5h-37.6M952.1,885.8h37.6M966.9,859.6h-14.8M989.7,859.6h-22.8M952.1,822h37.6M989.7,795.8h-37.6M952.1,757.7h37.6M966.9,732.4h-14.8M989.7,732.4h-22.8M952.1,694.8h37.6M967.8,668.1h-15.7M989.7,668.1h-21.9M952.1,630.4h37.6M989.7,605.2h-37.6M952.1,567.1h37.6M989.7,539.9h-37.6M952.1,502.2h37.6M989.7,475.6h-37.6M952.1,437.9h37.6M989.7,413.6h-37.6M952.1,376h37.6M989.7,1133.2v16.2M989.7,344.5V376M989.7,413.6v24.3M989.7,475.6v26.6M989.7,539.9v27.2M989.7,605.2v25.2M989.7,668.1v26.7M989.7,732.4v25.3M989.7,795.8V822M989.7,859.6v26.2M989.7,923.5v18.6M989.7,980.2v153M952.1,1131.3h-68.6M878.7,1131.3h-64.8M813.9,1126.5H933M813.9,1126.5v4.8M933,1126.5h19.1M933,1126.5v-32.9h19.1M1323.8,1057.9h-5.8M1308.5,1057.9h-4.7M1294.2,1057.9h-4.7M1279.9,1057.9h-4.7M1266.1,1057.9h-4.8M1251.8,1057.9h-4.8M1237.5,1057.9h-4.8M1223.2,1057.9h-4.7M1209.4,1057.9h-5.7M1194.2,1057.9h-6.7M1177.9,1057.9h-4.7M1163.7,1057.9h-4.3M1149.8,1057.9h-4.7M1135.5,1057.9h-4.7M1121.2,1057.9h-4.7M1107.4,1057.9h-4.7M1093.1,1057.9h-4.7M1078.8,1057.9h-6.6M883.5,1219.4h-4.8M878.7,1162.7h4.8M878.7,1251.8v-32.4M878.7,1162.7v-31.4M883.5,1131.3v31.4M883.5,1219.4v32.4M730,1284.7v-11M742.4,1284.7H730M373.6,1257.1h97.7M514.6,1257.1h29.1M576.6,1284.7H568M553.2,1284.7h-38.6M471.3,1284.7H354.5M471.3,1284.7v-27.6M514.6,1257.1v27.6M576.6,1273.7v11M354.5,1251.8h19.1v5.3M290.7,1340.4v-44.8M290.7,1263.2v-7.1h26.2M316.9,1340.4h-26.2M290.7,1295.6h-43.4M247.3,1263.2h43.4M247.3,1295.6v-32.4M373.6,1126.5h-19.1M354.5,1093.6h19.1v32.9M247.3,1082.6h43.4M290.7,1114.6h-43.4v-32M290.7,1121.7v-7.1M290.7,1082.6v-44.7h26.2M316.9,1121.7h-26.2M1159.8,980.2H989.7M952.1,980.2h-16.2M869.6,980.2h-33.8M769.6,980.2h-32.9M670.5,980.2h-32.4M572.3,980.2h-33.4M472.7,980.2h-33.8M373.1,980.2h-18.6M347.4,942.1h25.7M438.9,942.1h33.8M538.9,942.1h33.4M638.1,942.1h32.4M736.7,942.1h32.9M835.8,942.1h33.8M935.9,942.1h16.2M989.7,942.1h113.4M1136,942.1h23.8v38.1M373.1,956.8v-14.7M373.1,980.2v-23.4M438.9,956.8v7.2M438.9,942.1v14.7M438.9,964v16.2M472.7,980.2v-38.1M538.9,956.8v23.4M538.9,942.1v14.7M572.3,980.2V964M572.3,956.8v-14.7M572.3,964v-7.2M638.1,964v16.2M638.1,956.8v7.2M638.1,942.1v14.7M670.5,956.8v-14.7M670.5,980.2v-23.4M736.7,956.8v23.4M736.7,942.1v14.7M769.6,980.2V964M769.6,956.8v-14.7M769.6,964v-7.2M835.8,964v16.2M835.8,942.1V964M869.6,956.8v-14.7M869.6,980.2v-23.4M935.9,942.1v38.1M1250.9,980.2H1238v-38.1M1407.6,980.2h-156.7M1294.7,942.1h112.9M1250.9,980.2H1238M316.9,900.6h30.5M316.9,980.2v-79.6M347.4,900.6v41.5M1659.7,1398.1v-113.4M1659.7,1251.8v-125.3M1659.7,1093.1V980.2M1664.5,980.2v271.6M1664.5,1284.7v113.4M1829.3,1211.3h-4.7M1824.6,1167.9h4.7M1824.6,1398.1v-113.4M1824.6,1251.8v-40.5M1824.6,1167.9V980.2M1829.3,980.2v112.9M1829.3,1126.5v41.4M1829.3,1211.3v40.5M1829.3,1284.7v113.4M2043.3,1398.1v-113.4M2043.3,1251.8v-6.2M2043.3,1217v-13.8M2043.3,1174.6v-13.8M2043.3,1132.2v-5.7M2043.3,1093.6V980.2M2043.3,968.3h7.2M2080.9,1160.8h-37.6M2080.9,1245.6h-37.6M2043.3,1132.2h37.6M2043.3,1174.6h14.3M2057.6,1203.2h-14.3M2043.3,1217h37.6M2080.9,1203.2h-23.3M2057.6,1174.6h23.3M2080.9,968.3v69.6M2080.9,1121.7v10.5M2080.9,1160.8v13.8M2080.9,1203.2v13.8M2080.9,1245.6v10.5M2080.9,1340.4v57.7M2050.5,1477.2v-41.5M2080.9,1477.2h-30.4M2080.9,1398.1v79.1M1445.8,1251.8h18.5M1464.3,1284.7h-18.5M1464.3,1251.8v32.9M1407.6,1250.9V1228M1413.8,1149.8h-6.2M1330,1062.6v6.7M1330,1078.8v4.8M1330,1092.7v4.7M1330,1106.9v4.8M1330,1121.2v4.8M1330,1135.5v4.8M1330,1149.4v4.7M1330,1163.7v4.7M1330,1177.9v6.2M1330,1193.7v6.6M1330,1209.9v4.7M1330,1223.7v4.8M1330,1238v4.8M1330,1252.3v4.8M1330,1266.6v4.7M1330,1280.4v4.8M1330,1294.7v4.8M1330,1309v6.7M1261.3,2014.2h33.4M1261.3,2033.3v-19.1M1294.7,2014.2v19.1M1423.4,2040.4h63.9v30.5h-63.9zM1273.3,2140.5v-43.3M1305.2,2140.5h-31.9M1305.2,2097.2v43.3M1350.4,2097.2h-45.2M1273.3,2097.2h-7.2v-26.3M1350.4,2070.9v26.3M1824.6,1256.1h-59.1M1722.1,1256.1h-57.6M1631.6,1256.1h-62M1526.3,1256.1h-62M1464.3,1251.8h62M1569.6,1251.8h90.1M1664.5,1251.8h57.6M1765.5,1251.8h59.1M1526.3,1256.1v-4.3M1569.6,1251.8v4.3M1722.1,1256.1v-4.3M1765.5,1251.8v4.3M2024.2,1251.8h19.1M2024.2,1284.7v-32.9M2043.3,1284.7h-19.1M1407.6,1149.8V980.2M1445.8,1149.8h-38.2M1445.8,980.2v113.4M1445.8,1126.5v23.3M1464.3,1121.7h61.5M1569.6,1121.7h61.5M1659.7,1126.5h-90.1M1525.8,1126.5h-80M1525.8,1126.5v-4.8M1569.6,1121.7v4.8M1664.5,1121.7v4.8M1464.3,1126.5h-18.5M1445.8,1093.6h18.5v32.9M1092.2,2140.5v-43.3M1124.6,2140.5h-32.4M1124.6,2097.2v43.3M2043.3,1126.5h-19.1v-32.9h19.1M2080.9,1256.1h25.8M2106.7,1340.4h-25.8M2106.7,1256.1v7.1M2106.7,1295.6v44.8M2150.5,1295.6h-43.8M2106.7,1263.2h43.8v32.4M2106.7,1121.7h-25.8M2080.9,1037.9h25.8v44.7M2106.7,1114.6v7.1M2150.5,1114.6h-43.8" fill-opacity="0" stroke-linejoin="round" stroke-linecap="round" stroke="#023470" stroke-width="3" id="path_77"/><path fill="#000000" d="M2106.7,1082.6h43.8v32M1407.6,823.9h38.2M1407.6,759.6h38.2M1407.6,887.3h38.2M1407.6,697.1h38.2M1407.6,505.1h14.8M1407.6,569h14.8M1407.6,377.4h14.8M1407.6,441.3h14.8M1407.6,632.8h14.8M1422.4,377.4h23.4M1422.4,505.1h23.4M1422.4,632.8h23.4M1422.4,569h23.4M1422.4,441.3h23.4M1422.4,415h-14.8M1445.8,862h-38.2M1445.8,543.2h-38.2M1422.4,924.9h-14.8M1445.8,734.8h-38.2M1422.4,797.2h-14.8M1422.4,478.9h-14.8M1445.8,797.2h-23.4M1407.6,942.1v-17.2M1407.6,887.3V862M1407.6,823.9v-26.7M1407.6,759.6v-24.8M1407.6,697.1v-26.6M1407.6,632.8v-26.2M1407.6,569v-25.8M1407.6,505.1v-26.2M1407.6,441.3V415M1407.6,377.4v-32.9M1445.8,670.5h-38.2M1445.8,478.9h-23.4M1422.4,606.6h-14.8M1445.8,924.9h-23.4M1445.8,415h-23.4M1445.8,606.6h-23.4M1445.8,337.9v39.5M1445.8,415v26.3M1445.8,478.9v26.2M1445.8,543.2V569M1445.8,606.6v26.2M1445.8,670.5v26.6M1445.8,734.8v24.8M1445.8,797.2v26.7M1445.8,862v25.3M1445.8,924.9v17.2M2043.3,980.2h-31.9M1973.3,980.2h-24.8M1910.4,980.2h-24.8M1847.5,980.2h-25.8M1783.6,980.2h-25.7M1719.7,980.2h-27.1M1654.9,980.2h-25.7M1591.6,980.2h-25.8M1528.2,980.2h-26.7M1463.9,980.2h-18.1M1445.8,942.1h18.1M1501.5,942.1h26.7M1565.8,942.1h25.8M1629.2,942.1h25.7M1692.6,942.1h27.1M1757.9,942.1h25.7M1821.7,942.1h25.8M1885.6,942.1h24.8M1948.5,942.1h24.8M2011.4,942.1h31.9M1463.9,956.8v-14.7M1463.9,980.2v-23.4M1501.5,964v16.2M1501.5,942.1V964M1528.2,956.8v-14.7M1528.2,980.2v-23.4M1565.8,942.1v38.1M1591.6,964v-21.9M1591.6,980.2V964M1629.2,942.1v38.1M1654.9,964v-21.9M1654.9,980.2V964M1692.6,964v16.2M1692.6,942.1V964M1719.7,956.8v-14.7M1719.7,964v-7.2M1719.7,980.2V964M1757.9,956.8v7.2M1757.9,942.1v14.7M1757.9,964v16.2M1783.6,964v-7.2M1783.6,980.2V964M1783.6,956.8v-14.7M1821.7,942.1v14.7M1821.7,964v16.2M1821.7,956.8v7.2M1847.5,964v-21.9M1847.5,980.2V964M1885.6,964v16.2M1885.6,942.1V964M1910.4,956.8v-14.7M1910.4,980.2v-23.4M1948.5,942.1v38.1M1973.3,980.2v-38.1M2011.4,956.8v23.4M2011.4,942.1v14.7M2043.3,942.1v26.2M1294.7,803.9h-33.4M1261.3,842h33.4M1294.7,885.4h-33.4v56.7H1238M1261.3,842v-38.1M1294.7,803.9V842M1294.7,885.4v56.7M1131.7,923.5V753.4h4.3M1136,923.5v18.6M1136,753.4v41M1136,803.9v119.6M1103.1,923.5h32.9M1103.1,942.1v-18.6M1136,923.5v18.6M2050.5,968.3v-67.7h30.4v71M989.7,748.6h34.3M1067.4,748.6h35.7M1103.1,753.4h-35.7M1024,753.4h-34.3M1024,753.4v-4.8M1067.4,748.6v4.8M1103.1,753.4h0M1261.8,724.8h-41.4M1177,724.8h-41M1136,720h41M1220.4,720h40.9M1266.1,720h11.4M1177,724.8V720M1220.4,720v4.8M1277.5,720h0M1261.3,720v-9h4.8v9M1131.7,576.1h4.3M1136,732.4h0M1131.7,660.5h4.3M1136,703.8h-4.3V720M1131.7,660.5v-15.3M1131.7,576.1v-9.5M1133.6,645.2h-1.9M1131.7,566.6h4.3M1136,645.2h-2.4M1136,566.6v9.5M1136,645.2v15.3M1136,703.8V720M1136,724.8v7.6M989.7,306.9h57.7M1131.7,306.9h10.5M1170.3,306.9h14.3M1212.7,306.9h14.3M1255.6,306.9h10.5M1350.4,306.9h95.4M1407.6,344.5h-112.9M1261.3,344.5h-5.7M1227,344.5h-14.3M1184.6,344.5h-14.3M1142.2,344.5h-6.2M1103.1,344.5H989.7M1142.2,322.6v-15.7M1142.2,344.5v-21.9M1170.3,330.2v14.3M1170.3,306.9v23.3M1184.6,344.5v-37.6M1212.7,322.6v7.6M1212.7,306.9v15.7M1212.7,330.2v14.3M1227,322.6v-15.7M1227,344.5v-21.9M1255.6,330.2v14.3M1255.6,306.9v23.3M989.7,562.3h113.4M1103.1,566.6H989.7M910.6,306.9h79.1M910.6,337.9v-31M952.1,337.9h-41.5M1136,533.7h7.6M1187.5,533.7h5.7M1198,533.7h10.4M1252.3,533.7h9M1261.3,538.5h-9M1208.4,538.5h-20.9M1143.6,538.5h-7.6M1143.6,538.5v-4.8M1187.5,533.7v4.8M1208.4,538.5v-4.8M1252.3,533.7v4.8M1289.9,720v-9h4.8v9M1289.9,667.1V566.6M1294.2,552.8h0.5v9M1294.7,566.6v100.5M1261.3,363.6v-19.1M1294.7,363.6h-33.4M1294.7,344.5v19.1M1294.7,653.3h112.9M1407.6,658.1h-112.9M1261.8,794.4v-41M1266.6,753.4v41M1407.6,803.9h-112.9M1261.3,803.9h-40.9M1177,803.9h-41M1136,794.4h41M1220.4,794.4h187.2M1177,803.9v-9.5M1220.4,794.4v9.5M1136,363.6h-32.9v-19.1M1136,344.5v19.1M1193.2,533.7V344.5M1198,344.5v189.2M1273.3,237.3h31.9M1273.3,281.1v-43.8M1305.2,237.3v43.8M1427.6,306.9h59.6M1487.2,337.9h-41.4M1487.2,306.9v31M1266.1,281.1h7.2M1305.2,281.1h45.2M1266.1,306.9v-25.8M1350.4,281.1v25.8M1047.4,306.9v-25.8h44.8M1124.6,281.1h7.1v25.8M1092.2,281.1v-43.8h32.4v43.8M1659.7,1167.5h4.8M1659.7,1210.8h4.8M1143.6,1572.5v3.3M1149.8,1581.1l-6.2,-0.5H989.7" fill-opacity="0" stroke-linejoin="round" stroke-linecap="round" stroke="#023470" stroke-width="3" id="path_78"/><path fill="#000000" d="M910.6,306.9h136.8v-25.8h44.8v-43.8h32.4v43.8h7.1v25.8h134.4v-25.8h7.2v-43.8h31.9v43.8h45.2l0.7,25.8h136.1v31h-41.4v604.2h604.7v-41.5h30.4v137.3h25.8v44.7h43.8v32h-43.8v7.1h-25.8v134.4h25.8v7.1h43.8v32.4h-43.8v44.8h-25.8v136.8h-30.4v-41.5h-604.7v605.5l41.4,-0.8v30.5h-136.8v26.3h-45.2v43.3h-31.9v-43.3h-7.2v-26.3h-134.4v26.3h-7.1v43.3h-32.4v-43.3h-44.8v-26.3H910.6v-30.5h41.5v-604.7H347.4v41.5h-30.5v-136.8h-26.2v-44.8h-43.4v-32.4h43.4v-7.1h26.2v-134.4h-26.2v-7.1h-43.4v-32h43.4v-44.7h26.2V900.6h30.5v41.5h604.7V337.9h-41.5z" fill-opacity="0" stroke-linejoin="round" stroke-linecap="round" stroke="#023470" stroke-width="30" id="path_79"/></svg>