<svg id="vector" xmlns="http://www.w3.org/2000/svg" width="1920" height="1080" viewBox="0 0 1920 1080"><path fill="#000000" d="M1718.1,809.2V758M1718.1,758h10.7M1728.8,809.2h-10.7M1718.1,809.2V758M1728.8,758h5.7M1734.5,809.2V758M1734.5,809.2h-5.7M1728.8,809.2V758M1744.4,809.2V758M1734.5,758h9.9M1744.4,809.2h-9.9M1744.4,809.2V758M1573.4,629.3h4.3M1577.7,664.8h-4.3M1616.2,752.3h20.6M1718.1,735.8v-51.2M1718.1,684.6h10.7M1728.8,735.8h-10.7M1718.1,735.8v-51.2M1728.8,684.6h5.7M1734.5,735.8v-51.2M1734.5,735.8h-5.7M1728.8,735.8v-51.2M1744.4,735.8v-51.2M1734.5,684.6h9.9M1744.4,735.8h-9.9M1744.4,735.8v-51.2M1593.3,752.3h20.7M1511.4,684.6h-28.5M1482.9,642.5h28.5M1532.8,758v-5.7M1563.4,752.3v5.7M1523.5,881.9h20M1547.7,881.9h20.7M1381,491.4h-31.4M1349.6,444.3h31.4M1409.5,611.9v-36.3M1450.1,575.6v36.3M1418,714.3v-5M1448.7,709.3v5M1434.4,338.7v1.6M1416.6,340.3v-1.6M1434.4,340.3v1.7M1416.6,342v-1.7M1434.4,342v1.6M1416.6,343.6V342M1485.7,216.5h30M1515.7,263.5h-30M1485.7,347.7h30M1515.7,390.7h-30M1425.1,444.3v-39.6M1465.8,404.7v39.6M1410.2,85.2h49.2M1459.4,85.2v11.6M1410.2,96.8V85.2M1410.2,85.2h49.2M1459.4,96.8v5.7M1410.2,102.5h49.2M1410.2,102.5v-5.7M1410.2,96.8h49.2M1410.2,114.1h49.2M1459.4,102.5v11.6M1410.2,114.1v-11.6M1410.2,114.1h49.2M1744.4,216.5V266M1744.4,266h-10.6M1733.8,216.5h10.6M1744.4,216.5V266M1733.8,266h-5M1728.8,216.5V266M1728.8,216.5h5M1733.8,216.5V266M1718.8,216.5V266M1728.8,266h-10M1718.8,216.5h10M1718.8,216.5V266M1744.4,290v49.5M1744.4,339.5h-10.6M1733.8,290h10.6M1744.4,290v49.5M1733.8,339.5h-5M1728.8,290v49.5M1728.8,290h5M1733.8,290v49.5M1718.8,290v49.5M1728.8,339.5h-10M1718.8,290h10M1718.8,290v49.5M1787.9,482.3v56.1M1787.9,538.4h-14.2M1773.7,482.3h14.2M1787.9,482.3v56.1M1773.7,538.4h-6.5M1767.2,482.3v56.1M1767.2,482.3h6.5M1773.7,482.3v56.1M1753.7,482.3v56.1M1767.2,538.4h-13.5M1753.7,482.3h13.5M1753.7,482.3v56.1M1222,319.7h4.3M1226.3,355.2h-4.3M718.8,219h-42.7M676.1,219v-14.9M718.8,204.1V219M718.8,219h-42.7M676.1,204.1v-6.6M718.8,197.5h-42.7M718.8,197.5v6.6M718.8,204.1h-42.7M718.8,183.5h-42.7M676.1,197.5v-14M718.8,183.5v14M718.8,183.5h-42.7M833.6,219h-48.5M785.1,219v-14.9M833.6,204.1V219M833.6,219h-48.5M785.1,204.1v-6.6M833.6,197.5h-48.5M833.6,197.5v6.6M833.6,204.1h-48.5M833.6,183.5h-48.5M785.1,197.5v-14M833.6,183.5v14M833.6,183.5h-48.5M947.6,219H902M902,219v-14.9M947.6,204.1V219M947.6,219H902M902,204.1v-6.6M947.6,197.5H902M947.6,197.5v6.6M947.6,204.1H902M947.6,183.5H902M902,197.5v-14M947.6,183.5v14M947.6,183.5H902M1028.9,183.5h40.6M1069.5,183.5v14.8M1028.9,198.3v-14.8M1028.9,183.5h40.6M1069.5,198.3v7.4M1028.9,205.7h40.6M1028.9,205.7v-7.4M1028.9,198.3h40.6M1028.9,219h40.6M1069.5,205.7V219M1028.9,219v-13.3M1028.9,219h40.6M1142.9,183.5h40.6M1183.5,183.5v14.8M1142.9,198.3v-14.8M1142.9,183.5h40.6M1183.5,198.3v7.4M1142.9,205.7h40.6M1142.9,205.7v-7.4M1142.9,198.3h40.6M1142.9,219h40.6M1183.5,205.7V219M1142.9,219v-13.3M1142.9,219h40.6M1264.8,183.5h40.6M1305.4,183.5v14.8M1264.8,198.3v-14.8M1264.8,183.5h40.6M1305.4,198.3v7.4M1264.8,205.7h40.6M1264.8,205.7v-7.4M1264.8,198.3h40.6M1264.8,219h40.6M1305.4,205.7V219M1264.8,219v-13.3M1264.8,219h40.6M1316.1,404.7v6.6M1279,411.3v-6.6M698.2,399.7v5.8M661.8,405.5v-5.8M768.7,741.5h-4.2M764.5,706h4.2M768.7,627.6h-4.2M764.5,592.1h4.2M837.9,528.5v-36.3M874.9,492.2v36.3M1289.7,492.2v36.3M1244.8,528.5v-36.3M618.3,492.2h-28.5M589.8,454.2h28.5M1305.4,836.5h-44.9M1260.5,836.5v-14.1M1305.4,822.4v14.1M1305.4,836.5h-44.9M1260.5,822.4v-5.7M1305.4,816.7h-44.9M1305.4,816.7v5.7M1305.4,822.4h-44.9M1305.4,803.4h-44.9M1260.5,816.7v-13.3M1305.4,803.4v13.3M1305.4,803.4h-44.9M1183.5,836.5h-44.9M1138.6,836.5v-14.1M1183.5,822.4v14.1M1183.5,836.5h-44.9M1138.6,822.4v-5.7M1183.5,816.7h-44.9M1183.5,816.7v5.7M1183.5,822.4h-44.9M1183.5,803.4h-44.9M1138.6,816.7v-13.3M1183.5,803.4v13.3M1183.5,803.4h-44.9M1069.5,836.5h-44.9M1024.6,836.5v-14.1M1069.5,822.4v14.1M1069.5,836.5h-44.9M1024.6,822.4v-5.7M1069.5,816.7h-44.9M1069.5,816.7v5.7M1069.5,822.4h-44.9M1069.5,803.4h-44.9M1024.6,816.7v-13.3M1069.5,803.4v13.3M1069.5,803.4h-44.9M947.6,836.5h-44.9M902.7,836.5v-14.1M947.6,822.4v14.1M947.6,836.5h-44.9M902.7,822.4v-5.7M947.6,816.7h-44.9M947.6,816.7v5.7M947.6,822.4h-44.9M947.6,803.4h-44.9M902.7,816.7v-13.3M947.6,803.4v13.3M947.6,803.4h-44.9M833.6,836.5h-48.5M785.1,836.5v-14.1M833.6,822.4v14.1M833.6,836.5h-48.5M785.1,822.4v-5.7M833.6,816.7h-48.5M833.6,816.7v5.7M833.6,822.4h-48.5M833.6,803.4h-48.5M785.1,816.7v-13.3M833.6,803.4v13.3M833.6,803.4h-48.5M718.8,836.5h-42.7M676.1,836.5v-14.1M718.8,822.4v14.1M718.8,836.5h-42.7M676.1,822.4v-5.7M718.8,816.7h-42.7M718.8,816.7v5.7M718.8,822.4h-42.7M718.8,803.4h-42.7M676.1,816.7v-13.3M718.8,803.4v13.3M718.8,803.4h-42.7M996.1,485.6h-26.4M969.7,418.7h26.4M1458.6,935.5h-59.8M1398.8,935.5v-15.6M1458.6,919.9v15.6M1458.6,935.5h-59.8M1398.8,919.9v-7.5M1458.6,912.4h-59.8M1458.6,912.4v7.5M1458.6,919.9h-59.8M1458.6,896.7h-59.8M1398.8,912.4v-15.7M1458.6,896.7v15.7M1458.6,896.7h-59.8M552.1,406.4v37.9M515.7,444.3v-37.9M559.9,114.1h-49.2M510.7,114.1v-12.4M559.9,101.7v12.4M559.9,114.1h-49.2M510.7,101.7v-4.9M559.9,96.8h-49.2M559.9,96.8v4.9M559.9,101.7h-49.2M559.9,85.2h-49.2M510.7,96.8V85.2M559.9,85.2v11.6M559.9,85.2h-49.2M552.1,575.6v34.7M515.7,610.3v-34.7M559.9,935.5h-48.5M511.4,935.5v-14M559.9,921.5v14M559.9,935.5h-48.5M511.4,921.5v-6.6M559.9,914.9h-48.5M559.9,914.9v6.6M559.9,921.5h-48.5M559.9,902.5h-48.5M511.4,914.9v-12.4M559.9,902.5v12.4M559.9,902.5h-48.5M227.8,736.6v-47.1M227.8,689.5h11.4M239.2,736.6h-11.4M227.8,736.6v-47.1M239.2,689.5h5.7M244.9,736.6v-47.1M244.9,736.6h-5.7M239.2,736.6v-47.1M256.3,736.6v-47.1M244.9,689.5h11.4M256.3,736.6h-11.4M256.3,736.6v-47.1M227.8,806.8v-47.1M227.8,759.7h11.4M239.2,806.8h-11.4M227.8,806.8v-47.1M239.2,759.7h5.7M244.9,806.8v-47.1M244.9,806.8h-5.7M239.2,806.8v-47.1M256.3,806.8v-47.1M244.9,759.7h11.4M256.3,806.8h-11.4M256.3,806.8v-47.1M230.6,340.3v-49.5M230.6,290.8H242M242,340.3h-11.4M230.6,340.3v-49.5M242,290.8h5.7M247.7,340.3v-49.5M247.7,340.3H242M242,340.3v-49.5M259.1,340.3v-49.5M247.7,290.8h11.4M259.1,340.3h-11.4M259.1,340.3v-49.5M230.6,266.8v-49.5M230.6,217.3H242M242,266.8h-11.4M230.6,266.8v-49.5M242,217.3h5.7M247.7,266.8v-49.5M247.7,266.8H242M242,266.8v-49.5M259.1,266.8v-49.5M247.7,217.3h11.4M259.1,266.8h-11.4M259.1,266.8v-49.5M184.3,537.6v-56.1M184.3,481.5h11.4M195.7,537.6h-11.4M184.3,537.6v-56.1M195.7,481.5h5.7M201.4,537.6v-56.1M201.4,537.6h-5.7M195.7,537.6v-56.1M212.1,537.6v-56.1M201.4,481.5h10.7M212.1,537.6h-10.7M212.1,537.6v-56.1M1496.4,444.3h159v61.9h-159v-61.9M1496.4,474.9h159M1508.5,444.3v61.9M1520.6,444.3v61.9M1533.5,444.3v61.9M1545.6,444.3v61.9M1557.7,444.3v61.9M1569.8,444.3v61.9M1581.9,444.3v61.9M1594.1,444.3v61.9M1606.2,444.3v61.9M1618.3,444.3v61.9M1631.1,444.3v61.9M1643.2,444.3v61.9" fill-opacity="0" stroke-linejoin="round" stroke-linecap="round" stroke="#023470" stroke-width="3" id="path_0"/><path fill="#000000" d="m1643.2,479 l12.2,-4.1 -12.2,-3.3M474.4,507.1h-159v-61.9h159v61.9M474.4,476.5h-159M462.3,507.1v-61.9M450.1,507.1v-61.9M438,507.1v-61.9M425.2,507.1v-61.9M413.1,507.1v-61.9M401,507.1v-61.9M388.9,507.1v-61.9M376.7,507.1v-61.9M364.6,507.1v-61.9M352.5,507.1v-61.9M340.4,507.1v-61.9M327.6,507.1v-61.9M315.4,507.1v-61.9" fill-opacity="0" stroke-linejoin="round" stroke-linecap="round" stroke="#023470" stroke-width="3" id="path_1"/><path fill="#000000" d="m327.6,472.4 l-12.2,4.1 12.2,3.3M315.4,511.2h159v64.4h-159v-64.4M315.4,543.4h159M327.6,511.2v64.4M340.4,511.2v64.4M352.5,511.2v64.4M364.6,511.2v64.4M376.7,511.2v64.4M388.9,511.2v64.4M401,511.2v64.4M413.1,511.2v64.4M425.2,511.2v64.4M438,511.2v64.4M450.1,511.2v64.4M462.3,511.2v64.4M474.4,511.2v64.4" fill-opacity="0" stroke-linejoin="round" stroke-linecap="round" stroke="#023470" stroke-width="3" id="path_2"/><path fill="#000000" d="m462.3,547.5 l12.1,-4.1 -12.1,-3.3M1655.4,575.6h-159v-64.4h159v64.4M1655.4,543.4h-159M1643.2,575.6v-64.4M1631.1,575.6v-64.4M1618.3,575.6v-64.4M1606.2,575.6v-64.4M1594.1,575.6v-64.4M1581.9,575.6v-64.4M1569.8,575.6v-64.4M1557.7,575.6v-64.4M1545.6,575.6v-64.4M1533.5,575.6v-64.4M1520.6,575.6v-64.4M1508.5,575.6v-64.4" fill-opacity="0" stroke-linejoin="round" stroke-linecap="round" stroke="#023470" stroke-width="3" id="path_3"/><path fill="#000000" d="m1508.5,540.1 l-12.1,3.3 12.1,4.1M1787.9,611.9h-43.5M1718.1,611.9H1511.4M1482.9,611.9h-32.8M1409.5,611.9H1381M1381,575.6h28.5M1450.1,611.9v-36.3h303.6M1409.5,611.9v-36.3M1744.4,611.9v72.7M1744.4,735.8V758M1744.4,809.2v106.5M1734.5,684.6h9.9M1718.1,684.6h16.4M1718.1,758H1744.4M1744.4,809.2h-26.3M1744.4,735.8h-26.3M1718.1,881.9V809.2M1718.1,758v-22.2M1718.1,684.6v-72.7M1669.6,915.7h-4.3M1744.4,814.2v4.9M1511.4,752.3h21.4M1563.4,752.3h10M1577.7,752.3h140.4M1718.1,758h-154.7M1532.8,758h-21.4M1563.4,752.3v5.7M1532.8,758v-5.7M1744.4,915.7H1520.6M1511.4,881.9h206.7M1511.4,684.6h-28.5M1482.9,642.5h28.5v-30.6M1511.4,684.6v197.3M1482.9,896.7V684.6M1482.9,642.5v-30.6M1577.7,611.9v17.4M1577.7,664.8v87.5M1573.4,629.3h4.3M1577.7,664.8h-4.3v87.5M1573.4,629.3v-17.4M1520.6,935.5h-62M1398.8,935.5h-16.4M1520.6,915.7v19.8M1382.4,896.7h16.4M1458.6,896.7h24.3M1458.6,919.9v15.6M1458.6,896.7v23.2M1398.8,912.4v-15.7M1398.8,935.5v-23.1M1381,397.3v7.4M1381,491.4v84.2M1381,491.4h-31.4M1349.6,402.2v-4.9M1349.6,492.2v-0.8M1349.6,444.3v-42.1M1381,492.2v83.4M1381,611.9v218.8M1346,803.4V528.5M1381,611.9v4.1M1346,616v-40.4M1381,114.1V352.7M1349.6,352.7V219M1349.6,183.5V85.2M1381,328.8v75.9M1349.6,397.3v-44.6M618.3,183.5h57.8M718.8,183.5h66.3M833.6,183.5H902M947.6,183.5h81.3M1069.5,183.5h73.4M1183.5,183.5h81.3M1305.4,183.5h44.2M1349.6,219h-44.2M1264.8,219h-81.3M1142.9,219h-73.4M1028.9,219h-32.8M969.7,219h-22.1M902,219h-68.4M785.1,219h-66.3M676.1,219h-57.8M1305.4,183.5V219M1264.8,219v-35.5M1183.5,183.5V219M1142.9,219v-35.5M1069.5,205.7V219M1069.5,183.5V205.7M1028.9,219v-35.5M947.6,204.1V219M947.6,183.5v20.6M902,219v-35.5M833.6,183.5V219M785.1,219v-35.5M718.8,183.5V219M676.1,219v-35.5M1349.6,411.3h-33.5M1279,411.3H996.1M996.1,404.7H1222M1226.3,404.7h52.7M1316.1,411.3v-6.6h33.5M1279,411.3v-6.6M1381,404.7h44.1M1465.8,404.7h19.9M1515.7,404.7h203.1M1744.4,404.7h43.5M1753.7,444.3h-287.9M1425.1,444.3h-75.5M1465.8,404.7v39.6M1425.1,444.3v-39.6M1349.6,444.3v-39.6M1410.2,114.1v6.6h-25.7v218M1384.5,343.6v61.1M1485.7,114.1h-26.3M1410.2,114.1H1381M1520.6,85.2v18.2M1349.6,85.2h60.6M1459.4,85.2h61.2M1459.4,102.5v11.6M1459.4,85.2v17.3M1410.2,111.6v2.5M1410.2,96.8V85.2M1410.2,111.6V96.8M1485.7,343.6h-51.3M1416.6,343.6h-32.1M1384.5,338.7h32.1M1434.4,340.3v-1.6h46.3M1434.4,342v1.6M1434.4,340.3V342M1416.6,343.6v-4.9M639,492.2H837.9M874.9,492.2h94.8M996.1,492.2h248.7M1289.7,492.2h59.9M1346,528.5h-56.3M1244.8,528.5H874.9M837.9,528.5H639M1289.7,492.2v36.3M1244.8,528.5v-36.3M874.9,492.2v36.3M837.9,528.5v-36.3M1482.9,714.3h-34.2M1418,714.3h-37M1381,709.3h37M1448.7,714.3v-5h34.2M1418,714.3v-5M1787.9,404.7v77.6M1753.7,538.4h34.2v73.5M1773.7,482.3h14.2M1753.7,482.3h20M1753.7,575.6v-37.2M1753.7,482.3v-38M618.3,803.4h57.8M718.8,803.4H785.1M833.6,803.4h69.1M947.6,803.4h77M1069.5,803.4h69.1M1183.5,803.4h77M1305.4,803.4h40.6M1343.2,836.5h-37.8M1260.5,836.5h-77M1138.6,836.5h-69.1M1024.6,836.5h-77M902.7,836.5h-69.1M785.1,836.5h-66.3M676.1,836.5h-57.8M1305.4,803.4v33.1M1260.5,836.5v-33.1M1183.5,803.4v33.1M1138.6,816.7v-13.3M1138.6,836.5v-19.8M1069.5,803.4v33.1M1024.6,836.5v-14.1M1024.6,822.4v-19M947.6,803.4v33.1M902.7,836.5v-14.1M902.7,822.4v-19M833.6,803.4v13.3M833.6,816.7v19.8M785.1,836.5v-33.1M718.8,803.4v13.3M718.8,816.7v19.8M676.1,836.5v-33.1M1381,803.4v93.3M1343.2,912.4v-75.9M1480.7,120.7h-21.3v-6.6M1480.7,338.7v-75.2h5M1485.7,216.5h-5v-95.8M1515.7,134.7v81.8M1515.7,263.5v84.2M1515.7,390.7v14M1485.7,347.7h30M1515.7,390.7h-30M1515.7,263.5h-30M1485.7,216.5h30M1485.7,404.7v-14M1485.7,347.7v-84.2M1485.7,114.1V216.5M1520.6,103.4h223.8M1718.8,134.7h-203.1M1718.8,216.5h25.6M1744.4,266h-25.6M1718.8,290h25.6M1744.4,339.5h-25.6M1744.4,103.4v113.1M1744.4,266v24M1744.4,339.5v65.2M1718.8,404.7v-65.2M1718.8,290v-24M1718.8,216.5v-81.8M618.3,492.2h0M589.8,454.2h28.5M618.3,492.2h-28.5M618.3,85.2v98.3M618.3,219v235.2M618.3,528.5v274.9M618.3,836.5v99M589.8,902.5V610.3M589.8,575.6v-83.4M589.8,454.2v-9.9M589.8,406.4V114.1M969.7,418.7h26.4M996.1,485.6h-26.4M996.1,219v199.7M996.1,485.6v6.6M969.7,492.2v-6.6M969.7,418.7V219M1222,319.7h4.3M1226.3,355.2h-4.3M1226.3,219v100.7M1226.3,355.2v49.5M1222,404.7v-49.5M1222,319.7V219M618.3,399.7h43.5M698.2,399.7h271.5M969.7,405.5H698.2M661.8,405.5h-43.5M698.2,399.7v5.8M661.8,405.5v-5.8M589.8,444.3h-37.7M515.7,444.3H212.1M184.3,406.4h46.3M259.1,406.4h256.6M552.1,444.3v-37.9h37.7M515.7,444.3v-37.9M184.3,444.3V406.4M768.7,528.5v63.6M768.7,627.6V706M764.5,741.5h4.2v61.9M764.5,706h4.2M768.7,627.6h-4.2M764.5,592.1h4.2M764.5,803.4v-61.9M764.5,706v-38.8M764.5,662.3v-34.7M764.5,592.1v-63.6M1205.6,528.5v274.9M1201.4,803.4V528.5M639,492.2h46.3M685.3,528.5h-67M618.3,492.2H639M212.1,575.6h303.6M552.1,575.6h37.7M589.8,610.3h-37.7M515.7,610.3H256.3M227.8,610.3h-34.2M552.1,575.6v34.7M515.7,610.3v-34.7M764.5,667.2H618.3M618.3,662.3h146.2M455.8,85.2h54.9M559.9,85.2h58.4M589.8,114.1h-29.9M510.7,114.1h-23.5M559.9,85.2v28.9M510.7,114.1V85.2M455.8,104.2v-19M1388.8,935.5h-6.4M1382.4,896.7h6.4M1382.4,935.5h-39.2M1381,896.7h1.4M1343.2,935.5v-38.8M618.3,935.5h-58.4M511.4,935.5h-55.6M487.9,902.5h23.5M559.9,935.5v-33h29.9M511.4,935.5v-33M455.8,935.5v-19.8M227.8,759.7h28.5M256.3,806.8h-28.5M244.9,689.5h11.4M227.8,689.5h17.1M256.3,736.6h-28.5M256.3,610.3v79.2M256.3,736.6v23.1M256.3,806.8v75.9M227.8,915.7V806.8M227.8,759.7v-23.1M227.8,689.5v-79.2M259.1,266.8h-28.5M230.6,217.3h28.5M230.6,290.8h28.5M259.1,340.3h-28.5M259.1,136.4v80.9M259.1,266.8v24M259.1,340.3v66.1M230.6,406.4v-66.1M230.6,290.8v-24M230.6,217.3V104.2M212.1,610.3h-27.8M212.1,537.6H184.3M212.1,444.3v37.2M212.1,537.6v38M184.3,481.5h27.8M184.3,610.3v-72.7M184.3,481.5V427M487.9,882.7v19.8M455.8,915.7h-228M256.3,882.7h231.6M230.6,104.2h225.2M487.2,114.1v22.3H259.1" fill-opacity="0" stroke-linejoin="round" stroke-linecap="round" stroke="#023470" stroke-width="3" id="path_4"/><path fill="#000000" d="M618.3,836.5h724.9v99h177.4v-19.8h223.8V611.9h43.5V404.7h-43.5V103.4h-223.8V85.2h-171v98.3H618.3V85.2H455.8v19H230.6v302.2h-46.3v203.9h43.5v305.4h228v19.8h162.5v-99" fill-opacity="0" stroke-linejoin="round" stroke-linecap="round" stroke="#023470" stroke-width="3" id="path_5"/><path fill="#000000" d="M1749.7,921h-225.4v21.1H1346V841.3H626.2v100.8H452V922H222.6V617.4h-43.8V406H225V100.4h227V81.2h174.2v99.9h723.1V80.3h175v19.2h226.2V405h42.9v212.4h-43.7z" fill-opacity="0" stroke-linejoin="round" stroke-linecap="round" stroke="#023470" stroke-width="30" id="path_6"/></svg>