<svg id="vector" xmlns="http://www.w3.org/2000/svg" width="2364" height="2364" viewBox="0 0 2364 2364"><path fill="#000000" d="M642.3,1437.5h-62.9v-15.8" fill-opacity="0" stroke-linejoin="round" stroke-linecap="round" stroke="#023470" stroke-width="3" id="path_0"/><path fill="#000000" d="M642.3,1421.7v15.8h-62.9M579.4,1421.7v-7.1M642.3,1414.6v7.1h-62.9M642.3,1399.8h-62.9M642.3,1399.8v14.8M642.3,1399.8h-62.9M938.7,1437.5h-66.2v-15.8" fill-opacity="0" stroke-linejoin="round" stroke-linecap="round" stroke="#023470" stroke-width="3" id="path_1"/><path fill="#000000" d="M938.7,1421.7v15.8h-66.2M872.5,1421.7v-7.1M938.7,1414.6v7.1h-66.2M938.7,1399.8h-66.2M938.7,1399.8v14.8M938.7,1399.8h-66.2M840.6,1437.5h-66.3v-15.8" fill-opacity="0" stroke-linejoin="round" stroke-linecap="round" stroke="#023470" stroke-width="3" id="path_2"/><path fill="#000000" d="M840.6,1421.7v15.8h-66.3M774.3,1421.7v-7.1M840.6,1414.6v7.1h-66.3M840.6,1399.8h-66.3M840.6,1399.8v14.8M840.6,1399.8h-66.3M741.5,1437.5h-66.3v-15.8" fill-opacity="0" stroke-linejoin="round" stroke-linecap="round" stroke="#023470" stroke-width="3" id="path_3"/><path fill="#000000" d="M741.5,1421.7v15.8h-66.3M675.2,1421.7v-7.1M741.5,1414.6v7.1h-66.3M741.5,1399.8h-66.3M741.5,1399.8v14.8M741.5,1399.8h-66.3M545.6,1437.5h-72.9v-15.8" fill-opacity="0" stroke-linejoin="round" stroke-linecap="round" stroke="#023470" stroke-width="3" id="path_4"/><path fill="#000000" d="M545.6,1421.7v15.8h-72.9M472.7,1421.7v-7.1M545.6,1414.6v7.1h-72.9M545.6,1399.8h-72.9M545.6,1399.8v14.8M545.6,1399.8h-72.9M438.9,1437.5h-66.3v-15.8" fill-opacity="0" stroke-linejoin="round" stroke-linecap="round" stroke="#023470" stroke-width="3" id="path_5"/><path fill="#000000" d="M438.9,1421.7v15.8h-66.3M372.6,1421.7v-7.1M438.9,1414.6v7.1h-66.3M438.9,1399.8h-66.3M438.9,1399.8v14.8M438.9,1399.8h-66.3M989.7,1723.4v37.7H974" fill-opacity="0" stroke-linejoin="round" stroke-linecap="round" stroke="#023470" stroke-width="3" id="path_6"/><path fill="#000000" d="M974,1723.4h15.7v37.7M974,1761.1h-7.6M966.4,1723.4h7.6v37.7M952.1,1723.4v37.7M952.1,1723.4h14.3M952.1,1723.4v37.7M989.7,1460.8v37.7H974" fill-opacity="0" stroke-linejoin="round" stroke-linecap="round" stroke="#023470" stroke-width="3" id="path_7"/><path fill="#000000" d="M974,1460.8h15.7v37.7M974,1498.5h-7.6M966.4,1460.8h7.6v37.7M952.1,1460.8v37.7M952.1,1460.8h14.3M952.1,1460.8v37.7M989.7,1524.2v38.1H974" fill-opacity="0" stroke-linejoin="round" stroke-linecap="round" stroke="#023470" stroke-width="3" id="path_8"/><path fill="#000000" d="M974,1524.2h15.7v38.1M974,1562.3h-7.6M966.4,1524.2h7.6v38.1M952.1,1524.2v38.1M952.1,1524.2h14.3M952.1,1524.2v38.1M989.7,1588.6v42.4H974" fill-opacity="0" stroke-linejoin="round" stroke-linecap="round" stroke="#023470" stroke-width="3" id="path_9"/><path fill="#000000" d="M974,1588.6h15.7v42.4M974,1631h-7.6M966.4,1588.6h7.6v42.4M952.1,1588.6v42.4M952.1,1588.6h14.3M952.1,1588.6v42.4M989.7,1656.7v41H974" fill-opacity="0" stroke-linejoin="round" stroke-linecap="round" stroke="#023470" stroke-width="3" id="path_10"/><path fill="#000000" d="M974,1656.7h15.7v41M974,1697.7h-7.6M966.4,1656.7h7.6v41M952.1,1656.7v41M952.1,1656.7h14.3M952.1,1656.7v41M989.7,1786.8v38.2H974" fill-opacity="0" stroke-linejoin="round" stroke-linecap="round" stroke="#023470" stroke-width="3" id="path_11"/><path fill="#000000" d="M974,1786.8h15.7v38.2M974,1825h-7.6M966.4,1786.8h7.6v38.2M952.1,1786.8v38.2M952.1,1786.8h14.3M952.1,1786.8v38.2M989.7,1851.2v38.1H974" fill-opacity="0" stroke-linejoin="round" stroke-linecap="round" stroke="#023470" stroke-width="3" id="path_12"/><path fill="#000000" d="M974,1851.2h15.7v38.1M974,1889.3h-7.6M966.4,1851.2h7.6v38.1M952.1,1851.2v38.1M952.1,1851.2h14.3M952.1,1851.2v38.1M989.7,1914.6v37.6H974" fill-opacity="0" stroke-linejoin="round" stroke-linecap="round" stroke="#023470" stroke-width="3" id="path_13"/><path fill="#000000" d="M974,1914.6h15.7v37.6M974,1952.2h-7.6M966.4,1914.6h7.6v37.6M952.1,1914.6v37.6M952.1,1914.6h14.3M952.1,1914.6v37.6M989.7,1978.4v37.7H974" fill-opacity="0" stroke-linejoin="round" stroke-linecap="round" stroke="#023470" stroke-width="3" id="path_14"/><path fill="#000000" d="M974,1978.4h15.7v37.7M974,2016.1h-7.6M966.4,1978.4h7.6v37.7M952.1,1978.4v37.7M952.1,1978.4h14.3M952.1,1978.4v37.7M989.7,887.5v37.6H974" fill-opacity="0" stroke-linejoin="round" stroke-linecap="round" stroke="#023470" stroke-width="3" id="path_15"/><path fill="#000000" d="M974,887.5h15.7v37.6M974,925.1h-7.6M966.4,887.5h7.6v37.6M952.1,887.5v37.6M952.1,887.5h14.3M952.1,887.5v37.6M989.7,823.6v37.6H974" fill-opacity="0" stroke-linejoin="round" stroke-linecap="round" stroke="#023470" stroke-width="3" id="path_16"/><path fill="#000000" d="M974,823.6h15.7v37.6M974,861.2h-7.6M966.4,823.6h7.6v37.6M966.4,861.2h-14.3M952.1,823.6h14.3M989.7,759.7v37.7H974" fill-opacity="0" stroke-linejoin="round" stroke-linecap="round" stroke="#023470" stroke-width="3" id="path_17"/><path fill="#000000" d="M974,759.7h15.7v37.7M974,797.4h-7.6M966.4,759.7h7.6v37.7M966.4,797.4h-14.3M952.1,759.7h14.3M989.7,696.3V734H974" fill-opacity="0" stroke-linejoin="round" stroke-linecap="round" stroke="#023470" stroke-width="3" id="path_18"/><path fill="#000000" d="M974,696.3h15.7V734M974,734h-7.6M966.4,696.3h7.6V734M952.1,696.3V734M952.1,696.3h14.3M952.1,696.3v191.2M952.1,670.1V632h15.7" fill-opacity="0" stroke-linejoin="round" stroke-linecap="round" stroke="#023470" stroke-width="3" id="path_19"/><path fill="#000000" d="M967.8,670.1h-15.7V632M967.8,632h7.2M975,670.1h-7.2V632M989.7,670.1V632M989.7,670.1H975M989.7,670.1V632M952.1,606.7v-37.6h15.7" fill-opacity="0" stroke-linejoin="round" stroke-linecap="round" stroke="#023470" stroke-width="3" id="path_20"/><path fill="#000000" d="M967.8,606.7h-15.7v-37.6M967.8,569.1h7.2M975,606.7h-7.2v-37.6M989.7,606.7v-37.6M989.7,606.7H975M989.7,606.7v-37.6M952.1,541.4v-37.6h15.7" fill-opacity="0" stroke-linejoin="round" stroke-linecap="round" stroke="#023470" stroke-width="3" id="path_21"/><path fill="#000000" d="M967.8,541.4h-15.7v-37.6M967.8,503.8h7.2M975,541.4h-7.2v-37.6M989.7,541.4v-37.6M989.7,541.4H975M989.7,541.4v-37.6M952.1,477.1v-37.7h15.7" fill-opacity="0" stroke-linejoin="round" stroke-linecap="round" stroke="#023470" stroke-width="3" id="path_22"/><path fill="#000000" d="M967.8,477.1h-15.7v-37.7M967.8,439.4h7.2M975,477.1h-7.2v-37.7M989.7,477.1v-37.7M989.7,477.1H975M989.7,477.1v-37.7M952.1,415.6v-38.1h15.7" fill-opacity="0" stroke-linejoin="round" stroke-linecap="round" stroke="#023470" stroke-width="3" id="path_23"/><path fill="#000000" d="M967.8,415.6h-15.7v-38.1M967.8,377.5h7.2M975,415.6h-7.2v-38.1M989.7,415.6v-38.1M989.7,415.6H975M989.7,415.6v-38.1M1501.5,1437.5h-37.6v-15.8" fill-opacity="0" stroke-linejoin="round" stroke-linecap="round" stroke="#023470" stroke-width="3" id="path_24"/><path fill="#000000" d="M1501.5,1421.7v15.8h-37.6M1463.9,1421.7v-7.1M1501.5,1414.6v7.1h-37.6M1501.5,1399.8h-37.6M1501.5,1399.8v14.8M1501.5,1399.8h-37.6M1565.4,1437.5h-37.7v-15.8" fill-opacity="0" stroke-linejoin="round" stroke-linecap="round" stroke="#023470" stroke-width="3" id="path_25"/><path fill="#000000" d="M1565.4,1421.7v15.8h-37.7M1527.7,1421.7v-7.1M1565.4,1414.6v7.1h-37.7M1565.4,1399.8h-37.7M1565.4,1399.8v14.8M1565.4,1399.8h-37.7M1630.2,1437.5h-37.7v-15.8" fill-opacity="0" stroke-linejoin="round" stroke-linecap="round" stroke="#023470" stroke-width="3" id="path_26"/><path fill="#000000" d="M1630.2,1421.7v15.8h-37.7M1592.5,1421.7v-7.1M1630.2,1414.6v7.1h-37.7M1630.2,1399.8h-37.7M1630.2,1399.8v14.8M1630.2,1399.8h-37.7M1693.5,1437.5h-37.6v-15.8" fill-opacity="0" stroke-linejoin="round" stroke-linecap="round" stroke="#023470" stroke-width="3" id="path_27"/><path fill="#000000" d="M1693.5,1421.7v15.8h-37.6M1655.9,1421.7v-7.1M1693.5,1414.6v7.1h-37.6M1693.5,1399.8h-37.6M1693.5,1399.8v14.8M1693.5,1399.8h-37.6M1757.4,1437.5h-37.7v-15.8" fill-opacity="0" stroke-linejoin="round" stroke-linecap="round" stroke="#023470" stroke-width="3" id="path_28"/><path fill="#000000" d="M1757.4,1421.7v15.8h-37.7M1719.7,1421.7v-7.1M1757.4,1414.6v7.1h-37.7M1757.4,1399.8h-37.7M1757.4,1399.8v14.8M1757.4,1399.8h-37.7M1828.9,1437.5h-45.3v-15.8" fill-opacity="0" stroke-linejoin="round" stroke-linecap="round" stroke="#023470" stroke-width="3" id="path_29"/><path fill="#000000" d="M1828.9,1421.7v15.8h-45.3M1783.6,1421.7v-7.1M1828.9,1414.6v7.1h-45.3M1828.9,1399.8h-45.3M1828.9,1399.8v14.8M1828.9,1399.8h-45.3M1892.2,1437.5h-37.6v-15.8" fill-opacity="0" stroke-linejoin="round" stroke-linecap="round" stroke="#023470" stroke-width="3" id="path_30"/><path fill="#000000" d="M1892.2,1421.7v15.8h-37.6M1854.6,1421.7v-7.1M1892.2,1414.6v7.1h-37.6M1892.2,1399.8h-37.6M1892.2,1399.8v14.8M1892.2,1399.8h-37.6M1955.1,1437.5h-37.6v-15.8" fill-opacity="0" stroke-linejoin="round" stroke-linecap="round" stroke="#023470" stroke-width="3" id="path_31"/><path fill="#000000" d="M1955.1,1421.7v15.8h-37.6M1917.5,1421.7v-7.1M1955.1,1414.6v7.1h-37.6M1955.1,1399.8h-37.6M1955.1,1399.8v14.8M1955.1,1399.8h-37.6M2019,1437.5h-37.6v-15.8" fill-opacity="0" stroke-linejoin="round" stroke-linecap="round" stroke="#023470" stroke-width="3" id="path_32"/><path fill="#000000" d="M2019,1421.7v15.8h-37.6M1981.4,1421.7v-7.1M2019,1414.6v7.1h-37.6M2019,1399.8h-37.6M2019,1399.8v14.8M2019,1399.8h-37.6M1227,2035.1h28.1v15.8" fill-opacity="0" stroke-linejoin="round" stroke-linecap="round" stroke="#023470" stroke-width="3" id="path_33"/><path fill="#000000" d="M1227,2050.9v-15.8h28.1M1255.1,2050.9v7.6M1227,2058.5v-7.6h28.1M1227,2073.3h28.1M1227,2073.3v-14.8M1227,2073.3h28.1M1184.1,2035.1h28.2v15.8" fill-opacity="0" stroke-linejoin="round" stroke-linecap="round" stroke="#023470" stroke-width="3" id="path_34"/><path fill="#000000" d="M1184.1,2050.9v-15.8h28.2M1212.3,2050.9v7.6M1184.1,2058.5v-7.6h28.2M1184.1,2073.3h28.2M1184.1,2073.3v-14.8M1184.1,2073.3h28.2M1142.2,2035.1h28.1v15.8" fill-opacity="0" stroke-linejoin="round" stroke-linecap="round" stroke="#023470" stroke-width="3" id="path_35"/><path fill="#000000" d="M1142.2,2050.9v-15.8h28.1M1170.3,2050.9v7.6M1142.2,2058.5v-7.6h28.1M1142.2,2073.3h28.1M1142.2,2073.3v-14.8M1142.2,2073.3h28.1M1227,308.4h28.1v15.7" fill-opacity="0" stroke-linejoin="round" stroke-linecap="round" stroke="#023470" stroke-width="3" id="path_36"/><path fill="#000000" d="M1227,324.1v-15.7h28.1M1255.1,324.1v7.6" fill-opacity="0" stroke-linejoin="round" stroke-linecap="round" stroke="#023470" stroke-width="3" id="path_37"/><path fill="#000000" d="M1227,331.7v-7.6h28.1M1227,346.5h28.1M1227,346.5v-14.8M1227,346.5h28.1M1184.1,308.4h28.6v15.7" fill-opacity="0" stroke-linejoin="round" stroke-linecap="round" stroke="#023470" stroke-width="3" id="path_38"/><path fill="#000000" d="M1184.1,324.1v-15.7h28.6M1212.7,324.1v7.6" fill-opacity="0" stroke-linejoin="round" stroke-linecap="round" stroke="#023470" stroke-width="3" id="path_39"/><path fill="#000000" d="M1184.1,331.7v-7.6h28.6M1184.1,346.5h28.6M1184.1,346.5v-14.8M1184.1,346.5h28.6M1141.7,308.4h28.6v15.7" fill-opacity="0" stroke-linejoin="round" stroke-linecap="round" stroke="#023470" stroke-width="3" id="path_40"/><path fill="#000000" d="M1141.7,324.1v-15.7h28.6M1170.3,324.1v7.6" fill-opacity="0" stroke-linejoin="round" stroke-linecap="round" stroke="#023470" stroke-width="3" id="path_41"/><path fill="#000000" d="M1141.7,331.7v-7.6h28.6M1141.7,346.5h28.6M1141.7,346.5v-14.8M1141.7,346.5h28.6M935.4,981.8h-66.2v-15.7" fill-opacity="0" stroke-linejoin="round" stroke-linecap="round" stroke="#023470" stroke-width="3" id="path_42"/><path fill="#000000" d="M935.4,966.1v15.7h-66.2M869.2,966.1v-7.6M935.4,958.5v7.6h-66.2M935.4,944.2h-66.2M935.4,944.2v14.3M935.4,944.2h-66.2M835.8,981.8h-66.2v-15.7" fill-opacity="0" stroke-linejoin="round" stroke-linecap="round" stroke="#023470" stroke-width="3" id="path_43"/><path fill="#000000" d="M835.8,966.1v15.7h-66.2M769.6,966.1v-7.6M835.8,958.5v7.6h-66.2M835.8,944.2h-66.2M835.8,944.2v14.3M835.8,944.2h-66.2M736.7,981.8h-66.2v-15.7" fill-opacity="0" stroke-linejoin="round" stroke-linecap="round" stroke="#023470" stroke-width="3" id="path_44"/><path fill="#000000" d="M736.7,966.1v15.7h-66.2M670.5,966.1v-7.6M736.7,958.5v7.6h-66.2M736.7,944.2h-66.2M736.7,944.2v14.3M736.7,944.2h-66.2M638.1,981.8h-66.3v-15.7" fill-opacity="0" stroke-linejoin="round" stroke-linecap="round" stroke="#023470" stroke-width="3" id="path_45"/><path fill="#000000" d="M638.1,966.1v15.7h-66.3M571.8,966.1v-7.6M638.1,958.5v7.6h-66.3M638.1,944.2h-66.3M638.1,944.2v14.3M638.1,944.2h-66.3M538.5,981.8h-65.8v-15.7" fill-opacity="0" stroke-linejoin="round" stroke-linecap="round" stroke="#023470" stroke-width="3" id="path_46"/><path fill="#000000" d="M538.5,966.1v15.7h-65.8M472.7,966.1v-7.6M538.5,958.5v7.6h-65.8M538.5,944.2h-65.8M538.5,944.2v14.3M538.5,944.2h-65.8M438.9,981.8h-66.3v-15.7" fill-opacity="0" stroke-linejoin="round" stroke-linecap="round" stroke="#023470" stroke-width="3" id="path_47"/><path fill="#000000" d="M438.9,966.1v15.7h-66.3M372.6,966.1v-7.6M438.9,958.5v7.6h-66.3M438.9,944.2h-66.3M438.9,944.2v14.3M438.9,944.2h-66.3M2019.5,981.8h-37.7v-15.7" fill-opacity="0" stroke-linejoin="round" stroke-linecap="round" stroke="#023470" stroke-width="3" id="path_48"/><path fill="#000000" d="M2019.5,966.1v15.7h-37.7M1981.8,966.1v-7.6M2019.5,958.5v7.6h-37.7M2019.5,944.2h-37.7M2019.5,944.2v14.3M2019.5,944.2h-37.7M1955.1,981.8h-37.6v-15.7" fill-opacity="0" stroke-linejoin="round" stroke-linecap="round" stroke="#023470" stroke-width="3" id="path_49"/><path fill="#000000" d="M1955.1,966.1v15.7h-37.6M1917.5,966.1v-7.6M1955.1,958.5v7.6h-37.6M1955.1,944.2h-37.6M1955.1,944.2v14.3M1955.1,944.2h-37.6M1891.8,981.8h-38.1v-15.7" fill-opacity="0" stroke-linejoin="round" stroke-linecap="round" stroke="#023470" stroke-width="3" id="path_50"/><path fill="#000000" d="M1891.8,966.1v15.7h-38.1M1853.7,966.1v-7.6M1891.8,958.5v7.6h-38.1M1891.8,944.2h-38.1M1891.8,944.2v14.3M1891.8,944.2h-38.1M1828.4,981.8h-44.8v-15.7" fill-opacity="0" stroke-linejoin="round" stroke-linecap="round" stroke="#023470" stroke-width="3" id="path_51"/><path fill="#000000" d="M1828.4,966.1v15.7h-44.8M1783.6,966.1v-7.6M1828.4,958.5v7.6h-44.8M1828.4,944.2h-44.8M1828.4,944.2v14.3M1828.4,944.2h-44.8M1757.4,981.8h-37.7v-15.7" fill-opacity="0" stroke-linejoin="round" stroke-linecap="round" stroke="#023470" stroke-width="3" id="path_52"/><path fill="#000000" d="M1757.4,966.1v15.7h-37.7M1719.7,966.1v-7.6M1757.4,958.5v7.6h-37.7M1757.4,944.2h-37.7M1757.4,944.2v14.3M1757.4,944.2h-37.7M1692.6,981.8h-37.7v-15.7" fill-opacity="0" stroke-linejoin="round" stroke-linecap="round" stroke="#023470" stroke-width="3" id="path_53"/><path fill="#000000" d="M1692.6,966.1v15.7h-37.7M1654.9,966.1v-7.6M1692.6,958.5v7.6h-37.7M1692.6,944.2h-37.7M1692.6,944.2v14.3M1692.6,944.2h-37.7M1629.2,981.8h-37.6v-15.7" fill-opacity="0" stroke-linejoin="round" stroke-linecap="round" stroke="#023470" stroke-width="3" id="path_54"/><path fill="#000000" d="M1629.2,966.1v15.7h-37.6M1591.6,966.1v-7.6M1629.2,958.5v7.6h-37.6M1629.2,944.2h-37.6M1629.2,944.2v14.3M1629.2,944.2h-37.6M1565.8,981.8h-37.6v-15.7" fill-opacity="0" stroke-linejoin="round" stroke-linecap="round" stroke="#023470" stroke-width="3" id="path_55"/><path fill="#000000" d="M1565.8,966.1v15.7h-37.6M1528.2,966.1v-7.6M1565.8,958.5v7.6h-37.6M1565.8,944.2h-37.6M1565.8,944.2v14.3M1565.8,944.2h-37.6M1501.5,981.8h-37.6v-15.7" fill-opacity="0" stroke-linejoin="round" stroke-linecap="round" stroke="#023470" stroke-width="3" id="path_56"/><path fill="#000000" d="M1501.5,966.1v15.7h-37.6M1463.9,966.1v-7.6M1501.5,958.5v7.6h-37.6M1501.5,944.2h-37.6M1501.5,944.2v14.3M1501.5,944.2h-37.6M2080.9,1218.7v28.6h-15.7" fill-opacity="0" stroke-linejoin="round" stroke-linecap="round" stroke="#023470" stroke-width="3" id="path_57"/><path fill="#000000" d="M2065.2,1218.7h15.7v28.6M2065.2,1247.3h-7.6M2057.6,1218.7h7.6v28.6M2042.8,1218.7v28.6M2042.8,1218.7h14.8M2042.8,1218.7v28.6M2080.9,1176.3v28.6h-15.7" fill-opacity="0" stroke-linejoin="round" stroke-linecap="round" stroke="#023470" stroke-width="3" id="path_58"/><path fill="#000000" d="M2065.2,1176.3h15.7v28.6M2065.2,1204.9h-7.6M2057.6,1176.3h7.6v28.6M2042.8,1176.3v28.6M2042.8,1176.3h14.8M2042.8,1176.3v28.6M2080.9,1134.3v28.2h-15.7" fill-opacity="0" stroke-linejoin="round" stroke-linecap="round" stroke="#023470" stroke-width="3" id="path_59"/><path fill="#000000" d="M2065.2,1134.3h15.7v28.2M2065.2,1162.5h-7.6M2057.6,1134.3h7.6v28.2M2042.8,1134.3v28.2M2042.8,1134.3h14.8M2042.8,1134.3v28.2M1445.3,825.5v38.1h-15.7" fill-opacity="0" stroke-linejoin="round" stroke-linecap="round" stroke="#023470" stroke-width="3" id="path_60"/><path fill="#000000" d="M1429.6,825.5h15.7v38.1M1429.6,863.6h-7.2" fill-opacity="0" stroke-linejoin="round" stroke-linecap="round" stroke="#023470" stroke-width="3" id="path_61"/><path fill="#000000" d="M1422.4,825.5h7.2v38.1M1407.6,825.5v38.1M1407.6,825.5h14.8M1407.6,825.5v38.1M1445.3,888.9v37.6h-15.7" fill-opacity="0" stroke-linejoin="round" stroke-linecap="round" stroke="#023470" stroke-width="3" id="path_62"/><path fill="#000000" d="M1429.6,888.9h15.7v37.6M1429.6,926.5h-7.2" fill-opacity="0" stroke-linejoin="round" stroke-linecap="round" stroke="#023470" stroke-width="3" id="path_63"/><path fill="#000000" d="M1422.4,888.9h7.2v37.6M1407.6,888.9v37.6M1407.6,888.9h14.8M1407.6,888.9v37.6M1445.3,761.2v37.6h-15.7" fill-opacity="0" stroke-linejoin="round" stroke-linecap="round" stroke="#023470" stroke-width="3" id="path_64"/><path fill="#000000" d="M1429.6,761.2h15.7v37.6M1429.6,798.8h-7.2" fill-opacity="0" stroke-linejoin="round" stroke-linecap="round" stroke="#023470" stroke-width="3" id="path_65"/><path fill="#000000" d="M1422.4,761.2h7.2v37.6M1407.6,761.2v37.6M1407.6,761.2h14.8M1407.6,761.2v37.6M1445.3,698.7v37.7h-15.7" fill-opacity="0" stroke-linejoin="round" stroke-linecap="round" stroke="#023470" stroke-width="3" id="path_66"/><path fill="#000000" d="M1429.6,698.7h15.7v37.7M1429.6,736.4h-7.2" fill-opacity="0" stroke-linejoin="round" stroke-linecap="round" stroke="#023470" stroke-width="3" id="path_67"/><path fill="#000000" d="M1422.4,698.7h7.2v37.7M1407.6,698.7v37.7M1407.6,698.7h14.8M1407.6,698.7v37.7M1445.3,634.4V672h-15.7" fill-opacity="0" stroke-linejoin="round" stroke-linecap="round" stroke="#023470" stroke-width="3" id="path_68"/><path fill="#000000" d="M1429.6,634.4h15.7V672M1429.6,672h-7.2" fill-opacity="0" stroke-linejoin="round" stroke-linecap="round" stroke="#023470" stroke-width="3" id="path_69"/><path fill="#000000" d="M1422.4,634.4h7.2V672M1407.6,634.4V672M1407.6,634.4h14.8M1407.6,634.4V672M1445.3,570.5v37.7h-15.7" fill-opacity="0" stroke-linejoin="round" stroke-linecap="round" stroke="#023470" stroke-width="3" id="path_70"/><path fill="#000000" d="M1429.6,570.5h15.7v37.7M1429.6,608.2h-7.2" fill-opacity="0" stroke-linejoin="round" stroke-linecap="round" stroke="#023470" stroke-width="3" id="path_71"/><path fill="#000000" d="M1422.4,570.5h7.2v37.7M1407.6,570.5v37.7M1407.6,570.5h14.8M1407.6,570.5v37.7M1445.3,506.6v38.2h-15.7" fill-opacity="0" stroke-linejoin="round" stroke-linecap="round" stroke="#023470" stroke-width="3" id="path_72"/><path fill="#000000" d="M1429.6,506.6h15.7v38.2M1429.6,544.8h-7.2" fill-opacity="0" stroke-linejoin="round" stroke-linecap="round" stroke="#023470" stroke-width="3" id="path_73"/><path fill="#000000" d="M1422.4,506.6h7.2v38.2M1407.6,506.6v38.2M1407.6,506.6h14.8M1407.6,506.6v38.2M1445.3,442.8v38.1h-15.7" fill-opacity="0" stroke-linejoin="round" stroke-linecap="round" stroke="#023470" stroke-width="3" id="path_74"/><path fill="#000000" d="M1429.6,442.8h15.7v38.1M1429.6,480.9h-7.2" fill-opacity="0" stroke-linejoin="round" stroke-linecap="round" stroke="#023470" stroke-width="3" id="path_75"/><path fill="#000000" d="M1422.4,442.8h7.2v38.1M1407.6,442.8v38.1M1407.6,442.8h14.8M1407.6,442.8v38.1M1445.3,378.9V417h-15.7" fill-opacity="0" stroke-linejoin="round" stroke-linecap="round" stroke="#023470" stroke-width="3" id="path_76"/><path fill="#000000" d="M1429.6,378.9h15.7V417M1429.6,417h-7.2" fill-opacity="0" stroke-linejoin="round" stroke-linecap="round" stroke="#023470" stroke-width="3" id="path_77"/><path fill="#000000" d="M1422.4,378.9h7.2V417M1407.6,378.9V417M1407.6,378.9h14.8M1407.6,378.9V417M1445.3,1974.1v37.7h-15.7" fill-opacity="0" stroke-linejoin="round" stroke-linecap="round" stroke="#023470" stroke-width="3" id="path_78"/><path fill="#000000" d="M1429.6,1974.1h15.7v37.7M1429.6,2011.8h-7.2" fill-opacity="0" stroke-linejoin="round" stroke-linecap="round" stroke="#023470" stroke-width="3" id="path_79"/><path fill="#000000" d="M1422.4,1974.1h7.2v37.7M1407.6,1974.1v37.7M1407.6,1974.1h14.8M1407.6,1974.1v37.7M1445.3,1909.8v37.6h-15.7" fill-opacity="0" stroke-linejoin="round" stroke-linecap="round" stroke="#023470" stroke-width="3" id="path_80"/><path fill="#000000" d="M1429.6,1909.8h15.7v37.6M1429.6,1947.4h-7.2" fill-opacity="0" stroke-linejoin="round" stroke-linecap="round" stroke="#023470" stroke-width="3" id="path_81"/><path fill="#000000" d="M1422.4,1909.8h7.2v37.6M1407.6,1909.8v37.6M1407.6,1909.8h14.8M1407.6,1909.8v37.6M1445.3,1845.9v38.2h-15.7" fill-opacity="0" stroke-linejoin="round" stroke-linecap="round" stroke="#023470" stroke-width="3" id="path_82"/><path fill="#000000" d="M1429.6,1845.9h15.7v38.2M1429.6,1884.1h-7.2" fill-opacity="0" stroke-linejoin="round" stroke-linecap="round" stroke="#023470" stroke-width="3" id="path_83"/><path fill="#000000" d="M1422.4,1845.9h7.2v38.2M1407.6,1845.9v38.2M1407.6,1845.9h14.8M1407.6,1845.9v38.2M1445.3,1787.3v32.4h-15.7" fill-opacity="0" stroke-linejoin="round" stroke-linecap="round" stroke="#023470" stroke-width="3" id="path_84"/><path fill="#000000" d="M1429.6,1787.3h15.7v32.4M1429.6,1819.7h-7.2" fill-opacity="0" stroke-linejoin="round" stroke-linecap="round" stroke="#023470" stroke-width="3" id="path_85"/><path fill="#000000" d="M1422.4,1787.3h7.2v32.4M1407.6,1787.3v32.4M1407.6,1787.3h14.8M1407.6,1787.3v32.4M1445.3,1723.9v38.1h-15.7" fill-opacity="0" stroke-linejoin="round" stroke-linecap="round" stroke="#023470" stroke-width="3" id="path_86"/><path fill="#000000" d="M1429.6,1723.9h15.7v38.1M1429.6,1762h-7.2" fill-opacity="0" stroke-linejoin="round" stroke-linecap="round" stroke="#023470" stroke-width="3" id="path_87"/><path fill="#000000" d="M1422.4,1723.9h7.2v38.1M1407.6,1723.9v38.1M1407.6,1723.9h14.8M1407.6,1723.9v38.1M1445.3,1659.6v38.1h-15.7" fill-opacity="0" stroke-linejoin="round" stroke-linecap="round" stroke="#023470" stroke-width="3" id="path_88"/><path fill="#000000" d="M1429.6,1659.6h15.7v38.1M1429.6,1697.7h-7.2" fill-opacity="0" stroke-linejoin="round" stroke-linecap="round" stroke="#023470" stroke-width="3" id="path_89"/><path fill="#000000" d="M1422.4,1659.6h7.2v38.1M1407.6,1659.6v38.1M1407.6,1659.6h14.8M1407.6,1659.6v38.1M1407.6,1633.8v-38.1h15.8" fill-opacity="0" stroke-linejoin="round" stroke-linecap="round" stroke="#023470" stroke-width="3" id="path_90"/><path fill="#000000" d="M1423.4,1633.8h-15.8v-38.1M1423.4,1595.7h7.6M1431,1633.8h-7.6v-38.1M1445.3,1633.8v-38.1M1445.3,1633.8H1431M1445.3,1633.8v-38.1M1407.6,1570v-37.7h15.8" fill-opacity="0" stroke-linejoin="round" stroke-linecap="round" stroke="#023470" stroke-width="3" id="path_91"/><path fill="#000000" d="M1423.4,1570h-15.8v-37.7M1423.4,1532.3h7.6M1431,1570h-7.6v-37.7M1445.3,1570v-37.7M1445.3,1570H1431M1445.3,1570v-37.7M1407.6,1505.1v-37.6h15.8" fill-opacity="0" stroke-linejoin="round" stroke-linecap="round" stroke="#023470" stroke-width="3" id="path_92"/><path fill="#000000" d="M1423.4,1505.1h-15.8v-37.6M1423.4,1467.5h7.6M1431,1505.1h-7.6v-37.6M1445.3,1505.1v-37.6M1445.3,1505.1H1431M1445.3,1505.1v-37.6M354.5,1219.2v28.6h-15.7" fill-opacity="0" stroke-linejoin="round" stroke-linecap="round" stroke="#023470" stroke-width="3" id="path_93"/><path fill="#000000" d="M338.8,1219.2h15.7v28.6M338.8,1247.8h-7.6M331.2,1219.2h7.6v28.6M316.4,1219.2v28.6M316.4,1219.2h14.8M316.4,1219.2v28.6M354.5,1176.8v28.1h-15.7" fill-opacity="0" stroke-linejoin="round" stroke-linecap="round" stroke="#023470" stroke-width="3" id="path_94"/><path fill="#000000" d="M338.8,1176.8h15.7v28.1M338.8,1204.9h-7.6M331.2,1176.8h7.6v28.1M316.4,1176.8v28.1M316.4,1176.8h14.8M316.4,1176.8v28.1M354.5,1133.9v28.1h-15.7" fill-opacity="0" stroke-linejoin="round" stroke-linecap="round" stroke="#023470" stroke-width="3" id="path_95"/><path fill="#000000" d="M338.8,1133.9h15.7v28.1M338.8,1162h-7.6M331.2,1133.9h7.6v28.1M316.4,1133.9v28.1M316.4,1133.9h14.8M316.4,1133.9v28.1M1097.9,1321.6c0.1,0.6 1,1.5 1.9,1.9 1.2,-0.4 2,-1.3 1.9,-1.9M1101.7,1321.6c0.1,-1.5 -0.7,-2.3 -1.9,-1.9 -0.9,-0.4 -1.8,0.4 -1.9,1.9M1128.4,1321.6c0,0.6 0.9,1.5 1.9,1.9 1.1,-0.4 1.9,-1.3 1.9,-1.9M1132.2,1321.6c0,-1.5 -0.8,-2.3 -1.9,-1.9 -1,-0.4 -1.9,0.4 -1.9,1.9M1159.4,1321.6c0.3,0.6 1.2,1.5 1.9,1.9 1.3,-0.4 2.2,-1.3 1.9,-1.9M1163.2,1321.6c0.3,-1.5 -0.6,-2.3 -1.9,-1.9 -0.8,-0.4 -1.6,0.4 -1.9,1.9M1233.7,1321.6c0.5,0.6 1.3,1.5 1.9,1.9 1.5,-0.4 2.3,-1.3 1.9,-1.9M1237.5,1321.6c0.4,-1.5 -0.4,-2.3 -1.9,-1.9 -0.6,-0.4 -1.4,0.4 -1.9,1.9M1266.6,1321.6c0.4,0.6 1.3,1.5 1.9,1.9 1.5,-0.4 2.3,-1.3 1.9,-1.9M1270.4,1321.6c0.4,-1.5 -0.5,-2.3 -1.9,-1.9 -0.6,-0.4 -1.5,0.4 -1.9,1.9M1299.5,1321.6c0.2,0.6 1,1.5 1.9,1.9 1.2,-0.4 2.1,-1.3 1.9,-1.9M1303.3,1321.6c0.2,-1.5 -0.7,-2.3 -1.9,-1.9 -0.9,-0.4 -1.7,0.4 -1.9,1.9M1065.5,1292.6c0.1,0.6 0.9,1.5 1.9,1.9 1.1,-0.4 1.9,-1.3 1.9,-1.9M1069.3,1292.6c0,-1.4 -0.8,-2.3 -1.9,-1.9 -1,-0.4 -1.9,0.5 -1.9,1.9M1327.6,1289.2c0.1,0.6 1,1.5 1.9,1.9 1.1,-0.4 2,-1.3 1.9,-1.9M1331.4,1289.2c0.1,-1.5 -0.8,-2.3 -1.9,-1.9 -0.9,-0.4 -1.8,0.4 -1.9,1.9M1065.5,1256.8c0.1,0.7 0.9,1.6 1.9,1.9 1.1,-0.3 1.9,-1.2 1.9,-1.9M1069.3,1256.8c0,-1.4 -0.8,-2.2 -1.9,-1.9 -1,-0.3 -1.9,0.5 -1.9,1.9M1327.6,1253c0.1,0.7 1,1.6 1.9,1.9 1.1,-0.3 2,-1.2 1.9,-1.9M1331.4,1253c0.1,-1.4 -0.8,-2.2 -1.9,-1.9 -0.9,-0.3 -1.8,0.5 -1.9,1.9M1286.1,1059c0.1,1 0.9,1.8 1.9,1.9 1.1,-0.1 2,-0.9 1.9,-1.9M1289.9,1059c0.1,-1.1 -0.8,-1.9 -1.9,-1.9 -1,0 -1.8,0.8 -1.9,1.9M1247.5,1059c0.1,1 1,1.8 1.9,1.9 1.2,-0.1 2,-0.9 1.9,-1.9M1251.3,1059c0.1,-1.1 -0.7,-1.9 -1.9,-1.9 -0.9,0 -1.8,0.8 -1.9,1.9M1220.4,1059c0.1,1 1,1.8 1.9,1.9 1.1,-0.1 2,-0.9 1.9,-1.9M1224.2,1059c0.1,-1.1 -0.8,-1.9 -1.9,-1.9 -1,0 -1.8,0.8 -1.9,1.9M1172.7,1059c0,1 0.9,1.8 1.4,1.9 1.5,-0.1 2.4,-0.9 1.9,-1.9M1176,1059c0.5,-1.1 -0.4,-1.9 -1.9,-1.9 -0.6,0 -1.4,0.8 -1.4,1.9M1139.8,1059c0.3,1 1.1,1.8 1.9,1.9 1.3,-0.1 2.1,-0.9 1.9,-1.9M1143.6,1059c0.2,-1.1 -0.6,-1.9 -1.9,-1.9 -0.8,0 -1.6,0.8 -1.9,1.9M1103.1,1059c0.4,1 1.2,1.8 1.9,1.9 1.4,-0.1 2.3,-0.9 1.9,-1.9M1106.9,1059c0.4,-1.1 -0.5,-1.9 -1.9,-1.9 -0.7,0 -1.5,0.8 -1.9,1.9M1065.5,1091c0.1,0.8 0.9,1.6 1.9,1.9 1.1,-0.3 1.9,-1.1 1.9,-1.9M1069.3,1091c0,-1.3 -0.8,-2.1 -1.9,-1.9 -1,-0.2 -1.9,0.6 -1.9,1.9M1065.5,1123.9c0.1,1 0.9,1.9 1.9,1.9 1.1,0 1.9,-0.9 1.9,-1.9M1069.3,1123.9c0,-1.1 -0.8,-1.9 -1.9,-1.9 -1,0 -1.9,0.8 -1.9,1.9M1065.5,1156.7c0.1,0.6 0.9,1.4 1.9,1.9 1.1,-0.5 1.9,-1.3 1.9,-1.9M1069.3,1156.7c0,-1.5 -0.8,-2.3 -1.9,-1.9 -1,-0.4 -1.9,0.4 -1.9,1.9M1065.5,1220.1c0.1,0.8 0.9,1.7 1.9,1.9 1.1,-0.2 1.9,-1.1 1.9,-1.9M1069.3,1220.1c0,-1.2 -0.8,-2.1 -1.9,-1.9 -1,-0.2 -1.9,0.7 -1.9,1.9M1327.6,1220.1c0.1,0.7 1,1.6 1.9,1.9 1.1,-0.3 2,-1.2 1.9,-1.9M1331.4,1220.1c0.1,-1.3 -0.8,-2.2 -1.9,-1.9 -0.9,-0.3 -1.8,0.6 -1.9,1.9M1327.6,1158.2c0.1,0.8 1,1.7 1.9,1.9 1.1,-0.2 2,-1.1 1.9,-1.9M1331.4,1158.2c0.1,-1.3 -0.8,-2.1 -1.9,-1.9 -0.9,-0.2 -1.8,0.6 -1.9,1.9M1327.6,1126.2c0.1,0.7 1,1.6 1.9,1.9 1.1,-0.3 2,-1.2 1.9,-1.9M1331.4,1126.2c0.1,-1.3 -0.8,-2.2 -1.9,-1.9 -0.9,-0.3 -1.8,0.6 -1.9,1.9M1327.6,1094.3c0.1,0.7 1,1.5 1.9,1.9 1.1,-0.4 2,-1.3 1.9,-1.9M1331.4,1094.3c0.1,-1.4 -0.8,-2.3 -1.9,-1.9 -0.9,-0.4 -1.8,0.5 -1.9,1.9M1063.1,1321.6c0.2,2.6 2.3,4.7 4.8,4.8 2.8,-0.1 4.9,-2.2 4.8,-4.8M1072.6,1321.6c0.1,-2.6 -2,-4.7 -4.8,-4.3 -2.4,-0.5 -4.6,1.7 -4.8,4.3M1325.2,1060c0.1,2.2 2.2,4.3 4.8,4.8 2.6,-0.4 4.7,-2.5 4.3,-4.8M1334.2,1060c0.5,-3 -1.7,-5.1 -4.3,-4.8 -2.6,-0.3 -4.7,1.8 -4.8,4.8M1324.7,1322.1c0.2,2.2 2.3,4.3 4.8,4.8 2.8,-0.4 4.9,-2.5 4.8,-4.8M1334.2,1322.1c0.1,-3 -2,-5.1 -4.8,-4.8 -2.5,-0.3 -4.6,1.8 -4.8,4.8M1324.7,1191.1c0.4,2.2 2.5,4.3 4.8,4.8 2.9,-0.5 5.1,-2.6 4.8,-4.8M1334.2,1191.1c0.3,-3 -1.8,-5.1 -4.8,-4.8 -2.3,-0.4 -4.4,1.7 -4.8,4.8M1062.6,1191.1c0.2,2.2 2.3,4.3 4.8,4.8 2.7,-0.4 4.9,-2.5 4.8,-4.8M1072.2,1191.1c0.1,-3 -2,-5.1 -4.8,-4.8 -2.5,-0.3 -4.6,1.8 -4.8,4.8M1193.7,1322.1c0.4,2.2 2.5,4.3 4.8,4.8 2.9,-0.4 5.1,-2.5 4.8,-4.8M1203.2,1322.1c0.3,-3 -1.8,-5.1 -4.8,-4.8 -2.3,-0.4 -4.4,1.8 -4.8,4.8M1194.2,1255.9c0.1,2.3 2.2,4.4 4.8,4.8 2.6,-0.4 4.7,-2.5 4.3,-4.8M1203.2,1255.9c0.4,-3 -1.7,-5.1 -4.3,-4.8 -2.6,-0.3 -4.7,1.8 -4.8,4.8M1062.6,1060c0.3,2.1 2.4,4.3 4.8,4.3 2.9,0 5,-2.2 4.8,-4.3M1072.2,1060c0.2,-3.1 -1.9,-5.2 -4.8,-4.8 -2.3,-0.4 -4.4,1.7 -4.8,4.8M1194.2,1126.7c0.2,2.2 2.3,4.4 4.8,4.8 2.8,-0.4 4.9,-2.5 4.8,-4.8M1203.7,1126.7c0.1,-3 -2,-5.1 -4.8,-4.8 -2.5,-0.3 -4.6,1.8 -4.8,4.8M1194.2,1060c0,2.2 2.1,4.4 4.3,4.8 3,-0.4 5.2,-2.5 4.8,-4.8M1203.2,1060c0.4,-3 -1.7,-5.1 -4.8,-4.8 -2.2,-0.3 -4.3,1.8 -4.3,4.8M1261.8,722.1V755M1294.7,722.1h-32.9M1294.7,755v-32.9M1261.8,755h32.9M1260.9,535.2v32.9M1294.2,535.2h-33.3M1294.2,568.1v-32.9M1260.9,568.1h33.3M1103.1,1626.2v33.4M1136.5,1626.2h-33.4M1136.5,1659.6v-33.4M1103.1,1659.6h33.4M1103.1,1820.2v33.3M1136,1820.2h-32.9M1136,1853.5v-33.3M1103.1,1853.5h32.9M1261.3,1626.7v32.9M1294.2,1626.7h-32.9M1294.2,1659.6v-32.9M1261.3,1659.6h32.9M1260.9,1820.2v32.9M1294.2,1820.2h-33.3M1294.2,1853.1v-32.9M1260.9,1853.1h33.3M1103.1,721.6V755M1136,721.6h-32.9M1136,755v-33.4M1103.1,755h32.9M1103.1,535.2v32.9M1136,535.2h-32.9M1136,568.1v-32.9M1103.1,568.1h32.9M1634.5,1095.3v32.8M1667.3,1095.3h-32.8M1667.3,1128.1v-32.8M1634.5,1128.1h32.8M1820.8,1095.3v32.8M1854.1,1095.3h-33.3M1854.1,1128.1v-32.8M1820.8,1128.1h33.3M1634.5,1253.5v32.9M1667.3,1253.5h-32.8M1667.3,1286.4v-32.9M1634.5,1286.4h32.8M1820.8,1253.5v32.9M1854.1,1253.5h-33.3M1854.1,1286.4v-32.9M1820.8,1286.4h33.3M733.8,1095.3v32.8M766.7,1095.3h-32.9M766.7,1128.1v-32.8M733.8,1128.1h32.9M543.2,1095.3v33.3M576.1,1095.3h-32.9M576.1,1128.6v-33.3M543.2,1128.6h32.9M1073.6,1290.2h254.5M1330,1317.4h-262.1M1067.4,1263.5H1330M1072.6,1322.1h25.3M1101.7,1322.1h26.7M1131.7,1322.1h27.7M1163.2,1322.1h30.5M1203.2,1322.1h31M1237.5,1322.1h29.6M1270.4,1322.1h29.1M1303.3,1322.1h21.4M1126,1263.5v53.9M1111.7,1263.5v53.9M1096.9,1263.5v53.9M1082.2,1263.5v53.9M1067.4,1065.7v23.4M1067.4,1092.9v29.5M1067.4,1125.8v29M1067.4,1158.2v28.1M1067.4,1195.8v22.4M1067.4,1222v32.9M1067.4,1258.7v32M1067.4,1294.5v22.9M1140.8,1263.5v53.9M1155.6,1263.5v53.9M1068.4,1064.3h129.1M1199.9,1064.3h128.6" fill-opacity="0" stroke-linejoin="round" stroke-linecap="round" stroke="#023470" stroke-width="3" id="path_96"/><path fill="#000000" d="m1330,1118.1 l-29.6,-5.7 -14.8,-3.3 -14.3,-2.9 -14.7,-2.8 -14.8,-3.4 -14.3,-2.8 -29.5,-5.8 -14.8,-3.3 -14.3,-2.9 -14.8,-2.8 -14.7,-3.3 -14.8,-2.9 -14.3,-2.9 -14.8,-3.3 -14.8,-2.9 -12.8,-2.8M1323.3,1059.5h-33.8M1286.1,1059.5h-34.8M1247.5,1059.5h-23.3M1220.4,1059.5h-17.2M1194.2,1059.5H1176M1172.7,1059.5h-29.1M1139.8,1059.5h-32.9M1103.1,1059.5h-30.9M1330,1064.8v27.6M1330,1096.2v28.1M1330,1128.1v28.2M1330,1160.1v26.2M1330,1195.8v22.4M1330,1222v29.1M1330,1254.9v32.4M1330,1290.7v26.7M1241.8,1064.3v35.7M1256.6,1064.3v39.1M1271.3,1064.3v41.9M1285.6,1064.3v44.8M1300.4,1064.3v48.1M1315.2,1064.3v51M1308.5,1296.4l8.1,-2.4 11.9,-3.3M1327.6,1289.7l-11,-2.8 -8.1,-2.4M1316.6,1263.5v53.9M1301.8,1263.5v53.9M1287.1,1263.5v53.9M1272.8,1263.5v53.9M1258,1263.5v53.9M1243.2,1263.5v53.9M1228.5,1263.5v53.9M1214.2,1263.5v53.9M1199.4,1263.5v53.9M1184.6,1263.5v53.9M1170.3,1263.5v53.9M1080.7,1067.1v-2.8M1095.5,1070v-5.7M1110.3,1073.3v-9M1124.6,1076.2v-11.9M1139.4,1064.3v14.8M1154.1,1064.3v18.1M1168.9,1064.3v20.9M1183.2,1064.3v23.8M1198,1064.8v26.6M1212.7,1064.3v30M1227.5,1064.3v32.9M1159.8,1437.5H1136M1103.1,1437.5H989.7M952.1,1437.5h-13.4M872.5,1437.5h-31.9M774.3,1437.5h-32.8M675.2,1437.5h-32.9M579.4,1437.5h-33.8M472.7,1437.5h-33.8M372.6,1437.5h-25.2M354.5,1399.8h18.1M438.9,1399.8h33.8M545.6,1399.8h12.9M576.6,1399.8h2.8M642.3,1399.8h32.9M741.5,1399.8h8.5M766.7,1399.8h7.6M840.6,1399.8h31.9M938.7,1399.8h13.4M989.7,1399.8h170.1M372.6,1414.6v-14.8M372.6,1437.5v-22.9M438.9,1421.7v15.8M438.9,1414.6v7.1M438.9,1399.8v14.8M472.7,1437.5v-15.8M472.7,1414.6v-14.8M472.7,1421.7v-7.1M545.6,1414.6v7.1M545.6,1399.8v14.8M545.6,1421.7v15.8M579.4,1437.5v-37.7M642.3,1414.6v7.1M642.3,1399.8v14.8M642.3,1421.7v15.8M675.2,1414.6v-14.8M675.2,1437.5v-22.9M741.5,1399.8v37.7M774.3,1437.5v-37.7M840.6,1414.6v7.1M840.6,1399.8v14.8M840.6,1421.7v15.8M872.5,1437.5v-37.7M938.7,1414.6v7.1M938.7,1399.8v14.8M938.7,1421.7v15.8M1159.8,1399.8v37.7M952.1,1151v-17.6M952.1,1152h37.6M989.7,1229.7h-37.6M952.1,1723.4h14.3M966.4,1761.1h-14.3M966.4,1498.5h-14.3M952.1,1460.8h14.3M952.1,1314.5h37.6M989.7,1371.2h-37.6M966.4,1723.4h23.3M989.7,1889.3h-37.6M952.1,1914.6h37.6M952.1,1851.2h37.6M952.1,1786.8h37.6M989.7,1825h-37.6M989.7,1952.2h-37.6M952.1,2042.3v-26.2M952.1,1978.4v-26.2M952.1,1914.6v-25.3M952.1,1851.2V1825M952.1,1786.8v-25.7M952.1,1723.4v-25.7M952.1,1656.7V1631M952.1,1588.6v-26.3M952.1,1524.2v-25.7M952.1,1460.8v-23.3M952.1,1399.8v-28.6M952.1,1314.5v-28.1M952.1,1253.5v-23.8M952.1,1152v-1M952.1,1978.4h37.6M989.7,2016.1h-37.6M966.4,1460.8h23.3M989.7,1498.5h-23.3M989.7,1761.1h-23.3M952.1,1524.2h37.6M952.1,1656.7h37.6M989.7,1697.7h-37.6M989.7,1631h-37.6M989.7,1562.3h-37.6M952.1,1588.6h37.6M989.7,1570.4v-8.1M989.7,1846.4v-4.8M989.7,1133.4v18.6M989.7,1229.7v84.8M989.7,1371.2v28.6M989.7,1437.5v23.3M989.7,1498.5v25.7M989.7,1570.4v18.2M989.7,1631v25.7M989.7,1697.7v25.7M989.7,1761.1v25.7M989.7,1825v16.6M989.7,1846.4v4.8M989.7,1889.3v25.3M989.7,1952.2v26.2M989.7,2016.1v19M1141.7,1399.8h18.1M1103.1,1456.5v-19M1136,1456.5h-32.9M1136,1437.5v19M966.4,797.4h-14.3M952.1,759.7h14.3M952.1,377.5h15.7M952.1,696.3h14.3M966.4,734h-14.3M967.8,415.6h-15.7M967.8,541.4h-15.7M952.1,503.8h15.7M967.8,477.1h-15.7M952.1,439.4h15.7M967.8,670.1h-15.7M952.1,632h15.7M967.8,606.7h-15.7M952.1,569.1h15.7M966.4,696.3h23.3M989.7,734h-23.3M989.7,670.1h-21.9M989.7,797.4h-23.3M952.1,887.5h37.6M989.7,415.6h-21.9M967.8,439.4h21.9M967.8,503.8h21.9M967.8,377.5h21.9M989.7,477.1h-21.9M989.7,541.4h-21.9M967.8,632h21.9M989.7,606.7h-21.9M967.8,569.1h21.9M952.1,823.6h37.6M989.7,861.2h-37.6M989.7,925.1h-37.6M966.4,759.7h23.3M952.1,1151v-22.9M952.1,1095.3V981.8M952.1,944.2v-19.1M952.1,743v-9M952.1,696.3v-26.2M952.1,632v-25.3M952.1,569.1v-27.7M952.1,503.8v-26.7M952.1,439.4v-23.8M952.1,377.5v-38.2M989.7,1133.4v17.6M989.7,346.5v31M989.7,415.6v23.8M989.7,477.1v26.7M989.7,541.4v27.7M989.7,606.7V632M989.7,670.1v26.2M989.7,734v25.7M989.7,797.4v26.2M989.7,861.2v26.3M989.7,925.1v19.1M989.7,981.8v151.6M1237.5,1399.8v5.7M2050,1437.5h-31M1981.4,1437.5h-26.3M1917.5,1437.5h-25.3M1854.6,1437.5h-25.7M1783.6,1437.5h-26.2M1719.7,1437.5h-26.2M1655.9,1437.5h-25.7M1592.5,1437.5h-27.1M1527.7,1437.5h-26.2M1463.9,1437.5h-18.6M1407.6,1437.5h-113.4M1261.3,1437.5h-23.8M1237.5,1399.8h170.1M1445.3,1399.8h18.6M1501.5,1399.8h26.2M1565.4,1399.8h27.1M1630.2,1399.8h25.7M1693.5,1399.8h26.2M1757.4,1399.8h26.2M1828.9,1399.8h25.7M1892.2,1399.8h25.3M1955.1,1399.8h26.3M2019,1399.8h23.8M1463.9,1437.5v-37.7M1501.5,1421.7v15.8M1501.5,1414.6v7.1M1501.5,1399.8v14.8M1527.7,1437.5v-15.8M1527.7,1414.6v-14.8M1527.7,1421.7v-7.1M1565.4,1399.8v14.8M1565.4,1421.7v15.8M1565.4,1414.6v7.1M1592.5,1437.5v-15.8M1592.5,1414.6v-14.8M1592.5,1421.7v-7.1M1630.2,1414.6v22.9M1630.2,1399.8v14.8M1655.9,1437.5v-37.7M1693.5,1399.8v37.7M1719.7,1437.5v-37.7M1757.4,1399.8v37.7M1783.6,1414.6v-14.8M1783.6,1437.5v-22.9M1828.9,1399.8v14.8M1828.9,1421.7v15.8M1828.9,1414.6v7.1M1854.6,1421.7v-7.1M1854.6,1437.5v-15.8M1854.6,1414.6v-14.8M1892.2,1414.6v22.9M1892.2,1399.8v14.8M1917.5,1421.7v-7.1M1917.5,1437.5v-15.8M1917.5,1414.6v-14.8M1955.1,1421.7v15.8M1955.1,1414.6v7.1M1955.1,1399.8v14.8M1981.4,1421.7v-7.1M1981.4,1437.5v-15.8M1981.4,1414.6v-14.8M2019,1421.7v15.8M2019,1399.8v21.9M1237.5,975.6v6.2M1237.5,975.6v-31.4h23.8M1294.2,944.2h113.4M1159.8,981.8h-20.9M1261.3,944.2v-19.1h32.9v19.1M1261.3,1456.5v-19M1294.2,1456.5h-32.9M1294.2,1437.5v19M993.1,2073.3h-3.4M989.7,2035.1h113.4M1136,2035.1h6.2M1170.3,2035.1h13.8M1212.3,2035.1h14.7M1255.1,2035.1h6.2M1294.2,2035.1h113.4M1407.6,2073.3H1350M1266.1,2073.3h-11M1227,2073.3h-14.7M1184.1,2073.3h-13.8M1142.2,2073.3h-10.9M1047.4,2073.3h-54.3M1142.2,2073.3v-38.2M1170.3,2058.5v14.8M1170.3,2035.1v23.4M1184.1,2073.3v-38.2M1212.3,2050.9v22.4M1212.3,2035.1v15.8M1227,2073.3v-14.8M1227,2050.9v-15.8M1227,2058.5v-7.6M1255.1,2058.5v14.8M1255.1,2035.1v23.4M1407.6,1578.1h-113.9M1250.4,1578.1h-26.7M1223.7,1573.3h26.7M1293.7,1573.3h113.9M1250.4,1578.1v-4.8M1293.7,1573.3v4.8M1407.6,1825h-113.4M1260.9,1825h-42M1223.7,1820.2h37.2M1294.2,1820.2h113.4M1407.6,346.5h-113.4M1261.3,346.5h-6.2M1227,346.5h-14.3M1184.1,346.5h-13.8M1141.7,346.5h-5.7M1103.1,346.5H989.7M989.7,308.4h57.7M1131.3,308.4h10.4M1170.3,308.4h13.8M1212.7,308.4h14.3M1255.1,308.4h11M1350,308.4h95.3M1141.7,346.5v-38.1M1170.3,308.4v38.1M1184.1,346.5v-38.1M1212.7,308.4v15.7M1212.7,331.7v14.8M1212.7,324.1v7.6M1227,324.1v-15.7M1227,346.5v-22.4M1255.1,308.4v15.7M1255.1,331.7v14.8M1255.1,324.1v7.6M1294.2,365.1h-32.9v-18.6M1294.2,346.5v18.6M1273.3,282.6v-43.3h31.9v43.3M1266.1,282.6h7.2M1305.2,282.6h44.8M1266.1,308.4v-25.8M1350,282.6v25.8M1218.9,1509l42.4,-52.5M1267.5,1456.5l-43.8,57.2M1136,1710.1h19.6M1199.4,1710.1h19.5M1218.9,1714.9h-19.5M1155.6,1714.9H1136M1155.6,1714.9v-4.8M1199.4,1710.1v4.8M1218.9,1513.7h-19M1156,1513.7h-20M1136,1509h20M1199.9,1509h19M1156,1513.7v-4.7M1199.9,1509v4.7M1218.9,1509v4.7M1131.3,1663.4h4.7M1136,1504.7h-4.7M1136,1706.8h-4.7M1131.3,1460.8h4.7M1131.3,1820.2v-113.4M1131.3,1663.4v-3.8M1131.3,1626.2v-55.8M1131.3,1561.9v-57.2M1131.3,1460.8v-4.3M1136,1832.6h0M1136,1456.5v4.3M1136,1504.7v4.3M1136,1513.7v112.5M1136,1659.6v3.8M1136,1706.8v3.3M1136,1714.9v117.7M1131.3,1511.3h-5.8M1089.3,1511.3h-10.5M1042.1,1511.3h-10.4M995.4,1511.3h-5.7M1131.3,1570.4H989.7M989.7,1561.9h141.6M989.7,1841.6h113.4M1103.1,1846.4H989.7M1084.1,1561.9v-50.6M1129.8,1853.5h6.2M1129.8,2016.5v-108.1M1129.8,1865v-11.5M1136,1908.4h-6.2M1129.8,1865h6.2M1136,1908.4v108.1M1103.1,2035.1v-18.6h32.9v18.6M1218.9,1513.7h4.8M1218.9,1825v-110.1M1218.9,1710.1v-77.2M1218.9,1589.5v-75.8M1218.9,1589.5h4.8M1223.7,1632.9h-4.8M1223.7,1513.7v59.6M1223.7,1578.1v11.4M1223.7,1632.9v187.3M1159.8,981.8H989.7M952.1,981.8h-16.7M869.2,981.8h-33.4M769.6,981.8h-32.9M670.5,981.8h-32.4M571.8,981.8h-33.3M472.7,981.8h-33.8M372.6,981.8h-18.1M347.4,944.2h25.2M438.9,944.2h33.8M538.5,944.2h33.3M638.1,944.2h32.4M736.7,944.2h32.9M835.8,944.2h33.4M935.4,944.2h16.7M989.7,944.2h113.4M1136,944.2h23.8M372.6,966.1v-7.6M372.6,981.8v-15.7M372.6,958.5v-14.3M438.9,944.2v14.3M438.9,966.1v15.7M438.9,958.5v7.6M472.7,966.1v-21.9M472.7,981.8v-15.7M538.5,966.1v15.7M538.5,958.5v7.6M538.5,944.2v14.3M571.8,966.1v-7.6M571.8,981.8v-15.7M571.8,958.5v-14.3M638.1,944.2v14.3M638.1,966.1v15.7M638.1,958.5v7.6M670.5,981.8v-37.6M736.7,944.2v37.6M769.6,981.8v-37.6M835.8,944.2v37.6M869.2,981.8v-37.6M935.4,958.5v7.6M935.4,944.2v14.3M935.4,966.1v15.7M1159.8,944.2v37.6M1266.1,1903.1h-4.8M1261.3,1859.7h4.8M1261.3,1853.5h4.8M1261.3,2016.5v-113.4M1261.3,1859.7v-6.2M1266.1,1853.5v6.2M1266.1,1903.1v113.4M1266.1,2016.5h-4.8M1266.1,2016.5h28.1M1261.3,2035.1v-18.6M1294.2,2016.5v18.6M1103.1,944.2v-19.1h32.9v19.1M1136,365.1h-32.9v-18.6M1136,346.5v18.6M1047.4,282.6h44.8M1124.1,282.6h7.2M1047.4,308.4v-25.8M1131.3,282.6v25.8M1092.2,282.6v-43.3h31.9v43.3M1036.9,1561.9v-50.6M910.1,339.3v-30.9h79.6M952.1,339.3h-42M1667.3,1123.4h44.8M1716.9,1123.4h103.9M1820.8,1128.1h-153.5M2024.2,1123.4v4.7M1712.1,1016.6h4.8M1712.1,1123.4V1100M1712.1,1095.3V1060M1712.1,1016.6v-34.8M1716.9,1060h-4.8M1716.9,981.8v34.8M1716.9,1060v63.4M1854.1,1212.5h-4.7M1849.4,1169.1h4.7M1829.8,1399.8v-69.1M1849.4,1253.5v-41M1849.4,1169.1v-41M1849.4,1095.3V981.8M1854.1,981.8v113.5M1854.1,1128.1v41M1854.1,1212.5v41M1834.1,1328.8l0.5,71M2042.8,1128.1h-18.6M2024.2,1095.3h18.6M2024.2,1123.4v4.7M2024.2,1123.4v-28.1M2024.2,1258.3h-103.4M1877.5,1258.3h-23.4M1854.1,1253.5h23.4M1920.8,1253.5h103.4M1877.5,1258.3v-4.8M1920.8,1253.5v4.8M2024.2,1253.5v4.8M2024.2,1253.5h18.6M2024.2,1286.4v-28.1M2042.8,1286.4h-18.6M1634.5,1140.1v-12M1639.2,1128.1v12M1712.1,1100h-4.3M1672.1,1100h-4.8M1667.3,1095.3h4.8M1707.8,1095.3h4.3M1672.1,1100v-4.7M1707.8,1095.3v4.7M2042.8,981.8h-23.3M1981.8,981.8h-26.7M1917.5,981.8h-25.7M1853.7,981.8h-25.3M1783.6,981.8h-26.2M1719.7,981.8h-27.1M1654.9,981.8h-25.7M1591.6,981.8h-25.8M1528.2,981.8h-26.7M1463.9,981.8h-18.6M1445.3,944.2h18.6M1501.5,944.2h26.7M1565.8,944.2h25.8M1629.2,944.2h25.7M1692.6,944.2h27.1M1757.4,944.2h26.2M1828.4,944.2h25.3M1891.8,944.2h25.7M1955.1,944.2h26.7M2019.5,944.2h30.5M1463.9,958.5v-14.3M1463.9,981.8v-23.3M1501.5,944.2v37.6M1528.2,958.5v-14.3M1528.2,981.8v-23.3M1565.8,966.1v15.7M1565.8,958.5v7.6M1565.8,944.2v14.3M1591.6,958.5v-14.3M1591.6,981.8v-23.3M1629.2,944.2v14.3M1629.2,966.1v15.7M1629.2,958.5v7.6M1654.9,958.5v-14.3M1654.9,966.1v-7.6M1654.9,981.8v-15.7M1692.6,966.1v15.7M1692.6,958.5v7.6M1692.6,944.2v14.3M1719.7,966.1v-7.6M1719.7,981.8v-15.7M1719.7,958.5v-14.3M1757.4,944.2v37.6M1783.6,981.8v-37.6M1828.4,944.2v14.3M1828.4,966.1v15.7M1828.4,958.5v7.6M1853.7,981.8v-15.7M1853.7,958.5v-14.3M1853.7,966.1v-7.6M1891.8,958.5v7.6M1891.8,944.2v14.3M1891.8,966.1v15.7M1917.5,958.5v-14.3M1917.5,981.8v-23.3M1955.1,944.2v37.6M1981.8,981.8v-37.6M2019.5,958.5v23.3M2019.5,944.2v14.3M2042.8,1399.8v-113.4M2042.8,1253.5v-6.2M2042.8,1218.7v-13.8M2042.8,1176.3v-13.8M2042.8,1134.3v-6.2M2042.8,1095.3V981.8M2042.8,1176.3h14.8M2057.6,1204.9h-14.8M2080.9,1204.9h-23.3M2042.8,1134.3h38.1M2057.6,1162.5h-14.8M2080.9,1162.5h-23.3M2057.6,1176.3h23.3M2042.8,1218.7h14.8M2057.6,1247.3h-14.8M2057.6,1218.7h23.3M2080.9,1247.3h-23.3M2080.9,969.9v69.6M2080.9,1123.4v10.9M2080.9,1162.5v13.8M2080.9,1204.9v13.8M2080.9,1247.3v11M2080.9,1342.1v57.7M1634.5,1253.5V1213M1634.5,1169.6v-24.8M1639.2,1213h-4.7M1634.5,1169.6h4.7M1639.2,1213v40.5M1464.3,1140.1h94.4M1602,1140.1h32.5M1634.5,1144.8H1602M1558.7,1144.8h-94.4M1558.7,1144.8v-4.7M1602,1140.1v4.7M1634.5,1258.3h-35.3M1555.8,1258.3h-91.5M1464.3,1253.5h91.5M1599.2,1253.5h35.3M1555.8,1258.3v-4.8M1599.2,1253.5v4.8M1647.8,1399.8v-113.4M1652.6,1286.4v113.4M2080.9,1479.4H2050v-41.9M2080.9,1399.8v79.6M1464.3,1144.8h-19M1464.3,1128.1v12M1407.6,1152V981.8M1407.6,1152h5.7M1445.3,1144.8v-16.7M1445.3,981.8v113.5M1445.3,1144.8v7.2M1445.3,1095.3h19M1464.3,1128.1h-19M1464.3,1095.3v32.8M1407.6,888.9h14.8M1422.4,926.5h-14.8M1422.4,608.2h-14.8M1407.6,570.5h14.8M1422.4,863.6h-14.8M1407.6,825.5h14.8M1407.6,442.8h14.8M1422.4,544.8h-14.8M1422.4,480.9h-14.8M1407.6,506.6h14.8M1407.6,761.2h14.8M1445.3,926.5h-22.9M1407.6,634.4h14.8M1422.4,672h-14.8M1422.4,798.8h-14.8M1422.4,736.4h-14.8M1407.6,698.7h14.8M1422.4,570.5h22.9M1445.3,672h-22.9M1422.4,506.6h22.9M1445.3,608.2h-22.9M1445.3,544.8h-22.9M1407.6,944.2v-17.7M1407.6,888.9v-25.3M1407.6,825.5v-26.7M1407.6,761.2v-24.8M1407.6,698.7V672M1407.6,634.4v-26.2M1407.6,570.5v-25.7M1407.6,506.6v-25.7M1407.6,442.8V417M1407.6,378.9v-32.4M1445.3,480.9h-22.9M1422.4,442.8h22.9M1407.6,378.9h37.7M1445.3,417h-37.7M1422.4,761.2h22.9M1445.3,863.6h-22.9M1445.3,798.8h-22.9M1422.4,825.5h22.9M1422.4,698.7h22.9M1422.4,888.9h22.9M1445.3,736.4h-22.9M1422.4,634.4h22.9M1445.3,339.3v39.6M1445.3,417v25.8M1445.3,480.9v25.7M1445.3,544.8v25.7M1445.3,608.2v26.2M1445.3,672v26.7M1445.3,736.4v24.8M1445.3,798.8v26.7M1445.3,863.6v25.3M1445.3,926.5v17.7M1464.3,1286.4h-19M1445.3,1253.5h19v32.9M1407.6,1820.2v4.8M1407.6,1573.3v4.8M1407.6,1659.6h14.8M1407.6,1467.5h15.8M1423.4,1633.8h-15.8M1422.4,1697.7h-14.8M1422.4,1762h-14.8M1407.6,1723.9h14.8M1407.6,1595.7h15.8M1422.4,1884.1h-14.8M1407.6,1845.9h14.8M1407.6,1909.8h14.8M1422.4,1947.4h-14.8M1423.4,1505.1h-15.8M1422.4,1819.7h-14.8M1407.6,1787.3h14.8M1423.4,1570h-15.8M1407.6,1532.3h15.8M1445.3,1570h-21.9M1423.4,1595.7h21.9M1445.3,1697.7h-22.9M1445.3,1633.8h-21.9M1445.3,1505.1h-21.9M1423.4,1532.3h21.9M1422.4,1659.6h22.9M1422.4,1787.3h22.9M1445.3,1884.1h-22.9M1445.3,1819.7h-22.9M1445.3,1762h-22.9M1422.4,1723.9h22.9M1445.3,2011.8h-37.7M1407.6,1974.1h37.7M1422.4,1909.8h22.9M1422.4,1845.9h22.9M1445.3,1947.4h-22.9M1423.4,1467.5h21.9M1407.6,2035.1v-23.3M1407.6,1974.1v-26.7M1407.6,1909.8v-25.7M1407.6,1845.9V1825M1407.6,1820.2v-0.5M1407.6,1787.3V1762M1407.6,1723.9v-26.2M1407.6,1659.6v-25.8M1407.6,1595.7v-17.6M1407.6,1573.3v-3.3M1407.6,1532.3v-27.2M1407.6,1467.5v-30M1407.6,1399.8v-170.1h37.7v23.8M1445.3,1286.4v113.4M1445.3,1437.5v30M1445.3,1505.1v27.2M1445.3,1570v25.7M1445.3,1633.8v25.8M1445.3,1697.7v26.2M1445.3,1762v25.3M1445.3,1819.7v26.2M1445.3,1884.1v25.7M1445.3,1947.4v26.7M1445.3,2011.8v30.5M2080.9,1258.3h25.8M2106.7,1342.1h-25.8M2106.7,1258.3v7.1M2106.7,1297.3v44.8M2150,1297.3h-43.3M2106.7,1265.4h43.3v31.9M2106.7,1123.4h-25.8M2080.9,1039.5h25.8v44.8M2106.7,1116.2v7.2M2150,1116.2h-43.3M2106.7,1084.3h43.3v31.9M2050,944.2v-42h30.9v79.6M1487.2,2073.3h-79.6M1445.3,2042.3h41.9v31M1427.2,308.4h18.1M1487.2,339.3h-41.9M1445.3,308.4h41.9v30.9M1305.2,2142.4h-31.9V2099M1305.2,2099v43.4M1266.1,2099v-25.7M1350,2099h-44.8M1273.3,2099h-7.2M1350,2073.3v25.7M1047.4,2099v-25.7M1131.3,2099h-7.2M1092.2,2099h-44.8M1131.3,2073.3v25.7M910.1,2042.3h42M993.1,2073.3h-83v-31M543.2,1260.6v-7.1M933,1276.8H766.7M543.2,1253.5h408.9M952.1,1286.4H933v-9.6M331.2,1247.8h-14.8M316.4,1176.8h14.8M331.2,1204.9h-14.8M316.4,1219.2h14.8M331.2,1176.8h23.3M354.5,1204.9h-23.3M331.2,1219.2h23.3M354.5,1247.8h-23.3M316.4,1133.9h38.1M354.5,1162h-38.1M316.4,1437.5v-95.4M316.4,1258.3v-10.5M316.4,1219.2v-14.3M316.4,1176.8V1162M316.4,1133.9v-10.5M316.4,1039.5v-57.7M354.5,981.8v113.5M354.5,1128.1v5.8M354.5,1162v14.8M354.5,1204.9v14.3M354.5,1247.8v5.7M354.5,1286.4v113.4M558.5,1399.8v-40M558.5,1321.6v-35.2M576.6,1286.4v35.2M576.6,1360.3v39.5M750,1399.8v-35.3M750,1321.2v-34.8M766.7,1276.8v44.4M766.7,1364.1v1.4M766.7,1364.5v35.3M750,1286.4H576.6M354.5,1253.5h18.6v7.1M571.8,1253.5v-41M571.8,1169.1v-40.5M571.8,1169.1h4.8M576.6,1212.5h-4.8M576.6,1095.3v73.8M576.6,1212.5v41M373.1,1260.6h99.6M516.1,1260.6h27.1M558.5,1286.4h-42.4M472.7,1286.4H354.5M472.7,1286.4v-25.8M516.1,1260.6v25.8M316.4,1479.4v-41.9M347.4,1479.4h-31M347.4,1437.5v41.9M290.7,1258.3h25.7M290.7,1342.1v-44.8M290.7,1265.4v-7.1M316.4,1342.1h-25.7M247.3,1265.4h43.4M290.7,1297.3h-43.4v-31.9M543.2,1100H373.1M373.1,1095.3h203.5M354.5,1095.3h18.6M373.1,1128.1h-18.6M373.1,1100v-4.7M373.1,1100v28.1M933,1095.3h19.1M933,1128.1v-32.8M952.1,1128.1H933M316.4,981.8v-79.6h31v42M247.3,1084.3h43.4M290.7,1116.2h-43.4v-31.9M316.4,1123.4h-25.7v-7.2M290.7,1084.3v-44.8h25.7M1092.2,2142.4V2099M1124.1,2142.4h-31.9M1124.1,2099v43.4M558.5,1321.6v38.7M576.6,1321.6v38.2M750.5,1320.7h16.2M750.5,1364.1h16.2M1848.9,1518l-0.5,-72M1852.7,1446.5l1,71.5" fill-opacity="0" stroke-linejoin="round" stroke-linecap="round" stroke="#023470" stroke-width="3" id="path_97"/><path fill="#000000" d="M913.7,308.6h136.7v-25.7h44.8V239h32.4v43.9h7.2v25.7h134.4v-25.7h7.1V239h31.9v43.9h45.3l0.6,25.7h136.2v31h-41.5v604.2h604.7v-41.5h30.5v137.3h25.7v44.8h43.9v31.9h-43.9v7.1H2084v134.4h25.7v7.2h43.9v32.4h-43.9v44.8H2084v136.7h-30.5v-41.4h-604.7v605.4l41.5,-0.7v30.5h-136.8v26.2h-45.3v43.3h-31.9v-43.3h-7.1v-26.2h-134.4v26.2h-7.2v43.3h-32.4v-43.3h-44.8v-26.2H913.7v-30.5h41.4v-604.7H350.4v41.4h-30.5v-136.7h-26.2v-44.8h-43.3V1265h43.3v-7.2h26.2v-134.4h-26.2v-7.1h-43.3v-31.9h43.3v-44.8h26.2V902.3h30.5v41.5h604.7V339.6h-41.4z" fill-opacity="0" stroke-linejoin="round" stroke-linecap="round" stroke="#023470" stroke-width="30" id="path_98"/></svg>