<svg id="vector" xmlns="http://www.w3.org/2000/svg" width="1920" height="1080" viewBox="0 0 1920 1080"><path fill="#000000" d="M1027.4,193.6v-17h41.1v17M1027.4,176.6h41.1M1068.5,193.6v8.1h-41.1v-8.1h41.1M1027.4,201.7v16.2h41.1v-16.2M1027.4,217.9h41.1M1142.4,193.6v-17h40.7v17M1142.4,176.6h40.7M1183.1,193.6v8.1h-40.7v-8.1h40.7M1142.4,201.7v16.2h40.7v-16.2M1142.4,217.9h40.7M1265.4,193.6v-17h40.7v17M1265.4,176.6h40.7M1306.1,193.6v8.1h-40.7v-8.1h40.7M1265.4,201.7v16.2h40.7v-16.2M1265.4,217.9h40.7M1405.9,92.1V75.4h49.4v16.7M1405.9,75.4h49.4" fill-opacity="0" stroke-linejoin="round" stroke-linecap="round" stroke="#023470" stroke-width="3" id="path_0"/><path fill="#000000" d="M1455.3,92.1v7.7h-49.4v-7.7h49.4M1405.9,99.8v15.3h49.4V99.8M1405.9,115.1h49.4M1736.3,210.3h13.1v50.3h-13.1M1749.4,210.3v50.3M1736.3,260.6h-6.2v-50.3h6.2v50.3M1730.1,210.3h-12.4v50.3h12.4M1717.7,210.3v50.3M1736.3,284.9h13.1v50.4h-13.1M1749.4,284.9v50.4M1736.3,335.3h-6.2v-50.4h6.2v50.4M1730.1,284.9h-12.4v50.4h12.4M1717.7,284.9v50.4M1778.5,481.2h14.2v57.1h-14.2M1792.7,481.2v57.1M1778.5,538.3h-6.6v-57.1h6.6v57.1M1771.9,481.2h-13.1v57.1h13.1M1758.8,481.2v57.1M714.5,200.4v17.5h-43.3v-17.5M714.5,217.9h-43.3M671.2,200.4v-7.6h43.3v7.6h-43.3M714.5,192.8v-16.2h-43.3v16.2M714.5,176.6h-43.3M830.5,200.4v17.5h-48.7v-17.5M830.5,217.9h-48.7M781.8,200.4v-7.6h48.7v7.6h-48.7M830.5,192.8v-16.2h-48.7v16.2M830.5,176.6h-48.7M945.2,200.4v17.5h-45.9v-17.5M945.2,217.9h-45.9M899.3,200.4v-7.6h45.9v7.6h-45.9M945.2,192.8v-16.2h-45.9v16.2M945.2,176.6h-45.9M714.5,826.3v17.1h-43.3v-17.1M714.5,843.4h-43.3M671.2,826.3v-8.1h43.3v8.1h-43.3" fill-opacity="0" stroke-linejoin="round" stroke-linecap="round" stroke="#023470" stroke-width="3" id="path_1"/><path fill="#000000" d="M714.5,818.2V802h-43.3v16.2M714.5,802h-43.3M945.2,826.3v17.1H900v-17.1M945.2,843.4H900M900,826.3v-8.1h45.2v8.1H900" fill-opacity="0" stroke-linejoin="round" stroke-linecap="round" stroke="#023470" stroke-width="3" id="path_2"/><path fill="#000000" d="M945.2,818.2V802H900v16.2M945.2,802H900M830.5,826.3v17.1h-48.7v-17.1M830.5,843.4h-48.7M781.8,826.3v-8.1h48.7v8.1h-48.7" fill-opacity="0" stroke-linejoin="round" stroke-linecap="round" stroke="#023470" stroke-width="3" id="path_3"/><path fill="#000000" d="M830.5,818.2V802h-48.7v16.2M830.5,802h-48.7M1730.4,740.6h-13.1v-52.9h13.1M1717.3,740.6v-52.9M1730.4,687.7h6.2v52.9h-6.2v-52.9" fill-opacity="0" stroke-linejoin="round" stroke-linecap="round" stroke="#023470" stroke-width="3" id="path_4"/><path fill="#000000" d="M1736.6,740.6h12.4v-52.9h-12.4M1749,740.6v-52.9M1730.4,815.7h-13.1v-52.9h13.1M1717.3,815.7v-52.9M1730.4,762.8h6.2v52.9h-6.2v-52.9" fill-opacity="0" stroke-linejoin="round" stroke-linecap="round" stroke="#023470" stroke-width="3" id="path_5"/><path fill="#000000" d="M1736.6,815.7h12.4v-52.9h-12.4M1749,815.7v-52.9M1306.1,826.3v17.1H1261v-17.1M1306.1,843.4H1261M1261,826.3v-8.1h45.1v8.1H1261" fill-opacity="0" stroke-linejoin="round" stroke-linecap="round" stroke="#023470" stroke-width="3" id="path_6"/><path fill="#000000" d="M1306.1,818.2V802H1261v16.2M1306.1,802H1261M1183.1,826.3v17.1H1138v-17.1M1183.1,843.4H1138M1138,826.3v-8.1h45.1v8.1H1138" fill-opacity="0" stroke-linejoin="round" stroke-linecap="round" stroke="#023470" stroke-width="3" id="path_7"/><path fill="#000000" d="M1183.1,818.2V802H1138v16.2M1183.1,802H1138M1068.5,826.3v17.1h-45.1v-17.1M1068.5,843.4h-45.1M1023.4,826.3v-8.1h45.1v8.1h-45.1" fill-opacity="0" stroke-linejoin="round" stroke-linecap="round" stroke="#023470" stroke-width="3" id="path_8"/><path fill="#000000" d="M1068.5,818.2V802h-45.1v16.2M1068.5,802h-45.1M1488.1,872v-24.3M1460.4,927.9v16.6h-59.6v-16.6M1460.4,944.5h-59.6M1400.8,927.9v-7.7h59.6v7.7h-59.6" fill-opacity="0" stroke-linejoin="round" stroke-linecap="round" stroke="#023470" stroke-width="3" id="path_9"/><path fill="#000000" d="M1460.4,920.2v-15h-59.6v15M1460.4,905.2h-59.6M190.4,537.9h-15.2v-57.2h15.2M175.2,537.9v-57.2M190.4,480.7h7v57.2h-7v-57.2M197.4,537.9h14.2v-57.2h-14.2M211.6,537.9v-57.2M554.3,928.3v16.2h-49.1v-16.2M554.3,944.5h-49.1M505.2,928.3V921h49.1v7.3h-49.1M554.3,921v-14.9h-49.1V921M554.3,906.1h-49.1M233,741h-14.2v-47.4H233M218.8,741v-47.4M233,693.6h6.6V741H233v-47.4M239.6,741h13.1v-47.4h-13.1M252.7,741v-47.4M233,812.7h-14.2v-47.4H233M218.8,812.7v-47.4M233,765.3h6.6v47.4H233v-47.4M239.6,812.7h13.1v-47.4h-13.1M252.7,812.7v-47.4M554.3,98.9v16.6h-49.1V98.9M554.3,115.5h-49.1M505.2,98.9v-7.7h49.1v7.7h-49.1M554.3,91.2V75.9h-49.1v15.3M554.3,75.9h-49.1M235.9,336.1h-14.2v-50.3h14.2M221.7,336.1v-50.3M235.9,285.8h6.6v50.3h-6.6v-50.3M242.5,336.1h13.1v-50.3h-13.1M255.6,336.1v-50.3M235.9,261.5h-14.2v-50.4h14.2M221.7,261.5v-50.4M235.9,211.1h6.6v50.4h-6.6v-50.4M242.5,261.5h13.1v-50.4h-13.1M255.6,261.5v-50.4M1499,442.4h160.1v63.5H1499v-63.5M1499,474.3h160.1M1511.4,442.4v63.5M1523.8,442.4v63.5M1536.1,442.4v63.5M1548.5,442.4v63.5M1560.5,442.4v63.5M1572.9,442.4v63.5M1585.2,442.4v63.5M1597.6,442.4v63.5M1610,442.4v63.5M1622,442.4v63.5M1634.4,442.4v63.5M1646.7,442.4v63.5" fill-opacity="0" stroke-linejoin="round" stroke-linecap="round" stroke="#023470" stroke-width="3" id="path_10"/><path fill="#000000" d="m1647.1,477.8 l12,-3.5 -12,-3.8M467.7,506.3H308v-62.2h159.7v62.2M467.7,475.2H308M455.4,506.3v-62.2M443.4,506.3v-62.2M431,506.3v-62.2M418.6,506.3v-62.2M406.2,506.3v-62.2M393.9,506.3v-62.2M381.5,506.3v-62.2M369.5,506.3v-62.2M357.1,506.3v-62.2M344.7,506.3v-62.2M332.4,506.3v-62.2M320,506.3v-62.2" fill-opacity="0" stroke-linejoin="round" stroke-linecap="round" stroke="#023470" stroke-width="3" id="path_11"/><path fill="#000000" d="m319.6,471.4 l-11.6,3.8 11.6,3.8M308,511h159.7v66.2H308V511M308,544.3h159.7M320,511v66.2M332.4,511v66.2M344.7,511v66.2M357.1,511v66.2M369.5,511v66.2M381.5,511v66.2M393.9,511v66.2M406.2,511v66.2M418.6,511v66.2M431,511v66.2M443.4,511v66.2M455.4,511v66.2M467.7,511v66.2" fill-opacity="0" stroke-linejoin="round" stroke-linecap="round" stroke="#023470" stroke-width="3" id="path_12"/><path fill="#000000" d="m456.1,547.7 l11.6,-3.4 -11.6,-3.8M1659.1,577.2H1499v-66.6h160.1v66.6M1659.1,543.9H1499M1646.7,577.2v-66.6M1634.4,577.2v-66.6M1622,577.2v-66.6M1610,577.2v-66.6M1597.6,577.2v-66.6M1585.2,577.2v-66.6M1572.9,577.2v-66.6M1560.5,577.2v-66.6M1548.5,577.2v-66.6M1536.1,577.2v-66.6M1523.8,577.2v-66.6M1511.4,577.2v-66.6" fill-opacity="0" stroke-linejoin="round" stroke-linecap="round" stroke="#023470" stroke-width="3" id="path_13"/><path fill="#000000" d="m1511,540.1 l-12,3.8 12,3.8M1382.6,347.6h-25.9M1382.6,115.1v232.5M1347.3,347.6V217.9M1347.3,176.6V75.4M1356.7,347.6v42.3M1347.3,442.4V317.8M1002.7,395.8h272.9M1312.7,395.8h34.6M1347.3,401.8h-34.6M1275.6,401.8h-272.9M1312.7,395.8v6M1275.6,401.8v-6M623.5,176.6h47.7M714.5,176.6h67.3M830.5,176.6h68.8M945.2,176.6h82.2M1068.5,176.6h73.9M1183.1,176.6h82.3M1306.1,176.6h41.2M1347.3,217.9h-41.2M1265.4,217.9h-82.3M1142.4,217.9h-73.9M1027.4,217.9h-24.7M967.7,217.9h-22.5M899.3,217.9h-68.8M781.8,217.9h-67.3M671.2,217.9h-47.7M1306.1,201.7v16.2M1306.1,176.6v25.1M1265.4,217.9v-41.3M1183.1,201.7v16.2M1183.1,176.6v25.1M1142.4,193.6v-17M1142.4,217.9V193.6M1068.5,176.6v41.3M1027.4,217.9v-41.3M945.2,176.6v16.2M945.2,192.8v25.1M899.3,217.9v-17.5M899.3,200.4V176.6M830.5,176.6v41.3M781.8,217.9v-41.3M714.5,176.6v16.2M714.5,192.8v25.1M671.2,217.9v-41.3M634,491.8h104.1M780.3,491.8h187.4M1002.7,491.8h164.1M1212.3,491.8h135M1347.3,529h-135M1166.8,529H780.3M738.1,529H634M1212.3,491.8V529M1166.8,529v-37.2M780.3,491.8V529M738.1,529v-37.2M989.6,529v273M984.5,802V529M967.7,402.7h-274M656.6,402.7h-33.1M623.5,396.7h33.1M693.7,402.7v-6h274M656.6,402.7v-6M967.7,402.7h35M1002.7,480.7h-35M1002.7,217.9v184.8M1002.7,480.7v11.1M967.7,491.8v-11.1M967.7,217.9v184.8M1792.7,577.2v31.5M1792.7,616.8H1749M1717.3,616.8h-200.1M1488.1,616.8h-36M1411.3,616.8h-28.7M1792.7,608.7v8.1M1382.6,577.2h28.7M1452.1,616.8v-39.6h306.7M1411.3,616.8v-39.6M1347.3,616.8v-39.6M1382.6,616.8V837M1347.3,616.8v-25.1M1347.3,802V616.8M1382.6,442.4h-35.3M1382.6,490.6h-35.3M1356.7,389.9h25.9v12.8M1382.6,490.6v86.6M1347.3,442.4v-52.5M1347.3,591.7V529M1347.3,491.8v-1.2M1792.7,402.7v78.5M1758.8,538.3h33.9v70.4M1758.8,481.2h33.9M1758.8,577.2v-38.9M1758.8,481.2v-38.8M1382.6,402.7h44.7M1468.4,402.7h19.7M1517.2,402.7h200.5M1749.4,402.7h43.3M1758.8,442.4h-290.4M1427.3,442.4h-44.7M1468.4,402.7v39.7M1427.3,442.4v-39.7M1488.1,115.1h-32.8M1405.9,115.1h-23.3M1523.4,75.4v19.2M1347.3,75.4h58.6M1455.3,75.4h68.1M1455.3,99.8v15.3M1455.3,75.4v24.4M1405.9,92.1V75.4M1405.9,115.1v-23M1382.6,330.6h51.6M1465.2,330.6h22.9M1488.1,335.3h-22.9M1434.2,335.3h-51.6M1465.2,330.6v4.7M1434.2,335.3v-4.7M1517.2,306.7h-29.1M1488.1,270.4h29.1M1517.2,388.6h-29.1M1517.2,133v137.4M1517.2,306.7v38.4M1517.2,388.6v14.1M1488.1,345.1h29.1M1488.1,402.7v-14.1M1488.1,345.1v-38.4M1488.1,270.4V115.1M1749.4,335.3H1717.7M1736.3,284.9h13.1M1749.4,260.6h-13.1M1717.7,284.9h18.6M1736.3,210.3h13.1M1717.7,210.3h18.6M1736.3,260.6h-18.6M1749.4,94.6v115.7M1749.4,260.6v24.3M1749.4,335.3v67.4M1717.7,402.7v-67.4M1717.7,284.9v-24.3M1717.7,210.3V133M1523.4,94.6h226M1717.7,133h-200.5M623.5,802h47.7M714.5,802h67.3M830.5,802H900M945.2,802H1023.4M1068.5,802h69.5M1183.1,802h77.9M1306.1,802h41.2M1344.4,843.4h-38.3M1261,843.4h-77.9M1138,843.4h-69.5M1023.4,843.4h-78.2M900,843.4h-69.5M781.8,843.4h-67.3M671.2,843.4h-47.7M1306.1,802v41.4M1261,818.2V802M1261,843.4V818.2M1183.1,826.3v17.1M1183.1,802V826.3M1138,843.4V802M1068.5,802v41.4M1023.4,843.4V802M945.2,802v41.4M900,843.4v-17.1M900,826.3V802M830.5,802v16.2M830.5,818.2V843.4M781.8,843.4V802M714.5,802v16.2M714.5,818.2V843.4M671.2,818.2V802M671.2,843.4V818.2M634,491.8h46.6M680.6,529h-57.1M623.5,491.8H634M587.1,529v-37.2M623.5,75.9v100.7M623.5,217.9V452.6M623.5,491.8h0M623.5,529v273M623.5,843.4v101.1M587.1,452.6h36.4M623.5,491.8h-36.4V529M587.1,491.8h0M587.1,906.1V617.3M587.1,577.2V529M587.1,452.6v-8.5M587.1,404V115.5M175.2,404h46.5M255.6,404h253.6M546.3,404h40.8M587.1,444.1h-40.8M509.2,444.1H211.6M546.3,404v40.1M509.2,444.1V404M211.6,577.2h297.6M546.3,577.2h40.8M587.1,617.3h-40.8M509.2,617.3H252.7M218.8,617.3h-34.2M546.3,577.2v40.1M509.2,617.3v-40.1M448.8,75.9h56.4M554.3,75.9h69.2M587.1,115.5h-32.8M505.2,115.5h-20.7M554.3,98.9v16.6M554.3,75.9v23M505.2,91.2V75.9M505.2,115.5V91.2M448.8,95.1V75.9M1488.1,718.8h-49.5M1407.7,718.8h-25.1M1382.6,710.3h25.1M1438.6,718.8v-8.5h49.5M1407.7,718.8v-8.5M1488.1,642.9h29.1M1517.2,686.4h-29.1M1517.2,616.8V642.9M1517.2,686.4v198.8M1488.1,905.2V686.4M1488.1,642.9v-26.1M1517.2,811.8h3.3M1551.4,811.8h12.4M1594.7,811.8h13.8M1639.5,811.8h13.1M1683.5,811.8h11.6M1687.1,817.8h-3.6M1652.6,817.8h-2.2M1642.4,817.8h-2.9M1608.5,817.8h-2.9M1597.6,817.8h-2.9M1563.8,817.8h-1.5M1554,817.8h-2.6M1520.5,817.8h-3.3M1683.5,811.8v6M1652.6,817.8v-6M1639.5,811.8v6M1608.5,817.8v-6M1594.7,811.8v6M1563.8,817.8v-6M1551.4,811.8v6M1520.5,817.8v-6M1562.3,817.8v62.7M1554,880.5v-62.7M1605.6,817.8v62.7M1597.6,880.5v-62.7M1650.4,817.8v62.7M1642.4,880.5v-62.7M1695.1,811.8v58M1687.1,880.5v-62.7M1749,815.7H1717.3M1717.3,687.7H1749v-70.9M1749,740.6v22.2M1749,815.7v107.9M1717.3,762.8H1749M1749,740.6H1717.3M1717.3,885.2v-69.5M1717.3,762.8v-22.2M1717.3,687.7V616.8M1382.6,616.8v1.3M1347.3,618.1v-16.6M1382.6,818.2v87M1344.4,944.5V843.4M623.5,944.5h-69.2M505.2,944.5h-56.4M481.9,906.1h23.3M554.3,906.1h32.8M554.3,928.3v16.2M554.3,906.1v22.2M505.2,944.5v-16.2M505.2,928.3v-22.2M448.8,944.5v-20.1M1517.2,880.5h36.8M1562.3,880.5h35.3M1605.6,880.5h36.8M1650.4,880.5h36.7M1523.4,923.6v20.9h-63M1400.8,944.5h-17.1M1383.7,905.2h17.1M1460.4,905.2h27.7M1460.4,927.9v16.6M1460.4,905.2v22.7M1400.8,944.5v-39.3M1749,923.6h-225.6M1517.2,885.2H1717.3M1695.1,869.8h22.2M1390.2,944.5h-6.5M1382.6,905.2h7.6M1383.7,944.5h-39.3M239.6,693.6h13.1M252.7,741h-13.1M239.6,765.3h13.1M252.7,812.7h-13.1M218.8,765.3H239.6M252.7,617.3v76.3M252.7,741v24.3M252.7,812.7v72.9M239.6,741H218.8M239.6,812.7H218.8M218.8,693.6H239.6M218.8,924.4V812.7M218.8,765.3V741M218.8,693.6v-76.3M255.6,138.2v72.9M255.6,261.5v24.3M255.6,336.1V404M242.5,211.1h13.1M255.6,261.5h-13.1M221.7,285.8h33.9M242.5,261.5H221.7M221.7,211.1H242.5M255.6,336.1h-33.9V404M221.7,285.8v-24.3M221.7,211.1v-116M211.6,617.3h-27M211.6,444.1v36.6M211.6,537.9v39.3M184.6,617.3h-9.4M211.6,537.9h-36.4M197.4,480.7h14.2M175.2,480.7h22.2M175.2,617.3v-79.4M175.2,480.7V404M252.7,885.6h229.2v20.5M448.8,924.4h-230M484.5,138.2H255.6M221.7,95.1h227.1M484.5,115.5v22.7M257,745.7h1.5M215.6,504.6h1.8M260,264.9h1.4" fill-opacity="0" stroke-linejoin="round" stroke-linecap="round" stroke="#023470" stroke-width="3" id="path_14"/><path fill="#000000" d="M1749.8,920.4h-225.3v21.2h-178.3V840.7H626.4v100.9H452.2v-20.2H222.7V616.8H179V405.4h46.2V99.8h227V80.6h174.2v100h723.1V79.7h175v19.2h226.1v305.5h43v212.4h-43.8z" fill-opacity="0" stroke-linejoin="round" stroke-linecap="round" stroke="#023470" stroke-width="30" id="path_15"/></svg>