<svg id="vector" xmlns="http://www.w3.org/2000/svg" width="6519" height="4020" viewBox="0 0 6519 4020"><path fill="#000000" d="M3496,1870.2h-111.5M3355.7,1869.2H3194M3165.2,1870.2h-113.4M3384.5,1869.2v-194.1M3355.7,1869.2v-194.1M3194,1869.2v-194.1M3166.1,1870.2V1676M3496,1856.2h-106.9M3496,1842.3h-98.5M3496,1829.3h-91.1M3496,1815.4h-82.7M3496,1801.4h-75.3M3496,1787.5h-66.9M3496,1774.5h-59.5M3496,1760.6h-52M3496,1746.6h-43.7M3496,1732.7h-36.2M3496,1719.7h-27.9M3496,1705.7h-20.4M3496,1691.8h-12.1M3496,1677.9h-111.5M3355.7,1855.3H3194M3355.7,1842.3H3194M3355.7,1828.4H3194M3355.7,1814.4H3194M3355.7,1801.4H3194M3355.7,1787.5H3194M3355.7,1773.6H3194M3355.7,1759.6H3194M3355.7,1746.6H3194M3355.7,1732.7H3194M3355.7,1718.7H3194M3355.7,1704.8H3194M3355.7,1691.8H3194M3355.7,1677.9H3194M3165.2,1856.2H3155M3165.2,1842.3h-17.7M3165.2,1828.4h-26M3165.2,1815.4h-34.4M3165.2,1801.4h-41.8M3165.2,1787.5H3115M3165.2,1773.6h-58.6M3165.2,1760.6h-66M3165.2,1746.6h-74.4M3165.2,1732.7h-82.7M3165.2,1718.7H3075M3165.2,1705.7h-98.5M3165.2,1691.8h-106M3165.2,1677.9h-113.4M3059.2,1691.8h-7.4M3066.7,1705.7h-14.9M3075,1718.7h-23.2M3082.5,1732.7h-30.7M3090.8,1746.6h-39M3099.2,1760.6h-47.4M3106.6,1773.6h-54.8M3115,1787.5h-63.2M3123.4,1801.4h-71.6M3130.8,1815.4h-79M3139.2,1828.4h-87.4M3147.5,1842.3h-95.7M3155,1856.2h-103.2M3389.1,1856.2h-4.6M3397.5,1842.3h-13M3404.9,1829.3h-20.4M3413.3,1815.4h-28.8M3420.7,1801.4h-36.2M3429.1,1787.5h-44.6M3436.5,1774.5h-52M3444,1760.6h-59.5M3452.3,1746.6h-67.8M3459.8,1732.7h-75.3M3468.1,1719.7h-83.6M3475.6,1705.7h-91.1M3483.9,1691.8h-99.4M5459.6,1071.2h-3.7v1.9M5797.9,1662.1h-187.7M5797.9,1646.3h-92M5797.9,1629.6h-92M5797.9,1613.8h-92M5797.9,1598h-92M5797.9,1582.2h-92M5797.9,1565.4h-92M5797.9,1549.7h-92M5797.9,1533.9h-92M5797.9,1517.1h-92M5797.9,1501.3h-92M5797.9,1485.6h-92M5797.9,1469.8h-187.7M5705.9,1469.8v192.3M5701.2,1662.1v-192.3M5701.2,1485.6h-91M5701.2,1501.3h-91M5701.2,1517.1h-91M5701.2,1533.9h-91M5701.2,1549.7h-91M5701.2,1565.4h-91M5701.2,1582.2h-91M5701.2,1598h-91M5701.2,1613.8h-91M5701.2,1629.6h-91M5701.2,1646.3h-91M3751.6,1159.5h-61.4M3751.6,1159.5v24.1M3633.5,2162.8h0M3628,2078.3v84.5M3181.9,3702.3v-188.6M3168,3702.3v-91.1M3154,3702.3v-91.1M3140.1,3702.3v-91.1M3125.2,3702.3v-91.1M3111.3,3702.3v-91.1M3097.3,3702.3v-91.1M3083.4,3702.3v-91.1M3068.5,3702.3v-91.1M3054.6,3702.3v-188.6M3181.9,3611.2h-127.3M3181.9,3601.9h-127.3M3068.5,3601.9v-88.2M3083.4,3601.9v-88.2M3097.3,3601.9v-88.2M3111.3,3601.9v-88.2M3125.2,3601.9v-88.2M3140.1,3601.9v-88.2M3154,3601.9v-88.2M3168,3601.9v-88.2M926.5,1655.6H748.1M937.7,1639.8h-91.1M937.7,1624h-91.1M937.7,1608.2h-91.1M937.7,1591.5h-91.1M937.7,1575.7h-91.1M937.7,1559.9h-91.1M937.7,1543.2h-91.1M937.7,1527.4h-91.1M937.7,1511.6h-91.1M937.7,1495.8h-91.1M937.7,1479H748.1M846.6,1479v176.6M839.2,1479v176.6M839.2,1639.8h-91.1M839.2,1624h-91.1M839.2,1608.2h-91.1M839.2,1591.5h-91.1M839.2,1575.7h-91.1M839.2,1559.9h-91.1M839.2,1543.2h-91.1M839.2,1527.4h-91.1M839.2,1511.6h-91.1M839.2,1495.8h-91.1M2811.1,1163.2h52.1M2811.1,1163.2v20.4" fill-opacity="0" stroke-linejoin="round" stroke-linecap="round" stroke="#023470" stroke-width="3.717" id="path_0"/><path fill="#000000" d="M3052.7,1046.1v-28.8M3023.9,1046.1h28.8M3023.9,1017.3v28.8M3052.7,1017.3h-28.8M3052.7,1190.1v-28.8M3023.9,1190.1h28.8M3023.9,1161.3v28.8M3052.7,1161.3h-28.8M3052.7,1377.8V1349M3023.9,1377.8h28.8M3023.9,1349v28.8M3052.7,1349h-28.8M3051.8,1521.8V1493M3023,1521.8h28.8M3023,1493v28.8M3051.8,1493H3023M3529.5,1377.8V1349M3500.7,1377.8h28.8M3500.7,1349v28.8M3529.5,1349h-28.8M3528.5,1522.7v-28.8M3499.7,1522.7h28.8M3499.7,1493.9v28.8M3528.5,1493.9h-28.8M3529.5,1046.1v-28.8M3500.7,1046.1h28.8M3500.7,1017.3v28.8M3529.5,1017.3h-28.8M3529.5,1191v-28.8M3500.7,1191h28.8M3500.7,1162.2v28.8M3529.5,1162.2h-28.8M3384.5,1898v-28.8M3355.7,1898h28.8M3355.7,1869.2v28.8M3384.5,1869.2h-28.8M3384.5,1675.1v-28.8M3355.7,1675.1h28.8M3355.7,1646.3v28.8M3384.5,1646.3h-28.8M3194,1899v-28.8M3165.2,1899h28.8M3165.2,1870.2v28.8M3194,1870.2h-28.8M3194.9,1676v-28.8M3166.1,1676h28.8M3166.1,1647.2v28.8M3194.9,1647.2h-28.8M3381.7,1047v-28.8M3352.9,1047h28.8M3352.9,1018.2v28.8M3381.7,1018.2h-28.8M3380.8,1522.7v-28.8M3352,1522.7h28.8M3352,1493.9v28.8M3380.8,1493.9H3352M3195.8,1045.2v-28.8M3167,1045.2h28.8M3167,1016.4v28.8M3195.8,1016.4H3167M3195.8,1520.9v-28.8M3167,1520.9h28.8M3167,1492.1v28.8M3195.8,1492.1H3167" fill-opacity="0" stroke-linejoin="round" stroke-linecap="round" stroke="#023470" stroke-width="6.504" id="path_1"/><path fill="#000000" d="M2304.7,1110.2h5.5M2357.6,1110.2h8.4M2366,1117.6h-0.9M2362.3,1117.6h-4.7M2310.2,1117.6h-12.1M2366,1117.6v-7.4M2357.6,1110.2v7.4M2310.2,1117.6v-7.4M2410.6,903h0.9M2411.5,907.7h-0.9M2411.5,907.7V903M2410.6,868.7V903M2410.6,907.7v275.9M2405.9,1183.6V868.7" fill-opacity="0" stroke-linejoin="round" stroke-linecap="round" stroke="#023470" stroke-width="3.717" id="path_2"/><path fill="#000000" d="M1249,838h3890" fill-opacity="0" stroke-linejoin="round" stroke-linecap="round" stroke="#023470" stroke-width="75" id="path_3"/><path fill="#000000" d="M1091,1183.6h45.5M1200.6,1183.6h45.6M1281.5,1183.6h75.3M1420.9,1183.6h105.9M1591,1183.6h98.5M1753.6,1183.6h95.7M1913.4,1183.6h103.2M2080.7,1183.6h73.4M2177.3,1183.6h93M2333.5,1183.6h122.6M2520.2,1183.6h113.4M2697.7,1183.6h165.5M2863.2,1207.8h-165.5M2633.6,1207.8h-113.4M2456.1,1207.8h-122.6M2270.3,1207.8h-189.6M2016.6,1207.8h-103.2M1849.3,1207.8h-95.7M1689.5,1207.8H1591M1526.8,1207.8h-105.9M1356.8,1207.8h-156.2M1136.5,1207.8H1091M2697.7,1183.6v24.2M2633.6,1207.8v-24.2M2520.2,1183.6v24.2M2456.1,1207.8v-24.2M2333.5,1183.6v24.2M2270.3,1207.8v-24.2M2080.7,1183.6v24.2M2016.6,1207.8v-24.2M1913.4,1183.6v24.2M1849.3,1207.8v-24.2M1753.6,1183.6v24.2M1689.5,1207.8v-24.2M1591,1183.6v24.2M1526.8,1207.8v-24.2M1420.9,1183.6v24.2M1356.8,1207.8v-24.2M1200.6,1183.6v24.2M1136.5,1207.8v-24.2" fill-opacity="0" stroke-linejoin="round" stroke-linecap="round" stroke="#023470" stroke-width="6.504" id="path_4"/><path fill="#000000" d="M2304.7,868.7v241.5M2298.1,1117.6V867.7M2365.1,1117.6v66M2362.3,1183.6v-66M1513.8,868.7v314.9M1499.9,1183.6V868.7M1672.7,868.7v314.9M1656,1183.6V868.7M1842.8,868.7v314.9M1828.9,1183.6V868.7M1979.4,868.7v229.4M1979.4,1145.5v38.1M1979.4,1145.5h-9.3M1970.1,1098.1h9.3M1970.1,1183.6v-38.1M1970.1,1098.1V868.7M2575.1,867.7v259.2M2575.1,1174.3v9.3M2575.1,1174.3h-14M2561.1,1126.9h14M2561.1,1183.6v-9.3M2561.1,1126.9V867.7M1181.1,998.7h16.8M1201.6,998.7h44.6M1246.2,1002.4h-61.3" fill-opacity="0" stroke-linejoin="round" stroke-linecap="round" stroke="#023470" stroke-width="3.717" id="path_5"/><path fill="#000000" d="M1097.5,923.5H1249" fill-opacity="0" stroke-linejoin="round" stroke-linecap="round" stroke="#023470" stroke-width="75" id="path_6"/><path fill="#000000" d="M1246.2,959.7h-53.9M1098.4,959.7h-29.7v-0.9M1281.5,923.5v260.1M1246.2,1183.6V959.7M1281.5,868.7v54.8" fill-opacity="0" stroke-linejoin="round" stroke-linecap="round" stroke="#023470" stroke-width="6.504" id="path_7"/><path fill="#000000" d="M1249,923.5V838" fill-opacity="0" stroke-linejoin="round" stroke-linecap="round" stroke="#023470" stroke-width="75" id="path_8"/><path fill="#000000" d="M2863.2,1239.4h26M2889.2,1310.9h-26M2889.2,867.7v371.7M2889.2,1310.9v335.4M2863.2,1018.2V1008M2863.2,1646.3v-276.9M2863.2,1344.3v-33.4M2863.2,1239.4v-31.6M2863.2,1183.6v-165.4M2177.3,868.7v314.9M2154.1,1183.6V868.7M2863.2,1018.2V868.7" fill-opacity="0" stroke-linejoin="round" stroke-linecap="round" stroke="#023470" stroke-width="6.504" id="path_9"/><path fill="#000000" d="M1184.9,1041.5h61.3v3.7h-61.3M1246.2,1085.1v2.8M1184.9,1085.1h61.3M1246.2,1087.9h-61.3M1201.6,959.7v2.8M1201.6,996.9v1.8M1197.9,962.5h3.7M1201.6,996.9h-3.7M1197.9,962.5v-2.8M1181.1,1046.1h3.8M1184.9,1084.2h-3.8M1181.1,1003.4h3.8M1184.9,1040.5h-3.8M1184.9,1127.9h-3.8M1181.1,1090.7h3.8M1184.9,1002.4v1M1184.9,1040.5v1M1184.9,1045.2v0.9M1184.9,1084.2v0.9M1184.9,1087.9v2.8M1184.9,1127.9v2.8M1181.1,1134.4v-6.5M1181.1,1090.7v-6.5M1181.1,1046.1v-5.6M1181.1,1003.4v-4.7M1184.9,1130.7h61.3M1246.2,1134.4h-65.1M1246.2,1130.7v3.7" fill-opacity="0" stroke-linejoin="round" stroke-linecap="round" stroke="#023470" stroke-width="3.717" id="path_10"/><path fill="#000000" d="m1002.7,658.7 l78.1,219.3M1036.2,752.5l26.9,76.2" fill-opacity="0" stroke-linejoin="round" stroke-linecap="round" stroke="#023470" stroke-width="75" id="path_11"/><path fill="#000000" d="m1080.8,878 l16.7,45.5M1068.7,958.8l-41.8,-117.1 -1,-3.7 -1.8,-3.7 -58.6,-163.5M967.4,1071.2H1091M1059.4,1082.3h-92M1071.5,1219.8h19.5M1091,1071.2v112.4M1091,1207.8v12M1091,1333.2v11.1M1091,1333.2h-19.5M1071.5,1219.8v-131" fill-opacity="0" stroke-linejoin="round" stroke-linecap="round" stroke="#023470" stroke-width="6.504" id="path_12"/><path fill="#000000" d="M1088.2,1071.2V959.7" fill-opacity="0" stroke-linejoin="round" stroke-linecap="round" stroke="#023470" stroke-width="3.717" id="path_13"/><path fill="#000000" d="M1059.4,1081.4h13.9v7.4h-13.9zM2863.2,1369.4h-165.5M2633.6,1369.4h-112.4M2457.1,1369.4h-122.7M2270.3,1369.4h-93M2087.2,1369.4h-85.5M1937.6,1369.4h-184M1689.5,1369.4H1591M1526.8,1369.4h-293.6M1170,1369.4h-116.2M989.7,1369.4h-18.6M937.7,1369.4h-63.2M811.3,1369.4h-63.2M748.1,1344.3h63.2M874.5,1344.3h115.2M1053.8,1344.3h17.7M1091,1344.3h79M1233.2,1344.3h293.6M1591,1344.3h98.5M1753.6,1344.3h184M2001.7,1344.3h268.6M2334.4,1344.3h122.7M2521.2,1344.3h112.4M2697.7,1344.3h165.5M2697.7,1344.3v25.1M2633.6,1369.4v-25.1M2521.2,1344.3v25.1M2457.1,1369.4v-25.1M2334.4,1344.3v25.1M2270.3,1369.4v-25.1M2001.7,1344.3v25.1M1937.6,1369.4v-25.1M1753.6,1344.3v25.1M1689.5,1369.4v-25.1M1591,1344.3v25.1M1526.8,1369.4v-25.1M1233.2,1344.3v25.1M1170,1369.4v-25.1M1053.8,1344.3v25.1M989.7,1369.4v-25.1M874.5,1344.3v25.1M811.3,1369.4v-25.1" fill-opacity="0" stroke-linejoin="round" stroke-linecap="round" stroke="#023470" stroke-width="6.504" id="path_14"/><path fill="#000000" d="M1116.1,1369.4v276.9M1107.7,1646.3v-276.9M1329.8,1369.4v276.9M1321.5,1646.3v-276.9M1456.2,1646.3h-7.4M1456.2,1369.4v276.9M1448.8,1646.3v-276.9M1633.7,1369.4v276.9M1625.3,1646.3v-276.9M1840,1369.4v276.9M1832.6,1646.3v-276.9M2391.1,1369.4v276.9M2377.1,1646.3v-276.9M2550.9,1369.4v276.9h-12.1v-276.9M1071.5,1333.2v11.1M1098.4,959.7h93.9M2734.9,1480.9v165.4M2734.9,1480.9H2721M2721,1433.5h13.9v-64.1M2734.9,1480.9v165.4M2721,1646.3v-165.4M2721,1433.5v-64.1" fill-opacity="0" stroke-linejoin="round" stroke-linecap="round" stroke="#023470" stroke-width="3.717" id="path_15"/><path fill="#000000" d="M2087.2,1431.7v-62.3M2177.3,1400.1v6.5M2177.3,1369.4v30.7M926.5,1646.3h11.2M971.1,1646.3h2080.7" fill-opacity="0" stroke-linejoin="round" stroke-linecap="round" stroke="#023470" stroke-width="6.504" id="path_16"/><path fill="#000000" d="M3018.3,1685.3H964.6" fill-opacity="0" stroke-linejoin="round" stroke-linecap="round" stroke="#023470" stroke-width="75" id="path_17"/><path fill="#000000" d="M2103,1431.7h-113.4M1984,1427h103.2M2103,1431.7h0M1989.6,1431.7v214.6M1984,1646.3V1427" fill-opacity="0" stroke-linejoin="round" stroke-linecap="round" stroke="#023470" stroke-width="3.717" id="path_18"/><path fill="#000000" d="M2156.9,1431.7h-69.7M2177.3,1562.7h-20.4M2177.3,1400.1v115.2M2177.3,1562.7v83.6M2156.9,1515.3h20.4M2156.9,1646.3v-83.6M2156.9,1515.3v-83.6M3051.8,1646.3v404.1" fill-opacity="0" stroke-linejoin="round" stroke-linecap="round" stroke="#023470" stroke-width="6.504" id="path_19"/><path fill="#000000" d="M3018.3,2050.4v-365.1" fill-opacity="0" stroke-linejoin="round" stroke-linecap="round" stroke="#023470" stroke-width="75" id="path_20"/><path fill="#000000" d="M739.7,1071.2h18.6M846.6,1071.2h13.9M887.5,1071.2h79.9M967.4,1082.3v6.5H846.6M758.3,1088.8h-10.2M846.6,1071.2v17.6M758.3,1088.8v-17.6" fill-opacity="0" stroke-linejoin="round" stroke-linecap="round" stroke="#023470" stroke-width="6.504" id="path_21"/><path fill="#000000" d="m1079.8,633.6 l-77.1,25.1" fill-opacity="0" stroke-linejoin="round" stroke-linecap="round" stroke="#023470" stroke-width="75" id="path_22"/><path fill="#000000" d="m965.5,670.8 l-72.4,24.1M848.4,709.8l-79.9,26.9M737.9,720l102.2,-33.4M884.7,671.7l105.9,-35.3 3.7,-0.9 44.7,-14.9M884.7,671.7l8.4,23.2M848.4,709.8l-8.3,-23.2" fill-opacity="0" stroke-linejoin="round" stroke-linecap="round" stroke="#023470" stroke-width="6.504" id="path_23"/><path fill="#000000" d="m1025.9,838 l-134.7,44.6M857.7,893.7 L828,903M826.1,898.4l29.8,-9.3M889.3,878l134.8,-43.7M889.3,878l1.9,4.6M857.7,893.7l-1.8,-4.6" fill-opacity="0" stroke-linejoin="round" stroke-linecap="round" stroke="#023470" stroke-width="3.717" id="path_24"/><path fill="#000000" d="M971.1,1369.4v276.9M937.7,1646.3v-276.9" fill-opacity="0" stroke-linejoin="round" stroke-linecap="round" stroke="#023470" stroke-width="6.504" id="path_25"/><path fill="#000000" d="M964.6,1685.3v99.4" fill-opacity="0" stroke-linejoin="round" stroke-linecap="round" stroke="#023470" stroke-width="75" id="path_26"/><path fill="#000000" d="M926.5,1747.5v-101.2" fill-opacity="0" stroke-linejoin="round" stroke-linecap="round" stroke="#023470" stroke-width="6.504" id="path_27"/><path fill="#000000" d="m739.7,719.1 l-5.6,1.8M702.5,615l37.2,104.1M734.1,720.9l-37.1,-104M908.8,663.3l-4.6,1.9M871.7,560.2l19.5,54.8M903.3,648.5l5.5,14.8M904.2,665.2l-4.6,-14.9M887.5,616.9 L867,561.1M903.3,648.5l-3.7,1.8M887.5,616.9l3.7,-1.9" fill-opacity="0" stroke-linejoin="round" stroke-linecap="round" stroke="#023470" stroke-width="3.717" id="path_28"/><path fill="#000000" d="M629.1,769.3 L678.4,904l61.3,167.2M768.5,736.7l17.7,50.2M805.7,839.9l20.4,58.5 1.9,4.6 59.5,168.2M860.5,1071.2l-79.9,-222M762,795.3l-22.3,-61.4M805.7,839.9l-25.1,9.3M762,795.3l24.2,-8.4M739.7,733.9l-16.7,5.6M719.3,726.5l18.6,-6.5M719.3,726.5l3.7,13M939.5,537.9l-67.8,22.3 -4.7,0.9 -170,55.8 -10.3,3.7M605.9,647.5l-24.2,7.5L276,755.3M265.8,726.5l330.8,-108.7M677.5,591.8 L921.9,511M677.5,591.8l9.2,28.8M605.9,647.5l-9.3,-29.7M748.1,1088.8v255.5M748.1,1369.4v378.1" fill-opacity="0" stroke-linejoin="round" stroke-linecap="round" stroke="#023470" stroke-width="6.504" id="path_29"/><path fill="#000000" d="M721.1,1784.7v-688.4M881,77.1l49.2,137.5 129.2,362.3 20.4,56.7" fill-opacity="0" stroke-linejoin="round" stroke-linecap="round" stroke="#023470" stroke-width="75" id="path_30"/><path fill="#000000" d="m1039,620.6 l-36.3,-104M975.8,441.3l-52.1,-144M912.6,264.8l-14,-38.1 -38.1,-107.8M1002.7,516.6l3.7,-1 6.5,-2.8h1.9l6.5,-2.8 13,-4.6" fill-opacity="0" stroke-linejoin="round" stroke-linecap="round" stroke="#023470" stroke-width="6.504" id="path_31"/><path fill="#000000" d="M964.6,1784.7H721.1" fill-opacity="0" stroke-linejoin="round" stroke-linecap="round" stroke="#023470" stroke-width="75" id="path_32"/><path fill="#000000" d="M748.1,1747.5h178.4" fill-opacity="0" stroke-linejoin="round" stroke-linecap="round" stroke="#023470" stroke-width="6.504" id="path_33"/><path fill="#000000" d="M914.4,1784.7h2.8" fill-opacity="0" stroke-linejoin="round" stroke-linecap="round" stroke="#023470" stroke-width="3.717" id="path_34"/><path fill="#000000" d="M2857.6,2050.4h160.7" fill-opacity="0" stroke-linejoin="round" stroke-linecap="round" stroke="#023470" stroke-width="75" id="path_35"/><path fill="#000000" d="M3051.8,2050.4h173.8M3320.4,2050.4H3496" fill-opacity="0" stroke-linejoin="round" stroke-linecap="round" stroke="#023470" stroke-width="6.504" id="path_36"/><path fill="#000000" d="M3529.5,2050.4h157" fill-opacity="0" stroke-linejoin="round" stroke-linecap="round" stroke="#023470" stroke-width="75" id="path_37"/><path fill="#000000" d="M3654.9,2078.3h-289M3345.5,2078.3h-25.1M3225.6,2078.3h-22.3M3181,2078.3h-290M3320.4,2050.4v27.9M3225.6,2078.3v-27.9M2891,2078.3V3706" fill-opacity="0" stroke-linejoin="round" stroke-linecap="round" stroke="#023470" stroke-width="6.504" id="path_38"/><path fill="#000000" d="M2857.6,3731.1V2050.4" fill-opacity="0" stroke-linejoin="round" stroke-linecap="round" stroke="#023470" stroke-width="75" id="path_39"/><path fill="#000000" d="m581.7,655 l12.1,33.4M605.9,721.9l13,36.2M614.3,760l-14,-36.3M588.2,690.3l-12,-33.5M605.9,721.9l-5.6,1.8M588.2,690.3l5.6,-1.9" fill-opacity="0" stroke-linejoin="round" stroke-linecap="round" stroke="#023470" stroke-width="3.717" id="path_40"/><path fill="#000000" d="M313.2,858.4 L614.3,760l3.7,-1.9h0.9" fill-opacity="0" stroke-linejoin="round" stroke-linecap="round" stroke="#023470" stroke-width="6.504" id="path_41"/><path fill="#000000" d="M610.5,794.3 L290.9,898.4" fill-opacity="0" stroke-linejoin="round" stroke-linecap="round" stroke="#023470" stroke-width="75" id="path_42"/><path fill="#000000" d="m932.1,539.8 l80.8,-27 -26.9,-75.2 -80.9,27.9zM133.8,357.7l132,368.8M276,755.3l37.2,103.1" fill-opacity="0" stroke-linejoin="round" stroke-linecap="round" stroke="#023470" stroke-width="6.504" id="path_43"/><path fill="#000000" d="m290.9,898.4 l-47.4,-131.9 -129.2,-361.4 -24.2,-67.9" fill-opacity="0" stroke-linejoin="round" stroke-linecap="round" stroke="#023470" stroke-width="75" id="path_44"/><path fill="#000000" d="M256.5,761.8h0.9" fill-opacity="0" stroke-linejoin="round" stroke-linecap="round" stroke="#023470" stroke-width="6.504" id="path_45"/><path fill="#000000" d="M3686.5,2050.4v1680.7" fill-opacity="0" stroke-linejoin="round" stroke-linecap="round" stroke="#023470" stroke-width="75" id="path_46"/><path fill="#000000" d="M3654.9,3702.3v-1624" fill-opacity="0" stroke-linejoin="round" stroke-linecap="round" stroke="#023470" stroke-width="6.504" id="path_47"/><path fill="#000000" d="M3529.5,1685.3v365.1" fill-opacity="0" stroke-linejoin="round" stroke-linecap="round" stroke="#023470" stroke-width="75" id="path_48"/><path fill="#000000" d="M3496,2050.4v-404.1h168.2M3690.2,1646.3h1891.1" fill-opacity="0" stroke-linejoin="round" stroke-linecap="round" stroke="#023470" stroke-width="6.504" id="path_49"/><path fill="#000000" d="M5581.3,1685.3H3529.5" fill-opacity="0" stroke-linejoin="round" stroke-linecap="round" stroke="#023470" stroke-width="75" id="path_50"/><path fill="#000000" d="M3181,2190.7h-25.1M3109.4,2190.7h-76.2M2986.8,2190.7H2891M2891,2184.2h95.8M3033.2,2184.2h76.2M3155.9,2184.2h25.1M3155.9,2184.2v6.5M3109.4,2190.7v-6.5M3033.2,2184.2v6.5M2986.8,2190.7v-6.5M3181,2410.9h-290M2891,2403.5h290M3181,2571.6h-290M2891,2565.1h290M3181,2708.2h-290M2891,2700.7h290M2891,2850.3h290M3181,2856.8h-290M2891,3004.5h290M3181,3012h-290M2891,3157.8h290M3181,3164.3h-290" fill-opacity="0" stroke-linejoin="round" stroke-linecap="round" stroke="#023470" stroke-width="3.717" id="path_51"/><path fill="#000000" d="M3181,3326h-100.4M3083.4,3313.9h97.6M3083.4,3326h-2.8M2891,3297.2h192.4v16.7M3080.6,3326H2891M3345.5,3513.7h-40.9M3257.2,3513.7H2891M2891,3488.6h290M3203.3,3488.6h53.9M3304.6,3488.6h40.9M3304.6,3488.6v25.1M3257.2,3513.7v-25.1" fill-opacity="0" stroke-linejoin="round" stroke-linecap="round" stroke="#023470" stroke-width="6.504" id="path_52"/><path fill="#000000" d="M3203.3,2148h27.9M3317.6,2148h27.9M3345.5,2152.6h-27.9M3231.2,2152.6h-27.9M3317.6,2148v4.6M3231.2,2152.6v-4.6" fill-opacity="0" stroke-linejoin="round" stroke-linecap="round" stroke="#023470" stroke-width="3.717" id="path_53"/><path fill="#000000" d="M3203.3,3108.6H3181M3203.3,2944.2H3181M3181,2896.8h22.3M3181,3061.2h22.3M3203.3,3441.2H3181M3181,3393.8h22.3M3203.3,3259.1H3181M3181,3211.7h22.3M3203.3,2509.4H3181M3181,2462.9h22.3M3203.3,2353.3H3181M3181,2305.9h22.3M3181,2753.7h22.3M3203.3,2801.1H3181M3181,2611.6h22.3M3203.3,2658H3181M3203.3,2078.3v227.6M3203.3,2353.3v109.6M3203.3,2509.4v102.2M3203.3,2658v95.7M3203.3,2801.1v95.7M3203.3,2944.2v117M3203.3,3108.6v103.1M3203.3,3259.1v134.7M3203.3,3441.2v47.4M3181,3488.6v-47.4M3181,3393.8V3326M3181,3313.9v-54.8M3181,3211.7v-103.1M3181,3061.2v-117M3181,2896.8v-95.7M3181,2753.7V2658M3181,2611.6v-102.2M3181,2462.9v-109.6M3181,2305.9v-227.6M3181,3313.9v-16.7" fill-opacity="0" stroke-linejoin="round" stroke-linecap="round" stroke="#023470" stroke-width="6.504" id="path_54"/><path fill="#000000" d="M3365.9,3731.1h-508.3" fill-opacity="0" stroke-linejoin="round" stroke-linecap="round" stroke="#023470" stroke-width="75" id="path_55"/><path fill="#000000" d="M2891,3706h454.5" fill-opacity="0" stroke-linejoin="round" stroke-linecap="round" stroke="#023470" stroke-width="6.504" id="path_56"/><path fill="#000000" d="M3518.3,3681.8h-4.6M3513.7,3634.4h4.6M3518.3,3510v96.6M3518.3,3681.8v20.5M3513.7,3702.3v-20.5M3513.7,3634.4v-21.3M3513.7,3606.6V3510M3575,3510v96.6M3571.3,3606.6V3510M3624.2,3510v96.6M3620.5,3606.6V3510" fill-opacity="0" stroke-linejoin="round" stroke-linecap="round" stroke="#023470" stroke-width="3.717" id="path_57"/><path fill="#000000" d="M3654.9,3510h-289M3365.9,3488.6h289M3365.9,2509.4h-20.4M3345.5,3634.4h20.4M3365.9,2658h-20.4M3345.5,2611.6h20.4M3365.9,3108.6h-20.4M3345.5,3061.2h20.4M3345.5,2462.9h20.4M3345.5,3211.7h20.4M3365.9,2944.2h-20.4M3365.9,3441.2h-20.4M3345.5,3393.8h20.4M3365.9,2078.3v227.6M3365.9,2353.3v109.6M3365.9,2509.4v102.2M3365.9,2658v95.7M3365.9,2801.1v95.7M3365.9,2944.2v117M3365.9,3108.6v103.1M3365.9,3259.1v55.8M3365.9,3328.8v65M3365.9,3441.2v47.4M3365.9,3510v124.4M3365.9,3681.8v20.5M3365.9,3731.1h0M3345.5,2753.7h20.4M3365.9,3259.1h-20.4M3345.5,2896.8h20.4M3365.9,2801.1h-20.4M3365.9,3681.8h-20.4M3365.9,2353.3h-20.4M3345.5,2305.9h20.4M3345.5,3706v-24.2M3345.5,3634.4v-120.7M3345.5,3488.6v-47.4M3345.5,3393.8v-134.7M3345.5,3211.7v-103.1M3345.5,3061.2v-117M3345.5,2896.8v-95.7M3345.5,2753.7V2658M3345.5,2611.6v-102.2M3345.5,2462.9v-109.6M3345.5,2305.9v-227.6M3475.6,3319.5v9.3h-109.7M3365.9,3314.9h97.6M3463.5,3297.2h191.4M3654.9,3319.5h-179.3M3463.5,3314.9v-17.7" fill-opacity="0" stroke-linejoin="round" stroke-linecap="round" stroke="#023470" stroke-width="6.504" id="path_58"/><path fill="#000000" d="M3654.9,3158.8h-289M3365.9,3151.3h289M3365.9,2996.2h289M3654.9,3008.3h-289M3365.9,2843.8h289M3654.9,2855h-289M3365.9,2694.2h289M3654.9,2703.5h-289M3654.9,2556.7h-289M3365.9,2547.5h289M3581.5,2270.6h-112.4M3469.1,2267.8h110.5M3581.5,2168.4v40.9M3581.5,2245.5v25.1M3581.5,2245.5h-1.9M3579.6,2209.3h1.9M3579.6,2267.8v-22.3M3579.6,2209.3v-40.9M3469.1,2082v80.8M3469.1,2168.4v99.4M3469.1,2270.6v12.1M3469.1,2318v12.1M3469.1,2334.7v31.6M3469.1,2318h-4.7M3464.4,2282.7h4.7M3464.4,2082h4.7M3464.4,2357v-39M3464.4,2282.7V2082M3469.1,2162.8h112.4M3579.6,2168.4h-110.5M3581.5,2168.4v-5.6M3469.1,2330.1h185.8M3654.9,2334.7h-185.8M3469.1,2366.3h-103.2M3365.9,2357h98.5M3513.7,3613.1h-102.3M3411.4,3606.6h102.3M3411.4,3606.6v6.5" fill-opacity="0" stroke-linejoin="round" stroke-linecap="round" stroke="#023470" stroke-width="3.717" id="path_59"/><path fill="#000000" d="M3686.5,3731.1h-320.6" fill-opacity="0" stroke-linejoin="round" stroke-linecap="round" stroke="#023470" stroke-width="75" id="path_60"/><path fill="#000000" d="M3365.9,3702.3h289M3664.2,1239.4h26M3690.2,1310.9h-26M3690.2,864.9v318.7M3690.2,1210.6v28.8M3690.2,1310.9v31.6M3690.2,1370.3v276M3664.2,1646.3v-335.4M3664.2,1239.4V866.8M5600.9,1342.5h9.3M3690.2,1342.5h84.6M3822.2,1342.5h86.4M3992.2,1342.5h139.4M4178.1,1342.5h30.7M4256.2,1342.5h176.5M4516.4,1342.5h78M4677.1,1342.5h294.6M5019.1,1342.5h115.3M5181.7,1342.5h99.5M5364.8,1342.5h91.1M5477.3,1342.5h123.6M5581.3,1370.3h-216.5M5281.2,1370.3h-99.5M5134.4,1370.3h-115.3M4971.7,1370.3h-294.6M4594.4,1370.3h-78M4376,1370.3h-119.8M4208.8,1370.3h-30.7M4131.6,1370.3h-139.4M3908.6,1370.3h-86.4M3774.8,1370.3h-84.6M5364.8,1342.5v27.8M5281.2,1370.3v-27.8M5181.7,1342.5v27.8M5134.4,1370.3v-27.8M5019.1,1342.5v27.8M4971.7,1370.3v-27.8M4677.1,1342.5v27.8M4594.4,1370.3v-27.8M4516.4,1342.5v27.8M4432.7,1370.3v-27.8M4256.2,1342.5v27.8M4208.8,1370.3v-27.8M4178.1,1342.5v27.8M4131.6,1370.3v-27.8M3992.2,1342.5v27.8M3908.6,1370.3v-27.8M3822.2,1342.5v27.8M3774.8,1370.3v-27.8M3690.2,1183.6h61.4M3799,1183.6h321.5M4167.9,1183.6H4376M4397.4,1183.6h41.8M4486.6,1183.6h490.7M5024.7,1183.6H5362M5409.4,1183.6h46.5M5455.9,1210.6h-46.5M5362,1210.6h-337.3M4977.3,1210.6h-490.7M4439.2,1210.6h-271.3M4120.5,1210.6H3799M3751.6,1210.6h-61.4M5409.4,1183.6v27M5362,1210.6v-27M5024.7,1183.6v27M4977.3,1210.6v-27M4486.6,1183.6v27M4439.2,1210.6v-27M4167.9,1183.6v27M4120.5,1210.6v-27M3799,1183.6v27M3751.6,1210.6v-27" fill-opacity="0" stroke-linejoin="round" stroke-linecap="round" stroke="#023470" stroke-width="6.504" id="path_61"/><path fill="#000000" d="M5139,838h184.9" fill-opacity="0" stroke-linejoin="round" stroke-linecap="round" stroke="#023470" stroke-width="75" id="path_62"/><path fill="#000000" d="m798.3,139.4 l19.5,56.6M829.9,229.5l19.5,56.6M860.5,317.7l19.5,56.7M892.1,407.9l18.6,54.8M905.1,464.5l-18.6,-54.8M874.5,376.3 L855,319.6M843.8,288l-19.5,-56.7M812.2,197.9l-19.5,-56.7M892.1,407.9l-5.6,1.8M874.5,376.3l5.5,-1.9M829.9,229.5l-5.6,1.8M812.2,197.9l5.6,-1.9" fill-opacity="0" stroke-linejoin="round" stroke-linecap="round" stroke="#023470" stroke-width="3.717" id="path_63"/><path fill="#000000" d="m90.1,337.2 l605,-198.8L881,77.1" fill-opacity="0" stroke-linejoin="round" stroke-linecap="round" stroke="#023470" stroke-width="75" id="path_64"/><path fill="#000000" d="M860.5,118.9 L133.8,357.7M923.7,297.3 L854,319.6 842.9,288l77.1,-26 10.2,31.6zM5610.2,1369.4V1754" fill-opacity="0" stroke-linejoin="round" stroke-linecap="round" stroke="#023470" stroke-width="6.504" id="path_65"/><path fill="#000000" d="M5581.3,1784.7v-99.4" fill-opacity="0" stroke-linejoin="round" stroke-linecap="round" stroke="#023470" stroke-width="75" id="path_66"/><path fill="#000000" d="M5581.3,1646.3v-276" fill-opacity="0" stroke-linejoin="round" stroke-linecap="round" stroke="#023470" stroke-width="6.504" id="path_67"/><path fill="#000000" d="M5831.3,1784.7h-250" fill-opacity="0" stroke-linejoin="round" stroke-linecap="round" stroke="#023470" stroke-width="75" id="path_68"/><path fill="#000000" d="M5455.9,1073.1h3.7M5473.5,1073.1h55.8M5576.7,1073.1h79.9M5678,1073.1h15.8M5779.3,1073.1h33.4M5797.9,1094.4h-18.6M5693.8,1094.4h-117.1M5529.3,1094.4h-52M5779.3,1073.1v21.3M5693.8,1094.4v-21.3M5576.7,1073.1v21.3M5529.3,1094.4v-21.3M5477.3,1332.3v10.2M5455.9,1332.3h21.4M5455.9,1342.5v-10.2" fill-opacity="0" stroke-linejoin="round" stroke-linecap="round" stroke="#023470" stroke-width="6.504" id="path_69"/><path fill="#000000" d="M5455.9,1134.4h-22.3M5395.5,1134.4h-35.3M5355.5,1134.4H5296M5296,1127.9h73.5M5373.2,1127.9h22.3M5433.6,1127.9h22.3M5433.6,1127.9v6.5M5395.5,1134.4v-6.5" fill-opacity="0" stroke-linejoin="round" stroke-linecap="round" stroke="#023470" stroke-width="3.717" id="path_70"/><path fill="#000000" d="M5477.3,1094.4v143.1h-21.4M5455.9,1127.9v6.5M5455.9,1237.5v-26.9M5455.9,1183.6v-49.2M5455.9,1127.9v-54.8M5483.8,952.3h-10.3M5280.3,952.3h179.3" fill-opacity="0" stroke-linejoin="round" stroke-linecap="round" stroke="#023470" stroke-width="6.504" id="path_71"/><path fill="#000000" d="M5323.9,923.5h150.6" fill-opacity="0" stroke-linejoin="round" stroke-linecap="round" stroke="#023470" stroke-width="75" id="path_72"/><path fill="#000000" d="M5473.5,952.3v120.8M5459.6,1073.1V952.3M5600.9,676.3l-66,155.2 -3.7,9.3 -3.8,7.4 -43.6,104.1" fill-opacity="0" stroke-linejoin="round" stroke-linecap="round" stroke="#023470" stroke-width="6.504" id="path_73"/><path fill="#000000" d="m5474.5,923.5 l34.4,-82.7 56.6,-133.8 16.8,-39" fill-opacity="0" stroke-linejoin="round" stroke-linecap="round" stroke="#023470" stroke-width="75" id="path_74"/><path fill="#000000" d="m5534.9,831.5 l188.6,81.8 -3.7,8.3 -188.6,-80.8M3861.2,1370.3v276M3847.3,1646.3v-276M4046.1,1425.2h14.9v-54.9M4061,1472.5v173.8M4061,1472.5h-14.9l1,173.8M4046.1,1425.2v-54.9M4260.8,1388h6.5M4267.3,1435.4h-6.5M4267.3,1370.3v17.7M4267.3,1435.4v13M4260.8,1448.4v-13M4260.8,1388v-17.7M4376,1453h-118.9M4209.7,1453h-3.7M4206,1448.4h3.7M4257.1,1448.4h3.7M4267.3,1448.4H4376M4257.1,1448.4v4.6M4209.7,1453v-4.6M4206,1370.3v78.1M4206,1453v193.3M4191.1,1646.3v-276" fill-opacity="0" stroke-linejoin="round" stroke-linecap="round" stroke="#023470" stroke-width="3.717" id="path_75"/><path fill="#000000" d="M4397.4,1573.8H4376M4376,1526.4h21.4v-156.1h35.3M4397.4,1573.8v72.5M4376,1448.4v4.6M4376,1646.3v-72.5M4376,1526.4V1453M4376,1448.4v-78.1" fill-opacity="0" stroke-linejoin="round" stroke-linecap="round" stroke="#023470" stroke-width="6.504" id="path_76"/><path fill="#000000" d="M4894.6,1370.3v114.3M4894.6,1531.1v115.2M4884.4,1484.6h10.2M4894.6,1531.1h-10.2v115.2M4884.4,1484.6v-114.3M5093.5,1370.3v276M5082.3,1646.3v-276M5222.6,1443.7h11.2M5233.8,1491.1h-11.2M5233.8,1370.3v73.4M5233.8,1491.1v155.2M5222.6,1646.3v-155.2M5222.6,1443.7v-73.4M5373.2,992.2v5.6M5373.2,1035.9v6.5M5373.2,1077.7v10.2M5373.2,1123.2v4.7M5369.5,1087.9h3.7M5373.2,1123.2h-3.7M5369.5,997.8h3.7M5373.2,1077.7h-3.7M5369.5,1042.4h3.7M5373.2,1035.9h-3.7M5369.5,1127.9v-4.7M5369.5,1087.9v-1.8M5369.5,1082.3v-4.6M5369.5,1042.4v-0.9M5369.5,1036.8v-0.9M5369.5,997.8v-1.9M5296,952.3v39.9M5296,995.9v40.9M5296,1041.5v40.8M5296,1086.1v41.8M5296,1134.4v49.2M5280.3,1183.6V952.3M5360.2,1134.4v6.5M5360.2,1177.1v6.5M5360.2,1177.1h-4.7M5355.5,1140.9h4.7M5355.5,1183.6v-6.5M5355.5,1140.9v-6.5M5354.6,952.3v0.9M5354.6,989.4v2.8M5349.9,953.2h4.7M5354.6,989.4h-4.7M5349.9,953.2v-0.9M5296,1036.8h73.5M5369.5,1041.5H5296M5296,1082.3h73.5M5369.5,1086.1H5296M5296,992.2h53.9M5354.6,992.2h18.6M5369.5,995.9H5296" fill-opacity="0" stroke-linejoin="round" stroke-linecap="round" stroke="#023470" stroke-width="3.717" id="path_77"/><path fill="#000000" d="M5323.9,838v85.5" fill-opacity="0" stroke-linejoin="round" stroke-linecap="round" stroke="#023470" stroke-width="75" id="path_78"/><path fill="#000000" d="M5280.3,952.3v-87.4" fill-opacity="0" stroke-linejoin="round" stroke-linecap="round" stroke="#023470" stroke-width="6.504" id="path_79"/><path fill="#000000" d="M5060,1115.8h-11.1M5048.9,1068.4h11.1M5060,864.9v203.5M5060,1115.8v67.8M5048.9,1183.6v-67.8M5048.9,1068.4V864.9M4903.9,1126.9v56.7M4891.8,1089.8h12.1M4903.9,1126.9h-12.1v56.7M4891.8,1089.8V864.9M4716.2,864.9v318.7M4702.2,1183.6V864.9M4553.5,1132.5h-13.9M4539.6,1086.1h13.9V865.6M4553.5,1132.5v51.1M4539.6,1183.6v-51.1M4539.6,1086.1V864.9" fill-opacity="0" stroke-linejoin="round" stroke-linecap="round" stroke="#023470" stroke-width="3.717" id="path_80"/><path fill="#000000" d="M4397.4,864.9v318.7M4376,1183.6V864.9" fill-opacity="0" stroke-linejoin="round" stroke-linecap="round" stroke="#023470" stroke-width="6.504" id="path_81"/><path fill="#000000" d="M3818.5,954.1h6.5M3825,1001.5h-6.5M3825,864.9v89.2M3825,1001.5v182.1M3818.5,1183.6v-182.1M3818.5,954.1v-89.2" fill-opacity="0" stroke-linejoin="round" stroke-linecap="round" stroke="#023470" stroke-width="3.717" id="path_82"/><path fill="#000000" d="m5644.5,509.1 l259.3,112.4M5947.5,640.1l212.8,92M6200.3,749.7l75.2,32.6M6264.4,805.5l-74.4,-31.6M6150.1,756.2 L5976.3,681l-9.3,-4.7 -29.7,-13M5893.6,644.8l-34.4,-14.9L5573,505.4M6200.3,749.7l-10.3,24.2M6150.1,756.2l10.2,-24.1M5947.5,640.1l-10.2,23.2M5893.6,644.8l10.2,-23.3M5491.2,594.6h0M5526.5,610.4l162.6,69.7M5732.8,699.6l87.4,37.1M5789.5,758.1l-69.7,-30.7M5677.1,708.9l-76.2,-32.6" fill-opacity="0" stroke-linejoin="round" stroke-linecap="round" stroke="#023470" stroke-width="6.504" id="path_83"/><path fill="#000000" d="m5582.3,668 l-104.1,-44.6" fill-opacity="0" stroke-linejoin="round" stroke-linecap="round" stroke="#023470" stroke-width="75" id="path_84"/><path fill="#000000" d="m5732.8,699.6 l-13,27.8M5677.1,708.9l12,-28.8" fill-opacity="0" stroke-linejoin="round" stroke-linecap="round" stroke="#023470" stroke-width="6.504" id="path_85"/><path fill="#000000" d="m5478.2,623.4 l13,-28.8" fill-opacity="0" stroke-linejoin="round" stroke-linecap="round" stroke="#023470" stroke-width="75" id="path_86"/><path fill="#000000" d="m5644.5,509.1 l26.1,-62.2 -66,-28.8 -27.9,68.7 63.2,29.8zM5754.2,92h0M5742.1,120.8l-66,148.6M5663.1,301l-52.9,119.9M5573,505.4l-1.9,3.7 -44.6,101.3" fill-opacity="0" stroke-linejoin="round" stroke-linecap="round" stroke="#023470" stroke-width="6.504" id="path_87"/><path fill="#000000" d="m5718.9,76.2 l35.3,15.8M5491.2,594.6l44.6,-101.3 183.1,-417.1" fill-opacity="0" stroke-linejoin="round" stroke-linecap="round" stroke="#023470" stroke-width="75" id="path_88"/><path fill="#000000" d="M5797.9,1369.4h-59.5M5667.8,1369.4h-57.6M5600.9,1342.5h66.9M5738.4,1342.5h59.5M5738.4,1342.5v26.9M5667.8,1369.4v-26.9" fill-opacity="0" stroke-linejoin="round" stroke-linecap="round" stroke="#023470" stroke-width="6.504" id="path_89"/><path fill="#000000" d="M5831.3,1080.5v704.2" fill-opacity="0" stroke-linejoin="round" stroke-linecap="round" stroke="#023470" stroke-width="75" id="path_90"/><path fill="#000000" d="M5797.9,1754v-384.6M5797.9,1342.5v-248.1M5742.1,921.6h0M5723.5,913.3l3.7,1.8M5742.1,921.6l-64.1,151.5M5656.6,1073.1l66.9,-159.8" fill-opacity="0" stroke-linejoin="round" stroke-linecap="round" stroke="#023470" stroke-width="6.504" id="path_91"/><path fill="#000000" d="m5943.8,825 l-112.5,255.5" fill-opacity="0" stroke-linejoin="round" stroke-linecap="round" stroke="#023470" stroke-width="75" id="path_92"/><path fill="#000000" d="m5812.7,1073.1 l112.5,-256.5M5812.7,1073.1h0M5760.7,878.9l-18.6,42.7M5727.2,915.1l18.6,-42.7M5820.2,736.7l-59.5,142.2M5742.1,870.5l47.4,-112.4M5760.7,878.9h0M5745.8,872.4l-3.7,-1.9" fill-opacity="0" stroke-linejoin="round" stroke-linecap="round" stroke="#023470" stroke-width="6.504" id="path_93"/><path fill="#000000" d="m5865.7,632.7 l-13,30.6M5833.2,706.1l-13,30.6M5812.7,733.9l14,-30.6M5846.2,660.6l13,-30.7M5846.2,660.6l6.5,2.7M5833.2,706.1l-6.5,-2.8M5820.2,736.7l-7.5,-2.8" fill-opacity="0" stroke-linejoin="round" stroke-linecap="round" stroke="#023470" stroke-width="3.717" id="path_94"/><path fill="#000000" d="m5910.3,776.7 l10.2,4.6 10.3,3.7M5925.2,816.6l-27,-12 12.1,-27.9" fill-opacity="0" stroke-linejoin="round" stroke-linecap="round" stroke="#023470" stroke-width="6.504" id="path_95"/><path fill="#000000" d="m5976.3,681 l-45.5,104M5920.5,781.3l46.5,-105" fill-opacity="0" stroke-linejoin="round" stroke-linecap="round" stroke="#023470" stroke-width="3.717" id="path_96"/><path fill="#000000" d="m6481.8,406.9 l-211.9,482.2 -28.8,65" fill-opacity="0" stroke-linejoin="round" stroke-linecap="round" stroke="#023470" stroke-width="75" id="path_97"/><path fill="#000000" d="M6206.8,939.3v-1M6218.8,910.5l45.6,-105M6275.5,782.3l158.9,-361.4" fill-opacity="0" stroke-linejoin="round" stroke-linecap="round" stroke="#023470" stroke-width="6.504" id="path_98"/><path fill="#000000" d="M6241.1,954.1 L5943.8,825" fill-opacity="0" stroke-linejoin="round" stroke-linecap="round" stroke="#023470" stroke-width="75" id="path_99"/><path fill="#000000" d="m5721.7,326.1 l13.9,-30.7 -67.8,-29.7 -14.9,33.5 9.3,1.8z" fill-opacity="0" stroke-linejoin="round" stroke-linecap="round" stroke="#023470" stroke-width="6.504" id="path_100"/><path fill="#000000" d="M5754.2,92 L6374,360.5l107.8,46.4" fill-opacity="0" stroke-linejoin="round" stroke-linecap="round" stroke="#023470" stroke-width="75" id="path_101"/><path fill="#000000" d="m6434.4,420.9 l-692.3,-300.1" fill-opacity="0" stroke-linejoin="round" stroke-linecap="round" stroke="#023470" stroke-width="6.504" id="path_102"/><path fill="#000000" d="M3620.5,3606.6h3.7M3575,3606.6h-3.7M3518.3,3606.6v27.8M3628,2162.8h26.9" fill-opacity="0" stroke-linejoin="round" stroke-linecap="round" stroke="#023470" stroke-width="3.717" id="path_103"/><path fill="#000000" d="m721.1,1096.3 l-110.6,-302" fill-opacity="0" stroke-linejoin="round" stroke-linecap="round" stroke="#023470" stroke-width="75" id="path_104"/><path fill="#000000" d="m1281.5,868.7 l3998.8,-3.8" fill-opacity="0" stroke-linejoin="round" stroke-linecap="round" stroke="#023470" stroke-width="6.504" id="path_105"/><path fill="#000000" d="M4903.9,1089.8V864.9" fill-opacity="0" stroke-linejoin="round" stroke-linecap="round" stroke="#023470" stroke-width="3.717" id="path_106"/><path fill="#000000" d="m6218.8,910.5 l-288,-125.5M5797.9,1754h-187.7" fill-opacity="0" stroke-linejoin="round" stroke-linecap="round" stroke="#023470" stroke-width="6.504" id="path_107"/></svg>