<svg id="vector" xmlns="http://www.w3.org/2000/svg" width="1920" height="1080" viewBox="0 0 1920 1080"><path fill="#000000" d="M1381.8,491.6h-31.2M1350.6,443.9h31.2M702.3,492.4v36.8M660.2,529.2v-36.8M1289.6,492.4v36.8M1244.6,529.2v-36.8M615.2,492.4h-29M586.2,454h29M715.4,218.9h-42.8M672.6,218.9v-14.2M715.4,204.7v14.2M715.4,218.9h-42.8M672.6,204.7V198M715.4,198h-42.8M715.4,198v6.7M715.4,204.7h-42.8M715.4,183.8h-42.8M672.6,198v-14.2M715.4,183.8V198M715.4,183.8h-42.8M695.1,399.6v5.8M658.1,405.4v-5.8M831.6,218.9h-48.7M782.9,218.9v-14.2M831.6,204.7v14.2M831.6,218.9h-48.7M782.9,204.7V198M831.6,198h-48.7M831.6,198v6.7M831.6,204.7h-48.7M831.6,183.8h-48.7M782.9,198v-14.2M831.6,183.8V198M831.6,183.8h-48.7M945.5,218.9h-45.7M899.8,218.9v-14.2M945.5,204.7v14.2M945.5,218.9h-45.7M899.8,204.7V198M945.5,198h-45.7M945.5,198v6.7M945.5,204.7h-45.7M945.5,183.8h-45.7M899.8,198v-14.2M945.5,183.8V198M945.5,183.8h-45.7M1027.6,183.8h40.6M1068.2,183.8v15M1027.6,198.8v-15M1027.6,183.8h40.6M1068.2,198.8v6.7M1027.6,205.5h40.6M1027.6,205.5v-6.7M1027.6,198.8h40.6M1027.6,218.9h40.6M1068.2,205.5v13.4M1027.6,218.9v-13.4M1027.6,218.9h40.6M1142.3,183.8h40.6M1182.9,183.8v15M1142.3,198.8v-15M1142.3,183.8h40.6M1182.9,198.8v6.7M1142.3,205.5h40.6M1142.3,205.5v-6.7M1142.3,198.8h40.6M1142.3,218.9h40.6M1182.9,205.5v13.4M1142.3,218.9v-13.4M1142.3,218.9h40.6M1265,183.8h40.6M1305.6,183.8v15M1265,198.8v-15M1265,183.8h40.6M1305.6,198.8v6.7M1265,205.5h40.6M1265,205.5v-6.7M1265,198.8h40.6M1265,218.9h40.6M1305.6,205.5v13.4M1265,218.9v-13.4M1265,218.9h40.6M1107.4,402.1v5.8M1070.4,407.9v-5.8M994.9,486.6H968M968,419.7h26.9M715.4,837h-42.8M672.6,837v-14.2M715.4,822.8V837M715.4,837h-42.8M672.6,822.8V817M715.4,817h-42.8M715.4,817v5.8M715.4,822.8h-42.8M715.4,803.6h-42.8M672.6,817v-13.4M715.4,803.6V817M715.4,803.6h-42.8M1305.6,837h-45M1260.6,837v-14.2M1305.6,822.8V837M1305.6,837h-45M1260.6,822.8V817M1305.6,817h-45M1305.6,817v5.8M1305.6,822.8h-45M1305.6,803.6h-45M1260.6,817v-13.4M1305.6,803.6V817M1305.6,803.6h-45M1182.9,837h-45M1137.9,837v-14.2M1182.9,822.8V837M1182.9,837h-45M1137.9,822.8V817M1182.9,817h-45M1182.9,817v5.8M1182.9,822.8h-45M1182.9,803.6h-45M1137.9,817v-13.4M1182.9,803.6V817M1182.9,803.6h-45M1068.2,837h-45M1023.2,837v-14.2M1068.2,822.8V837M1068.2,837h-45M1023.2,822.8V817M1068.2,817h-45M1068.2,817v5.8M1068.2,822.8h-45M1068.2,803.6h-45M1023.2,817v-13.4M1068.2,803.6V817M1068.2,803.6h-45M945.5,837h-45M900.5,837v-14.2M945.5,822.8V837M945.5,837h-45M900.5,822.8V817M945.5,817h-45M945.5,817v5.8M945.5,822.8h-45M945.5,803.6h-45M900.5,817v-13.4M945.5,803.6V817M945.5,803.6h-45M831.6,837h-48.7M782.9,837v-14.2M831.6,822.8V837M831.6,837h-48.7M782.9,822.8V817M831.6,817h-48.7M831.6,817v5.8M831.6,822.8h-48.7M831.6,803.6h-48.7M782.9,817v-13.4M831.6,803.6V817M831.6,803.6h-48.7M547.7,406.3v38.4M510.7,444.7v-38.4M555.7,114.4h-49.4M506.3,114.4v-12.6M555.7,101.8v12.6M555.7,114.4h-49.4M506.3,101.8v-5M555.7,96.8h-49.4M555.7,96.8v5M555.7,101.8h-49.4M555.7,85.1h-49.4M506.3,96.8V85.1M555.7,85.1v11.7M555.7,85.1h-49.4M547.7,576.1v34.3M510.7,610.4v-34.3M555.7,935.7h-48.6M507.1,935.7v-13.3M555.7,922.4v13.3M555.7,935.7h-48.6M507.1,922.4v-6.7M555.7,915.7h-48.6M555.7,915.7v6.7M555.7,922.4h-48.6M555.7,902.3h-48.6M507.1,915.7v-13.4M555.7,902.3v13.4M555.7,902.3h-48.6M221.7,736.7v-46.9M221.7,689.8h11.7M233.4,736.7h-11.7M221.7,736.7v-46.9M233.4,689.8h5.8M239.2,736.7v-46.9M239.2,736.7h-5.8M233.4,736.7v-46.9M250.8,736.7v-46.9M239.2,689.8h11.6M250.8,736.7h-11.6M250.8,736.7v-46.9M221.7,806.9v-46.8M221.7,760.1h11.7M233.4,806.9h-11.7M221.7,806.9v-46.8M233.4,760.1h5.8M239.2,806.9v-46.8M239.2,806.9h-5.8M233.4,806.9v-46.8M250.8,806.9v-46.8M239.2,760.1h11.6M250.8,806.9h-11.6M250.8,806.9v-46.8M224.7,340.2v-49.4M224.7,290.8h11.6M236.3,340.2h-11.6M224.7,340.2v-49.4M236.3,290.8h5.8M242.1,340.2v-49.4M242.1,340.2h-5.8M236.3,340.2v-49.4M253.7,340.2v-49.4M242.1,290.8h11.6M253.7,340.2h-11.6M253.7,340.2v-49.4M224.7,267.4v-49.3M224.7,218.1h11.6M236.3,267.4h-11.6M224.7,267.4v-49.3M236.3,218.1h5.8M242.1,267.4v-49.3M242.1,267.4h-5.8M236.3,267.4v-49.3M253.7,267.4v-49.3M242.1,218.1h11.6M253.7,267.4h-11.6M253.7,267.4v-49.3M178.2,537.6v-56M178.2,481.6h13.1M191.3,537.6h-13.1M178.2,537.6v-56M191.3,481.6h5.8M197.1,537.6v-56M197.1,537.6h-5.8M191.3,537.6v-56M209.4,537.6v-56M197.1,481.6h12.3M209.4,537.6h-12.3M209.4,537.6v-56M1546.6,837v5.1M1522,842.1V837M1587.3,819.5v6.7M1562.6,826.2v-6.7M1629.4,819.5v6.7M1605.4,826.2v-6.7M1674.4,819.5v6.7M1649.7,826.2v-6.7M1513.2,683.1h-29M1484.2,640.5h29M1715.8,837v5.1M1691.1,842.1V837M1720.9,809.4v-51M1720.9,758.4h10.9M1731.8,809.4h-10.9M1720.9,809.4v-51M1731.8,758.4h5M1736.8,809.4v-51M1736.8,809.4h-5M1731.8,809.4v-51M1747,809.4v-51M1736.8,758.4h10.2M1747,809.4h-10.2M1747,809.4v-51M1720.9,736.7v-51.9M1720.9,684.8h10.9M1731.8,736.7h-10.9M1720.9,736.7v-51.9M1731.8,684.8h5M1736.8,736.7v-51.9M1736.8,736.7h-5M1731.8,736.7v-51.9M1747,736.7v-51.9M1736.8,684.8h10.2M1747,736.7h-10.2M1747,736.7v-51.9M1513.2,389.5h-26.1M1487.1,353.6h26.1M1426.1,443.9v-38.5M1467.5,405.4v38.5M1410.9,85.1h49.3M1460.2,85.1v11.7M1410.9,96.8V85.1M1410.9,85.1h49.3M1460.2,96.8v5.8M1410.9,102.6h49.3M1410.9,102.6v-5.8M1410.9,96.8h49.3M1410.9,114.4h49.3M1460.2,102.6v11.8M1410.9,114.4v-11.8M1410.9,114.4h49.3M1463.9,336.8v5.1M1433.4,341.9v-5.1M1747.7,217.2v49.4M1747.7,266.6h-11.6M1736.1,217.2h11.6M1747.7,217.2v49.4M1736.1,266.6h-5.1M1731,217.2v49.4M1731,217.2h5.1M1736.1,217.2v49.4M1720.9,217.2v49.4M1731,266.6h-10.1M1720.9,217.2h10.1M1720.9,217.2v49.4M1747.7,290v49.4M1747.7,339.4h-11.6M1736.1,290h11.6M1747.7,290v49.4M1736.1,339.4h-5.1M1731,290v49.4M1731,290h5.1M1736.1,290v49.4M1720.9,290v49.4M1731,339.4h-10.1M1720.9,290h10.1M1720.9,290v49.4M1410.2,612v-35.9M1451.5,576.1V612M1790.6,482.4v56M1790.6,538.4h-12.4M1778.2,482.4h12.4M1790.6,482.4v56M1778.2,538.4h-5.8M1772.4,482.4v56M1772.4,482.4h5.8M1778.2,482.4v56M1761.5,482.4v56M1772.4,538.4h-10.9M1761.5,482.4h10.9M1761.5,482.4v56M1422.5,709.1V704M1453,704v5.1M1484.2,806.1v-23.4M1484.2,834.5v-23.4M1484.2,864.6v-23.4M1459.5,935.7H1400M1400,935.7v-13.3M1459.5,922.4v13.3M1459.5,935.7H1400M1400,922.4v-6.7M1459.5,915.7H1400M1459.5,915.7v6.7M1459.5,922.4H1400M1459.5,902.3H1400M1400,915.7v-13.4M1459.5,902.3v13.4M1459.5,902.3H1400M1498,443.9h159.7v62.7H1498v-62.7M1498,475.7h159.7M1510.3,443.9v62.7M1522.7,443.9v62.7M1535,443.9v62.7M1547.4,443.9v62.7M1559,443.9v62.7M1571.3,443.9v62.7M1583.7,443.9v62.7M1596,443.9v62.7M1608.3,443.9v62.7M1620.7,443.9v62.7M1633,443.9v62.7M1645.4,443.9v62.7" fill-opacity="0" stroke-linejoin="round" stroke-linecap="round" stroke="#023470" stroke-width="3" id="path_0"/><path fill="#000000" d="m1645.4,479 l12.3,-3.3 -12.3,-4.2M470,506.6H310.3v-61H470v61M470,476.5H310.3M457.7,506.6v-61M445.3,506.6v-61M433,506.6v-61M420.7,506.6v-61M408.3,506.6v-61M396,506.6v-61M383.6,506.6v-61M371.3,506.6v-61M359,506.6v-61M347.3,506.6v-61M335,506.6v-61M322.7,506.6v-61" fill-opacity="0" stroke-linejoin="round" stroke-linecap="round" stroke="#023470" stroke-width="3" id="path_1"/><path fill="#000000" d="m321.9,472.4 l-11.6,4.1 11.6,3.4M310.3,511.7H470v64.4H310.3v-64.4M310.3,544.3H470M322.7,511.7v64.4M335,511.7v64.4M347.3,511.7v64.4M359,511.7v64.4M371.3,511.7v64.4M383.6,511.7v64.4M396,511.7v64.4M408.3,511.7v64.4M420.7,511.7v64.4M433,511.7v64.4M445.3,511.7v64.4M457.7,511.7v64.4M470,511.7v64.4" fill-opacity="0" stroke-linejoin="round" stroke-linecap="round" stroke="#023470" stroke-width="3" id="path_2"/><path fill="#000000" d="m457.7,547.6 l12.3,-3.3 -12.3,-4.2M1657.7,576.1H1498v-65.3h159.7v65.3M1657.7,543.5H1498M1645.4,576.1v-65.3M1633,576.1v-65.3M1620.7,576.1v-65.3M1608.3,576.1v-65.3M1596,576.1v-65.3M1583.7,576.1v-65.3M1571.3,576.1v-65.3M1559,576.1v-65.3M1547.4,576.1v-65.3M1535,576.1v-65.3M1522.7,576.1v-65.3M1510.3,576.1v-65.3" fill-opacity="0" stroke-linejoin="round" stroke-linecap="round" stroke="#023470" stroke-width="3" id="path_3"/><path fill="#000000" d="m1509.6,540.1 l-11.6,3.4 11.6,4.1M1790.6,612H1747M1720.9,612h-207.7M1484.2,612h-32.7M1410.2,612h-30.5M1381.8,576.1h28.4M1451.5,612v-35.9h310M1410.2,612v-35.9M1346.3,612v-35.9M1522,935.7h-62.5M1400,935.7h-55.9M1379.7,902.3h20.3M1459.5,902.3h24.7M1522,915.7v20M1459.5,922.4v13.3M1459.5,902.3v20.1M1400,935.7v-33.4M1381.8,114.4v291M1350.6,492.4v-0.8h31.2v84.5M1350.6,443.9v-225M1350.6,183.8V85.1M615.2,183.8h57.4M715.4,183.8h67.5M831.6,183.8h68.2M945.5,183.8h82.1M1068.2,183.8h74.1M1182.9,183.8h82.1M1305.6,183.8h45M1350.6,218.9h-45M1265,218.9h-82.1M1142.3,218.9h-74.1M1027.6,218.9h-32.7M968,218.9h-22.5M899.8,218.9h-68.2M782.9,218.9h-67.5M672.6,218.9h-57.4M1305.6,183.8v35.1M1265,218.9v-35.1M1182.9,183.8v35.1M1142.3,218.9v-35.1M1068.2,183.8v35.1M1027.6,218.9v-35.1M945.5,183.8V218.9M899.8,218.9V183.8M831.6,183.8V218.9M782.9,218.9V183.8M715.4,204.7v14.2M715.4,183.8v20.9M672.6,218.9V183.8M994.9,402.1h75.5M1107.4,402.1h243.2M1350.6,407.9h-243.2M1070.4,407.9h-75.5M1107.4,402.1v5.8M1070.4,407.9v-5.8M1381.8,405.4h44.3M1467.5,405.4h19.6M1513.2,405.4h207.7M1747.7,405.4h42.9M1761.5,443.9h-294M1426.1,443.9h-75.5M1467.5,405.4v38.5M1426.1,443.9v-38.5M1350.6,443.9v-38.5M1522,85.1v18.4M1350.6,85.1h60.3M1460.2,85.1h61.8M1487.1,114.4h-26.9M1410.9,114.4h-29.1M1460.2,114.4v-5.1M1460.2,85.1v24.2M1410.9,102.6V85.1M1410.9,114.4v-11.8M1381.8,336.8h51.6M1463.9,336.8h23.2M1487.1,341.9h-23.2M1433.4,341.9h-51.6M1463.9,336.8v5.1M1433.4,341.9v-5.1M1379.7,612v225M1346.3,803.6V529.2M702.3,492.4H968M994.9,492.4h249.7M1289.6,492.4h61M1346.3,529.2h-56.7M1244.6,529.2H702.3M1289.6,492.4v36.8M1244.6,529.2v-36.8M702.3,492.4v36.8M660.2,529.2v-36.8h-24.7M615.2,492.4h20.3M660.2,529.2h-45M586.2,454h29M586.2,492.4h29M615.2,85.1v98.7M615.2,218.9V454M615.2,529.2v274.4M615.2,837v98.7M586.2,902.3V610.4M586.2,576.1v-83.7M586.2,454v-9.3M586.2,406.3V114.4M615.2,399.6h42.9M695.1,399.6H968M968,405.4H695.1M658.1,405.4h-42.9M695.1,399.6v5.8M658.1,405.4v-5.8M586.2,444.7h-38.5M510.7,444.7H209.4M178.2,406.3h46.5M253.7,406.3h257M547.7,444.7v-38.4h38.5M510.7,444.7v-38.4M178.2,444.7v-38.4M451.2,85.1h55.1M555.7,85.1h59.5M586.2,114.4h-30.5M506.3,114.4h-23.9M555.7,85.1v11.7M555.7,96.8v17.6M506.3,114.4V85.1M451.2,104.3V85.1M968,419.7h26.9M994.9,486.6H968M994.9,218.9v200.8M994.9,486.6v5.8M968,492.4v-5.8M968,419.7V218.9M586.2,610.4h-38.5M510.7,610.4H250.8M221.7,610.4h-34.1M209.4,576.1h301.3M547.7,610.4v-34.3h38.5M510.7,610.4v-34.3M1484.2,709.1H1453M1422.5,709.1h-42.8M1379.7,704h42.8M1453,709.1V704h31.2M1422.5,709.1V704M1344.1,837h-38.5M1260.6,837h-77.7M1137.9,837h-69.7M1023.2,837h-77.7M900.5,837h-68.9M782.9,837h-67.5M672.6,837h-57.4M615.2,803.6h57.4M715.4,803.6h67.5M831.6,803.6h68.9M945.5,803.6h77.7M1068.2,803.6h69.7M1182.9,803.6h77.7M1305.6,803.6h40.7M1305.6,803.6V837M1260.6,837v-33.4M1182.9,822.8V837M1182.9,803.6v19.2M1137.9,837v-33.4M1068.2,803.6V837M1023.2,837v-33.4M945.5,803.6V837M900.5,837v-33.4M831.6,803.6V817M831.6,817v20M782.9,837v-33.4M715.4,803.6V837M672.6,837v-33.4M1379.7,812.8v89.5M1344.1,935.7V837M615.2,935.7h-59.5M507.1,935.7h-55.9M483.8,902.3h23.3M555.7,935.7v-33.4h30.5M507.1,935.7v-33.4M451.2,935.7v-19.2H221.7M250.8,883.1h233v19.2M482.4,114.4v22.5M224.7,104.3h226.5M482.4,136.9H253.7M221.7,689.8h29.1M250.8,736.7H221.7M239.2,760.1h11.6M250.8,806.9h-11.6M221.7,760.1h17.5M239.2,806.9h-17.5M250.8,610.4v79.4M250.8,736.7v23.4M250.8,806.9v76.2M221.7,916.5V806.9M221.7,760.1v-23.4M221.7,689.8v-79.4M253.7,136.9v81.2M253.7,267.4v23.4M253.7,340.2v66.1M224.7,290.8h29M253.7,340.2h-29M224.7,218.1h29M253.7,267.4h-29M224.7,406.3v-66.1M224.7,290.8v-23.4M224.7,218.1V104.3M209.4,610.4h-21.8M209.4,537.6H178.2M187.6,610.4h-9.4M209.4,444.7v36.9M209.4,537.6v38.5M178.2,481.6h31.2M178.2,610.4v-72.8M178.2,481.6v-54.4M1600.4,826.2v56M1593.1,882.2v-56M1644.6,826.2v56M1637.4,882.2v-56M1556.1,826.2v56M1549.5,882.2v-40.1M1549.5,837v-17.5h13.1M1587.3,819.5h18.1M1629.4,819.5h20.3M1674.4,819.5h14.5M1681.7,826.2h-7.3M1649.7,826.2h-5.1M1637.4,826.2h-8M1605.4,826.2h-5M1593.1,826.2h-5.8M1562.6,826.2h-6.5M1674.4,819.5v6.7M1649.7,826.2v-6.7M1629.4,819.5v6.7M1605.4,826.2v-6.7M1587.3,819.5v6.7M1562.6,826.2v-6.7M1688.9,819.5V837M1688.9,842.1v40.1M1681.7,882.2v-56M1549.5,842.1h-2.9M1522,842.1h-3.7M1513.1,837h8.9M1546.6,842.1V837h2.9M1522,842.1V837M1688.9,837h2.2M1715.8,837h4.9M1720.7,842.1h-4.9M1691.1,842.1h-2.2M1715.8,837v5.1M1691.1,842.1V837M1747,915.7h-225M1513.2,882.2H1720.9M1518.3,842.1v40.1M1511.1,683.1h2.1M1513.2,640.5h-2.1M1511.1,683.1h-26.9M1513.2,612v28.5M1513.2,683.1v199.1M1484.2,640.5h26.9M1484.2,902.3V683.1M1484.2,640.5V612M1747,809.4h-10.2M1736.8,758.4h10.2M1720.9,758.4h15.9M1736.8,809.4h-15.9M1720.9,684.8h26.1M1747,736.7H1720.9M1747,612v72.8M1747,736.7v21.7M1747,809.4v106.3M1720.9,882.2v-72.8M1720.9,758.4v-21.7M1720.9,684.8V612M1790.6,405.4v77M1761.5,538.4h29.1V612M1778.2,482.4h12.4M1761.5,482.4h16.7M1761.5,576.1v-37.7M1761.5,482.4v-38.5M1487.1,353.6h26.1M1513.2,389.5h-26.1M1513.2,131.9v221.7M1513.2,389.5v15.9M1487.1,405.4v-15.9M1487.1,353.6V114.4M1736.1,290h11.6M1736.1,217.2h11.6M1747.7,266.6h-11.6M1747.7,339.4H1720.9M1720.9,290h15.2M1720.9,217.2h15.2M1736.1,266.6h-15.2M1747.7,103.5v113.7M1747.7,266.6V290M1747.7,339.4v66M1720.9,405.4v-66M1720.9,290v-23.4M1720.9,217.2v-85.3M1522,103.5h225.7M1720.9,131.9h-207.7M254.4,740.9h2.2" fill-opacity="0" stroke-linejoin="round" stroke-linecap="round" stroke="#023470" stroke-width="3" id="path_4"/><path fill="#000000" d="M1747.9,921.5h-225.3v21.1h-178.3V841.7H624.5v100.9H450.3v-20.2H220.8V617.8h-43.7V406.5h46.2V100.9h227V81.7h174.2v99.9h723.1V80.7h175v19.2h226.1v305.6h43v212.3h-43.8z" fill-opacity="0" stroke-linejoin="round" stroke-linecap="round" stroke="#023470" stroke-width="30" id="path_5"/></svg>