<svg id="vector" xmlns="http://www.w3.org/2000/svg" width="1920" height="1080" viewBox="0 0 1920 1080"><path fill="#000000" d="M1497.4,441.5h160.1M1546.9,504h-49.5v-62.5M1497.4,472.3h104.8M1513.9,441.5V504M1530.4,441.5V504M1546.9,441.5V504M1563.4,441.5v53.8M1579.1,441.5v44.2M1595.6,441.5v34.6M1612.1,441.5v25M1628.6,441.5v16.3M1645.1,441.5v6.7M1579.9,478l15.7,-5.7 -15.7,-4.8M1657.5,441.5l-102.3,57.7M468,504.9h-48.7M308.7,442.5H468v62.4M468,473.2H364M451.5,504.9v-62.4M435,504.9v-62.4M419.3,504.9v-62.4M402.8,495.3v-52.8M386.3,486.7v-44.2M369.8,477.1v-34.6M353.3,468.4v-25.9M336.8,458.8v-16.3M320.3,449.2v-6.7" fill-opacity="0" stroke-linejoin="round" stroke-linecap="round" stroke="#023470" stroke-width="3" id="path_0"/><path fill="#000000" d="m402,468.4 l-15.7,4.8L402,479M414.4,502l-105.7,-59.5M367.3,502v-8.6M367.3,483.8v-7.7M1470.1,899.8h-5.7M1456.1,899.8h-4.1M1443.7,899.8h-4.1M1431.3,899.8h-4.1M1419,899.8h-4.2M1406.6,899.8h-4.2M1394.2,899.8h-5.8M276.5,499.2l-2.5,1.9M258.4,479l1.6,-1.9M274,501.1h0M257.5,479.9l0.9,-0.9M274,501.1l-1.6,1.9M255.9,480.9l16.5,22.1M255.9,480.9l1.6,-1M255.9,480.9l16.5,22.1M257.5,479l16.5,22.1M281.5,508.8v-2.9M298,508.8h-16.5M298,505.9v2.9M298,508.8h-16.5M281.5,505.9v-1M298,504.9v1M281.5,504.9V502M298,502h-16.5M298,502v2.9M298,502h-16.5M298,504.9h-16.5M306.2,502h30.6M336.8,502v6.8M306.2,508.8V502M306.2,502h30.6M306.2,508.8h30.6M306.2,508.8h30.6M623.2,490.5h-36.3M586.9,451.1h36.3M546.4,403.1v39.4M509.3,442.5v-39.4M175.8,536.6V479M175.8,479h36.3M212.1,536.6h-36.3M175.8,536.6V479M212.1,536.6V479M212.1,536.6V479M714,838.3h-42.9M671.1,838.3V822M714,822v16.3M714,838.3h-42.9M671.1,822v-8.6M714,813.4h-42.9M714,813.4v8.6M714,822h-42.9M714,798h-42.9M671.1,813.4V798M714,798v15.4M714,798h-42.9M586.9,527h36.3M623.2,575.1h-36.3M714,218.6h-42.9M671.1,218.6v-17.3M714,201.3v17.3M714,218.6h-42.9M671.1,201.3v-7.7M714,193.6h-42.9M714,193.6v7.7M714,201.3h-42.9M714,178.2h-42.9M671.1,193.6v-15.4M714,178.2v15.4M714,178.2h-42.9M572.9,614.5h-20.7M484.5,849.9h-4.1M480.4,814.3h4.1M449,628.9h35.5M484.5,672.1H449M496.1,679.8V675M527.5,675v4.8M546.4,575.1v39.4M509.3,614.5v-39.4M509.3,614.5h37.1M554.7,939.2h-49.5M505.2,939.2v-16.3M554.7,922.9v16.3M554.7,939.2h-49.5M505.2,922.9v-7.7M554.7,915.2h-49.5M554.7,915.2v7.7M554.7,922.9h-49.5M554.7,900.8h-49.5M505.2,915.2v-14.4M554.7,900.8v14.4M554.7,900.8h-49.5M407.8,760.5v-5.7M439.1,754.8v5.7M219.6,737.5v-47.1M219.6,690.4h14M233.6,737.5h-14M219.6,737.5v-47.1M233.6,690.4h6.6M240.2,737.5v-47.1M240.2,737.5h-6.6M233.6,737.5v-47.1M253.4,737.5v-47.1M240.2,690.4h13.2M253.4,737.5h-13.2M253.4,737.5v-47.1M219.6,808.6v-47.1M219.6,761.5h14M233.6,808.6h-14M219.6,808.6v-47.1M233.6,761.5h6.6M240.2,808.6v-47.1M240.2,808.6h-6.6M233.6,808.6v-47.1M253.4,808.6v-47.1M240.2,761.5h13.2M253.4,808.6h-13.2M253.4,808.6v-47.1M554.7,117.7h-49.5M505.2,117.7v-16.3M554.7,101.4v16.3M554.7,117.7h-49.5M505.2,101.4v-7.7M554.7,93.7h-49.5M554.7,93.7v7.7M554.7,101.4h-49.5M554.7,78.3h-49.5M505.2,93.7V78.3M554.7,78.3v15.4M554.7,78.3h-49.5M222,335.8v-49.9M222,285.9h14.9M236.9,335.8H222M222,335.8v-49.9M236.9,285.9h6.6M243.5,335.8v-49.9M243.5,335.8h-6.6M236.9,335.8v-49.9M256.7,335.8v-49.9M243.5,285.9h13.2M256.7,335.8h-13.2M256.7,335.8v-49.9M222,261.8v-49.9M222,211.9h14.9M236.9,261.8H222M222,261.8v-49.9M236.9,211.9h6.6M243.5,261.8v-49.9M243.5,261.8h-6.6M236.9,261.8v-49.9M256.7,261.8v-49.9M243.5,211.9h13.2M256.7,261.8h-13.2M256.7,261.8v-49.9M796.6,614.5v-6.8M827.1,607.7v6.8M1187.8,607.7v6.8M1157.3,614.5v-6.8M1102,666.4h10.7M1112.7,702.9H1102M1305,838.3h-45.4M1259.6,838.3V822M1305,822v16.3M1305,838.3h-45.4M1259.6,822v-8.6M1305,813.4h-45.4M1305,813.4v8.6M1305,822h-45.4M1305,798h-45.4M1259.6,813.4V798M1305,798v15.4M1305,798h-45.4M1182,838.3h-44.5M1137.5,838.3V822M1182,822v16.3M1182,838.3h-44.5M1137.5,822v-8.6M1182,813.4h-44.5M1182,813.4v8.6M1182,822h-44.5M1182,798h-44.5M1137.5,813.4V798M1182,798v15.4M1182,798h-44.5M1067.3,838.3h-44.6M1022.7,838.3V822M1067.3,822v16.3M1067.3,838.3h-44.6M1022.7,822v-8.6M1067.3,813.4h-44.6M1067.3,813.4v8.6M1067.3,822h-44.6M1067.3,798h-44.6M1022.7,813.4V798M1067.3,798v15.4M1067.3,798h-44.6M944.3,838.3h-44.6M899.7,838.3V822M944.3,822v16.3M944.3,838.3h-44.6M899.7,822v-8.6M944.3,813.4h-44.6M944.3,813.4v8.6M944.3,822h-44.6M944.3,798h-44.6M899.7,813.4V798M944.3,798v15.4M944.3,798h-44.6M830.4,838.3h-48.7M781.7,838.3V822M830.4,822v16.3M830.4,838.3h-48.7M781.7,822v-8.6M830.4,813.4h-48.7M830.4,813.4v8.6M830.4,822h-48.7M830.4,798h-48.7M781.7,813.4V798M830.4,798v15.4M830.4,798h-48.7M1346.3,430v-24M1234.9,433.8h-5.8M1229.1,470.3h5.8M974.9,337.7h27.2M1002.1,337.7v-42.2h-27.2v42.2M1381,574.1h-34.7M1346.3,527h34.7M1271.2,527v-36.5M1311.6,490.5V527M856,527v-36.5M889.8,490.5V527M830.4,218.6h-48.7M781.7,218.6v-17.3M830.4,201.3v17.3M830.4,218.6h-48.7M781.7,201.3v-7.7M830.4,193.6h-48.7M830.4,193.6v7.7M830.4,201.3h-48.7M830.4,178.2h-48.7M781.7,193.6v-15.4M830.4,178.2v15.4M830.4,178.2h-48.7M944.3,218.6h-45.4M898.9,218.6v-17.3M944.3,201.3v17.3M944.3,218.6h-45.4M898.9,201.3v-7.7M944.3,193.6h-45.4M944.3,193.6v7.7M944.3,201.3h-45.4M944.3,178.2h-45.4M898.9,193.6v-15.4M944.3,178.2v15.4M944.3,178.2h-45.4M1026.9,178.2h40.4M1067.3,178.2v16.4M1026.9,194.6v-16.4M1026.9,178.2h40.4M1067.3,194.6v8.6M1026.9,203.2h40.4M1026.9,203.2v-8.6M1026.9,194.6h40.4M1026.9,218.6h40.4M1067.3,203.2v15.4M1026.9,218.6v-15.4M1026.9,218.6h40.4M1141.6,178.2h40.4M1182,178.2v16.4M1141.6,194.6v-16.4M1141.6,178.2h40.4M1182,194.6v8.6M1141.6,203.2h40.4M1141.6,203.2v-8.6M1141.6,194.6h40.4M1141.6,218.6h40.4M1182,203.2v15.4M1141.6,218.6v-15.4M1141.6,218.6h40.4M1263.8,178.2h41.2M1305,178.2v16.4M1263.8,194.6v-16.4M1263.8,178.2h41.2M1305,194.6v8.6M1263.8,203.2h41.2M1263.8,203.2v-8.6M1263.8,194.6h41.2M1263.8,218.6h41.2M1305,203.2v15.4M1263.8,218.6v-15.4M1263.8,218.6h41.2M1085.5,522.2v-31.7M1085.5,490.5h-42.1v31.7h42.1M1180.4,522.2v-31.7M1180.4,490.5h-42.1v31.7h42.1M1409.9,614.5v-39.4M1451.1,575.1v39.4M1400.8,643.3l4.1,-3.9M1424.7,667.3l-4.1,3.9M1515.5,682.7h-28.9M1486.6,640.4h28.9M1715.3,736.5v-51.9M1715.3,684.6h13.2M1728.5,736.5h-13.2M1715.3,736.5v-51.9M1728.5,684.6h5.8M1734.3,736.5v-51.9M1734.3,736.5h-5.8M1728.5,736.5v-51.9M1746.7,736.5v-51.9M1734.3,684.6h12.4M1746.7,736.5h-12.4M1746.7,736.5v-51.9M1715.3,811.4v-52.8M1715.3,758.6h13.2M1728.5,811.4h-13.2M1715.3,811.4v-52.8M1728.5,758.6h5.8M1734.3,811.4v-52.8M1734.3,811.4h-5.8M1728.5,811.4v-52.8M1746.7,811.4v-52.8M1734.3,758.6h12.4M1746.7,811.4h-12.4M1746.7,811.4v-52.8M1425.6,441.5v-39.4M1466.8,402.1v39.4M1756.6,536.6V479M1756.6,479h33.8M1790.4,536.6h-33.8M1790.4,536.6V479M1790.4,536.6V479M1463.5,330.1v4.8M1433,334.9v-4.8M1486.6,344.5h28.9M1515.5,387.7h-28.9M1404.9,77.3h48.7M1453.6,77.3v16.4M1404.9,93.7V77.3M1404.9,77.3h48.7M1453.6,93.7v7.7M1404.9,101.4h48.7M1404.9,101.4v-7.7M1404.9,93.7h48.7M1404.9,116.7h48.7M1453.6,101.4v15.3M1404.9,116.7v-15.3M1404.9,116.7h48.7M1747.5,210.9v50M1747.5,260.9h-13.2M1734.3,210.9h13.2M1747.5,210.9v50M1734.3,260.9h-6.6M1727.7,210.9v50M1727.7,210.9h6.6M1734.3,210.9v50M1716.1,210.9v50M1727.7,260.9h-11.6M1716.1,210.9h11.6M1716.1,210.9v50M1747.5,284.9v50M1747.5,334.9h-13.2M1734.3,284.9h13.2M1747.5,284.9v50M1734.3,334.9h-6.6M1727.7,284.9v50M1727.7,284.9h6.6M1734.3,284.9v50M1716.1,284.9v50M1727.7,334.9h-11.6M1716.1,284.9h11.6M1716.1,284.9v50M419.3,509.7H468v65.4h-48.7v-65.4M419.3,542.4H468M435,509.7v65.4M451.5,509.7v65.4" fill-opacity="0" stroke-linejoin="round" stroke-linecap="round" stroke="#023470" stroke-width="3" id="path_1"/><path fill="#000000" d="m452.3,547.2 l15.7,-4.8 -15.7,-4.8M1546.9,575.1h-49.5v-66.3h49.5v66.3M1546.9,541.4h-49.5M1530.4,575.1v-66.3M1513.9,575.1v-66.3M1497.4,575.1v-66.3" fill-opacity="0" stroke-linejoin="round" stroke-linecap="round" stroke="#023470" stroke-width="3" id="path_2"/><path fill="#000000" d="m1513.1,536.6 l-15.7,4.8 15.7,5.8M256.7,442.5v30.7M251.8,475.1v-32.6M256.7,473.2l3.3,3.9M274,501.1l2.5,-1.9 1.7,2.8M274,501.1h0M274,501.1h0M274,501.1l-1.6,1.9 3.3,5.8M255.9,480.9l-4.1,-5.8M258.4,479l1.6,-1.9M255.9,480.9l1.6,-1v-0.9h0.9M419.3,502v6.8h-82.5M306.2,508.8H298M281.5,508.8h-5.8M278.2,502h3.3M298,502h8.2" fill-opacity="0" stroke-linejoin="round" stroke-linecap="round" stroke="#023470" stroke-width="3" id="path_3"/><path fill="#000000" d="M336.8,508.8V502h82.5M306.2,508.8V502M298,502v2.9M298,504.9h0M298,504.9v3.9M281.5,504.9V502M281.5,508.8v-3.9M281.5,504.9h0M175.8,403.1H222M256.7,403.1h252.6M546.4,403.1h40.5M586.9,442.5h-40.5M509.3,442.5H212.1M546.4,403.1v39.4M509.3,442.5v-39.4M738,527H623.2M623.2,490.5H738v31.7M586.9,490.5h0V527M623.2,490.5h0M586.9,527h36.3M623.2,575.1h-19.8M623.2,527h0M623.2,78.3v99.9M623.2,218.6v232.5M623.2,575.1V798M623.2,838.3v100.9M623.2,490.5h-36.3M586.9,451.1h36.3M586.9,490.5h0V527M586.9,900.8V672.1M586.9,614.5v58.4M586.9,451.1v-8.6M586.9,403.1V117.7M212.1,442.5V479M175.8,536.6h36.3v38.5M175.8,479h36.3M175.8,614.5v-77.9M175.8,479v-75.9M222,211.9h34.7M256.7,335.8H222M222,285.9h34.7M256.7,261.8H222M256.7,139.8v72.1M256.7,261.8v24.1M256.7,335.8v67.3M222,403.1v-67.3M222,285.9v-24.1M222,211.9V97.5M794.1,527h-14M738,522.2h42.1M780.1,527h-63.6M623.2,607.7h173.4M827.1,607.7h330.2M1187.8,607.7h158.5M1346.3,614.5h-114.7M1221.7,614.5h-33.9M1157.3,614.5h-44.6M1102,614.5H875.8M865.1,614.5h-38M796.6,614.5H623.2M1187.8,607.7v6.8M1157.3,614.5v-6.8M827.1,607.7v6.8M796.6,614.5v-6.8M1343,838.3h-38M1259.6,838.3H1182M1137.5,838.3h-70.2M1022.7,838.3h-78.4M899.7,838.3h-69.3M781.7,838.3H714M623.2,838.3h47.9M623.2,798h47.9M714,798h67.7M830.4,798H899.7M944.3,798h78.4M1067.3,798h70.2M1182,798h77.6M1305,813.4V798h41.3M1305,813.4v24.9M1259.6,813.4V798M1259.6,838.3v-24.9M1182,822v16.3M1182,798v24M1137.5,838.3V798M1067.3,798v40.3M1022.7,838.3V798M944.3,822v16.3M944.3,798v24M899.7,838.3V798M830.4,798v40.3M781.7,813.4V798M781.7,838.3v-24.9M714,798v40.3M671.1,838.3V798M554.7,939.2h68.5M505.2,939.2H449M484.5,900.8h20.7M554.7,939.2v-38.4h32.2M505.2,939.2v-38.4M623.2,178.2h47.9M714,178.2h67.7M830.4,178.2h68.5M944.3,178.2h82.6M1067.3,178.2h74.3M1182,178.2h81.8M1305,178.2h41.3M1346.3,218.6H1305M1263.8,218.6H1182M1141.6,218.6h-74.3M1026.9,218.6h-24.8M967.4,218.6h-23.1M898.9,218.6h-68.5M781.7,218.6H714M671.1,218.6h-47.9M1305,178.2v40.4M1263.8,218.6v-40.4M1182,178.2v40.4M1141.6,194.6v-16.4M1141.6,218.6v-24M1067.3,178.2v40.4M1026.9,218.6v-15.4M1026.9,203.2v-25M944.3,201.3v17.3M944.3,178.2v23.1M898.9,218.6v-40.4M830.4,178.2V218.6M781.7,218.6v-40.4M714,201.3v17.3M714,178.2v23.1M671.1,218.6v-40.4M719.8,218.6v271.9M714,211.9V490.5M449,78.3h56.2M554.7,78.3h68.5M586.9,117.7h-32.2M505.2,117.7h-20.7M554.7,78.3V117.7M505.2,93.7V78.3M505.2,117.7v-24M449,97.5V78.3M603.4,575.1h-16.5M586.9,614.5h-40.5M509.3,614.5h-24.8M449,614.5H253.4M219.6,614.5h-43.8M212.1,575.1h297.2M546.4,614.5v-39.4h40.5M509.3,614.5v-39.4M586.9,679.8h-59.4M496.1,679.8h-11.6M484.5,675h11.6M527.5,679.8V675h59.4M496.1,679.8V675M449,760.5h-9.9M407.8,760.5H253.4M253.4,754.8h154.4M439.1,760.5v-5.7h9.9M407.8,760.5v-5.7M484.5,806.6v4.8M484.5,853.7v5.8M484.5,811.4v2.9M480.4,849.9h4.1v3.8M480.4,814.3h4.1M480.4,853.7v-3.8M480.4,814.3v-2.9M455.6,811.4v42.3M449,811.4v-7.6M449,863.3v-51.9M455.6,853.7h28.9V900.8M449,939.2v-20.1M253.4,880.6H449v-26.9M449,919.1H219.6M484.5,614.5v14.4M484.5,672.1v139.3M449,628.9h35.5M484.5,672.1H449M484.5,811.4h-28.9M449,811.4V672.1M449,628.9v-14.4M253.4,808.6h-13.2M253.4,614.5v75.9M253.4,737.5v24M253.4,808.6v72M240.2,808.6h-20.6M219.6,690.4h33.8M253.4,737.5h-33.8M219.6,761.5h33.8M219.6,919.1V808.6M219.6,761.5v-24M219.6,690.4v-75.9M222,97.5h227M484.5,117.7v22.1H256.7M1388.4,939.2h-10.7M1381,899.8h7.4v33.7M1377.7,939.2H1343M1381,116.7V402.1M1381,441.5V527M1346.3,574.1h34.7v1M1358.7,527h22.3M1346.3,614.5v-40.4M1346.3,490.5V218.6M1346.3,178.2V77.3M1381,614.5v0.9M1374.4,615.4h-28.1v-16.3M1790.4,614.5h-43.7M1715.3,614.5h-199.8M1486.6,614.5h-35.5M1409.9,614.5H1381M1381,575.1h28.9M1451.1,614.5v-39.4h305.5M1409.9,614.5v-39.4M1381,715.4v16.3M1381,731.7v106.6M1346.3,798v-82.6h28.1M1381,813.4v86.4M1343,939.2V838.3M1231.6,614.5v5.7h-9.9v-5.7M1112.7,614.5v51.9M1102,702.9h10.7V798M1102,666.4h10.7M1102,798v-95.1M1102,666.4v-51.9M875.8,614.5V798M865.1,798V614.5M1311.6,527h47.1M1271.2,527H889.8M856,527h-75.9M780.1,490.5H856M889.8,490.5h77.6M1002.1,490.5h41.3M1085.5,490.5h52.8M1180.4,490.5h90.8M1311.6,527v-36.5h34.7M1271.2,527v-36.5M889.8,490.5V527M856,527v-36.5M780.1,522.2v-31.7M1381,402.1h44.6M1466.8,402.1h19.8M1515.5,402.1h200.6M1747.5,402.1h42.9M1756.6,441.5H1466.8M1425.6,441.5H1381M1466.8,402.1v39.4M1425.6,441.5v-39.4M1346.3,441.5v-39.4M1234.9,470.3h-5.8M1234.9,218.6v215.2M1234.9,470.3v20.2M1229.1,433.8h5.8M1229.1,490.5v-20.2M1229.1,433.8V218.6M1002.1,218.6v76.9M1002.1,337.7v152.8M967.4,490.5V218.6M1346.3,77.3h58.6M1453.6,77.3h67.7M1486.6,116.7h-33M1404.9,116.7H1381M1521.3,77.3v19.3M1453.6,77.3v39.4M1404.9,116.7V77.3M1478.4,939.2h-100.7M1388.4,933.5h81.7M1381,614.5v117.2M1374.4,715.4v-100M1388.4,614.5l16.5,24.9M1424.7,667.3l18.2,26M1440.4,700l-19.8,-28.8M1400.8,643.3l-19.8,-28.8M1424.7,667.3l-4.1,3.9M1400.8,643.3l4.1,-3.9M1381,330.1h52M1463.5,330.1h23.1M1486.6,334.9h-23.1M1433,334.9h-52M1463.5,330.1v4.8M1433,334.9v-4.8M1486.6,640.4h28.9M1515.5,682.7h-28.9M1515.5,614.5v25.9M1515.5,682.7v197.9M1486.6,899.8V682.7M1486.6,640.4v-25.9M1746.7,736.5h-12.4M1746.7,811.4h-31.4M1734.3,736.5h-19M1746.7,614.5v70.1M1746.7,736.5v22.1M1746.7,811.4v106.7M1746.7,684.6h-31.4M1734.3,758.6h12.4M1715.3,758.6h19M1715.3,880.6v-69.2M1715.3,758.6v-22.1M1715.3,684.6v-70.1M1521.3,918.1v21.1h-51.2M1470.1,933.5v-33.7h16.5M1442.9,693.3h43.7M1486.6,700h-46.2M1521.3,918.1h225.4M1515.5,880.6h199.8M1515.5,387.7h-28.9M1486.6,344.5h28.9V135M1515.5,387.7v14.4M1486.6,402.1v-14.4M1486.6,344.5v-222M1790.4,402.1V479M1756.6,536.6h33.8v77.9M1756.6,479h33.8M1756.6,575.1v-38.5M1756.6,479v-37.5M1734.3,284.9h13.2M1747.5,96.6v114.3M1747.5,260.9v24M1734.3,334.9h13.2v67.2M1747.5,260.9h-31.4M1716.1,210.9h31.4M1734.3,334.9h-18.2M1716.1,284.9h18.2M1716.1,402.1v-67.2M1716.1,284.9v-24M1716.1,210.9V135M1521.3,96.6h226.2M1716.1,135h-200.6M1486.6,135v-18.3" fill-opacity="0" stroke-linejoin="round" stroke-linecap="round" stroke="#023470" stroke-width="3" id="path_4"/><path fill="#000000" d="M1746.7,918.1h-225.4v21.1H1343V838.3H623.2v100.9H449v-20.1H219.6V614.5h-43.8V403.1H222V97.5h227V78.3h174.2v99.9h723.1V77.3h175v19.3h226.2v305.5h42.9v212.4h-43.7z" fill-opacity="0" stroke-linejoin="round" stroke-linecap="round" stroke="#023470" stroke-width="30" id="path_5"/></svg>