<svg id="vector" xmlns="http://www.w3.org/2000/svg" width="6519" height="4020" viewBox="0 0 6519 4020"><path fill="#000000" d="M3520.5,3855.4h-104.1v-16.8h-288.1v16.8h-103.1V3759M3520.5,3855.4V3759M3503.8,3855.4V3759M3503.8,3844.2h-71.6M3503.8,3833h-71.6" fill-opacity="0" stroke-linejoin="round" stroke-linecap="round" stroke="#023470" stroke-width="8.031" id="path_0"/><path fill="#000000" d="M3432.2,3855.4v-29.9h-319.7v29.9M3040,3855.4V3759M3112.5,3844.2H3040M3112.5,3833H3040M3330,3825.5V3759M3341.1,3825.5V3759M3353.2,3825.5V3759M3364.4,3825.5V3759M3375.5,3825.5V3759M3386.7,3825.5V3759M3397.8,3825.5V3759M3409.9,3825.5V3759M3421,3825.5V3759M3432.2,3825.5V3759M3214.7,3825.5V3759M3202.7,3825.5V3759M3191.5,3825.5V3759M3180.4,3825.5V3759M3169.2,3825.5V3759M3158.1,3825.5V3759M3146,3825.5V3759M3134.8,3825.5V3759M3123.7,3825.5V3759M3112.5,3825.5V3759M3185.9,3728.1V3627h-128.2v9.3h128.2M3056.8,3728.1v-193.8M3073.5,3728.1v-91.8M3089.3,3728.1v-91.8M3105.1,3728.1v-91.8M3121.8,3728.1v-91.8M3137.6,3728.1v-91.8M3153.4,3728.1v-91.8M3153.4,3627v-92.7M3137.6,3627v-92.7M3121.8,3627v-92.7M3105.1,3627v-92.7M3089.3,3627v-92.7M3073.5,3627v-92.7M3169.2,3728.1v-91.8M3333.7,2404.1h-113.4M3333.7,2392.9v-128.3M3219.4,2391.9v-127.3M3333.7,2391.9h-114.3M3333.7,2382.6h-114.3M3333.7,2373.2h-114.3M3333.7,2363.8h-114.3M3333.7,2354.5h-114.3M3333.7,2344.2h-114.3M3333.7,2334.8h-114.3M3333.7,2325.5h-114.3M3333.7,2316.1h-114.3M3333.7,2306.7h-114.3M3333.7,2297.4h-114.3M3333.7,2287.1h-114.3M3180.4,2384.4V2273M3372.7,2384.4v-109.5M3343.9,2228.1v-42.2h81.8M3208.2,2228.1v-42.2h-73.4M3208.2,2202.8h-73.4M3343.9,2202.8h77.1M3208.2,2218.7h-73.4M3180.4,2234.6h-45.6M3180.4,2250.6h-45.6M3180.4,2267.4h-45.6M3180.4,2283.3h-45.6M3180.4,2299.2h-45.6M3343.9,2218.7h77.1M3372.7,2234.6h48.3M3372.7,2250.6h48.3M3372.7,2267.4h48.3M3372.7,2283.3h48.3M3372.7,2299.2h48.3M3017.7,2029.6h-151.4v29.9" fill-opacity="0" stroke-linejoin="round" stroke-linecap="round" stroke="#023470" stroke-width="8.031" id="path_1"/><path fill="#000000" d="M2866.3,2055.8h-107.8v-140.5h107.8M2784.5,2042.7h81.8" fill-opacity="0" stroke-linejoin="round" stroke-linecap="round" stroke="#023470" stroke-width="8.031" id="path_2"/><path fill="#000000" d="M2784.5,2042.7v-114.2h81.8M2771.5,2055.8v-140.5M3667.3,1184.1h-8.4M2893.2,1184.1h9.3M3814.1,631.6v201.3M3802.1,642.9v190M3790.9,655v177.9M3778.8,667.2v165.7M3766.7,678.5v154.4M3754.7,690.6v142.3M2804,690.6v142.3M2792.8,678.5v154.4M2780.8,667.2v165.7M2768.7,655v177.9M2757.5,642.9v190M2745.5,631.6v201.3M3754.7,690.6H2804M3766.7,678.5h-973.9M3778.8,667.2h-998M3790.9,655H2768.7M3802.1,642.9H2757.5M3814.1,631.6H2745.5M3532.6,1160.7v-114.3M3502.8,1164.4v-118M3385.7,1164.4v-118M3356,1164.4v-118M3199.9,1164.4v-118M3170.1,1164.4v-118M3056.8,1164.4v-118M3027,1164.4v-118M3658.9,1030.5h-123.5M3658.9,1043.6h-123.5M3658.9,1056.7h-123.5M3658.9,1069.8h-123.5M3658.9,1082h-123.5M3658.9,1095.1h-123.5M3658.9,1108.2h-123.5M3658.9,1121.3h-123.5M3658.9,1133.5h-123.5M3658.9,1146.6h-123.5M3658.9,1159.7h-123.5M3658.9,1172.8h-123.5M3502.8,1122.3h-117.1M3356,1122.3h-156.1M3170.1,1122.3h-113.3M3024.2,1030.5h-121.7M3502.8,1109.2h-117.1M3502.8,1096.1h-117.1M3502.8,1082.9h-117.1M3502.8,1070.8h-117.1M3502.8,1057.7h-117.1M3500,1044.6h-112.4M3500,1031.4h-112.4M3500,1019.3h-112.4M3501,1006.2h-113.4M3501,1011.8v-19.7h-113.4v19.7M3353.2,992.1h-150.5v19.7M3353.2,992.1v19.7M3167.4,992.1h-108.8v18.7M3167.4,992.1v19.7M3353.2,1004.3h-150.5M3167.4,1004.3h-108.8M3024.2,1043.6h-121.7M3027,1056.7h-124.5M3027,1069.8h-124.5M3024.2,1082h-121.7M3027,1095.1h-124.5M3027,1108.2h-124.5M3027,1120.4h-124.5M3027,1133.5h-124.5M3027,1146.6h-124.5M3027,1159.7h-124.5M3027,1171.9h-124.5M3167.4,1017.4h-108.8M3167.4,1030.5h-108.8M3167.4,1043.6h-108.8M3170.1,1055.8h-113.3M3170.1,1068.9h-113.3M3167.4,1082h-110.6M3170.1,1095.1h-113.3M3170.1,1107.3h-113.3M3353.2,1017.4h-150.5M3353.2,1030.5h-150.5M3353.2,1043.6h-150.5M3356,1055.8h-156.1M3356,1068.9h-156.1M3356,1082h-156.1M3356,1095.1h-156.1M3356,1107.3h-156.1M3500,1877.9h-445.1M3387.6,1681.3v196.6M3359.7,1877.9v-196.6M3198,1877.9v-196.6M3169.2,1877.9v-196.6M3500,1681.3h-445.1M3500,1695.3h-112.4M3500,1708.4h-112.4M3500,1722.5h-112.4M3500,1736.5h-112.4M3500,1750.6h-112.4M3500,1763.7h-112.4M3500,1777.7h-112.4M3500,1791.7h-112.4M3500,1805.8h-112.4M3500,1818.9h-112.4M3500,1832.9h-112.4M3500,1847h-112.4M3500,1861h-112.4M3359.7,1695.3h-14.9M3359.7,1708.4h-26M3359.7,1722.5h-37.2M3359.7,1736.5h-48.3M3359.7,1750.6h-59.5M3359.7,1763.7h-71.5M3359.7,1777.7H3277M3359.7,1791.7h-93.8M3359.7,1805.8h-105M3359.7,1818.9h-118.9M3359.7,1832.9h-128.2M3359.7,1847h-139.4M3359.7,1861h-150.5M3344.8,1695.3H3198M3333.7,1708.4H3198M3322.5,1722.5H3198M3311.4,1736.5H3198M3300.2,1750.6H3198M3288.2,1763.7H3198M3277,1777.7h-79M3265.9,1791.7H3198M3254.7,1805.8H3198M3242.6,1818.9H3198M3231.5,1832.9H3198M3220.3,1847H3198M3209.2,1861H3198M3169.2,1861h-114.3M3169.2,1847h-114.3M3169.2,1832.9h-114.3M3169.2,1818.9h-114.3M3169.2,1805.8h-114.3M3169.2,1791.7h-114.3M3169.2,1777.7h-114.3M3169.2,1763.7h-114.3M3169.2,1750.6h-114.3M3169.2,1736.5h-114.3M3169.2,1722.5h-114.3M3169.2,1708.4h-114.3M3169.2,1695.3h-114.3M5882.8,892.9 L5777.7,847M5889.3,877l-105.1,-45.9M5896.7,861l-105.9,-45.8M5906,837.6l-105,-45.9M5913.4,821.7l-105.9,-45.9M5452.5,1127h7.4M5452.5,1140.1v45.8M5373.5,1127V995.9h-66M5307.5,1127V962.2M5373.5,1084.8h-66M5373.5,1037.1h-66M5457.1,1072.6h3.8M5801.9,1621.3h-188.6M5744.3,1621.3v-146M5703.4,1621.3v-146M5801.9,1605.4h-57.6M5801.9,1588.6h-57.6M5801.9,1572.6h-57.6M5801.9,1556.7h-57.6M5801.9,1539.9h-57.6M5801.9,1524h-57.6M5801.9,1508h-57.6M5801.9,1492.1h-57.6M5801.9,1475.3h-188.6M5703.4,1492.1h-90.1M5703.4,1508h-90.1M5703.4,1524h-90.1M5703.4,1539.9h-90.1M5703.4,1556.7h-90.1M5703.4,1572.6h-90.1M5703.4,1605.4h-90.1M5703.4,1588.6h-90.1" fill-opacity="0" stroke-linejoin="round" stroke-linecap="round" stroke="#023470" stroke-width="8.031" id="path_3"/><path fill="#000000" d="M968.6,1784.3h6.5v110.4H717.7v-110.4h6.5" fill-opacity="0" stroke-linejoin="round" stroke-linecap="round" stroke="#023470" stroke-width="50.196" id="path_4"/><path fill="#000000" d="M897.1,1980v-85.3M897.1,1980h-96.7v-85.3M897.1,1962.2h-96.7M897.1,1945.3h-96.7M897.1,1928.5h-96.7M897.1,1911.6h-96.7M941.7,1629.8H751.2M806.9,1629.8v-146.1M941.7,1483.7H751.2M941.7,1483.7l-91.1,146.1M941.7,1613.8h-80.9M941.7,1597h-71.6M941.7,1581.1h-61.3M941.7,1565.2h-51.1M941.7,1549.2h-40.9M941.7,1532.4H911M941.7,1516.5h-20.5M941.7,1500.6h-10.2M806.9,1613.8h-55.7M806.9,1597h-55.7M806.9,1581.1h-55.7M806.9,1565.2h-55.7M806.9,1549.2h-55.7M806.9,1532.4h-55.7M806.9,1516.5h-55.7M806.9,1500.6h-55.7" fill-opacity="0" stroke-linejoin="round" stroke-linecap="round" stroke="#023470" stroke-width="8.031" id="path_5"/><path fill="#000000" d="m1013.2,660.7 l76.2,-25.3" fill-opacity="0" stroke-linejoin="round" stroke-linecap="round" stroke="#023470" stroke-width="50.196" id="path_6"/><path fill="#000000" d="m752.1,757.1 l-108.7,35.6M755.8,771.1 L648,806.7M760.5,784.3l-107.8,35.5M765.1,798.3l-107.8,35.6M769.8,811.4 L662,847M773.5,825.5 L665.7,861M697.3,128.8h0.9M3374.6,3345.1v-29" fill-opacity="0" stroke-linejoin="round" stroke-linecap="round" stroke="#023470" stroke-width="8.031" id="path_7"/><path fill="#023470" d="M3347.6,2595.1v89.9,-89.9zM3347.6,2748.7v90.8,-90.8zM3347.6,2903.2v89.9,-89.9zM3347.6,3057.7v89.9,-89.9zM3204.5,2748.7v89.9,-89.9zM3204.5,2903.2v89.9,-89.9zM3204.5,3058.6v89.9,-89.9z" id="path_8"/><path fill="#000000" d="M3056.8,1527.7v-30M3027,1527.7h29.8M3027,1497.7v30M3056.8,1497.7H3027M3055.8,1382.6v-30M3026.1,1382.6h29.7M3026.1,1352.6v30M3055.8,1352.6h-29.7M3058.6,1046.4v-35.6M3024.2,1046.4h34.4M3024.2,1010.8v35.6M3058.6,1010.8h-34.4M3056.8,1194.4v-30M3027,1194.4h29.8M3027,1164.4v30M3056.8,1164.4H3027M3533.5,1383.5v-30M3503.8,1383.5h29.7M3503.8,1353.5v30M3533.5,1353.5h-29.7M3532.6,1194.4v-30M3502.8,1194.4h29.8M3502.8,1164.4v30M3532.6,1164.4h-29.8M3534.4,1046.4v-34.6M3500,1046.4h34.4M3500,1011.8v34.6M3534.4,1011.8H3500M3532.6,1529.6v-30M3502.8,1529.6h29.8M3502.8,1499.6v30M3532.6,1499.6h-29.8M3198,1680.3v-28.1M3170.1,1680.3h27.9M3170.1,1652.2v28.1M3198,1652.2h-27.9M3387.6,1681.3v-28.1M3359.7,1681.3h27.9M3359.7,1653.2v28.1M3387.6,1653.2h-27.9M3385.7,1528.6v-29.9M3356,1528.6h29.7M3356,1498.7v29.9M3385.7,1498.7H3356M3199.9,1528.6v-29.9M3170.1,1528.6h29.8M3170.1,1498.7v29.9M3199.9,1498.7h-29.8M3387.6,1046.4v-34.6M3353.2,1046.4h34.4M3353.2,1011.8v34.6M3387.6,1011.8h-34.4M3202.7,1046.4v-34.6M3168.3,1046.4h34.4M3168.3,1011.8v34.6M3202.7,1011.8h-34.4M3199.9,1194.4v-30M3169.2,1194.4h30.7M3169.2,1164.4v30M3199.9,1164.4h-30.7M3385.7,1194.4v-30M3356,1194.4h29.7M3356,1164.4v30M3385.7,1164.4H3356M3196.2,1905v-26.2M3171.1,1905h25.1M3171.1,1878.8v26.2M3196.2,1878.8h-25.1M3386.7,1905v-26.2M3360.6,1905h26.1M3360.6,1878.8v26.2M3386.7,1878.8h-26.1M3493.5,3316.1h129.2M3622.7,3331.1h-110.6" fill-opacity="0" stroke-linejoin="round" stroke-linecap="round" stroke="#023470" stroke-width="8.031" id="path_9"/><path fill="#000000" d="M2861.6,2059.5h160.8" fill-opacity="0" stroke-linejoin="round" stroke-linecap="round" stroke="#023470" stroke-width="50.196" id="path_10"/><path fill="#000000" d="M3022.4,2059.5h197.9" fill-opacity="0" stroke-linejoin="round" stroke-linecap="round" stroke="#023470" stroke-width="53.429" id="path_11"/><path fill="#000000" d="m863.6,112.9 l181.7,505.8" fill-opacity="0" stroke-linejoin="round" stroke-linecap="round" stroke="#023470" stroke-width="54.669" id="path_12"/><path fill="#000000" d="M3341.1,2059.5h349.4" fill-opacity="0" stroke-linejoin="round" stroke-linecap="round" stroke="#023470" stroke-width="58.174" id="path_13"/><path fill="#000000" d="M3658,2087.6h-334.5M3229.6,2087.6h-335.5M3323.5,2059.5v28.1M3229.6,2087.6v-28.1M3421,2305.8h4.7M3425.7,2352.6h-4.7M3421,2441.6h4.7M3425.7,2489.3h-4.7M3425.7,2087.6v218.2M3425.7,2352.6v31.8M3425.7,2389.1v52.5M3425.7,2489.3v89.9M3421,2574.5v-85.2M3421,2441.6v-89M3421,2305.8v-218.2" fill-opacity="0" stroke-linejoin="round" stroke-linecap="round" stroke="#023470" stroke-width="8.031" id="path_14"/><path fill="#000000" d="M3690.5,2059.5v1693.9" fill-opacity="0" stroke-linejoin="round" stroke-linecap="round" stroke="#023470" stroke-width="50.196" id="path_15"/><path fill="#000000" d="M3658,3725.3V2087.6M3425.7,2579.2H3658M3658,2584.8h-271.3M3372.7,2584.8h-9.3M3658,2389.1h-232.3M3425.7,2384.4H3658" fill-opacity="0" stroke-linejoin="round" stroke-linecap="round" stroke="#023470" stroke-width="8.031" id="path_16"/><path fill="#023470" d="M3364.7,2236.1v28.9H3352v-0.4c0,-4.4 -3.6,-8 -8,-8h-2.2v-12h2.2c4.4,0 8,-3.6 8,-8v-0.4h12.7m8,-8.1h-28.8v8.4h-10.2v28.1h10.2v8.4h28.8v-44.9zM3364.7,2392.5v29.8H3352v-0.4c0,-4.4 -3.6,-8 -8,-8h-2.2v-13h2.2c4.4,0 8,-3.6 8,-8v-0.4h12.7m8,-8.1h-28.8v8.4h-10.2v29h10.2v8.4h28.8v-45.8z" id="path_17"/><path fill="#000000" d="M3219.4,2569.8h33.4M3300.2,2569.8h33.5M3333.7,2576.4h-33.5M3252.8,2576.4h-47.3M3300.2,2569.8v6.6M3252.8,2576.4v-6.6" fill-opacity="0" stroke-linejoin="round" stroke-linecap="round" stroke="#023470" stroke-width="8.031" id="path_18"/><path fill="#023470" d="M3364.7,2549.8v27h-9v-0.4c0,-4.4 -3.6,-8 -8,-8h-5.9v-12h2.2c3.9,0 7.2,-2.8 7.9,-6.6h12.8m8,-8h-28.8v6.6h-10.2v28.1h13.9v8.4h25.1v-43.1z" id="path_19"/><path fill="#000000" d="M3386.7,3158.8v44.9M3372.7,2574.5h48.3M3386.7,2584.8v574M3347.6,2739.3v-8.4M3347.6,3316.1v-2.8M3347.6,3166.3v-7.5M3347.6,3203.7v-8.4M3347.6,3158.8v-11.2M3347.6,3057.7v-16.9M3347.6,3012.7v-19.6M3347.6,2903.2v-17.8M3347.6,2857.3v-17.8M3347.6,2748.7v-9.4M3347.6,2702.8V2685M3347.6,2595.1v-18.7" fill-opacity="0" stroke-linejoin="round" stroke-linecap="round" stroke="#023470" stroke-width="8.031" id="path_20"/><path fill="#023470" d="M3366.6,3321.3v28.9h-18c-4.4,0 -8,3.6 -8,8v5.1h-0.7v-33.6h7.8c4.4,0 8,-3.6 8,-8v-0.4h10.9m8,-8h-26.9v8.4h-15.8v49.6h16.8v-13.1h26v-44.9h-0.1zM3378.6,3166.8v28.9h-23v-0.4c0,-4.4 -3.6,-8 -8,-8h-5.9v-13h5.9c4.3,0 7.7,-3.3 8,-7.5h23m8.1,-8h-39v7.5h-13.9v29h13.9v8.4h39v-44.9zM3378.6,2702.4v28.9h-23v-0.4c0,-4.4 -3.6,-8 -8,-8h-5.9v-12h5.9c4.4,0 8,-3.6 8,-8v-0.4h23m8.1,-8.1h-39v8.4h-13.9v28.1h13.9v8.4h39v-44.9zM3378.6,2856.9v28.9h-23v-0.4c0,-4.4 -3.6,-8 -8,-8h-5.9v-12h5.9c4.4,0 8,-3.6 8,-8v-0.4h23m8.1,-8.1h-39v8.4h-13.9v28.1h13.9v8.4h39v-44.9zM3378.6,3011.4v29.8h-23v-0.4c0,-4.4 -3.6,-8 -8,-8h-5.9v-12h5.9c4.4,0 8,-3.6 8,-8v-1.3h23m8.1,-8.1h-39v9.4h-13.9v28.1h13.9v8.4h39v-45.9z" id="path_21"/><path fill="#000000" d="M3335.6,3371.3V3509M3331.8,3333h0M3349.5,3509h0M3349.5,3534.3h-41.8M3260.3,3534.3h-366.2M2894.1,3509h366.2M3307.7,3509h41.8M3307.7,3509v25.3M3260.3,3534.3V3509M3358.8,3753.4h0M2894.1,3728.1h455.4" fill-opacity="0" stroke-linejoin="round" stroke-linecap="round" stroke="#023470" stroke-width="8.031" id="path_22"/><path fill="#000000" d="M3358.8,3753.4h-497.2" fill-opacity="0" stroke-linejoin="round" stroke-linecap="round" stroke="#023470" stroke-width="50.196" id="path_23"/><path fill="#000000" d="M3493.5,3316.1h18.6M3512.1,3345.1h-137.5M3374.6,3316.1h118.9M3512.1,3331.1v14M3622.7,3316.1h35.3M3658,3345.1h-35.3v-14M3349.5,3631.6h25.1M3374.6,3678.5h-25.1M3349.5,3725.3h0M3374.6,3538v93.6M3374.6,3678.5v46.8M3349.5,3725.3v-46.8M3349.5,3631.6v-97.3M3658,3538h-283.4M3349.5,3509H3658" fill-opacity="0" stroke-linejoin="round" stroke-linecap="round" stroke="#023470" stroke-width="8.031" id="path_24"/><path fill="#000000" d="M3690.5,3753.4h-331.7" fill-opacity="0" stroke-linejoin="round" stroke-linecap="round" stroke="#023470" stroke-width="50.196" id="path_25"/><path fill="#000000" d="M3374.6,3725.3H3658M3349.5,3728.1v-2.8M2244.6,935.9h-63.2M2181.4,930.3h63.2M2249.2,928.5h-4.6M2249.2,928.5v190M2244.6,1124.1V935.9M2244.6,930.3v-1.8M2249.2,1118.5h28.8M2316.1,1118.5h38.1M2349.6,1124.1h-33.5M2278,1124.1h-33.4M2316.1,1118.5v5.6M2278,1124.1v-5.6M2354.2,1118.5v67.4M2349.6,1185.9v-61.8M1095,1185.9h49.3M1191.7,1185.9h58.5M1284.6,1185.9H1490M1573.6,1185.9h429.3M2086.6,1185.9h71.5M2181.4,1185.9h79.9M2344.9,1185.9h171.9M2601.4,1185.9h265.8M2867.2,1211.2h-265.8M2516.8,1211.2h-171.9M2261.3,1211.2h-174.7M2002.9,1211.2h-429.3M1490,1211.2h-298.3M1144.3,1211.2H1095M2601.4,1185.9v25.3M2516.8,1211.2v-25.3M2344.9,1185.9v25.3M2261.3,1211.2v-25.3M2086.6,1185.9v25.3M2002.9,1211.2v-25.3M1573.6,1185.9v25.3M1490,1211.2v-25.3M1191.7,1185.9v25.3M1144.3,1211.2v-25.3M2181.4,866.7v319.2M2158.1,1185.9V867.6M1878.4,866.7v319.2M1871.9,1185.9V866.7M1075.5,1222.5h19.5M1095,1336.7h-19.5M1095,1072.6v113.3M1095,1211.2v11.3M1095,1336.7v11.2M1075.5,1347.9v-11.2M1075.5,1222.5v-127.4M2893.2,867.6v374.5M2893.2,1314.2v338M2893.2,1314.2h-26M2867.2,1242.1h26M2867.2,1652.2v-279M2867.2,1347.9v-33.7M2867.2,1242.1v-30.9M2867.2,1185.9V867.6M1102.5,960.3v225.6M1089.4,960.3h13.1M1089.4,1072.6V960.3M1284.6,923.8v262.1M1250.2,923.8h2.8M1250.2,1185.9V960.3M1063.4,1072.6h31.6M1075.5,1095.1h-12.1v-7.5" fill-opacity="0" stroke-linejoin="round" stroke-linecap="round" stroke="#023470" stroke-width="8.031" id="path_26"/><path fill="#000000" d="m1005.8,656.9 l16.7,45 78.1,221.9" fill-opacity="0" stroke-linejoin="round" stroke-linecap="round" stroke="#023470" stroke-width="50.196" id="path_27"/><path fill="#000000" d="M1072.7,959.4 L985.4,715l-15.8,-45.9" fill-opacity="0" stroke-linejoin="round" stroke-linecap="round" stroke="#023470" stroke-width="8.031" id="path_28"/><path fill="#000000" d="M1100.6,923.8h149.6" fill-opacity="0" stroke-linejoin="round" stroke-linecap="round" stroke="#023470" stroke-width="50.196" id="path_29"/><path fill="#000000" d="M1250.2,960.3h-177.5v-0.9M1284.6,866.7v57.1" fill-opacity="0" stroke-linejoin="round" stroke-linecap="round" stroke="#023470" stroke-width="8.031" id="path_30"/><path fill="#000000" d="M1253,923.8v-84.3" fill-opacity="0" stroke-linejoin="round" stroke-linecap="round" stroke="#023470" stroke-width="50.196" id="path_31"/><path fill="#000000" d="M751.2,1347.9h51.1M887.8,1347.9h108.7M1038.3,1347.9h37.2M1095,1347.9h379.2M1554.1,1347.9h173.8M1807.8,1347.9h186.8M2075.4,1347.9h171M2326.3,1347.9h112.5M2519.6,1347.9h347.6M2867.2,1373.2h-347.6M2438.8,1373.2h-112.5M2246.4,1373.2h-65M2155.4,1373.2h-40M2090.3,1373.2h-14.9M1994.6,1373.2h-186.8M1727.9,1373.2h-173.8M1474.2,1373.2h-435.9M996.5,1373.2h-21.4M941.7,1373.2h-53.9M802.3,1373.2h-51.1M2519.6,1347.9v25.3M2438.8,1373.2v-25.3M2326.3,1347.9v25.3M2246.4,1373.2v-25.3M2075.4,1347.9v25.3M1994.6,1373.2v-25.3M1807.8,1347.9v25.3M1727.9,1373.2v-25.3M1554.1,1347.9v25.3M1474.2,1373.2v-25.3M1038.3,1347.9v25.3M996.5,1373.2v-25.3M887.8,1347.9v25.3M802.3,1373.2v-25.3M1297.6,1510.9h-204.4M1093.2,1506.2h204.4M975.1,1442.5h30.7M1052.3,1442.5h32.5M1084.8,1447.2h-32.5M1005.8,1447.2h-30.7M1052.3,1442.5v4.7M1005.8,1447.2v-4.7M1084.8,1577.3h8.4M1093.2,1627.9h-8.4M1093.2,1373.2v133M1093.2,1510.9v66.4M1093.2,1627.9v24.3M1084.8,1652.2v-24.3M1084.8,1577.3v-130.1M1084.8,1442.5v-69.3M2367.2,1430.3h57.6M2472.2,1430.3h115.3M2634.9,1430.3h54.8M2689.7,1435.9h-54.8M2587.5,1435.9h-53.9M2528.9,1435.9h-56.7M2424.8,1435.9h-57.6M2634.9,1430.3v5.6M2587.5,1435.9v-5.6M2472.2,1430.3v5.6M2424.8,1435.9v-5.6M2533.6,1435.9v216.3M2528.9,1652.2v-216.3M2367.2,1373.2v57.1M2367.2,1435.9v216.3M2358.9,1652.2v-279M2697.1,1425.6h-7.4M2697.1,1425.6v226.6M2689.7,1652.2v-216.3M2689.7,1430.3v-4.7M1306,1464h-8.4M1297.6,1416.3h8.4M1297.6,1557.7h8.4M1306,1605.4h-8.4M1306,1373.2v43.1M1306,1464v93.7M1306,1605.4v46.8M1297.6,1652.2v-46.8M1297.6,1557.7v-46.8M1297.6,1506.2V1464M1297.6,1416.3v-43.1M1987.1,1373.2v279M1979.7,1652.2v-279M2181.4,1404.1v6.6M2181.4,1373.2v30.9M2155.4,1410.7v-37.5M2115.4,1373.2v37.5M2090.3,1435.9v-62.7M2115.4,1410.7h40M2160,1435.9h-69.7M2181.4,1404.1v248.1M2160,1652.2v-216.3M941.7,1652.2h0" fill-opacity="0" stroke-linejoin="round" stroke-linecap="round" stroke="#023470" stroke-width="8.031" id="path_32"/><path fill="#000000" d="M975.1,1652.2h40.9" fill-opacity="0" stroke-linejoin="round" stroke-linecap="round" stroke="#023470" stroke-width="30" id="path_33"/><path fill="#000000" d="M2963.8,1652.2h91.1" fill-opacity="0" stroke-linejoin="round" stroke-linecap="round" stroke="#023470" stroke-width="30.117" id="path_34"/><path fill="#000000" d="M3022.4,1691.6h-58.6M1016,1691.6h-47.4" fill-opacity="0" stroke-linejoin="round" stroke-linecap="round" stroke="#023470" stroke-width="50.196" id="path_35"/><path fill="#000000" d="M941.7,1656.9v-4.7M3658.9,1184.1h-126.3M3027,1184.1h-133.8M975.1,1373.2v279M941.7,1652.2v-279" fill-opacity="0" stroke-linejoin="round" stroke-linecap="round" stroke="#023470" stroke-width="8.031" id="path_36"/><path fill="#000000" d="M968.6,1691.6v100.1" fill-opacity="0" stroke-linejoin="round" stroke-linecap="round" stroke="#023470" stroke-width="50.196" id="path_37"/><path fill="#000000" d="M930.5,1656.9h11.2M930.5,1754.3v-97.4M1063.4,1087.6h-25.1M996.5,1087.6h-24.1M960.3,1072.6h36.2M1038.3,1072.6h25.1M1038.3,1072.6v15M996.5,1087.6v-15M960.3,1072.6h12.1M972.4,1087.6v7.5H858.1M765.1,1095.1h-13.9M743.8,1072.6h21.3M858.1,1072.6h5.5M891.5,1072.6h68.8M858.1,1072.6v22.5M765.1,1095.1v-22.5M1027.2,833.9l1.8,3.7 -197.9,64.6M830.2,899.4l197,-65.5" fill-opacity="0" stroke-linejoin="round" stroke-linecap="round" stroke="#023470" stroke-width="8.031" id="path_38"/><path fill="#000000" d="M3022.4,1942.5h32.5" fill-opacity="0" stroke-linejoin="round" stroke-linecap="round" stroke="#023470" stroke-width="50.196" id="path_39"/><path fill="#000000" d="M3054.9,2029.6h-32.5" fill-opacity="0" stroke-linejoin="round" stroke-linecap="round" stroke="#023470" stroke-width="8.031" id="path_40"/><path fill="#000000" d="M3054.9,1652.2v290.3" fill-opacity="0" stroke-linejoin="round" stroke-linecap="round" stroke="#023470" stroke-width="50.196" id="path_41"/><path fill="#000000" d="M3022.4,2029.6v29.9h32.5v-29.9" fill-opacity="0" stroke-linejoin="round" stroke-linecap="round" stroke="#023470" stroke-width="8.031" id="path_42"/><path fill="#000000" d="M3022.4,1942.5v-250.9M5585.4,1691.6H3532.6" fill-opacity="0" stroke-linejoin="round" stroke-linecap="round" stroke="#023470" stroke-width="50.196" id="path_43"/><path fill="#000000" d="M3500,1653.2h168.2" fill-opacity="0" stroke-linejoin="round" stroke-linecap="round" stroke="#023470" stroke-width="38.149" id="path_44"/><path fill="#000000" d="M3694.3,1653.2h1905" fill-opacity="0" stroke-linejoin="round" stroke-linecap="round" stroke="#023470" stroke-width="28.427" id="path_45"/><path fill="#000000" d="M3532.6,1691.6v238.7H3500v-277.1" fill-opacity="0" stroke-linejoin="round" stroke-linecap="round" stroke="#023470" stroke-width="50.196" id="path_46"/><path fill="#000000" d="M968.6,1791.7h-79.9M793.9,1791.7h-69.7M751.2,1754.3h42.7M888.7,1754.3h41.8M888.7,1754.3v37.4M793.9,1791.7v-37.4M2866.3,1776.8h156.1M3022.4,1783.3h-151.5v45.9M2870.9,1876v45M2870.9,1942.5v19.7M2870.9,2009v20.6M2870.9,1876h-4.6M2866.3,1829.2h4.6M2866.3,1962.2h4.6M2870.9,2009h-4.6M2870.9,2029.6h-4.6V2009M2866.3,1962.2v-19.7M2866.3,1921v-144.2M3022.4,1942.5h-151.5M2866.3,1942.5h0M2866.3,1921h0M2870.9,1921h151.5M2866.3,1942.5V1921M2894.1,2087.6v124.6M2894.1,2284.3v146M2894.1,2544.6v191M2894.1,2849.8V3038M2894.1,3152.2v163.9M2894.1,3345.1v1M2894.1,3460.3v48.7M2894.1,3534.3v59M2894.1,2212.2v1515.9" fill-opacity="0" stroke-linejoin="round" stroke-linecap="round" stroke="#023470" stroke-width="8.031" id="path_47"/><path fill="#000000" d="M2861.6,3753.4V2059.5" fill-opacity="0" stroke-linejoin="round" stroke-linecap="round" stroke="#023470" stroke-width="50.196" id="path_48"/><path fill="#023470" d="M3532.6,2025.8H3500v33.7h32.6v-33.7z" id="path_49"/><path fill="#000000" d="M5585.4,1346.1h27.9M5613.3,1373.2v0.9M3694.3,1346.1h65.9M3842.9,1346.1h69.7M3995.4,1346.1h92M4170.1,1346.1h266.7M4520.4,1346.1h77.1M4681.2,1346.1h250.9M5014.8,1346.1h270.4M5368.9,1346.1h91M5481.3,1346.1h104.1M5585.4,1374.1h-216.5M5285.2,1374.1h-270.4M4932.1,1374.1h-250.9M4597.5,1374.1h-77.1M4436.8,1374.1h-266.7M4087.4,1374.1h-92M3912.6,1374.1h-69.7M3760.2,1374.1h-65.9M5368.9,1346.1v28M5285.2,1374.1v-28M5014.8,1346.1v28M4932.1,1374.1v-28M4681.2,1346.1v28M4597.5,1374.1v-28M4520.4,1346.1v28M4436.8,1374.1v-28M4170.1,1346.1v28M4087.4,1374.1v-28M3995.4,1346.1v28M3912.6,1374.1v-28M3842.9,1346.1v28M3760.2,1374.1v-28M3668.2,1242.1h26.1M3694.3,1314.2h-26.1M3694.3,867.6v318.3M3694.3,1213.1v29M3694.3,1314.2v31.9M3694.3,1374.1v279.1M3668.2,1653.2v-339M3668.2,1242.1V867.6M5459.9,1213.1H5406M5360.5,1213.1h-334.6M4942.3,1213.1h-421.9M4437.7,1213.1H4171M4087.4,1213.1h-243.5M3760.2,1213.1h-65.9M3694.3,1185.9h65.9M3843.9,1185.9h243.5M4171,1185.9h266.7M4520.4,1185.9h421.9M5025.9,1185.9h334.6M5406,1185.9h53.9M5406,1185.9v27.2M5360.5,1213.1v-27.2M5025.9,1185.9v27.2M4942.3,1213.1v-27.2M4520.4,1185.9v27.2M4437.7,1213.1v-27.2M4171,1185.9v27.2M4087.4,1213.1v-27.2M3843.9,1185.9v27.2M3760.2,1213.1v-27.2M3859.7,1374.1v278.1M3847.6,1652.2v-278.1M4071.6,1374.1v278.1M4064.1,1652.2v-278.1M4400.5,1374.1v278.1M4381,1652.2v-278.1M4549.2,1425.6h7.4M4556.6,1473.4h-7.4M4556.6,1374.1v51.5M4556.6,1473.4v178.8M4549.2,1652.2v-178.8M4549.2,1425.6v-51.5M4894,1374.1v278.1M4888.4,1652.2v-278.1M5234.1,1425.6h8.4M5242.5,1472.5h-8.4M5242.5,1374.1v51.5M5242.5,1472.5v179.7M5234.1,1652.2v-179.7M5234.1,1425.6v-51.5M5459.9,1074.5h1M5476.6,1074.5h4.7M5459.9,1221.5h21.4M5481.3,1338.6h-21.4M5481.3,1096.1v125.4M5481.3,1338.6v7.5M5459.9,1346.1v-7.5M5459.9,1221.5v-8.4M5459.9,1185.9v-111.4M5613.3,1373.2v383" fill-opacity="0" stroke-linejoin="round" stroke-linecap="round" stroke="#023470" stroke-width="8.031" id="path_50"/><path fill="#000000" d="M5585.4,1791.7v-100.1" fill-opacity="0" stroke-linejoin="round" stroke-linecap="round" stroke="#023470" stroke-width="50.196" id="path_51"/><path fill="#000000" d="M5585.4,1653.2v-279.1M5801.9,1373.2h-59.5M5671.8,1373.2h-58.5M5585.4,1346.1h86.4M5742.4,1346.1h59.5M5742.4,1346.1v27.1M5671.8,1373.2v-27.1M4613.3,868.5v221.9M4613.3,1132.6v53.3M4604,1185.9v-52.4M4604,1090.4V868.5M5604.9,674.7l-20.5,47.8M5538,832.9l-1.9,4.7 -2.8,5.6M5584.4,722.5l-97.5,232.2M5582.6,665.3l22.3,9.4" fill-opacity="0" stroke-linejoin="round" stroke-linecap="round" stroke="#023470" stroke-width="8.031" id="path_52"/><path fill="#000000" d="m5475.7,920 l106.9,-254.7" fill-opacity="0" stroke-linejoin="round" stroke-linecap="round" stroke="#023470" stroke-width="50.196" id="path_53"/><path fill="#000000" d="M5476.6,962.2h0M5460.9,962.2h-177.5" fill-opacity="0" stroke-linejoin="round" stroke-linecap="round" stroke="#023470" stroke-width="8.031" id="path_54"/><path fill="#000000" d="M5328,920h147.7" fill-opacity="0" stroke-linejoin="round" stroke-linecap="round" stroke="#023470" stroke-width="50.196" id="path_55"/><path fill="#000000" d="M5476.6,954.7v119.8M5460.9,1074.5V962.2M5484.1,1074.5h8.3M5492.4,1096.1h-11.1M5492.4,1090.4v5.7M5481.3,1074.5h2.8M5452.5,1140.1h-21.4M5394.9,1140.1h-94.8M5307.5,1127h87.4M5431.1,1127h21.4M5431.1,1127v13.1M5394.9,1140.1V1127M5300.1,1140.1v45.8M5282.4,902.2h1M5282.4,1185.9l1,-223.7" fill-opacity="0" stroke-linejoin="round" stroke-linecap="round" stroke="#023470" stroke-width="8.031" id="path_56"/><path fill="#000000" d="M5328,880.7V920" fill-opacity="0" stroke-linejoin="round" stroke-linecap="round" stroke="#023470" stroke-width="50.196" id="path_57"/><path fill="#000000" d="M5283.4,962.2v-81.5" fill-opacity="0" stroke-linejoin="round" stroke-linecap="round" stroke="#023470" stroke-width="8.031" id="path_58"/><path fill="#000000" d="M5328,837.6v43.1M5283.4,837.6h44.6" fill-opacity="0" stroke-linejoin="round" stroke-linecap="round" stroke="#023470" stroke-width="50.196" id="path_59"/><path fill="#000000" d="M5283.4,880.7v-12.2" fill-opacity="0" stroke-linejoin="round" stroke-linecap="round" stroke="#023470" stroke-width="8.031" id="path_60"/><path fill="#000000" d="m1253,839.5 l4030.4,-1.9" fill-opacity="0" stroke-linejoin="round" stroke-linecap="round" stroke="#023470" stroke-width="50.196" id="path_61"/><path fill="#000000" d="m5283.4,868.5 l-3998.8,-1.8M4400.5,868.5v317.4M4380.1,1185.9V868.5M3997.2,1134.4h7.4M4004.6,1177.5h-7.4M4004.6,868.5v265.9M4004.6,1177.5v8.4M3997.2,1185.9v-8.4M3997.2,1134.4V868.5M3694.3,955.6h88.2M3782.5,959.4h-88.2M3786.3,951.9v172.2M3786.3,951.9h-3.8M3782.5,1131.6V959.4M3782.5,955.6v-3.7M3786.3,1124.1h11.1M3844.8,1124.1h10.2M3847.6,1131.6h-2.8M3797.4,1131.6h-14.9M3844.8,1124.1v7.5M3797.4,1131.6v-7.5M3855,1124.1v61.8M3847.6,1185.9v-54.3" fill-opacity="0" stroke-linejoin="round" stroke-linecap="round" stroke="#023470" stroke-width="8.031" id="path_62"/><path fill="#000000" d="M5835.4,1791.7h-250" fill-opacity="0" stroke-linejoin="round" stroke-linecap="round" stroke="#023470" stroke-width="50.196" id="path_63"/><path fill="#000000" d="M5613.3,1756.2h188.6M5582.6,1074.5h77.1M5682,1074.5h14.9M5789.8,1074.5h16.7M5801.9,1096.1h-12.1M5696.9,1096.1h-114.3M5789.8,1074.5v21.6M5696.9,1096.1v-21.6M5582.6,1096.1v-5.7M5538,832.9l188.6,83.4 -1.8,3.7 -188.7,-82.4M5582.6,1090.4h-23.2M5516.6,1090.4h-24.2M5484.1,1074.5h32.5M5559.4,1074.5h23.2M5559.4,1074.5v15.9M5516.6,1090.4v-15.9M3134.8,2509h-4.6M3130.2,2461.2h4.6M3134.8,2352.6h-4.6M3130.2,2305.8h4.6M3134.8,2352.6v108.6M3134.8,2509v64.6M3130.2,2573.6V2509M3130.2,2461.2v-50.5M3130.2,2406v-53.4M3130.2,2305.8v-218.2M2894.1,2406h236.1M3130.2,2410.7h-236.1" fill-opacity="0" stroke-linejoin="round" stroke-linecap="round" stroke="#023470" stroke-width="8.031" id="path_64"/><path fill="#023470" d="M3200.2,2236.1v0.4c0,4.4 3.6,8 8,8h3.1v12h-3.1c-4.4,0 -8,3.6 -8,8v0.4h-11.8V2236h11.8m8,-7.9h-27.9v44.9h27.9v-8.4h11.2v-28.1h-11.2v-8.4zM3200.2,2392.5v0.4c0,4.4 3.6,8 8,8h3.1v13h-3.1c-4.4,0 -8,3.6 -8,8v0.4h-11.8v-29.8h11.8m8,-8.1h-27.9v45.9h27.9v-8.4h11.2v-29h-11.2v-8.5z" id="path_65"/><path fill="#000000" d="M3204.5,3313.3v2.8M3204.5,2730.9v8.4M3204.5,2694.4v8.4M3204.5,2739.3v9.4M3204.5,2838.6v18.7M3204.5,2885.4v17.8M3204.5,2993.1v19.6M3204.5,3040.8v17.8M3204.5,3148.5v17.8M3204.5,3195.3v8.4M3166.4,3203.7v-44.9M3166.4,3049.2v-45.8M3166.4,3158.8v-109.6M3166.4,3003.4v-46.9M3166.4,2948.1v-208.8M2894.1,2573.6h236.1M3134.8,2573.6h45.6" fill-opacity="0" stroke-linejoin="round" stroke-linecap="round" stroke="#023470" stroke-width="8.031" id="path_66"/><path fill="#023470" d="M3200.3,2549.8c0.7,3.7 4,6.6 7.9,6.6h3.1v12h-23v-18.6h12m7.9,-8h-27.9v34.6h39v-28.1h-11.2v-6.5h0.1zM3196.5,3321.3v0.4c0,4.4 3.6,8 8,8h6.1l0.5,20.5h-25.5v-28.9h10.9m8,-8h-26.9v44.9h41.8l-0.9,-36.5h-13.9v-8.4h-0.1zM3196.5,3166.8c0.3,4.2 3.8,7.5 8,7.5h6.8v13h-6.8c-4.4,0 -8,3.6 -8,8v0.4h-22v-28.9h22m8,-8h-38.1v44.9h38.1v-8.4h14.9v-29h-14.9v-7.5z" id="path_67"/><path fill="#000000" d="M3177.6,3345.1H3041M3041,3316.1h136.6M3204.5,3316.1v5.6M3041,3345.1V3332M3166.4,2956.5h-272.3M2894.1,2948.1h272.3" fill-opacity="0" stroke-linejoin="round" stroke-linecap="round" stroke="#023470" stroke-width="8.031" id="path_68"/><path fill="#023470" d="M3196.5,2702.4v0.4c0,4.4 3.6,8 8,8h6.8v12h-6.8c-4.4,0 -8,3.6 -8,8v0.4h-22v-28.9h22m8,-7.9h-38.1v44.9h38.1v-8.4h14.9v-28.1h-14.9v-8.4zM3196.5,2856.9v0.4c0,4.4 3.6,8 8,8h6.8v12h-6.8c-4.4,0 -8,3.6 -8,8v0.4h-22v-28.9h22m8,-7.9h-38.1v44.9h38.1v-8.4h14.9v-28.1h-14.9v-8.4zM3196.5,3011.4v1.3c0,4.4 3.6,8 8,8h6.8v12h-6.8c-4.4,0 -8,3.6 -8,8v0.4h-22v-29.8h22m8,-7.9h-38.1v45.9h38.1v-8.4h14.9v-28.1h-14.9v-9.4z" id="path_69"/><path fill="#000000" d="M3218.5,3509h-10.3M3208.2,3409.7h10.3M3218.5,3457.5h-10.3M3218.5,3358.2v51.5M3218.5,3457.5v51.5M3208.2,3509v-51.5M3208.2,3409.7v-51.5M3041,3332h-112.5M2899.7,3316.1H3041M2899.7,3316.1h28.8M2928.5,3332v13.1M2894.1,3316.1h5.6M2928.5,3345.1h-34.4M1083.9,631.6l-33.5,11.3M1005.8,656.9h0M969.6,669.1l-78.1,26.2M846,710.3l-74.4,24.3M638.7,778.6h0M1047.6,633.5l2.8,9.4" fill-opacity="0" stroke-linejoin="round" stroke-linecap="round" stroke="#023470" stroke-width="8.031" id="path_70"/><path fill="#000000" d="m996.8,634 l30.5,-0.6 20.3,-0.3" fill-opacity="0" stroke-linejoin="round" stroke-linecap="round" stroke="#023470" stroke-width="6.418" id="path_71"/><path fill="#000000" d="M630.4,755.2h0.9M739.1,718.7l3.7,-0.9 9.3,-2.8 86.4,-29.1M883.1,671l115.3,-37.5M1043,618.5h0M1005.8,656.9l-2.8,-9.3 -1.8,-4.7 -1,-1.9 -1.8,-7.5 46.9,-14.8M883.1,671l8.4,24.3M846,710.3l-7.5,-24.4M739.1,718.7v1l6.5,19.6M638.7,778.6l-1.8,-5.6 -5.6,-17.8M630.4,755.2h0M751.2,1095.1v252.8M751.2,1373.2v381.1" fill-opacity="0" stroke-linejoin="round" stroke-linecap="round" stroke="#023470" stroke-width="8.031" id="path_72"/><path fill="#000000" d="M724.2,1791.7v-693.8" fill-opacity="0" stroke-linejoin="round" stroke-linecap="round" stroke="#023470" stroke-width="50.196" id="path_73"/><path fill="#000000" d="M771.6,734.6 L806,832M821.8,877l8.4,22.4 0.9,2.8 60.4,170.4M863.6,1072.6l-65.9,-187.2M781.9,840.4l-34.4,-97.3 -1.9,-3.8M821.8,877l-24.1,8.4M781.9,840.4 L806,832M714.9,610.1 L752.1,715M742.8,717.8l-36.2,-104M942.6,535.2l-227.7,74.9 -8.3,3.7 -15.8,4.7M609.9,645.7l-16.7,4.7 -8.4,3.7 -305.7,100.2M268.9,725.3l331.7,-109.6M680.6,589.5 L925.9,508M680.6,589.5l10.2,29M609.9,645.7l-9.3,-30M593.2,650.4l11.2,29.9M620.2,725.3l10.2,29.9 -2.8,1M621.1,758l-10.2,-29.9M595.1,683.1l-10.3,-29M620.2,725.3l-9.3,2.8M595.1,683.1l9.3,-2.8" fill-opacity="0" stroke-linejoin="round" stroke-linecap="round" stroke="#023470" stroke-width="8.031" id="path_74"/><path fill="#000000" d="M316.3,858.2 L440.8,818l180.3,-60 6.5,-1.8 2.8,-1" fill-opacity="0" stroke-linejoin="round" stroke-linecap="round" stroke="#023470" stroke-width="8.031" id="path_75"/><path fill="#000000" d="M616.4,792.7 L450.1,847 294,899.4l-9.3,-29" fill-opacity="0" stroke-linejoin="round" stroke-linecap="round" stroke="#023470" stroke-width="51" id="path_76"/><path fill="#023470" d="m972.4,444.7 l22.3,60.6 -53.8,21.2 -21.6,-59.9 53.1,-21.9m4.6,-10.6 l-67.8,28.1 26.9,74.9 68.8,-27.2 -27.9,-75.8z" id="path_77"/><path fill="#000000" d="m1000.2,394.7 l83.7,236.9" fill-opacity="0" stroke-linejoin="round" stroke-linecap="round" stroke="#023470" stroke-width="50.196" id="path_78"/><path fill="#000000" d="M284.7,870.4h0M279.1,754.3l37.2,103.9M5580.7,472.5l323.4,141.3M5979.4,647.6l184,80.5M6202.4,744.9l83.7,36.5M6275.8,804.9l-83.6,-36.6M6153.2,751.5l-177.5,-77.7 -4.7,-1.9 -1.8,-0.9M5893.9,638.2l-24.2,-11.2 -4.6,-1.9 -294.6,-129.2M6202.4,744.9l-10.2,23.4M6153.2,751.5l10.2,-23.4M5979.4,647.6l-10.2,23.4M5893.9,638.2l10.2,-24.4M5523.1,604.5l168.2,74M5729.4,695.3l89.2,38.4 4.7,1.9 12.1,5.6M5918.1,777.7l5.5,1.9M5918.1,777.7l-12.1,29M5823.3,770.2l-12.1,-4.7M5792.6,757.1l-75.3,-32.8" fill-opacity="0" stroke-linejoin="round" stroke-linecap="round" stroke="#023470" stroke-width="8.031" id="path_79"/><path fill="#000000" d="m5679.2,707.5 l-74.3,-32.8 -45.5,-19.7 -77.2,-33.7" fill-opacity="0" stroke-linejoin="round" stroke-linecap="round" stroke="#023470" stroke-width="50.196" id="path_80"/><path fill="#000000" d="m5823.3,770.2 l12.1,-29M5729.4,695.3l-12.1,29M5679.2,707.5l12.1,-29M5751.7,82l-0.9,0.9M5738.7,111l-126.4,290.3 -31.6,71.2M5570.5,495.9l-47.4,108.6" fill-opacity="0" stroke-linejoin="round" stroke-linecap="round" stroke="#023470" stroke-width="8.031" id="path_81"/><path fill="#000000" d="m5722.9,69.8 l28.8,12.2M5482.2,621.3l101.3,-233.1 139.4,-318.4" fill-opacity="0" stroke-linejoin="round" stroke-linecap="round" stroke="#023470" stroke-width="50.196" id="path_82"/><path fill="#000000" d="M801.4,134.4 L819,185M834.8,229.9l18.6,51.5M864.6,313.3l17.6,50.5M898,408.8l18.6,50.6 -7.4,1.8 -17.7,-49.6M875.7,366.7l-28.8,-83.4 -18.6,-50.5M812.5,187.8l-17.6,-51.5M898,408.8l-6.5,2.8M834.8,229.9l-6.5,2.9M812.5,187.8l6.5,-2.8" fill-opacity="0" stroke-linejoin="round" stroke-linecap="round" stroke="#023470" stroke-width="8.031" id="path_83"/><path fill="#023470" d="m910.7,270.4 l6.6,17.4 -54.2,18.2 -6,-17.6 53.6,-18m5,-9.6h-1.9l-66.9,22.5 11.2,32.8 69.7,-23.4 -12.1,-31.9z" id="path_84"/><path fill="#000000" d="m640.6,186.9 l68.8,-22.5M640.6,186.9l-0.9,0.9M633.2,165.3h0" fill-opacity="0" stroke-linejoin="round" stroke-linecap="round" stroke="#023470" stroke-width="8.031" id="path_85"/><path fill="#000000" d="M699.1,132.6 L885,71.7" fill-opacity="0" stroke-linejoin="round" stroke-linecap="round" stroke="#023470" stroke-width="50.196" id="path_86"/><path fill="#000000" d="m863.6,112.9 l-62.2,21.5 -6.5,1.9 -85.5,28.1M639.7,187.8l-138.5,45.9M639.7,187.8h0" fill-opacity="0" stroke-linejoin="round" stroke-linecap="round" stroke="#023470" stroke-width="8.031" id="path_87"/><path fill="#000000" d="m491,201.9 l208.1,-69.3" fill-opacity="0" stroke-linejoin="round" stroke-linecap="round" stroke="#023470" stroke-width="51" id="path_88"/><path fill="#000000" d="M5835.4,1080.1v704.5" fill-opacity="0" stroke-linejoin="round" stroke-linecap="round" stroke="#023470" stroke-width="55.785" id="path_89"/><path fill="#000000" d="M5801.9,1756.2v-383M5801.9,1346.1v-250M5811.2,765.5l-37.2,89.9M5757.3,894.7l-75.3,179.8M5659.7,1074.5l79,-188.2M5755.4,847l37.2,-89.9M5755.4,847l18.6,8.4M5757.3,894.7l-18.6,-8.4" fill-opacity="0" stroke-linejoin="round" stroke-linecap="round" stroke="#023470" stroke-width="8.031" id="path_90"/><path fill="#000000" d="m5946.9,824.5 l-53,122.7" fill-opacity="0" stroke-linejoin="round" stroke-linecap="round" stroke="#023470" stroke-width="50.196" id="path_91"/><path fill="#000000" d="m5867.9,935 l53,-121.7M5869.7,627l-46.4,108.6M5818.6,733.7l46.5,-108.6M5975.7,673.8l-14,29.9M5943.2,747.7l-13.1,29.1M5925.5,774.9l13,-29M5958,701.9l13,-30M5958,701.9l3.7,1.8M5943.2,747.7l-4.7,-1.8M6037.9,823.6l17.7,8.4M5925.5,774.9l4.6,1.9 107.8,46.8" fill-opacity="0" stroke-linejoin="round" stroke-linecap="round" stroke="#023470" stroke-width="8.031" id="path_92"/><path fill="#000000" d="m6040.7,865.7 l-93.8,-41.2" fill-opacity="0" stroke-linejoin="round" stroke-linecap="round" stroke="#023470" stroke-width="50.196" id="path_93"/><path fill="#000000" d="m5920.9,813.3 l-10.3,-4.7M5923.6,779.6l1.9,-4.7" fill-opacity="0" stroke-linejoin="round" stroke-linecap="round" stroke="#023470" stroke-width="8.031" id="path_94"/><path fill="#000000" d="m6485.9,404.1 l-241.7,550.6" fill-opacity="0" stroke-linejoin="round" stroke-linecap="round" stroke="#023470" stroke-width="50.196" id="path_95"/><path fill="#000000" d="M6216.4,942.5h0M6231.2,908.8l44.6,-103.9M6286.1,781.4l67.8,-155.4 90.1,-206M6244.2,954.7l-27.8,-12.2M6037.9,823.6l82.7,36.5M6055.6,832h0.9M6120.6,860.1l110.6,48.7" fill-opacity="0" stroke-linejoin="round" stroke-linecap="round" stroke="#023470" stroke-width="8.031" id="path_96"/><path fill="#000000" d="m6216.4,942.5 l-110.6,-48.7" fill-opacity="0" stroke-linejoin="round" stroke-linecap="round" stroke="#023470" stroke-width="50.196" id="path_97"/><path fill="#000000" d="m212.2,566.1 l2.8,7.5M137.9,353.5l74.3,212.6" fill-opacity="0" stroke-linejoin="round" stroke-linecap="round" stroke="#023470" stroke-width="8.031" id="path_98"/><path fill="#000000" d="m94.2,333.9 l5.6,-1.9 17.6,-6.5" fill-opacity="0" stroke-linejoin="round" stroke-linecap="round" stroke="#023470" stroke-width="51" id="path_99"/><path fill="#000000" d="m212.2,566.1 l2.8,7.5M501.2,233.7 L137.9,353.5" fill-opacity="0" stroke-linejoin="round" stroke-linecap="round" stroke="#023470" stroke-width="8.031" id="path_100"/><path fill="#000000" d="m117.4,325.5 l9.3,-2.9L491,201.9" fill-opacity="0" stroke-linejoin="round" stroke-linecap="round" stroke="#023470" stroke-width="51" id="path_101"/><path fill="#000000" d="m5750.8,82.9 l143.1,61.8 592,259.4" fill-opacity="0" stroke-linejoin="round" stroke-linecap="round" stroke="#023470" stroke-width="50.196" id="path_102"/><path fill="#000000" d="m6444,420 l-705.3,-309" fill-opacity="0" stroke-linejoin="round" stroke-linecap="round" stroke="#023470" stroke-width="8.031" id="path_103"/><path fill="#000000" d="m6105.8,893.8 l-65.1,-28.1" fill-opacity="0" stroke-linejoin="round" stroke-linecap="round" stroke="#023470" stroke-width="50.196" id="path_104"/><path fill="#000000" d="M5486.9,954.7h-10.3" fill-opacity="0" stroke-linejoin="round" stroke-linecap="round" stroke="#023470" stroke-width="8.031" id="path_105"/><path fill="#000000" d="m5893.9,947.2 l-58.5,132.9" fill-opacity="0" stroke-linejoin="round" stroke-linecap="round" stroke="#023470" stroke-width="50.196" id="path_106"/><path fill="#000000" d="m5867.9,935 l-61.4,139.5" fill-opacity="0" stroke-linejoin="round" stroke-linecap="round" stroke="#023470" stroke-width="8.031" id="path_107"/><path fill="#000000" d="m885,71.7 l115.2,323" fill-opacity="0" stroke-linejoin="round" stroke-linecap="round" stroke="#023470" stroke-width="50.196" id="path_108"/><path fill="#000000" d="m882.2,363.8 l-6.5,2.9" fill-opacity="0" stroke-linejoin="round" stroke-linecap="round" stroke="#023470" stroke-width="8.031" id="path_109"/><path fill="#000000" d="M284.7,870.4 L94.2,333.9" fill-opacity="0" stroke-linejoin="round" stroke-linecap="round" stroke="#023470" stroke-width="51" id="path_110"/><path fill="#000000" d="m215,573.6 l64.1,180.7" fill-opacity="0" stroke-linejoin="round" stroke-linecap="round" stroke="#023470" stroke-width="8.031" id="path_111"/><path fill="#000000" d="m616.4,792.7 l107.8,305.2" fill-opacity="0" stroke-linejoin="round" stroke-linecap="round" stroke="#023470" stroke-width="50.196" id="path_112"/><path fill="#000000" d="m743.8,1072.6 l-105.1,-294" fill-opacity="0" stroke-linejoin="round" stroke-linecap="round" stroke="#023470" stroke-width="8.031" id="path_113"/><path fill="#000000" d="M2963.8,1691.6H1016" fill-opacity="0" stroke-linejoin="round" stroke-linecap="round" stroke="#023470" stroke-width="50.196" id="path_114"/><path fill="#000000" d="M1016,1652.2h1947.8" fill-opacity="0" stroke-linejoin="round" stroke-linecap="round" stroke="#023470" stroke-width="30.117" id="path_115"/><path fill="#000000" d="M3180.4,2576.4h-286.3" fill-opacity="0" stroke-linejoin="round" stroke-linecap="round" stroke="#023470" stroke-width="8.031" id="path_116"/></svg>