<svg id="vector" xmlns="http://www.w3.org/2000/svg" width="4017" height="2603" viewBox="0 0 4017 2603"><path fill="#000000" d="M3733,2223.9v-9.1M3733,2171.3v9.7M3850.9,2168.4v1.7M3872.1,2168.4h-21.2M3872.1,2225.7v-57.3M3733,2181v44.1M3733,2195.9V2181M3779.4,2153.5h5.7M3779.4,2166.1v-12.6M3762.8,2166.1h16.6M3731.8,2166.1h31M3731.8,2163.8v2.3M3729.5,2163.8h2.3M3726.7,2103.7v60.1M3726.7,2103.7v6.3M3633.3,2098h89.9M3515.4,2227.4h97.3M3511.9,2098h3.5M3401.4,2227.4h110.5M3375.1,2251.4h-29.8M3375.1,2227.4v24M3375.1,2229.7v-2.3M3304.1,2227.4h0M3307.5,2103.7h-3.4M2379.9,2250.9h2.8M2379.9,2233.1h-27M2379.9,2232v1.1M2379.9,2250.9V2232M2379.9,2230.2v20.7M2352.9,2230.2v20.7M2352.9,2230.2v-2.8M2379.9,2230.2h-27M2379.9,2227.4v2.8M2379.9,2227.4V2098M2312.3,2227.4h40.6M2312.3,2103.7v123.7M2315.1,2103.7h-2.8M2382.7,2250.9v-18.4M2382.7,2230.2v-2.8M2409.6,2230.2h-26.9M2447.4,2227.4h-2.3M2382.7,2165.5v61.9M2382.7,2165.5V2098M2496.1,2251.4h-49.3M2496.1,2227.4h-45.2M2521.9,2232.5h-25.8M2521.9,2251.4v-18.9M2521.9,2230.2v21.2M2496.1,2230.2v21.2M2496.1,2230.2v-2.8M2521.9,2230.2h-25.8M2521.9,2227.4v2.8M2521.9,2227.4V2098M2450.9,2227.4h45.2M2450.9,2103.7v123.7M2447.4,2103.7h3.5M2447.4,2103.7v123.7M2457.2,2103.7h-2.9M2635.2,2251.4h-113.3M2662.2,2232.5h-27M2662.2,2251.4v-18.9M2662.2,2230.2v21.2M2635.2,2230.2v21.2M2635.2,2230.2v-2.8M2662.2,2230.2h-27M2662.2,2230.2h-3.5M2662.2,2227.4v2.8M2733.7,2227.4h-40.6M2525.9,2227.4V2098M2591.7,2227.4h-65.8M2589.4,2103.7h2.3M2733.7,2147.2v80.2M2733.7,2103.7v72.1M2730.9,2103.7h2.8M2735.5,2227.4h1.1M2735.5,2162.1v65.3M2735.5,2162.1v-58.4M2237.8,2227.4h0M2237.8,2250.9h115.1M2210.4,2229.7h27.4M2210.4,2227.4v2.3M2237.8,2232h-27.4M2237.8,2250.9V2232M2237.8,2230.8v20.1M2210.4,2230.8v20.1M2210.4,2230.8v-3.4M2237.8,2227.4v3.4M2308.3,2227.4h-70.5M2308.3,2103.7v123.7M2306,2103.7h2.3M2095.8,2250.9h3.5M2095.8,2233.1h-26.9M2095.8,2232v1.1M2095.8,2250.9V2232M2095.8,2230.2v20.7M2068.9,2230.2v20.7M2068.9,2230.2v-2.8M2095.8,2230.2h-26.9M2095.8,2227.4v2.8M2095.8,2165.5v61.9M2095.8,2165.5V2098M2028.8,2103.7v123.7M2031.7,2103.7h-2.9M1984.7,2250.9h84.2M1938.4,2227.4h-123.2M1984.7,2232h-26.9M1957.8,2230.2v-2.8M1984.7,2230.2h-26.9M2024.8,2227.4h-40.1M1965.3,2090.5h17.7M1965.3,2092.8h17.7M1949.2,2090.5h9.2M1949.2,2092.8h9.2M1920.6,2090.5h9.7M1920.6,2092.8h9.7M1868.5,2090.5h42.9M1868.5,2092.8h42.9M1965.3,2098v-12.1M1958.4,2098h6.9M1958.4,2085.9v12.1M1949.2,2098v-12.1M1930.3,2098h18.9M1930.3,2085.9v12.1M1920.6,2098v-12.1M1911.4,2098h9.2M1911.4,2085.9v12.1M2024.8,2103.7v123.7M2022,2103.7h2.8M1812.4,2250.9h3.4M1812.4,2227.4h3.4M1812.4,2232h-25.2M1812.4,2250.9V2232M1812.4,2230.8v20.1M1787.2,2230.8v20.1M1787.2,2230.8v-3.4M1812.4,2230.8h-25.2M1812.4,2227.4v3.4M1560.4,2250.9h83.6M1533.5,2232h26.9M1533.5,2250.9V2232M1534.6,2234.3h25.8M1533.5,2234.3h1.1M1533.5,2229.7v4.6M1533.5,2227.4v2.3M1278.1,2227.4c-4.4,1.1 -7.4,5.6 -7.4,10.9M1289.6,2227.4h-0.6M1270.7,2238.3v12.6M1293,2227.4h-3.4M1396.6,2227.4H1293M1181.3,2103.7h-2.3M1171.6,2103.7h2.9M1164.7,2306.4v-6.3M1094.9,2225.7h87M1116.6,2169h-6.3M1049.1,2169.5v2.9M1030.2,2169.5h18.9M1191.1,2238.3v-3.5M1191.1,2234.8c-0.9,-4.5 -4.2,-8.1 -9.2,-9.2M1030.2,2169.5h18.9M1048.5,2225.7h46.4M1048.5,2227.4v-1.7M1164.7,2305.8v1.2M1112.6,2283.5h52.1M1100.6,2269.2h84.7M1030.2,2383.1v-5.1M1033.6,2383.1h-3.4M1105.7,2383.1h-72.1M1109.8,2395.7h-1.8M1388.1,2323.6h0.5M1610.2,2250.9v49.2M1610.2,2277.8v-26.9M1976.1,2300.1h-7.4M2004.2,2319h-28.1M2004.2,2300.1v18.9M2004.2,2321.3v-21.2M2004.2,2321.3h-28.1M2004.2,2324.7v-3.4M2070.1,2324.7h-65.9M2167.4,2324.7v12M2070.1,2324.7h97.3M2276.2,2428.4h4M2276.2,2430.6v-2.2M2276.2,2414h4M2276.2,2411.8v2.2M2276.2,2406h4M2276.2,2408.3v-2.3M2276.2,2391.7h4M2276.2,2389.4v2.3M2276.2,2369.4h4M2276.2,2367.1v2.3M2276.2,2383.7h4M2276.2,2386v-2.3M2247,2411.8h29.2M2247,2408.3v3.5M2276.2,2408.3H2247M2276.2,2389.4v18.9M2247,2389.4h29.2M2247,2386v3.4M2276.2,2386H2247M2276.2,2367.1v18.9M2247,2430.6v-63.5M2276.2,2430.6H2247M2276.2,2367.1v63.5M2280.2,2367.1h-4M2243,2430.6v-19.4M2280.2,2433.5v-66.4M2247,2433.5h33.2M2243,2367.1v44.1M2170.8,2367.1h72.2M2212.1,2367.1h34.3M2441.7,2250.9h5.1M2462.9,2270.3v29.8M2462.9,2270.3v-18.9M2351.8,2321.3h27.5M2351.8,2324.7v-3.4M2379.3,2321.9v-2.3M2379.3,2324.7v-2.8M2379.3,2319v5.7M2379.3,2319v-18.9M2351.8,2319h27.5M2351.8,2300.1v18.9M2351.8,2324.7v-24.6M2316.9,2324.7h34.9M2561.9,2300.1h-66.4M2589.4,2449h3.5M2730.9,2449h2.3M3711.8,2248v-13.7M3742.7,2307l-5.1,-6.9M3790.2,2307h-47.5M3302.4,2292.7h-3.5M3302.4,2300.1v-7.4M3298.9,2258.3h3.5M3298.9,2251.4v6.9M3298.9,2270.3v29.8M3298.9,2270.3v-18.9M3302.4,2270.3v-18.9M3302.4,2270.3v29.8M3206.2,2300.1h-85.4M3206.2,2324.7h-43.6M3206.2,2321.3h26.3M3206.2,2324.7v-3.4M3206.2,2324.7v-2.3M3206.2,2319v5.7M3206.2,2319v-18.9M3232.5,2319h-26.3M3232.5,2300.1v18.9M3232.5,2324.7v-24.6M3024.1,2324.7h23.4M2778.4,2321.3h26.9M2778.4,2324.7v-3.4M2778.4,2324.7v-2.3M2778.4,2319v5.7M2778.4,2319v-18.9M2805.3,2319h-26.9M2737.7,2324.7h40.7M2734.3,2324.7h4.6M2735.5,2449v-124.3M2740.6,2449h-2.9M3093.9,2324.7h-69.8M3206.2,2324.7h-85.4M3235.4,2324.7h-2.9M3443.2,2449v-124.3M3439.8,2449h3.4M3446.7,2324.7h111.1M3446.7,2449v-124.3M3449,2449h-2.3M3877.9,2340.2v21.2M3875.6,2340.2v21.2M3877.9,2324.7v12M3875.6,2324.7v12M3884.7,2361.4h-15.4M3884.7,2340.2h-15.4M3869.3,2336.7h15.4M3869.3,2324.7v12M3884.7,2324.7h-15.4M3806.8,2396.9v12M3804,2396.9v12M3811.4,2408.9h-12M3799.4,2396.9h12M3726.7,2350.5h-2.9M3726.7,2355.6v-5.1M3726.7,2331.6v24M3723.8,2331.6h2.9M3723.8,2324.7v6.9M3796,2324.7h-24.7M3796,2328.2v-3.5M3854.9,2328.2H3796M3854.9,2324.7v3.5M3869.3,2324.7h-14.4M3737,2359.6v-5.1M3726.7,2359.6h10.3M3726.7,2383.1v-23.5M3869.3,2324.7h-14.4M3869.3,2383.1v-58.4M3781.1,2383.1h88.2M3726.7,2324.7h44.6M3726.7,2325.9v-1.2M3726.7,2383.1v-57.2M3723.8,2422.6v2.3M3723.8,2446.1v-23.5M3726.7,2449v-2.9M3788.5,2396.9h10.9M3788.5,2398v-1.1M3781.1,2398h7.4M3781.1,2383.1v14.9M3726.7,2418.6v-33.2M3737,2418.6h-10.3M3737,2422.6v-4M3726.7,2422.6h10.3M3726.7,2449v-26.4M3726.7,2449v-124.3M3732.4,2449h-5.7M3723.8,2324.7V2449M3561.2,2324.7h69.8M3591,2449h-6.3M1811.2,2454.7h4.6M1784.9,2454.7h12M1763.7,2454.7h9.7M1486,2454.7h9.7M1467.1,2454.7h9.7M3548.6,2454.7h18.9M3513.1,2454.7h2.3M3487.3,2454.7h13.8M3458.7,2454.7h14.3M3385.4,2454.7h7.4M3343,2454.7h12M3186.7,2454.7h4.6M3063.6,2454.7h16.6M3049.8,2454.7h4.6M2926.7,2454.7h12M2905.5,2454.7h6.9M2680.5,2454.7h6.9M2661.6,2454.7h4.6M2633,2454.7h14.3M2611.8,2454.7h9.7M2557.4,2454.7h14.3M2535,2454.7h-1.1M2535,2454.7h3.5M2489.2,2454.7h13.8M2470.3,2454.7h4.6M2419.9,2454.7h16.6M2394.2,2454.7h12M2348.9,2454.7h12.1M2273.3,2454.7h14.4M2247.6,2454.7h6.8M2232.7,2454.7h5.1M2068.3,2454.7h13.8M2051.7,2454.7h4.6M1191.1,2454.7v12M1200.2,2454.7h-9.1M1200.2,2466.7v-12M1214.5,2454.7v12M1223.7,2454.7h-9.2M1223.7,2454.7v12M1250.1,2454.7v12M1259.2,2454.7h-9.1M1259.2,2466.7v-12M1278.1,2454.7v12M1292.4,2454.7h-14.3M1292.4,2466.7v-12M1330.2,2454.7v12M1340,2454.7h-9.8M1340,2466.7v-12M1351.4,2454.7v12M1361.1,2454.7h-9.7M1361.1,2466.7v-12M1389.2,2454.7v12M1398.9,2454.7h-9.7M1398.9,2466.7v-12M1412.7,2454.7v12M1429.3,2454.7h-16.6M1429.3,2466.7v-12M1467.1,2466.7v-12M1476.8,2454.7v12M1486,2466.7v-12M1495.7,2454.7v12M1510,2454.7v12M1514.6,2454.7h-4.6M1514.6,2466.7v-12M1526.6,2454.7v12M1535.8,2454.7h-9.2M1535.8,2466.7v-12M1554.7,2454.7v12M1573.6,2454.7h-18.9M1573.6,2466.7v-12M1614.8,2454.7v12M1619.4,2454.7h-4.6M1619.4,2466.7v-12M1631.4,2454.7v12M1643.4,2454.7h-12M1643.4,2466.7v-12M1662.3,2454.7v12M1666.9,2454.7h-4.6M1666.9,2466.7v-12M1679,2454.7v12M1688.1,2454.7h-9.1M1688.1,2466.7v-12M1707,2454.7v12M1721.3,2454.7H1707M1721.3,2466.7v-12M1763.7,2466.7v-12M1773.4,2454.7v12M1784.9,2466.7v-12M1796.9,2454.7v12M1811.2,2454.7v12M1815.8,2454.7v12M1828.4,2454.7v12M1838.1,2454.7h-9.7M1838.1,2466.7v-12M1854.7,2454.7v12M1868.5,2454.7h-13.8M1868.5,2466.7v-12M1991,2454.7v12M2014.5,2454.7H1991M2014.5,2466.7v-12M2051.7,2466.7v-12M2056.3,2454.7v12M2067.8,2466.7v-12M2082.1,2454.7v12M2096.4,2454.7v12M2101,2454.7h-4.6M2101,2466.7v-12M2115.3,2454.7v12M2119.9,2454.7h-4.6M2119.9,2466.7v-12M2136.5,2454.7v12M2153.1,2454.7h-16.6M2153.1,2466.7v-12M2183.4,2454.7v12M2192.6,2454.7h-9.2M2192.6,2466.7v-12M2204.6,2454.7v12M2218.9,2454.7h-14.3M2218.9,2454.7v12M2232.7,2466.7v-12M2237.8,2454.7v12M2247.6,2466.7v-12M2254.4,2454.7v12M2273.3,2466.7v-12M2287.7,2466.7v-12M2330,2454.7v12M2337.5,2454.7h-7.5M2337.5,2454.7v12M2348.9,2466.7v-12M2361,2454.7v12M2379.9,2454.7v12M2384.4,2454.7h-4.5M2384.4,2454.7v12M2394.2,2466.7v-12M2406.2,2454.7v12M2419.9,2466.7v-12M2436.5,2466.7v-12M2470.3,2456.4v-1.7M2470.3,2466.7v-10.3M2474.9,2454.7v12M2489.2,2466.7v-12M2503,2454.7v12M2533.9,2466.7v-12M2538.5,2454.7v12M2557.4,2466.7v-12M2571.7,2454.7v12M2571.7,2460.4v-5.7M2611.8,2466.7v-12M2621.5,2454.7v12M2633,2466.7v-12M2647.3,2454.7v12M2661.6,2466.7v-12M2666.2,2454.7v12M2680.5,2466.7v-12M2687.4,2454.7v12M2701.7,2454.7v12M2720.6,2454.7h-18.9M2720.6,2466.7v-12M2758.9,2454.7v12M2766.4,2454.7h-7.5M2766.4,2466.7v-12M2780.1,2454.7v12M2794.4,2454.7h-14.3M2794.4,2466.7v-12M2827.6,2454.7v12M2832.2,2454.7h-4.6M2832.2,2466.7v-12M2846.5,2454.7v12M2863.2,2454.7h-16.7M2863.2,2466.7v-12M2905.5,2466.7v-12M2912.4,2454.7v12M2926.7,2466.7v-12M2938.7,2454.7v12M2971.4,2454.7v12M2978.8,2454.7h-7.4M2978.8,2466.7v-12M2993.1,2454.7v12M3006.9,2454.7h-13.8M3006.9,2466.7v-12M3049.8,2466.7v-12M3054.4,2454.7v12M3063.6,2466.7v-12M3080.2,2454.7v12M3111.1,2454.7v12M3120.3,2454.7h-9.2M3120.3,2466.7v-12M3134.6,2454.7v12M3148.9,2454.7h-14.3M3148.9,2466.7v-12M3186.7,2466.7v-12M3191.3,2454.7v12M3203.3,2466.7v-12M3217.6,2454.7v12M3231.4,2454.7v12M3148.9,2454.7h-4.6M3217.6,2454.7h-14.3M3234.2,2454.7h-2.8M3234.2,2466.7v-12M3246.2,2454.7v12M3255.4,2454.7h-9.2M3255.4,2466.7v-12M3269.7,2454.7v12M3284,2454.7h-14.3M3284,2466.7v-12M3321.8,2454.7v12M3328.7,2454.7h-6.9M3328.7,2454.7v12M3343,2466.7v-12M3355,2454.7v12M3385.4,2466.7v-12M3392.8,2466.7v-12M3411.7,2454.7v12M3425.5,2454.7h-13.8M3425.5,2466.7v-12M3458.7,2466.7v-12M3473,2454.7v12M3487.3,2466.7v-12M3501.1,2454.7v12M3548.6,2466.7v-12M3534.3,2454.7v12M3524.5,2454.7h9.8M3524.5,2466.7v-12M3515.4,2454.7v12M3513.1,2454.7v12M3567.5,2466.7v-12M3605.3,2454.7v12M3614.4,2454.7h-9.1M3614.4,2466.7v-12M3628.8,2454.7v12M3643.1,2454.7h-14.3M3643.1,2466.7v-12M3671.1,2454.7v12M3680.9,2454.7h-9.8M3680.9,2466.7v-12M3694.6,2454.7v12M3711.2,2454.7h-16.6M3711.2,2466.7v-12M3723.2,2458.1h6.9M3723.2,2449h9.2v9.2h-9.2zM3723.2,2449v5.7M3723.2,2449h2.3M3732.4,2458.1v-9.1M3723.2,2458.1h9.2M3723.2,2449v9.1M3732.4,2449h-9.2,6.3M3732.4,2449v9.1M3723.2,2449h9.2M3723.2,2458.1v-9.1M3732.4,2458.1h-9.2M2447.4,2245.7v-9.7M2457.2,2245.7h-9.8M2457.2,2236v9.7M2447.4,2236h9.8M1181.3,2236v9.7M1171.6,2245.7v-9.7h9.7M1181.3,2245.7h-9.7M1181.3,2449h-6.3M1597.1,2449h2.3M3581.2,2449h6.3M3024.1,2449h-2.9M3014.3,2449h1.2M2589.4,2449h2.9M2173.1,2449h-2.3M2078.6,2454.7h-3.4M2164,2449h2.3M1171.6,2449h9.7v9.2h-9.7zM1322.8,2458.1h-9.2M1313.6,2449h9.2M1313.6,2449v5.7M1313.6,2458.1v-9.1M1322.8,2449h-2.3M1322.8,2449v9.1M1322.8,2245.7h-9.2M1313.6,2236h9.2M1313.6,2307h9.2M1322.8,2316.7h-9.2M1313.6,2245.7v-9.7M1313.6,2316.7v-9.7M1322.8,2236v9.7M1322.8,2307v9.7M2447.4,2449h9.8M2457.2,2458.1h-9.8M2457.2,2316.7h-9.8M2447.4,2307h9.8M1455.1,2449v5.7M1455.1,2449h9.7v9.2h-9.7zM1597.1,2449h9.2v9.2h-9.2zM1606.2,2449v5.7M1597.1,2449h2.3M1597.1,2449v5.7" fill-opacity="0" stroke-linejoin="round" stroke-linecap="round" stroke="#023470" stroke-width="2" id="path_0"/><path fill="#000000" d="M1597.1,2449h9.2v9.2h-9.2zM1455.1,2236h9.7v9.7h-9.7zM1455.1,2316.7v-9.7M1464.8,2316.7h-9.7M1464.8,2307v9.7M1455.1,2307h9.7M1597.1,2316.7v-9.7M1606.2,2316.7h-9.1M1606.2,2307v9.7M1597.1,2307h9.1M1597.1,2236h9.2v9.7h-9.2zM1597.1,2316.7v-9.7M1606.2,2316.7h-9.1M1606.2,2307v9.7M1597.1,2307h9.1M1738.5,2449h9.7v9.1h-9.7v-9.1,5.7" fill-opacity="0" stroke-linejoin="round" stroke-linecap="round" stroke="#023470" stroke-width="2" id="path_1"/><path fill="#000000" d="M1738.5,2449h9.7v9.2h-9.7zM1889.7,2454.7v-5.7h-9.2v9.1h0.6" fill-opacity="0" stroke-linejoin="round" stroke-linecap="round" stroke="#023470" stroke-width="2" id="path_2"/><path fill="#000000" d="M1880.5,2449h9.2v9.2h-9.2zM1738.5,2316.7v-9.7M1748.2,2316.7h-9.7M1748.2,2307v9.7M1738.5,2307h9.7M1738.5,2236h9.7v9.7h-9.7zM1738.5,2316.7v-9.7M1748.2,2316.7h-9.7M1748.2,2307v9.7M1738.5,2307h9.7M1880.5,2316.7v-9.7M1889.7,2316.7h-9.2M1889.7,2307v9.7M1880.5,2307h9.2M1880.5,2236h9.2v9.7h-9.2zM1880.5,2316.7v-9.7M1889.7,2316.7h-9.2M1889.7,2307v9.7M1880.5,2307h9.2M2022,2449v5.7M2031.7,2449v9.1M2022,2458.1v-9.1h9.7M2031.7,2458.1h-9.7M2164,2449h1.1M2164,2449v5.7M2164,2449h9.2v9.2h-9.2zM2031.7,2236v9.7M2022,2245.7v-9.7h9.7M2031.7,2245.7h-9.7M2031.7,2307v9.7M2022,2316.7v-9.7M2031.7,2316.7h-9.7M2022,2307h9.7M2164,2236h9.2v9.7h-9.2zM2164,2316.7v-9.7M2173.1,2316.7h-9.1M2173.1,2307v9.7M2164,2307h9.1M2306,2449v5.7M2306,2449h6.3M2306,2449h9.2v9.2h-9.2zM2447.4,2449h3.5M2447.4,2458.1v-9.1M2306,2236h9.2v9.7h-9.2zM2306,2316.7v-9.7M2315.1,2316.7h-9.1M2315.1,2307v9.7M2306,2307h9.1M2447.4,2316.7v-9.7M2457.2,2449v5.7M2457.2,2449v9.1M2589.4,2449h1.2M2598.6,2449v5.7M2589.4,2449h9.2v9.2h-9.2zM2457.2,2307v9.7M2589.4,2236h9.2v9.7h-9.2zM2589.4,2316.7v-9.7M2598.6,2316.7h-9.2M2598.6,2307v9.7M2589.4,2307h9.2M2730.9,2449h1.7M2740.6,2449h-1.7M2730.9,2449h9.7v9.2h-9.7zM2872.9,2449h9.2v9.2h-9.2zM2730.9,2236h9.7v9.7h-9.7zM2730.9,2316.7v-9.7M2740.6,2316.7h-9.7M2740.6,2307v9.7M2730.9,2307h9.7M2872.9,2236h9.2v9.7h-9.2zM2872.9,2316.7v-9.7M2882,2316.7h-9.1M2882,2307v9.7M2872.9,2307h9.1M3024.1,2449v5.7M3014.3,2449v5.7M3014.3,2449h9.7v9.2h-9.7zM3156.3,2449h2.3M3165.5,2449v5.7M3165.5,2449h-2.9M3156.3,2449h9.2v9.2h-9.2zM3014.3,2236h9.8v9.7h-9.8v-9.7h9.8v9.7h-9.8zM3014.3,2316.7v-9.7M3024.1,2316.7h-9.8M3024.1,2307v9.7M3014.3,2307h9.8M3156.3,2236h9.2v9.7h-9.2v-9.7h9.2v9.7h-9.2zM3156.3,2316.7v-9.7M3165.5,2316.7h-9.2M3165.5,2307v9.7M3156.3,2307h9.2M3307.5,2449v5.7M3297.8,2449h9.7v9.2h-9.7zM3449,2449v5.7M3439.8,2449h9.2v9.2h-9.2zM3297.8,2236h9.7v9.7h-9.7zM3297.8,2316.7v-9.7M3307.5,2316.7h-9.7M3307.5,2307v9.7M3297.8,2307h9.7M3439.8,2236h9.2v9.7h-9.2zM3439.8,2316.7v-9.7M3449,2316.7h-9.2M3449,2307v9.7M3439.8,2307h9.2M3581.2,2449h9.7v9.2h-9.7zM3581.2,2236h9.7v9.7h-9.7zM3581.2,2316.7v-9.7M3591,2316.7h-9.8M3591,2307v9.7M3581.2,2307h9.8M3732.4,2449v5.7M3723.2,2449v5.7M3723.2,2449h9.2v9.2h-9.2zM3723.2,2316.7v-9.7M3732.4,2316.7h-9.2M3732.4,2307v9.7M3723.2,2307h9.2M3723.2,2236h9.2v9.7h-9.2zM3723.2,2316.7v-9.7M3732.4,2316.7h-9.2M3732.4,2307v9.7M3723.2,2307h9.2M2006.5,2454.7h15.5M2049.4,2454.7h-17.7M2049.4,2454.7H2164M2183.4,2454.7h-10.3M2188.6,2454.7H2306M2327.7,2454.7h-12.6M2327.7,2454.7h119.7M2470.3,2454.7h-13.1M2469.8,2454.7h119.6M2611.8,2454.7h-13.2M2616.3,2454.7h114.6M2758.9,2454.7h-18.3M2762.4,2454.7h110.5M2905.5,2454.7H2882M2912.4,2454.7h101.9M3049.8,2454.7h-25.7M3054.4,2454.7h101.9M3186.7,2454.7h-21.2M3191.3,2454.7h106.5M3321.8,2454.7h-14.3M3328.7,2454.7h111.1M3458.7,2454.7h-9.7M3473,2454.7h108.2M3605.3,2454.7H3591M3614.4,2454.7h108.8M1880.5,2454.7h-132.3M1738.5,2454.7h-132.3M1597.1,2454.7h-132.3M1455.1,2454.7h-132.3M1313.6,2454.7h-132.3M3694.6,2461.6h-13.7M3694.6,2459.3h-13.7M3671.1,2461.6h-28M3671.1,2459.3h-28M3628.8,2461.6h-14.4M3628.8,2459.3h-14.4M3605.3,2461.6h-37.8M3605.3,2459.3h-37.8M3548.6,2461.6h-14.3M3548.6,2459.3h-14.3M3524.5,2461.6h-9.1M3524.5,2459.3h-9.1M3513.1,2461.6h-12M3513.1,2459.3h-12M3487.3,2461.6H3473M3487.3,2459.3H3473M3458.7,2461.6h-33.2M3458.7,2459.3h-33.2M3411.7,2461.6h-18.9M3411.7,2459.3h-18.9M3385.4,2461.6h-9.2M3385.4,2459.3h-9.2M3376.2,2461.6H3355M3376.2,2459.3H3355M3343,2461.6h-14.3M3343,2459.3h-14.3M3321.8,2461.6H3284M3321.8,2459.3H3284M3269.7,2461.6h-14.3M3269.7,2459.3h-14.3M3246.2,2461.6h-12M3246.2,2459.3h-12M3231.4,2461.6h-13.8M3231.4,2459.3h-13.8M3203.3,2461.6h-12M3203.3,2459.3h-12M3186.7,2461.6h-37.8M3186.7,2459.3h-37.8M3134.6,2461.6h-14.3M3134.6,2459.3h-14.3M3111.1,2461.6h-30.9M3111.1,2459.3h-30.9M3063.6,2461.6h-9.2M3063.6,2459.3h-9.2M3049.8,2461.6h-42.9M3049.8,2459.3h-42.9M2993.1,2461.6h-14.3M2993.1,2459.3h-14.3M2971.4,2461.6h-32.7M2971.4,2459.3h-32.7M2926.7,2461.6h-14.3M2926.7,2459.3h-14.3M2905.5,2461.6l-42.3,0.5M2905.5,2459.3h-42.3M2846.5,2462.1h-14.3M2846.5,2459.3h-14.3M2827.6,2462.1h-33.2M2827.6,2459.3h-33.2M2780.1,2462.1h-13.7M2780.1,2459.3h-13.7M2758.9,2462.1l-38.3,-0.5M2758.9,2459.3h-38.3M2701.7,2462.1h-14.3M2701.7,2459.3h-14.3M2680.5,2462.1h-14.3M2680.5,2459.3h-14.3M2661.6,2462.1h-14.3M2661.6,2459.3h-14.3M2633,2461.6h-11.5M2633,2459.3h-11.5M2611.8,2461.6h-40.1M2611.8,2459.3h-40.1M2557.4,2461.6h-18.9M2557.4,2459.3h-18.9M2533.9,2461.6H2503M2533.9,2459.3H2503M2489.2,2461.6h-14.3M2489.2,2459.3h-14.3M2470.3,2462.7h-33.8M2470.3,2460.4h-33.8M2419.9,2461.6h-13.7M2419.9,2459.3h-13.7M2394.2,2461.6h-9.8M2394.2,2459.3h-9.8M2379.9,2461.6H2361M2379.9,2459.3H2361M2348.9,2461.6h-11.4M2348.9,2459.3h-11.4M2330,2461.6h-42.3M2330,2459.3h-42.3M2273.3,2461.6h-18.9M2273.3,2459.3h-18.9M2247.6,2461.6h-9.8M2247.6,2459.3h-9.8M2232.7,2461.6h-13.8M2232.7,2459.3h-13.8M2204.6,2461.6h-12M2204.6,2459.3h-12M2183.4,2461.6h-30.3M2183.4,2459.3h-30.3M2136.5,2461.6h-16.6M2136.5,2459.3h-16.6M2115.3,2461.6H2101M2115.3,2459.3H2101M2096.4,2461.6h-14.3M2096.4,2459.3h-14.3M2067.8,2461.6h-11.5M2067.8,2459.3h-11.5M2051.7,2461.6h-37.2M2051.7,2459.3h-37.2M1854.7,2461.6h-16.6M1854.7,2459.3h-16.6M1828.4,2461.6h-12.6M1828.4,2459.3h-12.6M1811.2,2461.6h-14.3M1811.2,2459.3h-14.3M1784.9,2461.6h-11.5M1784.9,2459.3h-11.5M1763.7,2461.6h-42.4M1763.7,2459.3h-42.4M1707,2461.6h-18.9M1707,2459.3h-18.9M1679,2461.6h-12.1M1679,2459.3h-12.1M1662.3,2461.6h-18.9M1662.3,2459.3h-18.9M1631.4,2461.6h-12M1631.4,2459.3h-12M1614.8,2461.6h-41.2M1614.8,2459.3h-41.2M1554.7,2461.6h-18.9M1554.7,2459.3h-18.9M1526.6,2461.6h-12M1526.6,2459.3h-12M1510,2461.6h-14.3M1510,2459.3h-14.3M1486,2461.6h-9.2M1486,2459.3h-9.2M1467.1,2461.6h-37.8M1467.1,2459.3h-37.8M1412.7,2461.6h-13.8M1412.7,2459.3h-13.8M1389.2,2461.6h-28.1M1389.2,2459.3h-28.1M1351.4,2461.6H1340M1351.4,2459.3H1340M1330.2,2461.6h-37.8M1330.2,2459.3h-37.8M1278.1,2461.6h-18.9M1278.1,2459.3h-18.9M1250.1,2461.6h-26.4M1250.1,2459.3h-26.4M1214.5,2461.6h-14.3M1214.5,2459.3h-14.3M1214.5,2092.8h-14.3M1214.5,2090.5h-14.3M1250.1,2092.8h-26.4M1250.1,2090.5h-26.4M1278.1,2092.8h-18.9M1278.1,2090.5h-18.9M1337.1,2092.8h-44.7M1337.1,2090.5h-44.7M1358.3,2092.8h-11.5M1358.3,2090.5h-11.5M1385.8,2092.8H1368M1385.8,2090.5H1368M1423,2092.8h-14.9M1423,2090.5h-14.9M1481.4,2092.8h-41.8M1481.4,2090.5h-41.8M1500.3,2092.8h-9.2M1500.3,2090.5h-9.2M1528.9,2092.8H1510M1528.9,2090.5H1510M1545.5,2092.8h-12M1545.5,2090.5h-12M1569,2092.8h-14.3M1569,2090.5h-14.3M1618.8,2092.8h-30.9M1618.8,2090.5h-30.9M1635.4,2092.8h-12M1635.4,2090.5h-12M1665.8,2092.8h-18.9M1665.8,2090.5h-18.9M1682.4,2092.8h-11.5M1682.4,2090.5h-11.5M1711,2092.8h-18.9M1711,2090.5h-18.9M1763.7,2092.8h-38.9M1763.7,2090.5h-38.9M1784.9,2092.8h-11.5M1784.9,2090.5h-11.5M1811.2,2092.8h-14.3M1811.2,2090.5h-14.3M1828.4,2092.8h-12.6M1828.4,2090.5h-12.6M1854.7,2092.8h-16.6M1854.7,2090.5h-16.6M2046.6,2092.8h-40.1M2046.6,2090.5h-40.1M2062.6,2092.8h-11.4M2062.6,2090.5h-11.4M2091.2,2092.8h-14.3M2091.2,2090.5h-14.3M2110.1,2092.8h-14.3M2110.1,2090.5h-14.3M2131.3,2092.8h-16.6M2131.3,2090.5h-16.6M2183.4,2092.8h-35.5M2183.4,2090.5h-35.5M2204.6,2092.8h-11.4M2204.6,2090.5h-11.4M2233.3,2092.8h-14.4M2233.3,2090.5h-14.4M2252.2,2092.8h-14.4M2252.2,2090.5h-14.4M2277.9,2092.8H2259M2277.9,2090.5H2259M2330,2093.4h-37.8M2330,2090.5h-37.8M2348.9,2093.4h-12M2348.9,2090.5h-12M2379.3,2093.4h-18.9M2379.3,2090.5h-18.9M2393.6,2093.4h-9.7M2393.6,2090.5h-9.7M2419.4,2093.4h-13.8M2419.4,2090.5h-13.8M2469.8,2092.2H2436M2469.8,2090H2436M2488.7,2092.8h-14.4M2488.7,2090.5h-14.4M2533.3,2092.8H2503M2533.3,2090.5H2503M2557.4,2092.8h-18.9M2557.4,2090.5h-18.9M2606.6,2092.8h-35.5M2606.6,2090.5h-35.5M2627.8,2092.8h-11.5M2627.8,2090.5h-11.5M2661,2092.8h-18.9M2661,2090.5h-18.9M2675.3,2092.8h-9.1M2675.3,2090.5h-9.1M2696.5,2092.8h-14.3M2696.5,2090.5h-14.3M2758.9,2092.8l-43.5,0.6M2758.9,2090.5h-43.5M2780.1,2092.8h-13.7M2780.1,2090.5h-13.7M2827.6,2092.8h-33.2M2827.6,2090.5h-33.2M2846.5,2092.8h-14.3M2846.5,2090.5h-14.3M2905.5,2092.8h-42.3M2905.5,2090.5h-42.3M2926.7,2092.8h-14.3M2926.7,2090.5h-14.3M2971.4,2092.8h-32.7M2971.4,2090.5h-32.7M2993.1,2092.8h-14.3M2993.1,2090.5h-14.3M3049.8,2092.8h-42.9M3049.8,2090.5h-42.9M3063.6,2092.8h-9.2M3063.6,2090.5h-9.2M3111.1,2092.8h-30.9M3111.1,2090.5h-30.9M3134.6,2092.8h-14.3M3134.6,2090.5h-14.3M3186.7,2092.8h-37.8M3186.7,2090.5h-37.8M3203.3,2092.8h-12M3203.3,2090.5h-12M3231.4,2092.8h-13.8M3231.4,2090.5h-13.8M3246.2,2092.8h-12M3246.2,2090.5h-12M3269.7,2092.8h-14.3M3269.7,2090.5h-14.3M3321.8,2092.8H3284M3321.8,2090.5H3284M3343,2092.8h-14.3M3343,2090.5h-14.3M3372.8,2092.8H3355M3372.8,2090.5H3355M3385.4,2092.8h-10.3M3385.4,2090.5h-10.3M3411.7,2092.8h-18.9M3411.7,2090.5h-18.9M3458.7,2092.8h-33.2M3458.7,2090.5h-33.2M3487.3,2092.8H3473M3487.3,2090.5H3473M3513.1,2092.8h-12M3513.1,2090.5h-12M3524.5,2092.8h-9.1M3524.5,2090.5h-9.1M3548.6,2092.8h-14.3M3548.6,2090.5h-14.3M3605.3,2092.8h-37.8M3605.3,2090.5h-37.8M3628.8,2092.8h-14.4M3628.8,2090.5h-14.4M3671.1,2092.8h-28M3671.1,2090.5h-28M3694.6,2092.8h-13.7M3694.6,2090.5h-13.7M1313.6,2098h-132.3M1455.1,2098h-132.3M1597.1,2098h-132.3M1738.5,2098h-132.3M1880.5,2098h-132.3M1984.7,2098h-95M3614.4,2098h108.8M3605.3,2098H3591M3473,2098h108.2M3458.7,2098h-9.7M3328.7,2098h111.1M3321.8,2098h-14.3M3191.3,2098h106.5M3186.7,2098h-21.2M3054.4,2098h101.9M3049.8,2098h-25.7M2912.4,2098h101.9M2905.5,2098H2882M2762.4,2098h110.5M2758.9,2098h-18.3M2616.3,2098h114.6M2606.6,2098h-8M2469.8,2098h119.6M2469.8,2098h-12.6M2327.7,2098h119.7M2327.7,2098h-12.6M2188.6,2098H2306M2183.4,2098h-10.3M2049.4,2098H2164M2046.6,2098h-14.9M2006.5,2098h15.5M3723.2,2094.5v9.2M3732.4,2094.5h-9.2M3732.4,2103.7v-9.2M3723.2,2103.7h9.2M3723.2,2103.7v-5.7M3732.4,2103.7v-5.7M3581.2,2094.5v9.2M3591,2094.5h-9.8M3591,2103.7v-9.2M3581.2,2103.7h9.8M3439.8,2094.5v9.2M3449,2094.5h-9.2M3449,2103.7v-9.2M3439.8,2103.7h9.2v-5.7M3297.8,2094.5v9.2M3307.5,2094.5h-9.7M3307.5,2103.7v-9.2M3297.8,2103.7h9.7v-5.7M3156.3,2094.5v9.2M3165.5,2094.5h-9.2M3165.5,2103.7v-9.2M3156.3,2103.7h9.2,-2.9M3165.5,2103.7v-5.7M3156.3,2103.7h2.3M3014.3,2094.5v9.2M3024.1,2094.5h-9.8M3024.1,2103.7v-9.2M3014.3,2103.7h9.8M3014.3,2103.7v-5.7M3024.1,2103.7v-5.7M2872.9,2094.5v9.2M2882,2094.5h-9.1M2882,2103.7v-9.2M2872.9,2103.7h9.1M2730.9,2094.5v9.2M2740.6,2094.5h-9.7M2740.6,2103.7v-9.2M2730.9,2103.7h9.7,-1.7M2730.9,2103.7h1.7M2589.4,2094.5v9.2M2598.6,2094.5h-9.2M2598.6,2103.7v-9.2M2589.4,2103.7h9.2v-5.7M2589.4,2103.7h1.2M2457.2,2103.7v-9.2M2457.2,2103.7v-5.7M2447.4,2094.5v9.2h3.5M2306,2094.5v9.2M2315.1,2094.5h-9.1M2315.1,2103.7v-9.2M2306,2103.7h9.1M2306,2103.7h6.3M2306,2103.7v-5.7M2164,2094.5v9.2M2173.1,2094.5h-9.1M2173.1,2103.7v-9.2M2164,2103.7h9.1M2164,2103.7v-5.7M2164,2103.7h1.1M2031.7,2094.5h-9.7M2022,2103.7h9.7M2022,2094.5v9.2M2031.7,2103.7v-9.2M2022,2103.7v-5.7M1880.5,2094.5v9.2M1889.7,2094.5h-9.2M1889.7,2103.7v-9.2M1880.5,2103.7h9.2M1880.5,2103.7v-5.7M1880.5,2094.5v9.2M1889.7,2094.5h-9.2M1889.7,2103.7v-9.2M1880.5,2103.7h9.2M1738.5,2094.5v9.2M1748.2,2094.5h-9.7M1748.2,2103.7v-9.2M1738.5,2103.7h9.7M1738.5,2103.7v-5.7M1738.5,2094.5v9.2M1748.2,2094.5h-9.7M1748.2,2103.7v-9.2M1738.5,2103.7h9.7M1597.1,2094.5v9.2M1606.2,2094.5h-9.1M1606.2,2103.7v-9.2M1597.1,2103.7h9.1M1597.1,2103.7v-5.7M1597.1,2103.7h2.3M1606.2,2103.7v-5.7M1597.1,2094.5v9.2M1606.2,2094.5h-9.1M1606.2,2103.7v-9.2M1597.1,2103.7h9.1M1455.1,2094.5v9.2M1464.8,2094.5h-9.7M1464.8,2103.7v-9.2M1455.1,2103.7h9.7M1455.1,2103.7v-5.7M2457.2,2094.5h-9.8M2447.4,2103.7h9.8M1322.8,2103.7v-9.2M1322.8,2103.7h-2.3M1313.6,2094.5v9.2,-5.7M1313.6,2103.7h9.2M1322.8,2094.5h-9.2M1171.6,2094.5v9.2M1181.3,2094.5h-9.7M1181.3,2103.7v-9.2M1171.6,2103.7h9.7M2164,2103.7h2.3M2073.5,2098h-3.4M2173.1,2103.7h-2.3M2589.4,2103.7h2.9M3014.3,2103.7h1.2M3024.1,2103.7h-2.9M3581.2,2103.7h6.3M1597.1,2103.7h2.3M1181.3,2103.7h-6.3M3723.2,2094.5h9.2v9.2h-9.2zM3723.2,2103.7h6.3" fill-opacity="0" stroke-linejoin="round" stroke-linecap="round" stroke="#023470" stroke-width="2" id="path_3"/><path fill="#000000" d="M3723.2,2094.5h9.2v9.2h-9.2zM3723.2,2103.7h2.3M3723.2,2103.7v-5.7M3723.2,2103.7v-9.2M3732.4,2103.7h-9.2M3732.4,2094.5v9.2M3723.2,2094.5h9.2M3723.2,2094.5h6.9M3711.2,2085.9v12.1h-16.6v-12.1M3680.9,2085.9v12.1h-9.8v-12.1M3643.1,2085.9v12.1h-14.3v-12.1M3614.4,2085.9v12.1h-9.1v-12.1M3567.5,2085.9v12.1M3513.1,2098v-12.1M3515.4,2098v-12.1M3524.5,2085.9v12.1h9.8v-12.1M3548.6,2085.9v12.1M3487.3,2098v-12.1M3501.1,2085.9v12.1M3458.7,2098v-12.1M3473,2085.9v12.1M3425.5,2085.9v12.1h-13.8v-12.1M3392.8,2085.9v12.1M3385.4,2098v-12.1M3372.8,2098v-12.1M3375.1,2085.9v12.1M3343,2098v-12.1M3355,2085.9v12.1M3328.7,2098v-12.1M3328.7,2098h-6.9v-12.1M3284,2085.9v12.1h-14.3v-12.1M3255.4,2085.9v12.1h-9.2v-12.1M3234.2,2085.9v12.1h-2.8M3217.6,2098h-14.3M3148.9,2098h-4.6M3231.4,2098v-12.1M3203.3,2098v-12.1M3217.6,2085.9v12.1M3186.7,2098v-12.1M3191.3,2085.9v12.1M3148.9,2085.9v12.1h-14.3v-12.1M3120.3,2085.9v12.1h-9.2v-12.1M3063.6,2098v-12.1M3080.2,2085.9v12.1M3049.8,2098v-12.1M3054.4,2085.9v12.1M3006.9,2085.9v12.1h-13.8v-12.1M2978.8,2085.9v12.1h-7.4v-12.1M2926.7,2098v-12.1M2938.7,2085.9v12.1M2905.5,2098v-12.1M2912.4,2085.9v12.1M2863.2,2085.9v12.1h-16.7v-12.1M2832.2,2085.9v12.1h-4.6v-12.1M2794.4,2085.9v12.1h-14.3v-12.1M2766.4,2085.9v12.1h-7.5v-12.1M2715.4,2085.9v12.1h-18.9v-12.1M2675.3,2098v-12.1M2682.2,2085.9v12.1M2661,2098v-12.1M2627.8,2098v-12.1M2642.1,2085.9v12.1M2606.6,2098v-12.1M2616.4,2085.9v12.1M2557.4,2098v-12.1M2571.1,2085.9v5.8M2571.1,2092.8v-1.1V2098M2533.3,2098v-12.1M2538.5,2085.9v12.1M2488.6,2098v-12.1M2503,2085.9v12.1M2469.8,2098v-12.1M2474.3,2085.9v12.1M2436,2085.9v12.1M2419.4,2098v-12.1M2393.6,2098v-12.1M2405.6,2085.9v12.1M2383.9,2085.9v12.1M2383.9,2098h-4.6v-12.1M2348.9,2098v-12.1M2360.4,2085.9v12.1M2336.9,2098v-12.1M2336.9,2098h-6.9v-12.1M2292.2,2085.9v12.1M2277.9,2098v-12.1M2252.1,2098v-12.1M2259,2085.9v12.1M2233.3,2098v-12.1M2237.8,2085.9v12.1M2218.9,2098v-12.1M2218.9,2098h-14.3v-12.1M2193.2,2085.9v12.1h-9.8v-12.1M2147.9,2085.9v12.1h-16.6v-12.1M2114.7,2085.9v12.1h-4.6v-12.1M2095.8,2085.9v12.1h-4.6v-12.1M2062.6,2098v-12.1M2076.9,2085.9v12.1M2046.6,2098v-12.1M2051.2,2085.9v12.1M2006.5,2085.9v12.1H1983v-12.1M1868.5,2085.9v12.1h-13.8v-12.1M1838.1,2085.9v12.1h-9.7v-12.1M1815.8,2098v-12.1M1811.2,2098v-12.1M1784.9,2098v-12.1M1796.9,2085.9v12.1M1763.7,2098v-12.1M1773.4,2085.9v12.1M1724.8,2085.9v12.1H1711v-12.1M1692.1,2085.9v12.1h-9.7v-12.1M1670.9,2085.9v12.1h-5.1v-12.1M1646.9,2085.9v12.1h-11.5v-12.1M1623.4,2085.9v12.1h-4.6v-12.1M1587.9,2085.9v12.1H1569v-12.1M1554.7,2085.9v12.1h-9.2v-12.1M1533.5,2085.9v12.1h-4.6v-12.1M1500.3,2098v-12.1M1510,2085.9v12.1M1481.4,2098v-12.1M1491.1,2085.9v12.1M1439.6,2085.9v12.1H1423v-12.1M1390.3,2098h-4.5v-12.1M1368,2085.9v12.1h-9.7v-12.1M1346.8,2085.9v12.1h-9.7v-12.1M1292.4,2085.9v12.1h-14.3v-12.1M1259.2,2085.9v12.1h-9.1v-12.1M1223.7,2098v-12.1M1223.7,2098h-9.2v-12.1M1200.2,2085.9v12.1h-9.1v-12.1M2046.6,2098h4.6M2063.2,2098h13.7M2233.3,2098h4.5M2252.2,2098h6.8M2277.9,2098h14.3M2348.9,2098h11.5M2393.6,2098h12M2419.4,2098h16.6M2469.8,2098h4.5M2488.7,2098h14.3M2534.5,2098h4M2534.5,2098h-1.2M2557.4,2098h13.7M2606.6,2098h9.7M2627.8,2098h14.3M2661,2098h5.2M2675.3,2098h6.9M2905.5,2098h6.9M2926.7,2098h12M3049.8,2098h4.6M3063.6,2098h16.6M3186.7,2098h4.6M3343,2098h12M3372.8,2098h2.3M3385.4,2098h7.4M3458.7,2098h14.3M3487.3,2098h13.8M3513.1,2098h2.3M3548.6,2098h18.9M1481.4,2098h9.7M1500.3,2098h9.7M1763.7,2098h9.7M1784.9,2098h12M1811.2,2098h4.6M3732.4,2103.7h-2.9v26.9M3798.3,2112.9v-9.2M3732.4,2098h65.9v55.5M3729.5,2163.8v-33.2M3723.2,2103.7h2.3M3726.7,2118h2.8v23.5h-2.8M3452.4,2227.4h-6.3,47.5M3439.8,2103.7h3.4M3446.1,2227.4h-44.7M3307.5,2103.7h-2.3M3305.2,2227.4h40.1M2740.6,2103.7h-4M2736.6,2227.4h49.8M2730.9,2103.7h3.4M2733.7,2227.4h-40.6M2666.2,2085.9v12.1M2598.6,2103.7h-3.4M2595.2,2227.4h40M2589.4,2103.7h3.5M2595.2,2227.4h-73.3M2447.4,2227.4h-2.3M2315.1,2103.7h-3.4M2031.7,2103.7h-3.4M2028.8,2227.4h40.1M2306,2103.7h3.4M2308.3,2227.4h-70.5M2022,2103.7h2.8M2024.8,2227.4h-40.1M1748.2,2103.7h-2.8v123.7h41.8M1815.8,2227.4h142M1786.6,2227.4h-14.3M1606.2,2103.7h-2.8v123.7h40.6M1670.9,2227.4V2098M1674.4,2227.4V2098M1741.9,2103.7v123.7M1597.1,2103.7h3.4v123.7h-40.1M1322.8,2103.7h-2.9M1319.9,2227.4h67M1390.3,2085.9v12.1M1403.5,2085.9v12.1h4.6v-12.1M1403.5,2090.5h-13.2M1403.5,2092.8h-13.2M1533.5,2098h-2.3M1533.5,2227.4H1423M1313.6,2103.7h2.9M1171.6,2098h-65.9v55.5M1343.4,2250.9h-72.7M1343.4,2250.9h53.2M3591,2449h-3.5M3602.4,2324.7h-14.9,35.5M3748.4,2454.7h-16M3748.4,2454.7h24.7M3752.4,2454.7h47v-57.8M3790.2,2307h-12.6M3657.4,2300.1h71.6M3790.2,2307v-25.8M3790.2,2281.2h-62.4M3790.2,2307h-44.6M3727.8,2300.1h-67M3727.8,2281.2h-10.9M3711.8,2241.7v28.6M3711.8,2276.6c1.1,2.1 3.2,3.9 5.2,4.6M3711.8,2270.3v6.3M3790.2,2307h-44.6M3729,2300.1h8.6M3623,2300.1h-78.4M3631,2237.1v10.9M3631,2237.1c-0.8,-5.7 -5.3,-9.6 -10.9,-9.7M3631,2248v3.4M3581.2,2449h2.3M3586.4,2324.7h-41.8M3449,2449h-3.5M3443.2,2324.7h101.4M3439.8,2449h3.4M3443.2,2324.7h-75M3297.8,2449h3.4M3304.1,2324.7h-45.3M3156.3,2449h3.5M3162.6,2324.7h-41.8M3092.8,2324.7h-115.1M2882,2449h-2.2M2879.8,2324.7h97.9M2872.9,2449h2.8M2879.8,2324.7h-43.6M2730.9,2449h3.4M2734.3,2324.7h-74.4M2632.4,2324.7h-70.5M2530.5,2454.7h-2.3M2447.4,2449h8.6M2458.9,2324.7h-79.6M2315.1,2449h-2.8M2351.8,2324.7h-39.5M3544.6,2300.1h-176.4M2351.8,2300.1h-62.4M2458.9,2324.7h103M3298.9,2251.4h46.4M3295.5,2300.1h-36.7M2462.9,2300.1v-44.7M3298.9,2251.4h-10.3M2462.9,2251.4v4M2458.9,2300.1v-44.7M2441.7,2300.1h-62.4M1610.2,2300.1v-49.2M1673.2,2250.9h1.2M1606.2,2299.5v-48.6M1314.8,2250.9h-4M1606.2,2299.5v0.6h-45.8M1191.1,2275.5v-37.2M1048.5,2227.4h-18.3M1191.1,2238.3v37.2M1192.2,2300.1h-1.1M1112.6,2283.5v25.8M1100.6,2283.5h63.6M1159,2309.8h-46.4v-0.5M1164.7,2307l-5.7,2.8M1167,2300.1h13.2M1167,2283.5h16.6M1180.2,2300.1h10.9M1183.6,2283.5c4.2,-1.4 7,-4.5 7.4,-8M1167,2283.5h-2.3M1167,2300.1h-2.3M1150.4,2453.6h21.2M1171.6,2449h7.4M1151.6,2453.6h-48.1M1108,2395.7h-9.7M1109.8,2395.7h-23.5M1086.3,2395.7h12M1100.6,2395.7v10.9M1103.5,2406.6h-17.2M1103.5,2453.6v13.1M1122.4,2466.7v-13.1h9.1v13.1M1145.8,2466.7v-13.1M1103.5,2459.3h18.9M1103.5,2461.6h18.9M1131.5,2461.6h14.3M1131.5,2459.3h14.3M1093.7,2395.7v10.9M1096,2395.7v10.9M1157.9,2458.1v-4.5,13.1M1191.1,2459.3h-33.2M1191.1,2461.6h-33.2M1145.8,2453.6h12.1M1103.5,2453.6v-47M1018.1,2354.5h12.1M1030.2,2335.6h-12.1M1322.8,2449h-1.7M1421.3,2323.6h-32.7M1321.1,2323.6h67M1321.1,2323.6h40.6M1388.6,2323.6h66.5M1361.7,2323.6h-40.6M1388.6,2300.1h-120.2M1464.8,2449h-2.3M1462.5,2323.6h70.4M1599.4,2323.6V2449M1462.5,2323.6h70.4v-1.7M1560.4,2321.9v1.7M1532.9,2323.6v-4.6M1532.9,2323.6h27.5M1560.4,2319v2.9M1532.9,2300.1h27.5M1560.4,2323.6h39M1532.9,2317.3v-17.2M1560.4,2300.1v17.2M1532.9,2317.3v1.7M1560.4,2317.3v1.7M1606.2,2300.1v-5.2h4M1610.2,2250.9v9.7h-4M1533.5,2227.4v12.6M1560.4,2240v-12.6M1533.5,2240v10.9M1560.4,2240v10.9M1423,2250.9h110.5M1600.5,2227.4v-12M1670.9,2227.4v23.5,-18.9H1644v18.9" fill-opacity="0" stroke-linejoin="round" stroke-linecap="round" stroke="#023470" stroke-width="2" id="path_4"/><path fill="#000000" d="M1644,2232v-4.6,2.3h26.9M1670.9,2250.9h2.3M1674.4,2250.9h112.8M1815.8,2250.9h122.6M1005,2366.5h16v14.9h-16z" fill-opacity="0" stroke-linejoin="round" stroke-linecap="round" stroke="#023470" stroke-width="2" id="path_5"/><path fill="#000000" d="m1005,2381.4 l2.8,-12 13.2,-2.9M978.1,2269.2h61.2M978.1,2238.8v30.4M1018.1,2238.8h-40M978.1,2238.8h61.2v30.4M1051.3,2269.2v-30.4h37.8v30.4M1100.6,2269.2v-30.4h71M1185.3,2238.8v30.4M1051.3,2269.2h37.8" fill-opacity="0" stroke-linejoin="round" stroke-linecap="round" stroke="#023470" stroke-width="2" id="path_6"/><path fill="#000000" d="m978.1,2269.2 l6.8,-24.1 54.4,-6.3M1051.3,2269.2l5.2,-25.8 32.6,-4.6M1100.6,2269.2l5.7,-24.6 65.3,-4.6M1030.2,2210.2h-12.1M1022.7,2182.7v27.5M1025,2182.7v27.5M1157.9,2085.9v12.1h13.7M1125.8,2085.9v12.1h18.9v-12.1M1125.8,2092.8h18.9M1125.8,2090.5h18.9M1157.9,2092.8h33.2M1157.9,2090.5h33.2M2458.9,2300.1v-7.4h4M2462.9,2251.4v6.9h-4M1731.6,2447.8v-56.7M1724.8,2447.8h6.8M1731.6,2323.6v67.5M1724.8,2447.8v-56.7M1717.3,2447.8v-56.7M1710.4,2447.8v-56.7M1703.6,2447.8v-56.7M1696.1,2447.8v-56.7M1689.3,2447.8v-56.7M1681.8,2447.8v-56.7M1674.9,2447.8v-56.7M1668.1,2447.8v-56.7M1724.2,2323.6v23.5M1717.3,2323.6v20.6M1710.4,2323.6v18.3M1703,2323.6v15.4M1696.1,2323.6v13.1M1689.3,2323.6v10.3M1681.8,2323.6v8M1674.9,2323.6v5.1M1667.5,2323.6v2.3M1660.6,2391.1h71M1660.6,2447.8v-56.7M1660.6,2323.6v56.7M1660.6,2447.8h71M1660.6,2323.6h71M1660.6,2323.6v120.2M1660.6,2380.8v-57.2M1597.1,2449h2.3M1896.6,2359.6h72.1M1896.6,2362.5h72.1M1968.7,2403.2h-72.1M1968.7,2405.5h-72.1M1894.3,2311h74.4M1896.6,2318.4h72.1M1968.7,2449h-72.1M1968.7,2318.4l-2.9,2.3M1961.3,2323l-1.8,1.1M1955.5,2326.4l-2.3,1.2M1949.2,2329.9l-2.3,1.1M1942.9,2333.3l-1.7,1.2M1937.2,2336.7l-2.3,1.2M1930.9,2340.2l-2.3,1.1M1924.6,2344.2l-2.3,1.1M1918.3,2347.6l-1.7,1.2M1912.6,2351.1l-2.3,1.1M1906.3,2354.5l-2.3,1.1M1900,2357.9l-3.4,1.7M1896.6,2318.4l3.4,2.3M1904,2323l2.3,1.1M1910.3,2326.4l2.3,1.2M1916.6,2329.9l1.7,1.1M1922.3,2333.3l2.3,1.2M1928.6,2336.7l2.3,1.2M1934.9,2340.2l2.3,1.1M1941.2,2344.2l1.7,1.1M1946.9,2347.6l2.3,1.2M1953.2,2351.1l2.3,1.1M1959.5,2354.5l1.8,1.1M1965.8,2357.9l2.9,1.7M1968.7,2362.5l-2.9,1.7M1961.8,2366.5l-2.3,1.2M1955.5,2370l-2.3,1.1M1949.2,2373.4l-2.3,1.1M1942.9,2376.8l-1.7,1.2M1937.2,2380.3l-2.3,1.1M1930.9,2383.7l-2.3,1.1M1924.6,2387.1l-2.3,1.2M1918.3,2391.1l-1.7,1.2M1912,2394.6l-1.7,1.1M1906.3,2398l-2.3,1.2M1900,2401.4l-3.4,1.8M1896.6,2362.5l3.4,1.7M1904,2366.5l2.3,1.2M1910.3,2370l1.7,1.1M1916.6,2373.4l1.7,1.1M1922.3,2376.8l2.3,1.2M1928.6,2380.3l2.3,1.1M1934.9,2383.7l2.3,1.1M1941.2,2387.1l1.7,1.2M1946.9,2391.1l2.3,1.2M1953.2,2394.6l2.3,1.1M1959.5,2398l2.3,1.2M1965.8,2401.4l2.9,1.8M1968.7,2405.5l-3.4,2.2M1961.3,2410l-2.3,1.2M1955,2414l-1.8,1.2M1949.2,2417.5l-2.3,1.1M1942.9,2420.9l-1.7,1.2M1936.6,2424.9l-1.7,1.2M1930.9,2428.4l-2.3,1.1M1924.6,2431.8l-1.7,1.7M1918.9,2435.8l-2.3,1.1M1912.6,2439.2l-2.3,1.2M1906.3,2442.7l-1.7,1.7M1900.6,2446.7l-4,2.3M1896.6,2405.5l4,2.2M1904.6,2410l1.7,1.2M1910.3,2414l2.3,1.2M1916.6,2417.5l2.3,1.1M1922.9,2420.9l1.7,1.2M1928.6,2424.9l2.3,1.2M1934.9,2428.4l1.7,1.1M1941.2,2431.8l1.7,1.7M1946.9,2435.8l2.3,1.1M1953.2,2439.2l1.8,1.2M1959,2442.7l2.3,1.7M1965.3,2446.7l3.4,2.3M1603.9,2382.6v66.4M1597.1,2449h9.1M1597.1,2449h2.3M1597.1,2449h9.1M1597.1,2316.7v-9.7M1606.2,2316.7h-9.1M1606.2,2307v9.7M1597.1,2307h9.1M1597.1,2316.7v-9.7M1606.2,2316.7h-9.1M1606.2,2307v9.7M1597.1,2307h9.1M1893.7,2449v-57.9M1896.6,2449v-57.9M1896.6,2404.3v4.6M1738.5,2449h9.7M1880.5,2449h9.2M1880.5,2449h13.2M1896.6,2408.9h-2.9M1896.6,2449v-5.2h-2.9M1880.5,2449h9.2M1815.8,2311.6h52.1M1815.8,2309.3h52.1M1815.8,2311.6h23.5M1738.5,2316.7v-9.7M1748.2,2316.7h-9.7M1748.2,2307v9.7M1738.5,2307h9.7M1815.8,2309.3v-9.2M1815.8,2301.2v-0.5M1811.2,2300.1v8.6h-54.9v-8.6M1811.2,2311h-54.9v9.1M1756.3,2311v-2.3h23.4v2.3M1811.2,2308.7v2.3h-24v-2.3M1815.8,2309.3v2.3M1738.5,2316.7v-9.7M1748.2,2316.7h-9.7M1748.2,2307v9.7M1738.5,2307h9.7M1880.5,2316.7v-9.7M1889.7,2316.7h-9.2M1889.7,2307v9.7M1880.5,2307h9.2M1867.9,2311.6v12h5.2v-5.2h20.6M1867.9,2309.3v-9.2M1839.3,2311.6v-2.3M1894.3,2300.1v10.9M1896.6,2391.1v-72.7,43M1896.6,2318.4v5.2h-2.9M1896.6,2361.4v-5.2h-2.9M1896.6,2361.4v4.5h-2.9M1896.6,2404.3v-4.6h-2.9M1880.5,2316.7v-9.7M1889.7,2316.7h-9.2M1889.7,2307v9.7M1880.5,2307h9.2M1968.7,2318.4V2449M1976.1,2324.7v130M1968.7,2311v-10.9M1968.7,2361.4v42.9M1976.1,2320.1v0.6M1976.1,2317.8v2.3M1976.1,2317.8v-17.7M1976.1,2324.7v-4M1617.1,2323.6h139.2M1603.9,2382.6v-59h152.4v-3.5M1894.3,2300.1h-26.4M1815.8,2300.1h-4.6M1756.3,2300.1h-150.6M1811.2,2311v143.7M1815.8,2311.6v143.1M2351.8,2300.1h-112.2M2173.1,2449h-2.3v-81.9h41.3M2170.8,2363.7h41.3M2170.8,2344.8h45.2v18.9h-45.2zM2170.8,2317.8h45.2v23.5h-45.2z" fill-opacity="0" stroke-linejoin="round" stroke-linecap="round" stroke="#023470" stroke-width="2" id="path_7"/><path fill="#000000" d="M2212.1,2367.1h-4.6v-3.4h-18.9v3.4M2216.1,2344.8h-5.2v-3.5H2192v3.5M2220.1,2320.1v23.5M2220.1,2363.7v-17.8M2220.1,2320.1v-20h-4v14.3h-20.6v-14.3h-191.3M2195.5,2314.4v3.4M2216.1,2314.4v3.4M2220.1,2300.1v14.3h19.5v-14.3M2239.6,2314.4h2.8v49.3M2306,2449h3.4M2310.6,2449v-81.9M2280.8,2367.1h-34.4M2310.6,2363.7h-64.2v-45.9M2310.6,2363.7v-45.9M2310.6,2363.7h-4.6v3.4h-23.5v-3.4M2220.1,2317.8h22.3M2246.4,2317.8h64.2M2220.1,2300.1h-4M2220.1,2363.7h22.3M2164,2449h3.4v-112.3M2495.5,2300.1h-49.8M2495.5,2300.1h-115.6M2659.9,2324.7v-3.4h-27.5v3.4" fill-opacity="0" stroke-linejoin="round" stroke-linecap="round" stroke="#023470" stroke-width="2" id="path_8"/><path fill="#000000" d="M2632.4,2321.3v-21.2,18.9h27.5v-18.9M2659.9,2319v2.3M2632.4,2300.1h-70.5M2875.7,2324.7h-35.5M2778.4,2324.7h-39.5M2778.4,2300.1h-114M2778.4,2300.1h-118.5M2977.7,2300.1h-141.5M2951.3,2300.1h-111.1M3301.2,2324.7h-28M3258.8,2300.1h-26.3M3206.2,2300.1h-85.4M3258.8,2324.7h-26.3M3304.1,2324.7h37.8M3368.2,2324.7h-64.1M3341.9,2300.1h-42.4M3368.2,2300.1h-109.4M3486.7,2300.1h-118.5M3587.5,2324.7h43.5v-3.4h26.4v3.4" fill-opacity="0" stroke-linejoin="round" stroke-linecap="round" stroke="#023470" stroke-width="2" id="path_9"/><path fill="#000000" d="M3631,2321.3v-21.2,18.9h26.4v-18.9M3657.4,2319v2.3M3657.4,2324.7h69.3M3631,2300.1h-86.4M3798.3,2098v55.5M3934.5,2269.2V2236M3802.3,2269.2h4.5M3720.4,2236h86.4M3934.5,2236h-50.4M3802.3,2269.2h-81.9V2236M3934.5,2269.2h-61.8M3872.7,2269.2V2236M3861.2,2236v33.2M3861.2,2269.2h-42.9M3818.3,2269.2V2236M3806.8,2236v33.2M3818.3,2269.2h42.9M3872.7,2269.2h61.8M3872.7,2236h11.4M3818.3,2236h42.9M3818.3,2269.2l4.6,-28.7 38.3,-4.5M3872.7,2269.2l6.3,-26.9 55.5,-6.3" fill-opacity="0" stroke-linejoin="round" stroke-linecap="round" stroke="#023470" stroke-width="2" id="path_10"/><path fill="#000000" d="m3720.4,2269.2 l12,-23.5 74.4,-9.7M3799.4,2454.7v12M3780.5,2466.7v-12h-14.3v12M3754.7,2466.7v-12M3745,2454.7v12M3711.2,2460.4h33.8M3754.7,2460.4h11.5M3780.5,2460.4h18.9M3711.2,2461.6h33.8M3711.2,2459.3h33.8M3754.7,2461.6h11.5M3754.7,2459.3h11.5M3780.5,2461.6h18.9M3780.5,2459.3h18.9M3745,2454.7h9.7M3790.2,2307h12.1M3802.3,2281.2h-12.1M3790.2,2294.9h12.1M3802.3,2292.7h-12.1v-11.5M3794.8,2281.2v11.5M3797.7,2281.2v11.5M3794.8,2294.9v12.1M3797.7,2294.9v12.1M3307.5,2103.7h-2.9M2948.5,2162.7h70.4M2948.5,2202.2h70.4M2945.6,2237.1h21.8M2948.5,2159.2h138M2948.5,2206.8h70.4M2948.5,2234.3h39.5M2951.3,2206.8h23.5M2951.3,2159.2h21.2M2948.5,2159.2h25.2M2951.3,2202.2v4.6M2945.6,2226.2V2098M2945.6,2226.2v10.9M2948.5,2206.8v27.5M2948.5,2202.2v-39.5M2948.5,2159.2V2098v61.2zM2948.5,2162.7v39.5M2948.5,2159.2h2.8v3.5M3294.9,2209.1V2098M3218.2,2229.1v-5.2M3225.1,2229.1v-2.9M3231.9,2226.2v-58.9M3239.4,2229.1v-61.8M3095.6,2240.5v-62.9M3089.3,2223.9v-60.1M3154,2229.1v-61.8M3161.5,2229.1v-25.8M3168.4,2229.1v-23.5M3175.2,2229.1v-20.6M3182.7,2229.1v-18.3M3189.5,2229.1v-15.5M3196.4,2229.1v-13.2M3203.9,2229.1v-10.3M3210.7,2229.1v-8M2974.8,2206.8v-4.6M3026.9,2163.8v60.1M3026.9,2163.8l1.7,1.7M3032.1,2168.4l1.7,1.7M3037.2,2173.6l1.7,1.7M3041.8,2178.7l1.7,1.2M3047,2183.3l1.7,1.7M3052.1,2188.4l1.7,1.8M3057.3,2193l1.7,1.7M3062.4,2198.2l1.7,1.7M3067.6,2203.3l1.7,1.2M3072.7,2207.9l1.8,1.7M3077.9,2213.1l1.7,1.7M3083,2217.6l1.8,1.8M3088.2,2222.8l1.1,1.1M3089.3,2163.8l-1.7,1.7M3084.8,2168.4l-1.8,1.7M3079.6,2173.6l-1.7,1.7M3074.5,2178.7l-1.8,1.2M3069.3,2183.3l-1.7,1.7M3064.1,2188.4l-1.7,1.8M3059,2193l-1.7,1.7M3053.8,2198.2l-1.7,1.7M3048.7,2203.3l-1.7,1.2M3043.5,2207.9l-1.7,1.7M3038.4,2213.1l-1.7,1.7M3033.8,2217.6l-1.7,1.8M3028.6,2222.8l-1.7,1.1M3165.5,2242.8h123.1M3147.2,2229.1h147.7M3089.3,2229.7h-62.4M3089.3,2223.9h-62.4M3089.3,2223.9h-12M3014.3,2236h9.7v9.7h-9.7zM2988,2234.3v-27.5M2967.4,2237.1h20.6v14.3M2992.6,2251.4v-14.3h16.6v14.3" fill-opacity="0" stroke-linejoin="round" stroke-linecap="round" stroke="#023470" stroke-width="2" id="path_11"/><path fill="#000000" d="M2988,2237.1h-20.6v14.3M2967.4,2237.1v-2.8M2988,2237.1v-2.8M2992.6,2234.3h16.6M2992.6,2234.3v-27.5h28.6v27.5M2992.6,2237.1v-2.8M3009.2,2237.1v-2.8M3026.9,2229.7v21.7M3026.9,2229.7h12v-5.8M3077.3,2223.9v5.8M3014.3,2236h9.7v9.7h-9.7zM3165.5,2249.1v-6.3M3156.3,2236h9.2v9.7h-9.2zM3147.2,2229.1v11.4h-51.6M3147.2,2242.8h-51.6M3147.2,2242.8v8.6M3095.6,2242.8v8.6M3089.3,2251.4v-21.7" fill-opacity="0" stroke-linejoin="round" stroke-linecap="round" stroke="#023470" stroke-width="2" id="path_12"/><path fill="#000000" d="M3095.6,2240.5v2.3h23.5v-2.3h2.3v3.5M3165.5,2245.7v5.7M3156.3,2236h9.2v9.7h-9.2zM3294.9,2209.1v20M3297.8,2236h9.7v9.7h-9.7zM3154,2167.3h85.4M3154,2166.1h85.4M3154,2111.1h85.4M3089.3,2163.8h-62.4M3086.5,2159.2V2098M3085.3,2131.8h1.2M3014.3,2103.7v-9.2M3024.1,2103.7h-9.8M3024.1,2094.5v9.2M3014.3,2094.5h9.8M3018.9,2202.2v-39.5M2972.5,2159.2v3.5M2973.7,2159.2v-31.5M2973.7,2159.2h4v-27.4h18.9v27.4h4v-27.4h18.9v27.4h4v-27.4h18.3v27.4h4v-27.4h17.8v27.4h4v-27.4M2977.7,2131.8v-4.1M2996.6,2131.8v-4.1M3000.6,2131.8v-4.1M3019.5,2131.8v-4.1M3023.5,2131.8v-4.1M3041.8,2131.8v-4.1M3045.8,2131.8v-4.1M3063.6,2131.8v-4.1M3067.6,2131.8v-4.1M2973.7,2127.7h112.8M3067.6,2131.8h17.7M3024.1,2103.7v-6.3M3014.3,2103.7v-9.2M3024.1,2103.7h-9.8M3024.1,2094.5v9.2M3014.3,2094.5h9.8M3156.3,2103.7v-9.2M3165.5,2103.7h-9.2M3165.5,2094.5v9.2M3156.3,2094.5h9.2M3089.3,2098v5.7M3089.3,2098v10.9h6.3v68.7M3154,2166.1v-55M3161.5,2166.1v-55M3168.4,2166.1v-55M3175.2,2166.1v-55M3182.7,2166.1v-55M3189.5,2166.1v-55M3196.4,2166.1v-55M3203.9,2166.1v-55M3210.7,2166.1v-55M3203.9,2137.5v-26.4M3196.4,2140.9v-29.8M3189.5,2144.9v-33.8M3182.7,2148.4v-37.3M3175.2,2152.4v-41.3M3168.4,2155.8v-44.7M3161.5,2159.8v-48.7M3165.5,2103.7v-6.3M3156.3,2103.7v-9.2M3165.5,2103.7h-9.2M3165.5,2094.5v9.2M3156.3,2094.5h9.2M3218.2,2166.1v-55M3225.1,2166.1v-55M3231.9,2166.1v-55M3239.4,2166.1v-55M3231.9,2122v-10.9M3225.1,2126v-14.9M3218.2,2130v-18.9M3307.5,2103.7v-5.7M3307.5,2103.7h-2.3M3297.8,2103.7v-9.2M3307.5,2103.7h-9.7M3307.5,2094.5v9.2M3297.8,2094.5h9.7M3288.6,2242.8v8.6M2967.4,2251.4h-155.2M2992.6,2251.4h-4.6M3095.6,2251.4h-6.3M3165.5,2251.4h-18.3M3009.2,2251.4h17.7M3375.1,2232.5h26.3v18.9M3375.1,2229.7h26.3v-2.3M3401.4,2229.7v2.8M3401.4,2251.4h119.1M3446.1,2227.4h47.5M3520.5,2251.4H3631M3511.9,2227.4h99.7M2736.6,2227.4h49.8v2.8h25.8v-2.8" fill-opacity="0" stroke-linejoin="round" stroke-linecap="round" stroke="#023470" stroke-width="2" id="path_13"/><path fill="#000000" d="M2786.4,2230.2v21.2,-18.9h25.8v18.9M2812.2,2232.5v-2.3M2812.2,2227.4h133.4M2786.4,2251.4h-93.3M1892.5,2504.5l22.9,-3.4M1889.1,2520l3.4,-15.5M1962.4,2471.9h13.2M1962.4,2465.6v6.3M1952.1,2465.6h10.3M1952.1,2492.5v-26.9M1894.8,2471.9h-13.7M1894.8,2465v6.9M1904.6,2465h-9.8M1904.6,2492.5V2465M1952.1,2492.5h18.9M1912.6,2492.5h27.5M1923.5,2501.1h16.6M1967,2501.1h-18.9M1952.1,2492.5v-26.9M1904.6,2492.5V2465M1884.5,2492.5h4M1893.1,2492.5h2.9M1900.6,2492.5h4M1940.1,2492.5h3.4M1940.1,2525.7v-24.6M1973.3,2528h-30.4M1923.5,2501.1v24M1884.5,2492.5h20.1M1881.1,2524v-27.5M1881.1,2458.1h-0.6v-9.1M1881.1,2458.1h-0.6" fill-opacity="0" stroke-linejoin="round" stroke-linecap="round" stroke="#023470" stroke-width="2" id="path_14"/><path fill="#000000" d="M1880.5,2458.1v-9.1h9.2M1975.6,2525.7v-28.6M1884.5,2528h36.1M1881.1,2466.7v5.2M1976.2,2466.7h-0.6M1975.6,2471.9v-5.2M1881.1,2496.5v27.5M1881.1,2496.5v27.5M1942.9,2528h30.4M1884.5,2492.5c-1.9,0.2 -3.5,2.2 -3.4,4.6M1881.1,2524c0.3,1.9 1.7,3.4 3.4,4M1920.6,2528c1.9,-0.4 3,-1.5 2.9,-2.9M1940.1,2525.7c0.6,1.2 2,2.2 3.4,2.3M1973.3,2528l2.3,-1.7M1975.6,2497.1c-0.3,-2.7 -2,-4.4 -4.6,-4.6M1976.1,2454.7h14.9M1976.1,2461.6h14.9M1976.1,2459.3h14.9M1868.5,2461.6h12.6M1868.5,2459.3h12.6M3779.4,2153.5h5.7v1.2M3785.1,2154.7h13.2v-1.2M3449,2103.7h-2.9v123.7h168.3v-29.2h-4v-6.3h32.1M3610.4,2191.9h57.9M3726.7,2163.8h-37.8l-20.6,28.1M3439.8,2103.7h2.3v123.7" fill-opacity="0" stroke-linejoin="round" stroke-linecap="round" stroke="#023470" stroke-width="2" id="path_15"/><path fill="#000000" d="M3617.9,2227.4v-29.2h36.6M3617.9,2198.2h51.5M3620.2,2227.4h-2.3M3721.5,2225.1c-3.9,1.4 -7.3,4.5 -9.7,9.2M3733,2225.1v-53.8h-42.4l-21.2,26.9M3735.3,2225.1v-53.8M3779.4,2171.3h71.5M3851.5,2226.8h20.6v-1.1" fill-opacity="0" stroke-linejoin="round" stroke-linecap="round" stroke="#023470" stroke-width="2" id="path_16"/><path fill="#000000" d="M3872.1,2226.8h-20.6v-1.7h-116.2M3721.5,2225.1h37.8M3733,2225.1v-13.8h2.3v-24h-2.3M3614.4,2198.2h3.5M3614.4,2227.4h3.5M3737,2354.5h-10.3M3376.2,2386.6v-61.9,130M3443.2,2449v-37.8h3.5v-24.1h-3.5M3165.5,2449h-2.3v-124.3M3371.6,2386.6v-61.9M3371.6,2386.6v68.1M3298.3,2386.6v62.4M3298.3,2386.6v-61.9M3298.3,2355.6h4.1M2243,2430.6v24.1M2247,2433.5v21.2M2242.4,2363.7v-12.1h4v-18.9h-4M2592.3,2324.7V2449M2598.6,2449h-2.3M2596.3,2449v-124.3M2664.4,2449v-124.3M2730.9,2449h1.7v-124.3M2667.3,2404.3v-79.6M2667.3,2454.7v-50.4M2664.4,2339h2.9v23.5h-2.9M2833.4,2324.7h2.8M3160.9,2449v-124.3M2831.1,2324.7h-25.8v-24.6h30.9M3160.9,2324.7h-40.1v-24.6,18.9h-26.9v-18.9M3093.9,2319v5.7" fill-opacity="0" stroke-linejoin="round" stroke-linecap="round" stroke="#023470" stroke-width="2" id="path_17"/><path fill="#000000" d="M3120.8,2324.7v-3.4h-26.9M3093.9,2324.7h-1.1M3093.9,2300.1h-116.2M3657.4,2300.1h78.4v-18.9M3737.6,2300.1v-18.9M1532.9,2300.1h-144.3M1181.3,2449h-4M1109.2,2354.5v-0.6M1109.2,2353.4v-0.6M1109.2,2351.6v-0.5M1109.2,2350.5v-0.6M1109.2,2348.8v-0.6M1109.2,2347.6v-0.5M1109.2,2345.9v-0.6M1109.2,2344.8v-0.6M1109.2,2343v-0.5M1109.2,2341.9v-0.6M1109.2,2340.2v-0.6M1109.2,2339v-0.5M1109.2,2337.3v-0.6M1109.2,2336.2v-0.6M1109.2,2334.5h0M1109.2,2333.3v-0.6M1109.2,2331.6h0M1109.2,2330.4v-0.5M1109.2,2328.7h0M1109.2,2327.6v-0.6M1109.2,2325.9h0M1109.2,2324.7v-0.6M1109.2,2323.6v-0.6M1109.2,2321.9v-0.6M1109.2,2320.7v-0.6M1098.3,2354.5v-0.6M1098.3,2353.4v-0.6M1098.3,2351.6v-0.5M1098.3,2350.5v-0.6M1098.3,2348.8v-0.6M1098.3,2347.6v-0.5M1098.3,2345.9v-0.6M1098.3,2344.8v-0.6M1098.3,2343v-0.5M1098.3,2341.9v-0.6M1098.3,2340.2v-0.6M1098.3,2339v-0.5M1098.3,2337.3v-0.6M1098.3,2336.2v-0.6M1098.3,2334.5h0M1098.3,2333.3v-0.6M1098.3,2331.6h0M1098.3,2330.4v-0.5M1098.3,2328.7h0M1098.3,2327.6v-0.6M1098.3,2325.9h0M1098.3,2324.7v-0.6M1098.3,2323.6v-0.6M1098.3,2321.9v-0.6M1098.3,2320.7v-0.6M1109.8,2397.4h33.2M1177.3,2449h-2.3M1175,2300.1h-2.3v-16.6" fill-opacity="0" stroke-linejoin="round" stroke-linecap="round" stroke="#023470" stroke-width="2" id="path_18"/><path fill="#000000" d="M1172.7,2300.1h2.3v-16.6M2878,2132.9v94.5M2878,2132.9v-29.2M2666.2,2147.2v80.2V2098M2662.2,2227.4V2098M2666.2,2227.4v24M2666.2,2227.4v2.8h26.9v-2.8" fill-opacity="0" stroke-linejoin="round" stroke-linecap="round" stroke="#023470" stroke-width="2" id="path_19"/><path fill="#000000" d="M2693.1,2230.2v21.2,-18.9h-26.9M2666.2,2251.4h-4M2382.7,2250.9v-17.8h26.9v-2.9M2409.6,2233.1v17.8h32.1M2409.6,2230.2v-2.8h4M2169.7,2165.5v-61.8M2169.7,2165.5v61.9M2164,2103.7h2.8v123.7M2099.3,2165.5v61.9M2099.3,2165.5V2098M2099.3,2227.4v23.5,-17.8h27.4v-5.7M2099.3,2230.2h27.4" fill-opacity="0" stroke-linejoin="round" stroke-linecap="round" stroke="#023470" stroke-width="2" id="path_20"/><path fill="#000000" d="M2126.7,2233.1v17.8h83.7M2126.7,2227.4h83.7M2095.8,2230.2v-13.7M2099.3,2216.5v-24M2024.8,2103.7v14.3h4v18.9h-4M1995,2155.2h29.8,-40.1v72.2M1957.8,2136.9v93.3M1957.8,2136.9V2098M1984.7,2227.4v23.5M1957.8,2232v18.9h-19.4" fill-opacity="0" stroke-linejoin="round" stroke-linecap="round" stroke="#023470" stroke-width="2" id="path_21"/><path fill="#000000" d="M2024.8,2161h-36.6v66.4M1988.2,2161v11.4h-3.5v18.9h3.5M1953.2,2165.5v61.9M1953.2,2165.5V2098M1674.4,2227.4v-14.3h-3.5v-23.5h3.5M1531.2,2165.5v61.9M1531.2,2165.5V2098M1464.8,2103.7h-2.9M1459.6,2103.7v123.7,-58.4M1529.5,2169v-71M1529.5,2169v58.4M1529.5,2169v13.7h1.7v24.1h-1.7M1455.1,2103.7h2.2v123.7M1319.3,2165.5v-61.8M1319.3,2165.5v61.9M2447.4,2227.4h-2.3v16h-31.5M2409.6,2227.4h4v16M1313.6,2103.7h2.9v123.7H1289M1105.7,2098v55.5M1149.3,2165v-10.3h3.4v9.1M2462.9,2285.2v-33.8M2462.9,2285.2v14.9M3799.4,2454.7v-45.8M3869.3,2336.8h15.5v3.4h-15.5zM3790.2,2292.7h12v2.3h-12zM3779.4,2171.3v-17.8h5.7v1.2h13.2M1394.4,2229.1h-116.3M1425.3,2249.1h106.5M1531.8,2229.1h-106.5M1272.4,2238.3v10.8M1278.1,2229.1c-3.1,1.1 -5.5,4.7 -5.7,8.6M1343.4,2249.1h-71M1343.4,2249.1h51M1562.1,2249.1h80.2M1562.1,2229.1v20M1642.3,2229.1h-80.2M1672.7,2249.1h112.8M1672.7,2229.1h112.8M1672.7,2249.1v-20M1814.1,2249.1h124.3M1956.1,2229.1v20M1814.1,2229.1h142M1814.1,2229.1v20M1986.5,2249.1h80.1M1986.5,2229.1h80.1M1986.5,2229.1v20M2128.5,2249.1h80.1M2128.5,2229.1v20M2128.5,2229.1h80.1M2239.6,2249.1h111M2312.3,2229.1h38.3,-111v20M1388.6,2301.8h-117.9M1388.6,2321.9h142.6v-20.1h-142.6M1172.2,2321.9h67.5M1361.7,2321.9h-40.6,67M1562.7,2321.9h191.8M1754.5,2301.8h-191.8v20.1h36.7M1754.5,2301.8v20.1M1892.5,2301.8h-22.9M1892.5,2301.8v14.9M2193.7,2301.8h-187.8M2070.1,2323h-64.2v-21.2M2350.1,2301.8h-108.3M2350.1,2323v-21.2M2350.1,2323h-37.8M2241.8,2312.7v-10.9M2495.5,2301.8H2381M2561.9,2301.8h-66.4M2630.7,2301.8h-68.8M2458.9,2323h103M2458.9,2323H2381v-21.2M2630.7,2301.8v21.2h-68.8M2450.9,2229.1h43.5v20h-47M2633,2249.1h-108.8M2595.2,2229.1h-71M2595.2,2229.1h37.8v20M2776.1,2323h-114.5M2776.1,2301.8h-114.5M2776.1,2323v-21.2M2776.1,2323h-37.2M2784.7,2249.1h-89.9M2784.7,2249.1v-20h-89.9M2965.1,2249.1h-150.6M2814.5,2229.1h131.1M2814.5,2229.1v20M2807,2323h170.7M2875.7,2323h-35.5M3092.2,2323h-114.5M3092.2,2323v-21.2H2807M2951.3,2301.8h-111.1M2807,2301.8h29.2M2807,2323v-21.2M3203.9,2323h-80.8M3203.9,2323v-21.2h-80.8v21.2M3368.2,2323h-134M3443.2,2323h-75M3443.2,2323h186.1M3629.3,2301.8h-84.7M3486.7,2301.8h-227.9M3234.2,2323v-21.2M3301.2,2323h-67M3298.9,2249.1h46.4M3373.4,2229.1v20h-28.1M3304.1,2229.1h69.3M3165.5,2241.1h123.1M3149.5,2230.8h145.4M3403.7,2249.1h225.1M3628.8,2237.1c-0.4,-4.6 -4,-7.8 -8.6,-8M3446.1,2229.1h174.1M3446.1,2229.1h-42.4v20M3659.1,2301.8h76.7M3659.1,2323v-21.2M3659.1,2323h67.6M1166.4,2320.1v-18.3M2447.4,2245.7v3.4M2446.8,2250.9v0.5M2447.4,2236v-6.9h3.5M2965.1,2237.1v12M3010.9,2249.1h14.3M3010.9,2237.1v12M3025.2,2236v13.1M3014.3,2236h-3.4v1.1M3025.2,2236h-1.1M3163.8,2249.1h-14.3M3163.8,2245.7v3.4M3294.9,2230.8h9.2v-1.7M3288.6,2241.1h1.7v8h8.6M3726.7,2323h9.1v-21.2M3657.4,2324.7h66.4M2312.3,2323v-6.3M2306,2315h-59.6v-2.3h-4.6M2164,2316.7v6.3h-93.9M2193.7,2314.4v-12.6M2193.7,2314.4h-20.6M695.2,1004.3h10.9v7.5M695.2,1015.2v-10.9M706.1,1015.2h-10.9M706.1,1011.8v3.4M556,720.3h10.9v10.9H556zM696.9,510.2H565.2M706.6,510.2v7.4M696.9,507.9h9.7v9.7h-9.7zM276.6,799.3v10.9M436.9,941.3H465M377.9,941.3h47M365.9,941.3h-13.2M329.8,940.2h14.4M306.4,940.2h11.4M283.5,940.2h13.1M465,948.2h9.7M465,945.3h9.7M465,941.3v10.9M436.9,941.3v10.9M424.9,941.3v10.9M424.9,945.3h12M424.9,948.2h12M377.9,941.3v10.9M365.9,941.3v10.9M365.9,945.3h12M365.9,948.2h12M329.8,940.2v12M317.8,952.2v-12M317.8,948.2h12M317.8,945.3h12M306.4,940.2v12M296.6,952.2v-12M296.6,948.2h9.8M296.6,945.3h9.8M753,507.3h-18.9M753,504.5h-18.9M793.1,507.3h-25.8M793.1,504.5h-25.8M815.4,507.3h-16.6M815.4,504.5h-16.6M867.5,507.3h-37.8M867.5,504.5h-37.8M887.6,507.3h-14.3M887.6,504.5h-14.3M927.7,507.3h-28.1M927.7,504.5h-28.1M927.7,511.3h7.4M887.6,511.3h12M867.5,511.3h5.8M815.4,511.3h14.3M793.1,511.3h5.7M753,511.3h14.3M726.7,511.3h7.4M927.7,511.3v-10.9M899.6,511.3v-10.9M887.6,511.3v-10.9M873.3,511.3v-10.9M867.5,511.3v-10.9M829.7,511.3v-10.9M815.4,511.3v-10.9M798.8,511.3v-10.9M793.1,511.3v-10.9M767.3,511.3v-10.9M753,511.3v-10.9M734.1,511.3v-10.9M726.7,511.3v-10.9M686.6,510.2v-9.8M655.7,510.2h30.9M655.7,500.4v9.8M640.8,510.2v-9.8M633.3,510.2h7.5M633.3,500.4v9.8M616.2,510.2v-9.8M603,510.2h13.2M603,500.4v9.8M591.5,510.2v-9.8M582.9,510.2h8.6M582.9,500.4v9.8M726.7,506.7h-40.1M726.7,503.9h-40.1M655.7,506.7h-14.9M655.7,503.9h-14.9M633.3,506.7h-17.1M633.3,503.9h-17.1M603,506.7h-11.5M603,503.9h-11.5M582.9,506.7h-8.6M574.3,503.9h8.6M555.5,501.6h-13.2M555.5,498.2h-13.2M491.9,508.5l26.3,23.4M518.2,508.5l-26.3,23.4M574.3,510.2h-9.1M574.3,510.2v-9.8M555.5,491.9v16M542.3,491.9v16M475.3,584h9.1M475.3,572v12M463.8,584h-38.3M410,584h-55M335.6,584h-39M463.8,580h11.5M463.8,576.6h11.5M463.8,572v12M410,584v-12M425.5,584v-12M410,576.6h15.5M410,580h15.5M284,581.2V572M296.6,584v-12M344.7,581.2V572M335.6,584v-12M335.6,576h9.1M335.6,580h9.1M296.6,576H284M296.6,580H284M273.1,959.1v-16M277.2,601.2v-10.9M277.2,601.2h-13.8M268.6,790.2v9.1M272,790.2v9.1M264,790.2h12.6M264,780.4h12.6M264,780.4v9.8M276.6,780.4v9.8M268.6,769v11.4M272,769v11.4M264,769h12.6M264,759.3h12.6M264,744.9h12.6M264,740.4h12.6M264,740.4v4.5M276.6,740.4v4.5M264,759.3v9.7M276.6,759.3v9.7M268.6,744.9v14.4M272,744.9v14.4M268.6,702.6v37.8M272.6,702.6v37.8M268.6,674.5v13.8M272.6,674.5v13.8M264,702.6h13.2M264,688.3h13.2M264,688.3v14.3M277.2,688.3v14.3M264,674.5h13.2M264,668.2h13.2M264,668.2v6.3M277.2,668.2v6.3M268.6,668.2v-30.3M272.6,668.2v-30.3M264,637.9h13.7M264,625.8h13.7v12.1M264,625.8v12.1M272.6,613.8v12M269.1,613.8v12M269.1,608.1v-6.9M272.6,608.1v-6.9M264,613.8h13.7M264,608.1h13.7M264,608.1v5.7M277.7,608.1v5.7M565.8,873.8v-11.5M555.5,873.8h10.3M555.5,862.3v11.5M556.6,862.3h-1.1M565.8,862.3h-9.2M482.7,873.8v-11.5M494.2,873.8h-11.5M494.2,862.3v11.5M492.5,862.3h1.7M482.7,862.3h9.8M532,548.5v-40.6M487.3,548.5H532M487.3,548.5v32.7M494.8,590.3V584M484.4,590.3h10.4M484.4,584v6.3M484.4,581.2h10.3v9.2h-10.3zM565.2,507.9v9.7M555.5,507.9h9.7M555.5,517.6v-9.7M565.2,517.6h-9.7M565.2,586.3h-0.6M565.2,577.2v9.1M555.5,586.3h9.1M555.5,577.2v9.1M565.2,577.2h-9.7M494.2,722v9.2M483.3,722v9.2M494.2,722h-10.9M355,581.2v9.1M344.7,581.2H355M344.7,590.3v-9.1M355,590.3h-10.3M284,581.2v9.1M274.3,581.2h9.7M274.3,590.3v-9.1M284,590.3h-9.7M282.9,731.8v-10.3M273.1,731.8h9.8M273.1,721.5v10.3M282.9,721.5h-9.8M344.2,943.1v-9.2M352.7,943.1h-8.5M352.7,933.9v9.2M344.2,933.9h8.5M354.5,873.2h-1.8M354.5,862.9v10.3M343.6,873.2h9.1M343.6,862.9v10.3M354.5,862.9h-10.9M283.5,943.1v-9.2M273.1,943.1h10.4M273.1,933.9v9.2M283.5,933.9h-10.4M282.9,873.2v-10.9M273.1,873.2h9.8M273.1,862.3v10.9M282.9,862.3h-9.8M552,986h6.9M552,983.1h6.9M545.1,986h-12.6M545.1,983.1h-12.6M494.8,1024.9l25.1,-6.3M488.5,1060.4l6.3,-35.5M532.5,920.7v17.2M545.1,978.6h6.9M532.5,957.4v33.8M519.9,957.4v50.9M532.5,957.4h-12.6M519.9,937.9h12.6M519.9,920.7v17.2M474.7,908.1h41.2M474.7,952.2v-44.1M519.9,1060.4h-1.1M519.9,1018.6v41.8M488.5,1018.6v41.8M518.8,1060.4H489M488.5,1018.6h31.4M489,1070.8c0.3,-0.1 0.5,-0.1 0.6,0M552,978.6v12.6M545.1,978.6v12.6M557.7,966v-3.5M558.9,966h-1.2M558.9,978.6V966M558.9,991.2v-12.6M569.8,1011.8h1.7M569.8,1002.6v9.2M571.5,1002.6h-1.7M571.5,962.5v40.1M557.7,962.5h13.8M571.5,1023.8v-12M960.3,1016.3h10.9M960.3,1019.2h10.9M953.4,1023.8v-12M953.4,1011.8v12M960.3,1011.8v12M960.3,1023.8v-12h-6.9M934.5,1016.3h18.9M934.5,1019.2h18.9M934.5,1023.8v-12M927.1,1011.8v12M934.5,1011.8h-7.4M934.5,1011.8v12M927.1,1011.8v12M899,1016.3h28.1M899,1019.2h28.1M887,1011.8h12M887,1023.8v-12M899,1011.8v12M899,1011.8v12M887,1011.8v12M875,1016.3h12M875,1019.2h12M869.3,1011.8h5.7M869.3,1023.8v-12M875,1011.8v12M875,1011.8v12M869.3,1011.8v12M831.5,1016.3h37.8M831.5,1019.2h37.8M814.9,1011.8h16.6M814.9,1023.8v-12M831.5,1011.8v12M831.5,1011.8v12M814.9,1011.8v12M798.2,1016.3h16.7M798.2,1019.2h16.7M791.4,1011.8h6.8M791.4,1023.8v-12M798.2,1011.8v12M798.2,1011.8v12M791.4,1011.8v12M737,1016.3h12M737,1019.2h12M760.5,1016.3h30.9M760.5,1019.2h30.9M749,1011.8h11.5M749,1023.8v-12M760.5,1011.8v12M760.5,1011.8v12M749,1011.8v12M731.2,1011.8h5.8M731.2,1023.8v-12M737,1011.8v12M737,1011.8v12M731.2,1011.8v12M731.2,1015.8h-40M731.2,1018.6h-40M668.3,1011.8h22.9M668.3,1023.8v-12M691.2,1011.8v12M691.2,1011.8v12M668.3,1023.8v-12M668.3,1015.8h-30.4M668.3,1018.6h-30.4M571.5,1015.8h8.6M571.5,1018.6h8.6M630.5,1015.8h-17.2M630.5,1018.6h-17.2M630.5,1011.8h7.4M630.5,1023.8v-12M637.9,1011.8v12M637.9,1011.8v12M630.5,1023.8v-12M580.1,1011.8h8.6M580.1,1023.8v-12M588.7,1011.8v12M588.7,1011.8v12M580.1,1023.8v-12M600.1,1015.8h-11.4M600.1,1018.6h-11.4M600.1,1011.8h13.2M600.1,1023.8v-12M613.3,1011.8v12M613.3,1011.8v12M600.1,1023.8v-12M1100,988.3h14.3M1092.6,995.7h7.4M1092.6,992.9h7.4M1057.1,995.7h26.9M1057.1,992.9h26.9M1047.9,995.7h-6.9M1047.9,992.9h-6.9M971.2,1011.8h2.3M1041,988.3h-57.8M1084,988.3h8.6M1047.9,988.3h9.2M1084,1000.3v-12M1057.1,1000.3v-12M1092.6,1000.3v-12M1047.9,1000.3v-12M1100,1000.3v-12M1041,1000.3v-12M991.8,1007.8l37.2,-7.5M983.2,1061l8.6,-53.2M983.2,1000.3v23.5M1029,1000.3h-45.8M983.2,1061v-37.2M1029,1000.3v60.7h-45.8M982.6,1073c0.3,-0.5 0.4,-0.5 0,0h0zM1079.4,507.3h8M1079.4,504.5h8M1073.1,507.3H1045M1073.1,504.5H1045M1029.6,507.3h-9.2M1029.6,504.5h-9.2M973.5,507.3h37.8M973.5,504.5h37.8M935.1,507.3h20M935.1,504.5h20M1090.9,726V592.1M1109.8,726h-9.8M1109.8,735.2V726M1100,735.2h9.8M1100,726v9.2M1100,731.8V726h9.8v5.8M1098.9,726v5.8M1088.6,726h10.3M1088.6,731.8V726M1088.6,726h10.3v9.2h-10.3zM973.5,511.3h-18.4M1020.4,511.3h-9.1M1029.6,511.3h15.4M1079.4,511.3h-6.3M1106.3,582.9v-63.6M1106.3,726V592.1M1118.3,728.9h-8.5M1118.3,728.9v-12M935.1,511.3v-10.9M955.1,511.3v-10.9M973.5,511.3v-10.9M1011.3,511.3v-10.9M1020.4,511.3v-10.9M1029.6,511.3v-10.9M1045,511.3v-10.9M1073.1,511.3v-10.9M1079.4,511.3v-10.9M1087.4,500.4V511.3M1097.2,519.3v63.6M1106.3,592.1V726M1100.6,582.9v9.2M1109.8,582.9h-9.2M1109.8,592.1v-9.2M1100.6,592.1h9.2M1100.6,592.1h7.4M1100.6,584v8.1M1098.3,511.3v8h8" fill-opacity="0" stroke-linejoin="round" stroke-linecap="round" stroke="#023470" stroke-width="2" id="path_22"/><path fill="#000000" d="M1098.3,510.2h9.2v9.2h-9.2zM1098.3,489.6l8,-2.9M1094.9,499.3l3.4,-9.7M1106.3,519.3v63.6M1094.9,499.3h11.4M1096.6,511.3h1.7M1094.9,486.7v12.6M1106.3,486.7h-11.4M1109.8,728.9h8.5M1106.3,486.7v12.6M1109.8,474.7h-0.6M1109.8,474.7h-0.6M1088.6,584v8.1h8" fill-opacity="0" stroke-linejoin="round" stroke-linecap="round" stroke="#023470" stroke-width="2" id="path_23"/><path fill="#000000" d="M1088.6,582.9h9.7v9.2h-9.7zM1087.4,510.2v9.1M1096.6,510.2h-9.2M1096.6,519.3v-9.1M1087.4,519.3h9.2M1087.4,519.3h8M1087.4,511.3v8M1095.4,519.3V580M1035.9,511.3h51.5M991.8,511.3h44.1M991.8,518.2h-4M991.8,518.2v-6.9M980.9,518.2v-6.9M991.8,518.2h-10.9M980.9,508.5h10.9v9.7h-10.9zM837.2,511.3H726.7M848.1,511.3h56.1M837.2,508.5v9.7M848.1,508.5h-10.9M848.1,518.2v-9.7M837.2,518.2h10.9M848.1,1004.3h-10.9M848.1,1013.5v-9.2M837.2,1013.5h10.9M837.2,1004.3v9.2M991.2,988.3h123.1M991.2,988.3h-6.3M1510,721.5h-391.7M1510,724.3h-391.7M1538.1,479.3h-8.6M1538.1,476.4h-8.6M1546.1,479.3h19.5M1546.1,476.4h19.5M1574.2,479.3h8M1574.2,476.4h8M1519.8,576.6v-7.4M1516.3,576.6v-7.4M1388.1,728.9H1510M1236.3,728.9h-118M1388.1,726v5.8M1377.7,726h10.4M1377.7,731.8V726M1377.7,726h10.3v9.2h-10.3zM1246.6,726h-10.3M1246.6,735.2V726M1236.3,735.2h10.3M1236.3,726v9.2M1236.3,731.8V726h10.3v5.8M1510,728.9v-12M1510,728.9h7.5M1526.6,737.5v-10.3M1517.5,737.5h9.1M1517.5,727.2v10.3M1526.6,727.2h-9.1M1520.3,660.2h-9.1M1511.2,653.9h9.1M1524.9,569.2v-45.3M1531.2,523.9v-9.7M1522.1,523.9h9.1M1522.1,514.2v9.7M1531.2,514.2h-9.1M1565.6,483.8h8.6M1538.1,483.8h8M1565.6,471.8v12M1546.1,483.8v-12M1574.2,471.8v12M1582.2,471.8v12M1538.1,483.8v-12M1511.2,501.6h13.7M1511.2,494.7h13.7M1524.9,569.2h-13.7M1524.9,576.6h-13.7M1524.9,585.8v-9.2M1511.2,653.9h13.7M1511.2,660.2h13.7M1526.6,727.2v10.3M1520.3,727.2h6.3M1524.9,523.9v45.3M1660.6,517h-58.4M1670.9,517h-10.3M1770,193.5h68.1M1770,171.2v22.3M1642.3,171.2H1770M1642.3,442V171.2M1594.2,384.8v99M1594.2,365.9v9.1M1594.2,365.9h-12M1594.2,357.3v-50.4M1582.2,357.3h12M1594.2,306.9h-12M1594.2,292.6V260M1582.2,292.6h12M1594.2,260h-12M1594.2,251.4v-8M1582.2,251.4h12M1594.2,192.4v41.2M1582.2,192.4h12M1594.2,178.6h-12M1594.2,109.4v69.2M1606.8,109.4h-12.6M1606.8,109.4V97.3M1632,109.4V97.3M1638.3,109.4h-6.3M1638.3,97.3v12.1M1661.8,127.7v-17.8M1646.3,97.3v30.4M1661.8,127.7h-15.5M1676.1,135.1v-25.2M1741.4,135.1h-65.3M1741.4,109.9v25.2M1762.6,135.1v-25.2M1787.2,135.1h-24.6M1787.2,109.9v25.2M1826.1,152.9v-12M1810.7,109.9v18.9M1813.5,128.8h-2.8M1813.5,152.9v-24.1M1826.1,152.9h-12.6M1840.4,152.9v-12M1835.3,152.9h5.1M1835.3,140.9v12M1941.8,411.1h6.9M1941.8,408.3h6.9M1909.7,411.1h25.8M1909.7,408.3h25.8M1903.4,411.1h-6.8M1903.4,408.3h-6.8M1810.7,122.5h-23.5M1762.6,119.7h-21.2M1871.9,123.1h12.6v18.3h-12.6zM1859.9,140.9v12M1884.5,152.9h-24.6M1884.5,178.6v-25.7M1896.6,178.6h-12.1M1884.5,192.4v41.2M1896.6,192.4h-12.1M1884.5,251.4v-8M1896.6,251.4h-12.1M1884.5,292.6h12.1M1884.5,260v32.6M1884.5,260h12.1M1884.5,357.3v-50.4M1896.6,357.3h-12.1M1884.5,306.9h12.1M1884.5,365.9h12.1M1884.5,375v-9.1M1884.5,414v-29.2M1896.6,414h-12.1M1948.7,414h5.1M1941.8,414h-6.3M1909.7,414h-6.3M1935.5,404.8v9.2M1909.7,404.8v9.2M1903.4,404.8v9.2M1896.6,404.8v9.2M1941.8,404.8v9.2M1948.7,414v-9.2M1734.5,517h-37.8M1953.8,430v-16M1967.6,430h-13.8M1953.8,438v8M1967.6,438h-13.8M1955.5,498.2v-42.4M1967.6,498.2h-12.1M1955.5,506.7h12.1M1955.5,570.9v-64.2M1967.6,570.9h-12.1M1955.5,579.5h12.1M1955.5,587.5v-8M1967.6,735.2v-12.6M1955.5,732.3V597.2M1955.5,660.8v-63.6M1880.5,1147.5h12M1880.5,1094.8v52.7M1865.1,1094.8h15.4M1865.1,1094.8v81.3M1892.5,1147.5v12M1951.5,1147.5h-41.8M1951.5,1095.9v51.6M1967.6,1095.9h-16.1M1967.6,1164.1v-68.2M1967,1164.1h0.6M1953.2,1094.8h2.9v-10.3h-10.3v10.3" fill-opacity="0" stroke-linejoin="round" stroke-linecap="round" stroke="#023470" stroke-width="2" id="path_24"/><path fill="#000000" d="M1945.8,1084.5h10.3v10.3h-10.3zM2391.3,1153.8h13.7M2391.3,1150.9h13.7M2385.6,1153.8h-9.2M2385.6,1150.9h-9.2M2385.6,1146.3h5.7v12.1M2385.6,1146.3v12.1M1967,1172.1v-8M1909.7,1147.5v12M1921.7,1159.5h31.5M1926.9,1166.4l26.3,-6.9M1921.7,1203.6l5.2,-37.2M1921.7,1203.6v-44.1M1953.2,1203.6h-31.5M1953.2,1159.5v44.1M1883.4,1094.8v-10.3M1873.1,1094.8h10.3M1873.1,1084.5v10.3M1883.4,1084.5h-10.3M1592.5,1062.7v-14.3M1585.6,1070.7h6.9M1585.6,1066.7h6.9M1579.3,1070.7h-15.4M1579.3,1066.7h-15.4M1579.3,1062.7h6.3M1579.3,1062.7v12.1M1585.6,1062.7v12.1M1592.5,1062.7v12.1M1510,1022.1v63.5M1522.1,1062.7v-40.6M1563.9,1062.7h-41.8M1519.2,1129.2c0.4,-0.4 0.5,-0.4 0.6,0M1507.7,1090.2h-389.4M1507.7,1093.1h-389.4M1507.7,1085.6h2.3M1507.7,1097.7v-12.1M1118.3,1085.6h-4M1118.3,1085.6v12.1M1377.7,1085.6h-131.1M1388.1,1079.9h-10.4M1388.1,1089.1v-9.2M1377.7,1089.1h10.4M1377.7,1079.9v9.2M1377.7,1085.6v-5.7h10.4v5.7M1246.6,1085.6h131.1M1236.3,1085.6h-122M1246.6,1079.9v5.7M1236.3,1079.9h10.3M1236.3,1085.6v-5.7M1236.3,1079.9h10.3v9.2h-10.3zM1114.3,1085.6v-97.3M3720.4,773v-21.2M3732.4,773h-12M3399.1,540.5l4.6,-1.1M3399.1,540.5h0M3395.7,528.6v-0.1M3375.1,534.2l3.4,-0.5M3381.4,545.1l-2.9,-12M3377.9,545.7l3.5,-0.6M3375.1,534.2l2.8,11.5M3368.2,556.6v31.5M3374.5,556.6h-6.3M3373.9,546.8l0.6,9.8M3370.5,535.4l3.4,11.4M3355.6,720.9v12M3363.1,732.9h-7.5M3376.8,541.7l-4,1.1M3376.2,538.8l-4.6,1.2M3397.4,535.9l-17.2,4.6M3396.8,533.1l-17.1,4.6M3400.3,527.4l-4.6,1.2M3355.6,529.1h0M3355.6,732.9v-12M3368.2,586.3v1.8M3450.7,1031.2h259.9M3450.7,1027.2h259.9M3718.1,946.5V813.1M3732.4,800.5h-12M3711.8,813.1h9.2v-9.8h-9.2M3718.1,1023.2v-67M3710.6,1023.2h7.5M3710.6,1035.2v-12M3379.1,1014.1h16M3379.1,1010.1h16M3446.1,1014.1h2.3M3446.1,1023.2v-9.1M3450.7,1023.2h-4.6M3721,946.5h-9.2M3721,956.2v-9.7M3711.8,956.2h9.2M3711.8,946.5v9.7M3718.1,945.9V813.7M3578.4,1015.8h-9.8M3578.4,1025.5v-9.7M3568.6,1025.5h9.8M3568.6,1015.8v9.7M3376.8,1018.1V1006M3379.1,1006v12.1M3379.1,1006v12.1M3376.8,1006v12.1M3414.6,1026.1l24,-8M3407.1,1066.2l7.5,-40.1M3438.6,1018.1v17.1M3407.1,1018.1h31.5M3438.6,1035.2v31h-31.5v-48.1M3351.6,1102.2v-12M3357.3,1090.2h-5.7M3357.3,1079.3v10.9M3355.6,1079.3h1.7M2955.9,1095.4h395.7M2955.9,1098.2h395.7M2955.9,727.8h399.7M2955.9,724.9h399.7M2955.9,740.9v-20M2943.3,385.9h-9.1M2943.3,349.3v36.6M2931.3,349.3h12M2931.3,360.2v-10.9M2922.1,360.2h9.2M2922.1,360.2v-10.9M2934.2,392.8h18.9M2934.2,385.9v6.9M2872.9,385.9v6.9M2863.7,385.9h9.2M2863.7,360.2v25.7M2869.4,360.2h-5.7M2869.4,360.2v-10.9M2872.9,392.8H2854M2872.9,433.5H2854M2872.9,405.4v28.1M2854,405.4h18.9M2934.2,433.5h18.9M2934.2,405.4v28.1M2953.1,405.4h-18.9M2872.9,497.6v6.9M2866.6,497.6h6.3M2866.6,461.5v36.1M2872.9,461.5h-6.3M2872.9,444.9v16.6M2854,444.9h18.9M2872.9,504.5H2854M2872.9,545.1H2854M2872.9,517v28.1M2854,517h18.9M2934.2,444.9h18.9M2934.2,461.5v-16.6M2939.9,461.5h-5.7M2939.9,496.4v-34.9M2934.2,496.4h5.7M2934.2,504.5v-8.1M2953.1,504.5h-18.9M2934.2,545.1h18.9M2934.2,517v28.1M2953.1,517h-18.9M2934.2,557.1h18.9M2934.2,570.3v-13.2M2939.9,570.3h-5.7M2939.9,588.6v-18.3M2939.9,608.7v-10.3M2943.3,588.6h-9.1M2943.3,598.4v-9.8M2934.2,598.4h9.1M2934.2,588.6v9.8M2863.2,597.8h3.4M2863.2,588.1v9.7M2872.9,588.1h-9.7M2866.6,597.8v133.4M2872.9,597.8h-6.3M2872.9,588.1v9.7M2866.6,588.1h6.3M2872.9,557.1V576M2854,557.1h18.9M2860.9,740.9v0.6M2863.2,740.9h-2.3M2872.9,740.9h-9.7M2872.9,737.5v3.4M2854,722.6V741.5M2860.9,741.5h-6.9M2901.5,559.4h-28.6M2901.5,552h-28.6M2901.5,545.1h-28.6M2901.5,538.2h-28.6M2901.5,530.8h-28.6M2901.5,523.9h-28.6M2905.5,516.5v49.8M2901.5,516.5v49.8M2934.2,516.5h-61.3M2934.2,523.9h-28.7M2934.2,530.8h-28.7M2934.2,538.2h-28.7M2934.2,545.1h-28.7M2934.2,552h-28.7M2934.2,559.4h-28.7M2934.2,566.3h-61.3M2901.5,455.8h-28.6M2901.5,448.3h-28.6M2901.5,441.5h-28.6M2901.5,434h-28.6M2901.5,427.2h-28.6M2901.5,420.3h-28.6M2901.5,412.8h-28.6M2901.5,406h-28.6M2901.5,399.1h-28.6M2905.5,391.7v71M2901.5,391.7v71M2934.2,461.5v1.2M2872.9,461.5v1.2M2934.2,455.8h-28.7M2934.2,448.3h-28.7M2934.2,441.5h-28.7M2934.2,434h-28.7M2934.2,427.2h-28.7M2934.2,420.3h-28.7M2934.2,412.8h-28.7M2934.2,406h-28.7M2934.2,399.1h-28.7M2934.2,391.7h-61.3M2934.2,557.1h18.9M2934.2,545.1h18.9M2942.2,545.1v12M2945,545.1v12M2953.1,504.5h-18.9M2953.1,517h-18.9M2942.2,504.5V517M2945,504.5V517M2864.9,545.1v12M2862,545.1v12M2864.9,504.5V517M2862,504.5V517M2872.9,517H2854M2872.9,504.5H2854M2854,545.1h18.9M2854,557.1h18.9M2934.2,444.9h18.9M2934.2,433.5h18.9M2942.2,433.5v11.4M2945,433.5v11.4M2953.1,392.8h-18.9M2953.1,405.4h-18.9M2942.2,392.8v12.6M2945,392.8v12.6M2864.9,433.5v11.4M2862,433.5v11.4M2864.9,392.8v12.6M2862,392.8v12.6M2872.9,405.4H2854M2872.9,392.8H2854M2854,433.5h18.9M2854,444.9h18.9M2869.4,356.7h6.9M2869.4,352.7h6.9M2882.6,356.7h28.1M2882.6,352.7h28.1M2914.1,356.7h8M2914.1,352.7h8M2869.4,349.3v10.9M2876.3,349.3v10.9M2882.6,349.3v10.9M2910.7,349.3v10.9M2914.1,349.3v10.9M2922.1,349.3v10.9M2863.7,360.2v1.7M2931.3,360.2h-67.6M2931.3,349.3v10.9M2943.3,349.3h-12M2943.3,385.9v-36.6M2934.2,385.9h9.1M2934.2,461.5v-75.6M2939.9,461.5h-5.7M2939.9,496.4v-34.9M2934.2,496.4h5.7M2934.2,570.3v-73.9M2939.9,570.3h-5.7M2939.9,588.6v-18.3M2934.2,588.6h5.7M2934.2,598.4v-9.8M2939.9,598.4h-5.7M2939.9,731.2V598.4M2863.7,385.9v-24M2872.9,385.9h-9.2M2872.9,461.5v-75.6M2866.6,461.5h6.3M2866.6,497.6v-36.1M2872.9,497.6h-6.3M2872.9,588.1v-31M2872.9,588.1h-6.3M2872.9,597.8v-9.7M2866.6,597.8h6.3M2866.6,731.2V597.8M2461.7,1162.4h0.6M2405,1146.3h46.4M2422.8,1165.2l25.2,-6.8M2416.5,1158.4h31.5M2461.7,1170.4v-8M2405.1,1146.3v12M2448,1202.4h-31.5M2448,1158.4v44M2416.5,1202.4v-44M2416.5,1202.4l6.3,-37.2M2917,1097.1l24.6,-6.9M2910.7,1134.3l6.3,-37.2M2898.7,1078.2h-28.1M2910.7,1090.2h30.9M2910.7,1134.3v-44.1M2941.6,1090.2v44.1h-30.9M3233.1,729.5v9.7M3223.9,729.5h9.2M3223.9,739.2v-9.7M3233.1,739.2h-9.2M3091.1,728.9v9.2M3080.8,728.9h10.3M3080.8,738.1v-9.2M3091.1,738.1h-10.3M3228.5,1083.9h-9.2M3228.5,1093.6v-9.7M3219.3,1093.6h9.2M3219.3,1083.9v9.7M3087.6,1083.9h-10.3M3087.6,1093.6v-9.7M3077.3,1093.6h10.3M3077.3,1083.9v9.7M3223.9,732.9h-132.8M3080.8,732.9h-124.9M2955.9,1047.8v42.4M2933,1047.8h22.9M2933,1052.4v-4.6M2933,1078.2v-25.8M2870.6,1090.8v-43M2854,1047.8h16.6M2854,1047.8v122.6M2854,1167.5h-392.3M2854,726.6h-389.4M2854,729.5h-389.4M2737.2,1155.5h-10.3M2737.2,1165.2v-9.7M2726.9,1165.2h10.3M2726.9,1155.5v9.7M2590.6,1155.5h-10.9M2590.6,1165.2v-9.7M2579.7,1165.2h10.9M2579.7,1155.5v9.7M2731.4,741.5h-9.7M2731.4,732.3v9.2M2721.7,732.3h9.7M2721.7,741.5v-9.2M2594,742.1h-10.3M2594,732.3v9.8M2583.7,732.3h10.3M2583.7,742.1v-9.8M2721.7,735.2H2594M2583.7,735.2h-121.4M2726.9,1162.4v-6.9h10.3v6.9M2721.7,741.5v-6.3M2731.4,741.5h-9.7M2731.4,735.2v6.3M2224.7,735.2H2093M2082.7,735.2h-115.1M2234.4,738.6v-6.3h-9.7v6.3" fill-opacity="0" stroke-linejoin="round" stroke-linecap="round" stroke="#023470" stroke-width="2" id="path_25"/><path fill="#000000" d="M2224.7,732.3h9.7v9.2h-9.7zM2093,732.3v6.3M2093,732.3h-10.3v6.3" fill-opacity="0" stroke-linejoin="round" stroke-linecap="round" stroke="#023470" stroke-width="2" id="path_26"/><path fill="#000000" d="M2082.7,732.3h10.3v9.2h-10.3zM2093,1164.1h131.7M2234.4,1164.1h122.5M2234.4,1157.8h-9.7M2234.4,1167.5v-9.7M2224.7,1167.5h9.7M2224.7,1157.8v9.7M2093,1157.8h-10.3M2093,1167.5v-9.7M2082.7,1167.5h10.3M2082.7,1157.8v9.7M2082.7,1157.8v6.3M2093,1157.8h-10.3M2093,1157.8v6.3M2224.7,1157.8v6.3M2234.4,1157.8h-9.7M2234.4,1164.1v-6.3M2356.9,1164.1h-122.5M2356.9,1169.2H1967M2363.2,730.6h-395.6M2363.2,727.8h-395.6M2462.9,1063.9l-0.6,98.5M2439.4,1063.9h23.5M2439.4,1083.3v-19.4M2451.4,1083.3h-12M2451.4,1146.3v-63M2356.9,1172.1v-49.3M2376.4,1122.9h-19.5M2376.4,1122.8v35.5M2411.9,561.7H2385M2411.9,554.3H2385M2411.9,547.4H2385M2411.9,540.5H2385M2411.9,533.1H2385M2411.9,526.2H2385M2411.9,519.3H2385M2415.9,511.9v56.7M2411.9,511.9v56.7M2442.8,568.6H2385M2442.8,561.7h-26.9M2442.8,554.3h-26.9M2442.8,547.4h-26.9M2442.8,540.5h-26.9M2442.8,533.1h-26.9M2442.8,526.2h-26.9M2442.8,519.3h-26.9M2442.8,511.9H2385M2409.6,391.7H2385M2407.3,399.1H2385M2404.5,406H2385M2402.2,412.8H2385M2399.9,420.3H2385M2397,427.2h-12M2394.7,434h-9.7M2392.4,441.5h-7.4M2390.2,448.3h-5.2M2387.3,455.8h-2.3M2411.9,390.5l-24.6,72.2M2411.9,384.8l-26.9,77.9M2411.9,455.8h-22.3M2411.9,448.3h-20M2411.9,441.5h-17.7M2411.9,434H2397M2411.9,427.2h-12.6M2411.9,420.3h-10.3M2411.9,412.8h-8M2411.9,406h-5.1M2411.9,399.1h-2.8M2411.9,391.7h-0.6M2415.9,384.8v77.9M2411.9,384.8v77.9M2442.8,384.8H2385M2442.8,391.7h-26.9M2442.8,399.1h-26.9M2442.8,406h-26.9M2442.8,412.8h-26.9M2442.8,420.3h-26.9M2442.8,427.2h-26.9M2442.8,434h-26.9M2442.8,441.5h-26.9M2442.8,448.3h-26.9M2442.8,455.8h-26.9M2442.8,462.7H2385M2462.9,722.6h-0.6M2462.9,735.2v-12.6M2449.1,686.5v45.8M2449.1,616.1v-10.9M2449.1,686.5v-70.4M2442.8,547.4v53.2M2462.9,547.4h-20.1M2442.8,535.9h20.1M2442.8,504.5v31.4M2462.9,504.5h-20.1M2385,600.6v-53.2M2376.4,615v-9.8M2376.4,732.3v-67.5M2385,547.4h-20.6M2385,535.9h-20.6M2385,504.5v31.4M2364.4,504.5h20.6M2462.9,444.9h-20.1M2442.8,492.4h20.1M2442.8,444.9v47.5M2385,492.4v-47.5M2364.4,492.4h20.6M2385,444.9h-20.6M2442.8,433.5h20.1M2442.8,402v31.5M2462.9,402h-20.1M2385,433.5V402M2364.4,433.5h20.6M2385,402h-20.6M2442.8,389.9h20.1M2442.8,383.1v6.8M2452,383.1h-9.2M2452,343v40.1M2440,343h12M2440,359.6V343M2431.4,359.6h8.6M2431.4,359.6v-8M2422.8,351.6v8M2418.8,359.6h4M2418.8,359.6v-8M2393.6,351.6v8M2386.7,359.6h6.9M2386.7,359.6v-8M2376.4,359.6h2.9M2376.4,383.1v-23.5M2385,383.1h-8.6M2385,389.9v-6.8M2364.4,389.9h20.6M2379.3,351.6v8M2449.1,462.7h-6.3v-9.8h6.3" fill-opacity="0" stroke-linejoin="round" stroke-linecap="round" stroke="#023470" stroke-width="2" id="path_27"/><path fill="#000000" d="M2442.8,452.9h9.7v9.7h-9.7zM2376.4,452.9h6.3v9.8h-6.3" fill-opacity="0" stroke-linejoin="round" stroke-linecap="round" stroke="#023470" stroke-width="2" id="path_28"/><path fill="#000000" d="M2373,452.9h9.7v9.7h-9.7zM2452,590.9h-9.2M2452,600.6v-9.7M2442.8,600.6h9.2M2442.8,590.9v9.7M2385,600.6v-9.7M2375.8,600.6h9.2M2375.8,590.9v9.7M2385,590.9h-9.2M2442.8,492.4h20.1M2442.8,504.5h20.1M2442.8,535.9h20.1M2442.8,547.4h20.1M2450.9,492.4v12.1M2454.9,492.4v12.1M2450.9,535.9v11.5M2454.9,535.9v11.5M2376.4,535.9v11.5M2372.4,535.9v11.5M2364.4,547.4h20.6M2364.4,535.9h20.6M2376.4,492.4v12.1M2372.4,492.4v12.1M2364.4,504.5h20.6M2364.4,492.4h20.6M2364.4,389.9h20.6M2364.4,402h20.6M2364.4,433.5h20.6M2364.4,444.9h20.6M2372.4,389.9V402M2376.4,389.9V402M2372.4,433.5v11.4M2376.4,433.5v11.4M2454.9,433.5v11.4M2450.9,433.5v11.4M2454.9,389.9V402M2450.9,389.9V402M2442.8,444.9h20.1M2442.8,433.5h20.1M2442.8,402h20.1M2442.8,389.9h20.1M2363.2,735.2h-6.3M2376.4,615v117.3M2376.4,600.6V615M2385,600.6h-6.3M2385,590.9v9.7M2378.7,590.9h6.3M2385,383.1v217.5M2376.4,383.1h8.6M2376.4,359.6v23.5M2422.8,355h8.6M2393.6,355h25.2M2379.3,355h7.4M2379.3,359.6v-8M2386.7,351.6v8M2393.6,351.6v8M2418.8,351.6v8M2422.8,351.6v8M2431.4,351.6v8M2440,359.6h-8.6M2440,356.7v2.9M2440,343v13.7M2449.1,605.2v10.9M2452,343h-12M2452,383.1V343M2442.8,383.1h9.2M2442.8,600.6V383.1M2442.8,590.9h6.3M2442.8,600.6v-9.7M2449.1,600.6h-6.3M2449.1,616.1v-15.5M2376.4,1122.9h-6.3M2376.4,1146.3v-23.4M2451.4,1146.3h-75M2451.4,1083.3v63M2439.4,1083.3h12M2356.9,735.2h-122.5M1967.6,1164.1h115.1M1967.6,1176.1h389.3M1967.6,1164.1h115.1M1582.2,483.8h12M1531.2,523.9h-6.3M1531.2,514.2v9.7M1529.5,514.2h1.7M1529.5,483.8h52.7M1892.5,1155.5h17.2M1892.5,1151.5h17.2M1892.5,1147.5v12M1909.7,1147.5v12M1951.5,1147.5h-41.8M1951.5,1147.5h-16M1951.5,1095.9v51.6M1867.3,1094.8h5.8M1883.4,1084.5h-10.3M1883.4,1094.8v-10.3M1880.5,1094.8h2.9M1880.5,1147.5v-52.7M1935.5,1147.5h-55M207.9,959.1v-71h-68.2v-41.2h-4.6" fill-opacity="0" stroke-linejoin="round" stroke-linecap="round" stroke="#023470" stroke-width="2" id="path_29"/><path fill="#000000" d="M135.7,810.2h-0.6v36.7M477.6,1059.9v-0.6M283.5,940.2h60.7M283.5,933.9v6.3M276.6,933.9h6.9M344.2,940.2v-6.3h6.2M354.5,862.9v5.7M343.6,862.9h10.9M343.6,868.6v-5.7M282.9,862.3v6.3M276.6,862.3h6.3M343.6,868.6v4.6M474.7,940.2v-32.1M474.7,941.3v-28.6M494.2,862.3h-11.5v11.5M352.7,941.3h122M488.5,920.7v87.6M263.4,799.3h13.2M273.1,959.1h-65.2M276.6,810.2H135.7M282.9,731.8h-6.3M282.9,721.5v10.3M276.6,721.5h6.3M277.2,721.5v-67M343.6,720.3h9.7M343.6,730.1v-9.8M353.3,730.1h-9.7M353.3,720.3v9.8M277.2,590.3v64.2M277.2,590.3h6.8V584h60.7v6.3H355V584M494.8,590.3h-7.5M483.3,731.2h10.9M494.2,725.5V722h-8M483.3,584H355M487.3,535.4v-40.1M494.8,548.5h-7.5M276.6,689.4v32.1M530.8,1058.2v-0.6M557.7,978.6h-25.2M557.7,978.6h1.2M558.9,978.6V966h-1.2M569.8,1011.8v-9.2h1.7M630.5,1011.8h-60.7M630.5,1011.8h64.7M532.5,920.7c-0.7,-8.1 -8,-13.8 -16,-12.6 0,-0.3 -0.1,-0.3 -0.6,0M565.8,862.3v8M519.9,937.9v-17.2M519.9,937.9h12.6M519.9,957.4v-19.5M532.5,957.4h-12.6M692.9,861.7h12v12h-12zM532.5,991.2v-70.5M519.9,1008.3v-50.9M848.1,1011.8v-7.5h-10.9v7.5M971.2,1011.8v12M971.2,1061.6v-0.6M973.5,1011.8v-8.6h-2.3v-4M981.5,988.3c-5.3,0.7 -9.4,5.1 -10.3,10.9M984.9,988.3h-3.4M973.5,1011.8H848.1M835.5,861.7h12.6v12h-12.6zM837.2,1011.8H706.1M555.5,582.9v-5.7h9.7v1.7M692.9,719.7h12v12h-12zM555.5,507.9h-13.2M565.2,510.2v7.4M633.3,500.4v9.8h-17.1v-9.8M603,500.4v9.8h-11.5v-9.8M582.9,500.4v9.8h-8.6M521.7,495.3v40.1M529.1,548.5h2.9M640.8,500.4v9.8h14.9v-9.8M726.7,510.2h-20.1M835.5,719.7h12.6v12h-12.6zM835.5,577.2h12.6v12.6h-12.6zM831.5,511.3h-48.7M848.1,518.2h-10.9v-6.9M848.1,518.2v-6.9M904.2,511.3h76.7M782.8,511.3h54.4M980.9,511.3H848.1M1114.3,987.7v97.9M1507.7,1117.7v-0.6M1519.8,1117.1v-19.4M1510,1085.6h-121.9M1315.3,728.9h62.4M1315.3,728.9h-68.7M515.9,908.1h-41.2M529.1,548.5h-34.3M521.7,535.4h-34.4M487.3,495.3h34.4M488.5,1008.3h31.4M519.9,920.7h-31.4M1743.7,1166.9h-9.2M1743.7,1166.9h-7.5M1734.5,1164.1h-127.1M1734.5,1168.1h-127.1M1734.5,1170.4h-127.1M1865.1,1164.1h-50.4M1865.1,1164.1v12M1865.1,1164.1h-121.4M1734.5,1168.1h130.6M1734.5,1170.4h130.6M1563.8,1074.8v-12.1M1592.5,1062.7h-28.6M1592.5,1062.7v-14.3M1522.1,1022.1v40.6h41.8M1551.8,1074.8v42.3M1551.8,1074.8l-6.3,34.9M1734.5,1157.2h9.2,-2.9M1734.5,1157.2h2.9M1743.7,1086.8v9.1M1734.5,1095.9v-9.1M1743.7,1086.8v9.1M1734.5,1086.8h2.9M1743.7,1086.8h-2.9M1734.5,1086.8h9.2M1743.7,1095.9h-9.2M1743.7,1095.9h-7.5M1594.2,471.8v-87M1602.2,375v9.8M1592.5,375h9.7M1592.5,384.8V375M1602.2,384.8h-9.7M1602.2,384.8h-8M1602.2,375v9.8M1594.2,375h8M1594.2,517h8v9.8h-8" fill-opacity="0" stroke-linejoin="round" stroke-linecap="round" stroke="#023470" stroke-width="2" id="path_30"/><path fill="#000000" d="M1592.5,517h9.7v9.7h-9.7zM1594.2,365.9h-12M1736.2,375h7.5v9.8h-7.5" fill-opacity="0" stroke-linejoin="round" stroke-linecap="round" stroke="#023470" stroke-width="2" id="path_31"/><path fill="#000000" d="M1734.5,375h9.2v9.7h-9.2zM1743.7,517v9.8M1734.5,517h9.2M1734.5,526.8V517M1743.7,526.8h-9.2M1743.7,526.8h-7.5M1743.7,517v9.8M1736.2,517h7.5M1767.7,442h-73.9M1767.7,472.4V517h-24M1670.9,517v-2.2M1670.9,517v-46.9h98.5M1767.7,517v-28.6M1767.7,488.4h-22.3M1745.4,488.4v-16M1767.7,474.7h-22.3M1767.7,481.5h-22.3M1732.2,493.6h12M1745.4,495.3v-6.9M1767.7,442h-25.2" fill-opacity="0" stroke-linejoin="round" stroke-linecap="round" stroke="#023470" stroke-width="2" id="path_32"/><path fill="#000000" d="M1670.9,517h1.8v-21.7h42.3M1732.2,493.6h-59.5v-21.2h71.5v21.2M1715,495.3h30.4M1745.4,495.3V517M1738.5,495.3V517M1731.6,499.3V517M1724.2,495.3V517M1731.6,495.3V517M1717.3,495.3V517M1709.9,495.3V517M1703,495.3V517M1696.1,495.3V517M1688.7,495.3V517M1681.8,495.3V517" fill-opacity="0" stroke-linejoin="round" stroke-linecap="round" stroke="#023470" stroke-width="2" id="path_33"/><path fill="#000000" d="M1672.7,495.3v2.3h-1.8M1670.9,517v-2.2h1.8M1754.5,472.4v35.5H1703l9.2,1.1M1703,507.9l9.2,-1.2M1696.7,517h-36.1M1955,597.2h-6.3v-9.7h6.8" fill-opacity="0" stroke-linejoin="round" stroke-linecap="round" stroke="#023470" stroke-width="2" id="path_34"/><path fill="#000000" d="M1948.7,587.5h9.7v9.7h-9.7zM1955.5,570.9h12.1M1967.6,579.5h-12.1v8M1963,579.5v-8.6M1960.7,579.5v-8.6M1885.7,375v9.8M1875.9,375h9.8M1875.9,384.8V375M1885.7,384.8h-9.8M1885.7,384.8h-8M1885.7,375v9.8M1877.7,375h8M1877.7,517h8v9.8h-8" fill-opacity="0" stroke-linejoin="round" stroke-linecap="round" stroke="#023470" stroke-width="2" id="path_35"/><path fill="#000000" d="M1875.9,517h9.7v9.7h-9.7zM1884.5,384.8v20M1884.5,384.8V414h8M1884.5,375v-9.1h12.1M1956.7,446v9.8M1946.9,446h9.8M1946.9,455.8V446M1956.7,455.8h-9.8M1956.7,455.8h-8M1956.7,446v9.8M1948.7,446h8M1946.9,446h6.9M1953.8,438h13.8M1967.6,430h-13.8M1953.8,414v32M1955.5,506.7h12.1M1967.6,498.1h-12.1v-42.3M1961.8,438v-8M1959.5,438v-8M1963,506.7v-8.5M1960.7,506.7v-8.5M1953.8,414h-58.4M1955.5,587.5V455.8M1865.1,1164.1V1116M1743.7,1157.2v9.7M1734.5,1166.9v-9.7M1743.7,1157.2v9.7M2590.6,1155.5v6.9M2579.7,1155.5h10.9M2579.7,1162.4v-6.9M2737.2,1162.4h16M2726.9,1162.4h-136.3M2898.6,1078.2v12.6M2870.6,1078.2v-30.4h-9.7M2898.7,1090.8v-12.6M2870.6,1090.8v-12.6M2955.9,1102.2v-12M2933,1078.2v-8M2898.7,1078.2h34.3M2753.2,1162.4H2854M2583.7,742.1h10.3v-6.9M2583.7,742.1v-6.9M2854,722.6v18.9h6.9M2854,741.5v-6.3M2863.2,740.9h9.7v-3.4M2854,735.2h-122.6M3077.3,1083.9h10.3v6.3M3077.3,1090.2v-6.3M3223.3,1083.9h5.2M3223.3,1083.9h-4v6.3M3228.5,1090.2v-6.3h-3.4M3087.6,1090.2h131.7M3395.1,1006v12.1M3395.1,1067.9v-1.1M3351.6,1090.2v12M3357.3,1090.2v-10.9h-1.7M3355.6,1090.2h1.7M3450.7,1035.2v-12M3446.1,1023.2v-9.1M3447.2,1023.2h-1.1M3446.1,1014.1h-51M3355.6,1090.2h-127.1M3091.1,738.1h-10.3M3091.1,732.9v5.2h-10.3v-5.2M3233.1,732.9v6.3h-3.5M3226.8,739.2h-2.9v-6.3M3368.2,556.6h6.3M3373.9,546.8l5.7,-1.4 1.8,-0.4 17.7,-4.5h0M3374.5,556.6l-0.6,-9.8M3398.6,540.5l-2.3,-9.7M3381.4,545.1l-2.9,-12M3377.9,545.7l-2.8,-11.5M3398.6,540.5l-2.9,-12M3373.9,546.8l-3.4,-11.4M3368.2,586.3v-29.7M3355.6,732.9h-122.5M2955.9,1090.2h121.4M3355.6,732.9h-122.5M2854,1174.4h-391.7M2462.3,1162.4h117.4M2854,735.2h-122.6M1594.2,233.6h8v9.8h-8" fill-opacity="0" stroke-linejoin="round" stroke-linecap="round" stroke="#023470" stroke-width="2" id="path_36"/><path fill="#000000" d="M1592.5,233.6h9.7v9.7h-9.7zM1582.2,357.3h12M1582.2,292.6h12M1594.2,306.9h-12M1582.2,260h12M1594.2,251.4h-12M1582.2,192.4h12M1594.2,178.6h-12M1589,306.9v-14.3M1586.8,306.9v-14.3M1589,260v-8.6M1586.8,260v-8.6M1589,192.4v-13.8M1586.8,192.4v-13.8M1743.7,233.6v9.8M1734.5,233.6h9.2M1734.5,243.4v-9.8M1743.7,243.4h-9.2M1743.7,243.4h-7.5M1743.7,233.6v9.8M1736.2,233.6h7.5M1594.2,109.4h52.1M1594.2,109.4h51.5M1646.3,109.4v18.3M1646.3,109.4V97.3M1638.3,97.3v12.1h-6.3V97.3M1606.8,97.3v12.1M1646.3,101.9h-8M1646.3,104.2h-8M1632,101.9h-25.2M1632,104.2h-25.2M1676.1,135.1h58.4M1661.8,109.9v17.8M1676.1,127.7v7.4M1676.1,127.7v-17.8M1741.4,135.1V109.9M1762.6,109.9V135.1M1762.6,123.7h-21.2M1676.1,117.4h-14.3M1676.1,120.2h-14.3M1646.3,127.7h29.2M1646.3,127.7h29.8M1594.2,109.4v124.3,-124.3zM1877.7,233.6h8v9.8h-8" fill-opacity="0" stroke-linejoin="round" stroke-linecap="round" stroke="#023470" stroke-width="2" id="path_37"/><path fill="#000000" d="M1875.9,233.6h9.7v9.7h-9.7zM1884.5,192.4h12.1M1896.6,178.6h-12.1M1884.5,260h12.1M1896.6,251.4h-12.1v-8M1884.5,292.6h12.1M1896.6,306.9h-12.1v50.4h12.1M1891.4,192.4v-13.8M1889.1,192.4v-13.8M1891.4,260v-8.6M1889.1,260v-8.6M1891.4,306.9v-14.3M1889.1,306.9v-14.3M1826.1,152.9h58.4M1884.5,152.9h-71M1813.5,152.9v-24.1M1813.5,128.8h-26.3M1787.2,128.8v6.3M1787.2,128.8v-18.9M1810.7,109.9v18.9M1826.1,140.9v12M1826.1,152.9h9.2M1840.4,152.9v-12M1835.3,140.9v12M1859.9,140.9v12M1859.9,146h-19.5M1859.9,148.3h-19.5M1835.3,146h-9.2M1835.3,148.3h-9.2M1810.7,118h-23.5M1884.5,152.9v80.7M1884.5,152.9v25.7M1787.2,135.1h-52.7M1787.2,135.1h-24.6M1884.5,243.4V375M1594.2,375V243.4M1589,365.9v-8.6M1586.8,365.9v-8.6M1891.4,365.9v-8.6M1889.1,365.9v-8.6M3578.4,1015.8v7.4M3568.6,1015.8h9.8M3568.6,1023.2v-7.4M3578.4,1023.2h64.1M3648.2,1023.2h69.9M3718.1,956.2h-6.3v-9.7h6.3M3720.4,800.5h12M3728.4,800.5V773M3726.1,800.5V773M3732.4,773h-12M3448.4,1023.2h120.2M1551.8,1117.1h-32M1551.8,1074.8h-32M1545.5,1109.7l-25.7,6.9M3867,726h-4.6M3810.3,714.6h-59M3822.9,714.6h39.5M3888.7,633.3v71M3867,726c12.5,-0.5 22.1,-10.7 21.2,-22.9M3888.2,634.4c1.7,-12.5 -7.4,-23.5 -20,-24 -0.1,-0.6 -0.5,-0.6 -1.1,-0.6M3867,609.8h-293.8M3741,620.7v77.9M3738.1,620.7v75M3741,620.7v77.9h-12v16" fill-opacity="0" stroke-linejoin="round" stroke-linecap="round" stroke="#023470" stroke-width="2" id="path_38"/><path fill="#000000" d="M3738.1,695.7h-12v18.9M3738.1,636.7h2.9M3738.1,657.9h2.9M3670,620.7v4.6h-51M3670,649.9h-63M3708.9,657.9v-8H3670M3708.9,649.9v64.7M3708.9,662.5H3607M3714.1,714.6h-130.6M3607,649.9v64.7M3619,625.3h-12v-4.6M3607,625.3v24.6M3614.4,625.3v24.6M3621.3,625.3v24.6M3628.2,625.3v24.6M3635.6,625.3v24.6M3642.5,625.3v24.6M3649.4,625.3v24.6M3656.8,625.3v24.6M3663.7,625.3v24.6M3671.1,625.3v24.6M3670,625.3h1.1M3607,637.3h64.1M3617.3,639l-10.3,-1.7M3607,714.6v-21.8M3607,692.8h92.2M3607,668.2h7.4v24.6M3621.3,670.5v22.3M3628.2,672.8v20M3635.6,675.1v17.7M3642.5,677.4v15.4M3649.4,679.7v13.1M3607,662.5l101.9,33.2" fill-opacity="0" stroke-linejoin="round" stroke-linecap="round" stroke="#023470" stroke-width="2" id="path_39"/><path fill="#000000" d="M3607,680.8h45.2l-11.4,0.6M3652.2,680.8l-11.4,-1.7M3701.5,662.5v30.9M3694.6,662.5v28.6M3687.2,662.5v26.3M3680.3,662.5v24M3673.4,662.5v21.7M3666,662.5V682M3659.1,662.5v17.2M3652.2,662.5v14.9M3644.8,662.5v12.6M3637.9,662.5v10.3M3630.5,662.5v8M3623.6,662.5v5.7M3663.7,684.2v8.6M3671.1,686.5v6.3M3678,688.8v4M3684.9,691.1v1.7M3607,665.9l82.5,26.9M3656.8,682v10.8M3706.6,651.6h-97.9M3706.6,651.6v9.2M3608.7,651.6v9.2M3706.6,695.1v19.5M3652.2,674.5h56.7l-10.3,1.2M3708.9,674.5l-10.9,-1.7M3711.8,718h-128.3M3578.4,726h-5.8M3586.4,714.6v3.4M3605.3,714.6v3.4M1242,2300.1v23.5M1268.4,2300.1v23.5M1239.7,2301.8v20.1M1270.7,2301.8v20.1M1239.7,2301.8h-73.3M1270.7,2321.9h50.4M1242,2323.6v-4M1242,2300.1h26.4M1268.4,2323.6h52.7M1242,2323.6h26.4M1242,2300.1h-49.8M1105.7,2144.9v-59M1120.6,2085.9v12.1M1120.6,2098h5.2v-12.1M1144.7,2085.9h13.2v12h-13.2zM1105.7,2153.5h-12M1105.7,2144.9h-12M1098.3,2144.9v8.6M1101.2,2144.9v8.6M1120.6,2090.5h-14.9M1120.6,2093.4h-14.9M1049.1,2172.4h57.8v-3.4h3.4M1030.2,2227.4v-1.7M1181.3,2238.8h4M1181.3,2238.8h4" fill-opacity="0" stroke-linejoin="round" stroke-linecap="round" stroke="#023470" stroke-width="2" id="path_40"/><path fill="#000000" d="M1122.9,2152.9v16.1h-16v3.4h-57.8v-2.9h-18.9v4.1M1100.6,2294.4h12M1100.6,2298.4h12M1112.6,2294.4v4M1100.6,2309.3h12M1105.2,2294.4v-10.9M1108,2294.4v-10.9M1105.2,2298.4v10.9M1108,2298.4v10.9M1164.7,2307h1.7v13.1M1112.6,2309.8h46.4l5.7,-2.8M1018.1,2335.6h12.1v-13.7M1018.1,2354.5h12.1M1109.8,2395.7v-12.6h-79.6v-28.6M1109.8,2395.1h33.2M1109.8,2385.4h33.2v9.7M1396.6,2227.4v23.5M1423,2227.4v21.7M1425.3,2229.1v20M1394.4,2229.1v20M1423,2249.1v1.8,-18.9h-26.4M1423,2230.2h-26.4M3872.1,2185.6h12M3872.1,2190.7h12M3872.1,2209.6h12M3872.1,2214.2h12M3872.1,2185.6v5.1M3872.1,2209.6v4.6M3884.1,2223.9h-12v2.9M3798.3,2154.7h12M3884.1,2168.4h-12M3876.7,2185.6v-17.2M3879.6,2185.6v-17.2M3876.7,2190.7v18.9M3879.6,2190.7v18.9M3876.7,2214.2v9.7M3879.6,2214.2v9.7M3798.3,2154.7h0M3798.3,2142.1h12M3752.4,2085.9v12.1M3759.3,2085.9v12.1M3778.2,2085.9v12.1M3785.1,2085.9v12.1M3798.3,2085.9v12.1M3798.3,2098v44.1M3752.4,2098h6.9M3778.2,2098h6.9M3785.1,2090.5h13.2M3785.1,2093.4h13.2M3759.3,2090.5h18.9M3759.3,2093.4h18.9M3711.2,2090.5h41.2M3711.2,2093.4h41.2M3802.8,2142.1v12.6M3805.7,2142.1v12.6M3735.3,2171.3h44.1M3889.3,2307v17.7h-34.4v3.5H3796v-3.5h-60.2v-24.6h1.8l5.1,6.9zM3880.7,2372.8h13.2v14.3h-13.2zM3884.7,2361.4H3869.3v21.7h-88.2v14.9h7.4v-1.1h22.9M3732.4,751.8h-12M3720.4,714.6h12V726M3732.4,732.9h-12M3751.3,726v-11.4M3862.4,726h4.6M3837.8,714.6V726M3822.9,714.6V726M3810.3,714.6V726M3810.3,714.6h-96.2M3822.9,714.6h14.9M3810.3,714.6h12.6M3725,732.9v18.9M3727.8,732.9v18.9M3751.3,719.2h-18.9M3751.3,722h-18.9M3822.9,719.2h-12.6M3822.9,722h-12.6M3837.8,719.2h24.6M3837.8,722h24.6M3497.1,772.4v-2.8M3372.8,738.1v-8.6M3363.1,738.1h9.7M3363.1,729.5v8.6M3372.8,729.5h-9.7M3363.1,757h6.3M3363.1,757v-18.9M3369.4,757v-18.9M3363.1,588.1h9.7v8h-9.7zM3368.2,596.1v133.4M3368.2,596.1v133.4M3432.3,637.9l140.9,-20.6M3409.4,537.7l22.9,100.2M3409.4,537.7l-2.8,-11.5M3427.8,644.2v23.4h21.7v-26.3M3721,714.6h-9.2M3721,724.3v-9.7M3711.8,724.3h9.2M3711.8,714.6v9.7M3718.1,724.3h-6.3v-9.7h6.3M3720.4,724.3v8.6M3572.6,716.3h-4M3568.6,726v-9.7M3575.5,726h-6.9M3568.6,716.3h9.7v9.7h-9.7z" fill-opacity="0" stroke-linejoin="round" stroke-linecap="round" stroke="#023470" stroke-width="2" id="path_41"/><path fill="#000000" d="M3430.6,644.2v20.6h16.1v-23.5M3440.4,664.8v-8M3430.6,664.8h9.8M3430.6,656.8v8M3440.4,656.8h-9.8M2863.2,740.9h9.7M2863.2,731.2h9.7v9.7h-9.7zM2943.9,740.9h-9.7M2943.9,731.2v9.7M2934.2,731.2h9.7M2934.2,740.9v-9.7M2934.2,731.2h9.7v9.7h-9.7zM2943.9,740.9h12M2872.9,731.2h61.3M2872.9,734.1h61.3M2889.5,731.2v2.9M2918.7,731.2v2.9M2872.9,545.1v-28.6M2872.9,504.5v-6.9M2872.9,545.1v12M2872.9,504.5v12M2879.8,1078.2v12.6M2884.3,1078.2v12.6M2879.8,1078.2h5.1v12.6h-5.1zM2879.8,1083.3h-9.2M2879.8,1085.6h-9.2M2884.9,1083.3h13.8M2884.9,1085.6h13.8M2380.4,732.3v9.8M2370.7,732.3h9.7M2370.7,742.1v-9.8M2380.4,742.1h-9.7M2370.7,742.1h9.7M2451.4,732.3h-9.7M2451.4,742.1v-9.8M2441.7,742.1h9.7M2441.7,732.3v9.8M2441.7,732.3h9.7v9.7h-9.7zM2363.2,722.6v12.6h7.5M2462.3,735.2h-10.9M2380.4,732.3h61.3M2380.4,735.2h61.3M2395.9,732.3v2.9M2425.1,732.3v2.9M1958.4,732.3h-9.7M1958.4,741.5v-9.2M1948.7,741.5h9.7M1948.7,732.3v9.2M1948.7,732.3v6.3M1958.4,732.3h-9.7M1958.4,732.3v6.3M1967.6,735.2h-9.2M1884.5,414v103M1887.4,414v112.8h-1.7M1884.5,503.3h2.9M1884.5,479.3h2.9M1607.4,1176.1v-127.7h-14.9M1602.2,526.8h275.5M1602.2,520.5h132.3M1743.7,520.5h132.2M1592.5,517v-33.2M1594.2,483.8V517M1592.5,489h1.7M1592.5,506.7h1.7M1524.9,514.2v-12.6M1524.9,483.8h4.6M1524.9,494.7v-10.9M1524.9,660.2v67M1524.9,576.6v77.3M1524.9,501.6v-6.9M1524.9,576.6v-7.4M1524.9,653.9v6.3M1516.9,501.6v-6.9M1519.2,501.6v-6.9M1516.9,660.2v-6.3M1519.2,660.2v-6.3M276.6,799.3v-67.5M3573.2,617.3v-7.5M1838.1,193.5V442M1770,171.2v22.3M1609.1,517v-10.3M1602.2,506.7h-8,14.9M1594.2,508.5h13.2M1609.1,508.5h0M1693.8,442h-51.5M1767.7,442h70.4M1745.4,472.4h22.3M1769.4,470.1v50.4M1721.3,210.7l12.1,-1.7M1721.3,210.7l12.1,1.2M1784.9,210.7h-63.6M1763.7,197v24.6M1770.6,197v24.6M1778,197v24.6M1784.9,221.6h-72.2M1784.9,224.5h-73.3M1784.9,197v27.5M1711.6,171.2c-14.3,14.4 -14.3,38.1 0,53.3M1784.9,197h-63.6M1770,193.5h-48.7M1756.8,197v24.6M1749.4,197v24.6M1742.5,197v24.6M1735.1,197v24.6M1728.2,197v24.6M1721.3,171.2v50.4M1721.3,171.2h6.9M1728.2,171.2v22.3M1735.1,171.2v22.3M1742.5,171.2v22.3M1749.4,171.2v22.3M1756.8,171.2v22.3M1763.7,171.2v22.3M1721.3,182.7h48.7l-10.3,0.5M1770,182.7l-10.3,-1.2" fill-opacity="0" stroke-linejoin="round" stroke-linecap="round" stroke="#023470" stroke-width="2" id="path_42"/><path fill="#000000" d="M1715.6,171.2c-14.4,12.3 -16,34.5 -3.4,49.2 0.3,0.2 0.6,0.5 0.6,1.1M1018.1,2210.2h12.1M491.9,508.5h26.3V532h-26.3zM532,507.9h10.3M1455.1,2449.5v-125.9M1459.6,2323.6V2449M1459.6,2323.6h2.9M1975.6,2466.7h0.5M2611.8,2449h9.7M2611.8,2454.7v-5.7M2621.5,2454.7v-5.7M2633,2454.7v-5.7M2647.3,2454.7v-5.7M2661.6,2454.7v-5.7M2633,2449h14.3M2661.6,2449h2.8M2598.6,2449h2.3M2602,2449h2.9M2606,2449h2.3M2609.5,2449h2.3M2621.5,2449h1.7M2624.4,2449h2.3M2627.8,2449h2.3M2631.2,2449h1.8M2647.3,2449h1.1M2649.6,2449h2.3M2653,2449h2.9M2657,2449h2.3M2660.4,2449h1.2M2243,2454.7h4M2243,2454.7h4M1181.3,2449h-2.3v-125.4M1181.3,2323.6V2449M1181.3,2323.6h60.7M1179,2330.4h2.3M1179,2351.6h2.3M1144.7,2397.4v-14.8M1030.2,2321.9h2.8v-4.1h17.2v2.3h116.2M1166.4,2320.1h4.6v3.5h8" fill-opacity="0" stroke-linejoin="round" stroke-linecap="round" stroke="#023470" stroke-width="2" id="path_43"/><path fill="#000000" d="M1166.4,2319h5.8v2.9M1033,2378.5h72.2v-20.6h-6.9v-3.4h10.9v28.1h40.1v50.9h-4.6v-36.1h-1.7M1109.8,2397.4h-9.2M1171,2453.6v-7.5h8M1171,2453.6h0.6M1025,2335.6v18.9M1027.3,2335.6v18.9M1033,2321.9v13.7M1030.2,2354.5h2.8M1030.2,2335.6h2.8M1033,2354.5v24M1033,2321.9v6.8M1033,2335.6v18.9M1100.6,2397.4v-1.7M1100.6,2397.4v-1.7M1030.2,2225.7v1.7M1105.7,2153.5v1.2h10.4v-1.8h6.8M1152.7,2163.8h18.3M1122.9,2165h26.4M1030.2,2174.7h75.5v-1.1h58.5v52.1M1171,2163.8v33.8h114.6M1289,2193v34.4M1171,2200.5h114.6M1285.6,2193v4.6M1171,2200.5h-2.8v25.2M1285.6,2227.4h-7.5M1030.2,2225.7h18.3M1164.2,2203.3h4M1164.2,2222.2h4M1258.1,2197.6v2.9M1277,2197.6v2.9M1285.6,2193h3.4M1285.6,2200.5v26.9M1018.1,2182.7h12.1M1030.2,2210.2v15.5M1030.2,2173.6v9.1M1030.2,2182.7v27.5M2876.3,360.2h6.3M2910.7,360.2h3.4M1660.6,2419.2h71M1731.6,2336.7h-35.5l10.3,-1.7M1696.1,2336.7l10.3,1.2M1731.6,2419.2l-9.1,2.3M1731.6,2419.2l-9.7,-1.7M1660.6,2323.6l71,25.7M1732.8,2349.3c0.5,0.6 -0.1,1.2 -1.1,1.7 -0.4,-0.5 -1,-1.1 -1.1,-1.7 0.1,-0.8 0.7,-1.4 1.1,-1.1 1,-0.3 1.6,0.3 1.1,1.1M1732.8,2391.1c0.5,0.2 -0.1,0.8 -1.1,1.1l-1.1,-1.1c0.1,-1.3 0.7,-1.9 1.1,-1.7 1,-0.1 1.6,0.4 1.1,1.7M1732.8,2362.5c0.5,0.2 -0.1,0.8 -1.1,1.1 -0.4,-0.3 -1,-0.9 -1.1,-1.1 0.1,-1.2 0.7,-1.8 1.1,-1.7 1,-0.1 1.6,0.5 1.1,1.7M1732.8,2375.1c0.5,0.7 -0.1,1.2 -1.1,1.7 -0.4,-0.5 -1,-1.1 -1.1,-1.7 0.1,-0.8 0.7,-1.4 1.1,-1.1 1,-0.3 1.6,0.3 1.1,1.1M1719,2391.1c0,0.2 -0.5,0.8 -1.7,1.1 -0.3,-0.4 -0.9,-1 -1.1,-1.1 0.3,-1.3 0.9,-1.9 1.1,-1.7 1.2,-0.1 1.8,0.4 1.7,1.7M1704.7,2391.1c0.2,0.2 -0.4,0.8 -1.1,1.1 -0.7,-0.4 -1.3,-1 -1.7,-1.1 0.4,-1.3 1,-1.9 1.7,-1.7 0.7,-0.1 1.3,0.4 1.1,1.7M1690.4,2391.1c0.3,0.2 -0.3,0.8 -1.1,1.1 -0.6,-0.4 -1.2,-1 -1.7,-1.1 0.5,-1.3 1.1,-1.9 1.7,-1.7 0.8,-0.1 1.4,0.4 1.1,1.7M1676.1,2391.1c0.5,0.2 -0.1,0.8 -1.1,1.1l-1.1,-1.1c0.1,-1.3 0.7,-1.9 1.1,-1.7 1,-0.1 1.6,0.4 1.1,1.7M1662.3,2391.1c0,0.2 -0.6,0.8 -1.7,1.1 -0.3,-0.4 -0.9,-1 -1.1,-1.1 0.3,-1.3 0.8,-1.9 1.1,-1.7 1.2,-0.1 1.8,0.4 1.7,1.7M1660.6,2382.6h71M1660.6,2327l71,25.8M1724.2,2350.5v32.1M1717.3,2347.6v35M1710.4,2345.3v37.3M1703,2342.5v40.1M1696.1,2340.2v42.4M1689.3,2337.3v45.3M1681.8,2335v47.6M1674.9,2332.2v50.4M1667.5,2329.3v53.3M1731.6,2352.8h-71l9.8,-1.7M1660.6,2352.8l9.8,2.3M3154,2229.1v-30.9l85.4,30.9M3154,2200.5l77.9,28.6M3161.5,2200.5v-33.2M3168.4,2203.3v-36M3175.2,2205.6v-38.3M3182.7,2208.5v-41.2M3189.5,2210.8v-43.5M3196.4,2213.6v-46.3M3203.9,2215.9v-48.6M3210.7,2218.8v-51.5M3218.2,2221.1v-53.8M3225.1,2223.9v-56.6M3154,2198.2h85.4M3154,2217.1h45.3M3239.4,2198.2l-9.2,2.3M3239.4,2198.2l-9.2,-1.7M3199.3,2217.1l-8,1.7M3199.3,2217.1l-8,-1.7M3154,2137.5h85.4M3154,2137.5l10.9,-1.7M3154,2137.5l10.9,2.8M3155.8,2172.4c0,0.2 -0.6,0.8 -1.7,1.1l-1.1,-1.1c0.2,-1.2 0.8,-1.8 1.1,-1.7 1.1,-0.1 1.7,0.5 1.7,1.7M3155.8,2185c0,0.4 -0.6,1 -1.7,1.1 -0.3,-0.1 -0.9,-0.7 -1.1,-1.1 0.2,-1.1 0.8,-1.6 1.1,-1.1 1.1,-0.5 1.7,0.1 1.7,1.1" fill-opacity="0" stroke-linejoin="round" stroke-linecap="round" stroke="#023470" stroke-width="2" id="path_44"/><path fill="#000000" d="M3155.8,2198.2c0,0.3 -0.6,0.8 -1.7,1.1l-1.1,-1.1c0.2,-1.2 0.8,-1.8 1.1,-1.7 1.1,-0.1 1.7,0.5 1.7,1.7M3162.6,2166.1c0.2,0.4 -0.4,1 -1.1,1.1 -0.7,-0.2 -1.3,-0.8 -1.7,-1.1 0.4,-1.1 1,-1.7 1.7,-1.1 0.8,-0.6 1.4,0 1.1,1.1M3177,2166.1c0.1,0.4 -0.5,1 -1.7,1.1 -0.3,-0.2 -0.8,-0.8 -1.1,-1.1 0.3,-1.1 0.9,-1.7 1.1,-1.1 1.1,-0.6 1.7,0 1.7,1.1M3190.7,2166.1c0.5,0.4 -0.1,1 -1.1,1.1 -0.4,-0.2 -1,-0.8 -1.1,-1.1 0.2,-1.1 0.7,-1.7 1.1,-1.1 1,-0.6 1.6,0 1.1,1.1M3205,2166.1c0.4,0.4 -0.2,1 -1.1,1.1 -0.5,-0.2 -1.1,-0.8 -1.1,-1.1 0,-1.1 0.6,-1.7 1.1,-1.1 0.9,-0.6 1.5,0 1.1,1.1M3219.3,2166.1c0.2,0.4 -0.4,1 -1.1,1.1 -0.7,-0.2 -1.3,-0.8 -1.7,-1.1 0.4,-1.1 1,-1.7 1.7,-1.1 0.8,-0.6 1.4,0 1.1,1.1M3233.6,2166.1c0.1,0.4 -0.5,1 -1.7,1.1 -0.3,-0.2 -0.8,-0.8 -1.1,-1.1 0.3,-1.1 0.9,-1.7 1.1,-1.1 1.2,-0.6 1.8,0 1.7,1.1M1744.8,2300.1v-5.7M1744.8,2256v-5.1M1748.2,2300.1h-3.4M1748.2,2294.4h-3.4M1744.8,2256h3.4M1744.8,2250.9h3.4v5.1M1748.2,2294.4v5.7M2876.3,2339v-14.3M2876.3,2362.5v86.5M2878.6,2362.5v86.5M2878.6,2339v-14.3M3018.9,2386.6v-61.9M3018.9,2386.6v62.4M3021.2,2386.6v62.4M3021.2,2386.6v-61.9M2876.3,2339h2.3v23.5h-2.3M3376.8,1006h18.3M3355.6,1079.3h11.5M1510,1022.1h12.1M971.2,1023.8H571.5v23.5h-12.6v-56.1h-28.1v66.4c0.7,6.9 -4.9,12.8 -12,13.2H489c-6.2,-0.3 -11.2,-5.6 -11.5,-11.5V952.2h-189v15.5H198v-67.6h-67.6v-45.2h-10.9v-55.5h143.7V594.9h-55.5V572h267.4v-78.4c0.1,-0.5 0.1,-0.9 0,-1.1 0.8,-6.4 6.4,-10.9 12.6,-9.7h54.4v9.2h13.2v-9.2h18.9v17.8h513.1v-17.8c0.7,-5 4.7,-8.5 9.2,-8h12.6c4.4,-0.5 8,2 9.2,6.3V717h392.8V432.3h18.3v39.5h52.7V84.7h24.6v12.6h39.5V41.2h15.5v68.7h148.9V73.3h15.5v67.6h33.8v-29.2h36.7v293.2h52.1v-32.1h18.9v349.8h396.8V322.9h14.9v28.6h7.4v-4h6.9v4h25.2v-4h4v4h8.6v-4h0.6v-12h30.9v387.1H2854V323.5h15.5v25.8h52.7v-12.6h30.9v384.2h402.6V489h9.7l5.1,46.4 8.1,-2.2 17.2,-4.6 3.4,11.9 4.6,-1.1 24.1,104.8 18.9,-2.7 64.7,-9.3v35.5l61.3,0.6v48.1h5.7v9.7h5.1V620.7H3867c6.8,0.2 11.7,6 10.9,12.6v71c0.3,0.1 0.3,0.6 0,1.7 -0.4,4.9 -5.2,8.8 -10.9,8.6h-4.6V726h-130v329.8h-21.8v-20.6h-260v31.5c-0.7,6.2 -6,11.2 -12.6,11.4h-32.6c-5.6,-0.4 -10.3,-5.6 -10.3,-11.4V1018H3367v111.1h-15.5v-26.9h-395.7v32.1c-1.1,6.3 -6.6,11.1 -13.2,12h-31.5c-6.2,-0.6 -11.5,-5.7 -12.6,-12v-43.5h-28.1V1199H2854v-28.6h-392.2v32.1c-0.9,6 -6.4,10.7 -13.2,11.5h-31.5c-6,-0.4 -11.3,-5.4 -12,-11.5v-44.1h-28.6v41.8H2357v-28.1h-390v31.5c-1.1,6 -6.5,10.8 -13.2,11.5h-31.5c-6.1,-0.3 -11.5,-5.4 -12.6,-11.5v-44.1h-29.2v40.6H1865v-24h-257.7v24h-14.9v-125.4h-28.6v42.4c-0.8,6.2 -6.2,11 -13.2,12h-31.5c-6.1,-0.6 -11.2,-5.8 -11.4,-12v-19.5h-389.4v21.2H1100v-118.5h-59v60.7c-1.3,6.1 -6.7,10.9 -13.7,12h-44.7c-6.3,-0.7 -11.3,-6 -11.5,-12v-37.2zM1889.1,2501.1h26.3v18.9h-26.3zM1912.6,2461.6h30.9l-24.6,5.1 -6.3,25.8zM1952.7,2503.9l14.3,-2.8v18.9h-18.9z" fill-opacity="0" stroke-linejoin="round" stroke-linecap="round" stroke="#023470" stroke-width="2" id="path_45"/><path fill="#000000" d="M3572.6,661.9h-55.5v-29.8l56.1,-8.6zM3946.6,2234.8v34.9c-1.2,5.4 -6,10 -12,11.4h-132.3v25.8h87v17.8h-4.6v36.7h13.2c4.7,-0.6 8.4,3.1 8,8v18.9c0.3,4.3 -3.4,8 -8,8h-86.5v70.4H1976.2v-12h-86.5v3.4h-8.6v8.6h-794.8v-71h-83.6c-4.3,-0.4 -8,-4.1 -8.6,-8.6v-24.6c0.5,-4.6 4.2,-8.3 8.6,-8h15.5v-32.6h-5.2v-12.6h87.6v-25.8H976.3c-4.6,-0.9 -8.5,-4 -10.3,-8v-41.8c2.2,-5.8 7.5,-9.1 12.6,-8h39.5v-56.1H997v-14.3h96.8V2086h2716.6v68.7h102.5v13.7h-28.6v55.5h46.4c7.3,-1 14.1,3.6 15.9,10.9z" fill-opacity="0" stroke-linejoin="round" stroke-linecap="round" stroke="#023470" stroke-width="2" id="path_46"/><path fill="#000000" d="m3517.1,632.1 l56.1,-8.6 -0.6,38.4L3517,661.9v-29.8zM571.5,1023.8v23.5h-12.6v-56.1h-28.1v66.4c0.7,6.9 -4.9,12.8 -12,13.2L489,1070.8c-6.2,-0.3 -11.2,-5.6 -11.5,-11.5L477.5,952.2h-189v15.5L198,967.7v-67.6h-67.6v-45.2h-10.9v-55.5h143.7L263.2,594.9h-55.5L207.7,572h267.4v-78.4c0.1,-0.5 0.1,-0.9 0,-1.1 0.8,-6.4 6.4,-10.9 12.6,-9.7h54.4v9.2h13.2v-9.2h18.9v17.8h513.1v-17.8c0.7,-5 4.7,-8.5 9.2,-8h12.6c4.4,-0.5 8,2 9.2,6.3L1118.3,717h392.8L1511.1,432.3h18.3v39.5h52.7L1582.1,84.7h24.6v12.6h39.5L1646.2,41.2h15.5v68.7h148.9L1810.6,73.3h15.5v67.6h33.8v-29.2h36.7v293.2h52.1v-32.1h18.9v349.8h396.8L2364.4,322.9h14.9v28.6h7.4v-4h6.9v4h25.2v-4h4v4h8.6v-4h0.6v-12h30.9v387.1L2854,722.6L2854,323.5h15.5v25.8h52.7v-12.6h30.9v384.2h402.6L3355.7,489h9.7l5.1,46.4 8.1,-2.2 17.2,-4.6 3.4,11.9 4.6,-1.1 24.1,104.8 18.9,-2.7 64.7,-9.3v35.5l61.3,0.6v48.1h5.7v9.7h5.1L3583.6,620.7L3867,620.7c6.8,0.2 11.7,6 10.9,12.6v71c0.3,0.1 0.3,0.6 0,1.7 -0.4,4.9 -5.2,8.8 -10.9,8.6h-4.6L3862.4,726h-130v329.8h-21.8v-20.6h-260v31.5c-0.7,6.2 -6,11.2 -12.6,11.4h-32.6c-5.6,-0.4 -10.3,-5.6 -10.3,-11.4L3395.1,1018L3367,1018v111.1h-15.5v-26.9h-395.7v32.1c-1.1,6.3 -6.6,11.1 -13.2,12h-31.5c-6.2,-0.6 -11.5,-5.7 -12.6,-12v-43.5h-28.1L2870.4,1199L2854,1199v-28.6h-392.2v32.1c-0.9,6 -6.4,10.7 -13.2,11.5h-31.5c-6,-0.4 -11.3,-5.4 -12,-11.5v-44.1h-28.6v41.8L2357,1200.2v-28.1h-390v31.5c-1.1,6 -6.5,10.8 -13.2,11.5h-31.5c-6.1,-0.3 -11.5,-5.4 -12.6,-11.5v-44.1h-29.2v40.6L1865,1200.1v-24h-257.7v24h-14.9v-125.4h-28.6v42.4c-0.8,6.2 -6.2,11 -13.2,12h-31.5c-6.1,-0.6 -11.2,-5.8 -11.4,-12v-19.5h-389.4v21.2L1100,1118.8v-118.5h-59v60.7c-1.3,6.1 -6.7,10.9 -13.7,12h-44.7c-6.3,-0.7 -11.3,-6 -11.5,-12v-37.2L571.5,1023.8zM1915.4,2520h-26.3v-18.9h26.3v18.9zM1918.9,2466.7 L1912.6,2492.5v-30.9h30.9l-24.6,5.1zM1967,2520h-18.9l4.6,-16 14.3,-2.9v18.9zM3946.6,2269.8c-1.2,5.4 -6,10 -12,11.4h-132.3v25.8h87v17.8h-4.6v36.7h13.2c4.7,-0.6 8.4,3.1 8,8v18.9c0.3,4.3 -3.4,8 -8,8h-86.5v70.4L1976.2,2466.8v-12h-86.5v3.4h-8.6v8.6h-794.8v-71h-83.6c-4.3,-0.4 -8,-4.1 -8.6,-8.6v-24.6c0.5,-4.6 4.2,-8.3 8.6,-8h15.5L1018.2,2322h-5.2v-12.6h87.6v-25.8L976.3,2283.6c-4.6,-0.9 -8.5,-4 -10.3,-8v-41.8c2.2,-5.8 7.5,-9.1 12.6,-8h39.5v-56.1L997,2169.7v-14.3h96.8v-69.3h2716.6v68.7h102.5v13.7h-28.6v55.5h46.4c7.4,-1 14.2,3.6 16,10.9v34.9z" fill-opacity="0" stroke-linejoin="round" stroke-linecap="round" stroke="#023470" stroke-width="2" id="path_47"/><path fill="#000000" d="M971.2,1019.4H571.5v23.5h-12.6v-56.1h-28.1v66.4c0.7,6.9 -4.9,12.8 -12,13.2H489c-6.2,-0.3 -11.2,-5.6 -11.5,-11.5v-107h-189v15.5H198v-67.6h-67.6v-45.2h-10.9V795h143.7V590.6h-55.5v-22.9h267.4v-78.4c0.1,-0.5 0.1,-0.9 0,-1.1 0.8,-6.4 6.4,-10.9 12.6,-9.7h54.4v9.2h13.2v-9.2h18.9v17.8h513.1v-17.8c0.7,-5 4.7,-8.5 9.2,-8h12.6c4.4,-0.5 8,2 9.2,6.3v235.9h392.8V427.9h18.3v39.5h52.7v-387h24.6V93h39.5V36.9h15.5v68.7h148.9V68.9h15.5v67.6h33.8v-29.2h36.7v293.2h52.1v-32.1h18.9v349.9h396.8V318.6h14.9v28.6h7.4v-4h6.9v4h25.2v-4h4v4h8.6v-4h0.6v-12h30.9v387.1H2854V319.1h15.5v25.8h52.7v-12.6h30.9v384.2h402.6V484.6h9.7l5.1,46.4 8.1,-2.2 17.2,-4.6 3.4,11.9 4.6,-1.1 24.1,104.8 18.9,-2.7 64.7,-9.3v35.5l61.3,0.6V712h5.7v9.7h5.1V616.3H3867c6.8,0.2 11.7,6 10.9,12.6v71c0.3,0.1 0.3,0.6 0,1.7 -0.4,4.9 -5.2,8.8 -10.9,8.6h-4.6v11.5h-130v329.8h-21.8v-20.6h-260v31.5c-0.7,6.2 -6,11.2 -12.6,11.4h-32.6c-5.6,-0.4 -10.3,-5.6 -10.3,-11.4v-48.7H3367v111.1h-15.5v-26.9h-395.7v32.1c-1.1,6.3 -6.6,11.1 -13.2,12h-31.5c-6.2,-0.6 -11.5,-5.7 -12.6,-12v-43.5h-28.1v108.2H2854V1166h-392.2v32.1c-0.9,6 -6.4,10.7 -13.2,11.5h-31.5c-6,-0.4 -11.3,-5.4 -12,-11.5V1154h-28.6v41.8H2357v-28.1h-390v31.5c-1.1,6 -6.5,10.8 -13.2,11.5h-31.5c-6.1,-0.3 -11.5,-5.4 -12.6,-11.5v-44.1h-29.2v40.6H1865v-24h-257.7v24h-14.9v-125.4h-28.6v42.4c-0.8,6.2 -6.2,11 -13.2,12h-31.5c-6.1,-0.6 -11.2,-5.8 -11.4,-12v-19.5h-389.4v21.2H1100V996h-59v60.7c-1.3,6.1 -6.7,10.9 -13.7,12h-44.7c-6.3,-0.7 -11.3,-6 -11.5,-12v-37.3z" fill-opacity="0" stroke-linejoin="round" stroke-linecap="round" stroke="#023470" stroke-width="20" id="path_48"/><path fill="#000000" d="M1889.1,2501.1h26.3v18.9h-26.3zM1912.6,2461.6h30.9l-24.6,5.1 -6.3,25.8zM1952.7,2503.9l14.3,-2.8v18.9h-18.9zM3572.6,661.9h-55.5v-29.8l56.1,-8.6z" fill-opacity="0" stroke-linejoin="round" stroke-linecap="round" stroke="#023470" stroke-width="2" id="path_49"/><path fill="#000000" d="M3946.6,2234.8v34.9c-1.2,5.4 -6,10 -12,11.4h-132.3v25.8h87v17.8h-4.6v36.7h13.2c4.7,-0.6 8.4,3.1 8,8v18.9c0.3,4.3 -3.4,8 -8,8h-86.5v70.4H1976.2v-12h-86.5v3.4h-8.6v8.6h-794.8v-71h-83.6c-4.3,-0.4 -8,-4.1 -8.6,-8.6v-24.6c0.5,-4.6 4.2,-8.3 8.6,-8h15.5v-32.6h-5.2v-12.6h87.6v-25.8H976.3c-4.6,-0.9 -8.5,-4 -10.3,-8v-41.8c2.2,-5.8 7.5,-9.1 12.6,-8h39.5v-56.1H997v-14.3h96.8V2086h2716.6v68.7h102.5v13.7h-28.6v55.5h46.4c7.3,-1 14.1,3.6 15.9,10.9z" fill-opacity="0" stroke-linejoin="round" stroke-linecap="round" stroke="#023470" stroke-width="20" id="path_50"/><path fill="#000000" d="M1600.8,2085.9v-209.1h-376.3v-224.1h270.2v-196.6h69.6v-100h35.5v-103.4h6.8v-50.9M2469.8,2098.8v-926.7" fill-opacity="0" stroke-linejoin="round" stroke-linecap="round" stroke="#023470" stroke-width="2" id="path_51"/></svg>