<svg id="vector" xmlns="http://www.w3.org/2000/svg" width="1920" height="1080" viewBox="0 0 1920 1080"><path fill="#000000" d="M1641.7,610.9h-20.1M1517.6,687.9h-29.4M1488.2,645.3h29.4M1414.3,610.9v-35.3M1455.9,575.6v35.3M1572.9,636.3h8.6M1581.5,671.5h-8.6M1562.8,751.8v4.9M1532,756.7v-4.9M1726.4,734.6V683M1726.4,683h10.7M1737.1,734.6h-10.7M1726.4,734.6V683M1737.1,683h5M1742.1,734.6V683M1742.1,734.6h-5M1737.1,734.6V683M1752.2,734.6V683M1742.1,683h10.1M1752.2,734.6h-10.1M1752.2,734.6V683M1726.4,808.4v-51.7M1726.4,756.7h10.7M1737.1,808.4h-10.7M1726.4,808.4v-51.7M1737.1,756.7h5M1742.1,808.4v-51.7M1742.1,808.4h-5M1737.1,808.4v-51.7M1752.2,808.4v-51.7M1742.1,756.7h10.1M1752.2,808.4h-10.1M1752.2,808.4v-51.7M1425.8,706.7v-8.1M1456.6,698.6v8.1M1463.8,933.8h-59.5M1404.3,933.8v-16.4M1463.8,917.4v16.4M1463.8,933.8h-59.5M1404.3,917.4V910M1463.8,910h-59.5M1463.8,910v7.4M1463.8,917.4h-59.5M1463.8,895.2h-59.5M1404.3,910v-14.8M1463.8,895.2V910M1463.8,895.2h-59.5M1517.6,394.5h-26.5M1491.1,351.9h26.5M1385.6,491.2h-31.5M1354.1,444.5h31.5M1430.8,444.5v-39.3M1471.7,405.2v39.3M1415,86.3h49.5M1464.5,86.3v12.3M1415,98.6V86.3M1415,86.3h49.5M1464.5,98.6v5.8M1415,104.4h49.5M1415,104.4v-5.8M1415,98.6h49.5M1415,115.8h49.5M1464.5,104.4v11.4M1415,115.8v-11.4M1415,115.8h49.5M1468.8,337.1v4.9M1438,342v-4.9M1752.9,218.3v49.2M1752.9,267.5h-10.8M1742.1,218.3h10.8M1752.9,218.3v49.2M1742.1,267.5h-5.7M1736.4,218.3v49.2M1736.4,218.3h5.7M1742.1,218.3v49.2M1726.4,218.3v49.2M1736.4,267.5h-10M1726.4,218.3h10M1726.4,218.3v49.2M1752.9,290.4v49.2M1752.9,339.6h-10.8M1742.1,290.4h10.8M1752.9,290.4v49.2M1742.1,339.6h-5.7M1736.4,290.4v49.2M1736.4,290.4h5.7M1742.1,290.4v49.2M1726.4,290.4v49.2M1736.4,339.6h-10M1726.4,290.4h10M1726.4,290.4v49.2M1795.9,482.2v55.7M1795.9,537.9h-13.6M1782.3,482.2h13.6M1795.9,482.2v55.7M1782.3,537.9h-7.2M1775.1,482.2v55.7M1775.1,482.2h7.2M1782.3,482.2v55.7M1762.2,482.2v55.7M1775.1,537.9h-12.9M1762.2,482.2h12.9M1762.2,482.2v55.7M616.7,492.8H588M588,454.3h28.7M697,399.4v6.6M659.7,406v-6.6M717.8,219.9h-43M674.8,219.9V206M717.8,206v13.9M717.8,219.9h-43M674.8,206v-7.4M717.8,198.6h-43M717.8,198.6v7.4M717.8,206h-43M717.8,185.5h-43M674.8,198.6v-13.1M717.8,185.5v13.1M717.8,185.5h-43M1110.2,398.6v5.7M1073.6,404.3v-5.7M1293.8,492v36.1M1248.6,528.1V492M783.8,492v36.1M741.5,528.1V492M997.6,486.3H971M971,419.1h26.6M833.3,219.9h-48.8M784.5,219.9V206M833.3,206v13.9M833.3,219.9h-48.8M784.5,206v-7.4M833.3,198.6h-48.8M833.3,198.6v7.4M833.3,206h-48.8M833.3,185.5h-48.8M784.5,198.6v-13.1M833.3,185.5v13.1M833.3,185.5h-48.8M948.8,219.9h-45.9M902.9,219.9V206M948.8,206v13.9M948.8,219.9h-45.9M902.9,206v-7.4M948.8,198.6h-45.9M948.8,198.6v7.4M948.8,206h-45.9M948.8,185.5h-45.9M902.9,198.6v-13.1M948.8,185.5v13.1M948.8,185.5h-45.9M1030.6,185.5h40.8M1071.4,185.5v14.8M1030.6,200.3v-14.8M1030.6,185.5h40.8M1071.4,200.3v6.5M1030.6,206.8h40.8M1030.6,206.8v-6.5M1030.6,200.3h40.8M1030.6,219.9h40.8M1071.4,206.8v13.1M1030.6,219.9v-13.1M1030.6,219.9h40.8M1145.3,185.5h40.9M1186.2,185.5v14.8M1145.3,200.3v-14.8M1145.3,185.5h40.9M1186.2,200.3v6.5M1145.3,206.8h40.9M1145.3,206.8v-6.5M1145.3,200.3h40.9M1145.3,219.9h40.9M1186.2,206.8v13.1M1145.3,219.9v-13.1M1145.3,219.9h40.9M1268.7,185.5h40.9M1309.6,185.5v14.8M1268.7,200.3v-14.8M1268.7,185.5h40.9M1309.6,200.3v6.5M1268.7,206.8h40.9M1268.7,206.8v-6.5M1268.7,200.3h40.9M1268.7,219.9h40.9M1309.6,206.8v13.1M1268.7,219.9v-13.1M1268.7,219.9h40.9M717.8,835.4h-43M674.8,835.4v-13.9M717.8,821.5v13.9M717.8,835.4h-43M674.8,821.5v-6.6M717.8,814.9h-43M717.8,814.9v6.6M717.8,821.5h-43M717.8,801.8h-43M674.8,814.9v-13.1M717.8,801.8v13.1M717.8,801.8h-43M1309.6,835.4h-45.2M1264.4,835.4v-13.9M1309.6,821.5v13.9M1309.6,835.4h-45.2M1264.4,821.5v-6.6M1309.6,814.9h-45.2M1309.6,814.9v6.6M1309.6,821.5h-45.2M1309.6,801.8h-45.2M1264.4,814.9v-13.1M1309.6,801.8v13.1M1309.6,801.8h-45.2M1186.2,835.4h-44.5M1141.7,835.4v-13.9M1186.2,821.5v13.9M1186.2,835.4h-44.5M1141.7,821.5v-6.6M1186.2,814.9h-44.5M1186.2,814.9v6.6M1186.2,821.5h-44.5M1186.2,801.8h-44.5M1141.7,814.9v-13.1M1186.2,801.8v13.1M1186.2,801.8h-44.5M1071.4,835.4h-45.1M1026.3,835.4v-13.9M1071.4,821.5v13.9M1071.4,835.4h-45.1M1026.3,821.5v-6.6M1071.4,814.9h-45.1M1071.4,814.9v6.6M1071.4,821.5h-45.1M1071.4,801.8h-45.1M1026.3,814.9v-13.1M1071.4,801.8v13.1M1071.4,801.8h-45.1M948.8,835.4h-45.2M903.6,835.4v-13.9M948.8,821.5v13.9M948.8,835.4h-45.2M903.6,821.5v-6.6M948.8,814.9h-45.2M948.8,814.9v6.6M948.8,821.5h-45.2M948.8,801.8h-45.2M903.6,814.9v-13.1M948.8,801.8v13.1M948.8,801.8h-45.2M833.3,835.4h-48.8M784.5,835.4v-13.9M833.3,821.5v13.9M833.3,835.4h-48.8M784.5,821.5v-6.6M833.3,814.9h-48.8M833.3,814.9v6.6M833.3,821.5h-48.8M833.3,801.8h-48.8M784.5,814.9v-13.1M833.3,801.8v13.1M833.3,801.8h-48.8M549.2,406.8v37.7M512.7,444.5v-37.7M549.2,575.6V610M512.7,610v-34.4M555,115.8h-49.5M505.5,115.8v-12.2M555,103.6v12.2M555,115.8h-49.5M505.5,103.6v-5M555,97.8l-49.5,0.8M555,97.8v5.8M555,103.6h-49.5M555,87.2h-49.5M505.5,98.6V87.2M555,87.2v10.6M555,87.2h-49.5M557.9,933.8h-49.5M508.4,933.8v-14M557.9,919.8v14M557.9,933.8h-49.5M508.4,919.8v-6.5M557.9,913.3h-49.5M557.9,913.3v6.5M557.9,919.8h-49.5M557.9,900.2h-49.5M508.4,913.3v-13.1M557.9,900.2v13.1M557.9,900.2h-49.5M222.1,735.4v-46.7M222.1,688.7h12.2M234.3,735.4h-12.2M222.1,735.4v-46.7M234.3,688.7h5.1M239.4,735.4v-46.7M239.4,735.4h-5.1M234.3,735.4v-46.7M250.8,735.4v-46.7M239.4,688.7h11.4M250.8,735.4h-11.4M250.8,735.4v-46.7M222.1,805.1v-46.7M222.1,758.4h12.2M234.3,805.1h-12.2M222.1,805.1v-46.7M234.3,758.4h5.1M239.4,805.1v-46.7M239.4,805.1h-5.1M234.3,805.1v-46.7M250.8,805.1v-46.7M239.4,758.4h11.4M250.8,805.1h-11.4M250.8,805.1v-46.7M225,340.4v-49.2M225,291.2h12.2M237.2,340.4H225M225,340.4v-49.2M237.2,291.2h5M242.2,340.4v-49.2M242.2,340.4h-5M237.2,340.4v-49.2M253.7,340.4v-49.2M242.2,291.2h11.5M253.7,340.4h-11.5M253.7,340.4v-49.2M225,268.3v-49.2M225,219.1h12.2M237.2,268.3H225M225,268.3v-49.2M237.2,219.1h5M242.2,268.3v-49.2M242.2,268.3h-5M237.2,268.3v-49.2M253.7,268.3v-49.2M242.2,219.1h11.5M253.7,268.3h-11.5M253.7,268.3v-49.2M178.4,537.1v-55.7M178.4,481.4h11.5M189.9,537.1h-11.5M178.4,537.1v-55.7M189.9,481.4h5.7M195.6,537.1v-55.7M195.6,537.1h-5.7M189.9,537.1v-55.7M206.4,537.1v-55.7M195.6,481.4h10.8M206.4,537.1h-10.8M206.4,537.1v-55.7M1502.6,444.5h159.9V506h-159.9v-61.5M1502.6,475.6h159.9M1514.7,444.5V506M1526.9,444.5V506M1539.1,444.5V506M1552,444.5V506M1564.2,444.5V506M1576.4,444.5V506M1588.6,444.5V506M1600.8,444.5V506M1613,444.5V506M1625.9,444.5V506M1638.1,444.5V506M1650.3,444.5V506" fill-opacity="0" stroke-linejoin="round" stroke-linecap="round" stroke="#023470" stroke-width="3" id="path_0"/><path fill="#000000" d="m1650.3,478.9 l12.2,-3.3 -12.2,-4.1M471.1,506.8h-160v-60.7h160v60.7M471.1,476.5h-160M458.9,506.8v-60.7M446,506.8v-60.7M433.8,506.8v-60.7M421.6,506.8v-60.7M409.4,506.8v-60.7M397.2,506.8v-60.7M385,506.8v-60.7M372.8,506.8v-60.7M359.9,506.8v-60.7M347.7,506.8v-60.7M335.5,506.8v-60.7M323.3,506.8v-60.7" fill-opacity="0" stroke-linejoin="round" stroke-linecap="round" stroke="#023470" stroke-width="3" id="path_1"/><path fill="#000000" d="m322.6,472.4 l-11.5,4.1 11.5,3.2M311.1,511.7h160v63.9h-160v-63.9M311.1,543.7h160M323.3,511.7v63.9M335.5,511.7v63.9M347.7,511.7v63.9M359.9,511.7v63.9M372.8,511.7v63.9M385,511.7v63.9M397.2,511.7v63.9M409.4,511.7v63.9M421.6,511.7v63.9M433.8,511.7v63.9M446,511.7v63.9M458.9,511.7v63.9M471.1,511.7v63.9" fill-opacity="0" stroke-linejoin="round" stroke-linecap="round" stroke="#023470" stroke-width="3" id="path_2"/><path fill="#000000" d="m458.9,546.9 l12.2,-3.2 -12.2,-4.1M1662.5,575.6h-159.9v-64.7h159.9v64.7M1662.5,542.8h-159.9M1650.3,575.6v-64.7M1638.1,575.6v-64.7M1625.9,575.6v-64.7M1613,575.6v-64.7M1600.8,575.6v-64.7M1588.6,575.6v-64.7M1576.4,575.6v-64.7M1564.2,575.6v-64.7M1552,575.6v-64.7M1539.1,575.6v-64.7M1526.9,575.6v-64.7M1514.7,575.6v-64.7" fill-opacity="0" stroke-linejoin="round" stroke-linecap="round" stroke="#023470" stroke-width="3" id="path_3"/><path fill="#000000" d="m1514,539.6 l-11.4,3.2 11.4,4.1M1385.6,115.8V405.2M1354.1,492v-0.8h31.5v84.4M1354.1,444.5V219.9M1354.1,185.5V86.3M1795.9,405.2v77M1762.2,537.9h33.7v73M1782.3,482.2h13.6M1762.2,482.2h20.1M1762.2,575.6v-37.7M1762.2,482.2v-37.7M1795.9,610.9h-43.7M1726.4,610.9h-208.8M1488.2,610.9h-32.3M1414.3,610.9h-28.7M1385.6,575.6h28.7M1455.9,610.9v-35.3h306.3M1414.3,610.9v-35.3M1350.5,610.9v-35.3M1581.5,756.7h-8.6M1572.9,636.3h8.6v-25.4M1572.9,751.8v-80.3h8.6v80.3M1572.9,636.3v-25.4M1517.6,687.9h-29.4M1488.2,645.3h29.4v-34.4M1517.6,687.9v192.6M1488.2,895.2V687.9M1488.2,645.3v-34.4M1752.2,610.9V683M1752.2,734.6v22.1M1752.2,808.4v104.9M1742.1,756.7h10.1M1752.2,734.6H1726.4M1726.4,756.7h15.7M1726.4,683H1752.2M1752.2,808.4H1726.4v72.1M1726.4,756.7v-22.1M1726.4,683v-72.1M1385.6,511.7v63.9M1385.6,801.8v27.1M1385.6,610.9V801.8M1350.5,801.8V528.1M1488.2,706.7h-31.6M1425.8,706.7h-40.2M1385.6,698.6h40.2M1456.6,706.7v-8.1h31.6M1425.8,706.7v-8.1M1726.4,756.7h-163.6M1532,756.7h-14.4M1517.6,751.8h14.4M1562.8,751.8h10.1M1581.5,751.8h144.9M1562.8,751.8v4.9M1532,756.7v-4.9M616.7,801.8h58.1M717.8,801.8h66.7M833.3,801.8h70.3M948.8,801.8h77.5M1071.4,801.8h70.3M1186.2,801.8h78.2M1309.6,801.8h40.9M1347.6,835.4h-38M1264.4,835.4h-78.2M1141.7,835.4h-70.3M1026.3,835.4h-77.5M903.6,835.4h-70.3M784.5,835.4h-66.7M674.8,835.4h-58.1M1309.6,801.8v33.6M1264.4,835.4v-33.6M1186.2,801.8v33.6M1141.7,835.4v-33.6M1071.4,801.8v33.6M1026.3,835.4v-33.6M948.8,801.8v33.6M903.6,814.9v-13.1M903.6,835.4v-20.5M833.3,801.8v33.6M784.5,835.4v-33.6M717.8,801.8v33.6M674.8,814.9v-13.1M674.8,835.4v-20.5M1385.6,801.8v93.4M1347.6,910v-74.6M1526.9,913.3v20.5h-63.1M1404.3,933.8H1387.1M1387.1,895.2H1404.3M1463.8,895.2h24.4M1463.8,917.4v16.4M1463.8,895.2V917.4M1404.3,933.8V895.2M1752.2,913.3h-225.3M1517.6,880.5h208.8M1393.5,933.8h-6.4M1387.1,895.2h6.4M1387.1,933.8h-39.5M1385.6,895.2h1.5M1347.6,933.8v-38.6M616.7,185.5h58.1M717.8,185.5h66.7M833.3,185.5h69.6M948.8,185.5h81.8M1071.4,185.5h73.9M1186.2,185.5h82.5M1309.6,185.5h44.5M1354.1,219.9h-44.5M1268.7,219.9h-82.5M1145.3,219.9h-73.9M1030.6,219.9h-33M971,219.9h-22.2M902.9,219.9h-69.6M784.5,219.9h-66.7M674.8,219.9h-58.1M1309.6,206.8v13.1M1309.6,185.5v21.3M1268.7,219.9V185.5M1186.2,185.5v34.4M1145.3,219.9V185.5M1071.4,206.8v13.1M1071.4,185.5v21.3M1030.6,219.9V185.5M948.8,185.5v34.4M902.9,219.9v-34.4M833.3,185.5v34.4M784.5,219.9v-34.4M717.8,206v13.9M717.8,185.5V206M674.8,219.9v-34.4M1354.1,404.3h-243.9M1073.6,404.3h-76M997.6,398.6h76M1110.2,404.3v-5.7h243.9M1073.6,404.3v-5.7M1385.6,405.2h45.2M1471.7,405.2h19.4M1517.6,405.2h208.8M1752.9,405.2h43M1762.2,444.5h-290.5M1430.8,444.5h-76.7M1471.7,405.2v39.3M1430.8,444.5v-39.3M1354.1,444.5v-39.3M1354.1,86.3h60.9M1464.5,86.3l62.4,0.9v18M1491.1,115.8h-26.6M1415,115.8h-29.4M1464.5,86.3v29.5M1415,98.6V86.3M1415,115.8V98.6M1385.6,337.1h52.4M1468.8,337.1h22.3M1491.1,342h-22.3M1438,342h-52.4M1468.8,337.1v4.9M1438,342v-4.9M1517.6,394.5h-26.5M1517.6,136.3v215.6M1517.6,394.5v10.7M1491.1,351.9h26.5M1491.1,405.2v-10.7M1491.1,351.9V115.8M1752.9,339.6h-10.8M1752.9,105.2v113.1M1752.9,267.5v22.9M1752.9,339.6v65.6M1752.9,267.5h-26.5M1726.4,218.3h26.5M1742.1,339.6h-15.7M1726.4,290.4h26.5M1726.4,405.2v-65.6M1726.4,290.4v-22.9M1726.4,218.3v-82M1526.9,105.2h226M1726.4,136.3h-208.8M636.8,492H741.5M783.8,492H971M997.6,492h251M1293.8,492h60.3M1350.5,528.1h-56.7M1248.6,528.1H783.8M741.5,528.1H636.8M1293.8,492v36.1M1248.6,528.1V492M783.8,492v36.1M741.5,528.1V492M616.7,399.4h43M697,399.4h274M971,406H697M659.7,406h-43M697,399.4v6.6M659.7,406v-6.6M636.8,492h47.3M684.1,528.1h-67.4M588,492.8H616.7v-0.8h20.1M588,454.3h28.7M616.7,87.2v98.3M616.7,219.9V454.3M616.7,528.1v273.7M616.7,835.4v98.4M588,900.2V610M588,575.6v-82.8M588,454.3v-9.8M588,406.8v-291M178.4,406.8H225M253.7,406.8h259M549.2,406.8H588M588,444.5h-38.8M512.7,444.5H206.4M549.2,406.8v37.7M512.7,444.5v-37.7M178.4,444.5v-37.7M452.4,87.2h53.1M555,87.2h61.7M588,115.8h-33M505.5,115.8H484M555,103.6v12.2M555,87.2v16.4M505.5,115.8V87.2M452.4,106V87.2M983.9,528.1v273.7M978.2,801.8V528.1M997.6,219.9v199.2M997.6,486.3v5.7M971,419.1h26.6M997.6,486.3H971v5.7M971,419.1V219.9M616.7,933.8h-58.8M508.4,933.8h-56M484.7,900.2h23.7M557.9,933.8v-33.6H588M508.4,913.3v-13.1M508.4,933.8v-20.5M452.4,933.8v-19.7M206.4,575.6h306.3M549.2,575.6H588M588,610h-38.8M512.7,610H250.8M222.1,610h-34.4M549.2,575.6V610M512.7,610v-34.4M250.8,805.1h-28.7M222.1,688.7H250.8M250.8,735.4h-28.7M250.8,610v78.7M250.8,735.4v23M250.8,805.1v75.4M222.1,758.4H250.8M222.1,914.1v-109M222.1,758.4v-23M222.1,688.7V610M242.2,219.1h11.5M253.7,340.4h-11.5M253.7,268.3h-11.5M253.7,138v81.1M253.7,268.3v22.9M253.7,340.4v66.4M242.2,291.2h11.5M225,219.1h17.2M225,291.2h17.2M242.2,268.3H225M242.2,340.4H225v66.4M225,291.2v-22.9M225,219.1V106M206.4,610h-28M206.4,444.5v36.9M178.4,537.1h28v38.5M195.6,481.4h10.8M178.4,481.4h17.2M178.4,610v-72.9M178.4,481.4V427.3M452.4,914.1H222.1M250.8,880.5h233.9v19.7M484,115.8V138H253.7M225,106h227.4M1385.6,610.9v4.9M1350.5,615.8v-16.4" fill-opacity="0" stroke-linejoin="round" stroke-linecap="round" stroke="#023470" stroke-width="3" id="path_4"/><path fill="#000000" d="M616.7,835.4h730.9v98.4h179.3v-20.5h225.3V610.9h43.7V405.2h-43v-300h-226v-18l-172.8,-0.9v99.2H616.7V87.2H452.4V106H225v300.8h-46.6V610h43.7v304.1h230.3v19.7h164.3v-98.4M834.7,-0.5h-7.1" fill-opacity="0" stroke-linejoin="round" stroke-linecap="round" stroke="#023470" stroke-width="3" id="path_5"/><path fill="#000000" d="M1753.2,927.9h-225.3V949h-178.3V848.2H629.8V949H455.6v-20.1H226.1V624.3h-43.7V412.9h46.2V107.3h227V88.1h174.2v100h723.1V87.2h175v19.2H1754v305.5h43v212.4h-43.8z" fill-opacity="0" stroke-linejoin="round" stroke-linecap="round" stroke="#023470" stroke-width="30" id="path_6"/></svg>