<svg id="vector" xmlns="http://www.w3.org/2000/svg" width="6519" height="4020" viewBox="0 0 6519 4020"><path fill="#000000" d="M3386.3,1899.4v-28.8M3357.5,1899.4h28.8M3357.5,1870.6v28.8M3386.3,1870.6h-28.8M3386.3,1676.4v-28.8M3357.5,1676.4h28.8M3357.5,1647.6v28.8M3386.3,1647.6h-28.8M3196.8,1900.3v-28.8M3168,1900.3h28.8M3168,1871.5v28.8M3196.8,1871.5H3168M3196.8,1677.3v-28.8M3168,1677.3h28.8M3168,1648.5v28.8M3196.8,1648.5H3168M3498.8,1872.4h-111.5M3358.5,1871.5h-161.7M3168,1871.5h-113.4M3387.3,1871.5v-194.2M3358.5,1871.5v-194.2M3196.8,1871.5v-194.2M3168.9,1872.4v-195.1M3498.8,1858.5h-101.3M3498.8,1844.6h-92.9M3498.8,1830.6h-85.5M3498.8,1817.6h-77.1M3498.8,1803.7h-69.7M3498.8,1789.8h-62.3M3498.8,1775.8h-53.9M3498.8,1748.9h-38.1M3498.8,1734.9h-30.7M3494.1,1680.1h-106.8M3358.5,1857.6h-161.7M3358.5,1844.6h-161.7M3358.5,1816.7h-161.7M3358.5,1802.8h-161.7M3358.5,1789.8h-161.7M3358.5,1775.8h-161.7M3358.5,1761.9h-161.7M3358.5,1748h-161.7M3358.5,1734.9h-161.7M3358.5,1721h-161.7M3358.5,1707.1h-161.7M3358.5,1693.1h-161.7M3358.5,1680.1h-161.7M3168,1858.5h-4.7M3168,1844.6h-13M3168,1830.6h-20.5M3168,1816.7h-28.8M3168,1803.7h-36.3M3168,1789.8h-44.6M3168,1775.8h-53M3168,1761.9h-60.4M3168,1748.9h-68.8M3168,1734.9h-77.2M3168,1721h-84.6M3168,1707.1h-93M3168,1694.1h-101.3M3168,1680.1h-108.8M3166.1,1871.5 L3054.6,1682M3168.9,1867.8l-111.5,-190.5M3077.8,1721h-23.2M3085.3,1734.9h-30.7M3093.6,1748.9h-39M3102,1761.9h-47.4M3109.4,1775.8h-54.8M3117.8,1789.8h-63.2M3126.1,1803.7h-71.5M3133.6,1816.7h-79M3141.9,1830.6h-87.3M3150.3,1844.6h-95.7M3157.7,1858.5h-103.1M3498.8,1682l-108.7,190.4M3494.1,1680.1l-106.8,186.8M3400.3,1844.6h-13M3407.7,1830.6h-20.4M3416.1,1817.6h-28.8M3423.5,1803.7h-36.2M3431.9,1789.8h-44.6M3439.3,1775.8h-52M3455.1,1748.9h-67.8M3462.6,1734.9h-75.3M3470.9,1721h-83.6M3478.3,1708h-91M3486.7,1694.1h-99.4M3497.9,1761h-44.6M3447.7,1761h-61.4M3477.4,1719.2h20.5M3485.8,1705.2h12.1M5798.8,1664.3h-187.7M5798.8,1648.5h-92M5798.8,1632.8h-92M5798.8,1616h-92M5798.8,1600.2h-92M5798.8,1584.4h-92M5798.8,1568.6h-92M5798.8,1551.9h-92M5798.8,1536.1h-92M5798.8,1520.3h-92M5798.8,1503.6h-92M5798.8,1487.8h-92M5798.8,1472h-187.7M5706.8,1472v192.3M5702.2,1664.3V1472M5702.2,1487.8h-91.1M5702.2,1503.6h-91.1M5702.2,1520.3h-91.1M5702.2,1536.1h-91.1M5702.2,1551.9h-91.1M5702.2,1568.6h-91.1M5702.2,1584.4h-91.1M5702.2,1600.2h-91.1M5702.2,1616h-91.1M5702.2,1632.8h-91.1M5702.2,1648.5h-91.1M928.4,1656.9H749M939.5,1640.2h-91.1M939.5,1624.4h-91.1M939.5,1608.6h-91.1M939.5,1591.9h-91.1M939.5,1576.1h-91.1M939.5,1560.3h-91.1M939.5,1544.5h-91.1M939.5,1527.8h-91.1M939.5,1512h-91.1M939.5,1496.2h-91.1M939.5,1479.5H749M848.4,1479.5v177.4M840.1,1479.5v177.4M840.1,1640.2H749M840.1,1624.4H749M840.1,1608.6H749M840.1,1591.9H749M840.1,1576.1H749M840.1,1560.3H749M840.1,1544.5H749M840.1,1527.8H749M840.1,1512H749M840.1,1496.2H749M5818.3,1075.3l-117.1,-50.1M5823,1063.2l-117.1,-49.2M5827.6,1052.1l-117.1,-49.2M5832.3,1040.9l-117.1,-49.2M5837.8,1029.8l-118,-49.2M5842.5,1018.6l-117.1,-50.1M5351.8,995.4h-50.2M5351.8,1040.9h-50.2M5351.8,1085.5h-50.2M3483.9,1525h32.6M3530.4,1479.5v31.5M3483.9,1525v-15.8M3402.1,1509.2v15.8h-61.3v-15.8M3211.6,1509.2v15.8h-58.5v-15.8M3070.4,1509.2v15.8h-31.6M3041.6,1479.5h-15.8v30.6M3025.8,1396.8h15.8M3025.8,1396.8v-60.4h15.8M3041.6,1208.2h-15.8v-60.4h15.8M3041.6,1065.1h-15.8v-34.4M3068.5,1035.4v-14.9M3211.6,1020.5v14.9M3151.2,1020.5v14.9M3340.8,1035.4v-14.9M3399.4,1020.5v14.9M3482.1,1035.4v-14.9M3530.4,1065.1v-30.7M3530.4,1065.1h-14.9M3530.4,1208.2v-60.4h-14.9M3530.4,1208.2h-14.9M3530.4,1336.4v60.4h-14.9M3530.4,1336.4h-14.9M3530.4,1479.5h-14.9M3515.5,1396.8c-7.3,26.6 -7.3,54.9 0,82.7M3515.5,1208.2c-5.6,41.9 -5.6,85.2 0,128.2M3515.5,1065.1c-7.3,26.8 -7.3,55.2 0,82.7M3399.4,1035.4c27.6,7.2 56,7.2 82.7,0M3211.6,1035.4c43.4,5.5 86.8,5.5 129.2,0M3068.5,1035.4c27.5,7.2 55.8,7.2 82.7,0M3041.6,1147.8c7.9,-27.5 7.9,-55.9 0,-82.7" fill-opacity="0" stroke-linejoin="round" stroke-linecap="round" stroke="#023470" stroke-width="7" id="path_0"/><path fill="#000000" d="M3041.6,1336.4c6.2,-42.8 6.2,-86.2 0,-128.2M3041.6,1479.5c7.9,-27.8 7.9,-56.1 0,-82.7M3153.1,1509.2c-26.6,-8 -55,-8 -82.7,0M3340.8,1509.2c-42.4,-6.2 -85.8,-6.2 -129.2,0M3483.9,1509.2c-26.5,-8 -54.8,-8 -81.8,0M3348.2,3624.6h-305.7v79.9M3042.5,3624.6V3515M3251.6,3579.1h-209.1M3251.6,3560.5h-209.1M3251.6,3624.6V3515M3235.8,3624.6v-39M3219.1,3624.6v-35.3M3203.3,3624.6v-32.5M3187.5,3624.6v-28.8M3170.8,3624.6v-25.1M3155,3624.6v-21.3M3139.2,3624.6v-18.5M3123.4,3624.6v-14.8M3106.6,3624.6v-11.1M3090.8,3624.6v-7.4M3075,3624.6v-4.6M3058.3,3624.6v-0.9M3251.6,3581.9l-197.9,42.7M3240.4,3579.1l-197.9,43.7M3235.8,3581v-1.9M3219.1,3583.8v-4.7M3203.3,3587.5v-8.4M3187.5,3591.2v-12.1M3170.8,3594.9v-15.8M3155,3597.7v-18.6M3139.2,3601.4v-22.3M3123.4,3605.1v-26M3106.6,3608.8v-29.7M3090.8,3611.6v-32.5M3075,3615.3v-36.2M3058.3,3619.1v-40M3235.8,3560.5V3515M3219.1,3560.5V3515M3203.3,3560.5V3515M3187.5,3560.5V3515M3170.8,3560.5V3515M3155,3560.5V3515M3139.2,3560.5V3515M3123.4,3560.5V3515M3106.6,3560.5V3515M3090.8,3560.5V3515M3075,3560.5V3515M3058.3,3560.5V3515" fill-opacity="0" stroke-linejoin="round" stroke-linecap="round" stroke="#023470" stroke-width="7" id="path_1"/><path fill="#000000" d="M3349.2,3624.6c0.5,0.5 -0.1,1.2 -0.9,1.9 -0.7,-0.7 -1.4,-1.3 -1.9,-1.9 0.5,-1 1.1,-1.7 1.9,-0.9 0.8,-0.7 1.4,-0.1 0.9,0.9M3333.4,3624.6c0.3,0.5 -0.4,1.2 -1.9,1.9 -0.1,-0.7 -0.7,-1.3 -0.9,-1.9 0.2,-1 0.9,-1.7 0.9,-0.9 1.5,-0.7 2.2,-0.1 1.9,0.9M3317.6,3624.6c0,0.5 -0.6,1.2 -1.9,1.9 -0.3,-0.7 -1,-1.3 -1.9,-1.9 0.9,-1 1.5,-1.7 1.9,-0.9 1.3,-0.7 1.9,-0.1 1.9,0.9M3300.9,3624.6c0.7,0.5 0,1.2 -0.9,1.9 -0.6,-0.7 -1.2,-1.3 -1.9,-1.9 0.6,-1 1.3,-1.7 1.9,-0.9 0.9,-0.7 1.5,-0.1 0.9,0.9M3285.1,3624.6c0.4,0.5 -0.2,1.2 -1.9,1.9 0.1,-0.7 -0.6,-1.3 -0.9,-1.9 0.4,-1 1,-1.7 0.9,-0.9 1.6,-0.7 2.3,-0.1 1.9,0.9M3269.3,3624.6c0.1,0.5 -0.5,1.2 -1.9,1.9 -0.2,-0.7 -0.8,-1.3 -0.9,-1.9 0.1,-1 0.7,-1.7 0.9,-0.9 1.4,-0.7 2,-0.1 1.9,0.9M3252.5,3624.6c0.8,0.5 0.2,1.2 -0.9,1.9 -0.5,-0.7 -1.1,-1.3 -1.9,-1.9 0.8,-1 1.4,-1.7 1.9,-0.9 1.1,-0.7 1.7,-0.1 0.9,0.9M3236.7,3624.6c0.5,0.5 -0.1,1.2 -0.9,1.9 -0.7,-0.7 -1.4,-1.3 -1.9,-1.9 0.5,-1 1.1,-1.7 1.9,-0.9 0.8,-0.7 1.5,-0.1 0.9,0.9M3220.9,3624.6c0.3,0.5 -0.4,1.2 -1.9,1.9 -0.1,-0.7 -0.7,-1.3 -0.9,-1.9 0.2,-1 0.9,-1.7 0.9,-0.9 1.6,-0.7 2.2,-0.1 1.9,0.9M3205.1,3624.6c0,0.5 -0.6,1.2 -1.9,1.9 -0.3,-0.7 -1,-1.3 -1.9,-1.9 0.9,-1 1.5,-1.7 1.9,-0.9 1.3,-0.7 1.9,-0.1 1.9,0.9M3188.4,3624.6c0.7,0.5 0,1.2 -0.9,1.9 -0.6,-0.7 -1.2,-1.3 -1.9,-1.9 0.6,-1 1.3,-1.7 1.9,-0.9 1,-0.7 1.6,-0.1 0.9,0.9M3172.6,3624.6c0.4,0.5 -0.2,1.2 -1.9,1.9 0.1,-0.7 -0.6,-1.3 -0.9,-1.9 0.4,-1 1,-1.7 0.9,-0.9 1.7,-0.7 2.3,-0.1 1.9,0.9M3156.8,3624.6c0.1,0.5 -0.5,1.2 -1.9,1.9 -0.2,-0.7 -0.8,-1.3 -0.9,-1.9 0.1,-1 0.7,-1.7 0.9,-0.9 1.4,-0.7 2.1,-0.1 1.9,0.9M3140.1,3624.6c0.8,0.5 0.2,1.2 -0.9,1.9 -0.5,-0.7 -1.1,-1.3 -1.9,-1.9 0.8,-1 1.4,-1.7 1.9,-0.9 1.1,-0.7 1.7,-0.1 0.9,0.9M3124.3,3624.6c0.5,0.5 -0.1,1.2 -0.9,1.9 -0.7,-0.7 -1.4,-1.3 -1.9,-1.9 0.5,-1 1.1,-1.7 1.9,-0.9 0.8,-0.7 1.4,-0.1 0.9,0.9M3108.5,3624.6c0.3,0.5 -0.4,1.2 -1.9,1.9 -0.1,-0.7 -0.7,-1.3 -0.9,-1.9 0.2,-1 0.9,-1.7 0.9,-0.9 1.5,-0.7 2.2,-0.1 1.9,0.9M3092.7,3624.6c0,0.5 -0.6,1.2 -1.9,1.9 -0.3,-0.7 -1,-1.3 -1.9,-1.9 0.9,-1 1.5,-1.7 1.9,-0.9 1.3,-0.7 1.9,-0.1 1.9,0.9M3076,3624.6c0.7,0.5 0,1.2 -0.9,1.9 -0.6,-0.7 -1.2,-1.3 -1.9,-1.9 0.6,-1 1.3,-1.7 1.9,-0.9 0.9,-0.7 1.5,-0.1 0.9,0.9M3060.2,3624.6c0.4,0.5 -0.2,1.2 -1.9,1.9 0.1,-0.7 -0.6,-1.3 -0.9,-1.9 0.4,-1 1,-1.7 0.9,-0.9 1.6,-0.7 2.3,-0.1 1.9,0.9M3044.4,3624.6c0.1,0.5 -0.5,1.2 -1.9,1.9 -0.2,-0.7 -0.8,-1.3 -0.9,-1.9 0.1,-1 0.7,-1.7 0.9,-0.9 1.4,-0.7 2,-0.1 1.9,0.9M3044.4,3641.4c0.1,-0.1 -0.5,0.5 -1.9,0.9 -0.2,-0.4 -0.8,-1 -0.9,-0.9 0.1,-1.7 0.7,-2.3 0.9,-1.9 1.4,-0.5 2,0.2 1.9,1.9M3044.4,3657.2c0.1,0.1 -0.5,0.8 -1.9,0.9 -0.2,-0.1 -0.8,-0.8 -0.9,-0.9 0.1,-1.4 0.7,-2.1 0.9,-1.9 1.4,-0.2 2,0.4 1.9,1.9M3044.4,3672.9c0.1,0.4 -0.5,1 -1.9,1.9 -0.2,-0.8 -0.8,-1.4 -0.9,-1.9 0.1,-1.2 0.7,-1.8 0.9,-0.9 1.4,-0.8 2,-0.2 1.9,0.9M3044.4,3688.7c0.1,0.7 -0.5,1.3 -1.9,1.9 -0.2,-0.5 -0.8,-1.2 -0.9,-1.9 0.1,-0.9 0.7,-1.5 0.9,-0.9 1.4,-0.6 2,0.1 1.9,0.9M3044.4,3704.5c0.1,0.5 -0.5,1.1 -1.9,1.9 -0.2,-0.8 -0.8,-1.4 -0.9,-1.9 0.1,-1.1 0.7,-1.7 0.9,-0.9 1.4,-0.8 2,-0.2 1.9,0.9M841.9,1479.5c0.4,0.8 -0.2,1.4 -1.9,1.9 0.1,-0.5 -0.6,-1.1 -0.9,-1.9 0.4,-0.8 1,-1.4 0.9,-0.9 1.7,-0.6 2.4,0.1 1.9,0.9M849.4,1479.5c0.6,0.6 0,1.2 -0.9,1.9 -0.6,-0.7 -1.3,-1.3 -1.9,-1.9 0.6,-1 1.2,-1.6 1.9,-0.9 0.9,-0.8 1.5,-0.2 0.9,0.9M833.6,1479.5c0.7,0.8 0.1,1.4 -0.9,1.9 -0.5,-0.5 -1.2,-1.1 -1.9,-1.9 0.7,-0.8 1.3,-1.4 1.9,-0.9 1,-0.6 1.6,0.1 0.9,0.9M817.8,1479.5c0.5,0.8 -0.1,1.4 -0.9,1.9 -0.7,-0.5 -1.4,-1.1 -1.9,-1.9 0.5,-0.8 1.1,-1.4 1.9,-0.9 0.8,-0.6 1.4,0.1 0.9,0.9M802,1479.5c0.3,0.8 -0.3,1.4 -1.9,1.9 0,-0.5 -0.7,-1.1 -0.9,-1.9 0.3,-0.8 0.9,-1.4 0.9,-0.9 1.6,-0.6 2.2,0.1 1.9,0.9M785.3,1479.5c0.8,0.8 0.2,1.4 -0.9,1.9 -0.4,-0.5 -1.1,-1.1 -1.9,-1.9 0.8,-0.8 1.4,-1.4 1.9,-0.9 1.1,-0.6 1.7,0.1 0.9,0.9M769.5,1479.5c0.5,0.8 -0.1,1.4 -0.9,1.9 -0.7,-0.5 -1.4,-1.1 -1.9,-1.9 0.5,-0.8 1.1,-1.4 1.9,-0.9 0.7,-0.6 1.4,0.1 0.9,0.9M750.9,1479.5c0.8,0.8 0.2,1.4 -0.9,1.9 -0.4,-0.5 -1.1,-1.1 -1.9,-1.9 0.8,-0.8 1.4,-1.4 1.9,-0.9 1.1,-0.6 1.7,0.1 0.9,0.9M860.5,1063.2l-53.9,19.6 -18.6,-53 53.9,-19.5M792.7,1042.8l53.9,-18.6M797.3,1056.7l53.9,-19.5M802,1069.7l53.9,-19.5M967.4,672.1 L1070.5,961M967.4,672.1l-200.7,65M5658.5,1075.3l53.9,-128.2 13,-31.6 17.6,-41.8M5658.5,1075.3h-53.9M3054.6,1365.2c0.1,-8.2 -6.3,-14.5 -14.9,-13.9 -7.1,-0.6 -13.4,5.8 -13.9,13.9M3025.8,1365.2c0.5,7.5 6.9,13.8 13.9,13.9 8.6,-0.1 14.9,-6.4 14.9,-13.9M3054.6,1510.1c0.1,-8.6 -6.3,-14.9 -14.9,-14.9 -7.1,0 -13.4,6.3 -13.9,14.9M3025.8,1510.1c0.5,7.1 6.9,13.4 13.9,13.9 8.6,-0.5 14.9,-6.8 14.9,-13.9M3054.6,1178.4c0.1,-8.5 -6.3,-14.8 -14.9,-13.9 -7.1,-0.9 -13.4,5.5 -13.9,13.9M3025.8,1178.4c0.5,7.2 6.9,13.5 13.9,13.9 8.6,-0.4 14.9,-6.8 14.9,-13.9M3054.6,1033.5c0.1,-8.1 -6.3,-14.4 -14.9,-13.9 -7.1,-0.5 -13.4,5.9 -13.9,13.9M3025.8,1033.5c0.5,7.6 6.9,13.9 13.9,13.9 8.6,0 14.9,-6.4 14.9,-13.9M3530.4,1511c0.5,-8.7 -5.8,-15.1 -13.9,-14.9 -7.5,-0.2 -13.9,6.1 -13.9,14.9M3502.5,1511c0.1,6.9 6.4,13.3 13.9,13.9 8.1,-0.7 14.5,-7 13.9,-13.9M3529.5,1365.2c0.5,-8.2 -5.9,-14.5 -13.9,-13.9 -7.6,-0.6 -13.9,5.8 -13.9,13.9M3501.6,1365.2c0,7.5 6.3,13.8 13.9,13.9 8.1,-0.1 14.4,-6.5 13.9,-13.9M3530.4,1178.4c0.5,-8.5 -5.8,-14.8 -13.9,-13.9 -7.5,-0.9 -13.9,5.5 -13.9,13.9M3502.5,1178.4c0.1,7.2 6.4,13.5 13.9,13.9 8.1,-0.4 14.5,-6.8 13.9,-13.9M3530.4,1033.5c0.5,-8.1 -5.8,-14.4 -13.9,-13.9 -7.5,-0.5 -13.9,5.9 -13.9,13.9M3502.5,1033.5c0.1,7.6 6.4,13.9 13.9,13.9 8.1,0 14.5,-6.4 13.9,-13.9M3382.6,1033.5c0.9,-8.1 -5.5,-14.4 -13.9,-13.9 -7.2,-0.5 -13.5,5.9 -13.9,13.9M3354.8,1033.5c0.4,7.6 6.8,13.9 13.9,13.9 8.5,0 14.8,-6.4 13.9,-13.9M3197.7,1033.5c0.1,-8.1 -6.2,-14.4 -14.9,-13.9 -7,-0.5 -13.4,5.9 -13.9,13.9M3168.9,1033.5c0.6,7.6 6.9,13.9 13.9,13.9 8.6,0 15,-6.4 14.9,-13.9M3197.7,1510.1c0.1,-8.6 -6.2,-14.9 -14.9,-14.9 -7,0 -13.4,6.3 -13.9,14.9M3168.9,1510.1c0.6,7.1 6.9,13.4 13.9,13.9 8.6,-0.5 15,-6.8 14.9,-13.9M3382.6,1510.1c0.9,-8.6 -5.5,-14.9 -13.9,-14.9 -7.2,0 -13.5,6.3 -13.9,14.9M3354.8,1510.1c0.4,7.1 6.8,13.4 13.9,13.9 8.5,-0.5 14.8,-6.8 13.9,-13.9M749.9,1343.8h63.2M877.3,1343.8H973M939.5,1370.8h-62.2M813.1,1370.8h-63.2M877.3,1343.8v27M813.1,1370.8v-27M1092.9,1072.5v112.4M1092.9,1210v11.2M1092.9,1334.5v9.3M1092.9,1334.5h-19.6M1073.3,1221.2h19.6M1073.3,1343.8v-9.3M1073.3,1221.2v-126.4M973,1343.8h19.5M1055.7,1343.8h17.6M1092.9,1343.8H1367M1431.1,1343.8h261.1M1755.4,1343.8h257.5M2077,1343.8h102.2M2179.2,1361.5v3.7M2089.1,1365.2H2077M2012.9,1365.2h-257.5M1692.2,1365.2h-261.1M1367,1365.2h-311.3M992.5,1365.2H973M2077,1343.8v21.4M2012.9,1365.2v-21.4M1755.4,1343.8v21.4M1692.2,1365.2v-21.4M1431.1,1343.8v21.4M1367,1365.2v-21.4M1055.7,1343.8v21.4M992.5,1365.2v-21.4M2892,1184.9v46.5M2892,1325.2v323.3M2865,1231.4h27M2892,1325.2h-27M2865,1648.5v-287M2865,1343.8v-18.6M2865,1231.4V1210M1310.3,1365.2v283.3M1303.8,1648.5v-283.3M1868.8,1463.7h-6.5M1862.3,1416.3h6.5v-49.6M1868.8,1463.7v184.8M1862.3,1648.5v-184.8M1862.3,1416.3v-51.1M2002.6,1365.2v283.3M1996.1,1648.5v-283.3M2865,1361.5h-165.4M2635.5,1361.5h-299.3M2272.1,1361.5h-92.9M2179.2,1343.8h92.9M2336.2,1343.8h299.3M2699.6,1343.8H2865M2699.6,1343.8v17.7M2635.5,1361.5v-17.7M2336.2,1343.8v17.7M2272.1,1361.5v-17.7M973,1365.2v283.3M939.5,1648.5v-277.7M1657.9,1365.2v283.3M1651.4,1648.5v-283.3M2179.2,1365.2v67.8M2089.1,1433v-67.8M2379.9,1507.3h-6.5M2373.4,1459.9h6.5v-98.4M2379.9,1507.3v141.2M2373.4,1648.5v-141.2M2373.4,1459.9v-98.4M2524.9,1361.5v287M2518.4,1648.5v-287M928.4,1648.5h11.1M973,1648.5h2080.7" fill-opacity="0" stroke-linejoin="round" stroke-linecap="round" stroke="#023470" stroke-width="7" id="path_2"/><path fill="#000000" d="M3020.2,1687.6H966.5v98.4" fill-opacity="0" stroke-linejoin="round" stroke-linecap="round" stroke="#023470" stroke-width="70" id="path_3"/><path fill="#000000" d="M928.4,1749.8v-101.3M2158.8,1517.5h20.4M2179.2,1564.9h-20.4M2179.2,1401.4v116.1M2179.2,1564.9v83.6M2158.8,1648.5v-83.6M2158.8,1517.5V1433h-69.7M3053.7,1648.5v403.3" fill-opacity="0" stroke-linejoin="round" stroke-linecap="round" stroke="#023470" stroke-width="7" id="path_4"/><path fill="#000000" d="M3020.2,2051.8v-364.2" fill-opacity="0" stroke-linejoin="round" stroke-linecap="round" stroke="#023470" stroke-width="70" id="path_5"/><path fill="#000000" d="m1016.6,656.3 l-12,3.7M967.4,672.1l-200.7,66M736.9,719.5l237.9,-78" fill-opacity="0" stroke-linejoin="round" stroke-linecap="round" stroke="#023470" stroke-width="7" id="path_6"/><path fill="#000000" d="m816.8,100.7 l199.8,555.6" fill-opacity="0" stroke-linejoin="round" stroke-linecap="round" stroke="#023470" stroke-width="70" id="path_7"/><path fill="#000000" d="M974.8,641.5 L795.5,142.6M2525.8,902.5v282.4M2521.2,1184.9V902.5M1861.4,902.5v282.4M1855.8,1184.9V902.5M1196.9,1014.9h51.1M1248,1018.6h-47.4M1196.9,1014.9h0M1275.9,902.5v282.4M1248,1184.9V962M1248,925.7v-58.5M1200.6,1065.1h-10.2M1200.6,1123.6h-10.2M1190.4,1027h10.2M1190.4,1086.5h10.2M1190.4,1014.9h6.5M1200.6,1018.6v8.4M1200.6,1065.1v8.4M1200.6,1078.1v8.4M1200.6,1123.6v8.4M1190.4,1132v-8.4M1190.4,1086.5v-21.4M1190.4,1027v-12.1M1248,1078.1h-47.4M1200.6,1073.5h47.4M1092.9,1132h26M1165.3,1132h25.1M1200.6,1132h47.4M1248,1137.6h-82.7M1118.9,1137.6h-26M1165.3,1132v5.6M1118.9,1137.6v-5.6M1063.1,1072.5h29.8M1073.3,1094.8h-10.2v-4.6M1207.2,983.3h-8.4M1207.2,962v21.3M1198.8,983.3V962" fill-opacity="0" stroke-linejoin="round" stroke-linecap="round" stroke="#023470" stroke-width="7" id="path_8"/><path fill="#000000" d="M1099.4,925.7H1248" fill-opacity="0" stroke-linejoin="round" stroke-linecap="round" stroke="#023470" stroke-width="70" id="path_9"/><path fill="#000000" d="M1248,962h-177.5v-1M1085.4,962v110.5M1079.8,1072.5V962" fill-opacity="0" stroke-linejoin="round" stroke-linecap="round" stroke="#023470" stroke-width="7" id="path_10"/><path fill="#000000" d="m1004.6,660 l78,219.3 16.8,46.4" fill-opacity="0" stroke-linejoin="round" stroke-linecap="round" stroke="#023470" stroke-width="70" id="path_11"/><path fill="#000000" d="m1070.5,961 l-24.1,-68.7M984.1,718.6l-16.7,-46.5M1092.9,1184.9h45.5M1202.5,1184.9h45.5M1275.9,1184.9h82.7M1422.7,1184.9h595.7M2082.5,1184.9h73.5M2179.2,1184.9h92.9M2335.3,1184.9h300.2M2699.6,1184.9h170.1M2865,1210h-165.4M2635.5,1210h-300.2M2272.1,1210h-189.6M2018.4,1210h-595.7M1358.6,1210h-156.1M1138.4,1210h-45.5M2699.6,1184.9v25.1M2635.5,1210v-25.1M2335.3,1184.9v25.1M2272.1,1210v-25.1M2082.5,1184.9v25.1M2018.4,1210v-25.1M1422.7,1184.9v25.1M1358.6,1210v-25.1M1202.5,1184.9v25.1M1138.4,1210v-25.1" fill-opacity="0" stroke-linejoin="round" stroke-linecap="round" stroke="#023470" stroke-width="7" id="path_12"/><path fill="#000000" d="M1248,867.2h4024.8" fill-opacity="0" stroke-linejoin="round" stroke-linecap="round" stroke="#023470" stroke-width="70" id="path_13"/><path fill="#000000" d="M2179.2,902.5v282.4M2156,1184.9V902.5M2892,896.9v288M2869.7,1184.9V902.5M930.2,1072.5h50.2M1051,1072.5h12.1M1063.1,1090.2H1051M980.4,1090.2h-12.1M1051,1072.5v17.7M980.4,1090.2v-17.7M1025,832.8l-197,64.1M826.1,893.2l197.1,-65M930.2,1072.5h38.1M968.3,1090.2v4.6M890.3,1072.5h39.9M968.3,1094.8h-96.6" fill-opacity="0" stroke-linejoin="round" stroke-linecap="round" stroke="#023470" stroke-width="7" id="path_14"/><path fill="#000000" d="M3531.3,1687.6v364.2" fill-opacity="0" stroke-linejoin="round" stroke-linecap="round" stroke="#023470" stroke-width="70" id="path_15"/><path fill="#000000" d="M3497.9,2051.8v-403.3" fill-opacity="0" stroke-linejoin="round" stroke-linecap="round" stroke="#023470" stroke-width="7" id="path_16"/><path fill="#000000" d="M5583.2,1687.6H3531.3" fill-opacity="0" stroke-linejoin="round" stroke-linecap="round" stroke="#023470" stroke-width="70" id="path_17"/><path fill="#000000" d="M3497.9,1648.5h73.4M3640,1648.5h26.1M3692.1,1648.5h49.2M3571.3,1648.5h2011.9M3692.1,896.9v291.8M3692.1,1211.9v19.5M3692.1,1325.2v18.6M3692.1,1365.2v283.3M3692.1,1325.2h-26M3666.1,1231.4h26M3666.1,1648.5v-323.3M3666.1,1231.4V896.9" fill-opacity="0" stroke-linejoin="round" stroke-linecap="round" stroke="#023470" stroke-width="7" id="path_18"/><path fill="#000000" d="M966.5,1786H723" fill-opacity="0" stroke-linejoin="round" stroke-linecap="round" stroke="#023470" stroke-width="70" id="path_19"/><path fill="#000000" d="M749.9,1749.8h178.5" fill-opacity="0" stroke-linejoin="round" stroke-linecap="round" stroke="#023470" stroke-width="7" id="path_20"/><path fill="#000000" d="M2859.4,2051.8h282.5" fill-opacity="0" stroke-linejoin="round" stroke-linecap="round" stroke="#023470" stroke-width="70" id="path_21"/><path fill="#000000" d="M2992.3,2051.8h27.9M3053.7,2051.8h20.4M3478.3,2051.8h19.6M3531.3,2051.8h20.5" fill-opacity="0" stroke-linejoin="round" stroke-linecap="round" stroke="#023470" stroke-width="7" id="path_22"/><path fill="#000000" d="M3410.5,2051.8h277.9" fill-opacity="0" stroke-linejoin="round" stroke-linecap="round" stroke="#023470" stroke-width="70" id="path_23"/><path fill="#000000" d="M3656.8,2080.6h-246.3M3551.8,2080.6h-73.5M3074.1,2080.6h-81.8M3141.9,2080.6h-249M3410.7,2052v28.8" fill-opacity="0" stroke-linejoin="round" stroke-linecap="round" stroke="#023470" stroke-width="7" id="path_24"/><path fill="#000000" d="M3141.3,2080.9v-29.4" fill-opacity="0" stroke-linejoin="round" stroke-linecap="round" stroke="#023470" stroke-width="7.071" id="path_25"/><path fill="#000000" d="M2892.9,2080.6v1359.2M2892.9,2533.9v188.6M2892.9,2835.9v189.5M2892.9,3138.7v160.8M2859.4,3326.4v-187.7M2859.4,3025.4v-189.5M2859.4,2722.5v-188.6" fill-opacity="0" stroke-linejoin="round" stroke-linecap="round" stroke="#023470" stroke-width="7" id="path_26"/><path fill="#000000" d="M2859.4,2420.6v-368.8M3688.4,2051.8v1388.9" fill-opacity="0" stroke-linejoin="round" stroke-linecap="round" stroke="#023470" stroke-width="70" id="path_27"/><path fill="#000000" d="M3688.4,2534.9v186.7M3688.4,2834.9v190.5M3688.4,3138.7v188.6" fill-opacity="0" stroke-linejoin="round" stroke-linecap="round" stroke="#023470" stroke-width="7" id="path_28"/><path fill="#000000" d="M3688.4,3440.7v292.6" fill-opacity="0" stroke-linejoin="round" stroke-linecap="round" stroke="#023470" stroke-width="70" id="path_29"/><path fill="#000000" d="M3656.8,3704.5v-192.3M3656.8,3489.9v-49.2M3656.8,3299.5v-160.8M3656.8,3025.4v-190.5M3656.8,2721.6v-186.7M3656.8,3440.7V2080.6M5250.5,1425.6h-4.6M5250.5,1365.2v13M5250.5,1425.6v13M5250.5,1443.2v205.3M5245.9,1378.2h4.6M5245.9,1648.5v-222.9M5245.9,1378.2v-13M5364.8,1378.2h5.6M5370.4,1425.6h-5.6M5370.4,1365.2v13M5370.4,1425.6v222.9M5364.8,1648.5v-205.3M5364.8,1438.6v-13M5364.8,1378.2v-13M5284.9,1443.2h41.8M5284.9,1438.6h41.8M5284.9,1443.2h-34.4M5250.5,1438.6h34.4M5326.7,1438.6h38.1M5364.8,1443.2h-38.1M5602.7,1343.8h9.3M3692.1,1343.8h84.6M3824,1343.8h307.6M4179,1343.8h272.3M4498.7,1343.8h130.1M4676.2,1343.8h297.4M5021,1343.8h295.5M5363.9,1343.8h93.8M5479.1,1343.8h123.6M5583.2,1365.2h-219.3M5316.5,1365.2H5021M4973.6,1365.2h-297.4M4628.8,1365.2h-130.1M4451.3,1365.2h-52M4377.9,1365.2H4179M4131.6,1365.2H3824M3776.7,1365.2h-84.6M5363.9,1343.8v21.4M5316.5,1365.2v-21.4M5021,1343.8v21.4M4973.6,1365.2v-21.4M4676.2,1343.8v21.4M4628.8,1365.2v-21.4M4498.7,1343.8v21.4M4451.3,1365.2v-21.4M4179,1343.8v21.4M4131.6,1365.2v-21.4M3824,1343.8v21.4M3776.7,1365.2v-21.4M4042.4,1365.2v283.3M4035,1648.5v-283.3M4242.2,1411.6h9.3v-46.4M4251.5,1459v189.5M4251.5,1459h-9.3v189.5M4242.2,1411.6v-46.4M4558.2,1365.2v283.3M4549.8,1648.5v-283.3M4906.7,1365.2v283.3M4898.3,1648.5v-283.3M5113,1365.2v283.3M5108.3,1648.5v-283.3M5612,1370.8v385.5" fill-opacity="0" stroke-linejoin="round" stroke-linecap="round" stroke="#023470" stroke-width="7" id="path_30"/><path fill="#000000" d="M5583.2,1786v-98.4" fill-opacity="0" stroke-linejoin="round" stroke-linecap="round" stroke="#023470" stroke-width="70" id="path_31"/><path fill="#000000" d="M5583.2,1648.5v-283.3M4399.3,1365.2v40.9M4399.3,1405.1v243.4M4377.9,1648.5v-243.4M4377.9,1406.1v-40.9M5457.7,1222.1h21.4M5479.1,1332.7h-21.4M5457.7,1075.3h21.4M5479.1,1097.6v124.5M5479.1,1332.7v11.1M5457.7,1343.8v-11.1M5457.7,1222.1v-10.2M5457.7,1184.9v-109.6M5470.8,988.9h9.2M5480,1036.3v39M5480,1036.3h-9.2M5470.8,988.9v-39M5282.1,1071.6h-86.4M5195.7,1067h86.4" fill-opacity="0" stroke-linejoin="round" stroke-linecap="round" stroke="#023470" stroke-width="7" id="path_32"/><path fill="#000000" d="M5313.7,867.2v57.6" fill-opacity="0" stroke-linejoin="round" stroke-linecap="round" stroke="#023470" stroke-width="70" id="path_33"/><path fill="#000000" d="M5282.1,925.7h-0.9" fill-opacity="0" stroke-linejoin="round" stroke-linecap="round" stroke="#023470" stroke-width="7" id="path_34"/><path fill="#000000" d="M5281.2,867.2h32.5" fill-opacity="0" stroke-linejoin="round" stroke-linecap="round" stroke="#023470" stroke-width="70" id="path_35"/><path fill="#000000" d="M5281.2,925.7v-28.8M5281.2,867.2h0M5487.5,949.9h-184M5282.1,949.9h0" fill-opacity="0" stroke-linejoin="round" stroke-linecap="round" stroke="#023470" stroke-width="7" id="path_36"/><path fill="#000000" d="M5313.7,924.8h162.6" fill-opacity="0" stroke-linejoin="round" stroke-linecap="round" stroke="#023470" stroke-width="70" id="path_37"/><path fill="#000000" d="M5282.1,949.9v-24.2M5303.5,949.9v235M5282.1,1184.9v-235M5457.7,1211.9h-46.4M5363.9,1211.9h-337.3M4979.2,1211.9h-343.9M4637.2,1211.9h-148.7M4441.1,1211.9h-63.2M4399.3,1184.9h41.8M4488.5,1184.9h490.7M5026.6,1184.9h255.5M5303.5,1184.9h60.4M5411.3,1184.9h46.4M5411.3,1184.9v27M5363.9,1211.9v-27M5026.6,1184.9v27M4979.2,1211.9v-27M4488.5,1184.9v27M4441.1,1211.9v-27M5457.7,1134.8h-154.2M5303.5,1130.1h154.2M5602.7,677.7l-7.4,18.6 -13,29.7 -51.1,121.7 -43.7,102.2" fill-opacity="0" stroke-linejoin="round" stroke-linecap="round" stroke="#023470" stroke-width="7" id="path_38"/><path fill="#000000" d="m5476.3,924.8 l107.8,-254.5" fill-opacity="0" stroke-linejoin="round" stroke-linecap="round" stroke="#023470" stroke-width="70" id="path_39"/><path fill="#000000" d="M5524.7,1075.3h11.1M5485.6,1075.3h39.1M5535.8,1092v5.6h-56.7M5479.1,1075.3h6.5M5531.2,847.7l188.6,79.9 -1.9,4.6 -189.5,-79.9M5524.7,1075.3h28.8M5610.2,1075.3h18.5M5628.7,1092h-18.5M5553.5,1092h-17.7M5610.2,1075.3v16.7M5553.5,1092v-16.7M5195.7,896.9v100.4M5195.7,1033.5v33.5M5195.7,1071.6v40.9M5195.7,1148.7v36.2h-4.7M5195.7,1033.5h-4.7M5191,997.3h4.7M5195.7,1148.7h-4.7M5191,1112.5h4.7M5191,1184.9v-36.2M5191,1112.5v-79M5191,997.3V896.9M4583.3,1184.9h4.6M4583.3,1184.9v-288M4230.1,896.9v197M4230.1,1141.3v47.4M4224.6,1093.9h5.5M4230.1,1141.3h-5.5v47.4M4224.6,1093.9v-197M5281.2,896.9l-4005.3,5.6" fill-opacity="0" stroke-linejoin="round" stroke-linecap="round" stroke="#023470" stroke-width="7" id="path_40"/><path fill="#000000" d="M5272.8,867.2h8.4" fill-opacity="0" stroke-linejoin="round" stroke-linecap="round" stroke="#023470" stroke-width="70" id="path_41"/><path fill="#000000" d="M4399.3,896.9v288M4377.9,1188.7V896.9M3692.1,1188.7h85.5M3824,1188.7h298.4M4169.7,1188.7h208.2M4377.9,1211.9h-208.2M4122.4,1211.9H3824M3777.6,1211.9h-85.5M4169.7,1188.7v23.2M4122.4,1211.9v-23.2M3824,1188.7v23.2M3777.6,1211.9v-23.2" fill-opacity="0" stroke-linejoin="round" stroke-linecap="round" stroke="#023470" stroke-width="7" id="path_42"/><path fill="#000000" d="M5833.2,1786h-250" fill-opacity="0" stroke-linejoin="round" stroke-linecap="round" stroke="#023470" stroke-width="70" id="path_43"/><path fill="#000000" d="M5612,1756.3h187.7M5811.8,148.1l-210.9,498" fill-opacity="0" stroke-linejoin="round" stroke-linecap="round" stroke="#023470" stroke-width="7" id="path_44"/><path fill="#000000" d="m5555.3,658.2 l233.3,-550M5584.1,670.3l-28.8,-12.1" fill-opacity="0" stroke-linejoin="round" stroke-linecap="round" stroke="#023470" stroke-width="70" id="path_45"/><path fill="#000000" d="M3615,3588.4h-5.6M3609.4,3581.9h5.6M3609.4,3639.5h47.4M3656.8,3645.1h-47.4M3609.4,3692.5h-4.7M3604.7,3657.2h4.7M3604.7,3595.8h4.7M3609.4,3512.2v69.7M3609.4,3588.4v7.4M3609.4,3631.1v8.4M3609.4,3645.1v12.1M3609.4,3692.5v12M3609.4,3631.1h-4.7M3604.7,3704.5v-12M3604.7,3657.2v-26.1M3604.7,3595.8v-83.6M3656.8,3512.2H3562M3347.3,3489.9h167.3M3562,3489.9h94.8M3562,3489.9v22.3M3514.6,3512.2v-22.3" fill-opacity="0" stroke-linejoin="round" stroke-linecap="round" stroke="#023470" stroke-width="7" id="path_46"/><path fill="#000000" d="M3688.4,3733.3h-829" fill-opacity="0" stroke-linejoin="round" stroke-linecap="round" stroke="#023470" stroke-width="70" id="path_47"/><path fill="#000000" d="M3369.6,3704.5h287.2M3029.5,3320.8v169.1M3016.5,3489.9v-169.1M3440.2,3369.1v3.8M3440.2,3320.8v169.1M3434.7,3489.9v-190.4M3347.3,3489.9h0M3347.3,3515.9h-27.9M3233,3515.9h-269.5M2916.1,3515.9h-23.2M2892.9,3489.9h23.2M2963.5,3489.9H3233M3319.4,3489.9h27.9M3319.4,3489.9v26M3233,3515.9v-26M2963.5,3489.9v26M2916.1,3515.9v-26M3347.3,3545.7h22.3v-33.5h145M3369.6,3593v111.5M3369.6,3593h-22.3v111.5h-454.4M3347.3,3545.7v-29.8M2892.9,3439.8v50.1M2892.9,3515.9v188.6" fill-opacity="0" stroke-linejoin="round" stroke-linecap="round" stroke="#023470" stroke-width="7" id="path_48"/><path fill="#000000" d="M2859.4,3733.3V2420.6" fill-opacity="0" stroke-linejoin="round" stroke-linecap="round" stroke="#023470" stroke-width="70" id="path_49"/><path fill="#000000" d="M3656.8,3320.8h-216.6M3434.7,3299.5h222.1M3656.8,2265.4h-763.9M2892.9,2248.7h763.9M3440.2,3369.1v3.8M3082.5,3299.5v21.3h-53M3016.5,3320.8h-123.6M2892.9,3299.5h189.6M2859.4,3326.4v-14.9M5602.7,1343.8h66.9M5740.3,1343.8h59.4M5799.7,1370.8h-59.4M5669.6,1370.8H5612M5740.3,1343.8v27M5669.6,1370.8v-27M5600.9,646.1l221.1,93.8M5813.7,760.4l-2.8,5.5M5792.3,757.6l-189.6,-79.9M5656.6,900.7l-3.7,-1.9M5743,925.7l-63.2,149.6M5725.4,915.5h0M5810.9,765.9l-30.7,71.6M5761.6,881.1l-18.6,44.6M5761.6,830.1l30.7,-72.5M5761.6,830.1l18.6,7.4M5761.6,881.1l-18.6,-7.4M5743,925.7h0M5628.7,1075.3h29.8M5679.8,1075.3h16.8M5781.1,1075.3h37.2M5799.7,1097.6h-18.6M5696.6,1097.6h-67.9M5781.1,1075.3v22.3M5696.6,1097.6v-22.3M5628.7,1097.6v-5.6" fill-opacity="0" stroke-linejoin="round" stroke-linecap="round" stroke="#023470" stroke-width="7" id="path_50"/><path fill="#000000" d="M5833.2,1093v693" fill-opacity="0" stroke-linejoin="round" stroke-linecap="round" stroke="#023470" stroke-width="70" id="path_51"/><path fill="#000000" d="M5799.7,1756.3v-385.5M5799.7,1343.8v-246.2M5780.2,785.5l-1.8,3.7" fill-opacity="0" stroke-linejoin="round" stroke-linecap="round" stroke="#023470" stroke-width="7" id="path_52"/><path fill="#000000" d="m5947.5,823.5 l-79,187.7 -35.3,81.8" fill-opacity="0" stroke-linejoin="round" stroke-linecap="round" stroke="#023470" stroke-width="70" id="path_53"/><path fill="#000000" d="m5818.3,1075.3 l30.7,-72.4 81.8,-192.4M5940,790.1l2.8,0.9M5822,739.9l118,50.2M5930.8,810.5l-117.1,-50.1" fill-opacity="0" stroke-linejoin="round" stroke-linecap="round" stroke="#023470" stroke-width="7" id="path_54"/><path fill="#000000" d="m5788.6,108.2 l707.2,299.1" fill-opacity="0" stroke-linejoin="round" stroke-linecap="round" stroke="#023470" stroke-width="70" id="path_55"/><path fill="#000000" d="m6451.2,418.5 l-87.4,-36.3 -552,-234.1" fill-opacity="0" stroke-linejoin="round" stroke-linecap="round" stroke="#023470" stroke-width="7" id="path_56"/><path fill="#000000" d="m6262.5,957.3 l-315,-133.8" fill-opacity="0" stroke-linejoin="round" stroke-linecap="round" stroke="#023470" stroke-width="70" id="path_57"/><path fill="#000000" d="m5940,790.1 l2.8,0.9 297.4,125.5" fill-opacity="0" stroke-linejoin="round" stroke-linecap="round" stroke="#023470" stroke-width="7" id="path_58"/><path fill="#000000" d="m6495.8,407.3 l-233.3,550" fill-opacity="0" stroke-linejoin="round" stroke-linecap="round" stroke="#023470" stroke-width="70" id="path_59"/><path fill="#000000" d="m6240.2,916.5 l211,-498M826.1,892.3v0.9l1.9,3.7 62.3,175.6M822.4,893.2l3.7,-0.9M877.3,1094.8H867M828,1094.8h-78.1M745.3,1082.8H828M867,1082.8h1M867,1082.8v12M828,1094.8v-12M630.1,767.8l50.1,137.5 65.1,177.5" fill-opacity="0" stroke-linejoin="round" stroke-linecap="round" stroke="#023470" stroke-width="7" id="path_60"/><path fill="#000000" d="m723,1097.6 l-66.9,-183 -44.6,-120.8" fill-opacity="0" stroke-linejoin="round" stroke-linecap="round" stroke="#023470" stroke-width="70" id="path_61"/><path fill="#000000" d="M749.9,1094.8v249M749.9,1370.8v379" fill-opacity="0" stroke-linejoin="round" stroke-linecap="round" stroke="#023470" stroke-width="7" id="path_62"/><path fill="#000000" d="M723,1786v-688.4" fill-opacity="0" stroke-linejoin="round" stroke-linecap="round" stroke="#023470" stroke-width="70" id="path_63"/><path fill="#000000" d="m766.7,738.1 l28.8,78M811.3,860.7l11.1,32.5M811.3,860.7l-20.5,7.4 11.2,32.6 66,182.1M775,823.5l-37.1,-101.2 -1,-2.8M775,823.5l20.5,-7.4M737.9,722.3l1.8,5.6L629.1,765M621.7,756.7l115.2,-37.2M621.7,757.6v-0.9" fill-opacity="0" stroke-linejoin="round" stroke-linecap="round" stroke="#023470" stroke-width="7" id="path_64"/><path fill="#000000" d="M611.5,793.8 L292.7,900.7" fill-opacity="0" stroke-linejoin="round" stroke-linecap="round" stroke="#023470" stroke-width="70" id="path_65"/><path fill="#000000" d="m626.3,755.7 l2.8,9.3 1,2.8" fill-opacity="0" stroke-linejoin="round" stroke-linecap="round" stroke="#023470" stroke-width="7" id="path_66"/><path fill="#000000" d="m314.1,860.7 l307.6,-103.1 4.6,-1.9M135.7,360l178.4,500.7" fill-opacity="0" stroke-linejoin="round" stroke-linecap="round" stroke="#023470" stroke-width="7" id="path_67"/><path fill="#000000" d="m292.7,900.7 l-24.1,-67.9L92,339.5l724.8,-238.8" fill-opacity="0" stroke-linejoin="round" stroke-linecap="round" stroke="#023470" stroke-width="70" id="path_68"/><path fill="#000000" d="M795.5,142.6 L135.7,360M3251.6,3515.9h-209.1M3482.1,1020.5h30.6M3399.4,1020.5h-58.6M3211.6,1020.5h-60.4M3068.5,1020.5h-29.7M3360,1830.8h-161.7" fill-opacity="0" stroke-linejoin="round" stroke-linecap="round" stroke="#023470" stroke-width="7" id="path_69"/></svg>